<svg xmlns="http://www.w3.org/2000/svg" xmlns:xlink="http://www.w3.org/1999/xlink" width="357" height="239" viewBox="0 0 357 239">
  <defs>
    <filter id="Rectangle_20727" x="0" y="0" width="357" height="239" filterUnits="userSpaceOnUse">
      <feOffset dy="3" input="SourceAlpha"/>
      <feGaussianBlur stdDeviation="3" result="blur"/>
      <feFlood flood-opacity="0.161"/>
      <feComposite operator="in" in2="blur"/>
      <feComposite in="SourceGraphic"/>
    </filter>
  </defs>
  <g id="Group_39160" data-name="Group 39160" transform="translate(-9 -182)">
    <g transform="matrix(1, 0, 0, 1, 9, 182)" filter="url(#Rectangle_20727)">
      <rect id="Rectangle_20727-2" data-name="Rectangle 20727" width="339" height="221" rx="7" transform="translate(9 6)" fill="#14254b"/>
    </g>
    <path id="Android_UI" data-name="Android UI" d="M-112.83-21.06a12.25,12.25,0,0,1,5.82,1.32,9.43,9.43,0,0,1,3.855,3.7,10.886,10.886,0,0,1,1.365,5.5,10.908,10.908,0,0,1-1.365,5.49,9.38,9.38,0,0,1-3.87,3.72A12.272,12.272,0,0,1-112.83,0h-7.89V-21.06Zm-.33,16.62a6.191,6.191,0,0,0,4.53-1.59,6.02,6.02,0,0,0,1.62-4.5,6.124,6.124,0,0,0-1.62-4.53,6.124,6.124,0,0,0-4.53-1.62h-2.43V-4.44ZM-91.29.21a10.833,10.833,0,0,1-4.14-.75,6.748,6.748,0,0,1-2.925-2.22A6.065,6.065,0,0,1-99.51-6.3h5.46a2.649,2.649,0,0,0,.81,1.785,2.6,2.6,0,0,0,1.8.615,2.815,2.815,0,0,0,1.8-.525,1.756,1.756,0,0,0,.66-1.455A1.722,1.722,0,0,0-89.5-7.17a4.235,4.235,0,0,0-1.29-.84,20.751,20.751,0,0,0-2.175-.75,23.682,23.682,0,0,1-3.33-1.26,6.153,6.153,0,0,1-2.22-1.86,5.183,5.183,0,0,1-.93-3.21,5.52,5.52,0,0,1,2.13-4.6,8.752,8.752,0,0,1,5.55-1.665,8.854,8.854,0,0,1,5.61,1.665,5.96,5.96,0,0,1,2.28,4.635h-5.55a2.171,2.171,0,0,0-.75-1.6,2.642,2.642,0,0,0-1.77-.585,2.206,2.206,0,0,0-1.5.5,1.785,1.785,0,0,0-.57,1.425,1.766,1.766,0,0,0,.96,1.59,15.737,15.737,0,0,0,3,1.23,27.744,27.744,0,0,1,3.315,1.32A6.311,6.311,0,0,1-84.54-9.36a4.9,4.9,0,0,1,.93,3.09A6.064,6.064,0,0,1-84.525-3,6.408,6.408,0,0,1-87.18-.66,9.089,9.089,0,0,1-91.29.21Zm15.96-4.17h6.72V0H-80.46V-21.06h5.13Zm30.69-17.1v4.11h-5.58V0h-5.13V-16.95h-5.58v-4.11ZM-26.28-8.64a13.1,13.1,0,0,1-.09,1.5H-37.98a3.489,3.489,0,0,0,1.005,2.385A3.07,3.07,0,0,0-34.8-3.93a2.7,2.7,0,0,0,2.67-1.62h5.46a7.492,7.492,0,0,1-1.515,2.97A7.585,7.585,0,0,1-30.93-.51a8.817,8.817,0,0,1-3.69.75A8.979,8.979,0,0,1-39-.81a7.469,7.469,0,0,1-3-3,9.262,9.262,0,0,1-1.08-4.56,9.367,9.367,0,0,1,1.065-4.56,7.372,7.372,0,0,1,2.985-3,9.042,9.042,0,0,1,4.41-1.05,8.952,8.952,0,0,1,4.32,1.02,7.324,7.324,0,0,1,2.955,2.91A8.833,8.833,0,0,1-26.28-8.64Zm-5.25-1.35a2.638,2.638,0,0,0-.9-2.1,3.313,3.313,0,0,0-2.25-.78,3.249,3.249,0,0,0-2.175.75A3.331,3.331,0,0,0-37.95-9.99Zm13.08-3.96a6.767,6.767,0,0,1,2.25-2.175,5.8,5.8,0,0,1,3-.8v5.43h-1.41a4.322,4.322,0,0,0-2.88.825,3.665,3.665,0,0,0-.96,2.895V0h-5.13V-16.74h5.13Zm12.84,0a6.767,6.767,0,0,1,2.25-2.175,5.8,5.8,0,0,1,3-.8v5.43H-1.77a4.322,4.322,0,0,0-2.88.825A3.665,3.665,0,0,0-5.61-7.77V0h-5.13V-16.74h5.13ZM1.08-8.4a10,10,0,0,1,.975-4.53,7.273,7.273,0,0,1,2.655-3,6.931,6.931,0,0,1,3.75-1.05,6.442,6.442,0,0,1,3.105.72,5.3,5.3,0,0,1,2.055,1.89v-2.37h5.13V0H13.62V-2.37A5.54,5.54,0,0,1,11.535-.48a6.442,6.442,0,0,1-3.1.72A6.807,6.807,0,0,1,4.71-.825a7.359,7.359,0,0,1-2.655-3.03A10.1,10.1,0,0,1,1.08-8.4Zm12.54.03a4.194,4.194,0,0,0-1.065-3.03A3.46,3.46,0,0,0,9.96-12.51a3.483,3.483,0,0,0-2.6,1.1A4.141,4.141,0,0,0,6.3-8.4,4.248,4.248,0,0,0,7.365-5.355,3.438,3.438,0,0,0,9.96-4.23a3.46,3.46,0,0,0,2.595-1.11A4.194,4.194,0,0,0,13.62-8.37ZM36.45.21a10.833,10.833,0,0,1-4.14-.75,6.748,6.748,0,0,1-2.925-2.22A6.065,6.065,0,0,1,28.23-6.3h5.46a2.649,2.649,0,0,0,.81,1.785,2.6,2.6,0,0,0,1.8.615,2.815,2.815,0,0,0,1.8-.525,1.756,1.756,0,0,0,.66-1.455,1.722,1.722,0,0,0-.525-1.29,4.235,4.235,0,0,0-1.29-.84,20.75,20.75,0,0,0-2.175-.75,23.682,23.682,0,0,1-3.33-1.26,6.153,6.153,0,0,1-2.22-1.86,5.183,5.183,0,0,1-.93-3.21,5.52,5.52,0,0,1,2.13-4.6,8.752,8.752,0,0,1,5.55-1.665,8.854,8.854,0,0,1,5.61,1.665,5.96,5.96,0,0,1,2.28,4.635H38.31a2.171,2.171,0,0,0-.75-1.6,2.642,2.642,0,0,0-1.77-.585,2.206,2.206,0,0,0-1.5.5,1.785,1.785,0,0,0-.57,1.425,1.766,1.766,0,0,0,.96,1.59,15.737,15.737,0,0,0,3,1.23A27.745,27.745,0,0,1,41-11.19a6.311,6.311,0,0,1,2.2,1.83,4.9,4.9,0,0,1,.93,3.09A6.064,6.064,0,0,1,43.215-3,6.408,6.408,0,0,1,40.56-.66,9.089,9.089,0,0,1,36.45.21ZM68.64-16.92a6.62,6.62,0,0,1,4.965,1.89A7.2,7.2,0,0,1,75.45-9.78V0h-5.1V-9.09A3.459,3.459,0,0,0,69.5-11.6a3.121,3.121,0,0,0-2.355-.885,3.121,3.121,0,0,0-2.355.885A3.459,3.459,0,0,0,63.93-9.09V0h-5.1V-9.09a3.459,3.459,0,0,0-.855-2.505,3.121,3.121,0,0,0-2.355-.885,3.121,3.121,0,0,0-2.355.885A3.458,3.458,0,0,0,52.41-9.09V0H47.28V-16.74h5.13v2.1a5.491,5.491,0,0,1,2.04-1.665,6.414,6.414,0,0,1,2.85-.615,6.933,6.933,0,0,1,3.375.81A5.807,5.807,0,0,1,63-13.8a6.743,6.743,0,0,1,2.37-2.25A6.4,6.4,0,0,1,68.64-16.92ZM78.03-8.4a10,10,0,0,1,.975-4.53,7.273,7.273,0,0,1,2.655-3,6.931,6.931,0,0,1,3.75-1.05,6.442,6.442,0,0,1,3.1.72,5.3,5.3,0,0,1,2.055,1.89v-2.37H95.7V0H90.57V-2.37A5.54,5.54,0,0,1,88.485-.48a6.442,6.442,0,0,1-3.1.72A6.807,6.807,0,0,1,81.66-.825a7.359,7.359,0,0,1-2.655-3.03A10.1,10.1,0,0,1,78.03-8.4Zm12.54.03a4.194,4.194,0,0,0-1.065-3.03,3.46,3.46,0,0,0-2.6-1.11,3.483,3.483,0,0,0-2.6,1.1A4.141,4.141,0,0,0,83.25-8.4a4.248,4.248,0,0,0,1.065,3.045,3.438,3.438,0,0,0,2.6,1.125,3.46,3.46,0,0,0,2.6-1.11A4.194,4.194,0,0,0,90.57-8.37Zm13.98-5.58a6.767,6.767,0,0,1,2.25-2.175,5.8,5.8,0,0,1,3-.8v5.43h-1.41a4.322,4.322,0,0,0-2.88.825,3.665,3.665,0,0,0-.96,2.895V0H99.42V-16.74h5.13Zm17.04,9.6V0h-2.61a6.389,6.389,0,0,1-4.35-1.365q-1.56-1.365-1.56-4.455v-6.66h-2.04v-4.26h2.04v-4.08h5.13v4.08h3.36v4.26H118.2v6.72a1.406,1.406,0,0,0,.36,1.08,1.757,1.757,0,0,0,1.2.33Z" transform="translate(188 309)" fill="#fff"/>
  </g>
</svg>
