<?xml version="1.0" encoding="UTF-8"?>
<svg id="Layer_2" data-name="Layer 2" xmlns="http://www.w3.org/2000/svg" viewBox="0 0 70.62 70.62">
  <defs>
    <style>
      .cls-1 {
        fill: #6bddb3;
      }

      .cls-1, .cls-2, .cls-3, .cls-4 {
        stroke-width: 0px;
      }

      .cls-2 {
        fill: #226e95;
      }

      .cls-3 {
        fill: #efeaea;
      }

      .cls-4 {
        fill: #02adff;
      }
    </style>
  </defs>
  <g id="Layer_1-2" data-name="Layer 1">
    <g>
      <circle id="Ellipse_598" data-name="Ellipse 598" class="cls-4" cx="35.31" cy="35.31" r="35.31"/>
      <path class="cls-1" d="M41.99,53.21c-.32,0-.64-.15-.92-.29l-.09-.04h-.08c-.17.05-.35.06-.53.06-1.39,0-2.42-.99-3.09-2.96l-.02-.07-.02-.03c-.59-.92-.66-1.9-.65-2.82v-.39s-.36.15-.36.15c-.04.02-.09.04-.12.05-.24.1-.43.19-.63.21-.09,0-.19.02-.29.02-.76,0-1.35-.34-1.71-.97-.29-.52-.36-1.13-.41-1.57-.01-.13-.03-.24-.04-.3v-.03s-.02-.03-.02-.03c-.12-.29-.26-.58-.4-.85l-.2-.37-.24.35c-.27.39-.64.72-1.06.95-.2.12-.4.24-.61.36-.23.14-.49.3-.75.44l-.2.11.08.21c.22.54.35.92.36,1.28.02.49-.19.83-.44,1.27-.12.21-.26.44-.43.76-.1.19-.2.38-.31.56-.12.22-.24.42-.34.63-.39.79-1.1.88-1.61.88-.08,0-.15,0-.22,0h-.07c-.41-.01-1.13-.19-1.4-1.21-.1-.37-.2-.74-.29-1.09-.14-.52-.29-1.05-.42-1.59-.08-.31-.16-.42-.29-.5-.25-.17-.47-.37-.66-.6-.08-.09-.19-.15-.32-.15-.01,0-.03,0-.04,0-.14.02-.29.03-.44.03h-.01s-.09,0-.14,0c-.03,0-.07,0-.1,0-.77,0-1.34-.38-1.6-1.07-.06-.16-.14-.32-.22-.47-.03-.06-.06-.11-.09-.17-.29-.57-.36-1.16-.24-1.88.07-.4.07-.81,0-1.2l-.03-.15-.15-.04c-.13-.03-.26-.06-.39-.08-.07-.01-.15-.02-.22-.04-.12-.02-.24-.03-.35-.03-.11,0-.22,0-.33,0-.16,0-.29,0-.41,0-.26,0-.73-.12-.94-.88-.08-.34-.14-.69-.17-1.04-.15-1.22-.36-2.9-1.5-3.53h-.02s-.08-.04-.08-.04c-.42-.15-1.69-.6-2.05-2.29-.21-.97.88-2.16,1.68-2.38.22-.06.45-.1.68-.1.81,0,1.63.42,2.3,1.19l.08.09h.12c.27,0,.75-.29,1.19-.72l.08-.07v-.11c.01-.62.34-1.14.94-1.46l.46-.24-.5-.23c-1.07-.5-1-1.28-.81-1.9.33-1.09,1.02-1.68,2.2-1.85.85-.13,1.68-.26,2.47-.51l.05-.02.04-.04c.15-.14.36-.2.56-.17l2.99-.03c.53.11,4.67,2.4,5.17,2.62,1.98,1.46,3.92,1.03,5.67,1.03.77,0,1.52-.04,2.19-.07.56-.03,1.09-.05,1.54-.05.21,0,.46.02.73.04.33.02.7.05,1.08.05.45,0,1.45.56,1.82.49l.17-.04.06-.1.02-.04c.27-.46.49-.82.42-1.23-.02-.16-.07-.33-.11-.51-.03-.13-.07-.27-.09-.41-.12-.62.06-1.02.24-1.25.25-.31.63-.49,1.1-.5.31,0,.72-.02,1.14-.02.48,0,.91.01,1.32.04.57.04,1,.56,1.14.83.42.77.77,1.54,1.03,2.13l.07.15h.16c.5.02,1.42.04,2.1.77l.07.07h.1c.07.01.14.02.18.02.56.03.97.21,1.21.54.23.33.28.75.13,1.26-.2.69-.48,1.64-1.44,2.19l-.15.08.02.17c.13,1.24-.51,2.1-1.81,2.43h0c-.14.06-.27.15-.38.26-.08.07-.15.16-.22.25l-.1.15.1.15c.08.11.17.2.27.29.03.03.06.06.09.09s.07.07.09.09h.02s.02.03.02.03c1.21.68,1.13,1.92,1.1,2.45-.07,1.06-.99,1.43-1.49,1.62l-.08.03c-.15.06-.31.09-.47.09-.4,0-.82-.16-1.14-.31-.48-.21-.54-.76-.58-1.13v-.03c-.02-.15-.07-.29-.14-.42-.75-1.1-1.22-1.91-1.52-2.44-.1-.17-.2-.35-.28-.48l-.12-.19-.21.1c-.4.18-.55.34-.61.42l-.06.08v.1c.04.25.33.64.82,1.22.38.45.78.92.94,1.42.12.37.02.74-.09,1.06-.08.21-.16.41-.25.6-.1.22-.19.45-.27.68-.23.78-.77,1.3-1.59,1.55-.35.1-.7.23-1.03.38-.6.29-1.26.44-1.93.43-.34,0-.68-.03-1.02-.08l-.71-.1.48.53c.2.22.44.48.7.73.91.89.72,2.03.65,2.41-.02.12-.06.37-.72,1-.28.27-.7.63-1.13.82-.16.07-.33.1-.5.1-.26,0-.52-.06-.76-.16l-.29.41c.2.22.41.43.64.63,1.31,1.12,1.36,2.07,1.27,2.54-.09.44-.28.75-.59.9-.13.07-.28.1-.43.1h0Z"/>
      <path class="cls-2" d="M33.17,33.96c.29.29.61.43.95.43h0c.34,0,.67-.14.96-.43l.02-.02c2.63-2.77,7.53-7.91,4.81-13.09h0c-1.12-2.09-3.33-3.4-5.77-3.44h-.03c-2.44.04-4.66,1.35-5.77,3.44-2.72,5.18,2.18,10.32,4.81,13.09l.02.02Z"/>
      <path class="cls-3" d="M37.88,24.06c0-2.07-1.68-3.75-3.75-3.75s-3.75,1.68-3.75,3.75c0,2.07,1.68,3.75,3.75,3.75,2.07,0,3.75-1.68,3.75-3.75Z"/>
    </g>
  </g>
</svg>