<svg xmlns="http://www.w3.org/2000/svg" width="16.491" height="17.792" viewBox="0 0 16.491 17.792">
  <g id="Group_39820" data-name="Group 39820" transform="translate(-18.712)">
    <path id="Path_41316" data-name="Path 41316" d="M87.157,137.975V134.59H80.979v11.431a1.685,1.685,0,0,0,1.684,1.684h7.753a1.685,1.685,0,0,0,1.684-1.684v-6.483H88.721A1.566,1.566,0,0,1,87.157,137.975Zm-3.568,7.645a.521.521,0,1,1,.514-.521A.521.521,0,0,1,83.589,145.619Zm3.823,0H85.681a.521.521,0,1,1,0-1.042h1.732a.521.521,0,0,1,0,1.042Zm2.085-1.042a.521.521,0,1,1-.521.521A.521.521,0,0,1,89.5,144.577Z" transform="translate(-60.103 -129.913)"/>
    <path id="Path_41317" data-name="Path 41317" d="M81.129,61.549H87.3V60H82.807A1.686,1.686,0,0,0,81.129,61.549Z" transform="translate(-60.248 -57.915)"/>
    <path id="Path_41318" data-name="Path 41318" d="M21.729,2.288a.521.521,0,0,0-.079-1.039l-.046,0a3.3,3.3,0,0,0-2.87,3.657.521.521,0,0,0,1.035-.122A2.259,2.259,0,0,1,21.729,2.288Z" transform="translate(0 -1.204)"/>
    <path id="Path_41319" data-name="Path 41319" d="M295.733,2.144,293.741.153A.522.522,0,0,0,293.372,0H289.3a.521.521,0,0,0-.521.521V3.634h7.107V2.513A.522.522,0,0,0,295.733,2.144Z" transform="translate(-260.683 0)"/>
    <path id="Path_41320" data-name="Path 41320" d="M289.3,138.5h1.153V134.59h-1.674v3.385A.521.521,0,0,0,289.3,138.5Z" transform="translate(-260.683 -129.913)"/>
    <path id="Path_41321" data-name="Path 41321" d="M366.949,134.59h1.674V138.5h-1.674Z" transform="translate(-336.136 -129.913)"/>
    <path id="Path_41322" data-name="Path 41322" d="M445.119,138.5h1.153a.521.521,0,0,0,.521-.521V134.59h-1.674Z" transform="translate(-411.59 -129.913)"/>
  </g>
</svg>
