<?xml version="1.0" encoding="UTF-8"?>
<svg id="Layer_2" data-name="Layer 2" xmlns="http://www.w3.org/2000/svg" viewBox="0 0 70.62 70.62">
  <defs>
    <style>
      .cls-1 {
        fill: #6bddb3;
      }

      .cls-1, .cls-2, .cls-3, .cls-4 {
        stroke-width: 0px;
      }

      .cls-2 {
        fill: #226e95;
      }

      .cls-3 {
        fill: #efeaea;
      }

      .cls-4 {
        fill: #02adff;
      }
    </style>
  </defs>
  <g id="Layer_1-2" data-name="Layer 1">
    <g>
      <circle id="Ellipse_598" data-name="Ellipse 598" class="cls-4" cx="35.31" cy="35.31" r="35.31"/>
      <path class="cls-1" d="M36.91,52.93c-.31,0-.64-.14-.98-.4-.36-.29-.47-.84-.59-1.43-.05-.23-.09-.45-.13-.56v-.04s-.03-.03-.03-.03c-.23-.34-.43-.7-.59-1.08-.13-.3-.29-.59-.47-.87-.38-.54-.46-1.13-.49-1.63,0-.16-.05-.32-.13-.46-.24-.34-.91-.56-1.1-.62-.14-.04-.28.03-.32.17-.02.05-.01.11,0,.16l.11.31c.04.11.08.23.12.34v.03c.13.34.26.68.38,1.03.23.67.07,1.31-.42,1.74-.27.25-.63.39-1,.39-.3,0-.59-.08-.84-.23-.25-.13-.49-.3-.71-.49-.15-.14-.3-.27-.45-.41-.53-.46-1.04-.96-1.52-1.47-.27-.32-.51-.66-.72-1.02-.06-.11-.2-.15-.31-.11-.43.17-.9.25-1.36.25-.29,0-.57-.03-.85-.09-.09-.02-.19.01-.25.09-.44.53-1,.84-1.53,1.11-.39.2-.74.53-1.12.89l-.05.05c-.22.22-.43.44-.62.68-.14.17-.29.34-.45.5-.69.74-1.52,1.12-2.45,1.12-.2,0-.39-.02-.59-.05-.4-.06-.79-.09-1.19-.09-.08,0-.16,0-.23,0-.63-.03-1.19-.29-1.67-.79-.36-.38-.74-.75-1.14-1.09-.98-.84-1.24-1.79-.76-2.83.6-1.33,1.29-2.61,2.05-3.85.5-.8,1.26-1.24,2.14-1.24.4,0,.79.08,1.16.23.51.19,1,.41,1.54.66.13.06.28,0,.34-.13,0-.01.01-.03.01-.04.03-.1.04-.2.03-.3-.07-.95.32-1.87,1.05-2.48.4-.35,1-.84,1.41-1.13.54-.39,1.87-1.25,2.66-1.6.73-.33,1.96-.71,3.26-1.12,1.84-.58,3.69-1.18,4.29-1.56.06-.04.1-.09.11-.16.21-.89.71-1.68,1.49-2.33.09-.07.12-.2.07-.31l-.6-1.28c-.05-.11-.16-.16-.28-.14-.14.03-.29.06-.43.11-.1.03-.16.12-.17.22-.13,1.79-.66,2.93-1.57,3.39-.08.04-.15.08-.23.12-.51.26-1.14.59-1.77.59-.35,0-.69-.11-.97-.33-.06-.04-.13-.06-.19-.05-.19.03-.37.05-.56.06-.12,0-.22,0-.31.01s-.19,0-.28,0c-.28,0-.57-.03-.83-.27-.34-.32-.34-.81-.35-1.16,0-.89.14-1.76.28-2.61l.02-.09c.1-.64.55-1.17,1.22-1.47.93-.42,1.56-1.16,2.22-2.14.58-.87,1.2-1.73,1.79-2.55.38-.52.76-1.07,1.14-1.6.41-.59.97-.9,1.62-.9.22,0,.44.03.66.1.27.08.54.14.81.21.41.1.82.2,1.23.34,1.1.36,1.74.95,2.01,1.86h0c.04.14.18.21.32.17.07-.02.13-.07.16-.14.22-.47.44-.93.66-1.39l.02-.03c.57-1.21,1.16-2.45,1.76-3.67.54-1.08,1.46-1.71,2.54-1.71.24,0,.48.03.72.09,1.38.34,2.29,1.63,2.21,3.14,0,.06,0,.11,0,.17h0c0,.24-.02.47-.07.69-.1.41.02.75.44,1.23.62.69,1.19,1.43,1.71,2.2.26.39.42.83.57,1.21.06.15.11.3.17.44l.03.08.08.04c.45.26.98.66,1.08,1.52.01.12.1.21.22.23.07.01.14.02.17.02.08.01.16.02.24.03h.02c.12.01.24.03.36.04.87.13,1.58.65,1.89,1.38.31.73.19,1.58-.32,2.29-.24.33-.54.58-.81.79l-.05.04c-.33.26-.65.51-.95.74-.11.09-.13.25-.05.36,0,0,.01.01.02.02,1.38,1.46,1.09,2.89.61,3.82-.07.14-.13.29-.18.44l-.02.05c-.13.33-.14.6-.04.82s.32.39.65.5c.19.06.39.11.6.14,1.19.2,1.95.79,2.26,1.77l.02.06s.01.05.01.08v.73s0,.07-.02.1l-.03.08c-.53,1.25-1.62,1.57-2.71,1.72-5.41.76-8.32,2.42-10.66,3.76-.75.43-1.45.83-2.16,1.16-.54.25-.86.82-.8,1.41.05.49,0,.91-.12,1.24-.15.38-.37.73-.64,1.03-.05.06-.1.11-.15.16-.29.33-.54.6-.89.75-.14.06-.29.09-.44.09h0Z"/>
      <path class="cls-1" d="M20.41,36.67c-.18,0-.35,0-.52,0h-.12c-.58-.01-1.06-.24-1.33-.64-.27-.39-.32-.9-.14-1.44.14-.41.31-.79.48-1.17v-.02c.07-.15.14-.3.2-.45.04-.11.09-.22.15-.33.12-.21.14-.46.08-.69-.04-.18-.07-.36-.08-.54-.05-.52.13-1.03.49-1.42.36-.37.88-.58,1.47-.58.02,0,.04,0,.06,0,.34,0,.68.06,1.01.17.91.32,1.35,1.23,1.06,2.2-.11.37-.08.73.09,1.29.13.43.21.88.23,1.33,0,.09,0,.17-.03.25l-.02.05v.05s0,.07,0,.1c-.03.83-.66,1.74-2.31,1.78h-.02c-.23.02-.48.03-.78.03Z"/>
      <path class="cls-2" d="M49,37.44c-1.12-2.08-3.33-3.4-5.78-3.44h-.03c-2.45.04-4.66,1.35-5.78,3.45-2.73,5.19,2.18,10.34,4.81,13.11l.02.02c.29.29.61.43.96.43h.01c.34,0,.66-.15.96-.43l.02-.02c2.63-2.77,7.54-7.92,4.81-13.11h0Z"/>
      <path class="cls-3" d="M43.21,36.9c-2.07,0-3.75,1.68-3.75,3.75s1.68,3.75,3.75,3.75,3.75-1.68,3.75-3.75h0c0-2.07-1.68-3.75-3.75-3.75Z"/>
    </g>
  </g>
</svg>