<svg xmlns="http://www.w3.org/2000/svg" xmlns:xlink="http://www.w3.org/1999/xlink" width="54.851" height="64.75" viewBox="0 0 54.851 64.75">
  <defs>
    <clipPath id="clip-path">
      <rect id="Rectangle_22012" data-name="Rectangle 22012" width="54.851" height="64.75" fill="#02adff"/>
    </clipPath>
    <clipPath id="clip-path-2">
      <path id="Path_43606" data-name="Path 43606" d="M7.234,14l0,0a12.466,12.466,0,0,0-.346,17.626c.131.136.265.269.4.4a12.608,12.608,0,0,0,13.065,3.2l.541-.18V29.634l-1.146.558a7.724,7.724,0,0,1-8.919-1.7,7.642,7.642,0,0,1-.393-10.8c.076-.083.156-.166.237-.245a7.505,7.505,0,0,1,9.042-1.351l1.179.638V11.138l-.524-.192A12.443,12.443,0,0,0,7.234,14" transform="translate(-3.407 -10.216)" fill="#02adff"/>
    </clipPath>
    <clipPath id="clip-path-3">
      <rect id="Rectangle_22015" data-name="Rectangle 22015" width="54.851" height="64.75" fill="none"/>
    </clipPath>
  </defs>
  <g id="Group_40047" data-name="Group 40047" transform="translate(-166 -554.77)">
    <g id="Group_40042" data-name="Group 40042" transform="translate(166 554.77)">
      <g id="Group_40041" data-name="Group 40041" clip-path="url(#clip-path)">
        <path id="Path_43604" data-name="Path 43604" d="M39.206,38.28V17.939a7.457,7.457,0,0,0-2.175-5.276L30.293,5.942A7.426,7.426,0,0,0,25.049,3.75H8.88A5.141,5.141,0,0,0,3.75,8.88V49.953a5.127,5.127,0,0,0,5.13,5.114h25.2a5.137,5.137,0,0,0,5.13-5.114,1.875,1.875,0,1,1,3.75,0,8.924,8.924,0,0,1-8.88,8.88H8.864A8.9,8.9,0,0,1,0,49.953V8.88A8.889,8.889,0,0,1,8.864,0H25.049a11.242,11.242,0,0,1,7.89,3.279l6.737,6.737a11.22,11.22,0,0,1,3.279,7.922V38.28a1.871,1.871,0,0,1-1.883,1.867v.016a1.881,1.881,0,0,1-1.867-1.883" transform="translate(0 0)" fill="#02adff"/>
        <path id="Path_43605" data-name="Path 43605" d="M12.59,16.481h4.177v5.232H10.021v-3.08Z" transform="translate(6.247 10.274)" fill="#02adff"/>
      </g>
    </g>
    <g id="Group_40044" data-name="Group 40044" transform="translate(171.53 571.355)">
      <g id="Group_40043" data-name="Group 40043" clip-path="url(#clip-path-2)">
        <rect id="Rectangle_22013" data-name="Rectangle 22013" width="24.387" height="24.536" transform="translate(-5.159 12.77) rotate(-45)" fill="#02adff"/>
      </g>
    </g>
    <g id="Group_40046" data-name="Group 40046" transform="translate(166 554.77)">
      <g id="Group_40045" data-name="Group 40045" clip-path="url(#clip-path-3)">
        <path id="Path_43607" data-name="Path 43607" d="M16.194,21.6a1.658,1.658,0,0,1-.706-.541,1.454,1.454,0,0,1-.266-.847h1.145a.733.733,0,0,0,.232.519.827.827,0,0,0,.576.192.878.878,0,0,0,.586-.18.581.581,0,0,0,.213-.469.545.545,0,0,0-.144-.388,1,1,0,0,0-.36-.24q-.295-.112-.6-.195a6.113,6.113,0,0,1-.843-.3,1.483,1.483,0,0,1-.558-.451,1.283,1.283,0,0,1-.232-.805,1.456,1.456,0,0,1,.235-.825,1.521,1.521,0,0,1,.664-.541,2.43,2.43,0,0,1,.977-.18,2.114,2.114,0,0,1,1.339.4,1.494,1.494,0,0,1,.568,1.117H17.845a.614.614,0,0,0-.232-.453.887.887,0,0,0-.576-.18.752.752,0,0,0-.5.161.584.584,0,0,0-.18.466.481.481,0,0,0,.141.36,1.056,1.056,0,0,0,.352.229,6.158,6.158,0,0,0,.589.2,6.256,6.256,0,0,1,.846.305,1.5,1.5,0,0,1,.565.458,1.263,1.263,0,0,1,.237.8,1.508,1.508,0,0,1-.222.794,1.571,1.571,0,0,1-.648.583,2.214,2.214,0,0,1-1.015.216,2.536,2.536,0,0,1-1-.192Z" transform="translate(9.49 10.193)" fill="#02adff"/>
        <rect id="Rectangle_22014" data-name="Rectangle 22014" width="1.068" height="5.323" transform="translate(29.501 26.613)" fill="#02adff"/>
        <path id="Path_43608" data-name="Path 43608" d="M25.285,16.393v5.323H24.217V18.253l-1.425,3.463h-.808l-1.435-3.463v3.463H19.473V16.393h1.213l1.692,3.96,1.693-3.96Z" transform="translate(12.14 10.22)" fill="#02adff"/>
        <path id="Path_43609" data-name="Path 43609" d="M27.211,29.375v6.9a1.381,1.381,0,0,1-2.761,0v-6.9a1.381,1.381,0,0,1,2.761,0" transform="translate(15.243 17.456)" fill="#f37b00"/>
        <path id="Path_43610" data-name="Path 43610" d="M27.211,36.175a1.381,1.381,0,1,1-1.386-1.386,1.382,1.382,0,0,1,1.386,1.386" transform="translate(15.243 21.688)" fill="#f37b00"/>
        <path id="Path_43611" data-name="Path 43611" d="M38.861,24.29a1.375,1.375,0,1,0-2.75,0H31.976a1.381,1.381,0,1,0-2.761,0H25.078a1.375,1.375,0,1,0-2.75,0A5.519,5.519,0,0,0,16.807,29.8V44.959a5.519,5.519,0,0,0,5.521,5.512H38.861a5.509,5.509,0,0,0,5.512-5.512V29.8a5.509,5.509,0,0,0-5.512-5.512m2.761,20.669a2.764,2.764,0,0,1-2.761,2.761H22.328a2.763,2.763,0,0,1-2.76-2.761V29.8a2.763,2.763,0,0,1,2.76-2.761,1.375,1.375,0,0,0,2.75,0h4.136a1.381,1.381,0,0,0,2.761,0h4.135a1.375,1.375,0,0,0,2.75,0A2.764,2.764,0,0,1,41.623,29.8Z" transform="translate(10.478 14.28)" fill="#f37b00" fill-rule="evenodd"/>
        <path id="Path_43612" data-name="Path 43612" d="M37.8,25.453a1.375,1.375,0,1,1-2.75,0H30.916a1.381,1.381,0,0,1-2.761,0H24.018a1.374,1.374,0,1,1-2.748,0,2.764,2.764,0,0,0-2.761,2.761V43.372a2.763,2.763,0,0,0,2.761,2.76H37.8a2.763,2.763,0,0,0,2.76-2.76V28.214a2.764,2.764,0,0,0-2.76-2.761M29.529,43.372a1.381,1.381,0,0,1,0-2.761,1.381,1.381,0,1,1,0,2.761m1.386-5.512a1.381,1.381,0,0,1-2.761,0v-6.9a1.381,1.381,0,0,1,2.761,0Z" transform="translate(11.538 15.868)" fill="#fff" fill-rule="evenodd"/>
      </g>
    </g>
  </g>
</svg>
