<?xml version="1.0" encoding="UTF-8"?>
<svg id="Layer_2" data-name="Layer 2" xmlns="http://www.w3.org/2000/svg" viewBox="0 0 70.62 70.62">
  <defs>
    <style>
      .cls-1 {
        fill: #6bddb3;
      }

      .cls-1, .cls-2, .cls-3, .cls-4 {
        stroke-width: 0px;
      }

      .cls-2 {
        fill: #226e95;
      }

      .cls-3 {
        fill: #efeaea;
      }

      .cls-4 {
        fill: #02adff;
      }
    </style>
  </defs>
  <g id="Layer_1-2" data-name="Layer 1">
    <g>
      <circle id="Ellipse_598" data-name="Ellipse 598" class="cls-4" cx="35.31" cy="35.31" r="35.31"/>
      <path class="cls-1" d="M18.46,20.15l.44.52c.23.28.57.43.93.43h1.58c.19,0,.39-.05.56-.14l2.16-1.12c.17-.09.36-.14.56-.14h2.06c.27,0,.53.09.75.25l1.14.88c.21.17.48.25.75.25h5c.34,0,.66.14.89.39l2.7,2.91c.23.25.55.39.89.39h1.71c.36,0,.71.16.94.44l1.26,1.53c.23.28.58.44.94.44h1.79c.21,0,.42-.06.61-.16l2.82-1.62c.26-.15.56-.2.85-.14l3.1.63c.24.05.45.17.62.34l1.96,1.98c.38.38.46.96.21,1.43l-1.04,1.93c-.16.29-.19.64-.08.96l.75,2.3c.04.12.06.25.06.38v1.73c0,.33.13.65.37.88l.87.84c.51.5.49,1.32-.05,1.79l-.59.51c-.19.16-.32.38-.38.61l-.19.73c-.19.74-1.01,1.12-1.7.79l-2.47-1.19c-.28-.13-.49-.37-.61-.66l-.43-1.1c-.18-.46-.62-.77-1.12-.78l-2.95-.04c-.3,0-.59-.12-.81-.32l-2.38-2.2c-.48-.44-1.22-.43-1.68.03l-.24.24c-.41.41-.47,1.06-.15,1.54l3.15,4.69c.18.27.47.46.79.52l1.32.24c.35.06.72-.03,1-.26l.36-.3c.45-.38,1.11-.38,1.56,0l2.59,2.16c.46.39.57,1.06.26,1.57l-2.44,3.98c-.14.22-.34.39-.58.49l-12.81,5.17c-.63.26-1.35-.06-1.59-.7l-1.03-2.76c-.1-.28-.1-.58,0-.86l.43-1.15c.14-.36.09-.77-.12-1.09l-7.1-10.9c-.32-.49-.94-.68-1.48-.46-.6.24-.91.92-.69,1.54l1.47,4.12c.15.43.05.92-.26,1.25l-1.35,1.42c-.23.24-.55.38-.88.38h-8.58c-.67,0-1.22-.54-1.22-1.22v-11.06c0-.74.66-1.31,1.39-1.2l3.57.53c.13.02.27.02.4,0l3.22-.59c.07-.01.15-.02.22-.02h2.56c.57,0,1.06-.39,1.19-.95l.88-3.88c.21-.93-.68-1.73-1.58-1.42l-1.27.44c-.2.07-.41.08-.62.04l-3.19-.61c-.19-.04-.39-.03-.57.03l-1.68.5c-.51.15-1.06-.05-1.36-.49l-1.8-2.7c-.13-.2-.2-.43-.2-.67v-3.45c0-.67.54-1.22,1.22-1.22h1.5c.36,0,.7.16.93.43h0Z"/>
      <path class="cls-2" d="M36.68,34.88c.28.28.59.41.92.41h.01c.33,0,.64-.14.92-.41l.02-.02c2.41-2.54,6.91-7.26,4.4-12.03h0c-1.03-1.93-3.07-3.15-5.33-3.18h-.03c-2.26.03-4.3,1.25-5.33,3.18-2.51,4.77,1.99,9.5,4.4,12.03l.02.02Z"/>
      <path class="cls-3" d="M40.62,25.79c0-1.67-1.35-3.02-3.02-3.02s-3.02,1.35-3.02,3.02,1.35,3.02,3.02,3.02h0c1.66,0,3.01-1.35,3.02-3.02Z"/>
    </g>
  </g>
</svg>