<?xml version="1.0" encoding="UTF-8"?>
<svg id="Layer_2" data-name="Layer 2" xmlns="http://www.w3.org/2000/svg" viewBox="0 0 70.62 70.62">
  <defs>
    <style>
      .cls-1 {
        fill: #6bddb3;
      }

      .cls-1, .cls-2, .cls-3, .cls-4 {
        stroke-width: 0px;
      }

      .cls-2 {
        fill: #226e95;
      }

      .cls-3 {
        fill: #efeaea;
      }

      .cls-4 {
        fill: #02adff;
      }
    </style>
  </defs>
  <g id="Layer_1-2" data-name="Layer 1">
    <g>
      <circle id="Ellipse_598" data-name="Ellipse 598" class="cls-4" cx="35.31" cy="35.31" r="35.31"/>
      <path class="cls-1" d="M49.28,26.86c.02-.62-.16-1.23-.52-1.74-.38-.68-.94-1.25-1.62-1.63-.1-.06-5.66-2.93-7.69-4.53-.07-.05-6.56-4.67-6.64-4.71-1.41-.76-2.8-.78-4.13-.08-1.18.62-2.43,1.26-4.06,2.07-.75.37-1.11,1-1.08,1.87.04,1.08.06,2.18.08,3.24,0,.4.01.8.02,1.19.01.63-.21,1.17-.69,1.65-.27.27-.56.53-.86.77-.82.67-.97,1.41-.48,2.34l.08.15c.41.78.84,1.59,1.21,2.39.09.22.16.44.22.67.04.16.09.33.15.5.03.1.07.21.1.33.1.36.22.77.46,1.15.36.55.79,1.05,1.27,1.49.82.76,1.68,1.48,2.51,2.18l.04.03h0c.01.06.02.12.01.17l.02,1.03c.06,2.71.11,5.52.22,8.28.05,1.02.21,2.03.48,3.01.24.88.58,1.72.92,2.53.05.11.09.23.14.34.52,1.27.97,2.28,1.42,3.2.46.95,1.28,1.63,2.39,1.97.09.03.19.06.29.1.05.02.09.03.14.05l.14.05,1.05.03.14-.04c1.07-.32,1.82-1.06,2.18-2.15l.03-.09c.1-.28.17-.57.22-.86.17-1.21.36-2.58.52-3.92.08-.71.27-1.17.63-1.55.3-.32.58-.66.84-1.02.2-.25.38-.5.58-.72.21-.24.75-.84.75-1.7.36-.2.7-.39,1.04-.6.78-.49,1.29-1.31,1.37-2.23.04-.48.07-1,.07-1.63,0-.43.16-.61.4-.76.35-.21.69-.43,1.02-.64.38-.24.77-.49,1.15-.72.52-.31.88-.84.98-1.44l.05-.29c.25-1.49.5-3.03.8-4.53.09-.47.19-.93.3-1.38.17-.49.4-.95.68-1.38.49-.73.72-1.6.65-2.47h0Z"/>
      <path class="cls-2" d="M37.06,31.68l.02.02c.29.28.6.43.94.43h.01c.34,0,.65-.14.94-.43l.02-.02c2.59-2.72,7.41-7.79,4.73-12.88h0c-1.1-2.06-3.28-3.35-5.68-3.39h-.03c-2.41.04-4.58,1.33-5.69,3.39-2.68,5.1,2.14,10.16,4.73,12.88h0Z"/>
      <path class="cls-3" d="M41.72,21.96c0-2.04-1.65-3.69-3.69-3.69-2.04,0-3.69,1.65-3.69,3.69,0,2.04,1.65,3.69,3.69,3.69h0c2.04,0,3.69-1.65,3.69-3.69Z"/>
    </g>
  </g>
</svg>