<svg xmlns="http://www.w3.org/2000/svg" width="56.904" height="48" viewBox="0 0 56.904 48">
  <g id="warning" transform="translate(0 0)">
    <path id="Path_183" data-name="Path 183" d="M241.813,192.006a1.778,1.778,0,0,1-1.778-1.778V177.782a1.778,1.778,0,0,1,3.556,0v12.446A1.778,1.778,0,0,1,241.813,192.006Z" transform="translate(-213.36 -160.897)" fill="#ffd800"/>
    <path id="Path_184" data-name="Path 184" d="M56.151,80.1,34.016,43.209a6.5,6.5,0,0,0-11.128,0L.752,80.1a5.266,5.266,0,0,0,4.509,7.964H51.641a5.266,5.266,0,0,0,4.51-7.964Zm-4.51,4.408H5.262A1.705,1.705,0,0,1,3.8,81.93L25.937,45.039a2.936,2.936,0,0,1,5.03,0L53.1,81.93A1.706,1.706,0,0,1,51.641,84.509Z" transform="translate(0.001 -40.065)" fill="#ffd800"/>
    <circle id="Ellipse_6" data-name="Ellipse 6" cx="2.667" cy="2.667" r="2.667" transform="translate(25.786 32.887)" fill="#ffd800"/>
  </g>
</svg>
