<?xml version="1.0" encoding="UTF-8"?>
<svg id="Layer_2" data-name="Layer 2" xmlns="http://www.w3.org/2000/svg" viewBox="0 0 1068.63 842.53">
  <defs>
    <style>
      .cls-1 {
        fill: #91be8c;
      }

      .cls-1, .cls-2, .cls-3, .cls-4, .cls-5 {
        stroke-width: 0px;
      }

      .cls-2 {
        fill: none;
      }

      .cls-3 {
        fill: #ffc758;
      }

      .cls-4 {
        fill: #1d2877;
      }

      .cls-5 {
        fill: #24933c;
      }
    </style>
  </defs>
  <g id="Layer_1-2" data-name="Layer 1">
    <g>
      <g>
        <g>
          <path class="cls-4" d="M82.1,680.73c-22.68,2.91-47.68,1.37-71.29,1.37-4.57-.3-10.36-3.18-10.81-8.51l.45-99.81c2.61-7,9.92-7,16.3-7.6,6.4,1.22,15.09,0,18.44,7.32,2.44,22.83.3,47.83,1.83,71.28,4.56,19.34,29.39,7.62,44.03,12.18,4.71.46,6.23,5.66,7.61,9.29,0,5.34,0,12.19-6.55,14.48Z"/>
          <path class="cls-4" d="M157.06,652.71c0,4.1-2.45,8.07-6.56,9.74-3.19,1.54-6.55.17-9.13-1.36-2.29-1.99-3.82-5.96-1.52-8.39,3.95-4.57,15.52-7.92,17.21,0ZM193.45,671.75c.16-19.96,1.84-42.49-2.88-61.25-14.33-22.09-48.91-17.36-70.08-10.34-5.03,3.49-12.78,8.67-11.28,15.67,3.21,8.52,13.11,6.26,20.27,8.52,7.92-1.21,12.64-10.35,22.39-8.04,2.29,1.2,4.89,3.93,3.5,6.83-4.87,8.09-16.14,4.59-24.82,5.96-9.3,3.79-19.34,6.98-25.74,16.14-4.57,9.14-4.41,21.63,2.6,29.4,11.42,10.53,30,8.84,43.41,4.43,12.5-5.19,22.83,4.24,35.03,1.05,4.26-1.05,7.77-3.5,7.61-8.37Z"/>
          <path class="cls-4" d="M342.58,680.73c-22.7,2.91-47.67,1.37-71.28,1.37-4.58-.3-10.36-3.18-10.81-8.51l.46-99.81c2.6-7,9.9-7,16.31-7.6,6.38,1.22,15.07,0,18.42,7.32,2.44,22.83.3,47.83,1.83,71.28,4.56,19.34,29.4,7.62,44.01,12.18,4.71.46,6.25,5.66,7.61,9.29,0,5.34,0,12.19-6.55,14.48Z"/>
          <path class="cls-4" d="M374.27,586.59c-4.42-.43-8.99-3.05-10.66-7.6-1.84-3.66-.61-7.03.15-10.67,6.23-7.6,19.65-6.54,27.1-2.58,3.51,3.95,4.28,10.34,1.99,14.91-4.12,6.07-11.26,6.4-18.58,5.94ZM386.91,679.97c-6.99,1.84-14.48,1.07-20.56-1.68l-4.12-8.82.46-63.38c1.84-4.72,4.73-7.93,9.6-9.44,7.46-1.82,16.45-.76,20.57,6.25,3.5,21.01,1.84,44.92,1.67,66.87-.45,4.42-3.5,9.16-7.61,10.2Z"/>
          <path class="cls-4" d="M466.58,630.02c2.43,6.25,2.88,14.16-.16,20.25-1.67,3.83-5.63,6.54-9.6,7.16-5.78,1.21-10.65-2.73-13.24-7.62-3.05-5.8-3.05-15.38,0-21.17,2.12-2.59,4.71-5.49,8.06-6.39,6.86-1.67,12.19,2.27,14.94,7.78ZM501.01,650.27c3.21-19.97-1.22-38.99-18.29-50.73-10.2-6.86-25.29-2.88-36.54-2.88-8.38-5.95-2.59-19.66-8.09-27.41-6.09-5.66-16.61-3.83-23.76-2.59-3.65,1.51-5.03,5.17-5.63,8.67-.15,32.58-1.23,66.56,1.06,98.86,7.77,10.98,21.48,4.88,32.3,3.49,13.25,5.63,31.99,7.17,44.62-1.05,8.85-7.16,12.35-16.46,14.33-26.36Z"/>
          <path class="cls-4" d="M570.62,652.71c0,4.1-2.44,8.07-6.56,9.74-3.19,1.54-6.54.17-9.13-1.36-2.28-1.99-3.81-5.96-1.52-8.39,3.95-4.57,15.52-7.92,17.21,0ZM607.01,671.75c.16-19.96,1.84-42.49-2.88-61.25-14.33-22.09-48.91-17.36-70.08-10.34-5.01,3.49-12.8,8.67-11.27,15.67,3.2,8.52,13.1,6.26,20.26,8.52,7.92-1.21,12.65-10.35,22.38-8.04,2.3,1.2,4.88,3.93,3.5,6.83-4.88,8.09-16.14,4.59-24.82,5.96-9.28,3.79-19.35,6.98-25.74,16.14-4.58,9.14-4.41,21.63,2.58,29.4,11.44,10.53,30.02,8.84,43.42,4.43,12.48-5.19,22.84,4.24,35.04,1.05,4.25-1.05,7.77-3.5,7.61-8.37Z"/>
          <path class="cls-4" d="M703.74,680.59c-6.25,1.83-13.55.91-19.34-1.39-8.53-12.04-2.28-30-5.33-44.32-.76-5.18-4.11-11.12-9.76-12.19-3.5-.3-7.92,0-10.5,3.35-8.7,13.26-3.35,32.01-6.25,47.98-1.51,3.98-5.77,6.4-10.04,7.02-6.11,1.06-12.51.61-17.22-2.91l-3.82-6.7c0-22.67-1.97-47.21,1.69-68.99,11.59-12.18,26.66,3.36,40.07-2.28,14.32-8.22,35.03-5.78,44.18,10.22,7.15,13.98,4.86,32.27,5.33,49.33-1.84,7.46,1.36,19.22-9,20.88Z"/>
          <path class="cls-4" d="M782.04,652.71c0,4.1-2.44,8.07-6.55,9.74-3.19,1.54-6.55.17-9.12-1.36-2.29-1.99-3.82-5.96-1.54-8.39,3.97-4.57,15.53-7.92,17.21,0ZM818.44,671.75c.17-19.96,1.83-42.49-2.89-61.25-14.31-22.09-48.89-17.36-70.07-10.34-5.03,3.49-12.79,8.67-11.27,15.67,3.2,8.52,13.11,6.26,20.26,8.52,7.93-1.21,12.64-10.35,22.39-8.04,2.29,1.2,4.87,3.93,3.5,6.83-4.87,8.09-16.14,4.59-24.81,5.96-9.29,3.79-19.36,6.98-25.75,16.14-4.58,9.14-4.43,21.63,2.58,29.4,11.44,10.53,30.03,8.84,43.43,4.43,12.48-5.19,22.84,4.24,35.03,1.05,4.26-1.05,7.77-3.5,7.61-8.37Z"/>
          <path class="cls-4" d="M844.49,586.59c-4.41-.43-8.97-3.05-10.66-7.6-1.83-3.66-.61-7.03.14-10.67,6.25-7.6,19.67-6.54,27.13-2.58,3.5,3.95,4.25,10.34,1.98,14.91-4.13,6.07-11.29,6.4-18.6,5.94ZM857.13,679.97c-7,1.84-14.47,1.07-20.55-1.68l-4.13-8.82.47-63.38c1.83-4.72,4.72-7.93,9.59-9.44,7.47-1.82,16.45-.76,20.57,6.25,3.5,21.01,1.82,44.92,1.67,66.87-.46,4.42-3.51,9.16-7.62,10.2Z"/>
          <path class="cls-4" d="M949.74,675.86c-18.57,9.88-46.14,11.13-64.27-.76-3.65-3.66-6.69-7.45-6.69-12.64,3.19-8.36,16.75-8.52,20.7-8.07,4.73.76,14.79,14.47,23.92,7.61,2.29-4.57-1.36-9.29-5.47-10.35-9.76.15-18.75-2.44-26.21-7.79-4.12-3.02-7.92-7.15-10.96-11.87-3.82-6.24-2.29-14,.14-20.56,12.03-17.21,35.2-18.11,54.38-14.31,7.01,2.43,15.08,5.8,18.58,13.56,2.45,5.95-3.19,10.06-8.2,10.81-2.63.76-5.36,1.83-7.94,1.98-1.83.14-6.54-.93-8.07-1.52-3.36-1.38-5.63-6.11-10.2-5.78-1.99.15-3.51,2.43-3.51,3.8-.14,7.13,9.6,6.85,22.7,10.8,11.58,3.35,21.61,8.22,22.09,20.88,1.37,10.19-2.89,19.03-10.98,24.21Z"/>
          <path class="cls-4" d="M1030.17,619.33c.62,1.84,2.13,4.58.32,6.71-3.81,2.89-10.37,4.72-14.93,1.38-3.5-1.06-3.34-5.33-2.13-7.61,3.81-4.73,13.26-4.73,16.75-.48ZM1066.59,643.4c5.17-10.96-.46-22.23-5.94-31.07-16.15-20.39-49.05-22.84-68.87-8.68-14.79,10.52-19.19,27.59-16.75,45.23,2.75,13.89,13.87,27.89,27.88,31.25,20.25,4.72,45.54,3.97,58.34-14.17,1.67-3.33,1.21-8.06-2.75-10.2-10.66-5.49-21.01,1.53-30.31,5.34-5.78,1.96-12.49.46-15.98-4.74-1.99-3.65,0-8.21,3.8-9.44,17.35-4.73,35.93,8.52,50.57-3.51Z"/>
        </g>
        <g>
          <path class="cls-4" d="M211.99,787.94c3.03,6.88,1.66,16.02-1.83,21.97-2.76,3.16-6.71,5.17-10.66,6.07-4.88-.91-10.68-3.95-11.73-9.45-1.99-8.39-2.75-19.19,5.18-24.98,6.55-5.79,16.13-.61,19.04,6.39ZM246.1,826.64c1.08-31.37,1.37-64.27-.46-95.03l-2.13-4.72c-4.88-5.65-12.94-3.2-19.82-3.65-15.83,2.11-5.91,22.06-14.61,30.59-10.51,1.83-23-3.36-33.35,1.51-16.32,7.02-22.41,24.98-23.31,41.9.9,14.01,4.26,27.58,16.14,36.41,9.29,6.39,23.3,8.81,34.13,4.1,12.19-7.47,23.75,4.12,35.95-.31,4.88-1.21,7.17-6.39,7.46-10.81Z"/>
          <path class="cls-4" d="M316.32,776.98c.61,1.83,2.13,4.57.3,6.7-3.8,2.88-10.36,4.72-14.93,1.37-3.5-1.06-3.34-5.32-2.13-7.59,3.82-4.75,13.26-4.75,16.76-.48ZM352.74,801.05c5.17-10.97-.48-22.24-5.95-31.07-16.15-20.39-49.06-22.83-68.86-8.68-14.78,10.5-19.18,27.58-16.75,45.24,2.75,13.87,13.86,27.88,27.87,31.23,20.27,4.71,45.54,3.97,58.34-14.17,1.68-3.33,1.22-8.06-2.75-10.2-10.65-5.49-21,1.52-30.3,5.33-5.79,1.97-12.5.46-15.99-4.72-1.99-3.66,0-8.21,3.81-9.44,17.35-4.72,35.94,8.51,50.58-3.51Z"/>
          <path class="cls-4" d="M437.76,833.5c-18.58,9.89-46.15,11.14-64.28-.77-3.66-3.65-6.7-7.45-6.7-12.63,3.21-8.37,16.74-8.53,20.71-8.06,4.73.75,14.78,14.44,23.91,7.6,2.31-4.56-1.36-9.29-5.47-10.35-9.76.13-18.74-2.43-26.21-7.79-4.12-3.02-7.91-7.14-10.96-11.87-3.8-6.25-2.28-14,.15-20.57,12.04-17.2,35.2-18.11,54.36-14.3,7.03,2.43,15.1,5.77,18.6,13.55,2.43,5.94-3.22,10.05-8.22,10.82-2.6.76-5.34,1.82-7.93,1.97-1.84.15-6.55-.91-8.07-1.51-3.35-1.38-5.64-6.1-10.22-5.77-1.96.13-3.49,2.43-3.49,3.79-.15,7.14,9.59,6.86,22.69,10.81,11.58,3.35,21.63,8.22,22.09,20.88,1.38,10.18-2.89,19.03-10.97,24.21Z"/>
          <path class="cls-4" d="M600.58,822.23c-7.61,13.85-22.54,20.12-37.78,20.24-16.6.65-32.44-3.63-41.28-18.14-4.41-8.65-8.69-19.61-3.95-29.51,6.38-6.11,18.57-5.63,26.18-2.13,7.02,6.23,5.2,24.21,19.04,18.42,7.62-6.7,5.78-16.76,5.95-26.05l.45-50.43c.46-3.96,3.51-9.28,8.07-9.59,9.28-1.66,22.53-3.19,27.58,6.09,1.53,29.7,4.85,64.13-4.28,91.09Z"/>
          <path class="cls-4" d="M675.84,776.98c.6,1.83,2.12,4.57.29,6.7-3.78,2.88-10.34,4.72-14.91,1.37-3.49-1.06-3.36-5.32-2.14-7.59,3.81-4.75,13.27-4.75,16.76-.48ZM712.23,801.05c5.18-10.97-.45-22.24-5.92-31.07-16.16-20.39-49.06-22.83-68.85-8.68-14.78,10.5-19.22,27.58-16.78,45.24,2.76,13.87,13.87,27.88,27.88,31.23,20.28,4.71,45.57,3.97,58.36-14.17,1.65-3.33,1.23-8.06-2.74-10.2-10.67-5.49-21.05,1.52-30.32,5.33-5.78,1.97-12.5.46-16.01-4.72-1.98-3.66,0-8.21,3.8-9.44,17.38-4.72,35.96,8.51,50.58-3.51Z"/>
          <path class="cls-4" d="M814.01,757.18l4.4,6.7c.94,22.54,1.37,45.41-.32,67.79-.75,3.36-4.55,6.25-7.77,6.56-9.74,2.71-18.27-2.59-27.57-3.06-12.78,6.4-33.21,9.46-45.08-1.24-14.63-17.2-8.67-43.54-9.61-65.93-.29-4.58,1.23-9.14,5.49-11.14,7.92-2.28,19.97-3.35,24.83,4.14,5.19,15.37-1.99,35.62,6.24,49.79,3.04,4.11,8.83,4.28,13.26,2.9,8.84-6.1,8.08-16,8.37-25.14,2.89-10.81-5.17-27.41,7.76-32.45,6.56-1.52,14.19-1.22,19.98,1.07Z"/>
          <path class="cls-4" d="M908.59,839.28c-7.92.92-16.3.92-22.24-3.64-3.81-3.51-5.65-9.29-11.11-10.52-8.52.75-10.51,12.48-19.19,13.56-7.62,1.06-18.74,3.05-23.31-4.58,2.75-17.51,28.33-29.85,15.7-49.2-4.73-8.06-13.72-15.38-12.65-25.13,5.47-6.25,16.3-2.9,23.74-2.74,5.67.76,8.54,8.07,13.73,10.21,7.62,2.59,10.96-7.47,17.21-9.75,7.62-.91,20.57-4.57,24.99,4.11-2.3,14.33-19.5,22.71-16.92,38.55,4.11,11.89,15.23,20.86,17.66,33.35-.74,3.5-4.55,5.65-7.6,5.78Z"/>
        </g>
      </g>
      <g>
        <polygon class="cls-3" points="837.23 425.33 491.87 545.47 371.67 200.28 717.11 80.17 837.23 425.33"/>
        <g>
          <g>
            <path class="cls-5" d="M695.73,229.79c-11.74,41.17-2.91,113.29-45.58,139.77-54.44,33.84-48.55-14.73-75.02-39.73-17.64-19.12-38.29-2.96-52.99-35.3-14.73-32.38,5.85-72.11,32.34-91.24,35.35-26.47,103.02-26.47,138.33,1.48"/>
            <g>
              <path class="cls-2" d="M695.73,229.79c-11.74,41.17-2.91,113.29-45.58,139.77-54.44,33.84-48.55-14.73-75.02-39.73-17.64-19.12-38.29-2.96-52.99-35.3-14.73-32.38,5.85-72.11,32.34-91.24,35.35-26.47,103.02-26.47,138.33,1.48"/>
              <path class="cls-5" d="M692.46,229.99c-10.18,36-7.97,74.18-22.51,109.12-8.46,20.28-44.08,50.76-63.84,28.95-9.4-10.37-13.93-25.67-22.41-37.02-6.54-8.77-15.12-13.56-25.2-16.84-43.5-14.19-41.78-55.34-19.5-88.51,31.51-46.94,108.78-45.97,150.89-16.37,5.28,3.72,11.18-5.34,5.88-9.08-44.55-31.37-109.41-29.23-151.66,4.92-35.05,28.35-50.26,103.33,4.81,117.91,31.81,8.42,33.6,35.2,52.72,56.14,13.96,15.29,36.7,2.83,50.54-5.07,47-26.83,37.13-100.09,46.87-144.56,1.02-4.63-5.65-2.93-6.58.42h0Z"/>
            </g>
          </g>
          <g>
            <path class="cls-5" d="M696.91,188.39c-33.85-23.52-157.45-64.74-147.12-117.7,11.76-61.79,92.7-13.24,125.03-25.02,13.26-4.41,13.26-33.83,38.27-39.73,30.9-7.35,61.8,11.78,69.16,41.21,10.29,45.62-47.12,105.94-72.11,141.24"/>
            <g>
              <path class="cls-2" d="M696.91,188.39c-33.85-23.52-157.45-64.74-147.12-117.7,11.76-61.79,92.7-13.24,125.03-25.02,13.26-4.41,13.26-33.83,38.27-39.73,30.9-7.35,61.8,11.78,69.16,41.21,10.29,45.62-47.12,105.94-72.11,141.24"/>
              <path class="cls-5" d="M699.12,185.76c-33.92-23.02-72.78-37.77-107.07-60.38-23.85-15.7-58.95-53.04-22.17-77.74,16.48-11.06,49.09-.66,66.16,2.14,24.87,4.06,42.57,6.4,55.37-17.08,27.43-50.28,89.4-9.87,86.65,34.59-1.09,17.49-13.72,37.46-22.4,51.66-14.38,23.59-33.2,44.22-49.04,66.79-3.62,5.18,3.18,10.35,7.06,5.28,34.44-45.05,100.85-110.29,60.94-169.58-15.75-23.39-49.2-25.77-72.6-16.15-8.48,3.48-14.2,14.79-18.25,22.04-13.32,23.76-42.31,13.07-63.53,9.26-30.52-5.47-91.45,1.46-74.57,50.47,20.1,58.37,101.79,75.11,149.03,103.94,2.8,1.71,7.5-3.18,4.42-5.26h0Z"/>
            </g>
          </g>
          <g>
            <path class="cls-5" d="M734.83,194.05c14.73-29.42,79.46-173.61,130.95-129.47,23.54,20.59-13.24,36.79-5.88,47.08,14.69,20.6,22.09,5.89,44.16,25.02,45.61,39.73,48.54,83.88-27.97,100.06-57.39,11.77-86.78-35.32-142.73-36.8"/>
            <g>
              <path class="cls-2" d="M734.83,194.05c14.73-29.42,79.46-173.61,130.95-129.47,23.54,20.59-13.24,36.79-5.88,47.08,14.69,20.6,22.09,5.89,44.16,25.02,45.61,39.73,48.54,83.88-27.97,100.06-57.39,11.77-86.78-35.32-142.73-36.8"/>
              <path class="cls-5" d="M737.69,194.67c16.3-32.49,32.62-64.77,53.92-94.37,13.49-18.74,36.56-47.42,63.02-38.03,34.2,12.13-3.74,33.45.52,47.54,3.62,12.08,14.26,17.03,25.65,19.47,34.63,7.43,69.88,60.29,36.34,87.21-61.48,49.33-121.34-17.79-183-21.39-5.66-.33-7.81,9.1-1.58,9.66,39.35,3.53,68.33,30.52,106.16,36.66,28.05,4.55,68.24-1.09,88.65-23.42,12.22-13.37,17.21-30.63,8.82-47.78-7.15-14.67-17.17-25.82-29.13-36.81-9.78-8.98-50.14-19.55-38.39-35.36,10.4-13.96,12.98-30.42-5.12-40.27-18.01-9.8-34.43-3.33-49.76,8.53-39.19,30.34-60.66,83.78-81.8,127.11-2.07,4.21,4.05,4.52,5.7,1.25h0Z"/>
            </g>
          </g>
          <g>
            <path class="cls-5" d="M732.97,210.41c41.22,66.2,231.01,17.65,125.07,120.63-101.51,98.58-111.79-33.85-132.42-116.22"/>
            <g>
              <path class="cls-2" d="M732.97,210.41c41.22,66.2,231.01,17.65,125.07,120.63-101.51,98.58-111.79-33.85-132.42-116.22"/>
              <path class="cls-5" d="M730.4,212.24c16.97,25.65,48.79,34.06,77.11,40.36,17.61,3.91,83.69,6.97,77.34,36.05-5.11,23.45-35.33,45.5-53.12,58.71-21.13,15.66-44.57,19.29-61.6-2.92-26.62-34.65-29.27-89.81-39.36-131-1.69-6.85-11.85-3.69-10.26,2.76,11.07,45.23,13.98,110.06,49.64,144.32,36.56,35.11,90.71-22.09,111.37-48.96,21.67-28.17,10.64-47.95-21.29-56.73-40.06-11.02-98.53-8.57-124.66-46.27-1.7-2.46-6.82,1.17-5.16,3.67h0Z"/>
            </g>
          </g>
          <g>
            <path class="cls-5" d="M716.03,248.72c4.41,95.63-8.81,155.97-70.61,232.5"/>
            <g>
              <path class="cls-2" d="M716.03,248.72c4.41,95.63-8.81,155.97-70.61,232.5"/>
              <path class="cls-5" d="M713.33,249.28c.96,39.56-.78,78.13-10.46,116.67-10.77,43.06-36.86,77.44-60.74,113.73-2.74,4.18,2.82,7.28,5.91,3.96,61.45-66.36,74.98-148.77,70.69-236.06-.15-2.68-5.46-.56-5.4,1.7h0Z"/>
            </g>
          </g>
          <g>
            <path class="cls-1" d="M677.39,57.07c26.89,41,36.78,71.04,29.53,120.86"/>
            <g>
              <path class="cls-2" d="M677.39,57.07c26.89,41,36.78,71.04,29.53,120.86"/>
              <path class="cls-1" d="M674.46,59.02c9.77,16.33,18.17,32.85,23.81,51.07,7.08,22.86,3.61,45.16,3.99,68.46.11,5.94,7.7,4.62,9.09-.03,13.29-44.13-6.44-87.69-31.03-123.39-1.87-2.69-7.53,1.09-5.86,3.88h0Z"/>
            </g>
          </g>
          <g>
            <path class="cls-2" d="M556.61,305.89c29.97-38.77,55.36-80.55,120.84-84.68"/>
            <path class="cls-1" d="M559.25,306.63c14.05-17.58,27.91-35.2,44.88-50.1,22.48-19.7,46.87-22.99,74.2-30.94,3.78-1.09,5.78-8.62.61-9.07-59.23-5.14-94.42,47.04-124.96,88.62-2.76,3.77,3.25,4.02,5.26,1.49h0Z"/>
          </g>
          <g>
            <path class="cls-2" d="M757.49,192.01c28.8-26.62,54.36-56.23,106.55-50.82"/>
            <path class="cls-1" d="M759.56,193.43c12.96-11.44,25.88-22.64,40.49-31.99,20.2-12.96,40.93-12.71,63.68-15.55,4.76-.6,7.27-7.92,1.8-9.39-46.02-12.35-80.9,25.24-110.1,54.09-3.35,3.31,1.31,5.31,4.13,2.84h0Z"/>
          </g>
          <g>
            <path class="cls-2" d="M768.7,262.42c17.45,21.91,21.31,31.57,58.04,44.46"/>
            <path class="cls-1" d="M765.77,264.37c7.21,10.18,13.63,20.96,22.87,29.49,9.11,8.45,25.26,17.84,37.79,17.71,3.36-.04,7.17-5.98,3.82-8.44-11-8.11-25.07-10.86-36.19-19.37-8.54-6.51-15.37-15.3-22.42-23.28-2.14-2.39-7.77,1.2-5.86,3.89h0Z"/>
          </g>
        </g>
      </g>
    </g>
  </g>
</svg>