<svg xmlns="http://www.w3.org/2000/svg" width="54" height="54" viewBox="0 0 54 54">
  <g id="Group_39231" data-name="Group 39231" transform="translate(-38 -500)">
    <circle id="Ellipse_716" data-name="Ellipse 716" cx="27" cy="27" r="27" transform="translate(38 500)" fill="#14254b"/>
    <path id="I_teach_full_stack_development_Which_means_you_will_see_tutorials_regarding_UI_UX_Frontend_Dev_Backend_Dev_Graphic_Design_and_more" data-name="I teach full stack development! Which means you will see tutorials regarding UI/UX, Frontend Dev, Backend Dev, Graphic Design and more" d="M-7.55.175A9,9,0,0,1-12.013-.962a8.429,8.429,0,0,1-3.225-3.175,8.941,8.941,0,0,1-1.188-4.588A8.874,8.874,0,0,1-15.238-13.3a8.455,8.455,0,0,1,3.225-3.162A9,9,0,0,1-7.55-17.6a9.049,9.049,0,0,1,4.488,1.138A8.365,8.365,0,0,1,.15-13.3,8.947,8.947,0,0,1,1.325-8.725,9.015,9.015,0,0,1,.15-4.137,8.34,8.34,0,0,1-3.062-.962,9.049,9.049,0,0,1-7.55.175Zm0-2.475a5.989,5.989,0,0,0,3.075-.787,5.459,5.459,0,0,0,2.113-2.25A7.224,7.224,0,0,0-1.6-8.725,7.149,7.149,0,0,0-2.363-12.1a5.394,5.394,0,0,0-2.113-2.225A6.065,6.065,0,0,0-7.55-15.1a6.065,6.065,0,0,0-3.075.775A5.394,5.394,0,0,0-12.738-12.1,7.149,7.149,0,0,0-13.5-8.725a7.224,7.224,0,0,0,.762,3.388,5.459,5.459,0,0,0,2.113,2.25A5.989,5.989,0,0,0-7.55-2.3ZM9.85.175A7.781,7.781,0,0,1,6.7-.437,5.169,5.169,0,0,1,4.5-2.175,4.412,4.412,0,0,1,3.7-4.8H6.75a2.754,2.754,0,0,0,.887,1.85,3.146,3.146,0,0,0,2.213.725,3.407,3.407,0,0,0,2.3-.712,2.316,2.316,0,0,0,.825-1.838A2.007,2.007,0,0,0,12.462-6.2a3.428,3.428,0,0,0-1.275-.85A19.227,19.227,0,0,0,9.075-7.7a19.793,19.793,0,0,1-2.762-.913A4.565,4.565,0,0,1,4.5-10.05a4.154,4.154,0,0,1-.75-2.6,4.621,4.621,0,0,1,.75-2.625A4.791,4.791,0,0,1,6.6-17a7.63,7.63,0,0,1,3.125-.6,6.512,6.512,0,0,1,4.137,1.263,4.658,4.658,0,0,1,1.788,3.462H12.5a2.282,2.282,0,0,0-.9-1.625,3.327,3.327,0,0,0-2.175-.675,3.086,3.086,0,0,0-2,.625,2.178,2.178,0,0,0-.775,1.8,1.827,1.827,0,0,0,.487,1.313,3.442,3.442,0,0,0,1.238.813,19.211,19.211,0,0,0,2.05.65,21.4,21.4,0,0,1,2.813.95,4.682,4.682,0,0,1,1.85,1.462,4.2,4.2,0,0,1,.763,2.638,4.742,4.742,0,0,1-.713,2.5A5.14,5.14,0,0,1,13.063-.538,6.842,6.842,0,0,1,9.85.175Z" transform="translate(65 536)" fill="#fff"/>
  </g>
</svg>
