<svg xmlns="http://www.w3.org/2000/svg" xmlns:xlink="http://www.w3.org/1999/xlink" width="357" height="239" viewBox="0 0 357 239">
  <defs>
    <filter id="Path_41548" x="0" y="0" width="357" height="239" filterUnits="userSpaceOnUse">
      <feOffset dy="3" input="SourceAlpha"/>
      <feGaussianBlur stdDeviation="3" result="blur"/>
      <feFlood flood-opacity="0.161"/>
      <feComposite operator="in" in2="blur"/>
      <feComposite in="SourceGraphic"/>
    </filter>
  </defs>
  <g id="Group_39193" data-name="Group 39193" transform="translate(-9 -179)">
    <g transform="matrix(1, 0, 0, 1, 9, 179)" filter="url(#Path_41548)">
      <path id="Path_41548-2" data-name="Path 41548" d="M7,0H332a7,7,0,0,1,7,7V214a7,7,0,0,1-7,7H7a7,7,0,0,1-7-7V7A7,7,0,0,1,7,0Z" transform="translate(9 6)" fill="#14254b"/>
    </g>
    <path id="Path_41576" data-name="Path 41576" d="M20.436.364a18.806,18.806,0,0,1-9.36-2.392,17.858,17.858,0,0,1-6.76-6.63,18.547,18.547,0,0,1-2.5-9.594,18.447,18.447,0,0,1,2.5-9.542,17.858,17.858,0,0,1,6.76-6.63,18.805,18.805,0,0,1,9.36-2.392,18.763,18.763,0,0,1,9.386,2.392,17.722,17.722,0,0,1,6.708,6.63A18.6,18.6,0,0,1,39-18.252a18.7,18.7,0,0,1-2.47,9.594A17.669,17.669,0,0,1,29.8-2.028,18.806,18.806,0,0,1,20.436.364Zm0-6.5a11.09,11.09,0,0,0,5.772-1.482,10.159,10.159,0,0,0,3.9-4.238,13.906,13.906,0,0,0,1.4-6.4,13.746,13.746,0,0,0-1.4-6.37,10.021,10.021,0,0,0-3.9-4.186,11.244,11.244,0,0,0-5.772-1.456,11.386,11.386,0,0,0-5.8,1.456,9.971,9.971,0,0,0-3.926,4.186,13.746,13.746,0,0,0-1.4,6.37,13.906,13.906,0,0,0,1.4,6.4,10.106,10.106,0,0,0,3.926,4.238A11.229,11.229,0,0,0,20.436-6.136Zm36.5,6.5A17.24,17.24,0,0,1,50.1-.936a11.227,11.227,0,0,1-4.81-3.744,9.858,9.858,0,0,1-1.82-5.772h7.8a5.044,5.044,0,0,0,1.586,3.536,5.619,5.619,0,0,0,3.926,1.3,6.039,6.039,0,0,0,4-1.222,3.974,3.974,0,0,0,1.456-3.2,3.7,3.7,0,0,0-.988-2.652,6.923,6.923,0,0,0-2.47-1.638A40.875,40.875,0,0,0,54.7-15.652a43.718,43.718,0,0,1-5.746-2.054,10.064,10.064,0,0,1-3.8-3.068,8.744,8.744,0,0,1-1.586-5.486,9.809,9.809,0,0,1,1.612-5.616,10.253,10.253,0,0,1,4.524-3.666,16.459,16.459,0,0,1,6.656-1.274,14.44,14.44,0,0,1,9.126,2.73,10.121,10.121,0,0,1,3.874,7.618H61.36a4.159,4.159,0,0,0-1.586-3.094,5.976,5.976,0,0,0-3.926-1.222,5.055,5.055,0,0,0-3.406,1.092,3.948,3.948,0,0,0-1.274,3.172A3.279,3.279,0,0,0,52.13-24.1a7.336,7.336,0,0,0,2.392,1.56q1.43.6,4.03,1.378a42.337,42.337,0,0,1,5.772,2.08,10.366,10.366,0,0,1,3.848,3.12,8.667,8.667,0,0,1,1.612,5.46A10.27,10.27,0,0,1,68.276-5.1a10.646,10.646,0,0,1-4.42,3.978A15.076,15.076,0,0,1,56.94.364Zm53.664-22V-15.5H88.556v-6.136Zm19.812-6.292a10.6,10.6,0,0,1,3.666-8.034,13.567,13.567,0,0,1,8.97-2.834,14.638,14.638,0,0,1,6.5,1.326,9.543,9.543,0,0,1,4.082,3.588,9.648,9.648,0,0,1,1.378,5.122,8.99,8.99,0,0,1-1.69,5.538,8.283,8.283,0,0,1-4.03,3.042v.208A8.74,8.74,0,0,1,154-16.64a10.391,10.391,0,0,1,1.69,6.136,10.811,10.811,0,0,1-1.43,5.564,9.732,9.732,0,0,1-4.212,3.822A14.919,14.919,0,0,1,143.364.26,14.811,14.811,0,0,1,133.8-2.7q-3.692-2.964-3.9-8.736h7.072a5.664,5.664,0,0,0,1.742,4.082,6.32,6.32,0,0,0,4.5,1.534,5.41,5.41,0,0,0,4.082-1.482,5.276,5.276,0,0,0,1.43-3.822,5.025,5.025,0,0,0-1.976-4.472q-1.976-1.352-6.136-1.352H139.1v-5.98h1.508q7.384,0,7.384-4.94a4.552,4.552,0,0,0-1.326-3.484,5.371,5.371,0,0,0-3.822-1.248,5.1,5.1,0,0,0-3.77,1.326,5.358,5.358,0,0,0-1.534,3.354ZM163.748-8.216q4.992-4.16,7.956-6.942a32.182,32.182,0,0,0,4.94-5.8,10.8,10.8,0,0,0,1.976-5.928,6.337,6.337,0,0,0-1.248-4.16,4.709,4.709,0,0,0-3.848-1.508,4.846,4.846,0,0,0-4,1.742,7.592,7.592,0,0,0-1.456,4.758h-7.072q.208-6.24,3.718-9.464a12.672,12.672,0,0,1,8.918-3.224q5.928,0,9.1,3.146A11.163,11.163,0,0,1,185.9-27.3a14.994,14.994,0,0,1-2.184,7.748,30.664,30.664,0,0,1-4.992,6.422q-2.808,2.73-7.332,6.578h15.34V-.52H161.044V-5.928Zm27.56-11.232q0-9,3.25-14.092t10.79-5.1q7.54,0,10.79,5.1t3.25,14.092q0,9.048-3.25,14.2T205.348-.1q-7.54,0-10.79-5.148T191.308-19.448Zm20.9,0a35.775,35.775,0,0,0-.494-6.474,8.724,8.724,0,0,0-1.976-4.29,5.579,5.579,0,0,0-4.394-1.664,5.579,5.579,0,0,0-4.394,1.664,8.724,8.724,0,0,0-1.976,4.29,35.775,35.775,0,0,0-.494,6.474,39.415,39.415,0,0,0,.468,6.63A8.322,8.322,0,0,0,200.928-8.5a5.711,5.711,0,0,0,4.42,1.638,5.711,5.711,0,0,0,4.42-1.638,8.322,8.322,0,0,0,1.976-4.316A39.415,39.415,0,0,0,212.212-19.448ZM251-25.376a8.522,8.522,0,0,0-3.432-3.484,10.444,10.444,0,0,0-5.1-1.2,11.141,11.141,0,0,0-5.72,1.456,10.056,10.056,0,0,0-3.9,4.16,13.35,13.35,0,0,0-1.4,6.24,13.382,13.382,0,0,0,1.43,6.344A10.124,10.124,0,0,0,236.86-7.7a11.74,11.74,0,0,0,5.928,1.456A10.283,10.283,0,0,0,249.6-8.45a10.548,10.548,0,0,0,3.484-6.162H240.6v-5.564H260.26v6.344a17.051,17.051,0,0,1-3.12,7.02,17.616,17.616,0,0,1-6.162,5.174,18.118,18.118,0,0,1-8.45,1.95,19.132,19.132,0,0,1-9.49-2.366,17.215,17.215,0,0,1-6.656-6.578,18.87,18.87,0,0,1-2.418-9.568,19.013,19.013,0,0,1,2.418-9.594,17.163,17.163,0,0,1,6.656-6.6,19.028,19.028,0,0,1,9.438-2.366,18.887,18.887,0,0,1,10.66,2.99,15.268,15.268,0,0,1,6.24,8.4Zm35.256,6.76a8.157,8.157,0,0,1,5.044,3.068,8.96,8.96,0,0,1,1.976,5.72,9.218,9.218,0,0,1-1.43,5.122,9.523,9.523,0,0,1-4.134,3.458A15.146,15.146,0,0,1,281.32,0H265.668V-36.3h14.976a15.531,15.531,0,0,1,6.37,1.2,9.07,9.07,0,0,1,4.056,3.328,8.714,8.714,0,0,1,1.378,4.836,8.272,8.272,0,0,1-1.69,5.3A9.042,9.042,0,0,1,286.26-18.616Zm-13.312-2.7H279.6a6.094,6.094,0,0,0,4-1.17,4.12,4.12,0,0,0,1.4-3.354,4.2,4.2,0,0,0-1.4-3.38,6,6,0,0,0-4-1.2h-6.656ZM280.28-5.928a6.23,6.23,0,0,0,4.134-1.248,4.367,4.367,0,0,0,1.482-3.536,4.554,4.554,0,0,0-1.56-3.666,6.29,6.29,0,0,0-4.212-1.326h-7.176v9.776Z" transform="translate(40 314)" fill="#fff"/>
  </g>
</svg>
