<svg xmlns="http://www.w3.org/2000/svg" xmlns:xlink="http://www.w3.org/1999/xlink" width="357" height="239" viewBox="0 0 357 239">
  <defs>
    <filter id="Path_41548" x="0" y="0" width="357" height="239" filterUnits="userSpaceOnUse">
      <feOffset dy="3" input="SourceAlpha"/>
      <feGaussianBlur stdDeviation="3" result="blur"/>
      <feFlood flood-opacity="0.161"/>
      <feComposite operator="in" in2="blur"/>
      <feComposite in="SourceGraphic"/>
    </filter>
  </defs>
  <g id="Group_39213" data-name="Group 39213" transform="translate(-9 -181)">
    <g transform="matrix(1, 0, 0, 1, 9, 181)" filter="url(#Path_41548)">
      <path id="Path_41548-2" data-name="Path 41548" d="M7,0H332a7,7,0,0,1,7,7V214a7,7,0,0,1-7,7H7a7,7,0,0,1-7-7V7A7,7,0,0,1,7,0Z" transform="translate(9 6)" fill="#e00d0d"/>
    </g>
    <path id="Path_41596" data-name="Path 41596" d="M-118.222-7.384V-13.1l17-24.336h8.476v23.712h4.576v6.344h-4.576V0h-7.28V-7.384ZM-99.554-29.64l-10.66,15.912h10.66Zm42.12,4.264a8.522,8.522,0,0,0-3.432-3.484,10.444,10.444,0,0,0-5.1-1.2,11.141,11.141,0,0,0-5.72,1.456,10.056,10.056,0,0,0-3.9,4.16,13.35,13.35,0,0,0-1.4,6.24,13.382,13.382,0,0,0,1.43,6.344A10.124,10.124,0,0,0-71.578-7.7,11.74,11.74,0,0,0-65.65-6.24a10.283,10.283,0,0,0,6.812-2.21,10.548,10.548,0,0,0,3.484-6.162h-12.48v-5.564h19.656v6.344a17.051,17.051,0,0,1-3.12,7.02A17.616,17.616,0,0,1-57.46-1.638,18.118,18.118,0,0,1-65.91.312,19.132,19.132,0,0,1-75.4-2.054a17.215,17.215,0,0,1-6.656-6.578A18.87,18.87,0,0,1-84.474-18.2a19.013,19.013,0,0,1,2.418-9.594A17.163,17.163,0,0,1-75.4-34.4a19.028,19.028,0,0,1,9.438-2.366,18.887,18.887,0,0,1,10.66,2.99,15.268,15.268,0,0,1,6.24,8.4Zm36.816,3.744V-15.5H-42.666v-6.136ZM-11-8.216q4.992-4.16,7.956-6.942a32.181,32.181,0,0,0,4.94-5.8,10.8,10.8,0,0,0,1.976-5.928,6.337,6.337,0,0,0-1.248-4.16,4.709,4.709,0,0,0-3.848-1.508,4.846,4.846,0,0,0-4,1.742,7.592,7.592,0,0,0-1.456,4.758h-7.072q.208-6.24,3.718-9.464A12.672,12.672,0,0,1-1.118-38.74q5.928,0,9.1,3.146A11.163,11.163,0,0,1,11.154-27.3,14.994,14.994,0,0,1,8.97-19.552,30.663,30.663,0,0,1,3.978-13.13Q1.17-10.4-3.354-6.552h15.34V-.52H-13.7V-5.928Zm53.04-23.4H25.194v8.892a7.83,7.83,0,0,1,3.12-2.21,10.962,10.962,0,0,1,4.316-.858,11.789,11.789,0,0,1,6.812,1.82,10.531,10.531,0,0,1,3.848,4.654,15.419,15.419,0,0,1,1.2,6.058A13.511,13.511,0,0,1,41.08-3.64Q37.674,0,31.382,0q-5.928,0-9.464-2.964a11.123,11.123,0,0,1-4-7.748h7.072a5.589,5.589,0,0,0,2.106,3.328,6.713,6.713,0,0,0,4.186,1.248A5.606,5.606,0,0,0,35.906-8.06a7.845,7.845,0,0,0,1.56-5.1A6.923,6.923,0,0,0,35.88-18.07a6.078,6.078,0,0,0-4.654-1.69,5.9,5.9,0,0,0-3.64,1.092,5.956,5.956,0,0,0-2.08,2.912H18.538V-38.012h23.5Zm34.112,6.24a8.522,8.522,0,0,0-3.432-3.484,10.444,10.444,0,0,0-5.1-1.2,11.141,11.141,0,0,0-5.72,1.456,10.056,10.056,0,0,0-3.9,4.16,13.35,13.35,0,0,0-1.4,6.24,13.382,13.382,0,0,0,1.43,6.344A10.124,10.124,0,0,0,62.01-7.7,11.74,11.74,0,0,0,67.938-6.24,10.283,10.283,0,0,0,74.75-8.45a10.548,10.548,0,0,0,3.484-6.162H65.754v-5.564H85.41v6.344a17.051,17.051,0,0,1-3.12,7.02,17.616,17.616,0,0,1-6.162,5.174,18.118,18.118,0,0,1-8.45,1.95,19.132,19.132,0,0,1-9.49-2.366,17.215,17.215,0,0,1-6.656-6.578A18.87,18.87,0,0,1,49.114-18.2a19.013,19.013,0,0,1,2.418-9.594,17.163,17.163,0,0,1,6.656-6.6,19.028,19.028,0,0,1,9.438-2.366,18.887,18.887,0,0,1,10.66,2.99,15.268,15.268,0,0,1,6.24,8.4Zm35.256,6.76a8.157,8.157,0,0,1,5.044,3.068,8.96,8.96,0,0,1,1.976,5.72A9.218,9.218,0,0,1,117-4.706a9.523,9.523,0,0,1-4.134,3.458A15.146,15.146,0,0,1,106.47,0H90.818V-36.3h14.976a15.531,15.531,0,0,1,6.37,1.2,9.07,9.07,0,0,1,4.056,3.328,8.714,8.714,0,0,1,1.378,4.836,8.272,8.272,0,0,1-1.69,5.3A9.042,9.042,0,0,1,111.41-18.616ZM98.1-21.32h6.656a6.094,6.094,0,0,0,4-1.17,4.12,4.12,0,0,0,1.4-3.354,4.2,4.2,0,0,0-1.4-3.38,6,6,0,0,0-4-1.2H98.1ZM105.43-5.928a6.23,6.23,0,0,0,4.134-1.248,4.367,4.367,0,0,0,1.482-3.536,4.554,4.554,0,0,0-1.56-3.666,6.29,6.29,0,0,0-4.212-1.326H98.1v9.776Z" transform="translate(188 316)" fill="#fff"/>
  </g>
</svg>
