<svg xmlns="http://www.w3.org/2000/svg" width="54" height="54" viewBox="0 0 54 54">
  <g id="Group_39237" data-name="Group 39237" transform="translate(-38 -394)">
    <circle id="Ellipse_752" data-name="Ellipse 752" cx="27" cy="27" r="27" transform="translate(38 394)" fill="rgba(220,16,16,0.87)"/>
    <path id="I_teach_full_stack_development_Which_means_you_will_see_tutorials_regarding_UI_UX_Frontend_Dev_Backend_Dev_Graphic_Design_and_more" data-name="I teach full stack development! Which means you will see tutorials regarding UI/UX, Frontend Dev, Backend Dev, Graphic Design and more" d="M-13.878-11.25v-1.872h3.744V0H-12.2V-11.25Zm6.57,4.518A9.478,9.478,0,0,1-6.255-11.6a3.883,3.883,0,0,1,3.627-1.755A3.883,3.883,0,0,1,1-11.6,9.478,9.478,0,0,1,2.052-6.732,9.665,9.665,0,0,1,1-1.809,3.871,3.871,0,0,1-2.628-.036,3.871,3.871,0,0,1-6.255-1.809,9.665,9.665,0,0,1-7.308-6.732Zm7.344,0A13.648,13.648,0,0,0-.153-9.2a3.312,3.312,0,0,0-.765-1.647,2.185,2.185,0,0,0-1.71-.639,2.185,2.185,0,0,0-1.71.639A3.312,3.312,0,0,0-5.1-9.2a13.648,13.648,0,0,0-.189,2.466,15.028,15.028,0,0,0,.18,2.538,3.176,3.176,0,0,0,.765,1.656,2.232,2.232,0,0,0,1.719.63,2.232,2.232,0,0,0,1.719-.63A3.176,3.176,0,0,0-.144-4.194,15.028,15.028,0,0,0,.036-6.732Zm4.194,0A9.478,9.478,0,0,1,5.283-11.6,3.883,3.883,0,0,1,8.91-13.356,3.883,3.883,0,0,1,12.537-11.6,9.478,9.478,0,0,1,13.59-6.732a9.665,9.665,0,0,1-1.053,4.923A3.871,3.871,0,0,1,8.91-.036,3.871,3.871,0,0,1,5.283-1.809,9.665,9.665,0,0,1,4.23-6.732Zm7.344,0A13.648,13.648,0,0,0,11.385-9.2a3.312,3.312,0,0,0-.765-1.647,2.185,2.185,0,0,0-1.71-.639,2.185,2.185,0,0,0-1.71.639A3.312,3.312,0,0,0,6.435-9.2a13.648,13.648,0,0,0-.189,2.466,15.028,15.028,0,0,0,.18,2.538,3.176,3.176,0,0,0,.765,1.656,2.232,2.232,0,0,0,1.719.63,2.232,2.232,0,0,0,1.719-.63,3.176,3.176,0,0,0,.765-1.656A15.028,15.028,0,0,0,11.574-6.732ZM-2.223,9.09a3.307,3.307,0,0,0-1.35-1.413,4.066,4.066,0,0,0-2-.477,4.366,4.366,0,0,0-2.214.558A3.91,3.91,0,0,0-9.306,9.342a4.96,4.96,0,0,0-.549,2.376A5.014,5.014,0,0,0-9.306,14.1,3.9,3.9,0,0,0-7.785,15.7a4.366,4.366,0,0,0,2.214.558,3.917,3.917,0,0,0,2.718-.936A4.068,4.068,0,0,0-1.575,12.78h-4.7V11.142H.621v1.6A6.158,6.158,0,0,1-.414,15.426a6.157,6.157,0,0,1-2.178,1.953,6.135,6.135,0,0,1-2.979.729,6.465,6.465,0,0,1-3.222-.819,6.106,6.106,0,0,1-2.313-2.277,6.389,6.389,0,0,1-.855-3.294,6.389,6.389,0,0,1,.855-3.294A6.088,6.088,0,0,1-8.784,6.147a6.48,6.48,0,0,1,3.213-.819,6.527,6.527,0,0,1,3.555.981A5.586,5.586,0,0,1,.243,9.09ZM9.333,11.574a2.766,2.766,0,0,1,1.71,1.062,3.211,3.211,0,0,1,.207,3.717,3.355,3.355,0,0,1-1.431,1.206A5.059,5.059,0,0,1,7.641,18h-5V5.49h4.77a5.12,5.12,0,0,1,2.2.432,3.223,3.223,0,0,1,1.386,1.161,2.952,2.952,0,0,1,.468,1.629,2.79,2.79,0,0,1-.576,1.8A3.353,3.353,0,0,1,9.333,11.574Zm-4.644-.828H7.227A2.438,2.438,0,0,0,8.8,10.287a1.6,1.6,0,0,0,.567-1.323A1.635,1.635,0,0,0,8.8,7.641a2.374,2.374,0,0,0-1.575-.477H4.689Zm2.772,5.58a2.453,2.453,0,0,0,1.638-.5,1.742,1.742,0,0,0,.594-1.4,1.822,1.822,0,0,0-.63-1.458,2.484,2.484,0,0,0-1.674-.54h-2.7v3.906Z" transform="translate(65 420)" fill="#fff"/>
  </g>
</svg>
