<svg xmlns="http://www.w3.org/2000/svg" xmlns:xlink="http://www.w3.org/1999/xlink" width="357" height="239" viewBox="0 0 357 239">
  <defs>
    <filter id="Path_41548" x="0" y="0" width="357" height="239" filterUnits="userSpaceOnUse">
      <feOffset dy="3" input="SourceAlpha"/>
      <feGaussianBlur stdDeviation="3" result="blur"/>
      <feFlood flood-opacity="0.161"/>
      <feComposite operator="in" in2="blur"/>
      <feComposite in="SourceGraphic"/>
    </filter>
  </defs>
  <g id="Group_39207" data-name="Group 39207" transform="translate(-9 -181)">
    <g transform="matrix(1, 0, 0, 1, 9, 181)" filter="url(#Path_41548)">
      <path id="Path_41548-2" data-name="Path 41548" d="M7,0H332a7,7,0,0,1,7,7V214a7,7,0,0,1-7,7H7a7,7,0,0,1-7-7V7A7,7,0,0,1,7,0Z" transform="translate(9 6)" fill="#10a9dc"/>
    </g>
    <path id="Path_41590" data-name="Path 41590" d="M-76.882-28.444a6,6,0,0,0-1.794-3.276,5.478,5.478,0,0,0-3.666-1.092,5.683,5.683,0,0,0-5.278,2.886q-1.69,2.886-1.742,9.386a8.439,8.439,0,0,1,3.64-3.25,11.674,11.674,0,0,1,5.2-1.17,12.031,12.031,0,0,1,5.98,1.456,10.086,10.086,0,0,1,4.056,4.238,14.244,14.244,0,0,1,1.456,6.682,14.2,14.2,0,0,1-1.482,6.578,10.65,10.65,0,0,1-4.342,4.5A13.657,13.657,0,0,1-81.666.1q-5.408,0-8.5-2.392A12.468,12.468,0,0,1-94.484-8.97a39.189,39.189,0,0,1-1.222-10.582q0-9.516,3.276-14.378t10.348-4.862q5.46,0,8.476,2.964a11.756,11.756,0,0,1,3.484,7.384Zm-5.3,9.464a6.844,6.844,0,0,0-4.628,1.612,5.838,5.838,0,0,0-1.872,4.68,6.591,6.591,0,0,0,1.742,4.836A6.588,6.588,0,0,0-82.03-6.084,5.856,5.856,0,0,0-77.584-7.8a6.424,6.424,0,0,0,1.638-4.628,6.9,6.9,0,0,0-1.586-4.784A5.93,5.93,0,0,0-82.186-18.98Zm18.928-.468q0-9,3.25-14.092t10.79-5.1q7.54,0,10.79,5.1t3.25,14.092q0,9.048-3.25,14.2T-49.218-.1q-7.54,0-10.79-5.148T-63.258-19.448Zm20.9,0a35.775,35.775,0,0,0-.494-6.474,8.724,8.724,0,0,0-1.976-4.29,5.579,5.579,0,0,0-4.394-1.664,5.579,5.579,0,0,0-4.394,1.664,8.724,8.724,0,0,0-1.976,4.29,35.775,35.775,0,0,0-.494,6.474,39.414,39.414,0,0,0,.468,6.63A8.322,8.322,0,0,0-53.638-8.5a5.711,5.711,0,0,0,4.42,1.638A5.711,5.711,0,0,0-44.8-8.5a8.322,8.322,0,0,0,1.976-4.316A39.414,39.414,0,0,0-42.354-19.448Zm12.688,0q0-9,3.25-14.092t10.79-5.1q7.54,0,10.79,5.1t3.25,14.092q0,9.048-3.25,14.2T-15.626-.1q-7.54,0-10.79-5.148T-29.666-19.448Zm20.9,0a35.775,35.775,0,0,0-.494-6.474,8.724,8.724,0,0,0-1.976-4.29,5.579,5.579,0,0,0-4.394-1.664,5.579,5.579,0,0,0-4.394,1.664A8.724,8.724,0,0,0-22-25.922a35.775,35.775,0,0,0-.494,6.474,39.414,39.414,0,0,0,.468,6.63A8.322,8.322,0,0,0-20.046-8.5a5.711,5.711,0,0,0,4.42,1.638A5.711,5.711,0,0,0-11.206-8.5,8.322,8.322,0,0,0-9.23-12.818,39.414,39.414,0,0,0-8.762-19.448Zm51.168-5.928a8.522,8.522,0,0,0-3.432-3.484,10.444,10.444,0,0,0-5.1-1.2,11.141,11.141,0,0,0-5.72,1.456,10.056,10.056,0,0,0-3.9,4.16,13.35,13.35,0,0,0-1.4,6.24,13.382,13.382,0,0,0,1.43,6.344A10.124,10.124,0,0,0,28.262-7.7,11.74,11.74,0,0,0,34.19-6.24,10.283,10.283,0,0,0,41-8.45a10.548,10.548,0,0,0,3.484-6.162H32.006v-5.564H51.662v6.344a17.051,17.051,0,0,1-3.12,7.02A17.616,17.616,0,0,1,42.38-1.638,18.118,18.118,0,0,1,33.93.312a19.132,19.132,0,0,1-9.49-2.366,17.215,17.215,0,0,1-6.656-6.578A18.87,18.87,0,0,1,15.366-18.2a19.013,19.013,0,0,1,2.418-9.594,17.163,17.163,0,0,1,6.656-6.6,19.028,19.028,0,0,1,9.438-2.366,18.887,18.887,0,0,1,10.66,2.99,15.268,15.268,0,0,1,6.24,8.4Zm35.256,6.76a8.157,8.157,0,0,1,5.044,3.068,8.96,8.96,0,0,1,1.976,5.72,9.218,9.218,0,0,1-1.43,5.122,9.523,9.523,0,0,1-4.134,3.458A15.146,15.146,0,0,1,72.722,0H57.07V-36.3H72.046a15.531,15.531,0,0,1,6.37,1.2,9.07,9.07,0,0,1,4.056,3.328,8.714,8.714,0,0,1,1.378,4.836,8.272,8.272,0,0,1-1.69,5.3A9.042,9.042,0,0,1,77.662-18.616ZM64.35-21.32h6.656a6.094,6.094,0,0,0,4-1.17,4.12,4.12,0,0,0,1.4-3.354,4.2,4.2,0,0,0-1.4-3.38,6,6,0,0,0-4-1.2H64.35ZM71.682-5.928a6.23,6.23,0,0,0,4.134-1.248A4.367,4.367,0,0,0,77.3-10.712a4.554,4.554,0,0,0-1.56-3.666A6.29,6.29,0,0,0,71.526-15.7H64.35v9.776Z" transform="translate(188 316)" fill="#fff"/>
  </g>
</svg>
