<svg xmlns="http://www.w3.org/2000/svg" xmlns:xlink="http://www.w3.org/1999/xlink" width="357" height="239" viewBox="0 0 357 239">
  <defs>
    <filter id="Path_41548" x="0" y="0" width="357" height="239" filterUnits="userSpaceOnUse">
      <feOffset dy="3" input="SourceAlpha"/>
      <feGaussianBlur stdDeviation="3" result="blur"/>
      <feFlood flood-opacity="0.161"/>
      <feComposite operator="in" in2="blur"/>
      <feComposite in="SourceGraphic"/>
    </filter>
  </defs>
  <g id="Group_39199" data-name="Group 39199" transform="translate(-9 -181)">
    <g transform="matrix(1, 0, 0, 1, 9, 181)" filter="url(#Path_41548)">
      <path id="Path_41548-2" data-name="Path 41548" d="M7,0H332a7,7,0,0,1,7,7V214a7,7,0,0,1-7,7H7a7,7,0,0,1-7-7V7A7,7,0,0,1,7,0Z" transform="translate(9 6)" fill="#10a9dc"/>
    </g>
    <path id="Path_41582" data-name="Path 41582" d="M-39.69-24.43v3.955H-49.875v6.265h7.805v3.885h-7.805V0h-4.9V-24.43Zm8.365,8.05A6.889,6.889,0,0,1-28.858-18.8a6.863,6.863,0,0,1,3.482-.875v5.145H-26.67a4.963,4.963,0,0,0-3.483,1.085q-1.172,1.085-1.172,3.78V0h-4.9V-19.39h4.9ZM-4.06-10.115a11.564,11.564,0,0,1-.14,1.89H-18.375a4.821,4.821,0,0,0,1.47,3.29,4.533,4.533,0,0,0,3.185,1.19A4,4,0,0,0-9.835-6.09H-4.55a8.832,8.832,0,0,1-3.22,4.6,9.4,9.4,0,0,1-5.845,1.8A10.115,10.115,0,0,1-18.638-.928,8.745,8.745,0,0,1-22.1-4.445,10.778,10.778,0,0,1-23.345-9.7,10.979,10.979,0,0,1-22.12-14.98a8.547,8.547,0,0,1,3.43-3.5A10.275,10.275,0,0,1-13.615-19.7a10.194,10.194,0,0,1,4.953,1.19,8.375,8.375,0,0,1,3.4,3.377A10.221,10.221,0,0,1-4.06-10.115Zm-5.075-1.4A3.886,3.886,0,0,0-10.5-14.542a4.836,4.836,0,0,0-3.255-1.138,4.448,4.448,0,0,0-3.062,1.1,4.847,4.847,0,0,0-1.523,3.063Zm26.67,1.4a11.564,11.564,0,0,1-.14,1.89H3.22a4.821,4.821,0,0,0,1.47,3.29,4.533,4.533,0,0,0,3.185,1.19A4,4,0,0,0,11.76-6.09h5.285a8.832,8.832,0,0,1-3.22,4.6A9.4,9.4,0,0,1,7.98.315,10.115,10.115,0,0,1,2.957-.928,8.745,8.745,0,0,1-.508-4.445,10.778,10.778,0,0,1-1.75-9.7,10.979,10.979,0,0,1-.525-14.98a8.547,8.547,0,0,1,3.43-3.5A10.275,10.275,0,0,1,7.98-19.7a10.194,10.194,0,0,1,4.953,1.19,8.375,8.375,0,0,1,3.4,3.377A10.221,10.221,0,0,1,17.535-10.115Zm-5.075-1.4a3.886,3.886,0,0,0-1.365-3.028A4.836,4.836,0,0,0,7.84-15.68a4.448,4.448,0,0,0-3.063,1.1,4.847,4.847,0,0,0-1.523,3.063Zm13.125,7.49H34.23V0H20.02V-3.955l8.47-11.41H20.055V-19.39h14.07v3.955Zm30.45-6.09a11.564,11.564,0,0,1-.14,1.89H41.72a4.821,4.821,0,0,0,1.47,3.29,4.533,4.533,0,0,0,3.185,1.19A4,4,0,0,0,50.26-6.09h5.285a8.832,8.832,0,0,1-3.22,4.6A9.4,9.4,0,0,1,46.48.315,10.115,10.115,0,0,1,41.458-.928a8.745,8.745,0,0,1-3.465-3.518A10.778,10.778,0,0,1,36.75-9.7a10.979,10.979,0,0,1,1.225-5.285,8.547,8.547,0,0,1,3.43-3.5A10.275,10.275,0,0,1,46.48-19.7a10.194,10.194,0,0,1,4.953,1.19,8.375,8.375,0,0,1,3.395,3.377A10.221,10.221,0,0,1,56.035-10.115Zm-5.075-1.4A3.886,3.886,0,0,0,49.6-14.542,4.836,4.836,0,0,0,46.34-15.68a4.448,4.448,0,0,0-3.063,1.1,4.847,4.847,0,0,0-1.522,3.063Z" transform="translate(188 310)" fill="#fff"/>
  </g>
</svg>
