<svg xmlns="http://www.w3.org/2000/svg" xmlns:xlink="http://www.w3.org/1999/xlink" width="357" height="239" viewBox="0 0 357 239">
  <defs>
    <filter id="Path_41548" x="0" y="0" width="357" height="239" filterUnits="userSpaceOnUse">
      <feOffset dy="3" input="SourceAlpha"/>
      <feGaussianBlur stdDeviation="3" result="blur"/>
      <feFlood flood-opacity="0.161"/>
      <feComposite operator="in" in2="blur"/>
      <feComposite in="SourceGraphic"/>
    </filter>
  </defs>
  <g id="Group_39194" data-name="Group 39194" transform="translate(-9 -181)">
    <g transform="matrix(1, 0, 0, 1, 9, 181)" filter="url(#Path_41548)">
      <path id="Path_41548-2" data-name="Path 41548" d="M7,0H332a7,7,0,0,1,7,7V214a7,7,0,0,1-7,7H7a7,7,0,0,1-7-7V7A7,7,0,0,1,7,0Z" transform="translate(9 6)" fill="#10a9dc"/>
    </g>
    <path id="Path_41577" data-name="Path 41577" d="M-78.907-24.43V-9.31a5.184,5.184,0,0,0,1.295,3.8A4.883,4.883,0,0,0-73.972-4.2,4.932,4.932,0,0,0-70.3-5.512,5.184,5.184,0,0,0-69-9.31V-24.43h4.935V-9.345a9.738,9.738,0,0,1-1.347,5.267A8.546,8.546,0,0,1-69.02-.84,11.444,11.444,0,0,1-74.042.245,11.138,11.138,0,0,1-78.995-.84a8.26,8.26,0,0,1-3.518-3.237,10.046,10.046,0,0,1-1.295-5.267V-24.43Zm30.31,4.76A7.474,7.474,0,0,1-43-17.483a8.375,8.375,0,0,1,2.135,6.108V0h-4.9V-10.71a5.028,5.028,0,0,0-1.155-3.552,4.091,4.091,0,0,0-3.15-1.242,4.192,4.192,0,0,0-3.2,1.242,4.98,4.98,0,0,0-1.173,3.552V0h-4.9V-19.39h4.9v2.415a6.769,6.769,0,0,1,2.5-1.977A7.741,7.741,0,0,1-48.6-19.67Zm17.29-6.23V0h-4.9V-25.9Zm7.315,4.2a2.986,2.986,0,0,1-2.153-.822A2.721,2.721,0,0,1-27-24.57a2.721,2.721,0,0,1,.858-2.047,2.986,2.986,0,0,1,2.153-.822,2.986,2.986,0,0,1,2.153.822,2.721,2.721,0,0,1,.858,2.047,2.721,2.721,0,0,1-.858,2.048A2.986,2.986,0,0,1-23.992-21.7Zm2.415,2.31V0h-4.9V-19.39Zm28.91-.28a7.784,7.784,0,0,1,5.758,2.188,8.256,8.256,0,0,1,2.188,6.108V0h-4.9V-10.71a4.844,4.844,0,0,0-1.155-3.483A4.153,4.153,0,0,0,6.073-15.4a4.211,4.211,0,0,0-3.167,1.207A4.8,4.8,0,0,0,1.733-10.71V0h-4.9V-10.71a4.844,4.844,0,0,0-1.155-3.483A4.153,4.153,0,0,0-7.472-15.4a4.257,4.257,0,0,0-3.2,1.207,4.8,4.8,0,0,0-1.172,3.483V0h-4.9V-19.39h4.9v2.345A6.521,6.521,0,0,1-9.415-18.97a7.589,7.589,0,0,1,3.273-.7,8.418,8.418,0,0,1,4.06.962A6.745,6.745,0,0,1,.683-15.96,7.02,7.02,0,0,1,3.43-18.655,7.822,7.822,0,0,1,7.333-19.67ZM22.418-21.7a2.986,2.986,0,0,1-2.153-.822,2.721,2.721,0,0,1-.858-2.048,2.721,2.721,0,0,1,.858-2.047,2.986,2.986,0,0,1,2.153-.822,2.986,2.986,0,0,1,2.153.822,2.721,2.721,0,0,1,.858,2.047,2.721,2.721,0,0,1-.858,2.048A2.986,2.986,0,0,1,22.418-21.7Zm2.415,2.31V0h-4.9V-19.39Zm10.535,4.025v9.38a1.854,1.854,0,0,0,.472,1.418,2.321,2.321,0,0,0,1.593.438h2.275V0h-3.08q-6.2,0-6.2-6.02v-9.345h-2.31V-19.39h2.31v-4.795h4.935v4.795h4.34v4.025Zm25.9,5.25a11.564,11.564,0,0,1-.14,1.89H46.953a4.821,4.821,0,0,0,1.47,3.29,4.533,4.533,0,0,0,3.185,1.19A4,4,0,0,0,55.493-6.09h5.285a8.832,8.832,0,0,1-3.22,4.6,9.4,9.4,0,0,1-5.845,1.8A10.115,10.115,0,0,1,46.69-.928a8.745,8.745,0,0,1-3.465-3.518A10.778,10.778,0,0,1,41.983-9.7a10.979,10.979,0,0,1,1.225-5.285,8.547,8.547,0,0,1,3.43-3.5A10.275,10.275,0,0,1,51.713-19.7a10.194,10.194,0,0,1,4.953,1.19,8.375,8.375,0,0,1,3.395,3.377A10.221,10.221,0,0,1,61.268-10.115Zm-5.075-1.4a3.886,3.886,0,0,0-1.365-3.028,4.836,4.836,0,0,0-3.255-1.138,4.448,4.448,0,0,0-3.063,1.1,4.847,4.847,0,0,0-1.522,3.063Zm7.385,1.75A11.222,11.222,0,0,1,64.75-14.98a8.553,8.553,0,0,1,3.2-3.5A8.57,8.57,0,0,1,72.467-19.7a8.236,8.236,0,0,1,3.605.823,7.208,7.208,0,0,1,2.73,2.188v-9.2h4.97V0H78.8V-2.87A6.64,6.64,0,0,1,76.247-.56a8,8,0,0,1-3.815.875,8.328,8.328,0,0,1-4.48-1.26A8.774,8.774,0,0,1,64.75-4.5,11.409,11.409,0,0,1,63.577-9.765Zm15.26.07a6.285,6.285,0,0,0-.7-3.062,4.935,4.935,0,0,0-1.89-1.96,5.051,5.051,0,0,0-2.555-.682,4.963,4.963,0,0,0-2.52.665A5.008,5.008,0,0,0,69.3-12.793a6.085,6.085,0,0,0-.717,3.028A6.285,6.285,0,0,0,69.3-6.7,5.166,5.166,0,0,0,71.19-4.69a4.8,4.8,0,0,0,2.5.7,5.051,5.051,0,0,0,2.555-.682,4.935,4.935,0,0,0,1.89-1.96A6.285,6.285,0,0,0,78.838-9.7ZM-44.3,63.616V57.9l17-24.336h8.476V57.272h4.576v6.344h-4.576V71H-26.1V63.616ZM-25.636,41.36-36.3,57.272h10.66ZM30.784,34.7V71H23.5V47.392L13.78,71H8.268L-1.508,47.392V71h-7.28V34.7H-.52L11.024,61.692,22.568,34.7Z" transform="translate(188 277)" fill="#fff"/>
  </g>
</svg>
