<svg xmlns="http://www.w3.org/2000/svg" width="54" height="54" viewBox="0 0 54 54">
  <g id="Group_39224" data-name="Group 39224" transform="translate(-38 -924)">
    <circle id="Ellipse_720" data-name="Ellipse 720" cx="27" cy="27" r="27" transform="translate(38 924)" fill="#f4c615"/>
    <path id="I_teach_full_stack_development_Which_means_you_will_see_tutorials_regarding_UI_UX_Frontend_Dev_Backend_Dev_Graphic_Design_and_more" data-name="I teach full stack development! Which means you will see tutorials regarding UI/UX, Frontend Dev, Backend Dev, Graphic Design and more" d="M-21.787-3.875Q-19.387-5.95-18-7.287a15.373,15.373,0,0,0,2.313-2.787,5.356,5.356,0,0,0,.925-2.9,3.549,3.549,0,0,0-.713-2.35,2.758,2.758,0,0,0-2.237-.85A2.865,2.865,0,0,0-20-15.238a3.9,3.9,0,0,0-.862,2.512h-2.75A5.868,5.868,0,0,1-21.9-17.087,5.9,5.9,0,0,1-17.737-18.6a5.845,5.845,0,0,1,4.262,1.5,5.333,5.333,0,0,1,1.538,4,7.1,7.1,0,0,1-.912,3.462,13.943,13.943,0,0,1-2.175,2.975q-1.262,1.313-3.212,3.037l-1.125,1h7.925V-.25h-12.15V-2.325Zm24.6-11.9H-5.562V-10.8A3.959,3.959,0,0,1-4-11.975a5.252,5.252,0,0,1,2.212-.475,5.917,5.917,0,0,1,3.413.9A5.042,5.042,0,0,1,3.5-9.275a7.585,7.585,0,0,1,.563,2.9A7.307,7.307,0,0,1,3.35-3.087,5.3,5.3,0,0,1,1.225-.825,6.762,6.762,0,0,1-2.237,0,6.7,6.7,0,0,1-6.612-1.35,5.466,5.466,0,0,1-8.587-4.925h2.775A3.091,3.091,0,0,0-4.587-3.062a3.946,3.946,0,0,0,2.375.688A3.253,3.253,0,0,0,.45-3.45,4.335,4.335,0,0,0,1.338-6.3a3.9,3.9,0,0,0-.9-2.762,3.455,3.455,0,0,0-2.65-.962,3.4,3.4,0,0,0-2.063.612A3.43,3.43,0,0,0-5.487-7.75h-2.7V-18.275h11Zm17.175,3.4a4.593,4.593,0,0,0-1.875-1.962A5.648,5.648,0,0,0,15.338-15a6.065,6.065,0,0,0-3.075.775,5.431,5.431,0,0,0-2.113,2.2,6.889,6.889,0,0,0-.762,3.3,6.963,6.963,0,0,0,.762,3.313A5.412,5.412,0,0,0,12.263-3.2a6.065,6.065,0,0,0,3.075.775,5.441,5.441,0,0,0,3.775-1.3A5.651,5.651,0,0,0,20.888-7.25H14.363V-9.525h9.575V-7.3A8.553,8.553,0,0,1,22.5-3.575,8.552,8.552,0,0,1,19.475-.862,8.52,8.52,0,0,1,15.338.15,8.98,8.98,0,0,1,10.863-.988,8.481,8.481,0,0,1,7.65-4.15,8.874,8.874,0,0,1,6.463-8.725,8.874,8.874,0,0,1,7.65-13.3a8.455,8.455,0,0,1,3.225-3.162A9,9,0,0,1,15.338-17.6a9.066,9.066,0,0,1,4.938,1.362,7.758,7.758,0,0,1,3.137,3.863Z" transform="translate(65 960)" fill="#fff"/>
  </g>
</svg>
