<svg xmlns="http://www.w3.org/2000/svg" xmlns:xlink="http://www.w3.org/1999/xlink" width="60" height="60" viewBox="0 0 60 60">
  <defs>
    <clipPath id="clip-path">
      <rect id="Rectangle_21926" data-name="Rectangle 21926" width="60" height="60" transform="translate(1468 2829)" fill="none" stroke="#707070" stroke-width="1"/>
    </clipPath>
    <clipPath id="clip-path-2">
      <rect id="Rectangle_21924" data-name="Rectangle 21924" width="41.768" height="41.77" transform="translate(390.086 174.317)" fill="none"/>
    </clipPath>
  </defs>
  <g id="Mask_Group_7307" data-name="Mask Group 7307" transform="translate(-1468 -2829)" clip-path="url(#clip-path)">
    <g id="Group_39622" data-name="Group 39622" transform="translate(1086.914 2664.683)">
      <g id="Group_39621" data-name="Group 39621">
        <g id="Group_39620" data-name="Group 39620" clip-path="url(#clip-path-2)">
          <path id="Path_42928" data-name="Path 42928" d="M424.26,174.316H397.677a1.894,1.894,0,0,0-1.231.475,7.594,7.594,0,0,1,5.031,6.36,3.319,3.319,0,0,1,0,.759v32.275a1.9,1.9,0,0,0,3.132,1.442l5.412-4.632,5.413,4.632a1.9,1.9,0,0,0,2.467,0l5.411-4.632,5.411,4.632a1.9,1.9,0,0,0,1.234.456,2.007,2.007,0,0,0,.793-.171,1.9,1.9,0,0,0,1.1-1.727V181.907a7.591,7.591,0,0,0-7.591-7.591Zm-1.9,26.579H410.969a1.9,1.9,0,1,1,0-3.795h11.394a1.9,1.9,0,1,1,0,3.795h0m0-7.591H410.969a1.9,1.9,0,0,1,0-3.795h11.392a1.9,1.9,0,0,1,0,3.795m0-7.59H410.969a1.9,1.9,0,0,1,0-3.795h11.392a1.9,1.9,0,0,1,0,3.795m-24.684-3.807V197.1h-5.693a1.9,1.9,0,0,1-1.9-1.9v-14.05a3.816,3.816,0,0,1,7.613.538c-.005.073-.013.146-.022.218" fill="#004b79"/>
        </g>
      </g>
      <rect id="Rectangle_21925" data-name="Rectangle 21925" width="19.654" height="26.432" transform="translate(406.904 179.046)" fill="#004b79"/>
      <path id="Path_42929" data-name="Path 42929" d="M424.565,202.243a.988.988,0,0,1-.962,1l-13.649.228a.973.973,0,1,1-.023-1.946l13.635-.228a.971.971,0,0,1,1,.944v0" fill="#fff"/>
      <path id="Path_42930" data-name="Path 42930" d="M424.559,197.223v.107c.077.51-.534.949-1.355.986a.905.905,0,0,1-.172.012l-12.53.129c-.821.036-1.526-.344-1.583-.842a.256.256,0,0,1-.019-.119c-.058-.5.553-.949,1.373-.984h.172l12.531-.131c.8-.048,1.525.332,1.583.842" fill="#fff"/>
      <path id="Path_42931" data-name="Path 42931" d="M424.565,192.314a.988.988,0,0,1-.962,1l-13.649.228a.973.973,0,1,1-.023-1.946l13.635-.228a.971.971,0,0,1,1,.944v0" fill="#fff"/>
      <path id="Path_42932" data-name="Path 42932" d="M424.559,187.294v.107c.077.51-.534.949-1.355.986a.905.905,0,0,1-.172.012l-12.53.129c-.821.036-1.526-.344-1.583-.842a.256.256,0,0,1-.019-.119c-.058-.5.553-.949,1.373-.984h.172l12.531-.131c.8-.048,1.525.332,1.583.842" fill="#fff"/>
    </g>
  </g>
</svg>
