<svg xmlns="http://www.w3.org/2000/svg" xmlns:xlink="http://www.w3.org/1999/xlink" width="60" height="60" viewBox="0 0 60 60">
  <defs>
    <clipPath id="clip-path">
      <rect id="Rectangle_2" data-name="Rectangle 2" width="60" height="60" transform="translate(269 845)" fill="#fff" stroke="#707070" stroke-width="1"/>
    </clipPath>
  </defs>
  <g id="Mask_Group_1" data-name="Mask Group 1" transform="translate(-269 -845)" clip-path="url(#clip-path)">
    <g id="Group_2" data-name="Group 2" transform="translate(254.47 827.46)">
      <path id="Path_10750" data-name="Path 10750" d="M49.77,59.742h1.259l-.462-2.222Z" transform="translate(7.181 11.375)" fill="#014b79"/>
      <path id="Path_10751" data-name="Path 10751" d="M56.45,17.54H32.2v0a7.9,7.9,0,0,0-7.669,7.874V69.666A7.853,7.853,0,0,0,32.2,77.514h6.757v.026H56.463a7.878,7.878,0,0,0,7.887-7.874V25.414h0A7.872,7.872,0,0,0,56.45,17.54Zm-4.29,4.65v6.821a1.3,1.3,0,0,0,.771,1.374l.064.026v1.028l-.437-.116A2.211,2.211,0,0,1,51.12,29l-.026-5.755,1.053-1.053Zm-3.969,7.026a1.659,1.659,0,0,0,.475-3.2l-.257-.09.8-.8.09.064a2.666,2.666,0,0,1-.013,4.74h-.026a2.625,2.625,0,0,1-3.52-1.22l-.039-.09.822-.822.064.257A1.6,1.6,0,0,0,48.114,29.2h.064Zm-3.956-3.764h0a2.587,2.587,0,0,1,3.507,1.182l.051.116-.822.822-.064-.27a1.532,1.532,0,0,0-1.529-1.118h-.064a1.6,1.6,0,0,0-1.529,1.644,1.621,1.621,0,0,0,1.079,1.554l.257.09-.8.784-.116-.051a2.59,2.59,0,0,1-1.439-2.376,2.631,2.631,0,0,1,1.49-2.376ZM32.982,28.741A1.838,1.838,0,0,1,30.94,30.36a1.934,1.934,0,0,1-2.119-1.734l-.064-.36h1.169l.051.206a.875.875,0,0,0,.963.745c.552,0,.912-.257.912-.642,0-.347-.141-.5-.591-.706l-1.028-.5C29.385,26.981,29,26.493,29,25.761v-.128a1.757,1.757,0,0,1,1.914-1.58,1.829,1.829,0,0,1,1.978,1.554l.051.373H31.775l-.026-.206a.766.766,0,0,0-.848-.591c-.437,0-.758.231-.758.578,0,.141,0,.3.527.552l1,.475a1.873,1.873,0,0,1,1.323,1.8v.154Zm4.83,1.618H36.784v-.27a1.931,1.931,0,0,1-1.169.411H35.5a1.909,1.909,0,0,1-1.824-1.991v-2.7h1.053v2.813a.867.867,0,0,0,.912.835c.706,0,1.118-.732,1.118-1.439V25.812h1.053Zm2.325.154a1.909,1.909,0,0,1-1.824-1.991v-2.7h1.053v2.813a.867.867,0,0,0,.912.835c.706,0,1.118-.732,1.118-1.439V25.825h1.053v6.281l-1.028,1.028V30.077a1.749,1.749,0,0,1-1.156.437H40.15Zm4.1,42.7L43.014,68.5a.684.684,0,0,0-.36-.514,6.266,6.266,0,0,0-1.5-.5l.039-.167h2.595a.717.717,0,0,1,.706.6l.642,3.417,1.593-4.021h1.606l-2.479,5.909H44.235Zm3.481,0L48.974,67.3H50.5l-1.259,5.909Zm4.277.1a4.774,4.774,0,0,1-1.7-.308l.283-1.3a3.2,3.2,0,0,0,1.567.373c.437,0,.912-.18.912-.578,0-.257-.218-.45-.8-.732s-1.349-.758-1.336-1.606c.013-1.156,1.079-1.952,2.582-1.952a4.119,4.119,0,0,1,1.426.257l-.27,1.246a3.042,3.042,0,0,0-1.5-.27c-.437.051-.642.283-.642.5-.013.694,2.145.784,2.145,2.338h0c0,1.233-1.053,2.03-2.659,2.03Zm6.654-.1-.18-.886H56.5l-.321.886H54.575l2.286-5.472a.686.686,0,0,1,.655-.437h1.3l1.233,5.909H58.634Z" fill="#014b79"/>
    </g>
  </g>
</svg>
