<svg xmlns="http://www.w3.org/2000/svg" width="61.959" height="61.958" viewBox="0 0 61.959 61.958">
  <g id="Group_40017" data-name="Group 40017" transform="matrix(0.985, 0.174, -0.174, 0.985, -434.095, -2581.31)">
    <path id="Path_12916" data-name="Path 12916" d="M60.9,30.452A30.49,30.49,0,0,1,30.56,60.9h-.107a30.452,30.452,0,1,1,0-60.9h.107A30.49,30.49,0,0,1,60.9,30.452Zm0,0" transform="translate(876.787 2466.53) rotate(-9)" fill="#48a6d9"/>
    <path id="Path_12913" data-name="Path 12913" d="M51.049,25.524A25.556,25.556,0,0,1,25.615,51.049h-.09A25.525,25.525,0,1,1,25.525,0h.09A25.556,25.556,0,0,1,51.049,25.524Zm0,0" transform="translate(882.425 2470.626) rotate(-9)" fill="#fff"/>
    <path id="Path_12914" data-name="Path 12914" d="M25.434,25.524A25.556,25.556,0,0,1,0,51.049V0A25.556,25.556,0,0,1,25.434,25.524Zm0,0" transform="translate(907.724 2466.619) rotate(-9)" fill="#e1ebf0"/>
    <path id="Path_12915" data-name="Path 12915" d="M24.452,5.13l-11.5,11.5-2.484,2.484a3.008,3.008,0,0,1-4.251,0L.88,13.768A3,3,0,0,1,5.129,9.519l3.218,3.218L20.2.881A3,3,0,0,1,24.452,5.13Zm0,0" transform="translate(897.542 2485.159) rotate(-9)" fill="#005c8a"/>
  </g>
</svg>
