<svg id="Group_39107" data-name="Group 39107" xmlns="http://www.w3.org/2000/svg" xmlns:xlink="http://www.w3.org/1999/xlink" width="59.052" height="59.037" viewBox="0 0 59.052 59.037">
  <defs>
    <clipPath id="clip-path">
      <rect id="Rectangle_20599" data-name="Rectangle 20599" width="59.051" height="59.037" fill="none"/>
    </clipPath>
  </defs>
  <g id="Group_39106" data-name="Group 39106" clip-path="url(#clip-path)">
    <path id="Path_41423" data-name="Path 41423" d="M40.113,18.092H19.049A39.113,39.113,0,0,1,23.213,5q2.851-5,6.312-5t6.312,5a40.824,40.824,0,0,1,4.276,13.091M18.1,29.525q0-3.808.358-7.617H40.593q.358,3.808.356,7.617t-.356,7.611H18.456q-.358-3.808-.358-7.611M56.785,18.1H43.925A41.174,41.174,0,0,0,37.973,1.2,29.177,29.177,0,0,1,49.215,7.55a30.119,30.119,0,0,1,7.562,10.541M21.073,1.183a39.009,39.009,0,0,0-5.95,16.9H2.268A30.136,30.136,0,0,1,9.825,7.556,29.17,29.17,0,0,1,21.073,1.183M57.972,21.9a27.47,27.47,0,0,1,0,15.235H44.405q.356-3.928.356-7.617T44.405,21.9ZM14.288,29.525q0,3.571.356,7.617H1.077A28.9,28.9,0,0,1,0,29.525a28.883,28.883,0,0,1,1.077-7.617H14.646q-.356,3.922-.356,7.617m4.759,11.423H39.995a39.123,39.123,0,0,1-4.158,13.091q-2.851,5-6.312,5t-6.312-5a39.094,39.094,0,0,1-4.158-13.1Zm18.922,16.9a38.844,38.844,0,0,0,5.952-16.9H56.775a30.136,30.136,0,0,1-7.556,10.533A29.14,29.14,0,0,1,37.971,57.85m-35.7-16.9H15.123a41.1,41.1,0,0,0,5.95,16.9A29.144,29.144,0,0,1,9.831,51.475,30.121,30.121,0,0,1,2.268,40.942" fill="#005c8a"/>
  </g>
</svg>
