<svg xmlns="http://www.w3.org/2000/svg" xmlns:xlink="http://www.w3.org/1999/xlink" width="65.206" height="65.205" viewBox="0 0 65.206 65.205">
  <defs>
    <clipPath id="clip-path">
      <rect id="Rectangle_21897" data-name="Rectangle 21897" width="65.206" height="65.205" transform="translate(0 -0.001)" fill="none"/>
    </clipPath>
  </defs>
  <g id="Group_39652" data-name="Group 39652" transform="translate(-31.541 -0.081)">
    <g id="Group_39651" data-name="Group 39651" transform="translate(31.541 0.082)" clip-path="url(#clip-path)">
      <path id="Path_42984" data-name="Path 42984" d="M91.123,36.119A30.345,30.345,0,0,0,61,5.776V66.462a30.345,30.345,0,0,0,30.12-30.343" transform="translate(-27.169 -2.573)" fill="#e1ebf0"/>
      <path id="Path_42985" data-name="Path 42985" d="M61.363,13.932v16a1.229,1.229,0,0,1,.336-.052,1.264,1.264,0,0,1,1.248,1.247v5.476a1.187,1.187,0,0,0,1.189,1.21h6.351a1.2,1.2,0,0,0,1.189-1.21V31.13a1.3,1.3,0,0,1,1.247-1.247A1.265,1.265,0,0,1,74.17,31.13v14.1a1.235,1.235,0,0,1-1.248,1.247,1.264,1.264,0,0,1-1.247-1.247V40.109a4.028,4.028,0,0,1-1.189.2H64.135a3.693,3.693,0,0,1-2.772-1.255v1.626s7.555,12.152,12.845,20.21a25.452,25.452,0,0,0-12.845-46.96" transform="translate(-27.329 -6.205)" fill="#48a6d9"/>
      <path id="Path_42986" data-name="Path 42986" d="M19.395,59.738H15.766a1.267,1.267,0,1,0,0,2.535h3.628a1.267,1.267,0,1,0,0-2.535" transform="translate(-6.457 -26.606)" fill="#387ea5"/>
      <path id="Path_42987" data-name="Path 42987" d="M32.686,27.424a1.267,1.267,0,0,0,0-1.793l-2.565-2.565a1.267,1.267,0,1,0-1.792,1.792l2.565,2.566a1.268,1.268,0,0,0,1.792,0" transform="translate(-12.452 -10.108)" fill="#387ea5"/>
      <path id="Path_42988" data-name="Path 42988" d="M35.228,89.385,32.663,91.95a1.267,1.267,0,0,0,1.792,1.793l2.565-2.565a1.267,1.267,0,0,0-1.792-1.793" transform="translate(-14.382 -39.645)" fill="#387ea5"/>
      <path id="Path_42989" data-name="Path 42989" d="M44.769,57.165H34.525V54.02a1.346,1.346,0,0,1,1.332-1.353H42a3.394,3.394,0,0,0,3.393-3.394V46.441a3.417,3.417,0,0,0-3.415-3.415H35.837a3.4,3.4,0,0,0-3.415,3.415v1.083a1.031,1.031,0,1,0,2.062,0V46.441a1.347,1.347,0,0,1,1.353-1.332h6.142a1.346,1.346,0,0,1,1.354,1.332v2.832A1.356,1.356,0,0,1,42,50.606H35.857a3.4,3.4,0,0,0-3.415,3.415v4.185a1.059,1.059,0,0,0,1.063,1.02H44.769a1.031,1.031,0,0,0,0-2.061" transform="translate(-14.44 -19.163)" fill="#387ea5"/>
      <path id="Path_42990" data-name="Path 42990" d="M44.6,56.793H34.565V53.855a1.138,1.138,0,0,1,1.126-1.148h6.144a3.6,3.6,0,0,0,3.6-3.6V46.275a3.625,3.625,0,0,0-3.621-3.621H35.671a3.625,3.625,0,0,0-3.621,3.621v1.083a1.237,1.237,0,1,0,2.474,0V46.275a1.137,1.137,0,0,1,1.147-1.126h6.142a1.138,1.138,0,0,1,1.148,1.126v2.832a1.156,1.156,0,0,1-1.126,1.126H35.691a3.625,3.625,0,0,0-3.621,3.621v4.185a1.265,1.265,0,0,0,1.269,1.227H44.6a1.237,1.237,0,0,0,0-2.474m0,2.37H33.339a1.161,1.161,0,0,1-1.166-1.124V53.855a3.522,3.522,0,0,1,3.518-3.518h6.144a1.246,1.246,0,0,0,1.229-1.23V46.275a1.241,1.241,0,0,0-1.251-1.229H35.671a1.241,1.241,0,0,0-1.25,1.229v1.083a1.134,1.134,0,1,1-2.268,0V46.275a3.522,3.522,0,0,1,3.518-3.518h6.142a3.522,3.522,0,0,1,3.518,3.518v2.832a3.5,3.5,0,0,1-3.5,3.5H35.691a1.242,1.242,0,0,0-1.229,1.251V56.9H44.6a1.134,1.134,0,0,1,0,2.267" transform="translate(-14.274 -18.997)" fill="#387ea5"/>
      <path id="Path_42991" data-name="Path 42991" d="M44.686,56.979H34.545V53.938a1.242,1.242,0,0,1,1.229-1.251h6.144a3.5,3.5,0,0,0,3.5-3.5V46.358A3.522,3.522,0,0,0,41.9,42.84H35.754a3.522,3.522,0,0,0-3.518,3.518v1.083a1.134,1.134,0,1,0,2.268,0V46.358a1.241,1.241,0,0,1,1.25-1.229H41.9a1.241,1.241,0,0,1,1.251,1.229V49.19a1.246,1.246,0,0,1-1.229,1.23H35.774a3.522,3.522,0,0,0-3.518,3.518v4.185a1.161,1.161,0,0,0,1.166,1.124H44.686a1.134,1.134,0,0,0,0-2.267m0,2.164H33.422a1.059,1.059,0,0,1-1.063-1.021V53.938a3.4,3.4,0,0,1,3.415-3.415h6.144A1.356,1.356,0,0,0,43.25,49.19V46.358A1.346,1.346,0,0,0,41.9,45.026H35.754A1.346,1.346,0,0,0,34.4,46.358v1.083a1.031,1.031,0,1,1-2.062,0V46.358a3.4,3.4,0,0,1,3.415-3.415H41.9a3.417,3.417,0,0,1,3.415,3.415V49.19a3.394,3.394,0,0,1-3.393,3.394H35.774a1.346,1.346,0,0,0-1.332,1.354v3.144H44.686a1.031,1.031,0,0,1,0,2.061" transform="translate(-14.357 -19.08)" fill="#387ea5"/>
      <path id="Path_42992" data-name="Path 42992" d="M60.054,44.153V49.63a3.482,3.482,0,0,0,.726,2.131V43.172a1.056,1.056,0,0,0-.726.981" transform="translate(-26.746 -19.228)" fill="#387ea5"/>
      <path id="Path_42993" data-name="Path 42993" d="M64.134,53.079h6.351a3.862,3.862,0,0,0,1.4-.292V58.2a1.058,1.058,0,0,0,1.041,1.041A1.031,1.031,0,0,0,73.963,58.2V44.1a1.057,1.057,0,0,0-1.042-1.04A1.087,1.087,0,0,0,71.88,44.1v5.476A1.414,1.414,0,0,1,70.485,51H64.134a1.4,1.4,0,0,1-1.395-1.417V44.1a1.057,1.057,0,0,0-1.041-1.04,1.046,1.046,0,0,0-.336.059v8.59a3.486,3.486,0,0,0,2.772,1.366" transform="translate(-27.329 -19.18)" fill="#387ea5"/>
      <path id="Path_42994" data-name="Path 42994" d="M59.785,49.458V43.981a1.161,1.161,0,0,1,.829-1.088v-.108a1.268,1.268,0,0,0-.932,1.2v5.476a3.685,3.685,0,0,0,.932,2.449v-.153a3.583,3.583,0,0,1-.829-2.3" transform="translate(-26.58 -19.056)" fill="#387ea5"/>
      <path id="Path_42995" data-name="Path 42995" d="M64.134,53.12h6.351a4.028,4.028,0,0,0,1.19-.2v5.118a1.264,1.264,0,0,0,1.247,1.247,1.234,1.234,0,0,0,1.248-1.247v-14.1a1.264,1.264,0,0,0-1.248-1.247,1.3,1.3,0,0,0-1.247,1.247v5.476a1.2,1.2,0,0,1-1.19,1.21H64.134a1.187,1.187,0,0,1-1.189-1.21V43.939A1.264,1.264,0,0,0,61.7,42.692a1.233,1.233,0,0,0-.336.052v.107A1.132,1.132,0,0,1,61.7,42.8a1.159,1.159,0,0,1,1.144,1.144v5.476a1.3,1.3,0,0,0,1.292,1.313h6.351a1.3,1.3,0,0,0,1.293-1.313V43.939A1.189,1.189,0,0,1,72.921,42.8a1.159,1.159,0,0,1,1.145,1.144v14.1a1.132,1.132,0,0,1-1.145,1.144,1.159,1.159,0,0,1-1.144-1.144V52.774a3.956,3.956,0,0,1-1.293.243H64.134a3.6,3.6,0,0,1-2.772-1.306v.153a3.693,3.693,0,0,0,2.772,1.256" transform="translate(-27.329 -19.014)" fill="#387ea5"/>
      <path id="Path_42996" data-name="Path 42996" d="M59.868,44.068v5.476a3.584,3.584,0,0,0,.829,2.3v-.164a3.481,3.481,0,0,1-.726-2.131V44.068a1.056,1.056,0,0,1,.726-.981V42.98a1.161,1.161,0,0,0-.829,1.088" transform="translate(-26.663 -19.143)" fill="#387ea5"/>
      <path id="Path_42997" data-name="Path 42997" d="M61.7,42.981a1.058,1.058,0,0,1,1.042,1.041V49.5a1.4,1.4,0,0,0,1.394,1.416h6.351a1.414,1.414,0,0,0,1.4-1.416V44.022a1.086,1.086,0,0,1,1.04-1.041,1.057,1.057,0,0,1,1.042,1.041v14.1a1.031,1.031,0,0,1-1.042,1.04,1.057,1.057,0,0,1-1.04-1.04V52.7a3.879,3.879,0,0,1-1.4.291H64.134a3.484,3.484,0,0,1-2.772-1.366v.164A3.6,3.6,0,0,0,64.134,53.1h6.351a3.954,3.954,0,0,0,1.293-.243v5.263a1.159,1.159,0,0,0,1.144,1.144,1.132,1.132,0,0,0,1.145-1.144v-14.1a1.16,1.16,0,0,0-1.145-1.144,1.189,1.189,0,0,0-1.144,1.144V49.5a1.3,1.3,0,0,1-1.293,1.313H64.134A1.3,1.3,0,0,1,62.843,49.5V44.022A1.16,1.16,0,0,0,61.7,42.878a1.126,1.126,0,0,0-.336.057v.106a1.058,1.058,0,0,1,.336-.059" transform="translate(-27.329 -19.097)" fill="#387ea5"/>
      <path id="Path_42998" data-name="Path 42998" d="M32.6,0a32.6,32.6,0,1,0,32.6,32.6A32.6,32.6,0,0,0,32.6,0m-.1,61.189A28.55,28.55,0,1,1,61.057,32.638,28.551,28.551,0,0,1,32.506,61.189" transform="translate(0 -0.001)" fill="#387ea5"/>
    </g>
  </g>
</svg>
