<svg xmlns="http://www.w3.org/2000/svg" xmlns:xlink="http://www.w3.org/1999/xlink" width="73" height="73" viewBox="0 0 73 73">
  <defs>
    <clipPath id="clip-path">
      <rect id="Rectangle_21957" data-name="Rectangle 21957" width="73" height="73" transform="translate(924 758)" fill="none" stroke="#707070" stroke-width="1"/>
    </clipPath>
    <clipPath id="clip-path-2">
      <rect id="Rectangle_21836" data-name="Rectangle 21836" width="70.339" height="70.357" fill="#373464"/>
    </clipPath>
  </defs>
  <g id="Mask_Group_7318" data-name="Mask Group 7318" transform="translate(-924 -758)" clip-path="url(#clip-path)">
    <g id="Group_39469" data-name="Group 39469" transform="translate(925 759)">
      <g id="Group_39468" data-name="Group 39468" transform="translate(0 0.001)" clip-path="url(#clip-path-2)">
        <path id="Path_42580" data-name="Path 42580" d="M17.89,23.164A14.3,14.3,0,0,1,10.98,24.71a14.3,14.3,0,0,1-6.91-1.546V51.189a18.823,18.823,0,0,1,1.885-.094,14.3,14.3,0,0,1,6.91,1.547V43.557c0-2.01,1.991-3.664,5.026-4.479Z" transform="translate(0.956 5.442)" fill="#373464"/>
        <path id="Path_42581" data-name="Path 42581" d="M6.911,47.816C3.095,47.816,0,48.941,0,50.329s3.095,2.512,6.911,2.512,6.91-1.125,6.91-2.512-3.094-2.513-6.91-2.513" transform="translate(0 11.234)" fill="#373464"/>
        <path id="Path_42582" data-name="Path 42582" d="M0,52.668v2.8c0,1.005,2.755,2.513,6.911,2.513s6.91-1.508,6.91-2.513v-2.8a14.3,14.3,0,0,1-6.91,1.546A14.3,14.3,0,0,1,0,52.668" transform="translate(0 12.374)" fill="#373464"/>
        <path id="Path_42583" data-name="Path 42583" d="M30.856,11.47a5.41,5.41,0,0,0,3.22,1.084,27.228,27.228,0,0,1-2.566-5.936,1.257,1.257,0,0,1,2.422-.674,23.215,23.215,0,0,0,3.17,6.619h1.291a23.06,23.06,0,0,0,3.169-6.618,1.257,1.257,0,1,1,2.422.673,27.122,27.122,0,0,1-2.564,5.931,5.39,5.39,0,0,0,3.154-1.079c2.94-2.3,3.973-5.955,4.311-8.619A1.152,1.152,0,0,0,48.348,1.7a1.305,1.305,0,0,0-1.426,0,5.32,5.32,0,0,1-2.942.811A5.665,5.665,0,0,1,40.059.979a3.308,3.308,0,0,0-4.7,0,5.665,5.665,0,0,1-3.92,1.533,5.28,5.28,0,0,1-2.927-.806A1.333,1.333,0,0,0,27.8,1.5a1.357,1.357,0,0,0-.721.211,1.148,1.148,0,0,0-.533,1.147c.342,2.664,1.371,6.317,4.309,8.616" transform="translate(6.234 -0.001)" fill="#373464"/>
        <path id="Path_42584" data-name="Path 42584" d="M17.084,9.095c3.816,0,6.91-1.125,6.91-2.513S20.9,4.07,17.084,4.07,10.173,5.2,10.173,6.582s3.094,2.513,6.911,2.513" transform="translate(2.39 0.956)" fill="#373464"/>
        <path id="Path_42585" data-name="Path 42585" d="M10.98,23.338c3.816,0,6.911-1.125,6.911-2.513S14.8,18.313,10.98,18.313s-6.911,1.125-6.911,2.512,3.095,2.513,6.911,2.513" transform="translate(0.956 4.302)" fill="#373464"/>
        <path id="Path_42586" data-name="Path 42586" d="M67.946,46.395A11.408,11.408,0,1,0,50.2,60.72H30.28V46.9c0-2.865-4.051-5.026-9.423-5.026-.63,0-1.26.037-1.889.1V23.029c0-2.742-3.742-4.841-8.793-5v-9.1a14.246,14.246,0,0,0,6.9,1.544,14.135,14.135,0,0,0,6.916-1.556v8.571c-.827.926-1.655,1.939-2.482,3.063a1.255,1.255,0,0,0,2.025,1.482,35.111,35.111,0,0,1,2.593-3.149c0-.012.012-.025.025-.037a33.309,33.309,0,0,1,8.336-6.681,7.773,7.773,0,0,0,1.939.642l-2.322,2.174a1.268,1.268,0,0,0-.062,1.778,1.313,1.313,0,0,0,.877.4,1.258,1.258,0,0,0,.9-.333l4.112-3.841h.4v3.779a1.26,1.26,0,0,0,2.519,0V12.977h.4l4.1,3.841a1.267,1.267,0,0,0,2.124-.963,1.249,1.249,0,0,0-.408-.877l-2.334-2.186a7.524,7.524,0,0,0,1.927-.642c3.322,1.8,14.239,8.892,18.327,26.243a32.969,32.969,0,0,1,.963,8" transform="translate(2.391 2.094)" fill="#373464"/>
        <path id="Path_42587" data-name="Path 42587" d="M13.226,42.494V55.349c0,1.005,2.755,2.512,6.911,2.512s6.91-1.507,6.91-2.512V42.494a14.3,14.3,0,0,1-6.91,1.546,14.3,14.3,0,0,1-6.911-1.546" transform="translate(3.107 9.983)" fill="#373464"/>
        <path id="Path_42588" data-name="Path 42588" d="M20.136,37.643c-3.816,0-6.911,1.125-6.911,2.513s3.095,2.512,6.911,2.512,6.911-1.124,6.911-2.512-3.095-2.513-6.911-2.513" transform="translate(3.107 8.843)" fill="#373464"/>
        <path id="Path_42589" data-name="Path 42589" d="M49.795,8.237c0,2.06-2.236,3.744-5.025,3.769a6.389,6.389,0,0,1-1.4-.151.917.917,0,0,1-.238.214c.2.126.427.264.666.4.767.5,1.659,1.118,2.639,1.885.1.075.189.151.289.238,6.256.464,8.242,3.077,8.305,3.153a1.253,1.253,0,0,0,1.042.541,1.177,1.177,0,0,0,.69-.214,1.256,1.256,0,0,0,.353-1.734c-.1-.151-1.835-2.638-6.9-3.781a5.744,5.744,0,0,0,2.086-4.322A6.482,6.482,0,0,0,47.5,2.37a1.709,1.709,0,0,1-.026.251A19.218,19.218,0,0,1,47.043,4.9a3.836,3.836,0,0,1,2.751,3.342" transform="translate(10.135 0.556)" fill="#373464"/>
        <path id="Path_42590" data-name="Path 42590" d="M55.022,48.716C53.775,50,52.5,51.26,51.231,52.52a.935.935,0,0,1-1.408-.012c-1.284-1.26-2.556-2.544-3.828-3.828a.914.914,0,0,1,.037-1.321.928.928,0,0,1,1.334,0c.593.58,1.186,1.173,1.766,1.778l.445.37v-8.99a.957.957,0,1,1,1.9.012c.012,1.766.012,3.52.012,5.286v3.692c.148-.136.247-.21.333-.3.617-.605,1.223-1.223,1.84-1.828a.927.927,0,0,1,1.358-.025.907.907,0,0,1,0,1.358" transform="translate(10.744 9.269)" fill="#373464"/>
      </g>
    </g>
  </g>
</svg>
