<svg xmlns="http://www.w3.org/2000/svg" xmlns:xlink="http://www.w3.org/1999/xlink" width="73" height="73" viewBox="0 0 73 73">
  <defs>
    <clipPath id="clip-path">
      <rect id="Rectangle_21959" data-name="Rectangle 21959" width="73" height="73" transform="translate(1506 932)" fill="none" stroke="#707070" stroke-width="1"/>
    </clipPath>
  </defs>
  <g id="Mask_Group_7350" data-name="Mask Group 7350" transform="translate(-1506 -932)" clip-path="url(#clip-path)">
    <g id="Group_39945" data-name="Group 39945" transform="translate(1518.601 944.61)">
      <path id="Path_43426" data-name="Path 43426" d="M6.825,6.825H13.65V13.65H6.825ZM0,20.476H20.491V0H0Z" fill="#373464"/>
      <path id="Path_43427" data-name="Path 43427" d="M6.825,24.866H13.65v6.825H6.825ZM0,38.516H20.491V18.039H0Z" transform="translate(0 9.26)" fill="#373464"/>
      <rect id="Rectangle_21925" data-name="Rectangle 21925" width="3.42" height="3.405" transform="translate(37.552 44.375)" fill="#373464"/>
      <path id="Path_43428" data-name="Path 43428" d="M24.875,6.825H31.7V13.65H24.875ZM18.05,20.476H38.526V0H18.05Z" transform="translate(9.266)" fill="#373464"/>
      <path id="Path_43429" data-name="Path 43429" d="M35.11,18.042v3.42H28.285v-3.42H18.053V38.518H24.88V28.288h3.405v3.405H38.53V18.042Z" transform="translate(9.268 9.262)" fill="#373464"/>
      <rect id="Rectangle_21926" data-name="Rectangle 21926" width="3.42" height="3.405" transform="translate(44.378 44.375)" fill="#373464"/>
      <path id="Path_43430" data-name="Path 43430" d="M37.546,47.777h3.42V44.372h-3.42Zm6.825,0h3.42V44.372h-3.42ZM6.825,34.126H13.65v6.825H6.825ZM0,47.777H20.491V27.3H0ZM44.372,27.3v3.42H37.546V27.3H27.316V47.777h6.825V37.546h3.405v3.405H47.792V27.3ZM6.825,6.825H13.65V13.65H6.825ZM0,20.476H20.491V0H0ZM34.141,6.825h6.825V13.65H34.141Zm-6.825,13.65H47.792V0H27.316Z" fill="#373464"/>
    </g>
  </g>
</svg>
