<svg xmlns="http://www.w3.org/2000/svg" xmlns:xlink="http://www.w3.org/1999/xlink" width="359" height="305" viewBox="0 0 359 305">
  <defs>
    <filter id="Base" x="74.543" y="69.216" width="117.514" height="38.609" filterUnits="userSpaceOnUse">
      <feOffset dy="4" input="SourceAlpha"/>
      <feGaussianBlur stdDeviation="2.5" result="blur"/>
      <feFlood flood-opacity="0.059"/>
      <feComposite operator="in" in2="blur"/>
      <feComposite in="SourceGraphic"/>
    </filter>
    <clipPath id="clip-path">
      <path id="Path_11364" data-name="Path 11364" d="M52.539,0,0,12.236,15.611,20.4Z" transform="translate(0 0)" fill="none"/>
    </clipPath>
    <clipPath id="clip-path-2">
      <path id="Path_11365" data-name="Path 11365" d="M30.718,0,0,23.671,18.967,35.749Z" transform="translate(0 0)" fill="none"/>
    </clipPath>
  </defs>
  <g id="Group_39683" data-name="Group 39683" transform="translate(-17 -4890)">
    <rect id="Rectangle_21809" data-name="Rectangle 21809" width="359" height="305" rx="20" transform="translate(376 5195) rotate(180)" fill="#f0f0f3"/>
    <g id="Group_39535" data-name="Group 39535" transform="translate(6645 1668)">
      <path id="Path_42769" data-name="Path 42769" d="M7.456,0H262.178a7.456,7.456,0,0,1,7.456,7.456V180.4a7.456,7.456,0,0,1-7.456,7.456H7.456A7.456,7.456,0,0,1,0,180.4V7.456A7.456,7.456,0,0,1,7.456,0Z" transform="translate(-6578.886 3268)" fill="#c4d9e4"/>
      <path id="Path_42770" data-name="Path 42770" d="M7.456,0H249.131a7.456,7.456,0,0,1,7.456,7.456V168.594a7.456,7.456,0,0,1-7.456,7.456H7.456A7.456,7.456,0,0,1,0,168.594V7.456A7.456,7.456,0,0,1,7.456,0Z" transform="translate(-6572.672 3273.592)" fill="#fff"/>
      <path id="Path_12910" data-name="Path 12910" d="M15.073,17.213a5.587,5.587,0,0,1-.777,2.859,6.048,6.048,0,0,1-2.287,2.2,8.262,8.262,0,0,1-3.563,1.012v2.375H6.569v-2.4A8.272,8.272,0,0,1,1.847,21.48,5.242,5.242,0,0,1,0,17.389H4.4a2.581,2.581,0,0,0,2.17,2.551v-5.6a25.777,25.777,0,0,1-3.4-1.056,5.5,5.5,0,0,1-2.229-1.7A4.978,4.978,0,0,1,0,8.387,5.291,5.291,0,0,1,1.833,4.223,7.915,7.915,0,0,1,6.569,2.375V0H8.445V2.375a7.628,7.628,0,0,1,4.5,1.7,5.719,5.719,0,0,1,1.891,4.047H10.41A2.711,2.711,0,0,0,8.445,5.748V11.29a28.349,28.349,0,0,1,3.475,1.07,5.446,5.446,0,0,1,2.214,1.671A4.916,4.916,0,0,1,15.073,17.213ZM4.281,8.181A2.151,2.151,0,0,0,4.868,9.75a4.269,4.269,0,0,0,1.7.982V5.66A2.751,2.751,0,0,0,4.9,6.451,2.4,2.4,0,0,0,4.281,8.181ZM8.445,20a2.984,2.984,0,0,0,1.745-.909,2.46,2.46,0,0,0,.63-1.7,2.047,2.047,0,0,0-.616-1.554,4.66,4.66,0,0,0-1.759-.968Z" transform="translate(-6607 3447.966) rotate(-13)" fill="#373464"/>
      <path id="Path_12911" data-name="Path 12911" d="M8.365,9.553a3.1,3.1,0,0,1-.431,1.587A3.357,3.357,0,0,1,6.664,12.36a4.585,4.585,0,0,1-1.977.561v1.318H3.645V12.9a4.591,4.591,0,0,1-2.62-.985A2.909,2.909,0,0,1,0,9.65H2.441a1.432,1.432,0,0,0,1.2,1.416V7.958a14.305,14.305,0,0,1-1.888-.586A3.052,3.052,0,0,1,.521,6.428,2.763,2.763,0,0,1,0,4.654,2.936,2.936,0,0,1,1.017,2.343,4.392,4.392,0,0,1,3.645,1.318V0H4.687V1.318a4.233,4.233,0,0,1,2.5.944,3.174,3.174,0,0,1,1.05,2.246H5.777A1.5,1.5,0,0,0,4.687,3.19V6.265a15.733,15.733,0,0,1,1.928.594,3.022,3.022,0,0,1,1.229.928A2.728,2.728,0,0,1,8.365,9.553ZM2.376,4.54a1.194,1.194,0,0,0,.325.871,2.369,2.369,0,0,0,.944.545V3.141a1.527,1.527,0,0,0-.928.439A1.333,1.333,0,0,0,2.376,4.54ZM4.687,11.1a1.656,1.656,0,0,0,.968-.5A1.365,1.365,0,0,0,6,9.65a1.136,1.136,0,0,0-.342-.862,2.586,2.586,0,0,0-.976-.537Z" transform="matrix(0.995, 0.105, -0.105, 0.995, -6575.28, 3465.449)" fill="#373464"/>
      <path id="Path_42771" data-name="Path 42771" d="M0,0H210.621" transform="translate(-6549.685 3392.881)" fill="none" stroke="#d5d5d5" stroke-width="1"/>
      <path id="Path_42772" data-name="Path 42772" d="M0,0H210.621" transform="translate(-6549.375 3433.266)" fill="none" stroke="#d5d5d5" stroke-width="1"/>
      <path id="_name" data-name="✏️name" d="M3.024-10.128a3.682,3.682,0,0,1,1.692.37A2.645,2.645,0,0,1,5.838-8.7a3.192,3.192,0,0,1,.4,1.614,3.12,3.12,0,0,1-.4,1.6A2.614,2.614,0,0,1,4.716-4.443a3.756,3.756,0,0,1-1.692.361H1.05v-6.045Zm0,5.236a2.182,2.182,0,0,0,1.627-.574,2.207,2.207,0,0,0,.565-1.618,2.282,2.282,0,0,0-.565-1.644,2.145,2.145,0,0,0-1.627-.591H2.042v4.427ZM8.209-8.179a1.557,1.557,0,0,1,.578-.57,1.711,1.711,0,0,1,.857-.2v1.026H9.392a1.208,1.208,0,0,0-.883.3,1.414,1.414,0,0,0-.3,1.026v2.522H7.217V-8.875h.992ZM11.062-9.51a.614.614,0,0,1-.452-.183.614.614,0,0,1-.183-.452.614.614,0,0,1,.183-.452.614.614,0,0,1,.452-.183.6.6,0,0,1,.444.183.614.614,0,0,1,.183.452.614.614,0,0,1-.183.452A.6.6,0,0,1,11.062-9.51Zm.487.635v4.793h-.992V-8.875Zm3.723-.078a2.149,2.149,0,0,1,1.013.235,1.67,1.67,0,0,1,.7.7,2.289,2.289,0,0,1,.252,1.113v2.827h-.983V-6.761a1.391,1.391,0,0,0-.322-.987,1.145,1.145,0,0,0-.879-.344,1.16,1.16,0,0,0-.883.344,1.379,1.379,0,0,0-.326.987v2.679h-.992V-8.875h.992v.548a1.641,1.641,0,0,1,.622-.461A1.988,1.988,0,0,1,15.272-8.953Zm5.123,2.479L22.6-4.082h-1.34L19.49-6.144v2.061H18.5v-6.437h.992v3.74l1.74-2.1H22.6ZM25.057-4a2.415,2.415,0,0,1-1.013-.2,1.78,1.78,0,0,1-.709-.557,1.388,1.388,0,0,1-.278-.787h1.026a.7.7,0,0,0,.291.509,1.058,1.058,0,0,0,.665.2A1.121,1.121,0,0,0,25.688-5a.486.486,0,0,0,.231-.413.424.424,0,0,0-.257-.4,4.81,4.81,0,0,0-.813-.287,7.85,7.85,0,0,1-.879-.287,1.54,1.54,0,0,1-.587-.426,1.117,1.117,0,0,1-.248-.757,1.18,1.18,0,0,1,.226-.7,1.506,1.506,0,0,1,.648-.5,2.421,2.421,0,0,1,.97-.183A2,2,0,0,1,26.3-8.54a1.484,1.484,0,0,1,.535,1.126H25.84a.706.706,0,0,0-.261-.513.976.976,0,0,0-.635-.191,1.031,1.031,0,0,0-.6.148.458.458,0,0,0-.209.391.424.424,0,0,0,.139.322.991.991,0,0,0,.339.2q.2.074.591.187a6.434,6.434,0,0,1,.857.283,1.6,1.6,0,0,1,.578.422,1.116,1.116,0,0,1,.252.739,1.24,1.24,0,0,1-.226.731,1.5,1.5,0,0,1-.639.5A2.382,2.382,0,0,1,25.057-4ZM32.3-4a2.454,2.454,0,0,1-1.226-.309,2.218,2.218,0,0,1-.861-.87,2.624,2.624,0,0,1-.313-1.3,2.573,2.573,0,0,1,.322-1.3,2.223,2.223,0,0,1,.879-.87,2.549,2.549,0,0,1,1.244-.3,2.549,2.549,0,0,1,1.244.3,2.223,2.223,0,0,1,.879.87,2.573,2.573,0,0,1,.322,1.3,2.52,2.52,0,0,1-.331,1.3,2.289,2.289,0,0,1-.9.874A2.6,2.6,0,0,1,32.3-4Zm0-.861a1.476,1.476,0,0,0,.718-.183,1.392,1.392,0,0,0,.544-.548,1.762,1.762,0,0,0,.209-.887,1.8,1.8,0,0,0-.2-.883,1.351,1.351,0,0,0-.531-.544,1.451,1.451,0,0,0-.713-.183,1.427,1.427,0,0,0-.709.183,1.3,1.3,0,0,0-.518.544,1.866,1.866,0,0,0-.191.883,1.682,1.682,0,0,0,.4,1.2A1.308,1.308,0,0,0,32.3-4.865Zm5.889-4.088a2.149,2.149,0,0,1,1.013.235,1.67,1.67,0,0,1,.7.7,2.289,2.289,0,0,1,.252,1.113v2.827h-.983V-6.761a1.391,1.391,0,0,0-.322-.987,1.145,1.145,0,0,0-.879-.344,1.16,1.16,0,0,0-.883.344,1.379,1.379,0,0,0-.326.987v2.679h-.992V-8.875h.992v.548a1.641,1.641,0,0,1,.622-.461A1.988,1.988,0,0,1,38.191-8.953Zm11.29,0a2.149,2.149,0,0,1,1.013.235,1.7,1.7,0,0,1,.7.7,2.257,2.257,0,0,1,.257,1.113v2.827h-.983V-6.761a1.391,1.391,0,0,0-.322-.987,1.145,1.145,0,0,0-.879-.344,1.16,1.16,0,0,0-.883.344,1.379,1.379,0,0,0-.326.987v2.679h-.983V-6.761a1.391,1.391,0,0,0-.322-.987,1.145,1.145,0,0,0-.879-.344A1.16,1.16,0,0,0,45-7.749a1.379,1.379,0,0,0-.326.987v2.679H43.68V-8.875h.992v.548a1.649,1.649,0,0,1,.618-.461,1.958,1.958,0,0,1,.8-.165,2.13,2.13,0,0,1,1.026.244,1.665,1.665,0,0,1,.7.7A1.607,1.607,0,0,1,48.49-8.7,2.006,2.006,0,0,1,49.482-8.953ZM57.11-6.6a3.1,3.1,0,0,1-.035.487H53.413a1.33,1.33,0,0,0,.426.922,1.345,1.345,0,0,0,.939.348,1.16,1.16,0,0,0,1.131-.67h1.07a2.159,2.159,0,0,1-.787,1.083A2.31,2.31,0,0,1,54.779-4a2.448,2.448,0,0,1-1.231-.309,2.2,2.2,0,0,1-.852-.87,2.653,2.653,0,0,1-.309-1.3,2.716,2.716,0,0,1,.3-1.3,2.11,2.11,0,0,1,.844-.865,2.511,2.511,0,0,1,1.248-.3,2.441,2.441,0,0,1,1.209.3,2.09,2.09,0,0,1,.826.831A2.5,2.5,0,0,1,57.11-6.6Zm-1.035-.313a1.128,1.128,0,0,0-.391-.879,1.4,1.4,0,0,0-.948-.331,1.274,1.274,0,0,0-.879.326,1.363,1.363,0,0,0-.435.883Zm3.253-3.218-.113,4.219h-.826l-.113-4.219Zm-.5,6.106A.614.614,0,0,1,58.38-4.2a.614.614,0,0,1-.183-.452.614.614,0,0,1,.183-.452.614.614,0,0,1,.452-.183.6.6,0,0,1,.444.183.614.614,0,0,1,.183.452.614.614,0,0,1-.183.452A.6.6,0,0,1,58.832-4.022Z" transform="translate(-6474.599 3424.922)"/>
      <path id="Android_UI" data-name="Android UI" d="M5.877-9.969v6.045H4.886V-6.568H2.042v2.644H1.05V-9.969h.992v2.592H4.886V-9.969ZM9.261-3.845a2.454,2.454,0,0,1-1.226-.309,2.218,2.218,0,0,1-.861-.87,2.624,2.624,0,0,1-.313-1.3,2.573,2.573,0,0,1,.322-1.3,2.223,2.223,0,0,1,.879-.87,2.549,2.549,0,0,1,1.244-.3,2.549,2.549,0,0,1,1.244.3,2.223,2.223,0,0,1,.879.87,2.573,2.573,0,0,1,.322,1.3,2.52,2.52,0,0,1-.331,1.3,2.289,2.289,0,0,1-.9.874A2.6,2.6,0,0,1,9.261-3.845Zm0-.861a1.476,1.476,0,0,0,.718-.183,1.392,1.392,0,0,0,.544-.548,1.762,1.762,0,0,0,.209-.887,1.8,1.8,0,0,0-.2-.883A1.351,1.351,0,0,0,10-7.751a1.451,1.451,0,0,0-.713-.183,1.427,1.427,0,0,0-.709.183,1.3,1.3,0,0,0-.518.544,1.866,1.866,0,0,0-.191.883,1.682,1.682,0,0,0,.4,1.2A1.308,1.308,0,0,0,9.261-4.706Zm9.907-4.01L17.681-3.923H16.637l-.965-3.54-.965,3.54H13.662l-1.5-4.793h1.009l1,3.853,1.018-3.853h1.035L17.2-4.88l.992-3.836Zm8.8-.078a2.149,2.149,0,0,1,1.013.235,1.7,1.7,0,0,1,.7.7,2.257,2.257,0,0,1,.257,1.113v2.827h-.983V-6.6a1.391,1.391,0,0,0-.322-.987,1.145,1.145,0,0,0-.879-.344,1.16,1.16,0,0,0-.883.344,1.379,1.379,0,0,0-.326.987v2.679H25.57V-6.6a1.391,1.391,0,0,0-.322-.987,1.145,1.145,0,0,0-.879-.344,1.16,1.16,0,0,0-.883.344,1.379,1.379,0,0,0-.326.987v2.679h-.992V-8.716h.992v.548a1.649,1.649,0,0,1,.618-.461,1.958,1.958,0,0,1,.8-.165,2.13,2.13,0,0,1,1.026.244,1.665,1.665,0,0,1,.7.7,1.607,1.607,0,0,1,.678-.692A2.006,2.006,0,0,1,27.971-8.794Zm7.576.078v4.793h-.992v-.565a1.605,1.605,0,0,1-.613.465,1.944,1.944,0,0,1-.8.17,2.149,2.149,0,0,1-1.013-.235,1.7,1.7,0,0,1-.7-.7A2.257,2.257,0,0,1,31.163-5.9V-8.716h.983v2.67a1.391,1.391,0,0,0,.322.987,1.145,1.145,0,0,0,.879.344,1.16,1.16,0,0,0,.883-.344,1.379,1.379,0,0,0,.326-.987v-2.67Zm.974,2.392a2.716,2.716,0,0,1,.3-1.3,2.135,2.135,0,0,1,.831-.865,2.4,2.4,0,0,1,1.218-.3,2.389,2.389,0,0,1,1.44.413,2.034,2.034,0,0,1,.77,1.179h-1.07a1.131,1.131,0,0,0-.418-.557,1.233,1.233,0,0,0-.722-.2,1.2,1.2,0,0,0-.97.431,1.822,1.822,0,0,0-.361,1.2A1.84,1.84,0,0,0,37.9-5.115a1.2,1.2,0,0,0,.97.435,1.1,1.1,0,0,0,1.139-.757h1.07A2.142,2.142,0,0,1,40.3-4.276a2.31,2.31,0,0,1-1.427.431,2.376,2.376,0,0,1-1.218-.309,2.164,2.164,0,0,1-.831-.87A2.716,2.716,0,0,1,36.521-6.324Zm8.028-2.47a2.01,2.01,0,0,1,.979.235,1.672,1.672,0,0,1,.678.7,2.322,2.322,0,0,1,.248,1.113v2.827h-.983V-6.6a1.391,1.391,0,0,0-.322-.987,1.145,1.145,0,0,0-.879-.344,1.16,1.16,0,0,0-.883.344,1.379,1.379,0,0,0-.326.987v2.679h-.992V-10.36h.992v2.2a1.663,1.663,0,0,1,.639-.47A2.137,2.137,0,0,1,44.55-8.794Zm5.1,2.453a2.652,2.652,0,0,1,.3-1.279,2.2,2.2,0,0,1,.818-.865,2.207,2.207,0,0,1,1.153-.309,2.248,2.248,0,0,1,.926.2,1.9,1.9,0,0,1,.726.544V-10.36h1v6.437h-1v-.722a1.857,1.857,0,0,1-.674.574,2.092,2.092,0,0,1-.987.226,2.145,2.145,0,0,1-1.144-.317,2.241,2.241,0,0,1-.818-.887A2.729,2.729,0,0,1,49.647-6.341Zm3.923.017a1.735,1.735,0,0,0-.2-.861,1.435,1.435,0,0,0-.535-.557,1.4,1.4,0,0,0-.713-.191,1.425,1.425,0,0,0-.713.187,1.41,1.41,0,0,0-.535.548,1.711,1.711,0,0,0-.2.857,1.785,1.785,0,0,0,.2.87,1.442,1.442,0,0,0,.539.57,1.383,1.383,0,0,0,.709.2A1.4,1.4,0,0,0,52.83-4.9a1.428,1.428,0,0,0,.535-.561A1.76,1.76,0,0,0,53.57-6.324Zm4.384,2.479a2.454,2.454,0,0,1-1.226-.309,2.218,2.218,0,0,1-.861-.87,2.624,2.624,0,0,1-.313-1.3,2.573,2.573,0,0,1,.322-1.3,2.223,2.223,0,0,1,.879-.87A2.549,2.549,0,0,1,58-8.794a2.549,2.549,0,0,1,1.244.3,2.223,2.223,0,0,1,.879.87,2.573,2.573,0,0,1,.322,1.3,2.52,2.52,0,0,1-.331,1.3,2.289,2.289,0,0,1-.9.874A2.6,2.6,0,0,1,57.954-3.845Zm0-.861a1.476,1.476,0,0,0,.718-.183,1.392,1.392,0,0,0,.544-.548,1.762,1.762,0,0,0,.209-.887,1.8,1.8,0,0,0-.2-.883,1.351,1.351,0,0,0-.531-.544,1.451,1.451,0,0,0-.713-.183,1.427,1.427,0,0,0-.709.183,1.3,1.3,0,0,0-.518.544,1.866,1.866,0,0,0-.191.883,1.682,1.682,0,0,0,.4,1.2A1.308,1.308,0,0,0,57.954-4.706ZM68-8.716,65.06-1.671H64.034L65.008-4,63.12-8.716h1.1l1.348,3.653,1.4-3.653Zm2.827,4.871A2.454,2.454,0,0,1,69.6-4.154a2.218,2.218,0,0,1-.861-.87,2.624,2.624,0,0,1-.313-1.3,2.573,2.573,0,0,1,.322-1.3,2.223,2.223,0,0,1,.879-.87,2.549,2.549,0,0,1,1.244-.3,2.549,2.549,0,0,1,1.244.3,2.223,2.223,0,0,1,.879.87,2.573,2.573,0,0,1,.322,1.3,2.52,2.52,0,0,1-.331,1.3,2.289,2.289,0,0,1-.9.874A2.6,2.6,0,0,1,70.827-3.845Zm0-.861a1.476,1.476,0,0,0,.718-.183,1.392,1.392,0,0,0,.544-.548,1.762,1.762,0,0,0,.209-.887,1.8,1.8,0,0,0-.2-.883,1.351,1.351,0,0,0-.531-.544,1.451,1.451,0,0,0-.713-.183,1.427,1.427,0,0,0-.709.183,1.3,1.3,0,0,0-.518.544,1.866,1.866,0,0,0-.191.883,1.682,1.682,0,0,0,.4,1.2A1.308,1.308,0,0,0,70.827-4.706Zm7.811-4.01v4.793h-.992v-.565a1.605,1.605,0,0,1-.613.465,1.945,1.945,0,0,1-.8.17,2.149,2.149,0,0,1-1.013-.235,1.7,1.7,0,0,1-.7-.7A2.257,2.257,0,0,1,74.254-5.9V-8.716h.983v2.67a1.391,1.391,0,0,0,.322.987,1.145,1.145,0,0,0,.879.344,1.16,1.16,0,0,0,.883-.344,1.379,1.379,0,0,0,.326-.987v-2.67Zm10,0L87.153-3.923H86.11l-.965-3.54-.965,3.54H83.135l-1.5-4.793h1.009l1,3.853,1.018-3.853H85.7l.974,3.836.992-3.836Zm.409,2.375a2.652,2.652,0,0,1,.3-1.279,2.2,2.2,0,0,1,.818-.865,2.19,2.19,0,0,1,1.144-.309,2.092,2.092,0,0,1,.987.222,2,2,0,0,1,.674.552v-.7h1v4.793h-1v-.713a1.969,1.969,0,0,1-.687.565,2.118,2.118,0,0,1-.992.226,2.107,2.107,0,0,1-1.131-.317,2.251,2.251,0,0,1-.813-.887A2.729,2.729,0,0,1,89.05-6.341Zm3.923.017a1.735,1.735,0,0,0-.2-.861,1.435,1.435,0,0,0-.535-.557,1.4,1.4,0,0,0-.713-.191,1.425,1.425,0,0,0-.713.187,1.41,1.41,0,0,0-.535.548,1.711,1.711,0,0,0-.2.857,1.785,1.785,0,0,0,.2.87,1.442,1.442,0,0,0,.539.57,1.383,1.383,0,0,0,.709.2,1.4,1.4,0,0,0,.713-.191,1.428,1.428,0,0,0,.535-.561A1.76,1.76,0,0,0,92.973-6.324ZM97.7-8.794a2.149,2.149,0,0,1,1.013.235,1.67,1.67,0,0,1,.7.7,2.289,2.289,0,0,1,.252,1.113v2.827h-.983V-6.6a1.391,1.391,0,0,0-.322-.987,1.145,1.145,0,0,0-.879-.344,1.16,1.16,0,0,0-.883.344,1.379,1.379,0,0,0-.326.987v2.679h-.992V-8.716h.992v.548a1.641,1.641,0,0,1,.622-.461A1.988,1.988,0,0,1,97.7-8.794Zm4.384.887v2.653a.509.509,0,0,0,.126.387.627.627,0,0,0,.431.117h.609v.826h-.783a1.509,1.509,0,0,1-1.026-.313,1.291,1.291,0,0,1-.357-1.018V-7.907h-.565v-.809h.565V-9.908h1v1.192h1.166v.809Zm5.5,0v2.653a.509.509,0,0,0,.126.387.627.627,0,0,0,.431.117h.609v.826h-.783a1.509,1.509,0,0,1-1.026-.313,1.291,1.291,0,0,1-.357-1.018V-7.907h-.565v-.809h.565V-9.908h1v1.192h1.166v.809Zm4.158,4.062a2.454,2.454,0,0,1-1.226-.309,2.218,2.218,0,0,1-.861-.87,2.624,2.624,0,0,1-.313-1.3,2.573,2.573,0,0,1,.322-1.3,2.223,2.223,0,0,1,.879-.87,2.549,2.549,0,0,1,1.244-.3,2.549,2.549,0,0,1,1.244.3,2.223,2.223,0,0,1,.879.87,2.574,2.574,0,0,1,.322,1.3,2.52,2.52,0,0,1-.331,1.3,2.289,2.289,0,0,1-.9.874A2.6,2.6,0,0,1,111.735-3.845Zm0-.861a1.476,1.476,0,0,0,.718-.183A1.392,1.392,0,0,0,113-5.437a1.762,1.762,0,0,0,.209-.887,1.8,1.8,0,0,0-.2-.883,1.351,1.351,0,0,0-.531-.544,1.451,1.451,0,0,0-.713-.183,1.427,1.427,0,0,0-.709.183,1.3,1.3,0,0,0-.518.544,1.866,1.866,0,0,0-.191.883,1.682,1.682,0,0,0,.4,1.2A1.308,1.308,0,0,0,111.735-4.706Zm7.472.861a2.415,2.415,0,0,1-1.013-.2,1.78,1.78,0,0,1-.709-.557,1.388,1.388,0,0,1-.278-.787h1.026a.7.7,0,0,0,.291.509,1.058,1.058,0,0,0,.665.2,1.121,1.121,0,0,0,.648-.161.486.486,0,0,0,.23-.413.424.424,0,0,0-.257-.4A4.81,4.81,0,0,0,119-5.941a7.849,7.849,0,0,1-.879-.287,1.54,1.54,0,0,1-.587-.426,1.117,1.117,0,0,1-.248-.757,1.18,1.18,0,0,1,.226-.7,1.506,1.506,0,0,1,.648-.5,2.421,2.421,0,0,1,.97-.183,2,2,0,0,1,1.318.413,1.484,1.484,0,0,1,.535,1.126h-.992a.706.706,0,0,0-.261-.513.976.976,0,0,0-.635-.191,1.031,1.031,0,0,0-.6.148.458.458,0,0,0-.209.391.424.424,0,0,0,.139.322.991.991,0,0,0,.339.2q.2.074.591.187a6.435,6.435,0,0,1,.857.283,1.6,1.6,0,0,1,.578.422,1.116,1.116,0,0,1,.252.739,1.24,1.24,0,0,1-.226.731,1.5,1.5,0,0,1-.639.5A2.382,2.382,0,0,1,119.206-3.845Zm7.3-2.592a3.1,3.1,0,0,1-.035.487h-3.662a1.33,1.33,0,0,0,.426.922,1.345,1.345,0,0,0,.939.348,1.16,1.16,0,0,0,1.131-.67h1.07a2.159,2.159,0,0,1-.787,1.083,2.31,2.31,0,0,1-1.413.422,2.448,2.448,0,0,1-1.231-.309,2.2,2.2,0,0,1-.852-.87,2.654,2.654,0,0,1-.309-1.3,2.716,2.716,0,0,1,.3-1.3,2.11,2.11,0,0,1,.844-.865,2.511,2.511,0,0,1,1.248-.3,2.441,2.441,0,0,1,1.209.3,2.09,2.09,0,0,1,.826.831A2.5,2.5,0,0,1,126.5-6.437Zm-1.035-.313a1.128,1.128,0,0,0-.391-.879,1.4,1.4,0,0,0-.948-.331,1.274,1.274,0,0,0-.879.326,1.363,1.363,0,0,0-.435.883ZM129.9-8.794a2.149,2.149,0,0,1,1.013.235,1.67,1.67,0,0,1,.7.7,2.289,2.289,0,0,1,.252,1.113v2.827h-.983V-6.6a1.391,1.391,0,0,0-.322-.987,1.145,1.145,0,0,0-.879-.344,1.159,1.159,0,0,0-.883.344,1.379,1.379,0,0,0-.326.987v2.679h-.992V-8.716h.992v.548a1.641,1.641,0,0,1,.622-.461A1.988,1.988,0,0,1,129.9-8.794Zm2.9,2.453a2.652,2.652,0,0,1,.3-1.279,2.2,2.2,0,0,1,.818-.865,2.206,2.206,0,0,1,1.153-.309,2.248,2.248,0,0,1,.926.2,1.9,1.9,0,0,1,.726.544V-10.36h1v6.437h-1v-.722a1.856,1.856,0,0,1-.674.574,2.091,2.091,0,0,1-.987.226,2.145,2.145,0,0,1-1.144-.317,2.241,2.241,0,0,1-.818-.887A2.729,2.729,0,0,1,132.793-6.341Zm3.923.017a1.735,1.735,0,0,0-.2-.861,1.435,1.435,0,0,0-.535-.557,1.4,1.4,0,0,0-.713-.191,1.425,1.425,0,0,0-.713.187,1.41,1.41,0,0,0-.535.548,1.711,1.711,0,0,0-.2.857,1.785,1.785,0,0,0,.2.87,1.442,1.442,0,0,0,.539.57,1.383,1.383,0,0,0,.709.2,1.4,1.4,0,0,0,.713-.191,1.428,1.428,0,0,0,.535-.561A1.76,1.76,0,0,0,136.716-6.324Zm3.932-3.732a2.031,2.031,0,0,1,1.422.487,1.71,1.71,0,0,1,.535,1.331,1.589,1.589,0,0,1-.557,1.322,2.3,2.3,0,0,1-1.479.444l-.035.687h-.861L139.63-7.15h.287a2.939,2.939,0,0,0,1.292-.226.873.873,0,0,0,.448-.861.967.967,0,0,0-.265-.722,1,1,0,0,0-.735-.261,1.039,1.039,0,0,0-.739.252.918.918,0,0,0-.27.7h-.931a1.835,1.835,0,0,1,.235-.931,1.6,1.6,0,0,1,.674-.635A2.2,2.2,0,0,1,140.647-10.056Zm-.557,6.193a.614.614,0,0,1-.452-.183.614.614,0,0,1-.183-.452.614.614,0,0,1,.183-.452.614.614,0,0,1,.452-.183.6.6,0,0,1,.444.183.614.614,0,0,1,.183.452.614.614,0,0,1-.183.452A.6.6,0,0,1,140.091-3.862Z" transform="translate(-6515.911 3353.935)"/>
      <path id="Path_42773" data-name="Path 42773" d="M-48.773-12.315q3-2.408,4.7-3.955A19.063,19.063,0,0,0-41.206-19.5a5.826,5.826,0,0,0,1.169-3.317,3.646,3.646,0,0,0-.744-2.42,2.963,2.963,0,0,0-2.4-.885,3.147,3.147,0,0,0-2.491,1,4.184,4.184,0,0,0-.956,2.68H-48.7A5.671,5.671,0,0,1-47.1-26.528a5.415,5.415,0,0,1,3.9-1.44,5.4,5.4,0,0,1,3.86,1.346,4.846,4.846,0,0,1,1.428,3.707A7.061,7.061,0,0,1-39.081-19.1a16.716,16.716,0,0,1-2.656,3.258q-1.487,1.4-3.8,3.27h8.122v1.794H-48.773ZM-34.938-19.3a12.693,12.693,0,0,1,1.322-6.339q1.322-2.278,4.627-2.278,3.282,0,4.6,2.278A12.692,12.692,0,0,1-23.062-19.3a12.936,12.936,0,0,1-1.322,6.422q-1.322,2.29-4.6,2.29-3.305,0-4.627-2.29A12.936,12.936,0,0,1-34.938-19.3Zm9.751,0a19,19,0,0,0-.272-3.482,4.429,4.429,0,0,0-1.11-2.3,3.2,3.2,0,0,0-2.42-.874,3.231,3.231,0,0,0-2.444.874,4.429,4.429,0,0,0-1.11,2.3,19,19,0,0,0-.272,3.482,19.676,19.676,0,0,0,.272,3.565,4.439,4.439,0,0,0,1.11,2.314,3.231,3.231,0,0,0,2.444.874,3.2,3.2,0,0,0,2.42-.874,4.439,4.439,0,0,0,1.11-2.314A19.677,19.677,0,0,0-25.187-19.3Zm6.115,8.854a1.413,1.413,0,0,1-1.039-.425,1.413,1.413,0,0,1-.425-1.039,1.413,1.413,0,0,1,.425-1.039,1.413,1.413,0,0,1,1.039-.425,1.347,1.347,0,0,1,1,.425,1.434,1.434,0,0,1,.413,1.039,1.434,1.434,0,0,1-.413,1.039A1.347,1.347,0,0,1-19.072-10.45Zm3.919-8.854a12.692,12.692,0,0,1,1.322-6.339q1.322-2.278,4.627-2.278,3.282,0,4.6,2.278A12.692,12.692,0,0,1-3.278-19.3,12.936,12.936,0,0,1-4.6-12.882q-1.322,2.29-4.6,2.29-3.305,0-4.627-2.29A12.936,12.936,0,0,1-15.153-19.3Zm9.751,0a19,19,0,0,0-.272-3.482,4.429,4.429,0,0,0-1.11-2.3,3.2,3.2,0,0,0-2.42-.874,3.231,3.231,0,0,0-2.444.874,4.429,4.429,0,0,0-1.11,2.3,19,19,0,0,0-.272,3.482,19.677,19.677,0,0,0,.272,3.565,4.439,4.439,0,0,0,1.11,2.314,3.231,3.231,0,0,0,2.444.874,3.2,3.2,0,0,0,2.42-.874,4.439,4.439,0,0,0,1.11-2.314A19.677,19.677,0,0,0-5.4-19.3Zm5.076,0A12.692,12.692,0,0,1,1-25.642q1.322-2.278,4.627-2.278,3.282,0,4.6,2.278A12.692,12.692,0,0,1,11.549-19.3a12.936,12.936,0,0,1-1.322,6.422q-1.322,2.29-4.6,2.29-3.305,0-4.627-2.29A12.936,12.936,0,0,1-.327-19.3Zm9.751,0a19,19,0,0,0-.272-3.482,4.429,4.429,0,0,0-1.11-2.3,3.2,3.2,0,0,0-2.42-.874,3.231,3.231,0,0,0-2.444.874,4.429,4.429,0,0,0-1.11,2.3A19,19,0,0,0,1.8-19.3a19.677,19.677,0,0,0,.272,3.565,4.439,4.439,0,0,0,1.11,2.314,3.231,3.231,0,0,0,2.444.874,3.2,3.2,0,0,0,2.42-.874,4.439,4.439,0,0,0,1.11-2.314A19.677,19.677,0,0,0,9.424-19.3Z" transform="translate(-6421.245 3393.532)"/>
      <path id="Path_42774" data-name="Path 42774" d="M5.6,10.327a1.856,1.856,0,0,1-.239.91,1.968,1.968,0,0,1-.7.721,2.331,2.331,0,0,1-1.108.328v.805H3.018v-.805A2.479,2.479,0,0,1,1.547,11.7,1.662,1.662,0,0,1,.97,10.426h.964a1.21,1.21,0,0,0,1.084,1.113V9.054a7.073,7.073,0,0,1-1.074-.348,1.756,1.756,0,0,1-.7-.557A1.63,1.63,0,0,1,.96,7.136,1.748,1.748,0,0,1,1.522,5.8a2.326,2.326,0,0,1,1.5-.587V4.392h.537v.825a2.225,2.225,0,0,1,1.362.542,1.865,1.865,0,0,1,.6,1.228H4.549a1.169,1.169,0,0,0-.308-.631,1.244,1.244,0,0,0-.686-.373V8.408a7.883,7.883,0,0,1,1.069.343A1.573,1.573,0,0,1,5.6,10.327ZM1.884,7.086a.949.949,0,0,0,.288.746,2.232,2.232,0,0,0,.845.427v-2.3a1.375,1.375,0,0,0-.825.333A1.02,1.02,0,0,0,1.884,7.086Zm1.67,4.463a1.292,1.292,0,0,0,.84-.388,1.117,1.117,0,0,0,.3-.785.949.949,0,0,0-.3-.751A2.189,2.189,0,0,0,3.555,9.2Z" transform="translate(-6498.48 3358.289)"/>
      <path id="Base-2" data-name="Base" d="M7.456,0H203.165a7.456,7.456,0,0,1,7.456,7.456V23.609a7.456,7.456,0,0,1-7.456,7.456H7.456A7.456,7.456,0,0,1,0,23.609V7.456A7.456,7.456,0,0,1,7.456,0Z" transform="translate(-6549.685 3290.988)" fill="#f2f2f2"/>
      <g transform="matrix(1, 0, 0, 1, -6628, 3222)" filter="url(#Base)">
        <path id="Base-3" data-name="Base" d="M7.456,0h87.6a7.456,7.456,0,0,1,7.456,7.456v8.7a7.456,7.456,0,0,1-7.456,7.456H7.456A7.456,7.456,0,0,1,0,16.154v-8.7A7.456,7.456,0,0,1,7.456,0Z" transform="translate(82.04 72.72)" fill="#fff"/>
      </g>
      <path id="USD" d="M-11.29-8.421V-5.2a1.1,1.1,0,0,0,.276.809,1.04,1.04,0,0,0,.775.28,1.051,1.051,0,0,0,.783-.28A1.1,1.1,0,0,0-9.18-5.2V-8.421h1.051v3.213a2.074,2.074,0,0,1-.287,1.122,1.821,1.821,0,0,1-.768.69,2.438,2.438,0,0,1-1.07.231A2.373,2.373,0,0,1-11.309-3.4a1.76,1.76,0,0,1-.749-.69,2.14,2.14,0,0,1-.276-1.122V-8.421ZM-4.7-3.165a2.472,2.472,0,0,1-.98-.186,1.61,1.61,0,0,1-.69-.537,1.413,1.413,0,0,1-.261-.828h1.118a.723.723,0,0,0,.227.507.806.806,0,0,0,.563.186A.866.866,0,0,0-4.153-4.2a.57.57,0,0,0,.209-.459.53.53,0,0,0-.142-.38.993.993,0,0,0-.354-.235,5.86,5.86,0,0,0-.585-.19,6.268,6.268,0,0,1-.824-.294,1.443,1.443,0,0,1-.544-.44,1.254,1.254,0,0,1-.227-.787,1.406,1.406,0,0,1,.231-.805,1.47,1.47,0,0,1,.649-.526A2.36,2.36,0,0,1-4.786-8.5,2.07,2.07,0,0,1-3.478-8.1a1.451,1.451,0,0,1,.555,1.092H-4.071A.6.6,0,0,0-4.3-7.456a.857.857,0,0,0-.563-.175.725.725,0,0,0-.488.157.566.566,0,0,0-.183.455.47.47,0,0,0,.138.347,1.052,1.052,0,0,0,.343.224q.205.086.578.2a6.07,6.07,0,0,1,.828.3,1.486,1.486,0,0,1,.552.447,1.243,1.243,0,0,1,.231.783,1.473,1.473,0,0,1-.216.775,1.526,1.526,0,0,1-.634.57A2.162,2.162,0,0,1-4.7-3.165ZM.48-8.421A3.108,3.108,0,0,1,1.922-8.1a2.29,2.29,0,0,1,.962.913,2.721,2.721,0,0,1,.339,1.376,2.68,2.68,0,0,1-.339,1.368,2.3,2.3,0,0,1-.962.906A3.108,3.108,0,0,1,.48-3.217H-1.339v-5.2ZM.442-4.1A1.714,1.714,0,0,0,1.71-4.552a1.7,1.7,0,0,0,.447-1.26A1.743,1.743,0,0,0,1.71-7.083,1.69,1.69,0,0,0,.442-7.542H-.3V-4.1Z" transform="translate(-6490.029 3312.534)" fill="#373464"/>
      <path id="EURO" d="M-9.388-4h1.715v.828h-2.759v-5.2h1.044Zm5.952-1.842a1.17,1.17,0,0,1,.723.44,1.285,1.285,0,0,1,.283.82,1.322,1.322,0,0,1-.205.734,1.365,1.365,0,0,1-.593.5,2.172,2.172,0,0,1-.917.179H-6.389v-5.2h2.147a2.227,2.227,0,0,1,.913.171,1.3,1.3,0,0,1,.582.477,1.249,1.249,0,0,1,.2.693,1.186,1.186,0,0,1-.242.76A1.3,1.3,0,0,1-3.436-5.841Zm-1.909-.388h.954A.874.874,0,0,0-3.816-6.4a.591.591,0,0,0,.2-.481.6.6,0,0,0-.2-.485.861.861,0,0,0-.574-.171h-.954Zm1.051,2.207A.893.893,0,0,0-3.7-4.2a.626.626,0,0,0,.212-.507.653.653,0,0,0-.224-.526.9.9,0,0,0-.6-.19H-5.345v1.4ZM2.822-6.766a1.621,1.621,0,0,1-.2.783,1.451,1.451,0,0,1-.619.589A2.251,2.251,0,0,1,.943-5.17H.07v2H-.973v-5.2H.943a2.315,2.315,0,0,1,1.029.209,1.454,1.454,0,0,1,.637.574A1.615,1.615,0,0,1,2.822-6.766ZM.9-6.013a.9.9,0,0,0,.641-.2.728.728,0,0,0,.209-.555q0-.76-.85-.76H.07v1.513Z" transform="translate(-6387.924 3312.489)" fill="#9c9da2"/>
      <g id="Group_6443" data-name="Group 6443" transform="translate(-6349.626 3342.13) rotate(-14)" clip-path="url(#clip-path)">
        <path id="Path_11368" data-name="Path 11368" d="M0,0H52.539V20.4H0Z" transform="translate(0)" fill="#287094"/>
      </g>
      <g id="Group_6445" data-name="Group 6445" transform="translate(-6328.454 3336.85) rotate(-14)" clip-path="url(#clip-path-2)">
        <rect id="Rectangle_20173" data-name="Rectangle 20173" width="30.718" height="35.749" transform="translate(0 0)" fill="#287094"/>
      </g>
      <path id="Path_11366" data-name="Path 11366" d="M0,20.4,2.182,35.749,6.21,23.671,36.928,0Z" transform="translate(-6334.48 3338.353) rotate(-14)" fill="#48a6d9"/>
      <path id="Path_11367" data-name="Path 11367" d="M0,12.078,11.409,4.7,4.029,0Z" transform="translate(-6326.637 3360.793) rotate(-14)" fill="#287094"/>
      <path id="Path_12917" data-name="Path 12917" d="M8.677,9.02A9.917,9.917,0,0,1,2.712,7.034,10.032,10.032,0,0,1,.094,4.163a.5.5,0,0,1-.044-.507,6.247,6.247,0,0,1,4.3-3.54c.154-.039.312-.06.467-.093a1.02,1.02,0,0,1,.839.209,5.267,5.267,0,0,0,3.323.964,4.631,4.631,0,0,0,2.6-.818A1.811,1.811,0,0,1,13.286.149a6.406,6.406,0,0,1,3.9,3c.386.647.4.657-.014,1.28a10.111,10.111,0,0,1-4,3.553A10.121,10.121,0,0,1,8.677,9.02" transform="matrix(0.985, -0.174, 0.174, 0.985, -6601.48, 3320.621)" fill="#005c8a"/>
      <path id="Path_12918" data-name="Path 12918" d="M5.067,10.146A5.1,5.1,0,0,1,0,5.062a5.073,5.073,0,0,1,10.145.011,5.1,5.1,0,0,1-5.078,5.073" transform="matrix(0.985, -0.174, 0.174, 0.985, -6599.694, 3309.63)" fill="#005c8a"/>
      <path id="Path_12919" data-name="Path 12919" d="M8.677,9.02A9.917,9.917,0,0,1,2.712,7.034,10.032,10.032,0,0,1,.094,4.163a.5.5,0,0,1-.044-.507,6.247,6.247,0,0,1,4.3-3.54c.154-.039.312-.06.467-.093a1.02,1.02,0,0,1,.839.209,5.267,5.267,0,0,0,3.323.964,4.631,4.631,0,0,0,2.6-.818A1.811,1.811,0,0,1,13.286.149a6.406,6.406,0,0,1,3.9,3c.386.647.4.657-.014,1.28a10.111,10.111,0,0,1-4,3.553A10.121,10.121,0,0,1,8.677,9.02" transform="matrix(0.985, -0.174, 0.174, 0.985, -6582.477, 3302.015)" fill="#373464"/>
      <path id="Path_12920" data-name="Path 12920" d="M5.067,10.146A5.1,5.1,0,0,1,0,5.062a5.073,5.073,0,0,1,10.145.011,5.1,5.1,0,0,1-5.078,5.073" transform="matrix(0.985, -0.174, 0.174, 0.985, -6580.691, 3291.025)" fill="#373464"/>
      <path id="Path_12921" data-name="Path 12921" d="M1.686,5.561,5.561,1.686a.988.988,0,1,0-1.4-1.4L.288,4.163a.988.988,0,0,0,1.4,1.4" transform="matrix(0.985, -0.174, 0.174, 0.985, -6593.935, 3296.483)" fill="#005c8a"/>
      <path id="Path_12922" data-name="Path 12922" d="M9.062,0H1A1,1,0,0,0,1,2H9.062a1,1,0,0,0,0-2" transform="matrix(0.985, -0.174, 0.174, 0.985, -6598.746, 3297.309)" fill="#005c8a"/>
      <path id="Path_12923" data-name="Path 12923" d="M2,6.909V1A1,1,0,0,0,0,1v5.91a1,1,0,0,0,2,0" transform="matrix(0.985, -0.174, 0.174, 0.985, -6598.749, 3297.293)" fill="#005c8a"/>
      <path id="Path_12924" data-name="Path 12924" d="M4.163,5.561.288,1.686a.988.988,0,0,1,1.4-1.4L5.561,4.163a.988.988,0,0,1-1.4,1.4" transform="matrix(0.985, -0.174, 0.174, 0.985, -6594.607, 3292.666)" fill="#005c8a"/>
      <path id="Path_12925" data-name="Path 12925" d="M4.163.288.288,4.163a.988.988,0,0,0,1.4,1.4L5.561,1.686a.988.988,0,0,0-1.4-1.4" transform="matrix(0.985, -0.174, 0.174, 0.985, -6581.072, 3316.972)" fill="#005c8a"/>
      <path id="Path_12926" data-name="Path 12926" d="M1,2H9.062a1,1,0,0,0,0-2H1A1,1,0,1,0,1,2" transform="matrix(0.985, -0.174, 0.174, 0.985, -6579.739, 3320.671)" fill="#005c8a"/>
      <path id="Path_12927" data-name="Path 12927" d="M0,1v5.91a1,1,0,0,0,2,0V1A1,1,0,1,0,0,1" transform="matrix(0.985, -0.174, 0.174, 0.985, -6572.822, 3313.466)" fill="#005c8a"/>
      <path id="Path_12928" data-name="Path 12928" d="M1.686.288,5.561,4.163a.988.988,0,0,1-1.4,1.4L.288,1.686a.988.988,0,0,1,1.4-1.4" transform="matrix(0.985, -0.174, 0.174, 0.985, -6580.399, 3320.789)" fill="#005c8a"/>
      <path id="Path_42768" data-name="Path 42768" d="M0,0H39.422V36.012H0Z" transform="matrix(0.985, -0.174, 0.174, 0.985, -6606.053, 3294.685)" fill="none"/>
    </g>
  </g>
</svg>
