<svg xmlns="http://www.w3.org/2000/svg" xmlns:xlink="http://www.w3.org/1999/xlink" width="784" height="664" viewBox="0 0 784 664">
  <defs>
    <filter id="Base" x="227.75" y="200.5" width="180" height="53" filterUnits="userSpaceOnUse">
      <feOffset dy="4" input="SourceAlpha"/>
      <feGaussianBlur stdDeviation="2.5" result="blur"/>
      <feFlood flood-opacity="0.059"/>
      <feComposite operator="in" in2="blur"/>
      <feComposite in="SourceGraphic"/>
    </filter>
    <clipPath id="clip-path">
      <path id="Path_11364" data-name="Path 11364" d="M84.563,0,0,19.694,25.126,32.829Z" transform="translate(0 0)" fill="none"/>
    </clipPath>
    <clipPath id="clip-path-2">
      <path id="Path_11365" data-name="Path 11365" d="M71.1,0,21.662,38.1,52.19,57.54Z" transform="translate(-21.662 0)" fill="none"/>
    </clipPath>
  </defs>
  <g id="Group_40006" data-name="Group 40006" transform="translate(-109 -3196)">
    <rect id="Rectangle_21801" data-name="Rectangle 21801" width="784" height="664" rx="20" transform="translate(893 3860) rotate(180)" fill="#f0f0f3"/>
    <rect id="Rectangle_21125" data-name="Rectangle 21125" width="433.983" height="302.356" rx="12" transform="translate(291.25 3357)" fill="#c4d9e4"/>
    <rect id="Rectangle_21124" data-name="Rectangle 21124" width="412.983" height="283.356" rx="12" transform="translate(301.252 3366)" fill="#fff"/>
    <path id="Path_12910" data-name="Path 12910" d="M24.26,27.705a8.993,8.993,0,0,1-1.251,4.6,9.735,9.735,0,0,1-3.681,3.54,13.3,13.3,0,0,1-5.735,1.628V41.3H10.572v-3.87a13.315,13.315,0,0,1-7.6-2.855A8.437,8.437,0,0,1,0,27.988H7.08a4.154,4.154,0,0,0,3.493,4.106V23.08a41.489,41.489,0,0,1-5.475-1.7A8.851,8.851,0,0,1,1.51,18.643,8.013,8.013,0,0,1,0,13.5,8.516,8.516,0,0,1,2.95,6.8a12.739,12.739,0,0,1,7.622-2.973V0h3.021V3.823A12.277,12.277,0,0,1,20.838,6.56a9.2,9.2,0,0,1,3.044,6.513H16.755a4.364,4.364,0,0,0-3.162-3.823v8.92a45.629,45.629,0,0,1,5.593,1.723,8.765,8.765,0,0,1,3.563,2.69A7.913,7.913,0,0,1,24.26,27.705ZM6.891,13.168a3.462,3.462,0,0,0,.944,2.525,6.871,6.871,0,0,0,2.737,1.581V9.109a4.428,4.428,0,0,0-2.69,1.274A3.865,3.865,0,0,0,6.891,13.168Zm6.7,19.021A4.8,4.8,0,0,0,16.4,30.726a3.959,3.959,0,0,0,1.015-2.737,3.294,3.294,0,0,0-.991-2.5,7.5,7.5,0,0,0-2.832-1.558Z" transform="translate(246 3646.66) rotate(-13)" fill="#373464"/>
    <path id="Path_12911" data-name="Path 12911" d="M13.463,15.375a4.991,4.991,0,0,1-.694,2.554,5.4,5.4,0,0,1-2.043,1.964,7.379,7.379,0,0,1-3.182.9v2.122H5.867V20.771A7.389,7.389,0,0,1,1.65,19.186,4.682,4.682,0,0,1,0,15.532H3.929a2.305,2.305,0,0,0,1.938,2.279v-5a23.024,23.024,0,0,1-3.038-.943A4.912,4.912,0,0,1,.838,10.346,4.447,4.447,0,0,1,0,7.491,4.726,4.726,0,0,1,1.637,3.772a7.07,7.07,0,0,1,4.23-1.65V0H7.544V2.122a6.813,6.813,0,0,1,4.021,1.519,5.108,5.108,0,0,1,1.689,3.615H9.3A2.422,2.422,0,0,0,7.544,5.134v4.95a25.322,25.322,0,0,1,3.1.956,4.864,4.864,0,0,1,1.978,1.493A4.391,4.391,0,0,1,13.463,15.375ZM3.824,7.308a1.921,1.921,0,0,0,.524,1.4,3.813,3.813,0,0,0,1.519.877V5.055a2.457,2.457,0,0,0-1.493.707A2.145,2.145,0,0,0,3.824,7.308ZM7.544,17.863A2.665,2.665,0,0,0,9.1,17.051a2.2,2.2,0,0,0,.563-1.519,1.828,1.828,0,0,0-.55-1.388,4.162,4.162,0,0,0-1.572-.864Z" transform="matrix(0.995, 0.105, -0.105, 0.995, 297.055, 3674.799)" fill="#373464"/>
    <line id="Line_178" data-name="Line 178" x2="339" transform="translate(338.25 3558)" fill="none" stroke="#d5d5d5" stroke-width="1"/>
    <line id="Line_204" data-name="Line 204" x2="339" transform="translate(338.75 3623)" fill="none" stroke="#d5d5d5" stroke-width="1"/>
    <path id="_name" data-name="✏️name" d="M4.228-9.73a5.926,5.926,0,0,1,2.723.6A4.257,4.257,0,0,1,8.757-7.427a5.137,5.137,0,0,1,.637,2.6,5.022,5.022,0,0,1-.637,2.576A4.207,4.207,0,0,1,6.951-.581,6.045,6.045,0,0,1,4.228,0H1.05V-9.73Zm0,8.428a3.512,3.512,0,0,0,2.618-.924,3.553,3.553,0,0,0,.91-2.6,3.673,3.673,0,0,0-.91-2.646,3.452,3.452,0,0,0-2.618-.952H2.646V-1.3Zm8.344-5.292a2.506,2.506,0,0,1,.931-.917,2.754,2.754,0,0,1,1.379-.329v1.652h-.406a1.944,1.944,0,0,0-1.421.476,2.276,2.276,0,0,0-.483,1.652V0h-1.6V-7.714h1.6Zm4.592-2.142a.989.989,0,0,1-.728-.294.989.989,0,0,1-.294-.728.989.989,0,0,1,.294-.728.989.989,0,0,1,.728-.294.972.972,0,0,1,.714.294.989.989,0,0,1,.294.728.989.989,0,0,1-.294.728A.972.972,0,0,1,17.164-8.736Zm.784,1.022V0h-1.6V-7.714ZM23.94-7.84a3.459,3.459,0,0,1,1.631.378A2.688,2.688,0,0,1,26.7-6.342,3.684,3.684,0,0,1,27.1-4.55V0H25.522V-4.312A2.239,2.239,0,0,0,25-5.9a1.844,1.844,0,0,0-1.414-.553,1.866,1.866,0,0,0-1.421.553,2.22,2.22,0,0,0-.525,1.589V0h-1.6V-7.714h1.6v.882a2.642,2.642,0,0,1,1-.742A3.2,3.2,0,0,1,23.94-7.84Zm8.246,3.99L35.742,0H33.586L30.73-3.318V0h-1.6V-10.36h1.6v6.02l2.8-3.374h2.212ZM39.69.126A3.886,3.886,0,0,1,38.059-.2a2.865,2.865,0,0,1-1.141-.9,2.233,2.233,0,0,1-.448-1.267h1.652a1.127,1.127,0,0,0,.469.819,1.7,1.7,0,0,0,1.071.329,1.8,1.8,0,0,0,1.043-.259.782.782,0,0,0,.371-.665.683.683,0,0,0-.413-.644,7.742,7.742,0,0,0-1.309-.462A12.634,12.634,0,0,1,37.94-3.71a2.479,2.479,0,0,1-.945-.686,1.8,1.8,0,0,1-.4-1.218,1.9,1.9,0,0,1,.364-1.127A2.424,2.424,0,0,1,38-7.546a3.9,3.9,0,0,1,1.561-.294,3.223,3.223,0,0,1,2.121.665,2.388,2.388,0,0,1,.861,1.813h-1.6a1.137,1.137,0,0,0-.42-.826A1.571,1.571,0,0,0,39.508-6.5a1.659,1.659,0,0,0-.966.238.737.737,0,0,0-.336.63.682.682,0,0,0,.224.518,1.6,1.6,0,0,0,.546.329q.322.119.952.3a10.356,10.356,0,0,1,1.379.455,2.567,2.567,0,0,1,.931.679,1.8,1.8,0,0,1,.406,1.19A2,2,0,0,1,42.28-.98a2.413,2.413,0,0,1-1.029.812A3.834,3.834,0,0,1,39.69.126Zm11.662,0a3.951,3.951,0,0,1-1.974-.5,3.57,3.57,0,0,1-1.386-1.4,4.223,4.223,0,0,1-.5-2.093,4.142,4.142,0,0,1,.518-2.086,3.578,3.578,0,0,1,1.414-1.4,4.1,4.1,0,0,1,2-.49,4.1,4.1,0,0,1,2,.49,3.578,3.578,0,0,1,1.414,1.4,4.142,4.142,0,0,1,.518,2.086,4.056,4.056,0,0,1-.532,2.086A3.684,3.684,0,0,1,53.375-.371,4.176,4.176,0,0,1,51.352.126Zm0-1.386a2.375,2.375,0,0,0,1.155-.294,2.24,2.24,0,0,0,.875-.882,2.836,2.836,0,0,0,.336-1.428A2.9,2.9,0,0,0,53.4-5.285a2.174,2.174,0,0,0-.854-.875,2.335,2.335,0,0,0-1.148-.294,2.3,2.3,0,0,0-1.141.294,2.1,2.1,0,0,0-.833.875,3,3,0,0,0-.308,1.421,2.707,2.707,0,0,0,.637,1.925A2.1,2.1,0,0,0,51.352-1.26ZM60.83-7.84a3.459,3.459,0,0,1,1.631.378,2.688,2.688,0,0,1,1.127,1.12,3.684,3.684,0,0,1,.406,1.792V0H62.412V-4.312A2.239,2.239,0,0,0,61.894-5.9a1.844,1.844,0,0,0-1.414-.553,1.866,1.866,0,0,0-1.421.553,2.22,2.22,0,0,0-.525,1.589V0h-1.6V-7.714h1.6v.882a2.642,2.642,0,0,1,1-.742A3.2,3.2,0,0,1,60.83-7.84ZM79-7.84a3.459,3.459,0,0,1,1.631.378,2.731,2.731,0,0,1,1.134,1.12A3.633,3.633,0,0,1,82.18-4.55V0H80.6V-4.312A2.239,2.239,0,0,0,80.08-5.9a1.844,1.844,0,0,0-1.414-.553,1.866,1.866,0,0,0-1.421.553,2.22,2.22,0,0,0-.525,1.589V0H75.138V-4.312A2.239,2.239,0,0,0,74.62-5.9a1.844,1.844,0,0,0-1.414-.553,1.866,1.866,0,0,0-1.421.553,2.22,2.22,0,0,0-.525,1.589V0h-1.6V-7.714h1.6v.882a2.654,2.654,0,0,1,.994-.742,3.151,3.151,0,0,1,1.288-.266,3.429,3.429,0,0,1,1.652.392,2.679,2.679,0,0,1,1.12,1.134,2.587,2.587,0,0,1,1.092-1.113A3.229,3.229,0,0,1,79-7.84ZM91.28-4.046a4.989,4.989,0,0,1-.056.784H85.33a2.141,2.141,0,0,0,.686,1.484,2.165,2.165,0,0,0,1.512.56A1.868,1.868,0,0,0,89.348-2.3H91.07A3.475,3.475,0,0,1,89.8-.553a3.717,3.717,0,0,1-2.275.679,3.94,3.94,0,0,1-1.981-.5,3.536,3.536,0,0,1-1.372-1.4,4.271,4.271,0,0,1-.5-2.093,4.371,4.371,0,0,1,.483-2.093A3.4,3.4,0,0,1,85.519-7.35a4.041,4.041,0,0,1,2.009-.49,3.929,3.929,0,0,1,1.946.476A3.363,3.363,0,0,1,90.8-6.027,4.027,4.027,0,0,1,91.28-4.046Zm-1.666-.5a1.816,1.816,0,0,0-.63-1.414A2.252,2.252,0,0,0,87.458-6.5a2.05,2.05,0,0,0-1.414.525,2.194,2.194,0,0,0-.7,1.421ZM94.85-9.73l-.182,6.79h-1.33l-.182-6.79ZM94.052.1A.989.989,0,0,1,93.324-.2a.989.989,0,0,1-.294-.728.989.989,0,0,1,.294-.728.989.989,0,0,1,.728-.294.972.972,0,0,1,.714.294.989.989,0,0,1,.294.728.989.989,0,0,1-.294.728A.972.972,0,0,1,94.052.1Z" transform="translate(459.744 3603)"/>
    <path id="Android_UI" data-name="Android UI" d="M8.82-9.73V0h-1.6V-4.256H2.646V0H1.05V-9.73h1.6v4.172H7.224V-9.73ZM14.266.126a3.951,3.951,0,0,1-1.974-.5,3.57,3.57,0,0,1-1.386-1.4,4.223,4.223,0,0,1-.5-2.093A4.142,4.142,0,0,1,10.92-5.95a3.578,3.578,0,0,1,1.414-1.4,4.1,4.1,0,0,1,2-.49,4.1,4.1,0,0,1,2,.49,3.578,3.578,0,0,1,1.414,1.4,4.142,4.142,0,0,1,.518,2.086,4.056,4.056,0,0,1-.532,2.086A3.684,3.684,0,0,1,16.289-.371,4.176,4.176,0,0,1,14.266.126Zm0-1.386a2.375,2.375,0,0,0,1.155-.294,2.24,2.24,0,0,0,.875-.882,2.836,2.836,0,0,0,.336-1.428,2.9,2.9,0,0,0-.322-1.421,2.174,2.174,0,0,0-.854-.875,2.335,2.335,0,0,0-1.148-.294,2.3,2.3,0,0,0-1.141.294,2.1,2.1,0,0,0-.833.875,3,3,0,0,0-.308,1.421,2.707,2.707,0,0,0,.637,1.925A2.1,2.1,0,0,0,14.266-1.26ZM30.212-7.714,27.818,0h-1.68L24.584-5.7,23.03,0H21.35L18.942-7.714h1.624l1.61,6.2,1.638-6.2H25.48L27.048-1.54l1.6-6.174ZM44.38-7.84a3.459,3.459,0,0,1,1.631.378,2.731,2.731,0,0,1,1.134,1.12,3.633,3.633,0,0,1,.413,1.792V0H45.976V-4.312A2.239,2.239,0,0,0,45.458-5.9a1.844,1.844,0,0,0-1.414-.553,1.866,1.866,0,0,0-1.421.553A2.22,2.22,0,0,0,42.1-4.312V0H40.516V-4.312A2.239,2.239,0,0,0,40-5.9a1.844,1.844,0,0,0-1.414-.553,1.866,1.866,0,0,0-1.421.553,2.22,2.22,0,0,0-.525,1.589V0h-1.6V-7.714h1.6v.882a2.654,2.654,0,0,1,.994-.742A3.151,3.151,0,0,1,38.92-7.84a3.429,3.429,0,0,1,1.652.392,2.679,2.679,0,0,1,1.12,1.134,2.587,2.587,0,0,1,1.092-1.113A3.229,3.229,0,0,1,44.38-7.84Zm12.194.126V0h-1.6V-.91a2.583,2.583,0,0,1-.987.749A3.13,3.13,0,0,1,52.7.112a3.459,3.459,0,0,1-1.631-.378,2.731,2.731,0,0,1-1.134-1.12,3.633,3.633,0,0,1-.413-1.792V-7.714H51.1v4.3a2.239,2.239,0,0,0,.518,1.589,1.844,1.844,0,0,0,1.414.553,1.866,1.866,0,0,0,1.421-.553,2.22,2.22,0,0,0,.525-1.589v-4.3Zm1.568,3.85a4.371,4.371,0,0,1,.483-2.093A3.436,3.436,0,0,1,59.962-7.35a3.868,3.868,0,0,1,1.96-.49,3.846,3.846,0,0,1,2.317.665,3.274,3.274,0,0,1,1.239,1.9H63.756a1.821,1.821,0,0,0-.672-.9A1.985,1.985,0,0,0,61.922-6.5a1.932,1.932,0,0,0-1.561.693,2.932,2.932,0,0,0-.581,1.939,2.961,2.961,0,0,0,.581,1.946,1.924,1.924,0,0,0,1.561.7,1.771,1.771,0,0,0,1.834-1.218h1.722a3.447,3.447,0,0,1-1.26,1.869,3.718,3.718,0,0,1-2.3.693,3.825,3.825,0,0,1-1.96-.5,3.483,3.483,0,0,1-1.337-1.4A4.371,4.371,0,0,1,58.142-3.864ZM71.064-7.84a3.235,3.235,0,0,1,1.575.378,2.691,2.691,0,0,1,1.092,1.12,3.737,3.737,0,0,1,.4,1.792V0H72.548V-4.312A2.239,2.239,0,0,0,72.03-5.9a1.844,1.844,0,0,0-1.414-.553,1.866,1.866,0,0,0-1.421.553,2.22,2.22,0,0,0-.525,1.589V0h-1.6V-10.36h1.6v3.542A2.676,2.676,0,0,1,69.7-7.574,3.44,3.44,0,0,1,71.064-7.84Zm8.2,3.948a4.269,4.269,0,0,1,.483-2.058,3.54,3.54,0,0,1,1.316-1.393,3.551,3.551,0,0,1,1.855-.5,3.618,3.618,0,0,1,1.491.329,3.051,3.051,0,0,1,1.169.875V-10.36h1.61V0h-1.61V-1.162A2.988,2.988,0,0,1,84.5-.238a3.367,3.367,0,0,1-1.589.364,3.452,3.452,0,0,1-1.841-.511,3.606,3.606,0,0,1-1.316-1.428A4.393,4.393,0,0,1,79.268-3.892Zm6.314.028a2.793,2.793,0,0,0-.329-1.386,2.309,2.309,0,0,0-.861-.9,2.253,2.253,0,0,0-1.148-.308,2.293,2.293,0,0,0-1.148.3,2.27,2.27,0,0,0-.861.882,2.754,2.754,0,0,0-.329,1.379,2.873,2.873,0,0,0,.329,1.4,2.321,2.321,0,0,0,.868.917,2.226,2.226,0,0,0,1.141.315,2.253,2.253,0,0,0,1.148-.308,2.3,2.3,0,0,0,.861-.9A2.833,2.833,0,0,0,85.582-3.864ZM92.638.126a3.951,3.951,0,0,1-1.974-.5,3.57,3.57,0,0,1-1.386-1.4,4.223,4.223,0,0,1-.5-2.093,4.142,4.142,0,0,1,.518-2.086,3.578,3.578,0,0,1,1.414-1.4,4.1,4.1,0,0,1,2-.49,4.1,4.1,0,0,1,2,.49,3.578,3.578,0,0,1,1.414,1.4,4.142,4.142,0,0,1,.518,2.086,4.056,4.056,0,0,1-.532,2.086A3.684,3.684,0,0,1,94.661-.371,4.176,4.176,0,0,1,92.638.126Zm0-1.386a2.375,2.375,0,0,0,1.155-.294,2.24,2.24,0,0,0,.875-.882A2.836,2.836,0,0,0,95-3.864a2.9,2.9,0,0,0-.322-1.421,2.174,2.174,0,0,0-.854-.875,2.335,2.335,0,0,0-1.148-.294,2.3,2.3,0,0,0-1.141.294,2.1,2.1,0,0,0-.833.875A3,3,0,0,0,90.4-3.864a2.707,2.707,0,0,0,.637,1.925A2.1,2.1,0,0,0,92.638-1.26Zm16.17-6.454-4.732,11.34h-1.652l1.568-3.752-3.038-7.588h1.778l2.17,5.88,2.254-5.88Zm4.55,7.84a3.951,3.951,0,0,1-1.974-.5A3.57,3.57,0,0,1,110-1.771a4.223,4.223,0,0,1-.5-2.093,4.142,4.142,0,0,1,.518-2.086,3.578,3.578,0,0,1,1.414-1.4,4.1,4.1,0,0,1,2-.49,4.1,4.1,0,0,1,2,.49,3.578,3.578,0,0,1,1.414,1.4,4.142,4.142,0,0,1,.518,2.086,4.056,4.056,0,0,1-.532,2.086,3.684,3.684,0,0,1-1.449,1.407A4.176,4.176,0,0,1,113.358.126Zm0-1.386a2.375,2.375,0,0,0,1.155-.294,2.24,2.24,0,0,0,.875-.882,2.836,2.836,0,0,0,.336-1.428,2.9,2.9,0,0,0-.322-1.421,2.174,2.174,0,0,0-.854-.875,2.335,2.335,0,0,0-1.148-.294,2.3,2.3,0,0,0-1.141.294,2.1,2.1,0,0,0-.833.875,3,3,0,0,0-.308,1.421,2.707,2.707,0,0,0,.637,1.925A2.1,2.1,0,0,0,113.358-1.26ZM125.93-7.714V0h-1.6V-.91a2.583,2.583,0,0,1-.987.749,3.13,3.13,0,0,1-1.3.273,3.459,3.459,0,0,1-1.631-.378,2.731,2.731,0,0,1-1.134-1.12,3.633,3.633,0,0,1-.413-1.792V-7.714h1.582v4.3a2.239,2.239,0,0,0,.518,1.589,1.844,1.844,0,0,0,1.414.553,1.866,1.866,0,0,0,1.421-.553,2.22,2.22,0,0,0,.525-1.589v-4.3Zm16.1,0L139.636,0h-1.68L136.4-5.7,134.848,0h-1.68L130.76-7.714h1.624l1.61,6.2,1.638-6.2H137.3l1.568,6.174,1.6-6.174Zm.658,3.822a4.269,4.269,0,0,1,.483-2.058,3.54,3.54,0,0,1,1.316-1.393,3.526,3.526,0,0,1,1.841-.5,3.367,3.367,0,0,1,1.589.357A3.225,3.225,0,0,1,149-6.594v-1.12h1.61V0H149V-1.148a3.17,3.17,0,0,1-1.106.91,3.409,3.409,0,0,1-1.6.364,3.392,3.392,0,0,1-1.82-.511,3.624,3.624,0,0,1-1.309-1.428A4.393,4.393,0,0,1,142.688-3.892ZM149-3.864a2.793,2.793,0,0,0-.329-1.386,2.31,2.31,0,0,0-.861-.9,2.253,2.253,0,0,0-1.148-.308,2.293,2.293,0,0,0-1.148.3,2.27,2.27,0,0,0-.861.882,2.754,2.754,0,0,0-.329,1.379,2.874,2.874,0,0,0,.329,1.4,2.321,2.321,0,0,0,.868.917,2.226,2.226,0,0,0,1.141.315,2.253,2.253,0,0,0,1.148-.308,2.3,2.3,0,0,0,.861-.9A2.833,2.833,0,0,0,149-3.864Zm7.6-3.976a3.459,3.459,0,0,1,1.631.378,2.688,2.688,0,0,1,1.127,1.12,3.684,3.684,0,0,1,.406,1.792V0h-1.582V-4.312a2.239,2.239,0,0,0-.518-1.589,1.844,1.844,0,0,0-1.414-.553,1.866,1.866,0,0,0-1.421.553,2.22,2.22,0,0,0-.525,1.589V0h-1.6V-7.714h1.6v.882a2.642,2.642,0,0,1,1-.742A3.2,3.2,0,0,1,156.6-7.84Zm7.056,1.428v4.27a.82.82,0,0,0,.2.623,1.009,1.009,0,0,0,.693.189h.98V0h-1.26a2.429,2.429,0,0,1-1.652-.5,2.077,2.077,0,0,1-.574-1.638v-4.27h-.91v-1.3h.91V-9.632h1.61v1.918h1.876v1.3Zm8.848,0v4.27a.82.82,0,0,0,.2.623,1.009,1.009,0,0,0,.693.189h.98V0h-1.26a2.429,2.429,0,0,1-1.652-.5,2.077,2.077,0,0,1-.574-1.638v-4.27h-.91v-1.3h.91V-9.632h1.61v1.918h1.876v1.3ZM179.2.126a3.951,3.951,0,0,1-1.974-.5,3.57,3.57,0,0,1-1.386-1.4,4.223,4.223,0,0,1-.5-2.093,4.142,4.142,0,0,1,.518-2.086,3.578,3.578,0,0,1,1.414-1.4,4.1,4.1,0,0,1,2-.49,4.1,4.1,0,0,1,2,.49,3.578,3.578,0,0,1,1.414,1.4,4.142,4.142,0,0,1,.518,2.086,4.056,4.056,0,0,1-.532,2.086,3.684,3.684,0,0,1-1.449,1.407A4.176,4.176,0,0,1,179.2.126Zm0-1.386a2.375,2.375,0,0,0,1.155-.294,2.24,2.24,0,0,0,.875-.882,2.836,2.836,0,0,0,.336-1.428,2.9,2.9,0,0,0-.322-1.421,2.174,2.174,0,0,0-.854-.875,2.335,2.335,0,0,0-1.148-.294,2.3,2.3,0,0,0-1.141.294,2.1,2.1,0,0,0-.833.875,3,3,0,0,0-.308,1.421,2.707,2.707,0,0,0,.637,1.925A2.1,2.1,0,0,0,179.2-1.26ZM191.226.126A3.886,3.886,0,0,1,189.6-.2a2.865,2.865,0,0,1-1.141-.9,2.233,2.233,0,0,1-.448-1.267h1.652a1.127,1.127,0,0,0,.469.819,1.7,1.7,0,0,0,1.071.329,1.8,1.8,0,0,0,1.043-.259.782.782,0,0,0,.371-.665.683.683,0,0,0-.413-.644,7.741,7.741,0,0,0-1.309-.462,12.633,12.633,0,0,1-1.414-.462,2.479,2.479,0,0,1-.945-.686,1.8,1.8,0,0,1-.4-1.218,1.9,1.9,0,0,1,.364-1.127,2.424,2.424,0,0,1,1.043-.8A3.9,3.9,0,0,1,191.1-7.84a3.223,3.223,0,0,1,2.121.665,2.388,2.388,0,0,1,.861,1.813h-1.6a1.137,1.137,0,0,0-.42-.826,1.571,1.571,0,0,0-1.022-.308,1.659,1.659,0,0,0-.966.238.737.737,0,0,0-.336.63.682.682,0,0,0,.224.518,1.6,1.6,0,0,0,.546.329q.322.119.952.3a10.356,10.356,0,0,1,1.379.455,2.567,2.567,0,0,1,.931.679,1.8,1.8,0,0,1,.406,1.19,2,2,0,0,1-.364,1.176,2.413,2.413,0,0,1-1.029.812A3.834,3.834,0,0,1,191.226.126Zm11.746-4.172a4.989,4.989,0,0,1-.056.784h-5.894a2.141,2.141,0,0,0,.686,1.484,2.165,2.165,0,0,0,1.512.56A1.867,1.867,0,0,0,201.04-2.3h1.722A3.475,3.475,0,0,1,201.5-.553a3.717,3.717,0,0,1-2.275.679,3.94,3.94,0,0,1-1.981-.5,3.536,3.536,0,0,1-1.372-1.4,4.271,4.271,0,0,1-.5-2.093,4.371,4.371,0,0,1,.483-2.093,3.4,3.4,0,0,1,1.358-1.393,4.042,4.042,0,0,1,2.009-.49,3.929,3.929,0,0,1,1.946.476,3.363,3.363,0,0,1,1.33,1.337A4.027,4.027,0,0,1,202.972-4.046Zm-1.666-.5a1.816,1.816,0,0,0-.63-1.414A2.252,2.252,0,0,0,199.15-6.5a2.05,2.05,0,0,0-1.414.525,2.194,2.194,0,0,0-.7,1.421Zm7.126-3.29a3.459,3.459,0,0,1,1.631.378,2.688,2.688,0,0,1,1.127,1.12A3.684,3.684,0,0,1,211.6-4.55V0h-1.582V-4.312A2.239,2.239,0,0,0,209.5-5.9a1.844,1.844,0,0,0-1.414-.553,1.866,1.866,0,0,0-1.421.553,2.22,2.22,0,0,0-.525,1.589V0h-1.6V-7.714h1.6v.882a2.642,2.642,0,0,1,1-.742A3.2,3.2,0,0,1,208.432-7.84Zm4.662,3.948a4.269,4.269,0,0,1,.483-2.058,3.54,3.54,0,0,1,1.316-1.393,3.551,3.551,0,0,1,1.855-.5,3.618,3.618,0,0,1,1.491.329,3.051,3.051,0,0,1,1.169.875V-10.36h1.61V0h-1.61V-1.162a2.988,2.988,0,0,1-1.085.924,3.366,3.366,0,0,1-1.589.364,3.452,3.452,0,0,1-1.841-.511,3.606,3.606,0,0,1-1.316-1.428A4.393,4.393,0,0,1,213.094-3.892Zm6.314.028a2.793,2.793,0,0,0-.329-1.386,2.31,2.31,0,0,0-.861-.9,2.253,2.253,0,0,0-1.148-.308,2.293,2.293,0,0,0-1.148.3,2.27,2.27,0,0,0-.861.882,2.754,2.754,0,0,0-.329,1.379,2.874,2.874,0,0,0,.329,1.4,2.321,2.321,0,0,0,.868.917,2.226,2.226,0,0,0,1.141.315,2.253,2.253,0,0,0,1.148-.308,2.3,2.3,0,0,0,.861-.9A2.833,2.833,0,0,0,219.408-3.864Zm6.328-6.006a3.269,3.269,0,0,1,2.289.784,2.752,2.752,0,0,1,.861,2.142,2.557,2.557,0,0,1-.9,2.128,3.709,3.709,0,0,1-2.38.714L225.554-3h-1.386l-.07-2.2h.462a4.731,4.731,0,0,0,2.079-.364,1.4,1.4,0,0,0,.721-1.386,1.556,1.556,0,0,0-.427-1.162,1.614,1.614,0,0,0-1.183-.42,1.673,1.673,0,0,0-1.19.406,1.477,1.477,0,0,0-.434,1.134h-1.5a2.953,2.953,0,0,1,.378-1.5,2.582,2.582,0,0,1,1.085-1.022A3.546,3.546,0,0,1,225.736-9.87ZM224.84.1a.989.989,0,0,1-.728-.294.989.989,0,0,1-.294-.728.989.989,0,0,1,.294-.728.989.989,0,0,1,.728-.294.972.972,0,0,1,.714.294.989.989,0,0,1,.294.728.989.989,0,0,1-.294.728A.972.972,0,0,1,224.84.1Z" transform="translate(393.25 3489)"/>
    <path id="Path_43622" data-name="Path 43622" d="M-48.773-2.774q4.826-3.876,7.562-6.365a30.682,30.682,0,0,0,4.617-5.206,9.377,9.377,0,0,0,1.881-5.339,5.868,5.868,0,0,0-1.2-3.9A4.768,4.768,0,0,0-39.767-25a5.065,5.065,0,0,0-4.009,1.615,6.734,6.734,0,0,0-1.539,4.313h-3.344a9.128,9.128,0,0,1,2.584-6.574,8.715,8.715,0,0,1,6.27-2.318A8.693,8.693,0,0,1-33.592-25.8a7.8,7.8,0,0,1,2.3,5.966A11.366,11.366,0,0,1-33.174-13.7a26.9,26.9,0,0,1-4.275,5.244q-2.394,2.261-6.118,5.263h13.072V-.3H-48.773ZM-26.5-14.022q0-6.536,2.128-10.2t7.448-3.667q5.282,0,7.41,3.667t2.128,10.2q0,6.65-2.128,10.336T-16.929,0q-5.32,0-7.448-3.686T-26.5-14.022Zm15.694,0a30.585,30.585,0,0,0-.437-5.6,7.129,7.129,0,0,0-1.786-3.705,5.147,5.147,0,0,0-3.895-1.406,5.2,5.2,0,0,0-3.933,1.406,7.129,7.129,0,0,0-1.786,3.705,30.585,30.585,0,0,0-.437,5.6,31.67,31.67,0,0,0,.437,5.738A7.144,7.144,0,0,0-20.862-4.56a5.2,5.2,0,0,0,3.933,1.406A5.147,5.147,0,0,0-13.034-4.56a7.144,7.144,0,0,0,1.786-3.724A31.67,31.67,0,0,0-10.811-14.022ZM-.969.228A2.274,2.274,0,0,1-2.641-.456a2.274,2.274,0,0,1-.684-1.672A2.274,2.274,0,0,1-2.641-3.8,2.274,2.274,0,0,1-.969-4.484,2.168,2.168,0,0,1,.646-3.8a2.308,2.308,0,0,1,.665,1.672A2.308,2.308,0,0,1,.646-.456,2.168,2.168,0,0,1-.969.228Zm6.308-14.25q0-6.536,2.128-10.2t7.448-3.667q5.282,0,7.41,3.667t2.128,10.2q0,6.65-2.128,10.336T14.915,0Q9.6,0,7.467-3.686T5.339-14.022Zm15.694,0a30.585,30.585,0,0,0-.437-5.6,7.129,7.129,0,0,0-1.786-3.705,5.147,5.147,0,0,0-3.895-1.406,5.2,5.2,0,0,0-3.933,1.406A7.129,7.129,0,0,0,9.2-19.627a30.585,30.585,0,0,0-.437,5.6A31.67,31.67,0,0,0,9.2-8.284,7.144,7.144,0,0,0,10.982-4.56a5.2,5.2,0,0,0,3.933,1.406A5.147,5.147,0,0,0,18.81-4.56,7.144,7.144,0,0,0,20.6-8.284,31.67,31.67,0,0,0,21.033-14.022Zm8.17,0q0-6.536,2.128-10.2t7.448-3.667q5.282,0,7.41,3.667t2.128,10.2q0,6.65-2.128,10.336T38.779,0q-5.32,0-7.448-3.686T29.2-14.022Zm15.694,0a30.585,30.585,0,0,0-.437-5.6,7.129,7.129,0,0,0-1.786-3.705,5.147,5.147,0,0,0-3.9-1.406,5.2,5.2,0,0,0-3.933,1.406,7.129,7.129,0,0,0-1.786,3.705,30.585,30.585,0,0,0-.437,5.6,31.67,31.67,0,0,0,.437,5.738A7.144,7.144,0,0,0,34.846-4.56a5.2,5.2,0,0,0,3.933,1.406,5.147,5.147,0,0,0,3.9-1.406A7.144,7.144,0,0,0,44.46-8.284,31.67,31.67,0,0,0,44.9-14.022Z" transform="translate(515.25 3542)"/>
    <path id="Path_43623" data-name="Path 43623" d="M8.432,13.944a2.988,2.988,0,0,1-.384,1.464,3.168,3.168,0,0,1-1.128,1.16,3.753,3.753,0,0,1-1.784.528v1.3H4.272V17.1A3.989,3.989,0,0,1,1.9,16.16,2.675,2.675,0,0,1,.976,14.1H2.528A1.947,1.947,0,0,0,4.272,15.9v-4a11.384,11.384,0,0,1-1.728-.56,2.827,2.827,0,0,1-1.12-.9A2.624,2.624,0,0,1,.96,8.808a2.814,2.814,0,0,1,.9-2.144A3.744,3.744,0,0,1,4.272,5.72V4.392h.864V5.72a3.58,3.58,0,0,1,2.192.872,3,3,0,0,1,.96,1.976H6.736a1.881,1.881,0,0,0-.5-1.016,2,2,0,0,0-1.1-.6v3.9a12.688,12.688,0,0,1,1.72.552,2.532,2.532,0,0,1,1.576,2.536ZM2.448,8.728a1.528,1.528,0,0,0,.464,1.2,3.592,3.592,0,0,0,1.36.688V6.92a2.213,2.213,0,0,0-1.328.536A1.641,1.641,0,0,0,2.448,8.728Zm2.688,7.184a2.08,2.08,0,0,0,1.352-.624,1.8,1.8,0,0,0,.488-1.264,1.527,1.527,0,0,0-.48-1.208,3.524,3.524,0,0,0-1.36-.68Z" transform="translate(421.25 3505)"/>
    <rect id="Base-2" data-name="Base" width="339" height="50" rx="12" transform="translate(338.25 3394)" fill="#f2f2f2"/>
    <g transform="matrix(1, 0, 0, 1, 109, 3196)" filter="url(#Base)">
      <rect id="Base-3" data-name="Base" width="165" height="38" rx="12" transform="translate(235.25 204)" fill="#fff"/>
    </g>
    <path id="USD" d="M-10.654-8.376v5.184a1.777,1.777,0,0,0,.444,1.3,1.674,1.674,0,0,0,1.248.45A1.691,1.691,0,0,0-7.7-1.89a1.777,1.777,0,0,0,.444-1.3V-8.376h1.692V-3.2A3.339,3.339,0,0,1-6.028-1.4,2.93,2.93,0,0,1-7.264-.288,3.924,3.924,0,0,1-8.986.084a3.819,3.819,0,0,1-1.7-.372A2.832,2.832,0,0,1-11.89-1.4,3.444,3.444,0,0,1-12.334-3.2V-8.376ZM-.054.084a3.978,3.978,0,0,1-1.578-.3,2.591,2.591,0,0,1-1.11-.864,2.275,2.275,0,0,1-.42-1.332h1.8A1.164,1.164,0,0,0-1-1.6a1.3,1.3,0,0,0,.906.3,1.394,1.394,0,0,0,.924-.282.917.917,0,0,0,.336-.738.853.853,0,0,0-.228-.612,1.6,1.6,0,0,0-.57-.378A9.433,9.433,0,0,0-.57-3.612,10.089,10.089,0,0,1-1.9-4.086a2.323,2.323,0,0,1-.876-.708A2.018,2.018,0,0,1-3.138-6.06a2.264,2.264,0,0,1,.372-1.3A2.366,2.366,0,0,1-1.722-8.2,3.8,3.8,0,0,1-.186-8.5a3.332,3.332,0,0,1,2.106.63,2.336,2.336,0,0,1,.894,1.758H.966A.96.96,0,0,0,.6-6.822,1.379,1.379,0,0,0-.306-7.1a1.167,1.167,0,0,0-.786.252.911.911,0,0,0-.294.732.757.757,0,0,0,.222.558,1.693,1.693,0,0,0,.552.36q.33.138.93.318A9.77,9.77,0,0,1,1.65-4.4a2.392,2.392,0,0,1,.888.72,2,2,0,0,1,.372,1.26,2.37,2.37,0,0,1-.348,1.248,2.457,2.457,0,0,1-1.02.918A3.479,3.479,0,0,1-.054.084ZM8.29-8.376a5,5,0,0,1,2.322.516A3.686,3.686,0,0,1,12.16-6.39a4.379,4.379,0,0,1,.546,2.214,4.313,4.313,0,0,1-.546,2.2A3.708,3.708,0,0,1,10.612-.516,5,5,0,0,1,8.29,0H5.362V-8.376ZM8.23-1.428a2.759,2.759,0,0,0,2.04-.72,2.742,2.742,0,0,0,.72-2.028,2.805,2.805,0,0,0-.72-2.046A2.72,2.72,0,0,0,8.23-6.96H7.042v5.532Z" transform="translate(426.75 3423.5)" fill="#373464"/>
    <path id="EURO" d="M-8.752-1.332h2.76V0h-4.44V-8.376h1.68ZM.828-4.3a1.882,1.882,0,0,1,1.164.708,2.068,2.068,0,0,1,.456,1.32,2.127,2.127,0,0,1-.33,1.182,2.2,2.2,0,0,1-.954.8A3.5,3.5,0,0,1-.312,0H-3.924V-8.376H-.468A3.584,3.584,0,0,1,1-8.1a2.093,2.093,0,0,1,.936.768,2.011,2.011,0,0,1,.318,1.116,1.909,1.909,0,0,1-.39,1.224A2.087,2.087,0,0,1,.828-4.3ZM-2.244-4.92H-.708a1.406,1.406,0,0,0,.924-.27A.951.951,0,0,0,.54-5.964a.969.969,0,0,0-.324-.78A1.385,1.385,0,0,0-.708-7.02H-2.244ZM-.552-1.368A1.438,1.438,0,0,0,.4-1.656a1.008,1.008,0,0,0,.342-.816,1.051,1.051,0,0,0-.36-.846,1.452,1.452,0,0,0-.972-.306H-2.244v2.256ZM10.9-5.784a2.608,2.608,0,0,1-.318,1.26,2.336,2.336,0,0,1-1,.948,3.623,3.623,0,0,1-1.71.36h-1.4V0H4.792V-8.376H7.876a3.727,3.727,0,0,1,1.656.336,2.341,2.341,0,0,1,1.026.924A2.6,2.6,0,0,1,10.9-5.784ZM7.8-4.572A1.456,1.456,0,0,0,8.836-4.89a1.172,1.172,0,0,0,.336-.894q0-1.224-1.368-1.224H6.472v2.436Z" transform="translate(592.25 3423.5)" fill="#9c9da2"/>
    <g id="Group_6443" data-name="Group 6443" transform="translate(660.25 3476.313) rotate(-14)" clip-path="url(#clip-path)">
      <path id="Path_11368" data-name="Path 11368" d="M0,0H84.563V32.829H0Z" fill="#287094"/>
    </g>
    <g id="Group_6445" data-name="Group 6445" transform="translate(694.328 3467.817) rotate(-14)" clip-path="url(#clip-path-2)">
      <rect id="Rectangle_20173" data-name="Rectangle 20173" width="49.441" height="57.54" transform="translate(0 0)" fill="#287094"/>
    </g>
    <path id="Path_11366" data-name="Path 11366" d="M15.5,32.829,19.009,57.54,25.492,38.1,74.934,0Z" transform="translate(669.593 3473.984) rotate(-14)" fill="#48a6d9"/>
    <path id="Path_11367" data-name="Path 11367" d="M17.663,42.939,36.026,31.064,24.148,23.5Z" transform="translate(674.431 3487.826) rotate(-14)" fill="#287094"/>
    <path id="Path_12917" data-name="Path 12917" d="M13.966,56.908a15.962,15.962,0,0,1-9.6-3.2A16.147,16.147,0,0,1,.151,49.09a.811.811,0,0,1-.071-.816A10.054,10.054,0,0,1,7,42.576c.248-.062.5-.1.752-.15a1.641,1.641,0,0,1,1.35.336,8.477,8.477,0,0,0,5.349,1.551A7.453,7.453,0,0,0,18.639,43a2.915,2.915,0,0,1,2.746-.366,10.311,10.311,0,0,1,6.274,4.834c.622,1.041.642,1.057-.023,2.06a16.2,16.2,0,0,1-13.67,7.384" transform="matrix(0.985, -0.174, 0.174, 0.985, 247.523, 3399.949)" fill="#005c8a"/>
    <path id="Path_12918" data-name="Path 12918" d="M14.059,41.8a8.165,8.165,0,1,1,8.173-8.165A8.214,8.214,0,0,1,14.059,41.8" transform="matrix(0.985, -0.174, 0.174, 0.985, 247.523, 3399.949)" fill="#005c8a"/>
    <path id="Path_12919" data-name="Path 12919" d="M49.287,32.727a15.962,15.962,0,0,1-9.6-3.2,16.148,16.148,0,0,1-4.214-4.621.811.811,0,0,1-.071-.816,10.054,10.054,0,0,1,6.924-5.7c.248-.062.5-.1.752-.15a1.641,1.641,0,0,1,1.35.336,8.477,8.477,0,0,0,5.349,1.551,7.453,7.453,0,0,0,4.184-1.317,2.915,2.915,0,0,1,2.746-.366,10.311,10.311,0,0,1,6.274,4.834c.622,1.041.642,1.057-.023,2.06a16.2,16.2,0,0,1-13.67,7.384" transform="matrix(0.985, -0.174, 0.174, 0.985, 247.523, 3399.949)" fill="#373464"/>
    <path id="Path_12920" data-name="Path 12920" d="M49.38,17.618a8.165,8.165,0,1,1,8.173-8.165,8.214,8.214,0,0,1-8.173,8.165" transform="matrix(0.985, -0.174, 0.174, 0.985, 247.523, 3399.949)" fill="#373464"/>
    <path id="Path_12921" data-name="Path 12921" d="M21.421,15.189l6.236-6.236A1.591,1.591,0,1,0,25.408,6.7l-6.237,6.236a1.591,1.591,0,0,0,2.25,2.25" transform="matrix(0.985, -0.174, 0.174, 0.985, 247.523, 3399.949)" fill="#005c8a"/>
    <path id="Path_12922" data-name="Path 12922" d="M25.435,6.2H12.457a1.608,1.608,0,0,0,0,3.216H25.435a1.608,1.608,0,0,0,0-3.216" transform="matrix(0.985, -0.174, 0.174, 0.985, 247.523, 3399.949)" fill="#005c8a"/>
    <path id="Path_12923" data-name="Path 12923" d="M14.065,17.3V7.784a1.608,1.608,0,0,0-3.216,0V17.3a1.608,1.608,0,0,0,3.216,0" transform="matrix(0.985, -0.174, 0.174, 0.985, 247.523, 3399.949)" fill="#005c8a"/>
    <path id="Path_12924" data-name="Path 12924" d="M25.408,8.95,19.172,2.714A1.591,1.591,0,1,1,21.421.464L27.658,6.7a1.591,1.591,0,0,1-2.25,2.25" transform="matrix(0.985, -0.174, 0.174, 0.985, 247.523, 3399.949)" fill="#005c8a"/>
    <path id="Path_12925" data-name="Path 12925" d="M40.069,42.774,33.833,49.01a1.591,1.591,0,1,0,2.249,2.25l6.237-6.236a1.591,1.591,0,0,0-2.25-2.25" transform="matrix(0.985, -0.174, 0.174, 0.985, 247.523, 3399.949)" fill="#005c8a"/>
    <path id="Path_12926" data-name="Path 12926" d="M36.055,51.762H49.033a1.608,1.608,0,0,0,0-3.216H36.055a1.608,1.608,0,1,0,0,3.216" transform="matrix(0.985, -0.174, 0.174, 0.985, 247.523, 3399.949)" fill="#005c8a"/>
    <path id="Path_12927" data-name="Path 12927" d="M47.425,40.666v9.513a1.608,1.608,0,0,0,3.216,0V40.666a1.608,1.608,0,1,0-3.216,0" transform="matrix(0.985, -0.174, 0.174, 0.985, 247.523, 3399.949)" fill="#005c8a"/>
    <path id="Path_12928" data-name="Path 12928" d="M36.082,49.013l6.236,6.236a1.591,1.591,0,1,1-2.249,2.25l-6.237-6.236a1.591,1.591,0,0,1,2.25-2.25" transform="matrix(0.985, -0.174, 0.174, 0.985, 247.523, 3399.949)" fill="#005c8a"/>
    <rect id="Rectangle_21126" data-name="Rectangle 21126" width="63.451" height="57.963" transform="matrix(0.985, -0.174, 0.174, 0.985, 247.523, 3399.949)" fill="none"/>
  </g>
</svg>
