<svg xmlns="http://www.w3.org/2000/svg" xmlns:xlink="http://www.w3.org/1999/xlink" width="359" height="304" viewBox="0 0 359 304">
  <defs>
    <filter id="Base" x="72.5" y="95.14" width="119.207" height="38.999" filterUnits="userSpaceOnUse">
      <feOffset dy="4" input="SourceAlpha"/>
      <feGaussianBlur stdDeviation="2.5" result="blur"/>
      <feFlood flood-opacity="0.059"/>
      <feComposite operator="in" in2="blur"/>
      <feComposite in="SourceGraphic"/>
    </filter>
  </defs>
  <g id="Group_40010" data-name="Group 40010" transform="translate(-17 -7678)">
    <rect id="Rectangle_21811" data-name="Rectangle 21811" width="359" height="304" rx="20" transform="translate(376 7982) rotate(180)" fill="#f0f0f3"/>
    <g id="Group_40009" data-name="Group 40009" transform="translate(7644.881 2835.938)">
      <rect id="Rectangle_21125" data-name="Rectangle 21125" width="274.085" height="190.955" rx="12" transform="translate(-7581.353 4913.544)" fill="#c4d9e4"/>
      <rect id="Rectangle_21124" data-name="Rectangle 21124" width="260.823" height="178.956" rx="12" transform="translate(-7575.037 4919.229)" fill="#fff"/>
      <line id="Line_178" data-name="Line 178" x2="214.098" transform="translate(-7551.67 5040.488)" fill="none" stroke="#d5d5d5" stroke-width="1"/>
      <line id="Line_204" data-name="Line 204" x2="214.098" transform="translate(-7551.354 5081.539)" fill="none" stroke="#d5d5d5" stroke-width="1"/>
      <path id="_name" data-name="✏️name" d="M7.522-10.127v6.145H6.514V-8.191L4.64-3.982h-.7L2.058-8.191v4.209H1.05v-6.145H2.138L4.295-5.308l2.149-4.819ZM10.962-3.9a2.5,2.5,0,0,1-1.247-.314A2.255,2.255,0,0,1,8.84-5.1a2.667,2.667,0,0,1-.318-1.322A2.616,2.616,0,0,1,8.848-7.74a2.26,2.26,0,0,1,.893-.884,2.591,2.591,0,0,1,1.264-.309,2.591,2.591,0,0,1,1.264.309,2.26,2.26,0,0,1,.893.884,2.616,2.616,0,0,1,.327,1.317,2.562,2.562,0,0,1-.336,1.317,2.326,2.326,0,0,1-.915.889A2.638,2.638,0,0,1,10.962-3.9Zm0-.875a1.5,1.5,0,0,0,.729-.186,1.415,1.415,0,0,0,.553-.557,1.791,1.791,0,0,0,.212-.9,1.828,1.828,0,0,0-.2-.9,1.373,1.373,0,0,0-.539-.553,1.475,1.475,0,0,0-.725-.186,1.45,1.45,0,0,0-.721.186,1.325,1.325,0,0,0-.526.553,1.9,1.9,0,0,0-.195.9,1.709,1.709,0,0,0,.4,1.216A1.329,1.329,0,0,0,10.962-4.778Zm9.425-4.156a2.185,2.185,0,0,1,1.03.239,1.725,1.725,0,0,1,.716.707,2.3,2.3,0,0,1,.261,1.132v2.874h-1V-6.705a1.414,1.414,0,0,0-.327-1,1.164,1.164,0,0,0-.893-.349,1.179,1.179,0,0,0-.9.349,1.4,1.4,0,0,0-.332,1v2.723h-1V-6.705a1.414,1.414,0,0,0-.327-1,1.164,1.164,0,0,0-.893-.349,1.179,1.179,0,0,0-.9.349,1.4,1.4,0,0,0-.332,1v2.723H14.49V-8.854H15.5V-8.3a1.676,1.676,0,0,1,.628-.469,1.99,1.99,0,0,1,.813-.168,2.165,2.165,0,0,1,1.043.248,1.692,1.692,0,0,1,.707.716,1.634,1.634,0,0,1,.69-.7A2.039,2.039,0,0,1,20.387-8.934Zm4.394,3.74-1.07,2.44h-.654l.628-2.44Zm4.191-2.944a2.048,2.048,0,0,1,.7-.566,2.133,2.133,0,0,1,1-.23,2.227,2.227,0,0,1,1.163.314,2.2,2.2,0,0,1,.827.88,2.728,2.728,0,0,1,.3,1.3,2.808,2.808,0,0,1-.3,1.313,2.247,2.247,0,0,1-.827.9A2.18,2.18,0,0,1,30.67-3.9a2.114,2.114,0,0,1-.99-.225,2.219,2.219,0,0,1-.707-.561v3.024H27.964V-8.854h1.008Zm2.962,1.7a1.739,1.739,0,0,0-.208-.871,1.424,1.424,0,0,0-.548-.557,1.472,1.472,0,0,0-.729-.19,1.43,1.43,0,0,0-.721.195,1.448,1.448,0,0,0-.548.566,1.764,1.764,0,0,0-.208.875,1.789,1.789,0,0,0,.208.88,1.441,1.441,0,0,0,.548.57,1.43,1.43,0,0,0,.721.195,1.422,1.422,0,0,0,.729-.2,1.466,1.466,0,0,0,.548-.579A1.815,1.815,0,0,0,31.934-6.44Zm3.033-4.085v6.543H33.959v-6.543Zm5.791,3.988a3.151,3.151,0,0,1-.035.5H37a1.352,1.352,0,0,0,.433.937,1.368,1.368,0,0,0,.955.354,1.179,1.179,0,0,0,1.149-.681h1.088a2.195,2.195,0,0,1-.8,1.1,2.348,2.348,0,0,1-1.437.429,2.488,2.488,0,0,1-1.251-.314,2.233,2.233,0,0,1-.866-.884,2.7,2.7,0,0,1-.314-1.322,2.761,2.761,0,0,1,.305-1.322,2.145,2.145,0,0,1,.858-.88,2.552,2.552,0,0,1,1.269-.309,2.481,2.481,0,0,1,1.229.3,2.124,2.124,0,0,1,.84.844A2.543,2.543,0,0,1,40.759-6.537Zm-1.052-.318a1.147,1.147,0,0,0-.4-.893,1.423,1.423,0,0,0-.964-.336,1.3,1.3,0,0,0-.893.332,1.386,1.386,0,0,0-.442.9Zm1.706.416a2.7,2.7,0,0,1,.305-1.3,2.236,2.236,0,0,1,.831-.88,2.227,2.227,0,0,1,1.163-.314,2.127,2.127,0,0,1,1,.225,2.037,2.037,0,0,1,.685.561v-.707h1.017v4.872H45.4v-.725a2,2,0,0,1-.7.575,2.153,2.153,0,0,1-1.008.23,2.142,2.142,0,0,1-1.149-.323,2.289,2.289,0,0,1-.827-.9A2.774,2.774,0,0,1,41.413-6.44Zm3.988.018a1.764,1.764,0,0,0-.208-.875,1.459,1.459,0,0,0-.544-.566,1.423,1.423,0,0,0-.725-.195,1.448,1.448,0,0,0-.725.19,1.434,1.434,0,0,0-.544.557,1.739,1.739,0,0,0-.208.871,1.815,1.815,0,0,0,.208.884,1.466,1.466,0,0,0,.548.579,1.406,1.406,0,0,0,.721.2,1.423,1.423,0,0,0,.725-.195,1.451,1.451,0,0,0,.544-.57A1.789,1.789,0,0,0,45.4-6.422ZM49.512-3.9a2.454,2.454,0,0,1-1.03-.208,1.809,1.809,0,0,1-.721-.566,1.41,1.41,0,0,1-.283-.8h1.043a.711.711,0,0,0,.3.517,1.076,1.076,0,0,0,.676.208,1.139,1.139,0,0,0,.659-.164.494.494,0,0,0,.234-.42.431.431,0,0,0-.261-.407,4.889,4.889,0,0,0-.827-.292,7.979,7.979,0,0,1-.893-.292,1.566,1.566,0,0,1-.6-.433,1.135,1.135,0,0,1-.252-.769,1.2,1.2,0,0,1,.23-.712,1.531,1.531,0,0,1,.659-.508,2.461,2.461,0,0,1,.986-.186,2.036,2.036,0,0,1,1.34.42,1.508,1.508,0,0,1,.544,1.145H50.308a.718.718,0,0,0-.265-.522.992.992,0,0,0-.645-.195,1.048,1.048,0,0,0-.61.15.465.465,0,0,0-.212.4.431.431,0,0,0,.141.327A1.008,1.008,0,0,0,49.061-7q.2.075.6.19a6.54,6.54,0,0,1,.871.287,1.621,1.621,0,0,1,.588.429,1.135,1.135,0,0,1,.256.752,1.26,1.26,0,0,1-.23.743,1.524,1.524,0,0,1-.65.513A2.422,2.422,0,0,1,49.512-3.9ZM56.93-6.537a3.151,3.151,0,0,1-.035.5H53.172a1.352,1.352,0,0,0,.433.937,1.368,1.368,0,0,0,.955.354,1.179,1.179,0,0,0,1.149-.681H56.8a2.195,2.195,0,0,1-.8,1.1,2.348,2.348,0,0,1-1.437.429,2.488,2.488,0,0,1-1.251-.314,2.233,2.233,0,0,1-.866-.884,2.7,2.7,0,0,1-.314-1.322,2.761,2.761,0,0,1,.305-1.322,2.145,2.145,0,0,1,.858-.88,2.552,2.552,0,0,1,1.269-.309,2.481,2.481,0,0,1,1.229.3,2.124,2.124,0,0,1,.84.844A2.543,2.543,0,0,1,56.93-6.537Zm-1.052-.318a1.147,1.147,0,0,0-.4-.893,1.423,1.423,0,0,0-.964-.336,1.3,1.3,0,0,0-.893.332,1.386,1.386,0,0,0-.442.9ZM61.988-3.9a2.454,2.454,0,0,1-1.03-.208,1.809,1.809,0,0,1-.721-.566,1.41,1.41,0,0,1-.283-.8H61a.711.711,0,0,0,.3.517,1.076,1.076,0,0,0,.676.208,1.139,1.139,0,0,0,.659-.164.494.494,0,0,0,.234-.42.431.431,0,0,0-.261-.407,4.889,4.889,0,0,0-.827-.292,7.979,7.979,0,0,1-.893-.292,1.566,1.566,0,0,1-.6-.433,1.135,1.135,0,0,1-.252-.769,1.2,1.2,0,0,1,.23-.712,1.531,1.531,0,0,1,.659-.508,2.461,2.461,0,0,1,.986-.186,2.036,2.036,0,0,1,1.34.42,1.508,1.508,0,0,1,.544,1.145H62.783a.718.718,0,0,0-.265-.522.992.992,0,0,0-.645-.195,1.048,1.048,0,0,0-.61.15.465.465,0,0,0-.212.4.431.431,0,0,0,.141.327A1.008,1.008,0,0,0,61.537-7q.2.075.6.19a6.54,6.54,0,0,1,.871.287A1.621,1.621,0,0,1,63.6-6.1a1.135,1.135,0,0,1,.256.752,1.26,1.26,0,0,1-.23.743,1.524,1.524,0,0,1-.65.513A2.421,2.421,0,0,1,61.988-3.9Zm7.418-2.635a3.151,3.151,0,0,1-.035.5H65.648a1.352,1.352,0,0,0,.433.937,1.368,1.368,0,0,0,.955.354,1.179,1.179,0,0,0,1.149-.681h1.088a2.195,2.195,0,0,1-.8,1.1,2.348,2.348,0,0,1-1.437.429,2.488,2.488,0,0,1-1.251-.314,2.233,2.233,0,0,1-.866-.884A2.7,2.7,0,0,1,64.6-6.422a2.761,2.761,0,0,1,.305-1.322,2.145,2.145,0,0,1,.858-.88,2.552,2.552,0,0,1,1.269-.309,2.481,2.481,0,0,1,1.229.3,2.124,2.124,0,0,1,.84.844A2.543,2.543,0,0,1,69.406-6.537Zm-1.052-.318a1.147,1.147,0,0,0-.4-.893,1.423,1.423,0,0,0-.964-.336,1.3,1.3,0,0,0-.893.332,1.386,1.386,0,0,0-.442.9Zm4.5-2.078a2.185,2.185,0,0,1,1.03.239,1.7,1.7,0,0,1,.712.707,2.327,2.327,0,0,1,.256,1.132v2.874h-1V-6.705a1.414,1.414,0,0,0-.327-1,1.164,1.164,0,0,0-.893-.349,1.179,1.179,0,0,0-.9.349,1.4,1.4,0,0,0-.332,1v2.723H70.4V-8.854H71.4V-8.3a1.669,1.669,0,0,1,.632-.469A2.021,2.021,0,0,1,72.854-8.934ZM75.8-6.44a2.7,2.7,0,0,1,.305-1.3,2.236,2.236,0,0,1,.831-.88,2.243,2.243,0,0,1,1.172-.314,2.285,2.285,0,0,1,.942.208,1.927,1.927,0,0,1,.738.553v-2.352H80.8v6.543H79.786v-.734a1.887,1.887,0,0,1-.685.584,2.126,2.126,0,0,1-1,.23,2.18,2.18,0,0,1-1.163-.323,2.278,2.278,0,0,1-.831-.9A2.774,2.774,0,0,1,75.8-6.44Zm3.988.018a1.764,1.764,0,0,0-.208-.875,1.459,1.459,0,0,0-.544-.566,1.423,1.423,0,0,0-.725-.195,1.448,1.448,0,0,0-.725.19,1.434,1.434,0,0,0-.544.557,1.739,1.739,0,0,0-.208.871,1.815,1.815,0,0,0,.208.884,1.466,1.466,0,0,0,.548.579,1.406,1.406,0,0,0,.721.2,1.423,1.423,0,0,0,.725-.195,1.451,1.451,0,0,0,.544-.57A1.789,1.789,0,0,0,79.786-6.422ZM90.326-8.934a2.185,2.185,0,0,1,1.03.239,1.725,1.725,0,0,1,.716.707,2.3,2.3,0,0,1,.261,1.132v2.874h-1V-6.705a1.414,1.414,0,0,0-.327-1,1.164,1.164,0,0,0-.893-.349,1.179,1.179,0,0,0-.9.349,1.4,1.4,0,0,0-.332,1v2.723h-1V-6.705a1.414,1.414,0,0,0-.327-1,1.164,1.164,0,0,0-.893-.349,1.179,1.179,0,0,0-.9.349,1.4,1.4,0,0,0-.332,1v2.723H84.428V-8.854h1.008V-8.3a1.676,1.676,0,0,1,.628-.469,1.99,1.99,0,0,1,.813-.168,2.165,2.165,0,0,1,1.043.248,1.692,1.692,0,0,1,.707.716,1.634,1.634,0,0,1,.69-.7A2.039,2.039,0,0,1,90.326-8.934Zm7.754,2.4a3.151,3.151,0,0,1-.035.5H94.322a1.352,1.352,0,0,0,.433.937,1.368,1.368,0,0,0,.955.354,1.179,1.179,0,0,0,1.149-.681h1.088a2.195,2.195,0,0,1-.8,1.1A2.348,2.348,0,0,1,95.71-3.9a2.488,2.488,0,0,1-1.251-.314,2.233,2.233,0,0,1-.866-.884,2.7,2.7,0,0,1-.314-1.322,2.761,2.761,0,0,1,.305-1.322,2.145,2.145,0,0,1,.858-.88,2.552,2.552,0,0,1,1.269-.309,2.481,2.481,0,0,1,1.229.3,2.124,2.124,0,0,1,.84.844A2.543,2.543,0,0,1,98.08-6.537Zm-1.052-.318a1.147,1.147,0,0,0-.4-.893,1.423,1.423,0,0,0-.964-.336,1.3,1.3,0,0,0-.893.332,1.386,1.386,0,0,0-.442.9Zm10.239-2.078a2.185,2.185,0,0,1,1.03.239,1.725,1.725,0,0,1,.716.707,2.3,2.3,0,0,1,.261,1.132v2.874h-1V-6.705a1.414,1.414,0,0,0-.327-1,1.164,1.164,0,0,0-.893-.349,1.179,1.179,0,0,0-.9.349,1.4,1.4,0,0,0-.332,1v2.723h-1V-6.705a1.414,1.414,0,0,0-.327-1,1.164,1.164,0,0,0-.893-.349,1.179,1.179,0,0,0-.9.349,1.4,1.4,0,0,0-.332,1v2.723h-1.008V-8.854h1.008V-8.3A1.676,1.676,0,0,1,103-8.766a1.99,1.99,0,0,1,.813-.168,2.165,2.165,0,0,1,1.043.248,1.692,1.692,0,0,1,.707.716,1.634,1.634,0,0,1,.69-.7A2.04,2.04,0,0,1,107.267-8.934Zm5.4,5.031a2.5,2.5,0,0,1-1.247-.314,2.255,2.255,0,0,1-.875-.884,2.667,2.667,0,0,1-.318-1.322,2.616,2.616,0,0,1,.327-1.317,2.26,2.26,0,0,1,.893-.884,2.591,2.591,0,0,1,1.264-.309,2.591,2.591,0,0,1,1.264.309,2.26,2.26,0,0,1,.893.884,2.616,2.616,0,0,1,.327,1.317,2.562,2.562,0,0,1-.336,1.317,2.326,2.326,0,0,1-.915.889A2.638,2.638,0,0,1,112.669-3.9Zm0-.875a1.5,1.5,0,0,0,.729-.186,1.415,1.415,0,0,0,.553-.557,1.791,1.791,0,0,0,.212-.9,1.828,1.828,0,0,0-.2-.9,1.373,1.373,0,0,0-.539-.553,1.475,1.475,0,0,0-.725-.186,1.45,1.45,0,0,0-.721.186,1.325,1.325,0,0,0-.526.553,1.9,1.9,0,0,0-.195.9,1.709,1.709,0,0,0,.4,1.216A1.329,1.329,0,0,0,112.669-4.778Zm5.986-4.156a2.185,2.185,0,0,1,1.03.239,1.7,1.7,0,0,1,.712.707,2.327,2.327,0,0,1,.256,1.132v2.874h-1V-6.705a1.414,1.414,0,0,0-.327-1,1.164,1.164,0,0,0-.893-.349,1.179,1.179,0,0,0-.9.349,1.4,1.4,0,0,0-.332,1v2.723H116.2V-8.854H117.2V-8.3a1.669,1.669,0,0,1,.632-.469A2.021,2.021,0,0,1,118.655-8.934Zm7.745,2.4a3.151,3.151,0,0,1-.035.5h-3.722a1.352,1.352,0,0,0,.433.937,1.368,1.368,0,0,0,.955.354,1.179,1.179,0,0,0,1.149-.681h1.088a2.195,2.195,0,0,1-.8,1.1,2.348,2.348,0,0,1-1.437.429,2.488,2.488,0,0,1-1.251-.314,2.233,2.233,0,0,1-.866-.884,2.7,2.7,0,0,1-.314-1.322,2.761,2.761,0,0,1,.305-1.322,2.145,2.145,0,0,1,.858-.88,2.552,2.552,0,0,1,1.269-.309,2.481,2.481,0,0,1,1.229.3,2.124,2.124,0,0,1,.84.844A2.543,2.543,0,0,1,126.4-6.537Zm-1.052-.318a1.147,1.147,0,0,0-.4-.893,1.423,1.423,0,0,0-.964-.336,1.3,1.3,0,0,0-.893.332,1.386,1.386,0,0,0-.442.9Zm6.428-2-2.989,7.162h-1.043l.99-2.37-1.919-4.792h1.123l1.37,3.714,1.424-3.714Zm5.1.822h-.9v4.05h-1.017v-4.05h-.575v-.822h.575V-9.2a1.533,1.533,0,0,1,.447-1.225,2.117,2.117,0,0,1,1.4-.385v.84a.946.946,0,0,0-.645.172.791.791,0,0,0-.186.6v.345h.9ZM139.884-3.9a2.5,2.5,0,0,1-1.247-.314,2.255,2.255,0,0,1-.875-.884,2.667,2.667,0,0,1-.318-1.322,2.616,2.616,0,0,1,.327-1.317,2.26,2.26,0,0,1,.893-.884,2.591,2.591,0,0,1,1.264-.309,2.591,2.591,0,0,1,1.264.309,2.26,2.26,0,0,1,.893.884,2.616,2.616,0,0,1,.327,1.317,2.562,2.562,0,0,1-.336,1.317,2.326,2.326,0,0,1-.915.889A2.638,2.638,0,0,1,139.884-3.9Zm0-.875a1.5,1.5,0,0,0,.729-.186,1.415,1.415,0,0,0,.553-.557,1.791,1.791,0,0,0,.212-.9,1.828,1.828,0,0,0-.2-.9,1.373,1.373,0,0,0-.539-.553,1.475,1.475,0,0,0-.725-.186,1.45,1.45,0,0,0-.721.186,1.325,1.325,0,0,0-.526.553,1.9,1.9,0,0,0-.195.9,1.709,1.709,0,0,0,.4,1.216A1.329,1.329,0,0,0,139.884-4.778Zm4.536-3.369a1.583,1.583,0,0,1,.588-.579,1.739,1.739,0,0,1,.871-.208V-7.89h-.256a1.228,1.228,0,0,0-.9.3,1.437,1.437,0,0,0-.305,1.043v2.564h-1.008V-8.854h1.008Zm6.649-.787a2.16,2.16,0,0,1,1,.225,1.927,1.927,0,0,1,.685.561v-.707h1.017V-3.9a2.489,2.489,0,0,1-.283,1.2,2.044,2.044,0,0,1-.818.827,2.568,2.568,0,0,1-1.278.3,2.772,2.772,0,0,1-1.645-.464,1.713,1.713,0,0,1-.743-1.26h1a1.085,1.085,0,0,0,.491.615,1.662,1.662,0,0,0,.9.234,1.342,1.342,0,0,0,.986-.371,1.451,1.451,0,0,0,.376-1.079v-.813a2.055,2.055,0,0,1-.694.579,2.074,2.074,0,0,1-.995.234,2.18,2.18,0,0,1-1.163-.323,2.278,2.278,0,0,1-.831-.9,2.774,2.774,0,0,1-.305-1.313,2.7,2.7,0,0,1,.305-1.3,2.236,2.236,0,0,1,.831-.88A2.227,2.227,0,0,1,151.069-8.934Zm1.689,2.511a1.764,1.764,0,0,0-.208-.875,1.459,1.459,0,0,0-.544-.566,1.423,1.423,0,0,0-.725-.195,1.448,1.448,0,0,0-.725.19,1.434,1.434,0,0,0-.544.557,1.739,1.739,0,0,0-.208.871,1.815,1.815,0,0,0,.208.884,1.466,1.466,0,0,0,.548.579,1.406,1.406,0,0,0,.721.2,1.423,1.423,0,0,0,.725-.195,1.451,1.451,0,0,0,.544-.57A1.789,1.789,0,0,0,152.758-6.422Zm2.007-.018a2.7,2.7,0,0,1,.305-1.3,2.236,2.236,0,0,1,.831-.88,2.227,2.227,0,0,1,1.163-.314,2.127,2.127,0,0,1,1,.225,2.037,2.037,0,0,1,.685.561v-.707h1.017v4.872h-1.017v-.725a2,2,0,0,1-.7.575,2.153,2.153,0,0,1-1.008.23,2.142,2.142,0,0,1-1.149-.323,2.289,2.289,0,0,1-.827-.9A2.774,2.774,0,0,1,154.765-6.44Zm3.988.018a1.764,1.764,0,0,0-.208-.875A1.459,1.459,0,0,0,158-7.864a1.423,1.423,0,0,0-.725-.195,1.448,1.448,0,0,0-.725.19,1.434,1.434,0,0,0-.544.557,1.739,1.739,0,0,0-.208.871,1.815,1.815,0,0,0,.208.884,1.466,1.466,0,0,0,.548.579,1.406,1.406,0,0,0,.721.2A1.423,1.423,0,0,0,158-4.972a1.451,1.451,0,0,0,.544-.57A1.789,1.789,0,0,0,158.752-6.422Zm4.111,2.52a2.455,2.455,0,0,1-1.03-.208,1.809,1.809,0,0,1-.721-.566,1.41,1.41,0,0,1-.283-.8h1.043a.711.711,0,0,0,.3.517,1.075,1.075,0,0,0,.676.208,1.139,1.139,0,0,0,.659-.164.494.494,0,0,0,.234-.42.431.431,0,0,0-.261-.407,4.889,4.889,0,0,0-.827-.292,7.979,7.979,0,0,1-.893-.292,1.566,1.566,0,0,1-.6-.433,1.135,1.135,0,0,1-.252-.769,1.2,1.2,0,0,1,.23-.712,1.531,1.531,0,0,1,.659-.508,2.461,2.461,0,0,1,.986-.186,2.036,2.036,0,0,1,1.34.42,1.508,1.508,0,0,1,.544,1.145H163.66a.718.718,0,0,0-.265-.522.992.992,0,0,0-.645-.195,1.048,1.048,0,0,0-.61.15.465.465,0,0,0-.212.4.431.431,0,0,0,.141.327,1.008,1.008,0,0,0,.345.208q.2.075.6.19a6.541,6.541,0,0,1,.871.287,1.621,1.621,0,0,1,.588.429,1.134,1.134,0,0,1,.256.752,1.261,1.261,0,0,1-.23.743,1.524,1.524,0,0,1-.65.513A2.422,2.422,0,0,1,162.864-3.9Zm3.36-.018a.624.624,0,0,1-.46-.186.624.624,0,0,1-.186-.46.624.624,0,0,1,.186-.46.624.624,0,0,1,.46-.186.614.614,0,0,1,.451.186.624.624,0,0,1,.186.46.624.624,0,0,1-.186.46A.614.614,0,0,1,166.224-3.92Z" transform="translate(-7522.058 5072.89)"/>
      <path id="Android_UI" data-name="Android UI" d="M5.957-9.962v6.145H4.949V-6.5H2.058v2.688H1.05V-9.962H2.058v2.635H4.949V-9.962ZM9.4-3.737A2.5,2.5,0,0,1,8.15-4.051a2.255,2.255,0,0,1-.875-.884,2.667,2.667,0,0,1-.318-1.322,2.616,2.616,0,0,1,.327-1.317,2.26,2.26,0,0,1,.893-.884,2.591,2.591,0,0,1,1.264-.309,2.591,2.591,0,0,1,1.264.309,2.26,2.26,0,0,1,.893.884,2.616,2.616,0,0,1,.327,1.317,2.562,2.562,0,0,1-.336,1.317,2.326,2.326,0,0,1-.915.889A2.638,2.638,0,0,1,9.4-3.737Zm0-.875a1.5,1.5,0,0,0,.729-.186,1.415,1.415,0,0,0,.553-.557,1.791,1.791,0,0,0,.212-.9,1.828,1.828,0,0,0-.2-.9,1.373,1.373,0,0,0-.539-.553,1.475,1.475,0,0,0-.725-.186,1.45,1.45,0,0,0-.721.186,1.325,1.325,0,0,0-.526.553,1.9,1.9,0,0,0-.195.9,1.709,1.709,0,0,0,.4,1.216A1.329,1.329,0,0,0,9.4-4.613ZM19.467-8.689,17.956-3.817H16.895l-.981-3.6-.981,3.6H13.871L12.35-8.689h1.026l1.017,3.917,1.034-3.917h1.052l.99,3.9,1.008-3.9Zm8.948-.08a2.185,2.185,0,0,1,1.03.239,1.725,1.725,0,0,1,.716.707,2.3,2.3,0,0,1,.261,1.132v2.874h-1V-6.54a1.414,1.414,0,0,0-.327-1,1.164,1.164,0,0,0-.893-.349,1.179,1.179,0,0,0-.9.349,1.4,1.4,0,0,0-.332,1v2.723h-1V-6.54a1.414,1.414,0,0,0-.327-1,1.164,1.164,0,0,0-.893-.349,1.179,1.179,0,0,0-.9.349,1.4,1.4,0,0,0-.332,1v2.723H22.518V-8.689h1.008v.557a1.676,1.676,0,0,1,.628-.469,1.99,1.99,0,0,1,.813-.168,2.165,2.165,0,0,1,1.043.248,1.692,1.692,0,0,1,.707.716,1.634,1.634,0,0,1,.69-.7A2.039,2.039,0,0,1,28.415-8.768Zm7.7.08v4.872H35.109v-.575a1.631,1.631,0,0,1-.623.473,1.977,1.977,0,0,1-.818.172,2.185,2.185,0,0,1-1.03-.239,1.725,1.725,0,0,1-.716-.707,2.3,2.3,0,0,1-.261-1.132V-8.689h1v2.714a1.414,1.414,0,0,0,.327,1,1.164,1.164,0,0,0,.893.349,1.179,1.179,0,0,0,.9-.349,1.4,1.4,0,0,0,.332-1V-8.689Zm.99,2.431a2.761,2.761,0,0,1,.305-1.322,2.17,2.17,0,0,1,.844-.88,2.443,2.443,0,0,1,1.238-.309,2.429,2.429,0,0,1,1.463.42,2.068,2.068,0,0,1,.783,1.2H40.652a1.15,1.15,0,0,0-.424-.566,1.253,1.253,0,0,0-.734-.2,1.22,1.22,0,0,0-.986.438,1.852,1.852,0,0,0-.367,1.225,1.87,1.87,0,0,0,.367,1.229,1.215,1.215,0,0,0,.986.442,1.119,1.119,0,0,0,1.158-.769H41.74a2.177,2.177,0,0,1-.8,1.18,2.348,2.348,0,0,1-1.45.438,2.416,2.416,0,0,1-1.238-.314,2.2,2.2,0,0,1-.844-.884A2.761,2.761,0,0,1,37.107-6.257Zm8.161-2.511a2.043,2.043,0,0,1,.995.239,1.7,1.7,0,0,1,.69.707A2.36,2.36,0,0,1,47.2-6.691v2.874h-1V-6.54a1.414,1.414,0,0,0-.327-1,1.164,1.164,0,0,0-.893-.349,1.179,1.179,0,0,0-.9.349,1.4,1.4,0,0,0-.332,1v2.723H42.748V-10.36h1.008v2.237a1.69,1.69,0,0,1,.65-.477A2.173,2.173,0,0,1,45.268-8.768Zm5.181,2.493a2.7,2.7,0,0,1,.305-1.3,2.236,2.236,0,0,1,.831-.88,2.243,2.243,0,0,1,1.172-.314,2.285,2.285,0,0,1,.942.208,1.927,1.927,0,0,1,.738.553V-10.36h1.017v6.543H54.437v-.734a1.887,1.887,0,0,1-.685.584,2.126,2.126,0,0,1-1,.23,2.18,2.18,0,0,1-1.163-.323,2.278,2.278,0,0,1-.831-.9A2.774,2.774,0,0,1,50.449-6.275Zm3.988.018a1.764,1.764,0,0,0-.208-.875,1.459,1.459,0,0,0-.544-.566,1.423,1.423,0,0,0-.725-.195,1.448,1.448,0,0,0-.725.19,1.434,1.434,0,0,0-.544.557,1.739,1.739,0,0,0-.208.871,1.815,1.815,0,0,0,.208.884,1.466,1.466,0,0,0,.548.579,1.406,1.406,0,0,0,.721.2,1.423,1.423,0,0,0,.725-.195,1.451,1.451,0,0,0,.544-.57A1.789,1.789,0,0,0,54.437-6.257Zm4.456,2.52a2.5,2.5,0,0,1-1.247-.314,2.255,2.255,0,0,1-.875-.884,2.667,2.667,0,0,1-.318-1.322,2.616,2.616,0,0,1,.327-1.317,2.26,2.26,0,0,1,.893-.884,2.591,2.591,0,0,1,1.264-.309,2.591,2.591,0,0,1,1.264.309,2.26,2.26,0,0,1,.893.884,2.616,2.616,0,0,1,.327,1.317,2.562,2.562,0,0,1-.336,1.317,2.326,2.326,0,0,1-.915.889A2.638,2.638,0,0,1,58.893-3.737Zm0-.875a1.5,1.5,0,0,0,.729-.186,1.415,1.415,0,0,0,.553-.557,1.791,1.791,0,0,0,.212-.9,1.828,1.828,0,0,0-.2-.9,1.373,1.373,0,0,0-.539-.553,1.475,1.475,0,0,0-.725-.186,1.45,1.45,0,0,0-.721.186,1.325,1.325,0,0,0-.526.553,1.9,1.9,0,0,0-.195.9,1.709,1.709,0,0,0,.4,1.216A1.329,1.329,0,0,0,58.893-4.613ZM69.105-8.689,66.117-1.527H65.074l.99-2.37L64.145-8.689h1.123l1.37,3.714,1.424-3.714Zm2.874,4.951a2.5,2.5,0,0,1-1.247-.314,2.255,2.255,0,0,1-.875-.884,2.667,2.667,0,0,1-.318-1.322,2.616,2.616,0,0,1,.327-1.317,2.26,2.26,0,0,1,.893-.884,2.591,2.591,0,0,1,1.264-.309,2.591,2.591,0,0,1,1.264.309,2.26,2.26,0,0,1,.893.884,2.616,2.616,0,0,1,.327,1.317,2.562,2.562,0,0,1-.336,1.317,2.326,2.326,0,0,1-.915.889A2.638,2.638,0,0,1,71.979-3.737Zm0-.875a1.5,1.5,0,0,0,.729-.186,1.415,1.415,0,0,0,.553-.557,1.791,1.791,0,0,0,.212-.9,1.828,1.828,0,0,0-.2-.9,1.373,1.373,0,0,0-.539-.553,1.475,1.475,0,0,0-.725-.186,1.45,1.45,0,0,0-.721.186,1.325,1.325,0,0,0-.526.553,1.9,1.9,0,0,0-.195.9,1.709,1.709,0,0,0,.4,1.216A1.329,1.329,0,0,0,71.979-4.613Zm7.94-4.076v4.872H78.911v-.575a1.632,1.632,0,0,1-.623.473,1.977,1.977,0,0,1-.818.172,2.185,2.185,0,0,1-1.03-.239,1.725,1.725,0,0,1-.716-.707,2.3,2.3,0,0,1-.261-1.132V-8.689h1v2.714a1.414,1.414,0,0,0,.327,1,1.164,1.164,0,0,0,.893.349,1.179,1.179,0,0,0,.9-.349,1.4,1.4,0,0,0,.332-1V-8.689Zm10.168,0L88.575-3.817H87.514l-.981-3.6-.981,3.6H84.49L82.969-8.689h1.026l1.017,3.917,1.034-3.917H87.1l.99,3.9,1.008-3.9ZM90.5-6.275a2.7,2.7,0,0,1,.305-1.3,2.236,2.236,0,0,1,.831-.88A2.227,2.227,0,0,1,92.8-8.768a2.127,2.127,0,0,1,1,.225,2.037,2.037,0,0,1,.685.561v-.707h1.017v4.872H94.49v-.725a2,2,0,0,1-.7.575,2.153,2.153,0,0,1-1.008.23,2.142,2.142,0,0,1-1.149-.323,2.289,2.289,0,0,1-.827-.9A2.774,2.774,0,0,1,90.5-6.275Zm3.988.018a1.764,1.764,0,0,0-.208-.875,1.459,1.459,0,0,0-.544-.566,1.423,1.423,0,0,0-.725-.195,1.448,1.448,0,0,0-.725.19,1.434,1.434,0,0,0-.544.557,1.739,1.739,0,0,0-.208.871,1.815,1.815,0,0,0,.208.884,1.466,1.466,0,0,0,.548.579,1.406,1.406,0,0,0,.721.2,1.423,1.423,0,0,0,.725-.195,1.451,1.451,0,0,0,.544-.57A1.789,1.789,0,0,0,94.49-6.257Zm4.8-2.511a2.185,2.185,0,0,1,1.03.239,1.7,1.7,0,0,1,.712.707,2.327,2.327,0,0,1,.256,1.132v2.874h-1V-6.54a1.414,1.414,0,0,0-.327-1,1.164,1.164,0,0,0-.893-.349,1.179,1.179,0,0,0-.9.349,1.4,1.4,0,0,0-.332,1v2.723H96.833V-8.689h1.008v.557a1.668,1.668,0,0,1,.632-.469A2.021,2.021,0,0,1,99.291-8.768Zm4.456.9v2.7a.518.518,0,0,0,.128.393.637.637,0,0,0,.438.119h.619v.84h-.8a1.534,1.534,0,0,1-1.043-.318,1.312,1.312,0,0,1-.363-1.034v-2.7h-.575v-.822h.575V-9.9h1.017v1.211h1.185v.822Zm5.588,0v2.7a.518.518,0,0,0,.128.393.637.637,0,0,0,.438.119h.619v.84h-.8a1.534,1.534,0,0,1-1.043-.318,1.312,1.312,0,0,1-.363-1.034v-2.7h-.575v-.822h.575V-9.9h1.017v1.211h1.185v.822Zm4.226,4.129a2.5,2.5,0,0,1-1.247-.314,2.255,2.255,0,0,1-.875-.884,2.667,2.667,0,0,1-.318-1.322,2.616,2.616,0,0,1,.327-1.317,2.26,2.26,0,0,1,.893-.884,2.591,2.591,0,0,1,1.264-.309,2.591,2.591,0,0,1,1.264.309,2.26,2.26,0,0,1,.893.884,2.616,2.616,0,0,1,.327,1.317,2.562,2.562,0,0,1-.336,1.317,2.326,2.326,0,0,1-.915.889A2.638,2.638,0,0,1,113.562-3.737Zm0-.875a1.5,1.5,0,0,0,.729-.186,1.415,1.415,0,0,0,.553-.557,1.791,1.791,0,0,0,.212-.9,1.828,1.828,0,0,0-.2-.9,1.373,1.373,0,0,0-.539-.553,1.475,1.475,0,0,0-.725-.186,1.45,1.45,0,0,0-.721.186,1.325,1.325,0,0,0-.526.553,1.9,1.9,0,0,0-.195.9,1.709,1.709,0,0,0,.4,1.216A1.329,1.329,0,0,0,113.562-4.613ZM120.4-7.982a1.583,1.583,0,0,1,.588-.579,1.739,1.739,0,0,1,.871-.208v1.043H121.6a1.228,1.228,0,0,0-.9.3,1.437,1.437,0,0,0-.305,1.043v2.564h-1.008V-8.689H120.4Zm6.852,1.609a3.151,3.151,0,0,1-.035.5h-3.722a1.352,1.352,0,0,0,.433.937,1.368,1.368,0,0,0,.955.354,1.179,1.179,0,0,0,1.149-.681h1.088a2.195,2.195,0,0,1-.8,1.1,2.348,2.348,0,0,1-1.437.429,2.488,2.488,0,0,1-1.251-.314,2.233,2.233,0,0,1-.866-.884,2.7,2.7,0,0,1-.314-1.322,2.761,2.761,0,0,1,.305-1.322,2.145,2.145,0,0,1,.858-.88,2.552,2.552,0,0,1,1.269-.309,2.481,2.481,0,0,1,1.229.3,2.124,2.124,0,0,1,.84.844A2.543,2.543,0,0,1,127.249-6.372ZM126.2-6.691a1.147,1.147,0,0,0-.4-.893,1.423,1.423,0,0,0-.964-.336,1.3,1.3,0,0,0-.893.332,1.386,1.386,0,0,0-.442.9Zm1.706.416a2.7,2.7,0,0,1,.305-1.3,2.236,2.236,0,0,1,.831-.88,2.243,2.243,0,0,1,1.172-.314,2.126,2.126,0,0,1,1,.23,1.925,1.925,0,0,1,.676.557v-.707h1.017V-1.5h-1.017V-4.524a1.9,1.9,0,0,1-.69.557,2.226,2.226,0,0,1-1.026.23,2.12,2.12,0,0,1-1.145-.323,2.3,2.3,0,0,1-.822-.9A2.774,2.774,0,0,1,127.9-6.275Zm3.988.018a1.764,1.764,0,0,0-.208-.875,1.459,1.459,0,0,0-.544-.566,1.423,1.423,0,0,0-.725-.195,1.448,1.448,0,0,0-.725.19,1.434,1.434,0,0,0-.544.557,1.739,1.739,0,0,0-.208.871,1.815,1.815,0,0,0,.208.884,1.466,1.466,0,0,0,.548.579,1.406,1.406,0,0,0,.721.2,1.423,1.423,0,0,0,.725-.195,1.451,1.451,0,0,0,.544-.57A1.789,1.789,0,0,0,131.891-6.257Zm6.755-2.431v4.872h-1.008v-.575a1.632,1.632,0,0,1-.623.473,1.977,1.977,0,0,1-.818.172,2.185,2.185,0,0,1-1.03-.239,1.725,1.725,0,0,1-.716-.707,2.294,2.294,0,0,1-.261-1.132V-8.689h1v2.714a1.414,1.414,0,0,0,.327,1,1.164,1.164,0,0,0,.893.349,1.179,1.179,0,0,0,.9-.349,1.4,1.4,0,0,0,.332-1V-8.689Zm5.791,2.317a3.15,3.15,0,0,1-.035.5H140.68a1.352,1.352,0,0,0,.433.937,1.368,1.368,0,0,0,.955.354,1.179,1.179,0,0,0,1.149-.681H144.3a2.195,2.195,0,0,1-.8,1.1,2.348,2.348,0,0,1-1.437.429,2.488,2.488,0,0,1-1.251-.314,2.233,2.233,0,0,1-.867-.884,2.7,2.7,0,0,1-.314-1.322,2.76,2.76,0,0,1,.305-1.322,2.145,2.145,0,0,1,.858-.88,2.552,2.552,0,0,1,1.269-.309,2.481,2.481,0,0,1,1.229.3,2.124,2.124,0,0,1,.84.844A2.543,2.543,0,0,1,144.438-6.372Zm-1.052-.318a1.147,1.147,0,0,0-.4-.893,1.423,1.423,0,0,0-.964-.336,1.3,1.3,0,0,0-.893.332,1.386,1.386,0,0,0-.442.9ZM147.2-3.737a2.455,2.455,0,0,1-1.03-.208,1.809,1.809,0,0,1-.721-.566,1.411,1.411,0,0,1-.283-.8h1.043a.711.711,0,0,0,.3.517,1.075,1.075,0,0,0,.676.208,1.139,1.139,0,0,0,.659-.164.494.494,0,0,0,.234-.42.431.431,0,0,0-.261-.407,4.889,4.889,0,0,0-.827-.292,7.979,7.979,0,0,1-.893-.292,1.565,1.565,0,0,1-.6-.433,1.135,1.135,0,0,1-.252-.769,1.2,1.2,0,0,1,.23-.712,1.531,1.531,0,0,1,.659-.508,2.461,2.461,0,0,1,.986-.186,2.036,2.036,0,0,1,1.34.42A1.508,1.508,0,0,1,149-7.2h-1.008a.718.718,0,0,0-.265-.522.992.992,0,0,0-.645-.195,1.048,1.048,0,0,0-.61.15.465.465,0,0,0-.212.4.431.431,0,0,0,.141.327,1.008,1.008,0,0,0,.345.208q.2.075.6.19a6.541,6.541,0,0,1,.871.287,1.621,1.621,0,0,1,.588.429,1.135,1.135,0,0,1,.256.752,1.26,1.26,0,0,1-.23.743,1.524,1.524,0,0,1-.65.513A2.421,2.421,0,0,1,147.2-3.737Zm4.129-4.129v2.7a.518.518,0,0,0,.128.393.637.637,0,0,0,.438.119h.619v.84h-.8a1.534,1.534,0,0,1-1.043-.318,1.312,1.312,0,0,1-.363-1.034v-2.7h-.575v-.822h.575V-9.9h1.017v1.211h1.185v.822Zm3.767-2.184a2.064,2.064,0,0,1,1.446.5,1.738,1.738,0,0,1,.544,1.353,1.615,1.615,0,0,1-.566,1.344,2.342,2.342,0,0,1-1.5.451l-.035.7H154.1L154.057-7.1h.292a2.988,2.988,0,0,0,1.313-.23.887.887,0,0,0,.455-.875.983.983,0,0,0-.27-.734A1.02,1.02,0,0,0,155.1-9.2a1.057,1.057,0,0,0-.752.256.933.933,0,0,0-.274.716h-.946a1.865,1.865,0,0,1,.239-.946,1.63,1.63,0,0,1,.685-.645A2.239,2.239,0,0,1,155.092-10.051Zm-.566,6.3a.624.624,0,0,1-.46-.186.624.624,0,0,1-.186-.46.624.624,0,0,1,.186-.46.624.624,0,0,1,.46-.186.614.614,0,0,1,.451.186.624.624,0,0,1,.186.46.624.624,0,0,1-.186.46A.614.614,0,0,1,154.526-3.755Z" transform="translate(-7517.321 5000.728)"/>
      <path id="Path_43620" data-name="Path 43620" d="M-44.422-25.636v-1.992h4.512v17.351h-2.208V-25.636Zm19.319-.1h-8.424v5.472a3.982,3.982,0,0,1,1.632-1.26,5.548,5.548,0,0,1,2.328-.492,5.759,5.759,0,0,1,3.24.828,4.664,4.664,0,0,1,1.788,2.136A7.192,7.192,0,0,1-24-16.276a7.146,7.146,0,0,1-.648,3.1,4.916,4.916,0,0,1-1.98,2.16,6.359,6.359,0,0,1-3.3.792,6.175,6.175,0,0,1-4.08-1.3,5.4,5.4,0,0,1-1.9-3.456h2.136a3.584,3.584,0,0,0,1.32,2.136,4.077,4.077,0,0,0,2.544.768,3.523,3.523,0,0,0,2.856-1.14,4.52,4.52,0,0,0,.96-3.012,4.058,4.058,0,0,0-.96-2.892,3.706,3.706,0,0,0-2.832-1.02,4,4,0,0,0-2.22.612,3.528,3.528,0,0,0-1.38,1.668h-2.064v-9.792H-25.1Zm5.064,15.6a1.436,1.436,0,0,1-1.056-.432,1.436,1.436,0,0,1-.432-1.056,1.436,1.436,0,0,1,.432-1.056,1.436,1.436,0,0,1,1.056-.432,1.369,1.369,0,0,1,1.02.432,1.458,1.458,0,0,1,.42,1.056,1.458,1.458,0,0,1-.42,1.056A1.369,1.369,0,0,1-20.039-10.133Zm3.984-9a12.9,12.9,0,0,1,1.344-6.444q1.344-2.316,4.7-2.316,3.336,0,4.68,2.316a12.9,12.9,0,0,1,1.344,6.444A13.149,13.149,0,0,1-5.327-12.6q-1.344,2.328-4.68,2.328-3.36,0-4.7-2.328A13.149,13.149,0,0,1-16.055-19.132Zm9.912,0a19.316,19.316,0,0,0-.276-3.54,4.5,4.5,0,0,0-1.128-2.34,3.251,3.251,0,0,0-2.46-.888,3.284,3.284,0,0,0-2.484.888,4.5,4.5,0,0,0-1.128,2.34,19.316,19.316,0,0,0-.276,3.54,20,20,0,0,0,.276,3.624,4.512,4.512,0,0,0,1.128,2.352,3.284,3.284,0,0,0,2.484.888,3.251,3.251,0,0,0,2.46-.888,4.512,4.512,0,0,0,1.128-2.352A20,20,0,0,0-6.143-19.132Zm5.16,0A12.9,12.9,0,0,1,.36-25.576q1.344-2.316,4.7-2.316,3.336,0,4.68,2.316a12.9,12.9,0,0,1,1.344,6.444A13.149,13.149,0,0,1,9.744-12.6Q8.4-10.277,5.064-10.277q-3.36,0-4.7-2.328A13.149,13.149,0,0,1-.983-19.132Zm9.912,0a19.317,19.317,0,0,0-.276-3.54,4.5,4.5,0,0,0-1.128-2.34,3.251,3.251,0,0,0-2.46-.888,3.284,3.284,0,0,0-2.484.888,4.5,4.5,0,0,0-1.128,2.34,19.317,19.317,0,0,0-.276,3.54,20,20,0,0,0,.276,3.624A4.512,4.512,0,0,0,2.58-13.157a3.284,3.284,0,0,0,2.484.888,3.251,3.251,0,0,0,2.46-.888,4.512,4.512,0,0,0,1.128-2.352A20,20,0,0,0,8.928-19.132Z" transform="translate(-7423.518 5040.659)"/>
      <path id="Path_43621" data-name="Path 43621" d="M5.679,10.425a1.887,1.887,0,0,1-.243.925,2,2,0,0,1-.712.733,2.37,2.37,0,0,1-1.127.333v.818H3.052v-.818a2.52,2.52,0,0,1-1.5-.591,1.689,1.689,0,0,1-.586-1.3h.98a1.23,1.23,0,0,0,1.1,1.132V9.131A7.19,7.19,0,0,1,1.96,8.778a1.785,1.785,0,0,1-.707-.566A1.657,1.657,0,0,1,.96,7.181a1.777,1.777,0,0,1,.571-1.354,2.364,2.364,0,0,1,1.521-.6V4.392H3.6v.839a2.261,2.261,0,0,1,1.384.551,1.9,1.9,0,0,1,.606,1.248h-.98a1.188,1.188,0,0,0-.313-.642,1.264,1.264,0,0,0-.7-.379V8.474a8.013,8.013,0,0,1,1.086.349,1.6,1.6,0,0,1,1,1.6ZM1.9,7.13a.965.965,0,0,0,.293.758,2.269,2.269,0,0,0,.859.435V5.989a1.4,1.4,0,0,0-.839.339A1.037,1.037,0,0,0,1.9,7.13Zm1.7,4.537a1.313,1.313,0,0,0,.854-.394,1.135,1.135,0,0,0,.308-.8.964.964,0,0,0-.3-.763A2.225,2.225,0,0,0,3.6,9.283Z" transform="translate(-7499.604 5005.397)"/>
      <rect id="Base-2" data-name="Base" width="214.098" height="31.578" rx="12" transform="translate(-7551.67 4936.912)" fill="#f2f2f2"/>
      <g transform="matrix(1, 0, 0, 1, -7627.88, 4842.06)" filter="url(#Base)">
        <rect id="Base-3" data-name="Base" width="104.207" height="23.999" rx="12" transform="translate(80 98.64)" fill="#fff"/>
      </g>
      <path id="USD" d="M-11.273-8.42v3.274a1.122,1.122,0,0,0,.28.822,1.057,1.057,0,0,0,.788.284,1.068,1.068,0,0,0,.8-.284,1.122,1.122,0,0,0,.28-.822V-8.42H-8.06v3.266a2.109,2.109,0,0,1-.292,1.141,1.851,1.851,0,0,1-.781.7,2.478,2.478,0,0,1-1.088.235,2.412,2.412,0,0,1-1.072-.235,1.789,1.789,0,0,1-.762-.7,2.175,2.175,0,0,1-.28-1.141V-8.42Zm6.695,5.343a2.513,2.513,0,0,1-1-.189,1.636,1.636,0,0,1-.7-.546,1.437,1.437,0,0,1-.265-.841H-5.4a.735.735,0,0,0,.231.515.819.819,0,0,0,.572.189.88.88,0,0,0,.584-.178.579.579,0,0,0,.212-.466.539.539,0,0,0-.144-.387,1.009,1.009,0,0,0-.36-.239A5.957,5.957,0,0,0-4.9-5.411a6.372,6.372,0,0,1-.837-.3A1.467,1.467,0,0,1-6.3-6.158a1.274,1.274,0,0,1-.231-.8,1.43,1.43,0,0,1,.235-.818,1.494,1.494,0,0,1,.659-.534,2.4,2.4,0,0,1,.97-.186,2.1,2.1,0,0,1,1.33.4,1.475,1.475,0,0,1,.565,1.11H-3.934a.606.606,0,0,0-.231-.451.871.871,0,0,0-.572-.178.737.737,0,0,0-.5.159A.575.575,0,0,0-5.42-7a.478.478,0,0,0,.14.352,1.069,1.069,0,0,0,.349.227q.208.087.587.2a6.17,6.17,0,0,1,.841.3,1.511,1.511,0,0,1,.561.455,1.263,1.263,0,0,1,.235.8,1.5,1.5,0,0,1-.22.788,1.552,1.552,0,0,1-.644.58A2.2,2.2,0,0,1-4.578-3.077ZM.691-8.42a3.16,3.16,0,0,1,1.466.326,2.328,2.328,0,0,1,.978.928,2.765,2.765,0,0,1,.345,1.4,2.724,2.724,0,0,1-.345,1.391,2.342,2.342,0,0,1-.978.921A3.16,3.16,0,0,1,.691-3.13H-1.158V-8.42ZM.653-4.032a1.743,1.743,0,0,0,1.288-.455A1.732,1.732,0,0,0,2.4-5.768,1.772,1.772,0,0,0,1.942-7.06,1.718,1.718,0,0,0,.653-7.526H-.1v3.494Z" transform="translate(-7491.233 4958.673)" fill="#373464"/>
      <path id="EURO" d="M-9.371-3.927h1.743v.841h-2.8v-5.29h1.061ZM-3.321-5.8a1.189,1.189,0,0,1,.735.447,1.306,1.306,0,0,1,.288.834,1.343,1.343,0,0,1-.208.747,1.388,1.388,0,0,1-.6.5,2.207,2.207,0,0,1-.932.182H-6.322v-5.29h2.183a2.264,2.264,0,0,1,.928.174,1.322,1.322,0,0,1,.591.485,1.27,1.27,0,0,1,.2.7,1.206,1.206,0,0,1-.246.773A1.318,1.318,0,0,1-3.321-5.8Zm-1.94-.394h.97a.888.888,0,0,0,.584-.171.6.6,0,0,0,.2-.489.612.612,0,0,0-.2-.493.875.875,0,0,0-.584-.174h-.97ZM-4.192-3.95a.908.908,0,0,0,.6-.182.636.636,0,0,0,.216-.515A.664.664,0,0,0-3.6-5.182a.917.917,0,0,0-.614-.193H-5.261V-3.95ZM3.04-6.739a1.647,1.647,0,0,1-.2.8,1.475,1.475,0,0,1-.629.6,2.288,2.288,0,0,1-1.08.227H.244v2.031H-.817v-5.29H1.131a2.354,2.354,0,0,1,1.046.212,1.478,1.478,0,0,1,.648.584A1.642,1.642,0,0,1,3.04-6.739Zm-1.955.765a.919.919,0,0,0,.652-.2.74.74,0,0,0,.212-.565q0-.773-.864-.773H.244v1.538Z" transform="translate(-7387.411 4958.629)" fill="#9c9da2"/>
      <path id="Path_12910" data-name="Path 12910" d="M15.321,17.5a5.679,5.679,0,0,1-.79,2.906,6.148,6.148,0,0,1-2.325,2.236,8.4,8.4,0,0,1-3.622,1.028v2.414H6.677V23.638a8.409,8.409,0,0,1-4.8-1.8A5.328,5.328,0,0,1,0,17.676H4.471A2.623,2.623,0,0,0,6.677,20.27V14.576A26.2,26.2,0,0,1,3.219,13.5,5.59,5.59,0,0,1,.954,11.774,5.061,5.061,0,0,1,0,8.525,5.378,5.378,0,0,1,1.863,4.292,8.045,8.045,0,0,1,6.677,2.414V0H8.585V2.414A7.754,7.754,0,0,1,13.16,4.143a5.813,5.813,0,0,1,1.923,4.114h-4.5a2.756,2.756,0,0,0-2-2.414v5.634a28.817,28.817,0,0,1,3.532,1.088,5.536,5.536,0,0,1,2.251,1.7A5,5,0,0,1,15.321,17.5ZM4.352,8.316a2.187,2.187,0,0,0,.6,1.595,4.339,4.339,0,0,0,1.729,1V5.753a2.8,2.8,0,0,0-1.7.8A2.441,2.441,0,0,0,4.352,8.316ZM8.585,20.329a3.033,3.033,0,0,0,1.774-.924A2.5,2.5,0,0,0,11,17.676a2.08,2.08,0,0,0-.626-1.58,4.737,4.737,0,0,0-1.788-.984Z" transform="translate(-7538.309 4883.624) rotate(1)" fill="#373464"/>
      <path id="Path_12911" data-name="Path 12911" d="M8.5,9.71a3.152,3.152,0,0,1-.438,1.613,3.412,3.412,0,0,1-1.29,1.241,4.66,4.66,0,0,1-2.01.571v1.34H3.705V13.118a4.667,4.667,0,0,1-2.663-1A2.957,2.957,0,0,1,0,9.81H2.481a1.456,1.456,0,0,0,1.224,1.439V8.089a14.541,14.541,0,0,1-1.919-.6A3.1,3.1,0,0,1,.529,6.534,2.808,2.808,0,0,1,0,4.731,2.985,2.985,0,0,1,1.034,2.382,4.465,4.465,0,0,1,3.705,1.34V0H4.764V1.34A4.3,4.3,0,0,1,7.3,2.3,3.226,3.226,0,0,1,8.37,4.582h-2.5a1.529,1.529,0,0,0-1.108-1.34V6.369a15.992,15.992,0,0,1,1.96.6,3.072,3.072,0,0,1,1.249.943A2.773,2.773,0,0,1,8.5,9.71ZM2.415,4.615a1.213,1.213,0,0,0,.331.885,2.408,2.408,0,0,0,.959.554V3.193a1.552,1.552,0,0,0-.943.447A1.355,1.355,0,0,0,2.415,4.615Zm2.349,6.667a1.683,1.683,0,0,0,.984-.513A1.388,1.388,0,0,0,6.1,9.81a1.154,1.154,0,0,0-.347-.877,2.629,2.629,0,0,0-.993-.546Z" transform="translate(-7511.322 4908.668) rotate(20)" fill="#373464"/>
      <path id="Path_12912" data-name="Path 12912" d="M4.768,5.445a1.767,1.767,0,0,1-.246.9,1.913,1.913,0,0,1-.724.7,2.613,2.613,0,0,1-1.127.32v.751H2.078V7.356A2.617,2.617,0,0,1,.584,6.795,1.658,1.658,0,0,1,0,5.5H1.391a.816.816,0,0,0,.686.807V4.536A8.154,8.154,0,0,1,1,4.2a1.74,1.74,0,0,1-.7-.538A1.575,1.575,0,0,1,0,2.653,1.674,1.674,0,0,1,.58,1.336a2.5,2.5,0,0,1,1.5-.584V0h.594V.751A2.413,2.413,0,0,1,4.1,1.289a1.809,1.809,0,0,1,.6,1.28h-1.4a.858.858,0,0,0-.621-.751V3.571a8.968,8.968,0,0,1,1.1.339,1.723,1.723,0,0,1,.7.529A1.555,1.555,0,0,1,4.768,5.445ZM1.354,2.588a.68.68,0,0,0,.186.5,1.35,1.35,0,0,0,.538.311V1.79a.87.87,0,0,0-.529.25A.76.76,0,0,0,1.354,2.588ZM2.671,6.326a.944.944,0,0,0,.552-.288.778.778,0,0,0,.2-.538.647.647,0,0,0-.195-.492A1.474,1.474,0,0,0,2.671,4.7Z" transform="translate(-7512.581 4893.396) rotate(20)" fill="#373464"/>
      <path id="Path_11320" data-name="Path 11320" d="M2.832,11.873H7.484v2.245H0V0H2.832Zm7.706,2.387a1.752,1.752,0,0,1-1.264-.475,1.66,1.66,0,0,1,0-2.366,1.752,1.752,0,0,1,1.264-.475,1.691,1.691,0,0,1,1.234.475,1.685,1.685,0,0,1,0,2.366A1.691,1.691,0,0,1,10.538,14.259Zm6.836-2.387h4.652v2.245H14.542V0h2.832Z" transform="translate(-7315.195 5015.141) rotate(-12)" fill="#373464"/>
      <path id="Path_11998" data-name="Path 11998" d="M1.262,5.293H3.336v1H0V0H1.262ZM4.7,6.357a.781.781,0,0,1-.564-.212.74.74,0,0,1,0-1.055A.781.781,0,0,1,4.7,4.878a.754.754,0,0,1,.55.212.751.751,0,0,1,0,1.055A.754.754,0,0,1,4.7,6.357ZM7.745,5.293H9.819v1H6.483V0H7.745Z" transform="translate(-7295.269 5033.702) rotate(-2)" fill="#373464"/>
      <path id="Path_43473" data-name="Path 43473" d="M19.063,7.061l-4.915,4.92a1.278,1.278,0,0,1-.891.366,1.253,1.253,0,0,1-.884-2.141l2.774-2.78H1.255A1.248,1.248,0,0,1,0,6.171,1.259,1.259,0,0,1,1.255,4.915H15.143L12.374,2.141a1.251,1.251,0,0,1,0-1.775A1.237,1.237,0,0,1,13.258,0a1.254,1.254,0,0,1,.891.366l4.915,4.92a1.253,1.253,0,0,1,0,1.775" transform="translate(-7585.113 5053.506) rotate(90)" fill="#005c8a"/>
      <g id="Group_39901" data-name="Group 39901" transform="translate(-7611.527 5027.352)">
        <path id="Path_9517" data-name="Path 9517" d="M49.3-73.788a4.338,4.338,0,0,1-4.337,4.337,4.338,4.338,0,0,1-4.337-4.337,4.338,4.338,0,0,1,4.337-4.337A4.338,4.338,0,0,1,49.3-73.788" transform="translate(-24.722 85.354)" fill="#005c8a"/>
        <path id="Path_9518" data-name="Path 9518" d="M42.394-93.75H10.587A4.338,4.338,0,0,0,6.25-89.413v14.458a4.338,4.338,0,0,0,4.337,4.337H42.394a4.338,4.338,0,0,0,4.337-4.337V-89.413A4.338,4.338,0,0,0,42.394-93.75ZM13.479-86.521H12.033a1.445,1.445,0,0,1-1.446-1.446,1.445,1.445,0,0,1,1.446-1.446h1.446a1.445,1.445,0,0,1,1.446,1.446A1.445,1.445,0,0,1,13.479-86.521ZM26.491-74.955a7.221,7.221,0,0,1-5.111-2.118,7.22,7.22,0,0,1-2.118-5.111,7.221,7.221,0,0,1,2.118-5.111,7.22,7.22,0,0,1,5.111-2.118A7.22,7.22,0,0,1,31.6-87.295a7.22,7.22,0,0,1,2.118,5.111A7.22,7.22,0,0,1,31.6-77.073,7.22,7.22,0,0,1,26.491-74.955Zm14.458,0H39.5A1.445,1.445,0,0,1,38.057-76.4,1.445,1.445,0,0,1,39.5-77.847h1.446A1.445,1.445,0,0,1,42.394-76.4,1.445,1.445,0,0,1,40.948-74.955Z" transform="translate(-6.25 93.75)" fill="#005c8a"/>
      </g>
    </g>
  </g>
</svg>
