<svg xmlns="http://www.w3.org/2000/svg" xmlns:xlink="http://www.w3.org/1999/xlink" width="784" height="664" viewBox="0 0 784 664">
  <defs>
    <linearGradient id="linear-gradient" x1="0.5" x2="0.5" y2="1" gradientUnits="objectBoundingBox">
      <stop offset="0" stop-color="#226d96"/>
      <stop offset="1" stop-color="#373464"/>
    </linearGradient>
  </defs>
  <g id="Group_39680" data-name="Group 39680" transform="translate(-1027 -5512)">
    <rect id="Rectangle_21799" data-name="Rectangle 21799" width="784" height="664" rx="20" transform="translate(1811 6176) rotate(180)" fill="#f0f0f3"/>
    <g id="Group_39524" data-name="Group 39524" transform="translate(-4.403)">
      <g id="Group_39523" data-name="Group 39523" transform="translate(0.067)">
        <rect id="Rectangle_21851" data-name="Rectangle 21851" width="483.668" height="400.809" rx="12" transform="translate(1181.933 5630)" fill="#c4d9e4"/>
        <rect id="Rectangle_21852" data-name="Rectangle 21852" width="462.668" height="381.809" rx="12" transform="translate(1191.935 5639)" fill="#fff"/>
      </g>
      <g id="Group_39519" data-name="Group 39519" transform="translate(1109.291 4837.639)">
        <path id="Path_42546" data-name="Path 42546" d="M24.608,50.75c-2.8-.13-5.563-.223-8.322-.4a3.034,3.034,0,0,1-2.915-3.07,118.439,118.439,0,0,1,0-16.308,3.149,3.149,0,0,1,3.054-3.054,126.246,126.246,0,0,1,16.31,0,3.088,3.088,0,0,1,3.073,3.02,107.519,107.519,0,0,1,0,16.485,2.977,2.977,0,0,1-2.857,2.925c-2.788.177-5.582.273-8.343.4" transform="translate(527.358 1147.495)" fill="#216d96"/>
        <path id="Path_42547" data-name="Path 42547" d="M18.645,38.651c.1,2.56.214,5.115.3,7.67.065,1.981-.777,2.7-2.711,2.372A63.81,63.81,0,0,1,3.291,45.21,4.765,4.765,0,0,1,.033,40.594c-.041-1.353-.048-2.709.005-4.061a4.714,4.714,0,0,1,3.171-4.488A64.113,64.113,0,0,1,16.4,28.48c1.684-.3,2.593.511,2.541,2.238-.079,2.644-.2,5.29-.3,7.933" transform="translate(518 1148.041)" fill="#216d96"/>
        <path id="Path_42548" data-name="Path 42548" d="M24.01,33.21c-2.593.1-5.177.206-7.761.285-1.861.058-2.631-.809-2.31-2.617a64.051,64.051,0,0,1,3.546-13.106,4.655,4.655,0,0,1,4.306-3.154,40.76,40.76,0,0,1,4.508,0,4.64,4.64,0,0,1,4.311,3.148,63.141,63.141,0,0,1,3.558,13.288c.269,1.595-.506,2.488-2.138,2.444-2.675-.075-5.35-.19-8.02-.288" transform="translate(527.913 1138.13)" fill="#216d96"/>
        <path id="Path_42549" data-name="Path 42549" d="M47.579,38.66a28.706,28.706,0,0,1-.278,3.13,4.36,4.36,0,0,1-2.788,3.287,63.061,63.061,0,0,1-13.7,3.7,1.874,1.874,0,0,1-2.264-2.111c.038-1.742.216-3.483.209-5.223-.017-3.394-.118-6.786-.185-10.179-.005-.151-.022-.3-.026-.451-.063-1.8.881-2.658,2.634-2.315,2.061.4,4.136.767,6.158,1.324,2.4.66,4.765,1.435,7.1,2.294A4.48,4.48,0,0,1,47.461,36.4c.038.749.005,1.5.005,2.253l.113,0" transform="translate(538.405 1148.044)" fill="#216d96"/>
        <path id="Path_42550" data-name="Path 42550" d="M23.993,43.45c2.56-.11,5.115-.2,7.669-.334,1.969-.1,2.809.772,2.468,2.72A62.751,62.751,0,0,1,30.6,58.854,4.651,4.651,0,0,1,26.121,62a41.025,41.025,0,0,1-5.3-.175,4.069,4.069,0,0,1-3.239-2.713,62.258,62.258,0,0,1-3.656-13.449c-.3-1.768.58-2.648,2.4-2.555,2.553.127,5.108.226,7.662.338" transform="translate(527.914 1158.538)" fill="#216d96"/>
        <path id="Path_42551" data-name="Path 42551" d="M47.186,35.989c-.127.864-.593,1.067-1.254.88-1.615-.456-3.208-1.012-4.841-1.394q-4.159-.97-8.361-1.765c-1.972-.376-3.085-1.315-3.414-3.277a79.817,79.817,0,0,0-3.1-12.847,3.015,3.015,0,0,1-.106-.526c-.161-1.049.333-1.526,1.334-1.154a28.719,28.719,0,0,1,3.452,1.533A33.972,33.972,0,0,1,46.865,34.983c.147.357.237.737.321,1.007" transform="translate(536.641 1139.005)" fill="#216d96"/>
        <path id="Path_42552" data-name="Path 42552" d="M22.316,16.9c-.108.382-.262.869-.381,1.365C21,22.2,20,26.122,19.149,30.076c-.472,2.193-1.415,3.265-3.61,3.62a71.557,71.557,0,0,0-11.9,2.836A3.9,3.9,0,0,1,2.6,36.8c-.389.019-.971.05-1.135-.173a1.458,1.458,0,0,1-.1-1.238A44.686,44.686,0,0,1,3.74,30.45a33.83,33.83,0,0,1,16.6-14.35,3.643,3.643,0,0,1,1.031-.292c.669-.063,1.01.316.943,1.089" transform="translate(518.909 1139.021)" fill="#216d96"/>
        <path id="Path_42553" data-name="Path 42553" d="M2.411,40.639a6.439,6.439,0,0,1,.717.175,80.585,80.585,0,0,0,12.942,3.1,3.427,3.427,0,0,1,2.949,2.881,85.131,85.131,0,0,0,3.159,13.2c.151.448.132,1.3-.122,1.458a1.989,1.989,0,0,1-1.566-.022A33.834,33.834,0,0,1,1.471,42.412c-.5-1.209-.207-1.838.94-1.773" transform="translate(518.884 1156.772)" fill="#216d96"/>
        <path id="Path_42554" data-name="Path 42554" d="M46.079,40.624c.821-.015,1.1.37,1.007,1.025a4.292,4.292,0,0,1-.317,1.027A34.016,34.016,0,0,1,28.108,61.363a.791.791,0,0,1-.252.093c-.538.029-1.077.048-1.615.069a5.926,5.926,0,0,1-.043-1.619c.791-3.171,1.667-6.319,2.461-9.488.29-1.163.422-2.363.645-3.543a3.5,3.5,0,0,1,2.98-2.958,79.582,79.582,0,0,0,12.94-3.1,7.19,7.19,0,0,1,.856-.2" transform="translate(536.69 1156.764)" fill="#216d96"/>
        <path id="Path_42555" data-name="Path 42555" d="M52.491,75.763c9.2-8.557,12.434-19.432,9.9-32.11A35.859,35.859,0,0,0,51.246,24.044C42.531,15.991,32.348,12.5,20.8,13.6c-.144.014-.283.057-.593.122.36.252.592.413.821.576,2.082,1.464,4.174,2.917,6.242,4.4a1.879,1.879,0,0,1,.748,2.336,1.821,1.821,0,0,1-2.15,1.067,2.97,2.97,0,0,1-.938-.432c-3.428-2.392-6.859-4.781-10.261-7.211a2.638,2.638,0,0,1-.725-3.941q3.323-4.748,6.66-9.485A1.987,1.987,0,0,1,23.5.379a2,2,0,0,1,.41,2.946c-1.471,2.109-2.955,4.21-4.5,6.413.3,0,.489.022.674,0A42.112,42.112,0,0,1,44.2,14.381c.878.451,1.737.94,2.6,1.411l4.606,3.236a4.341,4.341,0,0,0,.427.46,41.852,41.852,0,0,1,8.444,9.346c12.174,18.33,7.924,42.183-9.816,53.557-5.559,3.563-7.185,4.263-7.919,3.893-3.7-1.867,4.241-3.912,9.944-10.52" transform="translate(527.548 1127.726)" fill="#216d96"/>
      </g>
      <g id="Group_39522" data-name="Group 39522" transform="translate(24.533 11.939)">
        <path id="Path_42748" data-name="Path 42748" d="M15.845,18.1a5.874,5.874,0,0,1-.817,3.006,6.358,6.358,0,0,1-2.4,2.312,8.685,8.685,0,0,1-3.745,1.064v2.5H6.905V24.446a8.7,8.7,0,0,1-4.963-1.865A5.51,5.51,0,0,1,0,18.28H4.624a2.713,2.713,0,0,0,2.281,2.682V15.074a27.1,27.1,0,0,1-3.576-1.11A5.781,5.781,0,0,1,.986,12.177,5.234,5.234,0,0,1,0,8.817,5.562,5.562,0,0,1,1.927,4.439,8.32,8.32,0,0,1,6.905,2.5V0H8.878V2.5A8.019,8.019,0,0,1,13.61,4.285,6.012,6.012,0,0,1,15.6,8.539H10.944a2.85,2.85,0,0,0-2.065-2.5v5.826a29.8,29.8,0,0,1,3.653,1.125,5.725,5.725,0,0,1,2.327,1.757A5.168,5.168,0,0,1,15.845,18.1ZM4.5,8.6a2.261,2.261,0,0,0,.617,1.649,4.488,4.488,0,0,0,1.788,1.033V5.95a2.892,2.892,0,0,0-1.757.832A2.525,2.525,0,0,0,4.5,8.6ZM8.878,21.024a3.136,3.136,0,0,0,1.834-.956,2.586,2.586,0,0,0,.663-1.788,2.151,2.151,0,0,0-.647-1.634,4.9,4.9,0,0,0-1.85-1.017Z" transform="translate(1542.703 5920.466) rotate(-1)" fill="#373464"/>
        <path id="Path_42747" data-name="Path 42747" d="M17.368,18.962a5.965,5.965,0,0,0,2.407-2.537H24.2A9.969,9.969,0,0,1,20.163,21.4,11.711,11.711,0,0,1,13.8,23.146a11.458,11.458,0,0,1-6.721-2.052,10.709,10.709,0,0,1-4.1-5.477H0V13.1H2.391q-.065-.9-.065-1.422t.065-1.422H0V7.733H2.973a10.709,10.709,0,0,1,4.1-5.477A11.458,11.458,0,0,1,13.8.2a11.659,11.659,0,0,1,6.35,1.761A10.028,10.028,0,0,1,24.2,6.957H19.776a5.965,5.965,0,0,0-2.407-2.537A7.208,7.208,0,0,0,13.8,3.565a7.788,7.788,0,0,0-4.152,1.1,7.071,7.071,0,0,0-2.73,3.07H13.8v2.52H6.2a10.475,10.475,0,0,0,0,2.844H13.8v2.52H6.915a7.037,7.037,0,0,0,2.73,3.1,7.788,7.788,0,0,0,4.152,1.1,7.208,7.208,0,0,0,3.571-.856" transform="translate(1509.626 5671.856)" fill="#373464"/>
        <path id="Path_42750" data-name="Path 42750" d="M26.188,19.991v2.951H11.5l-.635-1.967a10.6,10.6,0,0,0,1.967-2.84,8.553,8.553,0,0,0,.635-3.506,6.168,6.168,0,0,0-.156-1.333H9.817V10.789h2.695a12.215,12.215,0,0,1-.666-3.871,7.071,7.071,0,0,1,.923-3.681,6.21,6.21,0,0,1,2.539-2.4A8,8,0,0,1,19.051,0a6.622,6.622,0,0,1,5.138,1.9A7.148,7.148,0,0,1,26,6.759H22.7a3.949,3.949,0,0,0-.889-2.713,3.518,3.518,0,0,0-2.761-1,3.8,3.8,0,0,0-2.745.984,4.071,4.071,0,0,0-1.034,3.078,8.168,8.168,0,0,0,.19,1.777c.127.571.309,1.206.539,1.9h6.159V13.3H16.735a6.431,6.431,0,0,1,.156,1.364,7.5,7.5,0,0,1-2.123,5.331Z" transform="translate(1232.26 5924.493)" fill="#373464"/>
        <path id="Path_42749" data-name="Path 42749" d="M31.076,10.215h4.159v2.707l-5.581.066L28.63,14.935v.99h6.6v2.707h-6.6v4.621H24.87V18.632h-6.6V15.926h6.6v-.99l-1.023-1.948-5.579-.066V10.215h4.126l-5.15-9.9h4.192L26.718,11.5,32,.312h4.225Z" transform="translate(1222.223 5690.021)" fill="#373464"/>
        <g id="Group_39520" data-name="Group 39520" transform="translate(1267.323 5690.333)">
          <g id="Group_39518" data-name="Group 39518">
            <path id="Path_42703" data-name="Path 42703" d="M9.041,36.346c0-1.449-.241-2.656-.241-4.1L14.112,32a20.771,20.771,0,0,0,.241,3.863Z" transform="translate(-8.782 28.125)" fill="#373464"/>
            <path id="Path_42704" data-name="Path 42704" d="M225.894,239.73v-5.312c2.656,0,5.312-.241,7.727-.483l.724,5.312C231.689,239.247,228.791,239.489,225.894,239.73Zm-8.21-.483c-2.656-.241-5.554-.483-8.21-.966l.966-5.312c2.656.483,5.312.724,7.968.966Zm25.112-1.932-1.449-5.071a35.646,35.646,0,0,0,7-2.9l2.415,4.829A60.883,60.883,0,0,1,242.8,237.316Zm-41.773-.724-7.968-2.173,1.449-5.071c2.656.724,5.312,1.449,7.727,2.173ZM185.328,232c-2.415-.966-5.071-1.932-7.727-2.9l1.932-5.071c2.415.966,5.071,1.932,7.485,2.9Zm-15.454-6.278c-2.415-1.207-4.829-2.415-7.485-3.622l2.415-4.829c2.415,1.207,4.829,2.415,7.244,3.381Zm-14.729-7.485c-2.415-1.207-4.829-2.656-7.244-4.1l2.656-4.588c2.415,1.449,4.588,2.656,7,3.863ZM140.9,210.03c-2.173-1.449-4.588-2.9-7-4.588l2.9-4.346c2.173,1.449,4.588,2.9,6.761,4.346Zm-13.522-9.176c-2.173-1.69-4.346-3.139-6.52-4.829L124,191.679c2.173,1.69,4.346,3.139,6.52,4.829Zm-13.039-9.9c-2.173-1.69-4.346-3.381-6.278-5.071l3.381-4.1c2.173,1.69,4.1,3.38,6.278,5.071Zm-12.8-10.383c-1.932-1.69-4.1-3.622-6.037-5.554l3.622-3.863c1.932,1.932,4.1,3.622,6.037,5.312ZM89.466,169.464c-1.932-1.69-3.622-3.622-5.554-5.554l-.241-.241,3.863-3.863.241.241c1.932,1.932,3.622,3.622,5.554,5.312Zm-11.59-11.59c-1.932-1.932-3.863-4.1-5.554-6.037l3.863-3.622c1.69,1.932,3.622,3.863,5.554,5.8ZM66.769,145.559c-1.69-2.173-3.622-4.1-5.312-6.278l4.1-3.381c1.69,2.173,3.381,4.1,5.312,6.278ZM56.386,133l-5.071-6.52,4.346-3.139c1.69,2.173,3.139,4.346,4.829,6.52Zm-9.9-13.281c-1.69-2.173-3.139-4.588-4.588-6.761l4.346-2.9c1.449,2.173,2.9,4.346,4.588,6.761ZM37.31,106.2c-1.449-2.415-2.9-4.588-4.346-7l4.588-2.656c1.449,2.173,2.656,4.588,4.1,7ZM29.1,91.954c-1.207-2.415-2.656-4.829-3.863-7.244L30.066,82.3l3.622,7.244ZM21.856,77.225c-1.207-2.656-2.173-5.071-3.139-7.485l5.071-1.932c.966,2.415,1.932,4.829,3.139,7.485ZM15.578,61.771c-.966-2.656-1.69-5.312-2.656-7.968l5.071-1.449c.724,2.415,1.449,5.071,2.415,7.727ZM10.99,45.834c-.724-2.9-1.207-5.554-1.69-8.21l5.312-.724c.483,2.415.966,5.071,1.449,7.727Z" transform="translate(-8.075 35.056)" fill="#373464"/>
            <path id="Path_42705" data-name="Path 42705" d="M114.381,120.42l-3.381-4.1a26.438,26.438,0,0,0,2.656-2.415l3.863,3.863a30.587,30.587,0,0,0-3.139,2.656Z" transform="translate(135.795 143.984)" fill="#373464"/>
            <path id="Path_42706" data-name="Path 42706" d="M8.811,49.642C8.569,38.051,10.742,27.91,15.33,19.7l4.588,2.656c-4.1,7.244-6.037,16.42-5.8,27.044Z" transform="translate(-8.792 10.725)" fill="#373464"/>
            <path id="Path_42707" data-name="Path 42707" d="M20.656,21.563,18,16.975C29.349,10.7,44.078,9.007,61.947,11.9l-.966,5.312C44.8,14.319,30.8,16.009,20.656,21.563Z" transform="translate(4.233 -2.246)" fill="#373464"/>
            <path id="Path_42708" data-name="Path 42708" d="M22.881,37.861a13.719,13.719,0,0,1-7.968-2.656A13.153,13.153,0,0,1,9.6,24.581,13.4,13.4,0,0,1,22.881,11.3a12.706,12.706,0,0,1,10.383,5.312,13.174,13.174,0,0,1,2.656,7.968A13.038,13.038,0,0,1,22.881,37.861Zm0-21.007a7.78,7.78,0,0,0-7.727,7.727,8.009,8.009,0,0,0,3.139,6.278,8.234,8.234,0,0,0,4.588,1.69,7.78,7.78,0,0,0,7.727-7.727,6.374,6.374,0,0,0-1.69-4.588A6.422,6.422,0,0,0,22.881,16.854Z" transform="translate(-7.65 -1.158)" fill="#373464"/>
            <path id="Path_42709" data-name="Path 42709" d="M104.5,16.371c2.415.724,4.829,1.449,7.244,2.415l2.173-4.829a44.1,44.1,0,0,0-7.968-2.656Z" transform="translate(126.6 -1.158)" fill="#373464"/>
            <path id="Path_42710" data-name="Path 42710" d="M98.2,10.641v5.312h.724a67.856,67.856,0,0,1,7,.241l.483-5.312a73.126,73.126,0,0,0-7.485-.483Z" transform="translate(117.688 -2.432)" fill="#373464"/>
            <path id="Path_42711" data-name="Path 42711" d="M113.339,14.2,110.2,18.546a35.309,35.309,0,0,1,4.588,3.863l3.863-3.863A29.911,29.911,0,0,0,113.339,14.2Z" transform="translate(134.663 2.944)" fill="#373464"/>
            <path id="Path_42712" data-name="Path 42712" d="M18.1,74.461l4.588,2.656c1.207-2.173,2.656-4.588,4.1-6.761L22.2,67.7C20.756,69.873,19.549,72.288,18.1,74.461Z" transform="translate(4.374 78.628)" fill="#373464"/>
            <path id="Path_42713" data-name="Path 42713" d="M15.1,80.744l4.829,2.173a63.722,63.722,0,0,1,3.622-7L18.722,73.5A50.68,50.68,0,0,0,15.1,80.744Z" transform="translate(0.13 86.833)" fill="#373464"/>
            <path id="Path_42714" data-name="Path 42714" d="M25.4,63.02l4.346,3.139c1.449-2.173,3.139-4.346,4.829-6.52L30.229,56.5C28.539,58.673,26.849,60.846,25.4,63.02Z" transform="translate(14.701 62.784)" fill="#373464"/>
            <path id="Path_42715" data-name="Path 42715" d="M21.6,68.761l4.588,2.9,4.346-6.52L26.188,62A66.41,66.41,0,0,0,21.6,68.761Z" transform="translate(9.326 70.564)" fill="#373464"/>
            <path id="Path_42716" data-name="Path 42716" d="M12.1,114.3a46.688,46.688,0,0,0,5.312,6.761l3.863-3.863a26.969,26.969,0,0,1-4.588-5.8Z" transform="translate(-4.114 140.448)" fill="#373464"/>
            <path id="Path_42717" data-name="Path 42717" d="M15.62,93.466,10.307,92.5c-.483,2.656-.966,5.554-1.207,8.21l5.312.724C14.654,98.778,15.137,96.122,15.62,93.466Z" transform="translate(-8.357 113.711)" fill="#373464"/>
            <path id="Path_42718" data-name="Path 42718" d="M20.368,81.773,15.539,79.6c-.966,2.656-2.173,5.071-3.139,7.485l5.071,1.932Z" transform="translate(-3.689 95.462)" fill="#373464"/>
            <path id="Path_42719" data-name="Path 42719" d="M17.644,87.59,12.573,85.9A48.886,48.886,0,0,0,10.4,93.868l5.071,1.449C16.2,92.661,16.92,90,17.644,87.59Z" transform="translate(-6.518 104.374)" fill="#373464"/>
            <path id="Path_42720" data-name="Path 42720" d="M14.712,105.7,9.4,106.907a62.256,62.256,0,0,0,2.415,7.968l5.071-1.932A41.3,41.3,0,0,1,14.712,105.7Z" transform="translate(-7.933 132.384)" fill="#373464"/>
            <path id="Path_42721" data-name="Path 42721" d="M29.4,57.578l4.1,3.381c1.69-2.173,3.381-4.1,5.071-6.278l-4.1-3.381C32.781,53.473,31.09,55.4,29.4,57.578Z" transform="translate(20.36 55.427)" fill="#373464"/>
            <path id="Path_42722" data-name="Path 42722" d="M14.112,101.615V99.441L8.8,99.2v2.173a48.493,48.493,0,0,0,.241,6.037l5.312-.483C14.354,105.478,14.112,103.546,14.112,101.615Z" transform="translate(-8.782 123.189)" fill="#373464"/>
            <path id="Path_42723" data-name="Path 42723" d="M42.888,42.607,38.3,47.2l3.863,3.622c1.449-1.449,2.9-3.139,4.588-4.588l.966-.966L43.854,41.4Z" transform="translate(32.95 41.422)" fill="#373464"/>
            <path id="Path_42724" data-name="Path 42724" d="M70,21.463l2.656,4.588c2.415-1.207,4.588-2.415,7-3.622L77.244,17.6C74.588,19.049,72.415,20.256,70,21.463Z" transform="translate(77.795 7.754)" fill="#373464"/>
            <path id="Path_42725" data-name="Path 42725" d="M76,18.181l2.173,4.829C80.588,21.8,83,20.837,85.417,19.871L83.485,14.8C80.829,16.007,78.415,17.215,76,18.181Z" transform="translate(86.282 3.793)" fill="#373464"/>
            <path id="Path_42726" data-name="Path 42726" d="M64.2,25l2.9,4.588c2.173-1.449,4.588-2.9,6.761-4.1l-2.9-4.588C68.788,22.107,66.373,23.556,64.2,25Z" transform="translate(69.59 12.422)" fill="#373464"/>
            <path id="Path_42727" data-name="Path 42727" d="M88.7,12.507l1.207,5.312c1.932-.483,3.622-.724,5.554-1.207L94.5,11.3A49.455,49.455,0,0,0,88.7,12.507Z" transform="translate(104.248 -1.158)" fill="#373464"/>
            <path id="Path_42728" data-name="Path 42728" d="M82.2,15.115l1.69,5.071c2.415-.966,5.071-1.69,7.485-2.415L89.927,12.7C87.512,13.424,84.856,14.149,82.2,15.115Z" transform="translate(95.053 0.822)" fill="#373464"/>
            <path id="Path_42729" data-name="Path 42729" d="M33.7,52.337l4.1,3.622c1.69-1.932,3.622-3.863,5.312-6.037L39.254,46.3c-1.932,1.932-3.622,3.863-5.554,6.037Z" transform="translate(26.443 48.354)" fill="#373464"/>
            <path id="Path_42730" data-name="Path 42730" d="M48,37.571l3.622,4.1c1.932-1.69,4.1-3.381,6.037-5.071l-3.381-4.1C52.1,34.19,50.173,35.881,48,37.571Z" transform="translate(46.672 28.832)" fill="#373464"/>
            <path id="Path_42731" data-name="Path 42731" d="M43,42.212l3.622,3.863c1.932-1.932,3.863-3.622,5.8-5.312L48.8,36.9C47.1,38.59,45.173,40.281,43,42.212Z" transform="translate(39.599 35.056)" fill="#373464"/>
            <path id="Path_42732" data-name="Path 42732" d="M53.2,33.271l3.381,4.1c2.173-1.69,4.1-3.381,6.278-4.829L59.72,28.2C57.546,30.132,55.373,31.581,53.2,33.271Z" transform="translate(54.028 22.749)" fill="#373464"/>
            <path id="Path_42733" data-name="Path 42733" d="M58.6,28.988l3.139,4.346c2.173-1.449,4.346-3.139,6.52-4.588l-2.9-4.346C62.946,26.09,60.773,27.539,58.6,28.988Z" transform="translate(61.668 17.373)" fill="#373464"/>
            <path id="Path_42734" data-name="Path 42734" d="M115.963,16,112.1,19.863c10.866,10.866,14.246,28.493,9.659,51.191a2.572,2.572,0,0,0,1.932,3.139,2.729,2.729,0,0,0,3.139-2.173C132.142,47.632,128.278,28.315,115.963,16Z" transform="translate(137.351 5.49)" fill="#373464"/>
            <path id="Path_42735" data-name="Path 42735" d="M112.173,29.073H90.2V7.1h21.973ZM95.512,23.761h11.349V12.412H95.512Z" transform="translate(106.37 -7.1)" fill="#373464"/>
          </g>
          <path id="Path_42736" data-name="Path 42736" d="M172.023,15.563A136.689,136.689,0,0,0,140.391,11.7,129.861,129.861,0,0,0,83.405,24.739a104.038,104.038,0,0,0-11.349,6.278L68.434,33.19A131.925,131.925,0,0,0,17.485,97.661,135.1,135.1,0,0,0,10,142.091,130.463,130.463,0,0,0,140.391,272.482a140.121,140.121,0,0,0,26.8-2.656c39.359-92.481,49.5-178.925,4.829-254.262Z" transform="translate(-7.085 -0.592)" fill="#216d96"/>
          <path id="Path_42737" data-name="Path 42737" d="M173.276,102.259a90.629,90.629,0,0,0-4.1-11.349A131.22,131.22,0,0,0,79.829,13.4C124.5,88.737,114.359,175.181,75,267.662A130.191,130.191,0,0,0,178.588,139.928,120.478,120.478,0,0,0,173.276,102.259Z" transform="translate(84.867 1.812)" fill="#216d96"/>
          <path id="Path_42738" data-name="Path 42738" d="M42.027,24.671c.241,1.932,1.69,1.69,3.139,1.69H51.2c0-1.932-.966-2.9-2.9-2.656a42.442,42.442,0,0,1-5.554,0,16.462,16.462,0,0,1,1.207-1.69A1.529,1.529,0,0,0,42.51,19.6H37.922L34.3,21.773c2.415.724,4.588,1.69,7,2.173.241.241.724.483.724.724Z" transform="translate(27.292 10.583)" fill="#f2f2f2"/>
          <path id="Path_42739" data-name="Path 42739" d="M148.988,143.866V140a5.538,5.538,0,0,0-1.69-5.071,11.9,11.9,0,0,1-3.622-10.383,8.314,8.314,0,0,0-2.9-8.21c-1.932-1.449-1.69-4.1-.724-6.278a63.725,63.725,0,0,1,3.622-7,2.939,2.939,0,0,0,0-3.139c-2.415-3.863-4.588-7.968-6.761-12.073a8.94,8.94,0,0,1-1.449-7,71.532,71.532,0,0,0,.724-7.485c-2.415-.241-4.588-.483-6.761-.724a6.58,6.58,0,0,1-2.9-1.449,7.082,7.082,0,0,0-9.659-.241,5.063,5.063,0,0,1-2.656.966,15.777,15.777,0,0,1-3.381,0c-.966,0-1.932.241-3.139.241-4.1,37.427-15.7,76.3-32.6,116.145A130.943,130.943,0,0,0,148.988,143.866Z" transform="translate(85.009 80.696)" fill="#c4d9e4"/>
          <path id="Path_42740" data-name="Path 42740" d="M102.837,77.63a12.707,12.707,0,0,1,9.417-.241c.724.241,1.449.241,2.415.483l.724-3.622a25.14,25.14,0,0,1-2.9-1.207,34.187,34.187,0,0,1,.966-4.829,2.794,2.794,0,0,1,1.69-1.207c4.346.241,7-1.932,8.693-5.554,1.69-3.139,4.588-2.656,7.244-2.656a51.928,51.928,0,0,1,5.554.483c-.241-2.415-.724-4.346-.966-6.278-1.932.724-3.622,1.207-5.554,1.932a16.764,16.764,0,0,1-1.207-3.139c-.483-1.207-.966-1.932-2.415-1.932-1.69-.241-2.656-2.9-1.449-4.1a19.354,19.354,0,0,1,4.588-3.139c.483-.241,1.207-.483,1.69-.724A129.336,129.336,0,0,0,77,13.4a202.766,202.766,0,0,1,24.871,64.713c.483-.241.724-.483.966-.483Zm5.312-25.112a4.242,4.242,0,0,1,2.173-2.415,13.928,13.928,0,0,1,3.381-.724c.966,5.071,2.173,9.9,7.485,12.073-1.449,3.863-3.863,4.1-11.107,3.622-.724-3.381-.241-4.1,3.622-5.554a25.292,25.292,0,0,0-1.932-2.656c-.724-.724-1.932-.966-2.415-1.69C108.632,54.449,107.907,53.242,108.149,52.517Zm-.241,3.381c1.69.724,2.415,2.656,1.207,3.622-2.415,1.69-4.346,4.588-8.21,3.863-.966-4.1,3.381-9.176,7-7.485Z" transform="translate(87.697 1.812)" fill="#c4d9e4"/>
          <path id="Path_42741" data-name="Path 42741" d="M150.739,55.727c-3.139-.483-5.071-2.656-5.554-6.278-.241-.966-.241-2.173-.483-3.381-2.173.724-3.863,1.449-4.1,3.863a29.7,29.7,0,0,1-1.449,5.312c-2.656-2.9-6.037-4.829-5.312-9.176a3.843,3.843,0,0,0-1.207-2.415c-1.69-1.69-3.381-3.622-5.312-4.588-1.69-.966-3.863-.724-6.037-.966.483,3.381,1.207,5.8,4.1,7a25.355,25.355,0,0,1,5.071,2.9,9.214,9.214,0,0,0-.966,3.139c-.241,2.656-.483,3.139-3.139,3.622-2.173.483-3.622-.483-4.588-2.9,1.69-.724,4.1,1.449,5.071-1.69-3.381-3.622-9.176-4.588-11.349-9.9-.483.483-.966.724-1.207,1.207-1.69,1.69-3.381,2.9-5.8,1.932a2,2,0,0,0-1.932.724c-2.415,3.139-4.588,6.52-6.761,9.9-.241.483-.724.966-.966.966C95.2,55.244,91.58,56.21,88.2,55c.241,1.207.241,2.415.483,3.381a10.269,10.269,0,0,1,2.656-.483c3.863,0,7.485.483,10.624-2.173a1.831,1.831,0,0,1,.966-.483c4.829-.483,9.659-.724,14.971-1.207v6.037a1.924,1.924,0,0,0,1.69,2.173,69.15,69.15,0,0,1,6.761,1.69c1.69.483,3.38,1.449,5.071,1.932.724.241,1.69.483,2.415.724.241-.483.483-.483.483-.724.483-1.207-.966-3.381,1.207-3.622,2.415-.241,5.312-1.932,7.485.483,3.38,3.622,7.244,3.863,11.349,3.622a92.673,92.673,0,0,0-3.622-10.624Z" transform="translate(103.541 36.754)" fill="#c4d9e4"/>
          <path id="Path_42742" data-name="Path 42742" d="M197.377,91.866a3.49,3.49,0,0,1-1.69-2.415c-.483-2.656-1.69-5.312,0-7.968a2.473,2.473,0,0,1,1.449-1.207,206.331,206.331,0,0,0-24.871-64.713A136.688,136.688,0,0,0,140.632,11.7,129.861,129.861,0,0,0,83.647,24.739a7.444,7.444,0,0,1,2.415.241,4.344,4.344,0,0,1,1.932,2.173c1.69,2.415,4.588,3.863,7.485,2.9a6.657,6.657,0,0,0,2.173-1.69c1.207-1.449,2.656-1.932,4.346-.241-1.449,1.449-2.656,3.381-4.588,4.346-1.932.724-4.1.483-6.52.724a26.607,26.607,0,0,1,.483,4.346h7.485a1.831,1.831,0,0,0,.966-.483c.483-2.415,2.415-1.932,3.863-1.932,2.9,0,3.139-.241,2.9-3.381-.966-.241-1.69-.483-2.656-.724.241-3.622.966-3.381,3.622-3.622s5.312.241,8.451.483c-1.449,1.207-2.415,2.415-3.381,3.139a2.494,2.494,0,0,0-.724,3.622,4.343,4.343,0,0,0,2.173,1.449c.966.241,1.932.241,2.9.483V31.983a3.6,3.6,0,0,1,.966-2.173c3.622-2.656,8.21-2.656,12.315-2.9,1.449,0,2.9.966,4.346,1.69a56.935,56.935,0,0,0,6.761,2.9,2.617,2.617,0,0,1,1.932,2.656c0,2.9,0,2.9,3.622,3.863-.483,3.139-1.449,4.1-4.346,3.863-2.415-.241-3.622.483-4.1,2.9-.241.483-.966,1.449-1.207,1.207-3.863-.724-7.727-1.69-11.59-2.656v-.483c3.139-1.69,6.278-3.381,9.176-5.071-1.932-2.9-4.346-3.381-7.727-2.9-2.9.483-5.554.966-7.727,3.381-.966.966-2.9,1.207-4.829,1.69A26.337,26.337,0,0,1,116,42.607c-1.449.483-3.139.483-3.863,2.415-.483,1.207-2.9.241-3.139-1.207a15.765,15.765,0,0,0-.483-2.656c-3.139,1.449-6.037,2.415-8.934,3.863A75.723,75.723,0,0,0,92.1,49.369c-1.207.724-1.207,1.449-.966,2.656.724,3.622,2.9,5.312,6.52,5.8,1.449.241,2.9.483,4.588.724v7.244c1.932.241,3.381.241,3.863-1.932a7.434,7.434,0,0,1,6.52-5.8c2.173-.241,2.9-1.449,2.656-3.622-.241-.966.241-1.932,0-2.9-.724-3.139,1.207-4.829,3.381-6.278a2.121,2.121,0,0,1,1.69-.241c2.9.724,5.554,1.449,8.693,2.173-.241,1.932-.241,3.622-.483,5.8,3.622.966,6.037-2.173,9.417-2.9,0,1.69.483,3.381.241,5.071a4.249,4.249,0,0,0,2.415,4.1c1.207.724,2.9.966,2.9,3.139,0,2.415-.483,4.1-3.139,4.346-.724,0-1.207.724-1.69,1.207l1.69,1.69c.966.483,2.173.966,3.139,1.449a3.549,3.549,0,0,1,1.207,1.449c.241,2.415-.241,2.656-2.415,2.173a45.059,45.059,0,0,1-5.312-1.69c-.724-.241-1.449-.966-1.449-1.449a7.674,7.674,0,0,1,.724-2.173c.241-.724.966-1.69.966-2.415,0-.483-1.207-.966-1.932-1.449-.966,1.932-5.071,3.381-6.761,2.9-.241-.241-.724-.483-.966-.966-.724-2.173-2.656-2.173-4.346-1.932a3.77,3.77,0,0,0-1.932,1.932c-.483,1.207.483,1.932,1.449,2.173s1.69.483,2.9.724a21.113,21.113,0,0,1-1.932,2.415c-3.381-1.69-3.622-1.932-6.037.966-3.139,3.622-6.761,6.037-10.866,8.451-3.381,2.173-6.037,5.8-9.176,8.934a.843.843,0,0,0-.241.483c.241,3.863-2.9,5.071-5.312,6.761-2.173,1.69-4.346,3.381-6.52,5.312a3.3,3.3,0,0,0-.966,2.656c0,2.173.241,4.346.241,6.761-1.932-.966-3.863-1.207-4.829-2.415s-.966-3.139-1.449-4.829a10.458,10.458,0,0,0-1.207-.241c-2.656,0-5.312.241-7.727,0-4.588-.483-8.693.966-12.8,3.139-3.622,1.932-4.346,5.8-5.8,8.934a7.45,7.45,0,0,0,.724,7.727,3.755,3.755,0,0,0,1.932,1.449c3.139.724,6.037.724,8.693-1.69a61.178,61.178,0,0,1,6.52-4.346c.966,1.449,1.69,2.9.483,4.588-.724,1.449-1.449,2.9-2.415,4.588,1.932.241,3.622.724,5.312.966s2.656.966,2.656,2.9c0,2.656.241,5.312.483,7.968a1.953,1.953,0,0,0,1.932,2.173,28.969,28.969,0,0,1,4.829.724c3.381,1.207,5.554,0,7.244-2.656,2.415-4.1,5.554-4.829,9.9-3.381a9.658,9.658,0,0,1,4.346,3.139,3.459,3.459,0,0,0,2.656,1.207c1.207.241,2.656-.241,3.863,0,1.449,0,2.656-.241,2.9-2.173,2.415.966,4.588,1.449,5.554,4.1,1.932,4.346,4.829,6.761,9.9,5.554a2.961,2.961,0,0,1,3.381,1.932,15.6,15.6,0,0,1,2.415,8.21c0,1.69.724,2.415,2.173,3.139,5.312,2.656,11.107,3.139,16.9,2.656,1.69,0,2.9.483,3.622,1.932,1.207,2.656,2.9,4.829,6.037,5.071,1.207,0,1.207.966,1.207,1.932-.241,3.622-3.139,5.8-5.071,8.693a11.094,11.094,0,0,0-1.69,3.863c-.483,4.1-.966,7.968-1.449,12.073-.241,2.9-4.1,6.52-7,6.52h-2.656c-2.9-.724-4.829.483-5.554,3.139a6.951,6.951,0,0,0-.241,3.139c1.449,6.761,1.449,6.52-2.656,12.073-2.173,2.9-4.346,6.037-6.278,9.176a2.91,2.91,0,0,1-1.207,1.207c-3.381,1.449-6.52,4.1-10.624,4.1-.241,0-.724,0-.724.241l-1.449,1.449c.483.483.724,1.207,1.449,1.449,2.415.966,2.656,2.173.724,3.863-.724.724-1.69,1.207-2.173,1.69.966,3.622,3.381,3.38,6.037,3.38a28.483,28.483,0,0,1-.966,4.829c-.724,2.173-.966,4.1,1.449,5.554a7.548,7.548,0,0,1,2.656,2.173,2.974,2.974,0,0,1,.483,2.415c0,.483-1.207.966-1.69.966h-5.312a2.742,2.742,0,0,1-1.932-.724,35.492,35.492,0,0,1-11.59-13.763c-1.449-2.656-2.173-5.312-1.449-8.21.724-3.863.241-7.485-2.9-10.142-1.207-.966-1.449-2.415-.966-4.1a76.636,76.636,0,0,0,1.449-8.451c-3.381-.241-2.656-2.656-2.656-4.588V199.8a3.276,3.276,0,0,0-1.69-3.139c-1.449-.966-2.656-1.932-4.1-2.9a48.259,48.259,0,0,0-5.071-2.415c-.483-.241-1.449-.724-1.449-1.207-.483-3.863-3.381-6.278-5.554-9.176-1.449-1.932-3.139-3.863-4.588-6.037a4.659,4.659,0,0,1-.724-2.415c.241-2.9.483-6.037.966-8.934a16.228,16.228,0,0,1,1.449-2.9c.241-.241.483-.483.724-.483,5.312-1.932,5.312-6.037,4.1-10.383-.241-.483-.966-1.449-1.69-1.449a46.892,46.892,0,0,0-5.8-.483,5.463,5.463,0,0,1-5.071-2.656c-.724-.966-1.69-1.932-2.415-2.9-2.173-3.381-5.554-4.829-9.417-5.554-3.139-.483-3.139-.724-3.139-4.1-1.69.724-3.622-1.932-5.071,1.207-3.381-.724-7-1.69-10.383-2.656a4.331,4.331,0,0,1-1.69-1.207,24.491,24.491,0,0,0-2.173-3.139c-1.69-1.932-2.173-3.622-.483-5.8.241-.241,0-1.449-.241-1.932l-2.9-4.346a20.426,20.426,0,0,1-4.829-13.281h-2.9c0,4.588.724,8.693,3.622,12.073.483.724.966,1.69,1.449,2.415.966,1.449.966,3.381,0,3.863-1.207.483-3.622,0-4.346-.966a34.953,34.953,0,0,1-4.829-8.21c-.724-1.932-.483-4.346-.241-6.52.241-3.139-.483-5.312-3.622-6.278A116.894,116.894,0,0,0,10,142.091,130.463,130.463,0,0,0,140.391,272.482a140.116,140.116,0,0,0,26.8-2.656c16.9-40.083,28.493-78.959,32.6-116.145a59.2,59.2,0,0,1-6.52.483,3.459,3.459,0,0,1-2.656-1.207L179.75,140.642a5.1,5.1,0,0,1-.966-2.415v-9.9c2.9-.724,2.656-2.9,2.9-5.071-1.207-.483-2.9.241-3.381-2.173-.483-2.173,0-3.381,1.69-4.588,3.863-2.656,7.485-5.312,11.107-8.21a3.076,3.076,0,0,0,1.207-2.656c-.724-4.588.966-7.485,5.554-8.934.483-.241,1.207-.241,1.69-.483-.241-1.207-.241-2.415-.483-3.381a3.892,3.892,0,0,0-1.69-.966ZM121.8,79.069c-.241.483-1.449.724-2.415.966l-.724-.724a14.771,14.771,0,0,0,1.207-2.9h.966c.483.966,1.207,1.932.966,2.656Zm9.9-2.9a2.567,2.567,0,0,0-2.173,1.932,4,4,0,0,1-2.9,1.207c-.724,0-1.207-1.207-1.932-1.932.724-.483,1.207-.966,1.932-.966.966-.241,1.932,0,2.656-1.207.483-.724,1.932-.483,2.9-.724,0,.241.241.483.241.966-.241,0-.483.483-.724.724Z" transform="translate(-7.085 -0.592)" fill="#c4d9e4"/>
          <path id="Path_42743" data-name="Path 42743" d="M152.6,219.377l-3.863-3.863c14-14,15.454-39.359,4.1-70.991-11.59-32.356-35.254-67.61-66.644-98.759L90.063,41.9c31.873,31.873,56.02,67.61,67.852,100.691C169.988,176.4,168.057,203.681,152.6,219.377Z" transform="translate(100.711 42.13)" fill="#373464"/>
          <path id="Path_42744" data-name="Path 42744" d="M82.8,38.1l5.8,34.771L117.571,43.9Z" transform="translate(95.903 36.754)" fill="#373464"/>
          <path id="Path_42745" data-name="Path 42745" d="M51,167.583c-15.454,0-27.768-4.346-36.7-13.281l3.863-3.863c14,14,39.359,15.454,70.991,4.1,32.356-11.59,67.61-35.254,98.759-66.644l3.863,3.863c-31.873,31.873-67.61,56.02-100.691,67.852-14.729,5.312-28.251,7.968-40.083,7.968Z" transform="translate(-1.002 107.204)" fill="#373464"/>
          <path id="Path_42746" data-name="Path 42746" d="M116.244,81.1,79.3,89.068l29.217,29.217Z" transform="translate(90.95 97.584)" fill="#373464"/>
        </g>
      </g>
      <g id="sKash_Center_Icon" data-name="sKash Center Icon" transform="translate(1143.402 5748.402)">
        <g id="home" transform="translate(0.001 0)">
          <path id="Path_10737" data-name="Path 10737" d="M38.6,0A38.6,38.6,0,1,1,0,38.6,38.6,38.6,0,0,1,38.6,0Z" transform="translate(0)" fill="url(#linear-gradient)"/>
        </g>
        <path id="Path_10699" data-name="Path 10699" d="M466.158,95.857l8.191-8.192V83.176l-3.876,3.876c-.185-.3-.384-.6-.6-.887l4.476-4.475V77.2l-6.7,6.7a12.124,12.124,0,0,0-7.289-2.4,11.528,11.528,0,0,0-11.824,11.75A11.869,11.869,0,0,0,451,100.551l-5.74,5.741v4.489l8.044-8.044q.437.315.9.587l-8.943,8.943v4.489l4.347-4.347a11.8,11.8,0,0,0,9.642,4.8,11.783,11.783,0,0,0,6.91-21.357Zm-3.331,3.331a6.883,6.883,0,0,1,3.747,6.276,7.069,7.069,0,0,1-7.327,7.125,7.214,7.214,0,0,1-6.36-3.461Zm-6.214.239,9.993-9.993a6.818,6.818,0,0,1,.508.977l-9.482,9.482A7.217,7.217,0,0,1,456.613,99.427ZM454.255,97.3a7.164,7.164,0,0,1,6.105-11.164,7.665,7.665,0,0,1,3.982,1.077Z" transform="translate(-421.301 -61.23)" fill="#fff"/>
      </g>
    </g>
  </g>
</svg>
