<svg width="1309" height="818" viewBox="0 0 1309 818" fill="none" xmlns="http://www.w3.org/2000/svg">
<g clip-path="url(#clip0_201_3)">
<path d="M1298.5 0.5H10.5C4.97715 0.5 0.5 4.97715 0.5 10.5V807.3C0.5 812.823 4.97715 817.3 10.5 817.3H1298.5C1304.02 817.3 1308.5 812.823 1308.5 807.3V10.5C1308.5 4.97715 1304.02 0.5 1298.5 0.5Z" fill="url(#paint0_linear_201_3)"/>
<mask id="mask0_201_3" style="mask-type:luminance" maskUnits="userSpaceOnUse" x="216" y="241" width="1115" height="576">
<path d="M1330.84 241H216V816.784H1330.84V241Z" fill="white"/>
</mask>
<g mask="url(#mask0_201_3)">
<mask id="mask1_201_3" style="mask-type:luminance" maskUnits="userSpaceOnUse" x="216" y="241" width="1115" height="576">
<path d="M1330.84 241H216V816.784H1330.84V241Z" fill="white"/>
</mask>
<g mask="url(#mask1_201_3)">
<g opacity="0.8">
<mask id="mask2_201_3" style="mask-type:luminance" maskUnits="userSpaceOnUse" x="216" y="241" width="1115" height="576">
<path d="M1330.84 241H216V816.784H1330.84V241Z" fill="white"/>
</mask>
<g mask="url(#mask2_201_3)">
<g opacity="0.8">
<mask id="mask3_201_3" style="mask-type:luminance" maskUnits="userSpaceOnUse" x="696" y="550" width="340" height="267">
<path d="M1035.4 550.75H696.987V816.783H1035.4V550.75Z" fill="white"/>
</mask>
<g mask="url(#mask3_201_3)">
<path d="M856.241 657.772C846.507 661.596 834.341 666.796 828.783 670.909C820.293 677.181 813.074 684.902 808.321 694.545C802.57 706.234 804.11 716.428 812.753 726.163C813.204 726.679 813.653 727.414 814.153 728.053C814.959 729.066 814.959 729.291 813.617 729.291H811.196C797.806 729.291 784.424 729.891 771.049 729.924C766.508 729.938 765.567 731.23 765.549 735.767C765.528 743.274 765.543 752.336 765.543 759.841C765.543 765.041 758.343 767.992 751.443 768.396C743.148 768.887 738.643 757.807 738.828 751.601C739.067 747.856 738.835 744.096 738.138 740.409C736.08 731.172 733.809 723.785 733.725 714.195C733.644 703.108 733.692 692.01 733.869 680.901C733.907 678.301 734.645 675.018 736.294 673.234C737.621 671.837 738.424 670.025 738.568 668.104C738.863 664.961 736.854 662.586 734.947 662.812C733.04 663.038 731.298 657.75 730.653 651.028C730.177 646.978 730.005 642.898 730.137 638.822C730.312 635.019 731.127 631.272 732.548 627.74C732.842 626.994 737.04 615.91 734.96 616.348C734.098 616.529 733.308 616.7 732.5 616.864C731.147 617.153 730 610.782 729.966 602.622C729.944 597.67 729.966 592.757 730.144 587.856C730.344 582.279 729.42 577.215 726.244 572.656C724.632 570.33 724.672 568.499 726.385 565.986C727.496 564.438 728.269 562.674 728.651 560.807C729.034 558.94 729.018 557.014 728.605 555.154C727.184 549.027 716.782 549.354 715.705 555.766C715.138 559.186 716.061 562.881 718.439 566.966C719.048 568.016 719.301 570.049 718.699 570.907C714.227 577.2 713.738 584.225 714.04 591.595C714.347 598.835 714.113 606.108 714.09 613.363C714.09 613.951 714.06 614.525 714.024 615.1C713.961 616.054 713.668 616.9 713.382 617.011C713.216 617.093 713.034 617.137 712.849 617.139C711.649 616.903 710.473 616.628 709.276 616.358C708.652 616.213 712.549 635.823 712.616 636.885C712.84 641.35 712.745 645.826 712.332 650.278C711.744 657.663 709.038 663.412 706.285 663.06C703.532 662.708 701.004 665.436 702.546 668.737C703.508 670.729 704.918 672.472 706.666 673.829C708.783 675.721 710.127 678.328 710.44 681.15C710.777 701.029 711.912 719.5 707.377 738.767C706.471 742.86 705.848 747.011 705.512 751.19C704.901 758.11 701.828 763.859 698.912 765.89C697.484 766.883 696.989 768.422 696.989 771.751V816.783H840.809C840.885 815.947 841.362 809.276 841.362 808.409C841.362 779.175 852.675 755.494 866.381 755.494C866.713 755.494 867.045 755.52 867.374 755.547V655.947C863.584 655.877 859.812 656.494 856.242 657.769" fill="#226D96"/>
<path d="M1029.93 765.885C1029.17 765.662 1030.31 744.352 1030.01 742.597C1028.4 733.242 1025.87 726.352 1025.85 716.572C1025.8 705.472 1025.83 694.372 1026.02 683.272C1026.07 680.759 1027.02 677.384 1028.8 675.947C1029.63 675.33 1030.27 674.49 1030.65 673.523C1031.02 672.557 1031.11 671.505 1030.91 670.488C1030.49 667.114 1027.71 664.653 1025.06 664.86C1022.42 665.067 1020.14 659.525 1020.31 652.216C1020.35 647.804 1020.81 643.406 1021.69 639.082C1022.47 635.482 1024.18 632.245 1025.59 628.982C1027.97 623.482 1026.97 618.653 1026.06 618.874C1025.53 619.012 1025.02 619.138 1024.42 619.259C1024.29 619.282 1024.18 619.219 1023.96 619.118C1023.72 619.012 1023.46 618.177 1023.43 617.218C1023.41 616.649 1023.39 616.069 1023.39 615.481C1023.38 608.225 1023.19 600.955 1023.49 593.713C1023.8 586.344 1023.32 579.322 1018.86 573.025C1018.25 572.17 1018.51 570.132 1019.12 569.077C1021.5 564.996 1022.43 561.297 1021.85 557.877C1020.78 551.471 1010.38 551.141 1008.95 557.269C1008.54 559.128 1008.53 561.053 1008.91 562.918C1009.29 564.783 1010.06 566.547 1011.17 568.096C1012.9 570.606 1012.93 572.443 1011.32 574.766C1008.15 579.331 1007.23 584.391 1007.43 589.972C1007.6 594.872 1007.62 599.782 1007.6 604.738C1007.57 612.897 1006.43 619.274 1005.06 618.981C1003.72 618.694 1002.52 621.304 1003.58 624.558C1004.11 626.214 1004.83 627.758 1005.66 630.394C1006.52 633.139 1006.08 636.604 1006.09 639.455C1006.09 640.428 1005.98 646.419 1005.92 652.39C1005.84 659.537 1004.55 665.118 1002.64 664.89C1000.73 664.662 998.715 667.018 999.002 670.152C999.146 672.067 999.951 673.872 1001.28 675.259C1002.93 677.04 1003.65 680.259 1003.7 682.85C1003.88 695.05 1003.96 707.258 1003.79 719.478C1003.65 729.494 998.907 738.351 998.69 748.117C998.433 759.424 998.59 768.186 985.257 768.986C979.59 769.348 966.674 767.87 966.674 759.61C966.674 759.346 966.38 749.864 966.38 749.063C966.48 741.563 966.416 744.373 966.416 736.87C966.416 730.537 965.843 729.288 959.66 729.288H920.644C919.885 729.331 919.13 729.424 918.383 729.567C917.135 729.76 916.708 729.033 917.532 728.277C918.075 727.77 918.532 727.377 918.986 726.868C927.656 717.349 929.661 706.613 923.686 695.247C920.421 689.238 916.376 683.687 911.656 678.738C904.683 671.274 893.944 664.93 883.662 659.474C879.323 657.174 873.228 655.949 867.373 655.953V755.553C880.628 756.664 894.639 788.51 890.91 816.79H1035.37V773.874C1035.37 767.682 1036.17 767.682 1029.93 765.886" fill="#226D96"/>
</g>
</g>
<g opacity="0.8">
<mask id="mask4_201_3" style="mask-type:luminance" maskUnits="userSpaceOnUse" x="933" y="415" width="360" height="402">
<path d="M1292.23 415.345H933.839V816.783H1292.23V415.345Z" fill="white"/>
</mask>
<g mask="url(#mask4_201_3)">
<path d="M1292.24 816.401L1291.14 731.009L1271.62 730.749L1266.43 730.796L1259.26 715.951L1259.71 709.107C1262.56 702.795 1259.11 701.676 1259.11 701.676C1259.11 701.676 1259.2 675.393 1249.66 658.894C1238.01 638.731 1227.53 634.562 1227.53 634.562L1224.96 596.976C1224.96 596.976 1222.28 588.008 1218.01 585.027C1218.01 585.027 1211.18 589.361 1210.88 599.269C1210.52 609.099 1211.26 635.253 1211.26 635.253C1211.26 635.253 1200.68 643.94 1195.98 651.697C1195.97 651.704 1195.96 651.723 1195.95 651.734C1195.94 651.745 1195.96 651.59 1195.97 651.383C1196.01 650.619 1196.09 648.593 1196.03 646.303C1195.93 642.829 1195.51 638.747 1194.08 637.59C1191.53 635.457 1188.89 630.357 1188.89 630.357L1187.47 617.075C1187.47 617.075 1189.9 606.366 1186.88 603.817C1183.87 601.268 1182.57 599.976 1182.57 599.976C1182.57 599.976 1182.54 599.861 1181.92 596.693L1181.9 596.685C1179.71 585.575 1173.74 558.532 1165.31 547.002C1151 527.449 1133.22 513.035 1128.79 502.802C1124.4 492.546 1124.97 463.37 1124.97 463.37C1124.97 463.37 1124.73 439.808 1115.21 432.183L1114.95 416.444C1114.95 416.444 1113.72 415.789 1113.04 415.477V593.19C1113.61 593.174 1114.18 593.146 1114.75 593.133C1115.22 593.119 1115.69 593.11 1116.18 593.103C1117.5 593.092 1118.87 593.097 1120.17 593.128L1120.38 612.251C1119.07 612.251 1117.7 612.263 1116.38 612.283C1115.89 612.283 1115.43 612.305 1114.94 612.312C1114.31 612.323 1113.67 612.351 1113.04 612.372V623.572L1112.97 645.844L1132.89 658.836L1133.16 682.604L1166.53 704.348L1166.62 712.948L1127.29 684.748L1127.33 662.3L1112.84 652.22L1113.04 729.281C1114.16 729.704 1115.22 730.278 1116.19 730.988C1120.65 734.364 1122.03 739.833 1122.45 742.558C1122.54 743.109 1122.6 743.665 1122.63 744.223L1123.19 797.033L1123.24 801.705L1116.94 801.765L1113.04 801.808V816.42L1178.09 816.783L1197.95 816.573V816.559L1292.24 816.401ZM1238.46 708.73C1245.17 708.658 1245.51 715.818 1245.51 715.818L1245.67 730.974L1231.97 731.095L1231.82 715.965C1231.82 715.965 1231.74 708.795 1238.47 708.73M1177.64 623.343C1173.44 621.525 1169.13 619.956 1164.75 618.643L1164.55 599.481C1168.94 600.785 1173.25 602.353 1177.45 604.176L1177.64 623.343ZM1152.75 596.543L1152.95 615.692C1147.57 614.552 1142.13 613.715 1136.65 613.185L1136.45 594.033C1141.92 594.588 1147.36 595.425 1152.75 596.543ZM1141.53 801.511L1141.41 790.701L1141.04 755.075C1141.04 755.075 1140.94 744.9 1149.32 742.329C1150.62 741.938 1151.96 741.74 1153.32 741.739C1154.7 741.712 1156.08 741.886 1157.41 742.255C1165.86 744.687 1166.26 754.805 1166.26 754.805L1166.5 777.725L1166.74 801.244L1141.53 801.511ZM1209.72 709.02C1216.49 708.957 1216.75 716.12 1216.75 716.12L1216.91 731.22L1203.19 731.335L1203.04 716.263C1203.04 716.263 1202.97 709.099 1209.72 709.024M1197.05 752.312L1196.93 741.912H1197.13L1197.62 801.173L1197.52 796.501L1197.05 752.312Z" fill="#226D96"/>
<path d="M1103.45 744.091C1103.49 743.534 1103.55 742.979 1103.63 742.428C1104.05 739.701 1105.43 734.228 1109.89 730.859C1110.86 730.145 1111.92 729.569 1113.05 729.147L1112.91 652.282L1098.75 662.175L1098.8 684.618L1059.46 712.818L1059.55 704.218L1092.92 682.474L1093.19 658.706L1113.11 645.712L1113.04 623.438V612.238C1112.41 612.221 1111.78 612.191 1111.14 612.178C1110.66 612.178 1110.19 612.148 1109.7 612.148C1108.38 612.132 1107.01 612.117 1105.7 612.121L1105.91 592.996C1107.21 592.966 1108.58 592.959 1109.9 592.974C1110.39 592.983 1110.86 592.988 1111.33 593.007C1111.9 593.014 1112.47 593.044 1113.04 593.063V415.345C1112.37 415.658 1111.13 416.312 1111.13 416.312L1110.87 432.051C1101.36 439.673 1101.11 463.239 1101.11 463.239C1101.11 463.239 1101.68 492.418 1097.29 502.672C1092.87 512.903 1075.08 527.322 1060.77 546.872C1052.34 558.403 1046.37 585.452 1044.18 596.557L1044.17 596.564C1043.54 599.736 1043.52 599.847 1043.52 599.847C1043.52 599.847 1042.2 601.136 1039.2 603.687C1036.2 606.238 1038.62 616.951 1038.62 616.951L1037.19 630.233C1037.19 630.233 1034.55 635.333 1032 637.463C1030.58 638.622 1030.15 642.698 1030.06 646.174C1029.99 648.464 1030.08 650.488 1030.11 651.254C1030.12 651.461 1030.13 651.602 1030.13 651.602C1030.13 651.602 1030.12 651.579 1030.11 651.566C1025.4 643.807 1014.83 635.128 1014.83 635.128C1014.83 635.128 1015.56 608.973 1015.2 599.144C1014.9 589.235 1008.07 584.896 1008.07 584.896C1003.8 587.884 1001.13 596.847 1001.13 596.847L998.556 634.433C998.556 634.433 988.07 638.599 976.42 658.762C966.883 675.262 966.974 701.55 966.974 701.55C966.974 701.55 963.522 702.668 966.374 708.981L966.828 715.826L959.653 730.666L954.467 730.624L934.943 730.881L933.843 816.274L1028.13 816.429V816.446L1047.99 816.654L1113.05 816.293V801.681L1109.15 801.638L1102.85 801.57L1102.9 796.901L1103.45 744.091ZM994.107 730.962L980.407 730.847L980.563 715.686C980.563 715.686 980.907 708.531 987.614 708.601C994.338 708.664 994.264 715.831 994.264 715.831L994.107 730.962ZM1022.88 731.206L1009.16 731.088L1009.32 715.988C1009.32 715.988 1009.58 708.83 1016.35 708.896C1023.12 708.962 1023.04 716.135 1023.04 716.135L1022.88 731.206ZM1029.03 752.184L1028.55 796.371L1028.45 801.208L1028.94 741.785H1029.14L1029.03 752.184ZM1089.63 593.902L1089.43 613.053C1083.95 613.58 1078.51 614.415 1073.13 615.553L1073.33 596.401C1078.71 595.286 1084.15 594.453 1089.63 593.902ZM1061.53 599.353L1061.33 618.512C1056.95 619.824 1052.64 621.393 1048.44 623.212L1048.64 604.048C1052.84 602.221 1057.15 600.653 1061.54 599.353M1084.66 790.571L1084.54 801.381L1059.33 801.11L1059.57 777.591L1059.81 754.678C1059.81 754.678 1060.21 744.556 1068.66 742.127C1069.99 741.759 1071.37 741.585 1072.76 741.61C1074.11 741.611 1075.46 741.81 1076.76 742.199C1085.14 744.772 1085.04 754.95 1085.04 754.95L1084.66 790.571Z" fill="#226D96"/>
</g>
</g>
<g opacity="0.8">
<mask id="mask5_201_3" style="mask-type:luminance" maskUnits="userSpaceOnUse" x="1207" y="693" width="124" height="124">
<path d="M1330.84 693.381H1207.44V816.784H1330.84V693.381Z" fill="white"/>
</mask>
<g mask="url(#mask5_201_3)">
<path d="M1330.84 809.51L1322.57 796.564L1269.18 796.713V816.785H1330.84V809.51Z" fill="#226D96"/>
<path d="M1217.12 796.859L1207.44 809.511V816.784H1269.19V796.712L1217.12 796.859Z" fill="#226D96"/>
<path d="M1269.14 693.381L1211.84 727.068C1211.84 727.068 1207.89 730.634 1211.84 733.041H1269.18V693.404L1269.14 693.381Z" fill="#226D96"/>
<path d="M1326.44 727.069L1269.18 693.403V733.042H1326.44C1326.44 733.042 1329.65 730.42 1326.44 727.069Z" fill="#226D96"/>
<path d="M1291.17 737.452H1273.54V790.333H1291.17V737.452Z" fill="#226D96"/>
<path d="M1317.62 737.452H1299.99V790.333H1317.62V737.452Z" fill="#226D96"/>
<path d="M1238.29 737.452H1220.66V790.334H1238.29V737.452Z" fill="#226D96"/>
<path d="M1264.73 737.452H1247.1V790.334H1264.73V737.452Z" fill="#226D96"/>
</g>
</g>
<g opacity="0.8">
<mask id="mask6_201_3" style="mask-type:luminance" maskUnits="userSpaceOnUse" x="870" y="440" width="131" height="377">
<path d="M1000.92 440.392H870.105V816.784H1000.92V440.392Z" fill="white"/>
</mask>
<g mask="url(#mask6_201_3)">
<path d="M930.843 447.265C930.514 448.697 931.376 450.718 928.253 449.249C925.093 447.817 920.482 453.549 917.946 451.269C915.373 448.992 911.332 449.58 909.646 450.388C907.918 451.269 906.486 454.43 906.486 454.43C906.486 454.43 908.486 460.751 910.492 462.44C911.917 463.528 913.601 464.226 915.378 464.463C915.378 464.463 919.09 459.573 922.525 460.419C925.925 461.301 926.807 467.585 925.411 469.019C923.94 470.453 924.234 473.319 925.411 475.302C926.511 477.302 925.079 484.47 924.822 487.942C924.492 491.324 918.54 497.942 919.661 500.766C920.781 503.632 923.646 507.088 924.528 509.066C925.412 511.066 924.84 519.666 923.372 521.966C921.972 524.243 917.952 528.284 915.972 528.284C913.949 528.284 911.085 521.966 911.929 520.531C912.81 519.099 907.371 523.655 907.371 525.97C907.205 527.855 906.708 529.696 905.903 531.409C905.903 531.409 904.488 531.702 902.744 534.568C901.014 537.398 901.603 541.403 902.744 544.268C903.919 547.135 902.485 550.868 900.757 553.179C899.049 555.459 896.757 553.179 894.475 556.304C892.215 559.463 889.624 564.004 887.329 564.904C885.029 565.731 885.329 572.933 886.466 575.761C887.604 578.627 891.315 585.761 890.451 587.776C889.625 589.799 891.316 593.216 892.217 594.097C893.045 594.943 894.477 598.654 894.771 600.05C895.083 601.557 898.206 606.664 898.206 606.664V674.258C898.206 674.258 890.765 683.702 891.058 686.237C891.334 688.829 891.647 696.822 888.758 697.997C885.911 699.155 878.745 707.752 877.9 711.464C877.037 715.193 878.229 718.318 877.9 721.753C877.606 725.227 876.724 728.662 878.229 730.647C879.608 732.667 883.629 737.247 882.475 737.518C881.352 737.831 877.641 738.95 877.329 740.329C877.053 741.797 873.304 756.404 873.637 758.682C873.911 760.998 871.631 765.847 871.631 768.126C871.631 770.442 871.062 772.72 871.319 775.879C871.578 779.005 869.849 785.561 870.144 786.445C870.352 787.473 870.45 788.52 870.437 789.568V816.779H934.058V440.411C930.866 440.599 931.103 445.857 930.849 447.265" fill="#226D96"/>
<path d="M1000.92 788.875C1000.92 788.875 998.825 772.616 998.383 767.875C997.924 763.116 997.942 759.645 997.098 757.111C996.576 755.586 995.86 754.134 994.968 752.791C994.968 752.791 994.083 742.08 992.836 740.335C991.566 738.644 983.815 735.247 983.815 735.247C983.815 735.247 991.145 724.92 991.99 721.061C992.872 717.201 991.585 707.336 988.516 705.645C985.56 703.864 982.583 703.479 982.583 700.005C982.583 696.589 982.142 694.42 979.993 693.612C977.845 692.693 974.83 689.712 973.526 688.834C972.259 687.988 969.243 683.744 969.243 683.744V608.579C969.243 608.579 973.526 602.151 973.066 599.101C972.68 596.123 972.68 591.382 973.066 590.078C973.471 588.811 979.092 576.317 978.651 574.15C978.246 572.037 985.982 575.895 985.982 575.895C985.982 575.895 986.862 569.87 984.696 568.178C982.547 566.451 973.507 561.27 977.328 559.578C981.223 557.85 986.846 560.423 986.846 560.423C986.846 560.423 986.846 554.874 982.946 553.607C979.089 552.284 980.817 547.121 976.478 545.854C972.16 544.568 967 547.581 963.141 546.332C959.282 545.009 958.401 541.59 955.46 538.132C953.418 535.877 951.26 533.731 948.994 531.701C948.994 531.701 959.428 525.969 958.86 521.101C958.292 516.233 952.006 508.771 950.278 501.936C948.571 495.028 949.69 487.605 947.706 484.482C946.364 482.433 944.832 480.514 943.132 478.75L943.406 473.017C943.406 473.017 951.161 477.337 953.732 478.417C956.303 479.575 958.582 485.617 959.467 485.031C960.31 484.479 959.76 477.864 957.994 476.431C956.303 474.999 950.277 471.876 947.706 469.56C945.4 467.388 943.968 464.448 943.681 461.293C943.681 459.27 943.132 455.854 941.404 454.659C939.659 453.539 938.666 453.281 937.399 452.144C936.113 450.966 939.108 447.696 939.108 445.418C939.146 444.759 939.047 444.1 938.816 443.481C938.586 442.863 938.229 442.299 937.77 441.826C937.31 441.352 936.757 440.98 936.145 440.731C935.534 440.483 934.878 440.364 934.218 440.383C934.159 440.383 934.107 440.399 934.048 440.402V816.784H1000.91L1000.92 788.875Z" fill="#226D96"/>
</g>
</g>
<g opacity="0.8">
<mask id="mask7_201_3" style="mask-type:luminance" maskUnits="userSpaceOnUse" x="216" y="314" width="467" height="503">
<path d="M682.149 314.773H216V816.784H682.149V314.773Z" fill="white"/>
</mask>
<g mask="url(#mask7_201_3)">
<path d="M289.09 523.407L285.33 521.776L275.277 551.782L254.93 557.761L255.937 562.227L277.882 555.774V555.132L278.401 555.356L289.09 523.407Z" fill="#226D96"/>
<path d="M421.6 703.87L420.482 707.644H417.531V712.793H413V699.328H411V692.108H409.993L409.237 686.888L408.23 680.044L407.223 686.888L406.459 692.108H405.43V699.328H403.473V712.793H396.9V707.644H393.959L392.859 703.87L391.659 699.845L390.478 703.87L389.378 707.644H386.437V712.793H381.943V700.064H379.978V692.571H378.971L378.192 687.124L377.192 680.043L376.172 687.124L375.419 692.571H374.4V700.064H372.422V712.792H365.791V707.643H362.868L361.739 703.869L360.564 699.844L359.372 703.869L358.259 707.643H355.337V712.792H350.891V699.328H348.932V692.108H347.913L347.136 686.888L346.148 680.044L345.132 686.888L344.366 692.108H343.349V699.328H341.367V712.793H334.694V707.644H331.749L330.649 703.87L329.455 699.845L328.277 703.87L327.165 707.644H326.065L325.776 600.191H330.284V494.065H325.776V473.69H324.876L302.831 435.641H302.443V397.826H302.216L273.386 333.576V314.776H272.81V333.754L244.072 397.826H243.816V436.264L221.4 473.69H220.534V494.065H216V600.191H220.534L220.449 816.784H422.643L422.652 700.235L421.6 703.87ZM274.914 583.636C274.263 583.636 273.614 583.564 272.978 583.525C254.992 582.369 240.712 565.39 240.712 544.546C240.712 523.702 254.993 506.71 272.978 505.559C273.616 505.525 274.264 505.459 274.914 505.459C293.79 505.459 309.12 522.968 309.12 544.55C309.12 566.132 293.791 583.64 274.914 583.64" fill="#226D96"/>
<path d="M680.233 687.26V668.66H679.778C679.266 666.987 678.348 665.466 677.106 664.233C675.864 663 674.337 662.092 672.66 661.592L671.229 655.882L669.1 647.399L666.954 655.882L665.538 661.592C664.031 662.042 662.643 662.819 661.472 663.869C660.301 664.919 659.377 666.214 658.766 667.663H657.544V636.704H654.165V619.423H651.809L650.295 611.903L647.436 597.578L644.578 611.902L643.078 619.422H640.698V636.704H637.332V667.66H630.115V682.531L621.534 687.914V711.722H615.855V706.515H612.878L611.763 702.707L610.542 698.631L609.363 702.707L608.225 706.515H605.278V711.722H600.325V698.122H598.348V690.82H597.308L596.539 685.52L595.508 678.62L594.485 685.52L593.728 690.82H592.708V698.114H590.708V711.714H584.427V706.507H581.449L580.301 702.699L579.122 698.623L577.931 702.699L576.795 706.507H573.82V711.714H568.94V697.376H566.946V690.353H565.91L565.144 685.262L564.115 678.621L563.108 685.262L562.338 690.353H561.308V697.376H559.331V711.718H552.964V706.511H549.99L548.852 702.703L547.686 698.627L546.472 702.703L545.336 706.511H542.36V711.718H537.549V697.376H535.566V690.353H534.526L533.749 685.262L532.732 678.621L531.715 685.262L530.948 690.353H529.915V697.376H527.927V711.718H521.508V706.511H518.549L517.42 702.703L516.209 698.627L515.031 702.703L513.896 706.511H510.915V711.718H506.17V698.118H504.17V690.82H503.139L502.365 685.52L501.339 678.62L501.154 679.92V681.539L500.381 686.883L499.615 692.103H498.598V699.323H496.617V712.788H490.223V707.639H487.281L486.168 703.865L484.976 699.84L483.795 703.865L482.679 707.639H479.748V712.788H475.099V698.972H473.118V691.872H472.099L471.329 686.748L470.322 680.048L469.328 686.748L468.554 691.872H467.536V698.972H465.578V712.793H459.116V707.644H456.188L455.078 703.87L453.896 699.845L452.678 703.87L451.578 707.644H448.636V712.793H444.045V700.06H442.067V692.567H441.051L440.291 687.12L439.274 680.041L438.28 687.12L437.513 692.567H436.483V700.06H434.522V712.788H428.012V707.639H425.067L423.967 703.865L422.767 699.84L422.655 700.231L422.578 816.785H681.038L681.183 712.193L682.144 711.719V690.572L680.233 687.26Z" fill="#226D96"/>
</g>
</g>
<g opacity="0.8">
<mask id="mask8_201_3" style="mask-type:luminance" maskUnits="userSpaceOnUse" x="605" y="561" width="439" height="256">
<path d="M1043.56 561.714H605.664V816.784H1043.56V561.714Z" fill="white"/>
</mask>
<g mask="url(#mask8_201_3)">
<path d="M816.699 561.714V588.267L813.914 606.412V611.512L803.597 631.181V653.445L792.83 652.138L783.22 666.722L764.71 672.622L758.619 679.522L752.313 684.39L750.19 687.716L748.09 688.724V699.964L744.313 701.764H741.291L737.539 704.338L733.376 724.756L730.289 729.648L728.659 733.465C725.805 730.804 723.059 728.465 721.131 727.525C715.318 724.564 706.501 730.418 702.598 727.525C698.698 724.564 696.698 725.551 695.756 731.45C694.769 737.327 694.64 744.577 690.844 743.118C683.035 740.243 675.23 739.258 675.23 742.175C675.23 745.155 674.263 744.175 672.311 749.038C671.133 751.869 671.367 755.43 671.52 758.647C669.345 759.767 667.059 760.658 664.699 761.306C661.413 761.823 651.83 762.806 651.83 762.806V771.044L641.511 777.884L638.701 777.436L631.88 788.868H619.242V800.168H605.664V816.768H816.788V561.714H816.699Z" fill="#226D96"/>
<path d="M1043.56 800.48L1033.65 787.87L1028.91 771.805L1017.22 765.905C1017.22 765.905 1015.6 760.284 1012.81 759.834C1009.98 759.275 1010.64 759.061 1007.14 758.524C1003.63 758.031 1002.23 759.255 1002.23 759.255L993.545 748.055H980.225C980.225 748.055 976.448 740.635 973.21 739.347C969.951 738.017 965.918 737.547 963.13 738.534C960.34 739.627 958.175 740.076 955.84 739.091C953.521 738.017 947.452 738.832 947.452 738.832C947.452 738.832 946.465 726.307 943.678 723.691C940.888 721.158 935.978 721.93 934.305 723.691C932.674 725.491 931.28 728.321 929.37 725.75C927.506 723.239 922.808 719.357 920.941 720.708C919.076 721.997 917.641 722.254 915.986 721.159C914.4 720.13 910.386 721.159 910.386 721.159V694.889L906.846 684.121V675.199L898.932 660.099L892.82 661.923L890.737 651.39L888.38 664.668L860.973 672.112V662.161L852.758 635.608L850.635 644.788L847.182 638.654L845.767 643.754L842.29 633.78L839.91 638.37L830.645 631.056L820.691 611.539V606.992L818.12 588.028V561.714H816.794V816.784H1043.56V800.48Z" fill="#226D96"/>
</g>
</g>
<g opacity="0.8">
<mask id="mask9_201_3" style="mask-type:luminance" maskUnits="userSpaceOnUse" x="386" y="241" width="270" height="576">
<path d="M655.631 241H386.45V816.784H655.631V241Z" fill="white"/>
</mask>
<g mask="url(#mask9_201_3)">
<path d="M490.91 697C490.91 697 504.133 647.314 504.916 634.3H520.582V241H520.063V263.461C519.676 263.6 519.34 263.852 519.098 264.185C518.856 264.518 518.72 264.916 518.708 265.327V286.227H517.151C516.233 286.173 515.331 286.483 514.64 287.09C513.949 287.697 513.526 288.552 513.462 289.469C513.465 290.021 513.613 290.562 513.89 291.039H512.238C509.365 291.039 507.043 293.079 507.043 295.593V298.785C507.047 299.518 507.247 300.236 507.623 300.865C506.656 301.117 505.795 301.672 505.167 302.45C504.539 303.227 504.176 304.185 504.132 305.183C504.132 305.183 506.459 323.575 509.325 323.575H509.992C510.715 424.695 490.433 559.12 485.128 592.504H481.149C478.285 592.504 475.964 594.551 475.964 597.074C475.964 597.074 478.284 605.874 481.149 605.874H482.864C477.429 634.21 465.556 666.09 451.922 696.305H439.559V722.419C423.499 754.773 405.772 786.273 386.45 816.792H442.941C443.888 777.482 478.241 745.892 520.582 745.661V697H490.91Z" fill="#226D96"/>
<path d="M602.159 721.678V696.3H590.147C576.524 666.085 564.635 634.205 559.208 605.869H561.344C564.213 605.869 566.527 597.069 566.527 597.069C566.527 594.546 564.213 592.499 561.344 592.499H556.951C551.639 559.117 531.359 424.692 532.089 323.571H532.766C535.62 323.571 537.935 305.179 537.935 305.179C537.893 304.181 537.532 303.224 536.906 302.447C536.279 301.669 535.419 301.114 534.453 300.862C534.827 300.232 535.024 299.513 535.022 298.78V295.59C535.022 293.076 532.705 291.036 529.855 291.036H528.177C528.456 290.559 528.605 290.017 528.611 289.464C528.547 288.545 528.123 287.689 527.431 287.082C526.739 286.475 525.835 286.166 524.916 286.222H523.368V265.322C523.357 264.911 523.223 264.513 522.982 264.18C522.741 263.847 522.405 263.595 522.018 263.456V241H520.584V634.3H536.769C536.769 634.3 546.107 684.311 551.159 697H520.582V745.65C520.734 745.65 520.882 745.643 521.038 745.643H521.09C563.616 745.667 598.18 777.359 599.135 816.781H655.635C636.177 786.026 618.327 754.283 602.159 721.678Z" fill="#226D96"/>
</g>
</g>
<g opacity="0.8">
<mask id="mask10_201_3" style="mask-type:luminance" maskUnits="userSpaceOnUse" x="285" y="595" width="350" height="222">
<path d="M634.728 595.248H285.775V816.784H634.728V595.248Z" fill="white"/>
</mask>
<g mask="url(#mask10_201_3)">
<path d="M629.248 779.018L629.998 771.9C631.492 768.492 628.504 767.26 628.504 767.26L627.514 761.06L619.038 760.144C615.056 752.704 611.067 727.317 611.067 727.317L611.32 723.917C611.32 720.511 614.057 717.417 614.057 717.417L608.581 714.935L607.825 710.604L597.625 707.511L589.404 677.165L590.895 674.698L589.901 671.292L591.891 665.72L587.403 663.864L586.662 657.364L581.427 655.193C580.184 646.831 568.727 618.047 568.727 618.047L566.239 614.027L567.732 608.441C535.664 595.278 495.169 594.141 464.611 595.9V664.494C464.656 664.494 464.697 664.475 464.739 664.475C468.866 664.475 472.209 668.717 472.209 673.946V689.386C472.21 690.386 472.085 691.382 471.836 692.351C469.391 692.412 467.022 692.528 464.611 692.615V715.103C465.867 716.237 466.863 717.63 467.531 719.185C468.199 720.74 468.523 722.421 468.48 724.113V741.836C468.5 744.164 467.874 746.452 466.671 748.445L464.611 748.462V816.793H634.727C632.485 805.957 629.244 779.027 629.244 779.027M553.655 678.635C553.655 673.889 556.744 670.044 560.571 670.044C564.382 670.044 567.476 673.888 567.476 678.635V699.169C562.921 698.276 558.314 697.476 553.655 696.769V678.635ZM531.855 625.781H538.585V636.301H531.855V625.781ZM531.23 674.988C531.23 670.207 534.416 666.337 538.33 666.337C542.244 666.337 545.437 670.207 545.437 674.988V695.621C540.728 695.021 535.994 694.503 531.237 694.068L531.23 674.988ZM485.039 622.066H491.756V632.589H485.039V622.066ZM488.271 803.781H470.715V783.861C470.715 775.89 474.642 769.413 479.488 769.413C484.334 769.413 488.274 775.889 488.274 783.861L488.271 803.781ZM494.618 743.23C494.625 745.047 494.247 746.844 493.51 748.505C488.359 748.446 483.22 748.42 478.123 748.416C477.416 746.779 477.054 745.013 477.061 743.23V725.494C477.061 719.486 480.996 714.624 485.843 714.624C490.69 714.624 494.617 719.487 494.617 725.494L494.618 743.23ZM496.866 691.878C496.866 692.004 496.854 692.116 496.846 692.248C491.588 692.157 486.367 692.134 481.183 692.178C481.183 692.083 481.174 691.973 481.174 691.878V672.833C481.174 667.45 484.688 663.077 489.015 663.077C493.342 663.077 496.866 667.45 496.866 672.833V691.878ZM515.926 803.778H498.357V785.306C498.357 778.076 502.29 772.206 507.142 772.206C511.994 772.206 515.929 778.077 515.929 785.306L515.926 803.778ZM520.401 744.154C520.408 745.833 520.087 747.498 519.457 749.054C514.19 748.889 508.916 748.758 503.635 748.661C503.105 747.217 502.837 745.69 502.842 744.152V726.422C502.842 720.416 506.775 715.551 511.615 715.551C516.471 715.551 520.401 720.415 520.401 726.422V744.154ZM522.267 690.765C522.268 691.626 522.173 692.484 521.983 693.323C517.136 693.001 512.296 692.741 507.462 692.543C507.368 691.955 507.321 691.36 507.324 690.765V675.327C507.324 670.098 510.674 665.869 514.794 665.869C518.914 665.869 522.267 670.098 522.267 675.327V690.765ZM542.448 803.782H524.888V785.252C524.888 777.279 528.82 770.813 533.672 770.813C538.524 770.813 542.448 777.279 542.448 785.252V803.782ZM546.562 745.548C546.566 747.125 546.291 748.691 545.749 750.172C540.514 749.887 535.246 749.64 529.943 749.429C529.563 748.17 529.372 746.862 529.376 745.547V727.827C529.376 721.818 533.224 716.944 537.967 716.944C542.71 716.944 546.567 721.818 546.567 727.827L546.562 745.548ZM567.481 803.782H549.931V784.331C549.931 776.36 553.851 769.884 558.698 769.884C563.545 769.884 567.481 776.36 567.481 784.331V803.782ZM570.473 747.417C570.476 748.914 570.228 750.402 569.739 751.817C564.451 751.38 559.096 750.989 553.673 750.642C553.413 749.587 553.283 748.504 553.285 747.417V729.674C553.285 723.674 557.131 718.809 561.88 718.809C566.629 718.809 570.473 723.671 570.473 729.674V747.417ZM573.085 683.004C573.085 678.156 576.096 674.231 579.814 674.231C583.532 674.231 586.537 678.156 586.537 683.004V703.624C582.131 702.424 577.647 701.328 573.085 700.336V683.004ZM574.293 803.782L573.193 787.427C572.672 779.818 575.339 773.342 579.125 772.945C582.911 772.548 586.404 778.385 586.925 785.999L588.125 803.782H574.293ZM589.548 753.747C584.892 753.219 580.13 752.738 575.306 752.292C575.192 751.654 575.115 751.011 575.076 750.364L574.116 732.674C573.786 726.681 576.866 721.551 580.978 721.199C585.09 720.847 588.701 725.433 589.027 731.419L589.994 749.11C590.083 750.669 589.932 752.233 589.547 753.747M594.114 803.782L593.025 787.622C592.534 780.166 594.611 773.853 597.687 773.53C600.763 773.207 603.653 779 604.156 786.469L605.324 803.782H594.114ZM605.287 755.782C601.657 755.249 597.963 754.756 594.204 754.304C594.182 754.133 594.169 753.961 594.165 753.788L593.265 737.141C592.958 731.504 595.212 726.72 598.303 726.46C601.394 726.2 604.154 730.56 604.467 736.196L605.367 752.847C605.421 753.826 605.396 754.807 605.292 755.782M608.721 803.782L607.378 788.775C606.703 781.335 608.648 774.95 611.721 774.529C614.794 774.108 617.8 779.798 618.476 787.238L619.97 803.782H608.721Z" fill="#226D96"/>
<path d="M452.797 748.556C451.543 746.537 450.888 744.203 450.911 741.826V724.104C450.911 718.104 454.841 713.236 459.688 713.236C461.495 713.253 463.238 713.911 464.605 715.093V692.606C462.335 692.692 460.03 692.741 457.793 692.853C457.438 691.729 457.26 690.556 457.263 689.377V673.937C457.263 668.767 460.541 664.581 464.605 664.485V595.89C449.491 596.702 434.438 598.412 419.527 601.011L419.776 605.345L418.032 606.892L417.532 612.153L411.559 613.081L392.628 617.722L385.654 609.991C290.01 646.524 306.319 682.432 306.319 682.432L304.204 697.592C302.034 700.352 300.552 703.589 299.881 707.036C299.21 710.482 299.371 714.039 300.348 717.411L298.104 732.43C289.512 737.847 294.004 748.213 294.004 748.213L289.645 772.205C285.657 774.371 289.017 778.705 289.017 778.705L285.779 816.785H464.604V748.453C460.636 748.478 456.684 748.503 452.796 748.553M438.704 622.983H445.43V633.513H438.704V622.983ZM433.736 673.936C433.736 668.707 437.072 664.465 441.21 664.465C445.326 664.465 448.674 668.707 448.674 673.936V689.376C448.677 690.738 448.436 692.09 447.963 693.368C443.487 693.637 439.112 693.951 434.814 694.288C434.095 692.751 433.727 691.073 433.735 689.376L433.736 673.936ZM409.804 676.258C409.804 671.032 413.166 666.797 417.281 666.797C421.396 666.797 424.75 671.032 424.75 676.258V691.692C424.753 692.879 424.574 694.059 424.221 695.192C419.621 695.62 415.173 696.071 410.878 696.545C410.162 695.027 409.795 693.368 409.803 691.689L409.804 676.258ZM395.372 631.969L401.841 631.349V641.869L395.372 642.497V631.969ZM388.889 680.434C388.889 675.211 392.236 670.976 396.362 670.976C400.488 670.976 403.833 675.211 403.833 680.434V695.871C403.83 696.373 403.797 696.873 403.733 697.371C398.633 697.979 393.833 698.605 389.376 699.22C389.056 698.132 388.892 697.003 388.89 695.869L388.889 680.434ZM387.704 715.615C392.539 716.065 396.151 721.162 395.776 727.001L394.666 744.227C394.551 746.383 393.84 748.465 392.613 750.242C388.105 750.426 383.77 750.621 379.65 750.81C377.82 748.471 376.934 745.531 377.166 742.57L378.266 725.346C378.642 719.518 382.866 715.146 387.7 715.616M369.295 681.504C369.671 676.304 373.304 672.449 377.414 672.904C381.524 673.359 384.559 677.948 384.186 683.151L383.077 698.534C383.04 699.083 382.963 699.628 382.846 700.166C377.646 700.924 373.034 701.656 369.11 702.321C368.364 700.61 368.051 698.741 368.198 696.88L369.295 681.504ZM320.895 673.296L318.533 674.847L319.652 666.019L321.893 664.631L320.895 673.296ZM338.705 661.842L336.079 662.611L336.586 653.949L339.445 652.398L338.705 661.842ZM361.868 642.031L366.854 640.016L365.611 650.547L360.87 651.947L361.868 642.031ZM384.494 784.073L382.853 803.784H365.226C365.239 803.599 365.252 803.412 365.273 803.219L367.016 782.282C367.606 775.2 371.998 769.859 376.822 770.35C381.646 770.841 385.092 776.983 384.494 784.073ZM408.318 803.738V803.784H390.755V783.618C390.755 776.793 394.691 771.288 399.541 771.288C404.391 771.288 408.318 776.788 408.318 783.618V803.738ZM402.658 749.838C401.454 747.848 400.827 745.563 400.846 743.238V725.494C400.846 719.486 404.779 714.624 409.622 714.624C414.465 714.624 418.412 719.487 418.412 725.494V743.231C418.423 745.364 417.897 747.465 416.881 749.341C411.997 749.493 407.256 749.657 402.658 749.832M435.22 803.782H417.658V782.015C417.658 774.039 421.598 767.565 426.442 767.565C431.286 767.565 435.221 774.04 435.221 782.015L435.22 803.782ZM443.065 741.827C443.09 744.278 442.394 746.682 441.065 748.742C436.54 748.824 432.089 748.926 427.714 749.048C426.247 746.928 425.475 744.405 425.505 741.827V724.104C425.505 718.104 429.434 713.236 434.284 713.236C439.134 713.236 443.064 718.099 443.064 724.104L443.065 741.827ZM444.556 803.782V781.547C444.556 773.564 448.491 767.095 453.34 767.095C458.189 767.095 462.119 773.564 462.119 781.547V803.778L444.556 803.782Z" fill="#226D96"/>
</g>
</g>
<g opacity="0.8">
<mask id="mask11_201_3" style="mask-type:luminance" maskUnits="userSpaceOnUse" x="220" y="705" width="223" height="112">
<path d="M442.89 705.676H220.359V816.783H442.89V705.676Z" fill="white"/>
</mask>
<g mask="url(#mask11_201_3)">
<path d="M413.911 804.778C411.811 793.87 406.421 769.201 408.36 763.638C410.776 756.791 410.048 751.282 409.384 743.977C408.72 736.672 412.103 728.899 407.336 725.72C402.513 722.531 394.218 723.62 389.809 724.043C385.347 724.523 385.021 724.523 384.321 735.931C383.649 747.331 380.47 761.82 381.188 763.671C381.666 764.922 383.321 786.335 384.235 799.052C378.269 798.464 370.8 797.768 370.519 797.768C369.365 780.588 367.419 751.783 366.567 744.021C366.276 740.702 365.755 737.407 365.01 734.159C367.459 732.819 370.455 724.219 370.746 719.026C371.14 713.386 371.454 706.149 361.246 705.712C356.271 705.524 344.246 706.112 332.916 706.752V733.609C336.423 733.643 339.926 733.678 341.271 733.704C341.15 737.08 338.756 778.351 338.842 798.033C337.255 798.033 335.06 798.049 332.916 798.066L332.877 816.787H442.891C442.891 816.787 438.734 810.314 413.911 804.782" fill="#226D96"/>
<path d="M325.936 798.136C326.176 778.082 326.265 743.061 324.479 733.514C325.773 733.535 329.343 733.569 332.912 733.605V706.751C321.158 707.419 310.147 708.151 308.529 708.151C305.371 708.151 300.822 720.234 302.552 724.651C304.328 729.06 302.944 732.641 306.689 733.076C304.24 738.63 302.043 754.436 301.3 767.783C300.8 776.683 299.767 789.555 299.514 799.376C297.468 799.505 297.326 799.747 295.39 799.899C296.097 792.43 294.507 783.092 292.362 775.97C288.607 763.614 293.062 747.209 293.062 746.097C293.062 744.247 290.057 736.649 286.922 732.488C289.185 731.03 295.008 724.627 287.106 719.012C284.906 717.455 259.017 721.428 255.371 721.428C251.79 721.428 239.346 728.188 238.423 730.228C237.594 732.078 241.423 733.995 244.867 735.234C244.731 735.323 244.609 735.434 244.508 735.562C244.008 736.086 242.264 748.801 238.641 752.024C235.56 754.789 237.072 796.178 238.856 807.85C223.193 812.138 220.356 816.785 220.356 816.785H332.813L332.913 798.064C329.857 798.09 326.898 798.126 325.937 798.139M267.716 802.711C266.847 802.82 259.997 802.928 259.216 803.037C258.748 786.446 261.023 747.375 260.555 743.588C259.988 739.199 262.917 736.499 258.755 734.802C262.142 734.637 265.831 734.431 269.436 734.182C268.117 745.449 268.173 784.311 267.716 802.711Z" fill="#226D96"/>
</g>
</g>
<g opacity="0.8">
<mask id="mask12_201_3" style="mask-type:luminance" maskUnits="userSpaceOnUse" x="1101" y="317" width="215" height="500">
<path d="M1315.75 317.097H1101.55V816.784H1315.75V317.097Z" fill="white"/>
</mask>
<g mask="url(#mask12_201_3)">
<path d="M1313.5 426.457L1293.97 423.279C1294.06 421.297 1293.14 419.596 1291.79 419.316L1299.17 362.932C1299.23 362.911 1299.28 362.894 1299.34 362.879C1299.75 362.51 1300.04 362.026 1300.17 361.49L1302.05 361.796L1302.12 361.296C1302.31 360.12 1302.07 358.916 1301.46 357.896C1301.29 357.619 1301.06 357.38 1300.79 357.194C1300.52 357.009 1300.22 356.881 1299.9 356.819L1298.14 356.535L1299.85 343.549L1301.92 343.878C1302.55 343.95 1303.19 343.893 1303.8 343.712C1304.41 343.53 1304.98 343.226 1305.47 342.82C1305.96 342.413 1306.36 341.912 1306.65 341.346C1306.95 340.78 1307.12 340.16 1307.17 339.525C1307.24 338.857 1307.21 338.182 1307.07 337.525L1244.34 327.322L1231.36 427.171C1233.1 427.58 1234.67 428.512 1235.87 429.84C1237.06 431.169 1237.82 432.831 1238.05 434.604L1237.84 434.57C1236.52 434.356 1235.23 435.742 1234.98 437.67L1234.91 438.17L1236.98 438.5C1236.98 438.953 1237.16 439.387 1237.48 439.71L1234.12 465.332L1233.82 465.273C1232.61 465.079 1231.43 466.227 1231.05 467.889L1226.17 467.095L1224.31 481.377C1225.92 481.766 1227.37 482.628 1228.49 483.853C1229.6 485.078 1230.32 486.609 1230.55 488.247C1229.32 488.234 1228.18 489.563 1227.94 491.37L1227.88 491.87L1229.94 492.199C1229.95 492.648 1230.13 493.078 1230.44 493.399L1227.08 519.034L1226.78 518.978C1225.57 518.778 1224.38 519.943 1224 521.628L1219.18 520.851L1217.32 535.151C1218.92 535.544 1220.36 536.406 1221.46 537.625C1222.57 538.845 1223.28 540.367 1223.52 541.996C1222.26 541.977 1221.14 543.286 1220.9 545.113L1220.84 545.613L1222.9 545.948C1222.9 546.399 1223.09 546.83 1223.41 547.148L1220.04 572.779L1219.73 572.73C1218.46 572.53 1217.22 573.823 1216.91 575.646L1212.15 574.875L1210.3 589.189C1211.88 589.591 1213.31 590.454 1214.4 591.669C1215.5 592.884 1216.2 594.396 1216.44 596.013C1215.2 596.003 1214.06 597.337 1213.82 599.136L1213.76 599.636L1215.81 599.974C1215.83 600.42 1216 600.844 1216.31 601.166L1212.96 626.794L1212.66 626.748C1211.41 626.548 1210.25 627.695 1209.87 629.413L1205.16 628.649L1203.3 642.967C1204.87 643.38 1206.28 644.245 1207.36 645.454C1208.44 646.663 1209.15 648.163 1209.38 649.767C1208.14 649.75 1207.02 651.056 1206.78 652.897L1206.71 653.39L1208.77 653.73C1208.78 654.175 1208.96 654.599 1209.27 654.915L1205.91 680.532L1205.6 680.49C1204.38 680.279 1203.23 681.404 1202.84 683.09L1198.17 682.33L1196.31 696.662C1197.87 697.082 1199.27 697.95 1200.34 699.158C1201.42 700.367 1202.11 701.863 1202.34 703.462C1201.86 703.468 1201.4 703.643 1201.03 703.956C1200.29 704.638 1199.83 705.573 1199.73 706.578L1199.66 707.068L1201.73 707.411C1201.73 707.858 1201.91 708.286 1202.23 708.603L1198.88 734.232L1198.58 734.185C1197.35 733.991 1196.17 735.158 1195.79 736.838L1191.19 736.092L1190.43 741.906L1270.45 754.932C1270.79 754.988 1271.15 754.967 1271.49 754.872C1271.82 754.777 1272.14 754.61 1272.4 754.382C1272.98 753.89 1273.35 753.2 1273.44 752.448C1273.56 751.713 1273.4 750.959 1272.98 750.339C1272.57 749.72 1271.93 749.283 1271.21 749.118L1270.54 749.018C1270.62 747.278 1269.79 745.784 1268.56 745.585L1268.26 745.536L1271.62 719.911C1271.81 719.806 1271.98 719.664 1272.12 719.492C1272.25 719.32 1272.35 719.122 1272.41 718.911L1274.47 719.247L1274.54 718.747C1274.78 716.834 1273.92 715.094 1272.59 714.881L1272.5 714.868C1272.93 713.537 1273.64 712.313 1274.57 711.277L1274.69 711.145L1276.03 700.954L1277.5 701.194C1277.84 701.25 1278.2 701.229 1278.53 701.133C1278.87 701.036 1279.18 700.866 1279.45 700.635C1280.02 700.145 1280.39 699.455 1280.49 698.704C1280.5 698.567 1280.5 698.422 1280.5 698.276C1280.51 697.657 1280.33 697.05 1279.99 696.531C1279.8 696.229 1279.54 695.97 1279.24 695.772C1278.95 695.575 1278.61 695.441 1278.25 695.382L1277.58 695.266C1277.64 693.554 1276.81 692.088 1275.6 691.884L1275.3 691.838L1278.65 666.211C1278.84 666.109 1279.01 665.967 1279.15 665.795C1279.29 665.622 1279.38 665.424 1279.44 665.211L1281.5 665.547L1281.57 665.047C1281.73 664.036 1281.52 663 1280.99 662.125C1280.85 661.879 1280.65 661.667 1280.41 661.502C1280.18 661.338 1279.91 661.225 1279.63 661.171L1279.54 661.155C1279.97 659.822 1280.68 658.598 1281.62 657.564L1281.73 657.443L1283.07 647.243L1284.53 647.476C1284.88 647.533 1285.23 647.513 1285.57 647.418C1285.91 647.324 1286.22 647.156 1286.48 646.927C1287.06 646.435 1287.43 645.744 1287.52 644.992C1287.54 644.851 1287.55 644.708 1287.55 644.565C1287.55 643.945 1287.37 643.337 1287.03 642.82C1286.83 642.517 1286.58 642.259 1286.28 642.061C1285.98 641.863 1285.64 641.73 1285.29 641.671L1284.63 641.565C1284.69 640.689 1284.48 639.815 1284.02 639.065C1283.87 638.821 1283.67 638.611 1283.43 638.447C1283.19 638.283 1282.93 638.169 1282.64 638.111L1282.34 638.065L1285.7 612.431C1285.89 612.331 1286.06 612.191 1286.2 612.021C1286.33 611.851 1286.43 611.654 1286.49 611.443L1288.55 611.783L1288.61 611.297C1288.78 610.284 1288.57 609.247 1288.04 608.368C1287.9 608.12 1287.7 607.906 1287.46 607.742C1287.22 607.577 1286.95 607.465 1286.67 607.414L1286.58 607.395C1287.01 606.065 1287.72 604.841 1288.66 603.804L1288.78 603.686L1290.11 593.473L1291.58 593.72C1291.92 593.777 1292.28 593.757 1292.61 593.662C1292.95 593.566 1293.26 593.398 1293.53 593.168C1294.11 592.68 1294.48 591.99 1294.57 591.237C1294.58 591.09 1294.59 590.943 1294.59 590.8C1294.6 590.181 1294.41 589.576 1294.07 589.062C1293.88 588.76 1293.62 588.5 1293.32 588.3C1293.02 588.1 1292.69 587.963 1292.33 587.898L1291.69 587.798C1291.86 585.94 1291.01 584.298 1289.72 584.098L1289.42 584.049L1292.78 558.417C1292.97 558.314 1293.14 558.172 1293.28 558C1293.41 557.827 1293.51 557.629 1293.56 557.417L1295.63 557.76L1295.7 557.26C1295.86 556.25 1295.65 555.216 1295.12 554.341C1294.97 554.094 1294.77 553.882 1294.54 553.716C1294.3 553.551 1294.03 553.437 1293.75 553.381L1293.66 553.365C1294.1 552.036 1294.8 550.812 1295.74 549.774L1295.85 549.659L1297.19 539.452L1298.65 539.688C1299 539.746 1299.35 539.727 1299.69 539.632C1300.03 539.537 1300.34 539.369 1300.61 539.139C1301.18 538.654 1301.55 537.974 1301.64 537.232C1301.77 536.499 1301.61 535.744 1301.2 535.125C1300.78 534.505 1300.15 534.067 1299.42 533.902L1298.75 533.796C1298.82 532.056 1297.99 530.558 1296.77 530.363L1296.47 530.32L1299.83 504.685C1300.21 504.471 1300.49 504.117 1300.61 503.698L1302.68 504.036L1302.75 503.543C1303 501.617 1302.12 499.874 1300.8 499.66L1300.71 499.648C1301.14 498.315 1301.85 497.089 1302.79 496.054L1302.91 495.933L1304.24 485.733L1305.71 485.97C1306.05 486.024 1306.41 486.002 1306.75 485.907C1307.08 485.812 1307.4 485.645 1307.67 485.418C1308.24 484.925 1308.6 484.233 1308.69 483.482C1308.71 483.339 1308.72 483.195 1308.72 483.05C1308.72 482.429 1308.54 481.82 1308.2 481.3C1308.01 481.002 1307.75 480.747 1307.45 480.551C1307.15 480.354 1306.81 480.221 1306.46 480.158L1305.79 480.049C1305.84 479.199 1305.63 478.354 1305.18 477.63C1305.04 477.382 1304.84 477.169 1304.6 477.002C1304.37 476.836 1304.1 476.72 1303.81 476.663L1303.51 476.613L1306.86 450.985C1307.06 450.882 1307.22 450.74 1307.36 450.57C1307.5 450.4 1307.6 450.204 1307.65 449.994L1309.72 450.332L1309.78 449.842C1309.94 448.831 1309.74 447.795 1309.2 446.922C1309.06 446.674 1308.86 446.459 1308.62 446.293C1308.39 446.126 1308.12 446.011 1307.84 445.955L1307.29 445.872C1307.75 444.432 1308.51 443.107 1309.52 441.989L1310.84 431.958L1312.74 432.265C1313.08 432.325 1313.44 432.307 1313.78 432.212C1314.12 432.117 1314.43 431.949 1314.69 431.718C1315.27 431.229 1315.64 430.539 1315.73 429.787C1315.75 429.647 1315.76 429.506 1315.76 429.365C1315.78 428.693 1315.57 428.033 1315.16 427.501C1314.74 426.969 1314.16 426.599 1313.5 426.455M1286.08 436.032C1289.02 436.516 1291.17 439.532 1291.57 443.31L1291.3 443.267C1291.02 443.23 1290.74 443.253 1290.47 443.335C1290.2 443.417 1289.96 443.555 1289.74 443.741C1289 444.425 1288.53 445.363 1288.44 446.371L1288.38 446.858L1290.44 447.198C1290.44 447.647 1290.62 448.077 1290.93 448.398L1287.57 474.023L1287.27 473.974C1287 473.934 1286.71 473.956 1286.44 474.039C1286.17 474.123 1285.93 474.266 1285.72 474.457C1285.09 475.016 1284.67 475.764 1284.51 476.587L1277.03 475.373C1277.08 474.516 1276.87 473.664 1276.42 472.932C1276.27 472.686 1276.07 472.474 1275.83 472.311C1275.59 472.148 1275.32 472.037 1275.04 471.985L1274.74 471.93L1278.1 446.311C1278.29 446.207 1278.46 446.064 1278.59 445.892C1278.73 445.721 1278.83 445.523 1278.88 445.311L1280.95 445.647L1281.01 445.156C1281.18 444.142 1280.98 443.103 1280.44 442.227C1280.29 441.982 1280.09 441.77 1279.85 441.607C1279.62 441.444 1279.35 441.332 1279.07 441.28L1278.7 441.217C1280.06 437.728 1282.89 435.502 1285.84 435.995L1286.08 436.032ZM1283.41 500.897C1283.4 501.12 1283.45 501.342 1283.53 501.548C1283.62 501.754 1283.75 501.941 1283.91 502.097L1280.55 527.732L1280.25 527.682C1279.03 527.482 1277.85 528.643 1277.46 530.334L1269.99 529.123C1270.06 527.379 1269.24 525.887 1268.02 525.69L1267.71 525.64L1271.07 500.009C1271.27 499.907 1271.43 499.768 1271.57 499.599C1271.71 499.43 1271.81 499.235 1271.87 499.026L1273.92 499.364L1273.98 498.864C1274.23 496.985 1273.41 495.283 1272.14 495C1273.44 491.75 1276.05 489.741 1278.74 490.185L1278.97 490.215C1281.67 490.665 1283.67 493.415 1284.08 496.951C1282.83 496.889 1281.65 498.24 1281.41 500.075L1281.35 500.561L1283.41 500.897ZM1276.35 554.643C1276.37 555.089 1276.54 555.514 1276.85 555.835L1273.5 581.463L1273.2 581.417C1271.92 581.21 1270.68 582.51 1270.37 584.336L1262.93 583.126C1263.11 581.271 1262.25 579.632 1260.97 579.426L1260.67 579.377L1264.02 553.745C1264.22 553.643 1264.39 553.503 1264.52 553.333C1264.66 553.164 1264.76 552.968 1264.81 552.758L1266.87 553.091L1266.94 552.591C1267.1 551.58 1266.89 550.546 1266.37 549.669C1266.07 549.205 1265.61 548.873 1265.08 548.742C1266.38 545.482 1269.01 543.483 1271.7 543.925L1271.94 543.959C1274.63 544.396 1276.63 547.165 1277.04 550.705C1276.53 550.68 1276.04 550.856 1275.66 551.193C1274.93 551.876 1274.47 552.806 1274.37 553.806L1274.31 554.296L1276.35 554.643ZM1269.28 608.656C1269.28 609.104 1269.47 609.531 1269.78 609.846L1266.42 635.483L1266.12 635.427C1265.84 635.389 1265.56 635.412 1265.28 635.497C1265.01 635.582 1264.77 635.725 1264.56 635.917C1263.92 636.492 1263.5 637.256 1263.33 638.095L1255.87 636.884C1255.94 635.143 1255.12 633.639 1253.88 633.443L1253.58 633.387L1256.95 607.759C1257.14 607.657 1257.31 607.516 1257.45 607.346C1257.58 607.175 1257.68 606.979 1257.73 606.769L1259.8 607.105L1259.86 606.617C1260.02 605.606 1259.82 604.571 1259.29 603.694C1259.15 603.462 1258.97 603.26 1258.75 603.099C1258.53 602.939 1258.28 602.824 1258.02 602.76C1259.32 599.502 1261.93 597.497 1264.62 597.933L1264.85 597.976C1267.55 598.416 1269.55 601.184 1269.95 604.713C1269.45 604.701 1268.97 604.877 1268.59 605.207C1267.85 605.889 1267.38 606.822 1267.29 607.826L1267.22 608.319L1269.28 608.656ZM1262.23 662.403C1262.24 662.856 1262.42 663.289 1262.73 663.613L1259.37 689.24L1259.06 689.184C1258.79 689.145 1258.5 689.168 1258.23 689.251C1257.97 689.335 1257.72 689.477 1257.51 689.667C1256.89 690.225 1256.46 690.972 1256.3 691.795L1248.82 690.578C1248.88 688.868 1248.04 687.396 1246.84 687.196L1246.54 687.143L1249.89 661.522C1250.09 661.418 1250.25 661.276 1250.39 661.106C1250.52 660.935 1250.62 660.738 1250.68 660.528L1252.74 660.864L1252.8 660.37C1252.97 659.359 1252.77 658.322 1252.23 657.448C1251.94 656.985 1251.49 656.651 1250.96 656.513C1252.25 653.261 1254.87 651.265 1257.56 651.701L1257.79 651.736C1260.49 652.176 1262.49 654.936 1262.9 658.476C1262.4 658.453 1261.9 658.629 1261.52 658.966C1260.79 659.65 1260.33 660.579 1260.23 661.579L1260.16 662.079L1262.23 662.403ZM1233.43 654.387C1233.17 653.964 1232.76 653.647 1232.29 653.495C1232.94 651.946 1234.08 650.655 1235.54 649.823C1237 648.991 1238.7 648.665 1240.36 648.895L1240.65 648.941C1242.33 649.281 1243.87 650.136 1245.04 651.386C1246.21 652.637 1246.97 654.221 1247.2 655.92C1245.96 655.888 1244.82 657.229 1244.59 659.031L1244.52 659.531L1246.57 659.861C1246.58 660.311 1246.76 660.74 1247.07 661.061L1243.72 686.679L1243.42 686.64C1242.21 686.44 1241.04 687.578 1240.65 689.24L1230.02 687.513C1230.07 686.658 1229.86 685.809 1229.4 685.082C1229.25 684.838 1229.06 684.627 1228.82 684.463C1228.59 684.3 1228.32 684.186 1228.04 684.131L1227.74 684.081L1231.1 658.456C1231.29 658.351 1231.46 658.21 1231.59 658.039C1231.72 657.868 1231.82 657.672 1231.88 657.462L1233.94 657.788L1234.01 657.298C1234.17 656.289 1233.96 655.256 1233.43 654.382M1240.47 600.62C1240.21 600.2 1239.81 599.887 1239.33 599.734C1239.98 598.185 1241.13 596.894 1242.59 596.062C1244.05 595.23 1245.74 594.904 1247.41 595.134L1247.7 595.177C1249.38 595.517 1250.91 596.37 1252.09 597.62C1253.26 598.87 1254.02 600.453 1254.25 602.151C1253.01 602.127 1251.88 603.464 1251.64 605.273L1251.57 605.773L1253.62 606.106C1253.63 606.556 1253.81 606.986 1254.13 607.306L1250.76 632.932L1250.46 632.892C1250.19 632.852 1249.9 632.873 1249.63 632.955C1249.37 633.037 1249.12 633.177 1248.91 633.365C1248.27 633.943 1247.84 634.712 1247.68 635.557L1237.07 633.826C1237.13 632.953 1236.91 632.083 1236.45 631.339C1236.3 631.092 1236.11 630.879 1235.87 630.715C1235.63 630.551 1235.37 630.439 1235.08 630.387L1234.78 630.334L1238.14 604.703C1238.33 604.603 1238.5 604.463 1238.64 604.293C1238.77 604.123 1238.87 603.926 1238.93 603.715L1240.99 604.055L1241.05 603.562C1241.21 602.547 1241.01 601.509 1240.47 600.631M1247.56 546.631C1247.3 546.207 1246.89 545.889 1246.41 545.731C1247.06 544.183 1248.21 542.892 1249.67 542.061C1251.13 541.229 1252.82 540.902 1254.48 541.131L1254.77 541.178C1256.45 541.517 1257.99 542.371 1259.16 543.622C1260.34 544.873 1261.1 546.458 1261.33 548.158C1260.08 548.122 1258.95 549.434 1258.71 551.274L1258.65 551.774L1260.71 552.109C1260.71 552.557 1260.89 552.985 1261.21 553.301L1257.85 578.939L1257.53 578.883C1257.26 578.844 1256.97 578.866 1256.71 578.947C1256.44 579.029 1256.19 579.168 1255.99 579.354C1255.29 579.999 1254.84 580.864 1254.71 581.803L1244.13 580.081C1244.3 578.226 1243.45 576.589 1242.16 576.381L1241.85 576.334L1245.22 550.703C1245.41 550.6 1245.58 550.46 1245.71 550.29C1245.85 550.12 1245.95 549.924 1246.01 549.715L1248.07 550.05L1248.13 549.55C1248.29 548.543 1248.09 547.51 1247.56 546.637M1254.61 492.893C1254.34 492.468 1253.94 492.151 1253.46 491.999C1254.11 490.45 1255.25 489.159 1256.71 488.327C1258.17 487.495 1259.86 487.169 1261.53 487.399L1261.81 487.448C1263.5 487.784 1265.03 488.636 1266.21 489.886C1267.39 491.136 1268.14 492.721 1268.38 494.421C1267.89 494.424 1267.42 494.599 1267.06 494.914C1266.31 495.601 1265.85 496.535 1265.75 497.541L1265.69 498.031L1267.75 498.369C1267.75 498.819 1267.93 499.251 1268.25 499.569L1264.89 525.194L1264.58 525.145C1264.31 525.107 1264.02 525.13 1263.76 525.213C1263.49 525.296 1263.24 525.437 1263.03 525.625C1262.4 526.193 1261.97 526.957 1261.81 527.797L1251.19 526.067C1251.26 524.336 1250.43 522.843 1249.21 522.639L1248.91 522.593L1252.27 496.961C1252.65 496.749 1252.93 496.396 1253.06 495.977L1255.11 496.305L1255.18 495.819C1255.34 494.808 1255.14 493.772 1254.61 492.896M1260.27 438.238L1260.05 438.202C1260.72 436.534 1261.93 435.137 1263.48 434.232C1265.04 433.326 1266.85 432.964 1268.63 433.202L1268.92 433.257C1270.72 433.623 1272.36 434.547 1273.61 435.898C1274.86 437.249 1275.65 438.957 1275.87 440.782L1275.65 440.743C1274.33 440.526 1273.05 441.918 1272.79 443.843L1272.73 444.343L1274.78 444.678C1274.79 445.13 1274.97 445.561 1275.29 445.878L1271.94 471.5L1271.62 471.455C1270.42 471.255 1269.25 472.4 1268.86 474.055L1258.23 472.335C1258.28 471.479 1258.07 470.628 1257.62 469.899C1257.47 469.654 1257.27 469.443 1257.04 469.279C1256.8 469.115 1256.53 469.002 1256.25 468.947L1255.94 468.891L1259.3 443.271C1259.5 443.168 1259.66 443.028 1259.8 442.858C1259.94 442.688 1260.03 442.493 1260.09 442.283L1262.15 442.621L1262.22 442.121C1262.47 440.167 1261.62 438.465 1260.28 438.242M1258.46 385.113C1259.42 377.789 1265.54 372.7 1272.11 373.769C1273.73 374.05 1275.26 374.664 1276.62 375.57C1277.98 376.477 1279.14 377.657 1280.02 379.035C1281.96 381.971 1282.77 385.511 1282.29 388.997L1278.12 420.719L1254.29 416.84L1258.46 385.113ZM1240.29 440.173C1240.48 440.07 1240.65 439.929 1240.79 439.758C1240.92 439.588 1241.02 439.393 1241.08 439.183L1243.14 439.526L1243.2 439.026C1243.46 437.113 1242.59 435.363 1241.26 435.144L1241.18 435.138C1241.86 433.469 1243.07 432.072 1244.63 431.167C1246.18 430.262 1248 429.9 1249.78 430.138L1250.07 430.187C1251.87 430.554 1253.51 431.477 1254.75 432.826C1256 434.175 1256.79 435.881 1257.02 437.704L1256.86 437.684C1255.53 437.463 1254.26 438.856 1253.99 440.784L1253.93 441.271L1255.99 441.616C1255.99 441.84 1256.04 442.061 1256.12 442.267C1256.21 442.473 1256.34 442.66 1256.5 442.816L1253.13 468.437L1252.83 468.388C1252.55 468.351 1252.27 468.374 1252 468.457C1251.73 468.54 1251.49 468.68 1251.28 468.868C1250.65 469.428 1250.23 470.177 1250.07 471.001L1239.22 469.214C1239.27 468.359 1239.05 467.51 1238.6 466.78C1238.46 466.535 1238.26 466.323 1238.02 466.159C1237.78 465.995 1237.52 465.881 1237.23 465.826L1236.93 465.774L1240.29 440.173ZM1233.25 493.873C1233.44 493.772 1233.61 493.631 1233.75 493.462C1233.88 493.292 1233.98 493.096 1234.04 492.886L1236.1 493.211L1236.15 492.725C1236.33 491.712 1236.12 490.671 1235.58 489.796C1235.35 489.419 1235 489.123 1234.6 488.948C1235.24 487.395 1236.39 486.1 1237.85 485.265C1239.31 484.431 1241.01 484.103 1242.67 484.334L1242.96 484.374C1244.64 484.713 1246.18 485.569 1247.35 486.821C1248.53 488.073 1249.28 489.66 1249.51 491.361C1248.3 491.385 1247.19 492.704 1246.95 494.475L1246.89 494.975L1248.96 495.304C1248.96 495.753 1249.13 496.184 1249.45 496.504L1246.1 522.133L1245.8 522.083C1244.55 521.873 1243.4 523.027 1243.02 524.736L1232.18 522.969C1232.25 521.241 1231.42 519.74 1230.2 519.539L1229.9 519.496L1233.25 493.873ZM1226.2 547.62C1226.4 547.516 1226.57 547.374 1226.71 547.202C1226.85 547.03 1226.95 546.832 1227 546.62L1229.06 546.958L1229.12 546.471C1229.35 544.698 1228.67 543.141 1227.55 542.692C1228.2 541.14 1229.35 539.846 1230.81 539.012C1232.27 538.178 1233.96 537.851 1235.63 538.082L1235.92 538.122C1237.6 538.459 1239.14 539.313 1240.31 540.565C1241.49 541.817 1242.25 543.405 1242.48 545.107C1241.26 545.126 1240.15 546.45 1239.91 548.224L1239.85 548.717L1241.91 549.06C1241.92 549.507 1242.1 549.935 1242.41 550.252L1239.06 575.884L1238.76 575.828C1237.47 575.628 1236.24 576.921 1235.92 578.75L1225.12 576.989C1225.31 575.132 1224.45 573.497 1223.17 573.289L1222.86 573.236L1226.2 547.62ZM1219.14 601.633C1219.52 601.416 1219.8 601.056 1219.92 600.633L1221.97 600.968L1222.04 600.475C1222.27 598.738 1221.58 597.149 1220.47 596.704C1221.12 595.151 1222.26 593.857 1223.72 593.021C1225.18 592.185 1226.88 591.856 1228.55 592.084L1228.85 592.134C1230.53 592.473 1232.06 593.327 1233.24 594.579C1234.41 595.83 1235.16 597.416 1235.39 599.116C1234.18 599.138 1233.07 600.456 1232.84 602.228L1232.76 602.728L1234.83 603.063C1234.84 603.514 1235.02 603.945 1235.34 604.263L1231.97 629.894L1231.67 629.838C1230.45 629.644 1229.26 630.813 1228.89 632.509L1218.05 630.747C1218.13 628.98 1217.32 627.509 1216.08 627.305L1215.78 627.252L1219.14 601.633ZM1212.08 655.394C1212.27 655.289 1212.44 655.148 1212.58 654.977C1212.71 654.806 1212.81 654.61 1212.86 654.401L1214.93 654.731L1215 654.237C1215.22 652.502 1214.53 650.91 1213.43 650.465C1214.07 648.912 1215.22 647.616 1216.68 646.781C1218.14 645.945 1219.83 645.617 1221.5 645.846L1221.8 645.892C1223.48 646.229 1225.02 647.082 1226.19 648.333C1227.36 649.584 1228.12 651.171 1228.35 652.871C1227.14 652.904 1226.03 654.218 1225.79 655.997L1225.73 656.491L1227.79 656.83C1227.79 657.277 1227.97 657.704 1228.29 658.019L1224.93 683.632L1224.62 683.59C1223.41 683.39 1222.24 684.525 1221.86 686.19L1211.02 684.427C1211.06 683.571 1210.85 682.721 1210.4 681.992C1210.25 681.748 1210.05 681.537 1209.81 681.374C1209.58 681.211 1209.31 681.098 1209.03 681.044L1208.72 680.994L1212.08 655.394ZM1217.58 737.302C1216.37 737.102 1215.18 738.269 1214.81 739.954L1203.96 738.194C1204.03 737.325 1203.81 736.458 1203.35 735.717C1203.21 735.472 1203.01 735.26 1202.77 735.095C1202.54 734.93 1202.27 734.816 1201.99 734.76L1201.69 734.71L1205.05 709.085C1205.24 708.983 1205.41 708.844 1205.54 708.674C1205.67 708.505 1205.77 708.31 1205.83 708.101L1207.89 708.431L1207.95 707.943C1208.18 706.2 1207.49 704.617 1206.38 704.159C1207.03 702.607 1208.18 701.313 1209.64 700.479C1211.1 699.645 1212.8 699.317 1214.46 699.546L1214.75 699.591C1216.44 699.931 1217.97 700.788 1219.15 702.043C1220.32 703.297 1221.08 704.887 1221.31 706.591C1220.85 706.601 1220.4 706.773 1220.06 707.078C1219.31 707.761 1218.84 708.696 1218.75 709.703L1218.68 710.203L1220.74 710.53C1220.75 710.98 1220.93 711.41 1221.24 711.73L1217.89 737.36L1217.58 737.302ZM1236.38 740.359C1235.17 740.159 1233.98 741.334 1233.6 743.015L1222.99 741.287C1223.06 739.55 1222.23 738.055 1221 737.859L1220.7 737.807L1224.07 712.177C1224.26 712.076 1224.43 711.937 1224.56 711.767C1224.7 711.598 1224.79 711.402 1224.85 711.193L1226.91 711.521L1226.97 711.03C1227.21 709.219 1226.46 707.576 1225.26 707.209C1225.91 705.66 1227.06 704.37 1228.52 703.538C1229.98 702.706 1231.67 702.38 1233.33 702.609L1233.63 702.659C1235.31 702.998 1236.84 703.851 1238.01 705.101C1239.19 706.351 1239.94 707.935 1240.17 709.633C1238.94 709.608 1237.8 710.942 1237.56 712.756L1237.49 713.249L1239.55 713.581C1239.56 714.031 1239.74 714.461 1240.05 714.781L1236.69 740.416L1236.38 740.359ZM1252.04 742.909C1250.81 742.709 1249.63 743.879 1249.26 745.567L1241.78 744.347C1241.86 742.613 1241.02 741.123 1239.81 740.919L1239.5 740.869L1242.86 715.241C1243.05 715.139 1243.22 714.998 1243.35 714.827C1243.49 714.657 1243.59 714.46 1243.64 714.25L1245.71 714.585L1245.78 714.092C1246.01 712.216 1245.2 710.509 1243.93 710.235C1245.22 706.978 1247.85 704.979 1250.54 705.414L1250.77 705.46C1253.47 705.891 1255.47 708.65 1255.87 712.192C1254.62 712.124 1253.45 713.476 1253.2 715.304L1253.13 715.798L1255.19 716.133C1255.2 716.584 1255.38 717.015 1255.7 717.333L1252.35 742.971L1252.04 742.909ZM1268.31 718.266C1268.31 718.712 1268.49 719.139 1268.8 719.46L1265.45 745.095L1265.14 745.045C1264.86 745.006 1264.58 745.028 1264.31 745.111C1264.04 745.194 1263.8 745.336 1263.59 745.525C1262.95 746.095 1262.52 746.858 1262.36 747.697L1257.43 746.897C1257.5 745.163 1256.67 743.67 1255.45 743.469L1255.16 743.416L1258.51 717.788C1258.7 717.685 1258.87 717.545 1259.01 717.375C1259.14 717.205 1259.24 717.009 1259.3 716.8L1261.35 717.132L1261.42 716.642C1261.67 714.766 1260.84 713.061 1259.57 712.785C1260.7 709.502 1262.86 707.434 1265.02 707.785L1265.2 707.812C1267.36 708.168 1268.89 710.84 1269.14 714.343C1267.83 714.153 1266.56 715.534 1266.31 717.443L1266.24 717.936L1268.31 718.266ZM1275.34 664.566C1275.34 664.79 1275.39 665.011 1275.47 665.217C1275.56 665.423 1275.69 665.61 1275.85 665.766L1272.49 691.397L1272.18 691.345C1270.97 691.145 1269.8 692.294 1269.41 693.958L1264.47 693.149C1264.53 692.297 1264.31 691.45 1263.86 690.726C1263.71 690.478 1263.51 690.265 1263.28 690.1C1263.04 689.935 1262.77 689.822 1262.49 689.769L1262.19 689.722L1265.54 664.094C1265.74 663.992 1265.91 663.85 1266.04 663.679C1266.18 663.508 1266.28 663.311 1266.33 663.1L1268.4 663.439L1268.46 662.939C1268.7 661.039 1267.9 659.371 1266.62 659.088C1267.75 655.847 1269.94 653.741 1272.05 654.082L1272.24 654.111C1274.39 654.463 1275.94 657.136 1276.18 660.646C1275.9 660.608 1275.62 660.631 1275.36 660.713C1275.09 660.796 1274.85 660.936 1274.64 661.123C1273.91 661.809 1273.45 662.739 1273.36 663.739L1273.29 664.239L1275.34 664.566ZM1282.39 610.802C1282.39 611.254 1282.57 611.686 1282.89 612.009L1279.53 637.634L1279.22 637.582C1278 637.39 1276.82 638.56 1276.45 640.254L1271.52 639.432C1271.58 638.558 1271.37 637.686 1270.9 636.942C1270.76 636.697 1270.56 636.487 1270.32 636.323C1270.09 636.16 1269.82 636.047 1269.54 635.992L1269.24 635.942L1272.59 610.311C1272.78 610.208 1272.95 610.067 1273.09 609.896C1273.22 609.726 1273.32 609.53 1273.38 609.32L1275.44 609.658L1275.5 609.158C1275.67 608.147 1275.47 607.111 1274.93 606.239C1274.79 606.007 1274.6 605.806 1274.38 605.646C1274.16 605.487 1273.92 605.372 1273.65 605.309C1274.78 602.028 1276.94 599.951 1279.11 600.291L1279.29 600.337C1281.4 600.672 1282.97 603.398 1283.21 606.863C1282.94 606.829 1282.67 606.854 1282.4 606.936C1282.14 607.017 1281.9 607.154 1281.69 607.337C1280.95 608.017 1280.48 608.953 1280.39 609.959L1280.33 610.459L1282.39 610.802ZM1289.48 556.792C1289.47 557.015 1289.52 557.235 1289.6 557.441C1289.69 557.647 1289.81 557.835 1289.97 557.992L1286.61 583.624L1286.3 583.561C1285.02 583.361 1283.79 584.654 1283.48 586.487L1278.58 585.694C1278.7 584.739 1278.49 583.772 1277.99 582.949C1277.84 582.703 1277.64 582.491 1277.41 582.327C1277.17 582.163 1276.9 582.051 1276.62 581.998L1276.32 581.939L1279.68 556.311C1279.87 556.209 1280.04 556.068 1280.17 555.897C1280.31 555.727 1280.4 555.53 1280.46 555.32L1282.51 555.666L1282.59 555.166C1282.75 554.159 1282.55 553.128 1282.02 552.256C1281.73 551.787 1281.27 551.451 1280.73 551.318C1281.87 548.034 1284.03 545.952 1286.18 546.297L1286.37 546.337C1288.49 546.677 1290.05 549.404 1290.3 552.875C1290.03 552.837 1289.75 552.86 1289.48 552.942C1289.22 553.025 1288.98 553.165 1288.78 553.352C1288.04 554.036 1287.57 554.966 1287.48 555.968L1287.41 556.458L1289.48 556.792ZM1296.51 503.048C1296.51 503.271 1296.56 503.492 1296.64 503.698C1296.73 503.904 1296.85 504.091 1297.01 504.248L1293.65 529.88L1293.35 529.824C1292.12 529.624 1290.95 530.792 1290.57 532.484L1285.64 531.684C1285.71 530.814 1285.49 529.947 1285.02 529.21C1284.87 528.964 1284.68 528.752 1284.44 528.588C1284.2 528.424 1283.94 528.311 1283.65 528.258L1283.35 528.208L1286.72 502.578C1286.91 502.475 1287.08 502.335 1287.21 502.166C1287.35 501.997 1287.45 501.802 1287.5 501.594L1289.57 501.932L1289.63 501.432C1289.79 500.417 1289.59 499.376 1289.06 498.497C1288.77 498.033 1288.31 497.7 1287.78 497.569C1288.9 494.292 1291.08 492.209 1293.23 492.558L1293.41 492.581C1295.53 492.927 1297.08 495.657 1297.35 499.122C1296.02 498.922 1294.78 500.277 1294.51 502.222L1294.45 502.712L1296.51 503.048ZM1304.41 445.425C1303.07 445.207 1301.81 446.571 1301.56 448.525L1301.48 449.019L1303.55 449.346C1303.55 449.799 1303.73 450.232 1304.05 450.554L1300.7 476.178L1300.38 476.126C1300.11 476.089 1299.82 476.113 1299.56 476.195C1299.29 476.277 1299.04 476.416 1298.83 476.603C1298.21 477.165 1297.78 477.913 1297.62 478.736L1292.68 477.93C1292.73 476.215 1291.91 474.745 1290.71 474.547L1290.4 474.501L1293.75 448.876C1293.94 448.773 1294.11 448.633 1294.25 448.463C1294.38 448.293 1294.48 448.098 1294.54 447.888L1296.6 448.216L1296.67 447.725C1296.92 445.767 1296.07 444.06 1294.73 443.843L1294.37 443.788C1295.56 440.268 1297.93 437.974 1300.33 438.368L1300.52 438.395C1302.91 438.781 1304.61 441.745 1304.84 445.495L1304.41 445.425Z" fill="#226D96"/>
<path d="M1258.58 770.686L1258.19 773.786L1254.59 773.201L1254.99 770.101C1255.92 763.001 1251.73 756.415 1245.66 755.427C1239.57 754.434 1233.86 759.415 1232.94 766.516L1232.54 769.616L1228.67 768.983L1229.08 765.894C1229.52 762.465 1228.62 758.998 1226.57 756.212C1224.53 753.427 1221.49 751.536 1218.08 750.931C1216.42 750.659 1214.72 750.726 1213.09 751.128C1211.46 751.53 1209.92 752.259 1208.58 753.27C1207.24 754.282 1206.11 755.555 1205.27 757.013C1204.43 758.471 1203.9 760.084 1203.7 761.754L1203.3 764.86L1199.51 764.235L1199.92 761.135C1200.34 757.795 1199.49 754.417 1197.55 751.671C1195.6 748.925 1192.69 747.011 1189.39 746.308L1180.23 816.738H1191.82L1197.77 774.515C1197.87 774.559 1197.98 774.588 1198.09 774.601L1201.92 775.237C1202.03 775.255 1202.14 775.262 1202.26 775.259L1197.23 816.738H1221.9L1227.17 779.299C1227.28 779.338 1227.39 779.369 1227.5 779.391L1231.32 780.016C1231.43 780.031 1231.55 780.037 1231.66 780.034L1227.21 816.739H1247.94L1252.64 783.451C1252.74 783.494 1252.85 783.528 1252.96 783.551L1256.79 784.169C1256.9 784.181 1257.01 784.186 1257.13 784.184L1253.17 816.742H1258.37C1258.46 816.042 1264.08 773.177 1265.84 759.886C1262.12 761.386 1259.25 765.626 1258.58 770.686Z" fill="#226D96"/>
<path d="M1181.51 317.097C1181.2 317.679 1180.99 318.314 1180.91 318.97C1180.68 320.26 1180.97 321.587 1181.69 322.675C1182.42 323.763 1183.54 324.529 1184.82 324.815L1186.87 325.151L1185.16 338.137L1183.67 337.893C1182.15 337.644 1180.68 339.255 1180.38 341.482L1180.32 341.976L1182.2 342.276C1182.19 342.917 1182.39 343.544 1182.77 344.056L1175.4 400.356C1174.03 400.191 1172.7 401.534 1172.29 403.456L1152.52 400.235C1152.16 400.195 1151.79 400.229 1151.44 400.333C1151.09 400.438 1150.77 400.612 1150.49 400.844C1150.21 401.076 1149.99 401.362 1149.82 401.685C1149.65 402.008 1149.55 402.361 1149.53 402.723C1149.43 403.485 1149.61 404.257 1150.03 404.899C1150.22 405.2 1150.47 405.458 1150.77 405.655C1151.07 405.853 1151.4 405.985 1151.76 406.045L1153.16 406.279L1151.87 416.129C1152.62 417.562 1153.06 419.146 1153.13 420.766L1152.94 420.739C1151.62 420.524 1150.34 421.91 1150.09 423.839L1150.02 424.323L1152.08 424.662C1152.09 425.111 1152.27 425.54 1152.58 425.862L1149.23 451.505L1148.92 451.446C1148.64 451.407 1148.36 451.43 1148.09 451.512C1147.82 451.595 1147.57 451.735 1147.36 451.924C1146.74 452.488 1146.32 453.238 1146.15 454.063L1145.48 453.963C1145.12 453.922 1144.76 453.955 1144.41 454.058C1144.06 454.162 1143.74 454.334 1143.46 454.565C1143.18 454.796 1142.95 455.08 1142.78 455.402C1142.61 455.724 1142.51 456.076 1142.49 456.437C1142.38 457.199 1142.56 457.972 1142.99 458.612C1143.18 458.913 1143.43 459.172 1143.73 459.371C1144.03 459.57 1144.36 459.705 1144.71 459.768L1145.67 459.922L1144.35 469.948L1144.45 470.109C1145.15 471.451 1145.55 472.928 1145.62 474.44C1145.15 474.443 1144.7 474.617 1144.34 474.93C1143.6 475.614 1143.14 476.548 1143.04 477.553L1142.98 478.041L1145.04 478.38C1145.04 478.83 1145.22 479.26 1145.54 479.58L1142.19 505.209L1141.88 505.16C1141.6 505.122 1141.32 505.145 1141.05 505.227C1140.78 505.31 1140.53 505.449 1140.32 505.637C1139.69 506.213 1139.26 506.977 1139.1 507.815L1138.44 507.703C1138.08 507.663 1137.71 507.695 1137.36 507.799C1137.02 507.903 1136.69 508.076 1136.41 508.307C1136.13 508.539 1135.9 508.825 1135.73 509.147C1135.57 509.47 1135.47 509.823 1135.44 510.185C1135.32 510.92 1135.48 511.674 1135.89 512.294C1136.3 512.914 1136.94 513.353 1137.66 513.521L1138.63 513.682L1137.31 523.702L1137.4 523.857C1138.1 525.197 1138.5 526.672 1138.58 528.182C1138.11 528.186 1137.65 528.361 1137.29 528.675C1136.56 529.363 1136.1 530.297 1136 531.3L1135.94 531.793L1138 532.126C1138 532.575 1138.18 533.005 1138.49 533.326L1135.14 558.957L1134.84 558.908C1134.56 558.867 1134.28 558.888 1134.01 558.969C1133.74 559.05 1133.49 559.189 1133.28 559.376C1132.58 560.017 1132.13 560.884 1132.01 561.824L1131.35 561.711C1131 561.657 1130.65 561.679 1130.31 561.776C1129.98 561.873 1129.67 562.042 1129.4 562.271C1128.82 562.758 1128.45 563.45 1128.37 564.202C1128.27 564.962 1128.44 565.735 1128.86 566.377C1129.05 566.678 1129.31 566.937 1129.61 567.135C1129.9 567.334 1130.24 567.468 1130.59 567.531L1131.55 567.686L1130.23 577.705L1130.32 577.859C1131.03 579.197 1131.43 580.673 1131.5 582.184C1130.28 582.184 1129.16 583.51 1128.92 585.301L1128.86 585.801L1130.92 586.136C1130.92 586.583 1131.1 587.011 1131.42 587.327L1128.06 612.958L1127.75 612.906C1126.53 612.706 1125.35 613.889 1124.97 615.574L1124.31 615.474C1123.95 615.434 1123.58 615.467 1123.24 615.571C1122.89 615.675 1122.57 615.848 1122.29 616.08C1122.01 616.311 1121.78 616.597 1121.61 616.919C1121.44 617.241 1121.35 617.593 1121.32 617.955C1121.19 618.69 1121.35 619.446 1121.77 620.066C1122.18 620.687 1122.82 621.125 1123.54 621.291L1124.5 621.445L1123.19 631.466L1123.27 631.624C1123.98 632.962 1124.38 634.437 1124.46 635.947C1123.24 635.947 1122.11 637.274 1121.88 639.069L1121.81 639.56L1123.87 639.896C1123.88 640.346 1124.06 640.776 1124.37 641.096L1121.01 666.72L1120.71 666.674C1120.43 666.634 1120.15 666.655 1119.88 666.737C1119.61 666.819 1119.36 666.959 1119.15 667.147C1118.53 667.707 1118.11 668.456 1117.95 669.28L1117.27 669.158C1116.91 669.121 1116.55 669.156 1116.2 669.262C1115.85 669.368 1115.53 669.542 1115.25 669.774C1114.97 670.007 1114.75 670.292 1114.58 670.614C1114.41 670.936 1114.31 671.289 1114.28 671.65C1114.16 672.386 1114.32 673.141 1114.73 673.762C1115.15 674.383 1115.78 674.822 1116.51 674.989L1117.47 675.148L1116.16 685.177L1116.24 685.325C1116.94 686.661 1117.35 688.136 1117.42 689.645C1116.2 689.645 1115.07 690.978 1114.84 692.762L1114.78 693.256L1116.84 693.591C1116.84 694.041 1117.02 694.473 1117.34 694.791L1113.99 720.418L1113.68 720.372C1112.46 720.179 1111.28 721.339 1110.9 723.027L1110.24 722.927C1109.88 722.886 1109.51 722.918 1109.17 723.021C1108.82 723.125 1108.5 723.297 1108.22 723.528C1107.94 723.759 1107.71 724.044 1107.54 724.366C1107.37 724.688 1107.27 725.041 1107.25 725.402C1107.14 726.166 1107.32 726.943 1107.74 727.589C1107.93 727.887 1108.19 728.142 1108.48 728.339C1108.78 728.536 1109.12 728.67 1109.47 728.734L1190.44 741.917L1191.19 736.105L1185.07 735.105C1185.14 733.368 1184.31 731.866 1183.09 731.67L1182.79 731.634L1186.15 706.003C1186.35 705.898 1186.52 705.756 1186.65 705.584C1186.79 705.412 1186.89 705.214 1186.94 705.003L1189.01 705.341L1189.06 704.85C1189.3 703.092 1188.58 701.478 1187.44 701.063C1188.09 699.51 1189.23 698.215 1190.69 697.379C1192.15 696.544 1193.85 696.215 1195.51 696.443L1195.8 696.498C1195.98 696.547 1196.15 696.606 1196.32 696.676L1198.18 682.342L1192.12 681.352C1192.17 680.499 1191.96 679.651 1191.5 678.927C1191.35 678.681 1191.16 678.47 1190.92 678.306C1190.69 678.142 1190.42 678.029 1190.14 677.975L1189.84 677.925L1193.19 652.303C1193.38 652.198 1193.55 652.056 1193.68 651.886C1193.82 651.717 1193.92 651.522 1193.98 651.313L1196.04 651.646L1196.11 651.146C1196.34 649.388 1195.62 647.782 1194.47 647.361C1195.12 645.81 1196.27 644.518 1197.73 643.686C1199.19 642.854 1200.89 642.529 1202.55 642.761L1202.85 642.8C1203.01 642.827 1203.15 642.928 1203.31 642.965L1205.17 628.646L1199.16 627.668C1199.22 626.796 1199.01 625.927 1198.56 625.179C1198.41 624.934 1198.21 624.723 1197.97 624.559C1197.73 624.395 1197.47 624.283 1197.18 624.228L1196.88 624.173L1200.23 598.525C1200.42 598.425 1200.59 598.286 1200.73 598.116C1200.86 597.947 1200.96 597.751 1201.01 597.541L1203.08 597.883L1203.14 597.383C1203.31 596.372 1203.1 595.336 1202.57 594.462C1202.32 594.065 1201.95 593.758 1201.52 593.587C1202.17 592.037 1203.31 590.746 1204.77 589.914C1206.23 589.082 1207.93 588.756 1209.59 588.987L1209.87 589.031C1210.03 589.057 1210.15 589.142 1210.29 589.179L1212.15 574.868L1206.22 573.903C1206.33 572.948 1206.13 571.981 1205.62 571.159C1205.48 570.913 1205.28 570.701 1205.04 570.536C1204.81 570.372 1204.54 570.259 1204.26 570.205L1203.94 570.149L1207.31 544.524C1207.5 544.421 1207.67 544.28 1207.81 544.11C1207.94 543.941 1208.04 543.745 1208.11 543.536L1210.16 543.869L1210.23 543.376C1210.46 541.576 1209.76 540.001 1208.6 539.585C1209.25 538.034 1210.39 536.742 1211.85 535.907C1213.31 535.072 1215.01 534.742 1216.67 534.968L1216.97 535.023C1217.09 535.049 1217.2 535.123 1217.32 535.149L1219.18 520.849L1213.28 519.885C1213.36 518.125 1212.54 516.663 1211.3 516.454L1211 516.407L1214.36 490.776C1214.55 490.675 1214.72 490.534 1214.86 490.364C1214.99 490.193 1215.09 489.996 1215.14 489.786L1217.2 490.121L1217.27 489.628C1217.5 487.867 1216.78 486.259 1215.64 485.837C1216.29 484.285 1217.44 482.992 1218.9 482.157C1220.36 481.323 1222.05 480.995 1223.72 481.224L1224 481.271C1224.11 481.291 1224.2 481.357 1224.31 481.377L1226.17 467.093L1220.32 466.135C1220.37 464.423 1219.56 462.949 1218.34 462.758L1218.03 462.705L1221.39 437.077C1221.59 436.975 1221.75 436.834 1221.89 436.662C1222.02 436.491 1222.12 436.294 1222.17 436.083L1224.24 436.422L1224.31 435.922C1224.56 434.009 1223.68 432.266 1222.36 432.049L1222.23 432.026C1222.91 430.358 1224.11 428.962 1225.67 428.058C1227.22 427.153 1229.04 426.792 1230.82 427.031L1231.1 427.073C1231.19 427.092 1231.27 427.153 1231.36 427.173L1244.34 327.325L1181.51 317.097ZM1184.71 425.919L1184.54 425.895C1185.21 424.224 1186.42 422.826 1187.98 421.92C1189.54 421.015 1191.35 420.654 1193.14 420.895L1193.42 420.944C1195.22 421.313 1196.86 422.237 1198.11 423.586C1199.36 424.936 1200.15 426.642 1200.38 428.466L1200.21 428.442C1198.86 428.222 1197.61 429.584 1197.34 431.535L1197.28 432.035L1199.34 432.367C1199.34 432.817 1199.52 433.247 1199.84 433.567L1196.48 459.191L1196.18 459.144C1195.9 459.106 1195.62 459.129 1195.35 459.21C1195.08 459.292 1194.83 459.431 1194.63 459.618C1194 460.183 1193.57 460.932 1193.41 461.757L1182.68 460.009C1182.73 458.292 1181.9 456.824 1180.69 456.624L1180.39 456.577L1183.75 430.952C1183.94 430.849 1184.11 430.707 1184.25 430.534C1184.38 430.362 1184.48 430.164 1184.54 429.952L1186.6 430.295L1186.66 429.801C1186.91 427.867 1186.04 426.131 1184.72 425.919M1192.31 486.066C1192.31 486.517 1192.49 486.948 1192.81 487.271L1189.45 512.895L1189.13 512.842C1187.92 512.642 1186.73 513.819 1186.37 515.497L1175.65 513.756C1175.7 512.889 1175.49 512.025 1175.04 511.284C1174.89 511.037 1174.69 510.824 1174.45 510.66C1174.21 510.496 1173.94 510.384 1173.66 510.332L1173.36 510.275L1176.72 484.645C1176.91 484.544 1177.08 484.404 1177.22 484.235C1177.35 484.066 1177.45 483.87 1177.5 483.661L1179.57 483.996L1179.64 483.496C1179.86 481.712 1179.14 480.083 1177.97 479.683C1178.62 478.134 1179.77 476.844 1181.23 476.012C1182.69 475.181 1184.38 474.854 1186.05 475.083L1186.33 475.129C1188.01 475.467 1189.55 476.321 1190.72 477.574C1191.9 478.826 1192.65 480.414 1192.88 482.116C1191.65 482.116 1190.55 483.416 1190.31 485.239L1190.25 485.727L1192.31 486.066ZM1185.26 539.803C1185.26 540.253 1185.44 540.685 1185.76 541.003L1182.4 566.638L1182.09 566.578C1180.81 566.378 1179.58 567.678 1179.27 569.504L1168.57 567.764C1168.75 565.904 1167.9 564.264 1166.61 564.064L1166.3 564.006L1169.66 538.376C1169.85 538.278 1170.03 538.139 1170.16 537.968C1170.3 537.796 1170.4 537.598 1170.45 537.385L1172.52 537.727L1172.58 537.239C1172.75 536.227 1172.54 535.188 1172.01 534.311C1171.75 533.904 1171.37 533.595 1170.91 533.433C1171.56 531.883 1172.71 530.591 1174.17 529.758C1175.63 528.925 1177.32 528.597 1178.99 528.826L1179.28 528.872C1180.96 529.212 1182.5 530.067 1183.67 531.32C1184.85 532.573 1185.6 534.161 1185.83 535.862C1184.59 535.862 1183.51 537.168 1183.26 538.984L1183.2 539.468L1185.26 539.803ZM1178.18 593.82C1178.18 594.272 1178.36 594.705 1178.68 595.025L1175.32 620.656L1175.01 620.6C1173.79 620.4 1172.61 621.571 1172.24 623.266L1161.52 621.525C1161.58 620.652 1161.37 619.782 1160.9 619.04C1160.75 618.794 1160.56 618.582 1160.32 618.417C1160.08 618.252 1159.82 618.138 1159.53 618.082L1159.22 618.032L1162.59 592.408C1162.78 592.305 1162.95 592.164 1163.08 591.994C1163.22 591.824 1163.32 591.629 1163.38 591.42L1165.43 591.752L1165.49 591.258C1165.73 589.481 1164.99 587.843 1163.83 587.453C1164.48 585.904 1165.63 584.613 1167.09 583.781C1168.55 582.95 1170.24 582.623 1171.91 582.853L1172.19 582.9C1173.87 583.236 1175.41 584.09 1176.58 585.342C1177.76 586.595 1178.52 588.184 1178.74 589.887C1177.52 589.887 1176.42 591.187 1176.17 593.003L1176.11 593.49L1178.18 593.82ZM1171.13 647.588C1171.13 648.035 1171.31 648.462 1171.63 648.779L1168.27 674.407L1167.96 674.361C1166.76 674.154 1165.58 675.3 1165.19 676.967L1154.47 675.216C1154.52 673.501 1153.69 672.031 1152.48 671.841L1152.18 671.786L1155.54 646.155C1155.73 646.055 1155.9 645.916 1156.04 645.746C1156.17 645.577 1156.27 645.382 1156.33 645.172L1158.39 645.501L1158.45 645.018C1158.61 644.005 1158.41 642.968 1157.88 642.09C1157.63 641.679 1157.24 641.369 1156.78 641.212C1157.43 639.661 1158.57 638.369 1160.03 637.536C1161.5 636.704 1163.19 636.379 1164.86 636.612L1165.15 636.652C1166.83 636.99 1168.37 637.844 1169.54 639.097C1170.72 640.349 1171.47 641.936 1171.7 643.638C1170.47 643.638 1169.37 644.938 1169.13 646.75L1169.07 647.25L1171.13 647.588ZM1142.54 639.594C1142.39 639.348 1142.19 639.136 1141.95 638.972C1141.72 638.807 1141.45 638.694 1141.17 638.639L1141.1 638.623C1142.4 635.379 1145.02 633.372 1147.71 633.813L1147.95 633.843C1150.64 634.283 1152.63 637.043 1153.04 640.565C1151.71 640.4 1150.49 641.743 1150.24 643.675L1150.17 644.175L1152.23 644.51C1152.24 644.96 1152.42 645.39 1152.73 645.71L1149.38 671.337L1149.06 671.291C1148.79 671.25 1148.5 671.272 1148.23 671.356C1147.97 671.439 1147.72 671.581 1147.51 671.772C1146.89 672.326 1146.46 673.073 1146.31 673.895L1139.13 672.726C1139.18 671.874 1138.96 671.027 1138.51 670.304C1138.36 670.057 1138.16 669.843 1137.93 669.678C1137.69 669.512 1137.42 669.399 1137.14 669.344L1136.84 669.301L1140.2 643.664C1140.39 643.563 1140.56 643.423 1140.69 643.254C1140.83 643.085 1140.93 642.89 1140.98 642.681L1143.04 643.014L1143.1 642.514C1143.27 641.505 1143.06 640.47 1142.54 639.594ZM1149.58 585.832C1149.43 585.587 1149.24 585.376 1149 585.211C1148.76 585.047 1148.5 584.934 1148.21 584.878L1148.14 584.868C1149.44 581.619 1152.06 579.613 1154.75 580.053L1154.99 580.089C1157.67 580.527 1159.67 583.289 1160.08 586.812C1158.78 586.641 1157.53 588.012 1157.28 589.924L1157.21 590.412L1159.27 590.747C1159.28 591.195 1159.46 591.623 1159.77 591.947L1156.41 617.581L1156.11 617.525C1155.84 617.487 1155.55 617.51 1155.28 617.591C1155.02 617.673 1154.77 617.812 1154.56 617.999C1153.92 618.576 1153.49 619.346 1153.34 620.19L1146.17 619.024C1146.24 617.286 1145.41 615.789 1144.2 615.588L1143.88 615.533L1147.25 589.909C1147.63 589.695 1147.92 589.34 1148.04 588.921L1150.1 589.253L1150.17 588.766C1150.32 587.752 1150.12 586.715 1149.59 585.837M1155.3 530.879L1155.23 530.86C1156.52 527.612 1159.14 525.614 1161.83 526.045L1162.07 526.087C1164.75 526.524 1166.75 529.279 1167.16 532.813C1165.86 532.641 1164.6 534.013 1164.36 535.913L1164.29 536.407L1166.36 536.743C1166.36 537.193 1166.54 537.625 1166.86 537.943L1163.5 563.573L1163.19 563.526C1162.91 563.484 1162.63 563.504 1162.36 563.586C1162.09 563.668 1161.85 563.81 1161.64 564C1160.94 564.638 1160.49 565.501 1160.37 566.438L1153.23 565.277C1153.35 564.323 1153.14 563.357 1152.64 562.538C1152.49 562.29 1152.29 562.076 1152.06 561.911C1151.82 561.747 1151.55 561.635 1151.27 561.584L1150.96 561.525L1154.32 535.903C1154.52 535.801 1154.69 535.661 1154.83 535.491C1154.96 535.32 1155.07 535.123 1155.12 534.912L1157.18 535.255L1157.25 534.755C1157.5 532.83 1156.62 531.089 1155.3 530.879M1163.71 478.079C1163.56 477.835 1163.36 477.624 1163.13 477.461C1162.89 477.297 1162.63 477.184 1162.35 477.129L1162.27 477.119C1163.57 473.864 1166.19 471.867 1168.88 472.309L1169.11 472.343C1171.81 472.784 1173.8 475.534 1174.21 479.068C1173.95 479.04 1173.67 479.068 1173.42 479.15C1173.16 479.231 1172.92 479.364 1172.71 479.541C1171.97 480.229 1171.51 481.165 1171.41 482.171L1171.35 482.658L1173.41 482.996C1173.41 483.446 1173.59 483.877 1173.91 484.196L1170.55 509.821L1170.24 509.776C1169.02 509.582 1167.84 510.749 1167.47 512.429L1160.29 511.263C1160.37 509.526 1159.54 508.035 1158.31 507.841L1158.01 507.784L1161.37 482.163C1161.56 482.059 1161.73 481.917 1161.87 481.745C1162 481.573 1162.1 481.375 1162.16 481.163L1164.22 481.503L1164.28 481.003C1164.44 479.989 1164.24 478.95 1163.71 478.072M1169.38 423.431L1168.86 423.336C1170.21 419.847 1173.04 417.626 1175.98 418.111L1176.22 418.148C1179.17 418.629 1181.3 421.655 1181.71 425.425L1181.3 425.365C1179.98 425.152 1178.7 426.537 1178.45 428.465L1178.38 428.955L1180.44 429.29C1180.45 429.742 1180.63 430.173 1180.95 430.495L1177.58 456.115L1177.26 456.066C1176.99 456.03 1176.71 456.054 1176.44 456.137C1176.18 456.219 1175.93 456.358 1175.72 456.543C1175.1 457.103 1174.67 457.852 1174.51 458.675L1167.33 457.507C1167.39 455.793 1166.56 454.318 1165.35 454.13L1165.05 454.074L1168.42 428.45C1168.61 428.345 1168.77 428.204 1168.91 428.035C1169.04 427.865 1169.14 427.67 1169.2 427.462L1171.26 427.798L1171.33 427.298C1171.58 425.347 1170.72 423.643 1169.38 423.431M1155.4 426.331C1155.6 426.23 1155.76 426.09 1155.9 425.92C1156.03 425.75 1156.13 425.554 1156.19 425.344L1158.25 425.679L1158.31 425.179C1158.48 424.168 1158.27 423.132 1157.74 422.257C1157.59 422.013 1157.39 421.802 1157.16 421.638C1156.93 421.474 1156.66 421.361 1156.38 421.305L1155.58 421.176C1156.77 417.656 1159.14 415.365 1161.55 415.755L1161.75 415.779C1164.13 416.179 1165.82 419.126 1166.05 422.889L1165.95 422.87C1164.63 422.656 1163.35 424.036 1163.11 425.962L1163.04 426.452L1165.1 426.791C1165.1 427.243 1165.29 427.675 1165.61 427.991L1162.23 453.625L1161.93 453.563C1160.71 453.376 1159.54 454.517 1159.16 456.177L1154.31 455.393C1154.37 454.54 1154.15 453.69 1153.7 452.964C1153.55 452.718 1153.35 452.506 1153.12 452.342C1152.88 452.178 1152.61 452.066 1152.33 452.012L1152.03 451.965L1155.4 426.331ZM1148.37 480.031C1148.56 479.929 1148.73 479.787 1148.86 479.616C1149 479.445 1149.09 479.249 1149.15 479.038L1151.21 479.376L1151.27 478.889C1151.53 476.961 1150.66 475.224 1149.34 475.009L1149 474.953C1150.14 471.712 1152.33 469.598 1154.44 469.945L1154.63 469.979C1156.8 470.331 1158.33 473.026 1158.57 476.554C1157.38 476.607 1156.29 477.909 1156.07 479.664L1156 480.164L1158.05 480.492C1158.06 480.943 1158.24 481.373 1158.56 481.692L1155.2 507.319L1154.9 507.27C1153.66 507.07 1152.5 508.212 1152.12 509.929L1147.29 509.139C1147.35 508.271 1147.14 507.405 1146.67 506.667C1146.53 506.42 1146.33 506.208 1146.09 506.043C1145.86 505.879 1145.59 505.766 1145.31 505.713L1145.01 505.657L1148.37 480.031ZM1141.32 533.772C1141.51 533.669 1141.68 533.529 1141.81 533.36C1141.95 533.191 1142.05 532.997 1142.11 532.788L1144.17 533.124L1144.23 532.636C1144.48 530.668 1143.64 528.968 1142.3 528.752L1141.96 528.687C1143.09 525.419 1145.24 523.337 1147.4 523.687L1147.59 523.726C1149.71 524.066 1151.27 526.81 1151.52 530.295C1150.33 530.361 1149.25 531.657 1149.02 533.405L1148.95 533.905L1151.02 534.241C1151.02 534.69 1151.2 535.121 1151.51 535.441L1148.16 561.066L1147.85 561.023C1147.57 560.981 1147.29 561.002 1147.02 561.084C1146.76 561.165 1146.51 561.305 1146.3 561.494C1145.6 562.13 1145.14 562.998 1145.02 563.942L1140.22 563.162C1140.4 561.31 1139.55 559.67 1138.26 559.462L1137.96 559.4L1141.32 533.772ZM1134.23 587.783C1134.42 587.682 1134.59 587.543 1134.73 587.373C1134.86 587.204 1134.96 587.009 1135.02 586.799L1137.08 587.135L1137.15 586.635C1137.39 584.716 1136.53 582.975 1135.21 582.756L1134.86 582.707C1136 579.425 1138.16 577.347 1140.31 577.707L1140.5 577.737C1142.67 578.086 1144.2 580.785 1144.44 584.306C1143.25 584.362 1142.16 585.671 1141.94 587.423L1141.87 587.913L1143.94 588.246C1143.94 588.695 1144.12 589.125 1144.43 589.446L1141.07 615.068L1140.77 615.025C1139.55 614.825 1138.37 615.999 1137.99 617.693L1133.16 616.904C1133.24 615.167 1132.41 613.663 1131.19 613.468L1130.88 613.413L1134.23 587.783ZM1127.19 641.55C1127.57 641.336 1127.85 640.98 1127.97 640.559L1130.04 640.895L1130.11 640.395C1130.36 638.44 1129.5 636.736 1128.15 636.509L1127.82 636.454C1128.94 633.187 1131.11 631.103 1133.27 631.454L1133.46 631.493C1135.62 631.842 1137.16 634.537 1137.39 638.061C1136.2 638.117 1135.12 639.418 1134.89 641.173L1134.82 641.673L1136.88 642.002C1136.89 642.452 1137.07 642.88 1137.39 643.202L1134.03 668.833L1133.73 668.778C1132.52 668.578 1131.35 669.726 1130.95 671.384L1126.11 670.592C1126.17 668.88 1125.34 667.414 1124.15 667.221L1123.83 667.179L1127.19 641.55ZM1126.68 722.481C1125.44 722.281 1124.29 723.429 1123.9 725.131L1119.08 724.347C1119.14 723.479 1118.92 722.615 1118.46 721.876C1118.32 721.631 1118.12 721.42 1117.88 721.256C1117.65 721.092 1117.38 720.978 1117.1 720.922L1116.79 720.873L1120.14 695.249C1120.34 695.146 1120.51 695.005 1120.65 694.835C1120.78 694.665 1120.89 694.469 1120.94 694.258L1123 694.594L1123.07 694.094C1123.23 693.079 1123.03 692.039 1122.49 691.159C1122.34 690.915 1122.14 690.705 1121.91 690.542C1121.67 690.378 1121.41 690.265 1121.13 690.208L1120.79 690.159C1121.92 686.917 1124.12 684.814 1126.24 685.159L1126.42 685.188C1128.58 685.543 1130.12 688.238 1130.36 691.759C1129.92 691.788 1129.5 691.964 1129.16 692.259C1128.42 692.937 1127.95 693.871 1127.87 694.875L1127.8 695.381L1129.86 695.704C1129.86 695.927 1129.9 696.148 1129.99 696.354C1130.07 696.561 1130.2 696.748 1130.35 696.904L1126.99 722.541L1126.68 722.481ZM1142.02 724.981C1140.8 724.781 1139.62 725.945 1139.25 727.633L1132.08 726.465C1132.14 725.596 1131.93 724.728 1131.47 723.987C1131.32 723.744 1131.12 723.534 1130.89 723.37C1130.65 723.207 1130.39 723.093 1130.11 723.037L1129.8 722.994L1133.16 697.362C1133.35 697.26 1133.52 697.119 1133.66 696.949C1133.79 696.78 1133.89 696.584 1133.95 696.374L1136 696.702L1136.07 696.216C1136.23 695.202 1136.03 694.163 1135.49 693.286C1135.34 693.041 1135.14 692.829 1134.91 692.665C1134.67 692.5 1134.41 692.386 1134.12 692.329L1134.06 692.323C1135.36 689.072 1137.97 687.07 1140.66 687.512L1140.9 687.549C1143.58 687.989 1145.59 690.738 1146 694.272C1144.7 694.1 1143.44 695.472 1143.19 697.372L1143.13 697.872L1145.18 698.208C1145.19 698.655 1145.37 699.083 1145.68 699.399L1142.33 725.025L1142.02 724.981ZM1160.92 728.055C1160.64 728.016 1160.36 728.039 1160.09 728.123C1159.82 728.206 1159.58 728.348 1159.37 728.538C1158.73 729.107 1158.3 729.873 1158.15 730.713L1147.43 728.971C1147.49 728.101 1147.28 727.233 1146.82 726.49C1146.67 726.244 1146.47 726.033 1146.23 725.869C1145.99 725.704 1145.73 725.591 1145.44 725.536L1145.14 725.493L1148.5 699.858C1148.69 699.755 1148.86 699.616 1148.99 699.449C1149.13 699.281 1149.23 699.089 1149.29 698.883L1151.35 699.209L1151.41 698.709C1151.57 697.698 1151.37 696.662 1150.84 695.787C1150.58 695.382 1150.19 695.073 1149.74 694.909C1150.39 693.359 1151.54 692.067 1153 691.235C1154.46 690.403 1156.16 690.078 1157.82 690.309L1158.11 690.356C1159.79 690.69 1161.33 691.542 1162.5 692.794C1163.68 694.045 1164.43 695.633 1164.66 697.335C1163.45 697.354 1162.34 698.672 1162.09 700.451L1162.03 700.941L1164.09 701.283C1164.1 701.732 1164.28 702.162 1164.59 702.483L1161.23 728.111L1160.92 728.055ZM1182.83 704.332C1182.83 704.781 1183.01 705.211 1183.32 705.532L1179.97 731.154L1179.67 731.105C1179.39 731.067 1179.11 731.09 1178.84 731.172C1178.57 731.255 1178.32 731.395 1178.11 731.583C1177.48 732.157 1177.05 732.923 1176.89 733.765L1166.33 732.045C1166.39 731.176 1166.17 730.311 1165.71 729.571C1165.57 729.325 1165.37 729.112 1165.13 728.948C1164.9 728.783 1164.63 728.671 1164.35 728.617L1164.05 728.567L1167.4 702.937C1167.6 702.834 1167.77 702.693 1167.9 702.522C1168.04 702.351 1168.14 702.154 1168.2 701.943L1170.25 702.282L1170.31 701.782C1170.48 700.772 1170.28 699.735 1169.74 698.863C1169.48 698.441 1169.08 698.126 1168.61 697.975C1169.26 696.425 1170.4 695.132 1171.86 694.3C1173.32 693.468 1175.01 693.143 1176.68 693.375L1176.97 693.427C1178.65 693.761 1180.18 694.611 1181.36 695.86C1182.53 697.108 1183.29 698.693 1183.52 700.391C1183.01 700.364 1182.52 700.537 1182.14 700.872C1181.39 701.555 1180.93 702.489 1180.84 703.494L1180.77 703.994L1182.83 704.332ZM1189.86 650.632C1189.87 651.084 1190.05 651.516 1190.37 651.832L1187.01 677.453L1186.71 677.408C1185.5 677.214 1184.33 678.349 1183.95 680.02L1173.38 678.295C1173.43 676.586 1172.6 675.109 1171.4 674.913L1171.09 674.86L1174.44 649.236C1174.63 649.136 1174.81 648.996 1174.94 648.826C1175.08 648.656 1175.18 648.459 1175.24 648.248L1177.3 648.584L1177.37 648.084C1177.6 646.284 1176.85 644.643 1175.67 644.261C1176.32 642.713 1177.46 641.423 1178.92 640.594C1180.38 639.764 1182.07 639.441 1183.73 639.674L1184.03 639.716C1185.71 640.056 1187.24 640.909 1188.41 642.159C1189.58 643.408 1190.34 644.991 1190.57 646.689C1190.06 646.668 1189.57 646.842 1189.18 647.176C1188.45 647.862 1187.98 648.796 1187.88 649.801L1187.82 650.288L1189.86 650.632ZM1196.91 596.87C1196.91 597.321 1197.1 597.753 1197.42 598.07L1194.06 623.694L1193.74 623.649C1193.47 623.608 1193.18 623.629 1192.91 623.712C1192.65 623.796 1192.4 623.938 1192.19 624.129C1191.55 624.702 1191.12 625.472 1190.97 626.317L1180.41 624.596C1180.49 622.851 1179.65 621.355 1178.43 621.147L1178.13 621.102L1181.49 595.48C1181.68 595.376 1181.85 595.234 1181.99 595.064C1182.12 594.894 1182.22 594.699 1182.28 594.489L1184.34 594.818L1184.4 594.33C1184.64 592.493 1183.9 590.871 1182.7 590.497C1183.35 588.953 1184.5 587.667 1185.96 586.838C1187.42 586.01 1189.11 585.685 1190.77 585.914L1191.05 585.96C1192.73 586.298 1194.27 587.151 1195.44 588.402C1196.61 589.653 1197.37 591.239 1197.6 592.939C1197.1 592.915 1196.6 593.087 1196.22 593.419C1195.47 594.103 1195.01 595.041 1194.92 596.049L1194.85 596.537L1196.91 596.87ZM1203.99 542.85C1204 543.301 1204.18 543.731 1204.49 544.057L1201.14 569.681L1200.82 569.635C1199.54 569.424 1198.31 570.727 1198 572.555L1187.47 570.843C1187.65 568.965 1186.82 567.355 1185.51 567.143L1185.21 567.094L1188.57 541.47C1188.76 541.366 1188.93 541.224 1189.07 541.052C1189.2 540.88 1189.3 540.682 1189.35 540.47L1191.42 540.806L1191.48 540.316C1191.72 538.507 1190.96 536.864 1189.78 536.49C1190.43 534.942 1191.58 533.652 1193.04 532.822C1194.5 531.992 1196.19 531.667 1197.85 531.9L1198.14 531.943C1199.82 532.281 1201.36 533.134 1202.53 534.385C1203.7 535.637 1204.46 537.223 1204.69 538.923C1204.18 538.895 1203.69 539.069 1203.31 539.406C1202.57 540.089 1202.1 541.022 1202.01 542.026L1201.95 542.526L1203.99 542.85ZM1211.03 489.11C1211.04 489.334 1211.08 489.555 1211.17 489.761C1211.25 489.967 1211.38 490.154 1211.54 490.31L1208.18 515.942L1207.87 515.895C1206.65 515.695 1205.47 516.86 1205.1 518.544L1194.54 516.829C1194.61 515.087 1193.78 513.597 1192.55 513.397L1192.25 513.35L1195.6 487.722C1195.8 487.622 1195.97 487.483 1196.11 487.314C1196.25 487.144 1196.35 486.948 1196.4 486.738L1198.46 487.065L1198.53 486.572C1198.77 484.763 1198.01 483.124 1196.83 482.746C1197.48 481.201 1198.63 479.914 1200.09 479.083C1201.54 478.252 1203.23 477.923 1204.9 478.146L1205.18 478.202C1206.86 478.538 1208.39 479.39 1209.57 480.638C1210.74 481.887 1211.5 483.47 1211.73 485.169C1210.48 485.099 1209.29 486.446 1209.04 488.281L1208.98 488.781L1211.03 489.11ZM1218.93 431.487C1218.66 431.448 1218.37 431.471 1218.1 431.553C1217.83 431.636 1217.59 431.776 1217.38 431.964C1216.64 432.647 1216.18 433.578 1216.08 434.579L1216.02 435.079L1218.08 435.417C1218.08 435.867 1218.26 436.298 1218.58 436.617L1215.22 462.234L1214.91 462.188C1213.71 461.997 1212.53 463.14 1212.15 464.807L1201.57 463.085C1201.64 461.363 1200.81 459.894 1199.6 459.693L1199.29 459.644L1202.65 434.02C1202.84 433.916 1203.01 433.774 1203.15 433.604C1203.28 433.433 1203.38 433.237 1203.44 433.027L1205.5 433.365L1205.56 432.865C1205.72 431.854 1205.52 430.819 1204.99 429.943C1204.84 429.698 1204.64 429.486 1204.41 429.323C1204.17 429.159 1203.91 429.046 1203.62 428.991L1203.4 428.957C1204.07 427.289 1205.28 425.893 1206.84 424.988C1208.39 424.084 1210.2 423.723 1211.98 423.962L1212.28 424.007C1214.08 424.376 1215.72 425.3 1216.97 426.65C1218.22 427.999 1219.01 429.706 1219.23 431.529L1218.93 431.487ZM1220.22 378.565L1216.03 410.585L1183.39 405.276L1187.59 373.252C1188.9 363.206 1197.28 356.259 1206.29 357.723C1215.29 359.187 1221.54 368.523 1220.22 378.57" fill="#226D96"/>
<path d="M1179.46 749.022C1177 751.065 1175.4 753.969 1175.01 757.144L1174.61 760.237L1171.13 759.668L1171.54 756.568C1171.95 753.344 1171.18 750.08 1169.37 747.383C1168.37 745.875 1167.07 744.589 1165.56 743.604C1164.04 742.619 1162.34 741.956 1160.55 741.657C1158.9 741.386 1157.2 741.454 1155.57 741.855C1153.94 742.257 1152.41 742.984 1151.07 743.993C1149.73 745.002 1148.61 746.272 1147.77 747.727C1146.93 749.181 1146.4 750.79 1146.2 752.457L1145.79 755.54L1141.94 754.918L1142.34 751.825C1142.83 748.376 1142.05 744.867 1140.15 741.949C1139.36 740.702 1138.31 739.634 1137.09 738.812C1135.86 737.99 1134.47 737.432 1133.02 737.174C1131.59 736.949 1130.12 737.039 1128.73 737.438C1127.34 737.837 1126.05 738.536 1124.96 739.484C1122.36 741.713 1120.7 744.845 1120.32 748.247L1119.92 751.33L1116.32 750.744L1116.74 747.654C1117.42 742.404 1115.65 737.33 1112.31 734.781C1110.17 751.092 1101.69 815.805 1101.55 816.781H1102.56C1103.18 813.874 1105.06 811.843 1107 812.166L1107.6 812.266L1114.82 761.054C1114.92 761.095 1115.03 761.125 1115.14 761.144L1118.97 761.765C1119.08 761.783 1119.19 761.788 1119.3 761.782L1113.07 813.154L1113.67 813.26C1115.07 813.477 1116.14 814.896 1116.55 816.784H1132.61L1140.11 765.173C1140.21 765.212 1140.33 765.234 1140.45 765.268L1144.26 765.889C1144.37 765.906 1144.49 765.91 1144.6 765.902L1138.42 816.785H1162.55L1169.15 769.91C1169.26 769.949 1169.37 769.979 1169.48 769.998L1173.3 770.617C1173.41 770.634 1173.53 770.639 1173.64 770.633L1168.04 816.785H1180.69L1189.84 746.47C1189.68 746.436 1189.53 746.37 1189.37 746.342C1187.62 746.053 1185.83 746.142 1184.12 746.605C1182.41 747.067 1180.82 747.892 1179.46 749.023" fill="#226D96"/>
</g>
</g>
</g>
</g>
</g>
</g>
<g clip-path="url(#clip1_201_3)">
<path d="M185.979 62.8111C187.338 62.7865 188.667 63.2114 189.76 64.0198C190.853 64.8283 191.649 65.9751 192.023 67.282L192.338 68.338L195.591 65.086L195.391 64.669C194.349 62.5406 192.615 60.8288 190.473 59.8138C188.332 58.7987 185.909 58.5406 183.601 59.0814C181.294 59.6221 179.238 60.9298 177.771 62.7906C176.303 64.6514 175.51 66.9551 175.522 69.325C175.487 71.2828 176.008 73.2105 177.023 74.8848C178.038 76.5592 179.507 77.9116 181.259 78.7859L181.68 78.992L184.829 75.8431L183.836 75.5001C182.574 75.0455 181.488 74.2034 180.734 73.0943C179.979 71.9852 179.595 70.6658 179.636 69.325C179.605 68.4758 179.747 67.6291 180.053 66.8362C180.359 66.0434 180.822 65.3208 181.415 64.712C182.008 64.1032 182.718 63.6207 183.502 63.294C184.287 62.9673 185.129 62.8031 185.979 62.8111Z" fill="white"/>
<path d="M201.553 58.878L201.133 58.672L197.983 61.8209L198.976 62.1639C200.238 62.6188 201.323 63.4611 202.078 64.5702C202.832 65.6792 203.216 66.9983 203.176 68.339C203.207 69.1881 203.065 70.0347 202.76 70.8277C202.455 71.6207 201.992 72.3438 201.4 72.953C200.807 73.5621 200.097 74.0449 199.313 74.3722C198.529 74.6994 197.687 74.8643 196.837 74.857C195.477 74.881 194.147 74.4552 193.054 73.6458C191.961 72.8365 191.166 71.6887 190.792 70.381L190.477 69.325L187.227 72.577L187.421 72.994C188.463 75.1223 190.197 76.8339 192.338 77.849C194.48 78.864 196.903 79.1225 199.21 78.5819C201.517 78.0413 203.573 76.7338 205.041 74.8731C206.508 73.0125 207.301 70.7088 207.29 68.339C207.325 66.3811 206.804 64.4535 205.789 62.7791C204.774 61.1048 203.305 59.7522 201.553 58.878Z" fill="white"/>
<path d="M131.563 65.212L127.601 63.2789C125.514 62.3089 125.514 61.6791 125.514 61.0611C125.514 59.7411 126.739 58.8189 128.491 58.8189C130.278 58.8189 131.607 59.76 131.799 61.16L131.909 61.9601H136.528L136.345 60.5321C135.864 56.7851 132.766 54.3651 128.453 54.3651C124.046 54.3651 120.847 57.2291 120.847 61.1761C120.847 64.0611 122.375 66.033 125.794 67.566L129.864 69.5001C131.641 70.3171 132.182 70.9879 132.182 72.3729C132.182 73.9149 130.782 74.911 128.611 74.911C127.7 74.9844 126.795 74.7107 126.078 74.1446C125.36 73.5785 124.883 72.762 124.743 71.859L124.61 71.035H120.395L120.002 71.0851L120.202 72.537C120.802 76.824 123.954 79.3829 128.627 79.3829C134.262 79.3829 136.827 75.7081 136.827 72.2931C136.828 68.1231 134.299 66.423 131.563 65.212Z" fill="white"/>
<path d="M151.789 70.185C151.789 72.977 150.122 75.8659 147.331 75.8659C146.842 75.8782 146.356 75.7889 145.904 75.6035C145.452 75.4181 145.043 75.1407 144.703 74.789C144.364 74.4373 144.101 74.0189 143.931 73.5603C143.762 73.1017 143.69 72.613 143.719 72.125V61.3501H139.566V72.1081C139.524 73.1353 139.693 74.16 140.064 75.1189C140.434 76.0777 140.998 76.9503 141.72 77.6819C142.443 78.4135 143.308 78.9886 144.262 79.3716C145.216 79.7545 146.238 79.9371 147.266 79.9079C148.955 79.9193 150.595 79.341 151.903 78.2729V79.386H155.925V61.353H151.789V70.185Z" fill="white"/>
<path d="M216.175 79.592L215.975 79.511C213.875 78.676 212.848 76.89 212.839 74.05L212.831 72.6401L212.858 47L208.663 51.153L208.763 73.9321C208.763 78.6901 210.586 81.6319 214.536 83.1989L216.186 83.6989L216.175 79.592Z" fill="white"/>
<path d="M170.178 70.185C170.178 72.977 168.511 75.8659 165.72 75.8659C165.231 75.8782 164.745 75.7889 164.293 75.6035C163.841 75.4181 163.432 75.1407 163.092 74.789C162.753 74.4373 162.49 74.0189 162.32 73.5603C162.151 73.1017 162.079 72.613 162.108 72.125V61.3501H157.955V72.1081C157.913 73.1353 158.082 74.16 158.453 75.1189C158.823 76.0777 159.387 76.9503 160.109 77.6819C160.832 78.4135 161.697 78.9886 162.651 79.3716C163.605 79.7545 164.627 79.9371 165.655 79.9079C167.344 79.919 168.984 79.3404 170.293 78.2719V90.3549L174.314 86.332V61.352H170.178V70.185Z" fill="white"/>
</g>
</g>
<defs>
<linearGradient id="paint0_linear_201_3" x1="1308.5" y1="13.5688" x2="1016.97" y2="932.316" gradientUnits="userSpaceOnUse">
<stop stop-color="#00F1FF"/>
<stop offset="1" stop-color="#00ADFF"/>
</linearGradient>
<clipPath id="clip0_201_3">
<rect width="1308" height="816.8" fill="white" transform="translate(0.5 0.5)"/>
</clipPath>
<clipPath id="clip1_201_3">
<rect width="96.186" height="43.352" fill="white" transform="translate(120 47)"/>
</clipPath>
</defs>
</svg>
