<svg width="161" height="161" viewBox="0 0 161 161" fill="none" xmlns="http://www.w3.org/2000/svg">
<g filter="url(#filter0_d_206_19)">
<path d="M25.408 6H135.342C139.694 6 143.867 7.72869 146.944 10.8058C150.021 13.8829 151.75 18.0563 151.75 22.408V132.342C151.75 136.694 150.021 140.867 146.944 143.944C143.867 147.021 139.694 148.75 135.342 148.75H25.408C21.0563 148.75 16.8829 147.021 13.8058 143.944C10.7287 140.867 9 136.694 9 132.342V22.408C9 18.0563 10.7287 13.8829 13.8058 10.8058C16.8829 7.72869 21.0563 6 25.408 6Z" fill="#EBEBEB"/>
</g>
<path d="M79.569 127.035C89.2617 127.035 98.7368 124.161 106.796 118.776C114.855 113.391 121.136 105.737 124.846 96.7819C128.555 87.827 129.525 77.9733 127.634 68.4668C125.743 58.9604 121.076 50.2282 114.222 43.3745C107.368 36.5207 98.6357 31.8534 89.1292 29.9625C79.6227 28.0717 69.769 29.0423 60.8142 32.7517C51.8593 36.4611 44.2055 42.7426 38.8207 50.8019C33.4359 58.8612 30.5618 68.3363 30.562 78.029C30.5628 91.0261 35.7263 103.491 44.9168 112.681C54.1072 121.871 66.5719 127.034 79.569 127.035Z" fill="#F0F0F0"/>
<path fill-rule="evenodd" clip-rule="evenodd" d="M121.08 52.797H77.115V40H109.78C114.267 43.5714 118.091 47.9028 121.08 52.797ZM128.322 78.386H77.142V65.593H126.642C127.765 69.7645 128.332 74.066 128.329 78.386H128.322ZM79.318 127.393C90.3974 127.418 101.154 123.664 109.811 116.749H48.827C57.4826 123.665 68.239 127.42 79.318 127.393ZM121.136 103.981H37.5C35.0601 100.001 33.2077 95.6902 32 91.181H126.637C125.43 95.6903 123.576 100.001 121.136 103.981Z" fill="#D80027"/>
<path fill-rule="evenodd" clip-rule="evenodd" d="M51.753 38.626H51.709V38.657L51.753 38.626ZM51.753 38.626H56.185L52.01 41.626L53.589 46.526L49.423 43.526L45.284 46.526L46.645 42.297C42.9871 45.358 39.7954 48.9363 37.171 52.919H38.615L35.973 54.833L34.773 56.939L36.025 60.833L33.659 59.11L32.026 62.91L33.387 67.179H38.555L34.447 70.207L36.026 75.107L31.86 72.107L29.41 73.907C29.1364 75.9289 28.9994 77.9668 29 80.007H78.008V31C68.7084 30.9878 59.599 33.6337 51.753 38.626ZM53.579 75.082L53.615 75.111H53.588L53.579 75.082ZM52.007 70.208L53.579 75.082L49.421 72.116L45.255 75.116L46.834 70.216L42.668 67.216H47.837L49.416 62.316L51.001 67.215H56.17L52.007 70.208ZM52.036 55.942L53.615 60.842L49.449 57.842L45.283 60.842L46.862 55.942L42.696 52.942H47.865L49.444 48.042L51.023 52.942H56.192L52.036 55.942ZM67.036 72.114L71.202 75.114L69.623 70.214L73.796 67.214H68.627L67.048 62.314L65.469 67.214H60.301L64.467 70.214L62.888 75.114L67.036 72.114ZM69.622 55.942L71.201 60.842L67.035 57.842L62.869 60.842L64.448 55.942L60.282 52.942H65.451L67.03 48.042L68.609 52.942H73.781L69.622 55.942ZM71.201 46.577L69.622 41.677L73.795 38.677H68.627L67.048 33.777L65.469 38.677H60.301L64.467 41.677L62.888 46.577L67.054 43.577L71.201 46.577Z" fill="#0052B4"/>
<defs>
<filter id="filter0_d_206_19" x="3" y="3" width="154.75" height="154.75" filterUnits="userSpaceOnUse" color-interpolation-filters="sRGB">
<feFlood flood-opacity="0" result="BackgroundImageFix"/>
<feColorMatrix in="SourceAlpha" type="matrix" values="0 0 0 0 0 0 0 0 0 0 0 0 0 0 0 0 0 0 127 0" result="hardAlpha"/>
<feOffset dy="3"/>
<feGaussianBlur stdDeviation="3"/>
<feColorMatrix type="matrix" values="0 0 0 0 0 0 0 0 0 0 0 0 0 0 0 0 0 0 0.161 0"/>
<feBlend mode="normal" in2="BackgroundImageFix" result="effect1_dropShadow_206_19"/>
<feBlend mode="normal" in="SourceGraphic" in2="effect1_dropShadow_206_19" result="shape"/>
</filter>
</defs>
</svg>
