<svg xmlns="http://www.w3.org/2000/svg" width="141" height="63.55" viewBox="0 0 141 63.55">
  <g id="Group_3" data-name="Group 3" transform="translate(-7507.229 -983.172)">
    <path id="Path_10744" data-name="Path 10744" d="M671.676,2360.393a9.047,9.047,0,0,1,8.86,6.56L681,2368.5l4.768-4.767-.286-.611a15.345,15.345,0,0,0-29.126,6.825,15.2,15.2,0,0,0,8.411,13.87l.617.3L670,2379.5l-1.455-.5a9.319,9.319,0,0,1-6.157-9.052A9.218,9.218,0,0,1,671.676,2360.393Z" transform="translate(6932.271 -1354.044)" fill="#fff"/>
    <path id="Path_10745" data-name="Path 10745" d="M695.451,2354.615l-.615-.3-4.618,4.616,1.455.5a9.324,9.324,0,0,1,6.158,9.052,9.219,9.219,0,0,1-9.292,9.555,9.051,9.051,0,0,1-8.861-6.561l-.462-1.548-4.764,4.767.284.611a15.345,15.345,0,0,0,29.126-6.824A15.2,15.2,0,0,0,695.451,2354.615Z" transform="translate(6931.326 -1354.032)" fill="#fff"/>
    <path id="Path_10746" data-name="Path 10746" d="M587.423,2363.548l-5.808-2.833c-3.059-1.422-3.059-2.352-3.059-3.252,0-1.934,1.8-3.286,4.363-3.286,2.62,0,4.568,1.379,4.849,3.432l.161,1.179H594.7l-.268-2.093c-.705-5.492-5.246-9.041-11.569-9.041-6.46,0-11.149,4.2-11.149,9.984,0,4.229,2.24,7.12,7.252,9.368l5.966,2.835c2.605,1.2,3.4,2.182,3.4,4.211,0,2.26-2.054,3.72-5.235,3.72-3.05,0-5.223-1.714-5.67-4.474l-.2-1.208h-6.179l-.576.073.3,2.129c.883,6.284,5.5,10.036,12.35,10.036,8.26,0,12.022-5.387,12.022-10.393C595.144,2367.82,591.434,2365.329,587.423,2363.548Z" transform="translate(6936.757 -1353.685)" fill="#fff"/>
    <path id="Path_10747" data-name="Path 10747" d="M618.652,2371.408c0,4.093-2.444,8.327-6.536,8.327-3.638,0-5.294-2.843-5.294-5.485v-15.795h-6.088v15.77c0,6.623,4.746,11.43,11.287,11.43a10.635,10.635,0,0,0,6.8-2.4v1.631h5.9v-26.435h-6.063Z" transform="translate(6935.175 -1354.249)" fill="#fff"/>
    <path id="Path_10748" data-name="Path 10748" d="M718.619,2384.039l-.3-.119c-3.08-1.224-4.584-3.842-4.6-8.005l-.011-2.067.04-37.586-6.149,6.088.152,33.391c0,6.974,2.673,11.286,8.463,13.585l2.419.73Z" transform="translate(6929.594 -1353.09)" fill="#fff"/>
    <path id="Path_10749" data-name="Path 10749" d="M647.094,2371.408c0,4.093-2.444,8.327-6.535,8.327-3.637,0-5.294-2.843-5.294-5.485v-15.795h-6.088v15.77c0,6.623,4.747,11.43,11.286,11.43a10.638,10.638,0,0,0,6.8-2.4v17.712l5.9-5.9v-36.618h-6.063Z" transform="translate(6933.69 -1354.249)" fill="#fff"/>
  </g>
</svg>
