<svg id="Group_40030" data-name="Group 40030" xmlns="http://www.w3.org/2000/svg" xmlns:xlink="http://www.w3.org/1999/xlink" width="62.912" height="73.874" viewBox="0 0 62.912 73.874">
  <defs>
    <clipPath id="clip-path">
      <rect id="Rectangle_22021" data-name="Rectangle 22021" width="62.912" height="73.874" fill="none"/>
    </clipPath>
  </defs>
  <g id="Group_40029" data-name="Group 40029" clip-path="url(#clip-path)">
    <path id="Path_43579" data-name="Path 43579" d="M59.588,49.334a37.269,37.269,0,0,1-8.926,13.906A46.731,46.731,0,0,1,33.215,73.575a5.335,5.335,0,0,1-1.695.3h-.064a5.416,5.416,0,0,1-1.04-.1,5.617,5.617,0,0,1-.715-.192,46.73,46.73,0,0,1-17.469-10.33,37.2,37.2,0,0,1-8.926-13.9C-.3,39.558-.095,28.78.075,20.118v-.133c.034-.715.055-1.467.067-2.3a7.829,7.829,0,0,1,7.372-7.67C16.007,9.545,22.583,6.775,28.192,1.3l.049-.045a4.733,4.733,0,0,1,6.425,0l.048.045c5.615,5.471,12.19,8.242,20.68,8.716a7.829,7.829,0,0,1,7.379,7.67c.012.835.034,1.586.067,2.3v.056c.163,8.678.368,19.477-3.251,29.292" transform="translate(0 0)" fill="#48a6d9"/>
    <path id="Path_43580" data-name="Path 43580" d="M81.15,49.334A37.269,37.269,0,0,1,72.224,63.24,46.72,46.72,0,0,1,54.778,73.574a5.564,5.564,0,0,1-.72.192,5.494,5.494,0,0,1-.975.107V0a4.739,4.739,0,0,1,3.149,1.256l.048.045C61.9,6.772,68.47,9.543,76.96,10.018a7.829,7.829,0,0,1,7.372,7.67c.012.835.034,1.585.067,2.3v.056c.166,8.68.371,19.479-3.248,29.294" transform="translate(-21.562)" fill="#387ea5"/>
    <path id="Path_43581" data-name="Path 43581" d="M58.791,49.609A18.434,18.434,0,0,1,40.444,68.021h-.065a18.412,18.412,0,1,1,0-36.823h.065A18.434,18.434,0,0,1,58.791,49.609" transform="translate(-8.923 -12.672)" fill="#fff"/>
    <path id="Path_43582" data-name="Path 43582" d="M71.43,49.609A18.434,18.434,0,0,1,53.083,68.021V31.2A18.434,18.434,0,0,1,71.43,49.609" transform="translate(-21.562 -12.672)" fill="#e1ebf0"/>
    <path id="Path_43583" data-name="Path 43583" d="M54.429,53.86H37.789a1.8,1.8,0,0,0-1.794,1.8V68.922a1.8,1.8,0,0,0,1.794,1.794H54.429a1.8,1.8,0,0,0,1.794-1.794V55.655a1.8,1.8,0,0,0-1.794-1.8m-6.714,9.27v1.326a1.605,1.605,0,1,1-3.211,0V63.13a2.729,2.729,0,1,1,3.211,0" transform="translate(-14.621 -21.878)" fill="#387ea5"/>
    <path id="Path_43584" data-name="Path 43584" d="M54.9,46v2.081a1.284,1.284,0,0,1-2.569,0v-2a3.425,3.425,0,0,0-3.242-3.451A3.375,3.375,0,0,0,45.593,46v3.686H43.024V46.1a6,6,0,0,1,5.787-6.035A5.942,5.942,0,0,1,54.9,46" transform="translate(-17.476 -16.274)" fill="#387ea5"/>
  </g>
</svg>
