<svg xmlns="http://www.w3.org/2000/svg" width="55" height="55" viewBox="0 0 55 55">
  <g id="target" transform="translate(-4 -4)">
    <path id="Path_41456" data-name="Path 41456" d="M36.821,28.913c-.2-6.49-9.619-6.489-9.821,0C27.2,35.4,36.62,35.4,36.821,28.913Z" transform="translate(-0.411 -0.358)" fill="#373464"/>
    <path id="Path_41457" data-name="Path 41457" d="M31.7,15C15.5,15.119,8.966,35.73,21.877,45.173c0,0,0-1.689,0-1.689a9.835,9.835,0,0,1,5.971-9.035,6.875,6.875,0,1,1,7.7,0,9.834,9.834,0,0,1,5.971,9.035v1.689C54.428,35.729,47.888,15.118,31.7,15Z" transform="translate(-0.197 -0.196)" fill="#373464"/>
    <path id="Path_41458" data-name="Path 41458" d="M31.857,36A7.867,7.867,0,0,0,24,43.859V46.8a16.621,16.621,0,0,0,15.713,0V43.859A7.867,7.867,0,0,0,31.857,36Z" transform="translate(-0.357 -0.571)" fill="#373464"/>
    <path id="Path_41459" data-name="Path 41459" d="M53.786,49.213l1.532-1.532a.989.989,0,0,0-.7-1.679h-7.64a.985.985,0,0,0-.982.982v7.641a.982.982,0,0,0,1.679.7L49.21,53.79l5.676,5.677a.986.986,0,0,0,1.385,0l3.192-3.192a.978.978,0,0,0,0-1.385l-5.676-5.677Z" transform="translate(-0.75 -0.75)" fill="#373464"/>
    <path id="Path_41460" data-name="Path 41460" d="M46.981,17.752h7.64a.989.989,0,0,0,.7-1.679l-1.532-1.532,5.676-5.677a.978.978,0,0,0,0-1.385L56.271,4.287a.978.978,0,0,0-1.385,0L49.21,9.964,47.678,8.432a.989.989,0,0,0-1.679.7s0,7.641,0,7.641a.985.985,0,0,0,.982.982Z" transform="translate(-0.75)" fill="#373464"/>
    <path id="Path_41461" data-name="Path 41461" d="M9.964,14.541,8.432,16.073a.989.989,0,0,0,.7,1.679h7.64a.985.985,0,0,0,.982-.982V9.129a.982.982,0,0,0-1.679-.7L14.54,9.964,8.864,4.287a.978.978,0,0,0-1.385,0L4.287,7.479a.978.978,0,0,0,0,1.385Z" transform="translate(0 0)" fill="#373464"/>
    <path id="Path_41462" data-name="Path 41462" d="M16.769,46H9.129a.989.989,0,0,0-.7,1.679l1.532,1.532L4.287,54.89a.978.978,0,0,0,0,1.385l3.192,3.192a.986.986,0,0,0,1.385,0L14.54,53.79l1.532,1.532a.989.989,0,0,0,1.679-.7s0-7.641,0-7.641A.985.985,0,0,0,16.769,46Z" transform="translate(0 -0.75)" fill="#373464"/>
  </g>
</svg>
