<?xml version="1.0" encoding="UTF-8"?>
<svg id="Layer_2" data-name="Layer 2" xmlns="http://www.w3.org/2000/svg" xmlns:xlink="http://www.w3.org/1999/xlink" viewBox="0 0 50 50">
  <defs>
    <style>
      .cls-1 {
        clip-path: url(#clippath);
      }

      .cls-2 {
        fill: none;
      }

      .cls-2, .cls-3, .cls-4 {
        stroke-width: 0px;
      }

      .cls-3 {
        fill: #494d74;
      }

      .cls-4 {
        fill: #fff;
      }
    </style>
    <clipPath id="clippath">
      <rect class="cls-2" width="50" height="50"/>
    </clipPath>
  </defs>
  <g id="Layer_1-2" data-name="Layer 1">
    <g class="cls-1">
      <g id="surface1">
        <path class="cls-3" d="m46.24,13.56v-.04c-.02-.48-.04-.99-.04-1.55-.04-2.03-1.22-3.79-2.94-4.64-.04-.02-.07-.04-.11-.06-.02,0-.03-.01-.05-.02-.58-.26-1.21-.43-1.89-.47-5.75-.32-10.2-2.2-14-5.9l-.03-.03c-.15-.14-.31-.26-.49-.37-.04-.02-.08-.04-.12-.06-.13-.07-.26-.14-.4-.2-.08-.03-.15-.04-.23-.07-.11-.03-.22-.07-.33-.09-.09-.02-.18-.02-.27-.03-.1-.01-.19-.03-.29-.03h0c-.8,0-1.59.27-2.22.85l-.03.03c-3.8,3.7-8.25,5.58-14,5.9-2.76.16-4.94,2.42-4.99,5.19,0,.56-.02,1.07-.04,1.55v.09c-.12,5.86-.25,13.16,2.19,19.78,1.28,3.55,3.35,6.77,6.04,9.41,3.38,3.17,7.42,5.56,11.82,6.99.16.05.32.1.48.13.23.05.47.07.7.07h.04c.22,0,.43-.03.64-.07,0,0,.01,0,.02,0,.17-.03.33-.08.49-.13,4.4-1.44,8.43-3.83,11.81-6.99,2.69-2.65,4.76-5.86,6.04-9.41.84-2.27,1.37-4.62,1.7-6.96.65-4.51.57-9,.5-12.87Z"/>
        <path class="cls-4" d="m37.36,23.46c-.09-.74-.24-1.46-.45-2.15-.02-.06-.04-.12-.06-.18-.13-.39-.27-.77-.44-1.14-.39-.89-.89-1.73-1.48-2.5-.1-.13-.19-.27-.3-.4-.45-.55-.96-1.05-1.5-1.52-.06-.06-.12-.12-.19-.17-.3-.25-.62-.49-.94-.71,0,0,0,0-.01-.01-.55-.37-1.13-.69-1.74-.97-.13-.06-.25-.13-.37-.18-.15-.06-.31-.11-.47-.17-.22-.09-.44-.18-.68-.25-.27-.08-.54-.15-.82-.21-.12-.03-.25-.07-.37-.1-.18-.04-.37-.06-.55-.09-.23-.04-.45-.08-.68-.11-.09,0-.18,0-.26-.01-.33-.03-.67-.05-1.01-.06h-.04c-6.88,0-12.46,5.58-12.46,12.46,0,6.88,5.58,12.46,12.46,12.46h.04c6.86-.03,12.41-5.6,12.42-12.46,0-.52-.04-1.04-.11-1.54Z"/>
        <path class="cls-3" d="m30.66,23.21l-5.61,5.61-1.22,1.22c-.57.57-1.5.57-2.08,0l-2.6-2.61c-.57-.57-.57-1.5,0-2.08s1.5-.57,2.08,0l1.57,1.57,2.25-2.25,3.53-3.53c.58-.56,1.51-.55,2.08.03.55.57.55,1.48,0,2.05Z"/>
      </g>
    </g>
  </g>
</svg>