<svg xmlns="http://www.w3.org/2000/svg" width="1280" height="800" xmlns:v="https://vecta.io/nano"><style><![CDATA[.I{fill:none}.J{opacity:.8}.K{clip-path:url(#C)}]]></style><defs><clipPath id="A"><path fill="#fff" stroke="#707070" stroke-width="1" d="M0 0h1280v800H0z"/></clipPath><linearGradient id="B" x1="1" y1=".016" x2=".5" y2="1"><stop offset="0" stop-color="#00f1ff"/><stop offset="1" stop-color="#00adff"/></linearGradient><clipPath id="C"><path d="M0 0h1114.842v575.784H0z" class="I"/></clipPath><clipPath id="D"><path d="M0 0h338.415v266.033H0z" class="I"/></clipPath><clipPath id="E"><path d="M0 0h358.396v401.438H0z" class="I"/></clipPath><clipPath id="F"><path d="M0 0h123.404v123.403H0z" class="I"/></clipPath><clipPath id="G"><path d="M0 0h130.814v376.392H0z" class="I"/></clipPath><clipPath id="H"><path d="M0 0h466.149v502.011H0z" class="I"/></clipPath><clipPath id="I"><path d="M0 0h437.899v255.07H0z" class="I"/></clipPath><clipPath id="J"><path d="M0 0h269.181v575.784H0z" class="I"/></clipPath><clipPath id="K"><path d="M0 0h348.953v221.536H0z" class="I"/></clipPath><clipPath id="L"><path d="M0 0h222.531v111.107H0z" class="I"/></clipPath><clipPath id="M"><path d="M0 0h214.206v499.687H0z" class="I"/></clipPath></defs><g clip-path="url(#A)"><rect width="1308" height="816.8" rx="10" fill="url(#B)" x="-28" y="-16.676"/><g transform="translate(210.413 224.34)" fill="#226d96" class="K"><g class="K"><g class="J"><g class="K"><g class="J"><g clip-path="url(#D)" transform="translate(480.987 309.75)"><path d="M159.254 107.022c-9.734 3.824-21.9 9.024-27.458 13.137-8.49 6.272-15.709 13.993-20.462 23.636-5.751 11.689-4.211 21.883 4.432 31.618.451.516.9 1.251 1.4 1.89.806 1.013.806 1.238-.536 1.238h-2.421c-13.39 0-26.772.6-40.147.633-4.541.014-5.482 1.306-5.5 5.843l-.006 24.074c0 5.2-7.2 8.151-14.1 8.555-8.295.491-12.8-10.589-12.615-16.795a44.85 44.85 0 0 0-.69-11.192c-2.058-9.237-4.329-16.624-4.413-26.214q-.121-16.631.144-33.294c.038-2.6.776-5.883 2.425-7.667 1.327-1.397 2.13-3.209 2.274-5.13.295-3.143-1.714-5.518-3.621-5.292s-3.649-5.062-4.294-11.784c-.476-4.05-.648-8.13-.516-12.206a33.86 33.86 0 0 1 2.411-11.082c.294-.746 4.492-11.83 2.412-11.392l-2.46.516c-1.353.289-2.5-6.082-2.534-14.242-.022-4.952 0-9.865.178-14.766.2-5.577-.724-10.641-3.9-15.2-1.612-2.326-1.572-4.157.141-6.67a13.54 13.54 0 0 0 2.22-10.832c-1.421-6.127-11.823-5.8-12.9.612-.567 3.42.356 7.115 2.734 11.2.609 1.05.862 3.083.26 3.941-4.472 6.293-4.961 13.318-4.659 20.688.307 7.24.073 14.513.05 21.768 0 .588-.03 1.162-.066 1.737-.063.954-.356 1.8-.642 1.911-.166.082-.348.126-.533.128-1.2-.236-2.376-.511-3.573-.781-.624-.145 3.273 19.465 3.34 20.527a93.96 93.96 0 0 1-.284 13.393c-.588 7.385-3.294 13.134-6.047 12.782s-5.281 2.376-3.739 5.677a14.34 14.34 0 0 0 4.12 5.092 11.52 11.52 0 0 1 3.774 7.321c.337 19.879 1.472 38.35-3.063 57.617a91.36 91.36 0 0 0-1.865 12.423c-.611 6.92-3.684 12.669-6.6 14.7-1.428.993-1.923 2.532-1.923 5.861v45.032h143.82c.076-.836.553-7.507.553-8.374 0-29.234 11.313-52.915 25.019-52.915.332 0 .664.026.993.053v-99.6c-3.79-.07-7.562.547-11.132 1.822"/><path d="M332.939 215.135c-.754-.223.385-21.533.089-23.288-1.616-9.355-4.141-16.245-4.17-26.025l.174-33.3c.046-2.513 1-5.888 2.78-7.325 1.699-1.259 2.522-3.384 2.113-5.459-.427-3.374-3.2-5.835-5.848-5.628s-4.919-5.335-4.75-12.644a69.41 69.41 0 0 1 1.373-13.134c.779-3.6 2.49-6.837 3.907-10.1 2.38-5.5 1.375-10.329.471-10.108a30.1 30.1 0 0 1-1.645.385c-.133.023-.236-.04-.455-.141-.248-.106-.507-.941-.536-1.9-.023-.569-.039-1.149-.039-1.737-.014-7.256-.2-14.526.1-21.768.309-7.369-.171-14.391-4.633-20.688-.609-.855-.345-2.893.264-3.948 2.38-4.081 3.306-7.78 2.732-11.2-1.072-6.406-11.477-6.736-12.9-.608a13.59 13.59 0 0 0 2.218 10.827c1.727 2.51 1.764 4.347.154 6.67-3.171 4.565-4.1 9.625-3.9 15.206.17 4.9.193 9.81.17 14.766-.03 8.159-1.166 14.536-2.53 14.243-1.347-.287-2.544 2.323-1.488 5.577.529 1.656 1.249 3.2 2.079 5.836.866 2.745.419 6.21.431 9.061l-.168 12.935c-.08 7.147-1.372 12.728-3.281 12.5s-3.923 2.128-3.636 5.262a8.28 8.28 0 0 0 2.278 5.107c1.652 1.781 2.372 5 2.422 7.591l.088 36.628c-.138 10.016-4.883 18.873-5.1 28.639-.257 11.307-.1 20.069-13.433 20.869-5.667.362-18.583-1.116-18.583-9.376 0-.264-.294-9.746-.294-10.547l.036-12.193c0-6.333-.573-7.582-6.756-7.582h-39.016c-.759.043-1.514.136-2.261.279-1.248.193-1.675-.534-.851-1.29.543-.507 1-.9 1.454-1.409 8.67-9.519 10.675-20.255 4.7-31.621a77.6 77.6 0 0 0-12.03-16.509c-6.973-7.464-17.712-13.808-27.994-19.264-4.339-2.3-10.434-3.525-16.289-3.521v99.6c13.255 1.111 27.266 32.957 23.537 61.237h144.459v-42.916c0-6.192.8-6.192-5.443-7.988"/></g></g><g class="J"><g clip-path="url(#E)" transform="translate(717.839 174.345)"><path d="M358.399 401.056l-1.1-85.392-19.52-.26-5.185.047-7.177-14.845.453-6.844c2.85-6.312-.6-7.431-.6-7.431s.092-26.283-9.444-42.782c-11.65-20.163-22.135-24.332-22.135-24.332l-2.574-37.586s-2.673-8.968-6.944-11.949c0 0-6.833 4.334-7.134 14.242-.357 9.83.379 35.984.379 35.984s-10.575 8.687-15.28 16.444c-.01.007-.013.026-.026.037s.008-.144.02-.351c.036-.764.12-2.79.057-5.08-.093-3.474-.522-7.556-1.944-8.713-2.55-2.133-5.193-7.233-5.193-7.233l-1.425-13.282s2.432-10.709-.582-13.258-4.318-3.841-4.318-3.841-.026-.115-.647-3.283l-.016-.008c-2.188-11.11-8.162-38.153-16.592-49.683-14.31-19.553-32.094-33.967-36.52-44.2-4.387-10.256-3.818-39.432-3.818-39.432s-.246-23.562-9.76-31.187l-.261-15.739s-1.235-.655-1.909-.967v177.713l1.712-.057 1.427-.03 3.991.025.206 19.123-4 .032c-.487 0-.953.022-1.434.029l-1.906.06v11.2l-.065 22.272 19.921 12.992.269 23.768 33.369 21.744.091 8.6-39.337-28.2.043-22.448-14.492-10.08.2 77.061a13.18 13.18 0 0 1 3.153 1.707c4.46 3.376 5.837 8.845 6.255 11.57a15.78 15.78 0 0 1 .181 1.665l.56 52.81.049 4.672-6.3.06-3.9.043v14.612l65.057.363 19.86-.21v-.014zm-53.774-107.671c6.707-.072 7.05 7.088 7.05 7.088l.157 15.156-13.7.121-.155-15.13s-.072-7.17 6.651-7.235m-60.829-85.387a116.7 116.7 0 0 0-12.89-4.7l-.2-19.162a113.66 113.66 0 0 1 12.9 4.695zm-24.888-26.8l.2 19.149a146.81 146.81 0 0 0-16.3-2.507l-.2-19.152a159.21 159.21 0 0 1 16.3 2.51m-11.223 204.968l-.119-10.81-.371-35.626s-.1-10.175 8.281-12.746c1.297-.391 2.645-.589 4-.59a14.26 14.26 0 0 1 4.093.516c8.447 2.432 8.847 12.55 8.847 12.55l.239 22.92.244 23.519zm68.196-92.491c6.772-.063 7.029 7.1 7.029 7.1l.161 15.1-13.719.115-.155-15.072s-.073-7.164 6.684-7.239m-12.674 43.288l-.118-10.4h.2l.487 59.261-.1-4.672z"/><path d="M169.615 328.746a16 16 0 0 1 .181-1.663c.419-2.727 1.794-8.2 6.256-11.569a13 13 0 0 1 3.155-1.712l-.131-76.865-14.16 9.893.042 22.443-39.339 28.2.092-8.6 33.368-21.744.27-23.768 19.922-12.994-.065-22.274v-11.2l-1.908-.06c-.481 0-.947-.03-1.432-.03l-4-.027.206-19.125a117.74 117.74 0 0 1 3.992-.022l1.425.033c.576.007 1.145.037 1.715.056V0c-.677.313-1.911.967-1.911.967l-.26 15.739c-9.516 7.622-9.763 31.188-9.763 31.188s.57 29.179-3.818 39.433c-4.425 10.231-22.211 24.65-36.52 44.2-8.428 11.531-14.4 38.58-16.594 49.685l-.011.007-.649 3.283s-1.315 1.289-4.317 3.84-.583 13.264-.583 13.264l-1.423 13.282s-2.645 5.1-5.193 7.23c-1.422 1.159-1.85 5.235-1.945 8.711-.063 2.29.022 4.314.058 5.08l.02.348s-.016-.023-.026-.036c-4.706-7.759-15.28-16.438-15.28-16.438s.735-26.155.377-35.984c-.3-9.909-7.132-14.248-7.132-14.248-4.27 2.988-6.944 11.951-6.944 11.951l-2.573 37.586s-10.486 4.166-22.136 24.329c-9.537 16.5-9.446 42.788-9.446 42.788s-3.452 1.118-.6 7.431l.454 6.845-7.175 14.84-5.186-.042-19.524.257-1.1 85.393 94.288.155v.017l19.86.208 65.059-.361v-14.612l-3.9-.043-6.3-.068.049-4.669zM60.268 315.617l-13.7-.115.156-15.161s.344-7.155 7.051-7.085c6.724.063 6.65 7.23 6.65 7.23zm28.773.244l-13.717-.118.161-15.1s.256-7.158 7.027-7.092 6.686 7.239 6.686 7.239zm6.147 20.978l-.472 44.187-.1 4.837.49-59.423h.2zm60.6-158.282l-.2 19.151a146.75 146.75 0 0 0-16.3 2.5l.2-19.152a158.98 158.98 0 0 1 16.3-2.5m-28.095 5.452l-.2 19.159a116.38 116.38 0 0 0-12.891 4.7l.2-19.164a112.2 112.2 0 0 1 12.9-4.695m23.124 191.218l-.122 10.81-25.213-.271.243-23.519.24-22.913s.4-10.122 8.845-12.551a14.45 14.45 0 0 1 4.1-.517 13.97 13.97 0 0 1 4 .589c8.385 2.573 8.282 12.751 8.282 12.751z"/></g></g><g class="J"><g clip-path="url(#F)" transform="translate(991.438 452.381)"><path d="M123.404 116.129l-8.27-12.946-53.388.149v20.072h61.658z"/><path d="M9.683 103.478L.001 116.13v7.273h61.747v-20.072zM61.707 0l-57.3 33.687s-3.956 3.566 0 5.973h57.339V.023z"/><path d="M119.004 33.688L61.746.022v39.639h57.258s3.205-2.622 0-5.973M66.103 44.071h17.629v52.881H66.103z"/><path d="M92.554 44.071h17.629v52.881H92.554zm-79.333 0h17.631v52.882H13.221zm26.445 0h17.631v52.882H39.666z"/></g></g><g class="J"><g clip-path="url(#G)" transform="translate(654.105 199.392)"><path d="M60.738 6.873c-.329 1.432.533 3.453-2.59 1.984-3.16-1.432-7.771 4.3-10.307 2.02-2.573-2.277-6.614-1.689-8.3-.881-1.728.881-3.16 4.042-3.16 4.042s2 6.321 4.006 8.01a10.29 10.29 0 0 0 4.886 2.023s3.712-4.89 7.147-4.044c3.4.882 4.282 7.166 2.886 8.6-1.471 1.434-1.177 4.3 0 6.283 1.1 2-.332 9.168-.589 12.64-.33 3.382-6.282 10-5.161 12.824 1.12 2.866 3.985 6.322 4.867 8.3.884 2 .312 10.6-1.156 12.9-1.4 2.277-5.42 6.318-7.4 6.318-2.023 0-4.887-6.318-4.043-7.753.881-1.432-4.558 3.124-4.558 5.439a16.11 16.11 0 0 1-1.468 5.439s-1.415.293-3.159 3.159c-1.73 2.83-1.141 6.835 0 9.7 1.175 2.867-.259 6.6-1.987 8.911-1.708 2.28-4 0-6.282 3.125-2.26 3.159-4.851 7.7-7.146 8.6-2.3.827-2 8.029-.863 10.857 1.138 2.866 4.849 10 3.985 12.015-.826 2.023.865 5.44 1.766 6.321.828.846 2.26 4.557 2.554 5.953.312 1.507 3.435 6.614 3.435 6.614v67.594s-7.441 9.444-7.148 11.979c.276 2.592.589 10.585-2.3 11.76-2.847 1.158-10.013 9.755-10.858 13.467-.863 3.729.329 6.854 0 10.289-.294 3.474-1.176 6.909.329 8.894 1.379 2.02 5.4 6.6 4.246 6.871-1.123.313-4.834 1.432-5.146 2.811-.276 1.468-4.025 16.075-3.692 18.353.274 2.316-2.006 7.165-2.006 9.444 0 2.316-.569 4.594-.312 7.753.259 3.126-1.47 9.682-1.175 10.566a14.79 14.79 0 0 1 .293 3.123v27.211h63.621V.019c-3.192.188-2.955 5.446-3.209 6.854"/><path d="M130.814 348.483l-2.536-21c-.459-4.759-.441-8.23-1.285-10.764a18.86 18.86 0 0 0-2.13-4.32s-.885-10.711-2.132-12.456c-1.27-1.691-9.021-5.088-9.021-5.088s7.33-10.327 8.175-14.186c.882-3.86-.405-13.725-3.474-15.416-2.956-1.781-5.933-2.166-5.933-5.64 0-3.416-.441-5.585-2.59-6.393-2.148-.919-5.163-3.9-6.467-4.778-1.267-.846-4.283-5.09-4.283-5.09v-75.165s4.283-6.428 3.823-9.478c-.386-2.978-.386-7.719 0-9.023.405-1.267 6.026-13.761 5.585-15.928-.405-2.113 7.331 1.745 7.331 1.745s.88-6.025-1.286-7.717c-2.149-1.727-11.189-6.908-7.368-8.6 3.895-1.728 9.518.845 9.518.845s0-5.549-3.9-6.816c-3.857-1.323-2.129-6.486-6.468-7.753-4.318-1.286-9.478 1.727-13.337.478-3.859-1.323-4.74-4.742-7.681-8.2a87.53 87.53 0 0 0-6.466-6.431s10.434-5.732 9.866-10.6-6.854-12.33-8.582-19.165c-1.707-6.908-.588-14.331-2.572-17.454a39.25 39.25 0 0 0-4.574-5.732l.274-5.733s7.755 4.32 10.326 5.4c2.571 1.158 4.85 7.2 5.735 6.614.843-.552.293-7.167-1.473-8.6-1.691-1.432-7.717-4.555-10.288-6.871a12.97 12.97 0 0 1-4.025-8.267c0-2.023-.549-5.439-2.277-6.634-1.745-1.12-2.738-1.378-4.005-2.515-1.286-1.178 1.709-4.448 1.709-6.726.077-1.332-.409-2.635-1.338-3.592s-2.218-1.48-3.552-1.443c-.059 0-.111.016-.17.019v376.382h66.866z"/></g></g><g class="J"><g clip-path="url(#H)" transform="translate(0 73.773)"><path d="M73.09 208.634l-3.76-1.631-10.053 30.006-20.347 5.979 1.007 4.466 21.945-6.453v-.642l.519.224zM205.6 389.097l-1.118 3.774h-2.951v5.149H197v-13.465h-2v-7.22h-1.007l-.756-5.22-1.007-6.844-1.007 6.844-.764 5.22h-1.029v7.22h-1.957v13.465H180.9v-5.149h-2.941l-1.1-3.774-1.2-4.025-1.181 4.025-1.1 3.774h-2.941v5.149h-4.494v-12.729h-1.965v-7.493h-1.007l-.779-5.447-1-7.081-1.02 7.081-.753 5.447H158.4v7.493h-1.978v12.728h-6.631v-5.149h-2.923l-1.129-3.774-1.175-4.025-1.192 4.025-1.113 3.774h-2.922v5.149h-4.446v-13.464h-1.959v-7.22h-1.019l-.777-5.22-.988-6.844-1.016 6.844-.766 5.22h-1.017v7.22h-1.982v13.465h-6.673v-5.149h-2.945l-1.1-3.774-1.194-4.025-1.178 4.025-1.112 3.774h-1.1l-.289-107.453h4.508V179.292h-4.508v-20.375h-.9l-22.045-38.049h-.388V83.053h-.227l-28.83-64.25V.003h-.576v18.978L28.072 83.053h-.256v38.438L5.4 158.917h-.866v20.375H0v106.126h4.534l-.085 216.593h202.194l.009-116.549zM58.914 268.863c-.651 0-1.3-.072-1.936-.111-17.986-1.156-32.266-18.135-32.266-38.979s14.281-37.836 32.266-38.987c.638-.034 1.286-.1 1.936-.1 18.876 0 34.206 17.509 34.206 39.091s-15.329 39.09-34.206 39.09"/><path d="M464.233 372.487v-18.6h-.455a10.62 10.62 0 0 0-7.118-7.068l-1.431-5.71-2.129-8.483-2.146 8.483-1.416 5.71a10.66 10.66 0 0 0-6.772 6.071h-1.222v-30.959h-3.379V304.65h-2.356l-1.514-7.52-2.859-14.325-2.858 14.324-1.5 7.52h-2.38v17.282h-3.366v30.956h-7.217v14.871l-8.581 5.383v23.808h-5.679v-5.207h-2.977l-1.115-3.808-1.221-4.076-1.179 4.076-1.138 3.808h-2.947v5.207h-4.953v-13.6h-1.977v-7.302h-1.04l-.769-5.3-1.031-6.9-1.023 6.9-.757 5.3h-1.02v7.294h-2v13.6h-6.281v-5.207h-2.978l-1.148-3.808-1.179-4.076-1.191 4.076-1.136 3.808h-2.975v5.207h-4.88v-14.338h-1.994v-7.023h-1.036l-.766-5.091-1.029-6.641-1.007 6.641-.77 5.091h-1.03v7.023h-1.977v14.342h-6.367v-5.207h-2.974l-1.138-3.808-1.166-4.076-1.214 4.076-1.136 3.808h-2.976v5.207h-4.811v-14.342h-1.983v-7.023h-1.04l-.777-5.091-1.017-6.641-1.017 6.641-.767 5.091h-1.033v7.023h-1.988v14.342h-6.419v-5.207h-2.959l-1.129-3.808-1.211-4.076-1.178 4.076-1.135 3.808h-2.981v5.207h-4.745v-13.6h-2v-7.298h-1.031l-.774-5.3-1.026-6.9-.185 1.3v1.619l-.773 5.344-.766 5.22h-1.017v7.22h-1.981v13.465h-6.394v-5.149h-2.942l-1.113-3.774-1.192-4.025-1.181 4.025-1.116 3.774h-2.931v5.149h-4.649v-13.816h-1.981v-7.1h-1.019l-.77-5.124-1.007-6.7-.994 6.7-.774 5.124h-1.018v7.1h-1.958v13.821h-6.462v-5.149h-2.928l-1.11-3.774-1.182-4.025-1.218 4.025-1.1 3.774h-2.942v5.149h-4.591v-12.733h-1.978v-7.493h-1.016l-.76-5.447-1.017-7.079-.994 7.079-.767 5.447h-1.03v7.493h-1.961v12.728h-6.51v-5.149h-2.945l-1.1-3.774-1.2-4.025-.112.391-.077 116.554h258.46l.145-104.592.961-.474v-21.147z"/></g></g><g class="J"><g clip-path="url(#I)" transform="translate(389.664 320.714)"><path d="M211.035 0v26.553l-2.785 18.145v5.1l-10.317 19.669v22.264l-10.767-1.307-9.61 14.584-18.51 5.9-6.091 6.9-6.306 4.868-2.123 3.326-2.1 1.008v11.24l-3.777 1.8h-3.022l-3.752 2.574-4.163 20.418-3.087 4.892-1.63 3.817c-2.854-2.661-5.6-5-7.528-5.94-5.813-2.961-14.63 2.893-18.533 0-3.9-2.961-5.9-1.974-6.842 3.925-.987 5.877-1.116 13.127-4.912 11.668-7.809-2.875-15.614-3.86-15.614-.943 0 2.98-.967 2-2.919 6.863-1.178 2.831-.944 6.392-.791 9.609-2.175 1.12-4.461 2.011-6.821 2.659-3.286.517-12.869 1.5-12.869 1.5v8.238l-10.319 6.84-2.81-.448-6.821 11.432H13.578v11.3H0v16.6h211.124V0z"/><path d="M437.9 238.766l-9.91-12.61-4.739-16.065-11.691-5.9s-1.629-5.621-4.417-6.071c-2.832-.559-2.169-.773-5.664-1.31-3.517-.493-4.91.731-4.91.731l-8.688-11.2h-13.32s-3.777-7.42-7.015-8.708c-3.259-1.33-7.292-1.8-10.08-.813-2.79 1.093-4.955 1.542-7.29.557-2.319-1.074-8.388-.259-8.388-.259s-.987-12.525-3.774-15.141c-2.79-2.533-7.7-1.761-9.373 0-1.631 1.8-3.025 4.63-4.935 2.059-1.864-2.511-6.562-6.393-8.429-5.042-1.865 1.289-3.3 1.546-4.955.451-1.586-1.029-5.6 0-5.6 0v-26.27l-3.54-10.768v-8.922l-7.914-15.1-6.112 1.824-2.083-10.533-2.357 13.278-27.407 7.444v-9.951l-8.215-26.553-2.123 9.18-3.453-6.134-1.415 5.1-3.477-9.974-2.38 4.59-9.265-7.314-9.954-19.517v-4.547l-2.571-18.964V0h-1.326v255.07H437.9z"/></g></g><g class="J"><g clip-path="url(#J)" transform="translate(170.45)"><path d="M104.46 456s13.223-49.686 14.006-62.7h15.666V0h-.519v22.461a2.05 2.05 0 0 0-1.355 1.866v20.9h-1.557a3.49 3.49 0 0 0-3.689 3.242 3.16 3.16 0 0 0 .428 1.57h-1.652c-2.873 0-5.195 2.04-5.195 4.554v3.192a4.09 4.09 0 0 0 .58 2.08c-1.985.518-3.401 2.269-3.491 4.318 0 0 2.327 18.392 5.193 18.392h.667c.723 101.12-19.559 235.545-24.864 268.929h-3.979c-2.864 0-5.185 2.047-5.185 4.57 0 0 2.32 8.8 5.185 8.8h1.715c-5.435 28.336-17.308 60.216-30.942 90.431H53.109v26.114C37.049 513.773 19.322 545.273 0 575.792h56.491c.947-39.31 35.3-70.9 77.641-71.131V456z"/><path d="M215.709 480.678V455.3h-12.012c-13.623-30.215-25.512-62.095-30.939-90.431h2.136c2.869 0 5.183-8.8 5.183-8.8 0-2.523-2.314-4.57-5.183-4.57h-4.393c-5.312-33.382-25.592-167.807-24.862-268.928h.677c2.854 0 5.169-18.392 5.169-18.392-.086-2.048-1.499-3.8-3.482-4.317a4.06 4.06 0 0 0 .569-2.082v-3.19c0-2.514-2.317-4.554-5.167-4.554h-1.678a3.18 3.18 0 0 0 .434-1.572 3.49 3.49 0 0 0-3.695-3.242h-1.548v-20.9a2.04 2.04 0 0 0-1.35-1.866V0h-1.434v393.3h16.185s9.338 50.011 14.39 62.7h-30.577v48.65c.152 0 .3-.007.456-.007h.052c42.526.024 77.09 31.716 78.045 71.138h56.5a1052.05 1052.05 0 0 1-53.476-95.103"/></g></g><g class="J"><g clip-path="url(#K)" transform="translate(69.775 354.248)"><path d="M343.473 183.77l.75-7.118c1.494-3.408-1.494-4.64-1.494-4.64l-.99-6.2-8.476-.916c-3.982-7.44-7.971-32.827-7.971-32.827l.253-3.4c0-3.406 2.737-6.5 2.737-6.5l-5.476-2.482-.756-4.331-10.2-3.093-8.221-30.346 1.491-2.467-.994-3.406 1.99-5.572-4.488-1.856-.741-6.5-5.235-2.171c-1.243-8.362-12.7-37.146-12.7-37.146l-2.488-4.02 1.493-5.586C249.889.03 209.394-1.107 178.836.652v68.594c.045 0 .086-.019.128-.019 4.127 0 7.47 4.242 7.47 9.471v15.44c.001 1-.124 1.996-.373 2.965l-7.225.264v22.488a11.74 11.74 0 0 1 3.869 9.01v17.723a12.58 12.58 0 0 1-1.809 6.609l-2.06.017v68.331h170.116c-2.242-10.836-5.483-37.766-5.483-37.766M267.88 83.387c0-4.746 3.089-8.591 6.916-8.591 3.811 0 6.905 3.844 6.905 8.591v20.534q-6.833-1.34-13.821-2.4zm-21.8-52.854h6.73v10.52h-6.73zm-.625 49.207c0-4.781 3.186-8.651 7.1-8.651s7.107 3.87 7.107 8.651v20.633q-7.064-.9-14.2-1.553zm-46.191-52.922h6.717v10.523h-6.717zm3.232 181.715H184.94v-19.92c0-7.971 3.927-14.448 8.773-14.448s8.786 6.476 8.786 14.448zm6.347-60.551a12.89 12.89 0 0 1-1.108 5.275l-15.387-.089a12.95 12.95 0 0 1-1.062-5.186v-17.736c0-6.008 3.935-10.87 8.782-10.87s8.774 4.863 8.774 10.87zm2.248-51.352c0 .126-.012.238-.02.37q-7.887-.136-15.663-.07c0-.095-.009-.205-.009-.3V77.585c0-5.383 3.514-9.756 7.841-9.756s7.851 4.373 7.851 9.756zm19.06 111.9h-17.569v-18.472c0-7.23 3.933-13.1 8.785-13.1s8.787 5.871 8.787 13.1zm4.475-59.624a12.92 12.92 0 0 1-.944 4.9q-7.9-.248-15.822-.393c-.53-1.444-.798-2.971-.793-4.509v-17.73c0-6.006 3.933-10.871 8.773-10.871 4.856 0 8.786 4.864 8.786 10.871zm1.866-53.389a11.5 11.5 0 0 1-.284 2.558q-7.27-.483-14.521-.78a10.92 10.92 0 0 1-.138-1.778V80.079c0-5.229 3.35-9.458 7.47-9.458s7.473 4.229 7.473 9.458zm20.181 113.017h-17.56v-18.53c0-7.973 3.932-14.439 8.784-14.439s8.776 6.466 8.776 14.439zm4.114-58.234c.004 1.577-.271 3.143-.813 4.624q-7.852-.427-15.806-.743a13.27 13.27 0 0 1-.567-3.882v-17.72c0-6.009 3.848-10.883 8.591-10.883s8.6 4.874 8.6 10.883zm20.919 58.234h-17.55v-19.451c0-7.971 3.92-14.447 8.767-14.447s8.783 6.476 8.783 14.447zm2.992-56.365a13.39 13.39 0 0 1-.734 4.4q-7.932-.655-16.066-1.175a13.36 13.36 0 0 1-.388-3.225v-17.743c0-6 3.846-10.865 8.595-10.865s8.593 4.862 8.593 10.865zm2.612-64.413c0-4.848 3.011-8.773 6.729-8.773s6.723 3.925 6.723 8.773v20.62q-6.609-1.8-13.452-3.288zm1.208 120.778l-1.1-16.355c-.521-7.609 2.146-14.085 5.932-14.482s7.279 5.44 7.8 13.054l1.2 17.783zm15.255-50.035l-14.242-1.455a16.67 16.67 0 0 1-.23-1.928l-.96-17.69c-.33-5.993 2.75-11.123 6.862-11.475s7.723 4.234 8.049 10.22l.967 17.691a15.28 15.28 0 0 1-.447 4.637m4.567 50.035l-1.089-16.16c-.491-7.456 1.586-13.769 4.662-14.092s5.966 5.47 6.469 12.939l1.168 17.313zm11.173-48q-5.445-.8-11.083-1.478c-.022-.171-.035-.343-.039-.516l-.9-16.647c-.307-5.637 1.947-10.421 5.038-10.681s5.851 4.1 6.164 9.736l.9 16.651a18.15 18.15 0 0 1-.075 2.935m3.429 48l-1.343-15.007c-.675-7.44 1.27-13.825 4.343-14.246s6.079 5.269 6.755 12.709l1.494 16.544z"/><path d="M167.022 153.308c-1.254-2.019-1.909-4.353-1.886-6.73v-17.722c0-6 3.93-10.868 8.777-10.868a7.63 7.63 0 0 1 4.917 1.857V97.358l-6.812.247c-.355-1.124-.533-2.297-.53-3.476v-15.44c0-5.17 3.278-9.356 7.342-9.452V.642c-15.114.812-30.167 2.522-45.078 5.121l.249 4.334-1.744 1.547-.5 5.261-5.973.928-18.931 4.641-6.974-7.731C4.235 51.276 20.544 87.184 20.544 87.184l-2.115 15.16c-4.404 5.599-5.839 12.977-3.856 19.819l-2.244 15.019c-8.592 5.417-4.1 15.783-4.1 15.783L3.87 176.957c-3.988 2.166-.628 6.5-.628 6.5l-3.238 38.08h178.825v-68.332l-11.808.1m-14.092-125.57h6.726v10.53h-6.726zm-4.968 50.953c0-5.229 3.336-9.471 7.474-9.471 4.116 0 7.464 4.242 7.464 9.471v15.44a11.45 11.45 0 0 1-.711 3.992l-13.149.92a11.47 11.47 0 0 1-1.079-4.912zm-23.932 2.322c0-5.226 3.362-9.461 7.477-9.461s7.469 4.235 7.469 9.461v15.434c.003 1.187-.176 2.367-.529 3.5q-6.9.642-13.343 1.353c-.716-1.518-1.083-3.177-1.075-4.856zm-14.432-44.289l6.469-.62v10.52l-6.469.628zm-6.483 48.465c0-5.223 3.347-9.458 7.473-9.458s7.471 4.235 7.471 9.458v15.437a12.4 12.4 0 0 1-.1 1.5l-14.357 1.849c-.32-1.088-.484-2.217-.486-3.351zm-1.185 35.181c4.835.45 8.447 5.547 8.072 11.386l-1.11 17.226a11.68 11.68 0 0 1-2.053 6.015l-12.963.568c-1.83-2.339-2.716-5.279-2.484-8.24l1.1-17.224c.376-5.828 4.6-10.2 9.434-9.73M83.52 86.256c.376-5.2 4.009-9.055 8.119-8.6s7.145 5.044 6.772 10.247l-1.109 15.383a11.14 11.14 0 0 1-.231 1.632l-13.736 2.155a11.37 11.37 0 0 1-.912-5.441zm-48.4-8.208l-2.362 1.551 1.119-8.828 2.241-1.388zm17.81-11.454l-2.626.769.507-8.662 2.859-1.551zm23.163-19.811l4.986-2.015-1.243 10.531-4.741 1.4zm22.626 142.042l-1.641 19.711H79.451l.047-.565 1.743-20.937c.59-7.082 4.982-12.423 9.806-11.932s8.269 6.633 7.671 13.723m23.825 19.665v.046H104.98V188.37c0-6.825 3.936-12.33 8.786-12.33s8.777 5.5 8.777 12.33zm-5.66-53.9a12.55 12.55 0 0 1-1.812-6.6v-17.744c0-6.008 3.933-10.87 8.776-10.87s8.79 4.863 8.79 10.87v17.737a12.69 12.69 0 0 1-1.531 6.11q-7.326.228-14.223.491m32.562 53.95h-17.562v-21.767c0-7.976 3.94-14.45 8.784-14.45s8.779 6.475 8.779 14.45zm7.845-61.955a12.52 12.52 0 0 1-2 6.915q-6.788.123-13.351.306a12.43 12.43 0 0 1-2.209-7.221v-17.723c0-6 3.929-10.868 8.779-10.868s8.78 4.863 8.78 10.868zm1.491 61.955v-22.235c0-7.983 3.935-14.452 8.784-14.452s8.779 6.469 8.779 14.452v22.231z"/></g></g><g class="J"><g clip-path="url(#L)" transform="translate(4.359 464.676)"><path d="M193.552 99.102c-2.1-10.908-7.49-35.577-5.551-41.14 2.416-6.847 1.688-12.356 1.024-19.661s2.719-15.078-2.048-18.257c-4.823-3.189-13.118-2.1-17.527-1.677-4.462.48-4.788.48-5.488 11.888-.672 11.4-3.851 25.889-3.133 27.74.478 1.251 2.133 22.664 3.047 35.381l-13.716-1.284-3.952-53.747a72.34 72.34 0 0 0-1.557-9.862c2.449-1.34 5.445-9.94 5.736-15.133.394-5.64.708-12.877-9.5-13.314-4.975-.188-17 .4-28.33 1.04v26.857l8.355.095c-.121 3.376-2.515 44.647-2.429 64.329l-5.926.033-.039 18.721h110.014s-4.157-6.473-28.98-12.005m-87.975-6.646c.24-20.054.329-55.075-1.457-64.622l8.433.091V1.075l-24.383 1.4c-3.158 0-7.707 12.083-5.977 16.5 1.776 4.409.392 7.99 4.137 8.425-2.449 5.554-4.646 21.36-5.389 34.707L79.155 93.7c-2.046.129-2.188.371-4.124.523.707-7.469-.883-16.807-3.028-23.929-3.755-12.356.7-28.761.7-29.873 0-1.85-3.005-9.448-6.14-13.609 2.263-1.458 8.086-7.861.184-13.476-2.2-1.557-28.089 2.416-31.735 2.416-3.581 0-16.025 6.76-16.948 8.8-.829 1.85 3 3.767 6.444 5.006-.136.089-.258.2-.359.328-.5.524-2.244 13.239-5.867 16.462-3.081 2.765-1.569 44.154.215 55.826-15.663 4.288-18.5 8.935-18.5 8.935h112.457l.1-18.721-6.976.075m-58.221 4.572c-.869.109-7.719.217-8.5.326-.468-16.591 1.807-55.662 1.339-59.449-.567-4.389 2.362-7.089-1.8-8.786l10.681-.62c-1.319 11.267-1.264 50.129-1.721 68.529"/></g></g><g class="J"><g clip-path="url(#M)" transform="translate(885.548 76.097)"><path d="M211.95 109.36l-19.525-3.178c.092-1.982-.833-3.683-2.188-3.963l7.389-56.384c.054-.021.108-.038.164-.053a2.75 2.75 0 0 0 .833-1.389l1.881.306.068-.5a5.05 5.05 0 0 0-.661-3.4c-.347-.561-.912-.951-1.559-1.077l-1.76-.284 1.712-12.986 2.066.329c1.279.146 2.561-.237 3.552-1.058s1.603-2.011 1.697-3.295a6.08 6.08 0 0 0-.1-2l-62.723-10.203-12.988 99.849c3.563.839 6.232 3.801 6.694 7.433l-.214-.034c-1.319-.214-2.606 1.172-2.855 3.1l-.069.5 2.065.33a1.75 1.75 0 0 0 .5 1.21l-3.36 25.622-.3-.059c-1.209-.194-2.383.954-2.77 2.616l-4.875-.794-1.864 14.282a8.27 8.27 0 0 1 6.244 6.87c-1.233-.013-2.37 1.316-2.607 3.123l-.069.5 2.066.329a1.75 1.75 0 0 0 .5 1.2l-3.357 25.635-.307-.056c-1.209-.2-2.394.965-2.781 2.65l-4.817-.777-1.862 14.3c3.269.804 5.722 3.513 6.2 6.845-1.253-.019-2.375 1.29-2.619 3.117l-.062.5 2.063.335c.004.451.187.882.507 1.2l-3.363 25.631-.312-.049c-1.276-.2-2.517 1.093-2.822 2.916l-4.755-.771-1.859 14.314a8.26 8.26 0 0 1 6.142 6.824c-1.233-.01-2.375 1.324-2.615 3.123l-.059.5 2.049.338a1.8 1.8 0 0 0 .5 1.192l-3.354 25.628-.3-.046c-1.247-.2-2.413.947-2.787 2.665l-4.712-.764-1.859 14.318a8.28 8.28 0 0 1 6.081 6.8c-1.246-.017-2.364 1.289-2.6 3.13l-.075.493 2.066.34a1.73 1.73 0 0 0 .5 1.185l-3.361 25.617-.307-.042c-1.223-.211-2.378.914-2.764 2.6l-4.669-.76-1.863 14.332c3.188.858 5.56 3.532 6.031 6.8a2.04 2.04 0 0 0-1.307.494 4.06 4.06 0 0 0-1.3 2.622l-.068.49 2.061.343c.005.447.184.875.5 1.192l-3.35 25.629-.3-.047c-1.224-.194-2.408.973-2.781 2.653l-4.608-.746-.753 5.814 80.015 13.026c.7.112 1.414-.089 1.953-.55a3.02 3.02 0 0 0 1.037-1.934 2.92 2.92 0 0 0-2.232-3.33l-.664-.1c.075-1.74-.757-3.234-1.979-3.433l-.308-.049 3.362-25.625c.389-.211.674-.573.789-1l2.059.336.07-.5c.247-1.913-.619-3.653-1.943-3.866l-.088-.013a9.81 9.81 0 0 1 2.07-3.591l.117-.132 1.338-10.191 1.468.24c.7.114 1.415-.091 1.948-.559a3.01 3.01 0 0 0 1.04-1.931c.013-.137.017-.282.017-.428a3.17 3.17 0 0 0-.513-1.745 2.56 2.56 0 0 0-1.735-1.149l-.672-.116c.056-1.712-.776-3.178-1.981-3.382l-.306-.046 3.354-25.627a1.57 1.57 0 0 0 .789-1l2.06.336.068-.5a4.33 4.33 0 0 0-.574-2.922 2.04 2.04 0 0 0-1.366-.954l-.089-.016a9.75 9.75 0 0 1 2.084-3.591l.11-.121 1.341-10.2 1.456.233a2.4 2.4 0 0 0 1.955-.549 3.02 3.02 0 0 0 1.036-1.935 2.66 2.66 0 0 0 .029-.427 3.13 3.13 0 0 0-.522-1.745 2.57 2.57 0 0 0-1.74-1.149l-.659-.106a4.21 4.21 0 0 0-.606-2.5 2.13 2.13 0 0 0-1.379-.954l-.3-.046 3.356-25.634c.391-.202.677-.562.787-.988l2.061.34.068-.486c.161-1.013-.042-2.05-.571-2.929a2.02 2.02 0 0 0-1.375-.954l-.09-.019a9.96 9.96 0 0 1 2.083-3.591l.118-.118 1.33-10.213 1.468.247a2.38 2.38 0 0 0 1.949-.552 2.97 2.97 0 0 0 1.039-1.931c.013-.147.026-.294.026-.437.003-.619-.179-1.224-.523-1.738-.392-.611-1.02-1.033-1.734-1.164l-.648-.1c.178-1.858-.68-3.5-1.962-3.7l-.306-.049 3.361-25.632a1.57 1.57 0 0 0 .783-1l2.066.343.067-.5a4.33 4.33 0 0 0-.573-2.919 2.08 2.08 0 0 0-1.375-.96l-.085-.016a9.97 9.97 0 0 1 2.077-3.591l.115-.115 1.339-10.207 1.459.236c.702.117 1.419-.084 1.958-.549a2.99 2.99 0 0 0 1.029-1.907c.265-1.523-.71-2.987-2.217-3.33l-.67-.106c.066-1.74-.766-3.238-1.981-3.433l-.3-.043 3.362-25.635a1.66 1.66 0 0 0 .781-.987l2.064.338.069-.493c.25-1.926-.624-3.669-1.951-3.883l-.086-.012a9.79 9.79 0 0 1 2.084-3.594l.113-.121 1.335-10.2 1.465.237a2.45 2.45 0 0 0 1.958-.552 2.99 2.99 0 0 0 1.021-1.936 2.74 2.74 0 0 0 .035-.432 3.19 3.19 0 0 0-.517-1.75 2.65 2.65 0 0 0-1.743-1.142l-.672-.109a4.1 4.1 0 0 0-.606-2.419c-.3-.501-.798-.852-1.37-.967l-.3-.05 3.35-25.628a1.62 1.62 0 0 0 .791-.991l2.062.338.06-.49a4.28 4.28 0 0 0-.573-2.92 2.05 2.05 0 0 0-1.366-.967l-.546-.083a10.47 10.47 0 0 1 2.231-3.883l1.32-10.031 1.895.307a2.37 2.37 0 0 0 1.957-.547c.578-.489.949-1.179 1.037-1.931a2.73 2.73 0 0 0 .025-.422 2.87 2.87 0 0 0-2.255-2.91m-27.425 9.577c2.944.484 5.09 3.5 5.489 7.278l-.266-.043c-.563-.075-1.13.098-1.555.474a4.06 4.06 0 0 0-1.3 2.63l-.069.487 2.061.34a1.74 1.74 0 0 0 .494 1.2l-3.356 25.625-.3-.049c-.565-.082-1.137.095-1.557.483a3.84 3.84 0 0 0-1.212 2.13l-7.478-1.214a4.19 4.19 0 0 0-.611-2.441 2.05 2.05 0 0 0-1.382-.947l-.294-.055 3.355-25.619a1.61 1.61 0 0 0 .789-1l2.061.336.067-.491c.167-1.014-.038-2.053-.575-2.929-.3-.496-.799-.841-1.369-.947l-.368-.063c1.358-3.489 4.193-5.715 7.137-5.222zm-2.671 64.865a1.67 1.67 0 0 0 .5 1.2L179 210.635l-.3-.05c-1.22-.2-2.4.961-2.784 2.652l-7.471-1.211c.072-1.744-.75-3.236-1.975-3.433l-.307-.05 3.363-25.631a1.61 1.61 0 0 0 .793-.983l2.056.338.06-.5c.25-1.879-.576-3.581-1.846-3.864 1.3-3.25 3.917-5.259 6.607-4.815l.231.03c2.7.45 4.7 3.2 5.11 6.736-1.253-.062-2.439 1.289-2.678 3.124l-.059.486zm-7.053 53.746a1.79 1.79 0 0 0 .5 1.192l-3.357 25.628-.3-.046c-1.276-.207-2.515 1.093-2.827 2.919l-7.439-1.21c.178-1.855-.683-3.494-1.96-3.7l-.3-.049 3.355-25.632c.388-.206.673-.563.788-.987l2.059.333.067-.5c.157-1.011-.045-2.045-.573-2.922a2.12 2.12 0 0 0-1.285-.927c1.3-3.26 3.926-5.259 6.622-4.817l.237.034c2.686.437 4.691 3.206 5.1 6.746-.505-.025-1 .151-1.377.488a4.1 4.1 0 0 0-1.293 2.613l-.063.49zm-7.077 54.013a1.71 1.71 0 0 0 .508 1.19l-3.361 25.637-.3-.056a1.93 1.93 0 0 0-1.567.49 3.95 3.95 0 0 0-1.221 2.178l-7.469-1.211c.079-1.741-.75-3.245-1.981-3.441l-.3-.056 3.368-25.628a1.57 1.57 0 0 0 .781-.99l2.064.336.062-.488c.161-1.011-.04-2.046-.567-2.923a2.06 2.06 0 0 0-1.277-.934c1.3-3.258 3.912-5.263 6.608-4.827l.231.043c2.7.44 4.7 3.208 5.1 6.737-.501-.012-.989.164-1.367.494a4.08 4.08 0 0 0-1.3 2.619l-.069.493zm-7.045 53.747a1.76 1.76 0 0 0 .5 1.21l-3.356 25.627-.311-.056a1.9 1.9 0 0 0-1.551.483 3.83 3.83 0 0 0-1.211 2.128l-7.482-1.217c.056-1.71-.775-3.182-1.978-3.382l-.307-.053 3.36-25.621a1.61 1.61 0 0 0 .786-.994l2.061.336.062-.494a4.28 4.28 0 0 0-.573-2.922 2.13 2.13 0 0 0-1.271-.935c1.288-3.252 3.911-5.248 6.6-4.812l.233.035c2.7.44 4.7 3.2 5.108 6.74-.506-.023-1.001.153-1.378.49a4.11 4.11 0 0 0-1.293 2.613l-.065.5zm-28.8-8.016a2.1 2.1 0 0 0-1.142-.892 7.62 7.62 0 0 1 8.071-4.6l.293.046c3.445.697 6.072 3.497 6.549 6.979-1.237-.032-2.38 1.309-2.612 3.111l-.068.5 2.053.33c.006.45.185.879.5 1.2l-3.356 25.618-.3-.039c-1.205-.2-2.377.938-2.765 2.6l-10.629-1.727a4.16 4.16 0 0 0-.622-2.431c-.299-.494-.793-.839-1.359-.951l-.306-.05 3.359-25.625a1.62 1.62 0 0 0 .784-.994l2.059.326.068-.49c.158-1.009-.046-2.042-.575-2.916m7.04-53.762a2.12 2.12 0 0 0-1.14-.886 7.63 7.63 0 0 1 8.076-4.6l.293.043a8.26 8.26 0 0 1 6.547 6.974c-1.234-.024-2.373 1.313-2.61 3.122l-.072.5 2.056.333a1.76 1.76 0 0 0 .508 1.2l-3.366 25.626-.3-.04c-.563-.081-1.133.092-1.556.473-.636.578-1.066 1.347-1.225 2.192l-10.617-1.731a4.19 4.19 0 0 0-.616-2.487 2.02 2.02 0 0 0-1.368-.952l-.3-.053 3.353-25.631a1.56 1.56 0 0 0 .79-.988l2.062.34.063-.493a4.35 4.35 0 0 0-.578-2.931m7.091-54a2.17 2.17 0 0 0-1.152-.9 7.63 7.63 0 0 1 8.073-4.6l.287.047a8.27 8.27 0 0 1 6.557 6.98c-1.25-.036-2.38 1.276-2.621 3.116l-.061.5 2.059.335a1.7 1.7 0 0 0 .5 1.192l-3.36 25.638-.314-.056c-.56-.079-1.125.094-1.546.471a4.1 4.1 0 0 0-1.271 2.449l-10.589-1.722c.171-1.855-.68-3.492-1.962-3.7l-.312-.047 3.368-25.631a1.6 1.6 0 0 0 .786-.988l2.062.335.059-.5a4.3 4.3 0 0 0-.564-2.913m7.044-53.744a2.1 2.1 0 0 0-1.148-.894 7.62 7.62 0 0 1 8.069-4.6l.286.049c3.45.689 6.084 3.488 6.562 6.973a2.05 2.05 0 0 0-1.32.493 4.15 4.15 0 0 0-1.309 2.627l-.053.49 2.058.338a1.7 1.7 0 0 0 .5 1.2l-3.36 25.625-.308-.049a1.92 1.92 0 0 0-1.55.48 3.84 3.84 0 0 0-1.221 2.172l-10.622-1.73c.065-1.731-.759-3.224-1.981-3.428l-.3-.046 3.359-25.632a1.67 1.67 0 0 0 .79-.984l2.052.328.068-.486c.162-1.011-.04-2.047-.57-2.923m5.665-54.658l-.228-.036a8.11 8.11 0 0 1 8.589-5l.289.055a8.75 8.75 0 0 1 6.944 7.525l-.217-.039c-1.32-.217-2.6 1.175-2.856 3.1l-.067.5 2.054.335a1.72 1.72 0 0 0 .513 1.2l-3.358 25.622-.315-.045c-1.2-.2-2.376.945-2.761 2.6l-10.628-1.72a4.14 4.14 0 0 0-.616-2.436 2.06 2.06 0 0 0-1.363-.952l-.313-.056 3.363-25.62a1.6 1.6 0 0 0 .788-.988l2.06.338.069-.5c.249-1.954-.6-3.656-1.945-3.879m-1.82-53.129c.96-7.324 7.085-12.413 13.658-11.344a11.8 11.8 0 0 1 7.911 5.266 14.51 14.51 0 0 1 2.266 9.962l-4.166 31.722-23.831-3.879zm-18.164 55.06c.387-.209.672-.566.789-.99l2.055.343.065-.5c.255-1.913-.611-3.663-1.938-3.882l-.078-.006c1.389-3.433 4.925-5.49 8.595-5l.287.049c3.691.753 6.49 3.778 6.954 7.517l-.165-.02c-1.321-.221-2.6 1.172-2.863 3.1l-.062.487 2.06.345a1.69 1.69 0 0 0 .507 1.2l-3.367 25.621-.3-.049a1.94 1.94 0 0 0-1.554.48 3.86 3.86 0 0 0-1.211 2.133l-10.849-1.787c.05-.855-.164-1.704-.612-2.434a2.07 2.07 0 0 0-1.37-.954l-.3-.052zm-7.041 53.7a1.58 1.58 0 0 0 .787-.987l2.06.325.057-.486a4.23 4.23 0 0 0-.571-2.929 2.17 2.17 0 0 0-.987-.848 7.62 7.62 0 0 1 8.077-4.614l.288.04a8.26 8.26 0 0 1 6.552 6.987c-1.21.024-2.323 1.343-2.563 3.114l-.06.5 2.065.329a1.71 1.71 0 0 0 .492 1.2l-3.352 25.629-.3-.05c-1.241-.21-2.4.944-2.773 2.653l-10.843-1.767c.066-1.728-.759-3.229-1.976-3.43l-.306-.043zm-7.046 53.747c.392-.21.682-.571.8-1l2.051.338.069-.487c.23-1.773-.456-3.33-1.57-3.779a7.62 7.62 0 0 1 8.075-4.61l.287.04c3.453.69 6.088 3.495 6.561 6.985-1.215.019-2.327 1.343-2.567 3.117l-.057.493 2.06.343c.006.447.185.875.5 1.192l-3.356 25.632-.3-.056c-1.284-.2-2.518 1.093-2.833 2.922l-10.8-1.761c.182-1.857-.671-3.492-1.956-3.7l-.312-.053zm-7.069 54.013a1.67 1.67 0 0 0 .781-1l2.053.335.066-.493c.234-1.737-.457-3.326-1.564-3.771a7.63 7.63 0 0 1 8.074-4.62l.3.05a8.25 8.25 0 0 1 6.547 6.982c-1.209.022-2.321 1.34-2.552 3.112l-.078.5 2.067.335a1.73 1.73 0 0 0 .51 1.2l-3.366 25.631-.3-.056c-1.222-.194-2.409.975-2.783 2.671l-10.84-1.762c.083-1.767-.728-3.238-1.968-3.442l-.3-.053zm-7.052 53.761c.384-.211.666-.57.781-.993l2.066.33.066-.494c.226-1.735-.465-3.327-1.57-3.772a7.62 7.62 0 0 1 8.071-4.619l.3.046c3.449.691 6.08 3.493 6.552 6.979-1.211.033-2.321 1.347-2.561 3.126l-.06.494 2.057.339a1.7 1.7 0 0 0 .5 1.189l-3.357 25.613-.306-.042c-1.209-.2-2.386.935-2.761 2.6l-10.845-1.763c.048-.856-.169-1.706-.62-2.435-.301-.494-.797-.838-1.365-.948l-.308-.05zm5.5 81.908c-1.215-.2-2.4.967-2.775 2.652l-10.844-1.76a4.13 4.13 0 0 0-.61-2.477 2.08 2.08 0 0 0-1.367-.957l-.3-.05 3.359-25.625c.386-.205.669-.562.782-.984l2.06.33.066-.488c.225-1.743-.464-3.326-1.57-3.784 1.336-3.191 4.652-5.084 8.079-4.613l.286.045a8.27 8.27 0 0 1 6.56 7 1.97 1.97 0 0 0-1.254.487 4.08 4.08 0 0 0-1.309 2.625l-.068.5 2.066.327a1.74 1.74 0 0 0 .5 1.2l-3.359 25.63zm18.8 3.057c-1.216-.2-2.4.975-2.779 2.656l-10.618-1.728c.072-1.737-.758-3.232-1.982-3.428l-.3-.052 3.361-25.63a1.56 1.56 0 0 0 .782-.984l2.064.328.063-.491c.238-1.811-.518-3.454-1.712-3.821 1.338-3.184 4.649-5.072 8.071-4.6l.293.05c3.444.694 6.071 3.493 6.547 6.974-1.232-.025-2.376 1.309-2.616 3.123l-.065.493 2.059.332a1.73 1.73 0 0 0 .5 1.2l-3.365 25.635zm15.651 2.55c-1.224-.2-2.405.97-2.775 2.658l-7.477-1.22c.076-1.734-.761-3.224-1.976-3.428l-.307-.05 3.36-25.628a1.58 1.58 0 0 0 .783-.991l2.065.335.068-.493c.237-1.876-.58-3.583-1.85-3.857 1.29-3.257 3.922-5.256 6.611-4.821l.231.046c2.7.431 4.7 3.19 5.1 6.732-1.248-.068-2.419 1.284-2.669 3.112l-.064.494 2.06.335a1.72 1.72 0 0 0 .507 1.2l-3.355 25.638zm16.272-24.643a1.76 1.76 0 0 0 .494 1.194l-3.352 25.635-.309-.05a1.9 1.9 0 0 0-1.55.48 3.9 3.9 0 0 0-1.228 2.172l-4.933-.8c.075-1.734-.758-3.227-1.981-3.428l-.292-.053 3.357-25.628a1.6 1.6 0 0 0 .787-.988l2.053.332.068-.49c.248-1.876-.579-3.581-1.852-3.857 1.127-3.283 3.292-5.351 5.452-5l.181.027c2.154.356 3.693 3.028 3.941 6.531-1.312-.19-2.583 1.191-2.828 3.1l-.072.493zm7.035-53.7c.001.452.184.884.507 1.2L170.94 374.3l-.307-.052c-1.209-.2-2.382.949-2.767 2.613l-4.939-.809c.053-.852-.162-1.699-.614-2.423-.299-.501-.799-.849-1.372-.957l-.3-.047 3.354-25.628a1.59 1.59 0 0 0 .791-.994l2.066.339.061-.5c.242-1.9-.556-3.568-1.845-3.851 1.13-3.241 3.325-5.347 5.439-5.006l.19.029c2.149.352 3.7 3.025 3.935 6.535a1.89 1.89 0 0 0-1.535.477c-.734.686-1.192 1.616-1.289 2.616l-.068.5zm7.046-53.764a1.76 1.76 0 0 0 .5 1.207l-3.36 25.625-.307-.052c-1.224-.192-2.4.978-2.775 2.672l-4.929-.822c.066-.874-.149-1.746-.612-2.49a2.07 2.07 0 0 0-1.368-.95l-.3-.05 3.355-25.631a1.6 1.6 0 0 0 .786-.991l2.059.338.068-.5c.165-1.011-.04-2.047-.576-2.919a2.05 2.05 0 0 0-1.277-.93c1.131-3.281 3.291-5.358 5.456-5.018l.179.046c2.113.335 3.68 3.061 3.928 6.526-.551-.069-1.105.104-1.52.474a4.02 4.02 0 0 0-1.3 2.622l-.069.5zm7.089-54.01c-.004.45.172.882.49 1.2l-3.357 25.632-.307-.063c-1.278-.2-2.508 1.093-2.82 2.926l-4.906-.793c.119-.955-.088-1.922-.587-2.745-.301-.498-.801-.844-1.373-.951l-.3-.059 3.36-25.628c.388-.207.672-.566.783-.991l2.053.346.073-.5a4.31 4.31 0 0 0-.568-2.91 2.1 2.1 0 0 0-1.283-.938c1.132-3.284 3.293-5.366 5.445-5.021l.19.04c2.119.34 3.683 3.067 3.931 6.538a1.87 1.87 0 0 0-1.525.477c-.739.684-1.201 1.614-1.3 2.616l-.066.49zm7.035-53.744a1.69 1.69 0 0 0 .5 1.2l-3.365 25.632-.3-.056c-1.224-.2-2.4.968-2.774 2.66l-4.93-.8c.063-.87-.154-1.737-.62-2.474a2.04 2.04 0 0 0-1.369-.952l-.3-.05 3.369-25.63a1.61 1.61 0 0 0 .782-.984l2.065.338.061-.5a4.33 4.33 0 0 0-.573-2.935 2.1 2.1 0 0 0-1.28-.928c1.126-3.277 3.3-5.36 5.448-5.011l.185.023c2.117.346 3.67 3.076 3.934 6.541-1.326-.2-2.568 1.155-2.83 3.1l-.063.49zm7.9-57.623c-1.346-.218-2.6 1.146-2.847 3.1l-.081.494 2.067.327a1.73 1.73 0 0 0 .5 1.208l-3.354 25.624-.312-.052c-.562-.075-1.129.099-1.552.477a3.89 3.89 0 0 0-1.211 2.133l-4.944-.806c.055-1.715-.767-3.185-1.972-3.383l-.307-.046 3.35-25.625a1.62 1.62 0 0 0 .793-.988l2.061.328.066-.491c.25-1.958-.6-3.665-1.935-3.882l-.368-.055c1.192-3.52 3.563-5.814 5.96-5.42l.192.027c2.388.386 4.092 3.35 4.323 7.1zm-45.831 325.261l-.389 3.1-3.606-.585.4-3.1c.936-7.1-3.254-13.686-9.323-14.674-6.091-.993-11.8 3.988-12.726 11.089l-.4 3.1-3.863-.633.408-3.089c.911-7.123-3.93-13.707-11-14.963-3.354-.55-6.787.296-9.502 2.339s-4.478 5.109-4.878 8.484l-.405 3.106-3.786-.625.407-3.1a13.44 13.44 0 0 0-10.523-14.827l-9.167 70.43h11.589l5.953-42.223a1.21 1.21 0 0 0 .325.086l3.827.636c.11.018.222.025.334.022l-5.022 41.479h24.664l5.275-37.439c.108.039.218.07.331.092l3.817.625a2.17 2.17 0 0 0 .339.018l-4.452 36.705h20.729l4.7-33.288a1.88 1.88 0 0 0 .328.1l3.826.618a2.65 2.65 0 0 0 .336.015l-3.956 32.558h5.2l7.466-56.856c-3.716 1.5-6.582 5.74-7.256 10.8"/><path d="M79.967 0a5.39 5.39 0 0 0-.608 1.873 5.1 5.1 0 0 0 3.912 5.845l2.054.336-1.712 12.986-1.488-.244c-1.523-.249-2.988 1.362-3.291 3.589l-.057.494 1.88.3a2.82 2.82 0 0 0 .568 1.78l-7.371 56.3c-1.372-.165-2.7 1.178-3.113 3.1l-19.773-3.221a2.7 2.7 0 0 0-2.988 2.488 3.21 3.21 0 0 0 .5 2.176c.388.609 1.016 1.025 1.728 1.146l1.4.234-1.29 9.85c.759 1.433 1.19 3.017 1.262 4.637l-.187-.027c-1.323-.215-2.6 1.171-2.854 3.1l-.063.484 2.059.339c.009.449.188.878.5 1.2l-3.354 25.643-.306-.059a1.93 1.93 0 0 0-1.559.478c-.623.564-1.047 1.314-1.211 2.139l-.673-.1a2.7 2.7 0 0 0-2.994 2.474 3.15 3.15 0 0 0 .5 2.175 2.59 2.59 0 0 0 1.727 1.156l.956.154-1.315 10.026.093.161a10.5 10.5 0 0 1 1.177 4.331 1.95 1.95 0 0 0-1.281.49 4.09 4.09 0 0 0-1.3 2.623l-.064.488 2.062.339c.004.45.183.88.5 1.2l-3.348 25.629-.315-.049c-.564-.077-1.133.097-1.556.477a3.97 3.97 0 0 0-1.222 2.178l-.661-.112a2.71 2.71 0 0 0-2.027.604c-.566.467-.917 1.146-.973 1.878a2.93 2.93 0 0 0 2.226 3.336l.965.161-1.318 10.02.092.155a10.46 10.46 0 0 1 1.176 4.325 1.97 1.97 0 0 0-1.287.493 4.14 4.14 0 0 0-1.293 2.625l-.063.493 2.06.333a1.73 1.73 0 0 0 .493 1.2l-3.354 25.631-.3-.049c-.562-.083-1.132.089-1.555.468a4.02 4.02 0 0 0-1.27 2.448l-.662-.113a2.41 2.41 0 0 0-1.948.56 2.93 2.93 0 0 0-1.03 1.931c-.106.76.067 1.533.487 2.175a2.61 2.61 0 0 0 1.736 1.154l.952.155-1.317 10.019.092.154a10.38 10.38 0 0 1 1.183 4.325c-1.224 0-2.348 1.326-2.582 3.117l-.066.5 2.06.335c.004.447.184.875.5 1.191l-3.355 25.631-.312-.052c-1.215-.2-2.4.983-2.777 2.668l-.664-.1a2.7 2.7 0 0 0-2.99 2.481 2.92 2.92 0 0 0 2.227 3.336l.954.154-1.312 10.021.088.158a10.38 10.38 0 0 1 1.181 4.323c-1.22 0-2.349 1.327-2.58 3.122l-.07.491 2.068.336c.005.45.184.88.5 1.2l-3.364 25.624-.3-.046c-.563-.081-1.133.092-1.556.473a3.81 3.81 0 0 0-1.2 2.133l-.682-.122a2.72 2.72 0 0 0-2.988 2.492c-.26 1.527.716 2.992 2.226 3.339l.958.159-1.308 10.029.078.148c.706 1.336 1.11 2.811 1.185 4.32-1.224 0-2.352 1.333-2.584 3.117l-.059.494 2.059.335a1.7 1.7 0 0 0 .5 1.2l-3.349 25.627-.313-.046c-1.219-.193-2.4.967-2.775 2.655l-.664-.1a2.69 2.69 0 0 0-2.99 2.475 3.19 3.19 0 0 0 .49 2.187 2.63 2.63 0 0 0 1.728 1.145l80.97 13.183.751-5.812-6.118-1c.073-1.737-.758-3.239-1.975-3.435l-.3-.036 3.361-25.631c.388-.211.673-.573.787-1l2.064.338.058-.491c.233-1.758-.483-3.372-1.625-3.787 1.331-3.193 4.646-5.09 8.073-4.62l.289.055a4.54 4.54 0 0 1 .519.178l1.861-14.334-6.061-.99c.054-.853-.162-1.701-.617-2.425a2.05 2.05 0 0 0-1.367-.952l-.3-.05 3.355-25.622a1.65 1.65 0 0 0 .787-.99l2.059.333.069-.5c.233-1.758-.49-3.364-1.631-3.785a7.62 7.62 0 0 1 8.078-4.6l.294.039c.165.027.3.128.463.165l1.859-14.319-6.01-.978a4.22 4.22 0 0 0-.6-2.489 2.08 2.08 0 0 0-1.376-.951l-.3-.055 3.346-25.648a1.56 1.56 0 0 0 .786-.984l2.064.342.066-.5c.16-1.011-.044-2.047-.577-2.921a2.18 2.18 0 0 0-1.052-.875c1.338-3.187 4.652-5.075 8.076-4.6l.281.044c.153.026.275.111.421.148l1.86-14.311-5.937-.965a4.26 4.26 0 0 0-.593-2.744 2.04 2.04 0 0 0-1.366-.954l-.315-.056 3.363-25.625a1.65 1.65 0 0 0 .8-.988l2.053.333.072-.493c.225-1.8-.474-3.375-1.631-3.791 1.338-3.188 4.649-5.081 8.075-4.617l.295.055c.123.026.229.1.353.126l1.861-14.3-5.9-.964c.076-1.76-.746-3.222-1.985-3.431l-.3-.047 3.364-25.631a1.56 1.56 0 0 0 .781-.99l2.059.335.067-.493c.233-1.761-.486-3.369-1.626-3.791 1.334-3.191 4.648-5.084 8.074-4.613l.286.047c.109.02.2.086.308.106l1.863-14.284-5.85-.958c.048-1.712-.769-3.186-1.98-3.377l-.312-.053 3.36-25.628c.389-.207.672-.567.781-.994l2.07.339.067-.5c.247-1.913-.632-3.656-1.947-3.873l-.132-.023a8.1 8.1 0 0 1 8.586-4.995l.284.042c.092.019.167.08.258.1l12.984-99.848zm3.2 108.822l-.177-.024c1.386-3.437 4.927-5.495 8.6-5l.284.049a8.79 8.79 0 0 1 6.956 7.522l-.171-.024c-1.347-.22-2.6 1.142-2.862 3.093l-.06.5 2.051.332c.004.45.183.88.5 1.2l-3.358 25.624-.3-.047c-.562-.077-1.129.096-1.552.474a3.95 3.95 0 0 0-1.219 2.139l-10.729-1.748c.049-1.717-.78-3.185-1.983-3.385l-.3-.047 3.352-25.625a1.6 1.6 0 0 0 .793-1l2.06.343.063-.494c.25-1.934-.618-3.67-1.946-3.882m7.59 60.147a1.77 1.77 0 0 0 .5 1.205l-3.36 25.624-.312-.053c-1.21-.2-2.4.977-2.768 2.655l-10.717-1.741a4.23 4.23 0 0 0-.613-2.472 2.03 2.03 0 0 0-1.376-.952l-.3-.057 3.36-25.63a1.57 1.57 0 0 0 .784-.984l2.067.335.065-.5c.226-1.784-.5-3.413-1.668-3.813a7.64 7.64 0 0 1 8.079-4.6l.278.046c3.452.692 6.085 3.498 6.557 6.987-1.229 0-2.331 1.3-2.569 3.123l-.068.488zm-7.045 53.737c.002.45.181.882.5 1.2l-3.362 25.635-.308-.06c-1.281-.2-2.515 1.1-2.821 2.926l-10.7-1.74c.178-1.86-.674-3.5-1.957-3.7l-.312-.058 3.356-25.63a1.52 1.52 0 0 0 .795-.991l2.066.342.059-.488a4.29 4.29 0 0 0-.566-2.928 2.17 2.17 0 0 0-1.1-.878c1.339-3.188 4.654-5.078 8.079-4.607l.29.046c3.449.696 6.078 3.503 6.548 6.99-1.234 0-2.323 1.306-2.573 3.122l-.06.484zm-7.079 54.017c0 .452.18.885.5 1.205l-3.359 25.631-.309-.056c-1.221-.2-2.4.971-2.772 2.666l-10.725-1.741a4.11 4.11 0 0 0-.614-2.485 2.08 2.08 0 0 0-1.37-.958l-.309-.05 3.361-25.624c.386-.209.671-.565.79-.988l2.05.332.069-.494c.237-1.777-.5-3.415-1.664-3.805a7.63 7.63 0 0 1 8.075-4.6l.28.047a8.24 8.24 0 0 1 6.558 6.987c-1.227 0-2.327 1.3-2.573 3.116l-.056.487zm-7.054 53.768c.005.447.185.874.5 1.191L66.72 357.31l-.306-.046c-1.205-.207-2.377.939-2.768 2.606l-10.725-1.751c.05-1.715-.78-3.185-1.984-3.375l-.308-.055 3.362-25.631a1.56 1.56 0 0 0 .787-.983l2.062.329.066-.483a4.34 4.34 0 0 0-.573-2.928 2.1 2.1 0 0 0-1.1-.878 7.61 7.61 0 0 1 8.075-4.6l.292.04a8.25 8.25 0 0 1 6.553 6.986c-1.229 0-2.329 1.3-2.567 3.112l-.062.5zm-28.592-7.994c-.3-.497-.797-.844-1.367-.955l-.074-.016c1.3-3.244 3.921-5.251 6.614-4.81l.243.03c2.685.44 4.681 3.2 5.085 6.722-1.325-.165-2.55 1.178-2.8 3.11l-.067.5 2.06.335c.005.45.184.88.5 1.2l-3.354 25.627-.313-.046a1.88 1.88 0 0 0-1.55.481 3.76 3.76 0 0 0-1.207 2.123l-7.179-1.169a4.1 4.1 0 0 0-.617-2.422 2.05 2.05 0 0 0-1.369-.96l-.3-.043 3.354-25.637c.387-.205.673-.56.788-.983l2.054.333.066-.5a4.33 4.33 0 0 0-.567-2.919m7.047-53.763a2.07 2.07 0 0 0-1.369-.954l-.074-.01c1.3-3.249 3.924-5.255 6.609-4.815l.243.036c2.681.438 4.681 3.2 5.092 6.723-1.3-.171-2.552 1.2-2.807 3.112l-.063.488 2.054.335c.013.448.191.876.5 1.2l-3.356 25.634-.3-.056c-.562-.077-1.13.096-1.553.474a3.92 3.92 0 0 0-1.221 2.191l-7.168-1.166c.07-1.738-.759-3.235-1.974-3.436l-.313-.055 3.369-25.624c.381-.214.664-.568.787-.988l2.056.332.071-.487a4.39 4.39 0 0 0-.58-2.929m5.713-54.958l-.072-.019c1.294-3.248 3.916-5.246 6.6-4.815l.24.042c2.687.437 4.683 3.192 5.094 6.726-1.3-.172-2.559 1.2-2.8 3.1l-.067.494 2.066.336a1.71 1.71 0 0 0 .5 1.2l-3.356 25.63-.313-.047a1.87 1.87 0 0 0-1.55.474c-.697.638-1.148 1.501-1.271 2.438l-7.141-1.161a4.23 4.23 0 0 0-.591-2.739 2 2 0 0 0-1.369-.954l-.306-.059 3.36-25.622a1.6 1.6 0 0 0 .8-.991l2.056.343.069-.5c.251-1.925-.631-3.666-1.944-3.876m8.408-52.8c-.303-.493-.799-.838-1.367-.95l-.074-.01c1.3-3.255 3.923-5.252 6.612-4.81l.231.034c2.691.441 4.688 3.191 5.1 6.725-.544-.056-1.086.116-1.5.473a4.12 4.12 0 0 0-1.3 2.63l-.066.487 2.057.338a1.72 1.72 0 0 0 .5 1.2l-3.36 25.625-.309-.045c-1.214-.194-2.4.973-2.771 2.653l-7.172-1.166c.076-1.737-.754-3.228-1.981-3.422l-.3-.057 3.359-25.621a1.59 1.59 0 0 0 .786-1l2.061.34.06-.5a4.32 4.32 0 0 0-.569-2.931m5.667-54.641l-.521-.095c1.355-3.489 4.185-5.71 7.128-5.225l.237.037c2.945.481 5.084 3.507 5.488 7.277l-.413-.06c-1.317-.213-2.594 1.172-2.843 3.1l-.075.49 2.061.335a1.76 1.76 0 0 0 .507 1.205l-3.367 25.62-.314-.049c-.559-.072-1.122.102-1.543.477-.624.56-1.049 1.309-1.209 2.132l-7.181-1.168c.056-1.714-.77-3.189-1.981-3.377l-.3-.056 3.368-25.624c.382-.211.664-.567.781-.988l2.06.336.068-.5c.25-1.951-.608-3.655-1.95-3.867m-13.975 2.9c.389-.204.673-.562.785-.987l2.061.335.065-.5c.162-1.011-.041-2.047-.574-2.922a2.06 2.06 0 0 0-1.36-.952l-.8-.129c1.19-3.52 3.564-5.811 5.966-5.421l.2.024c2.389.4 4.071 3.347 4.308 7.11l-.1-.019c-1.32-.214-2.6 1.166-2.847 3.092l-.066.49 2.056.339c.005.452.189.884.512 1.2l-3.38 25.634-.3-.062c-1.218-.187-2.386.954-2.772 2.614l-4.845-.784a4.1 4.1 0 0 0-.609-2.429 2.05 2.05 0 0 0-1.372-.952l-.3-.047zm-7.035 53.7a1.57 1.57 0 0 0 .781-.993l2.059.338.064-.487c.26-1.928-.614-3.665-1.931-3.88l-.337-.056c1.137-3.241 3.325-5.355 5.44-5.008l.189.034c2.163.352 3.7 3.047 3.934 6.575-1.186.053-2.272 1.355-2.5 3.11l-.068.5 2.056.328a1.73 1.73 0 0 0 .506 1.2l-3.364 25.627-.3-.049c-1.237-.2-2.4.942-2.779 2.659l-4.828-.79a4.12 4.12 0 0 0-.616-2.472c-.297-.499-.794-.847-1.365-.954l-.3-.056zm-7.047 53.741c.385-.207.669-.563.786-.984l2.063.336.058-.488c.256-1.968-.591-3.668-1.928-3.884l-.343-.065c1.13-3.268 3.282-5.35 5.445-5l.189.039c2.12.34 3.679 3.084 3.929 6.569-1.188.066-2.269 1.362-2.5 3.11l-.067.5 2.064.336a1.72 1.72 0 0 0 .494 1.2l-3.346 25.625-.315-.043c-.56-.084-1.127.089-1.545.471a3.97 3.97 0 0 0-1.284 2.448l-4.8-.78c.184-1.852-.67-3.492-1.956-3.7l-.3-.062zm-7.092 54.011c.388-.204.674-.56.788-.984l2.06.336.069-.5c.245-1.919-.619-3.66-1.938-3.879l-.346-.049c1.134-3.282 3.3-5.36 5.451-5l.189.03c2.166.349 3.7 3.048 3.94 6.569-1.188.056-2.277 1.365-2.505 3.117l-.071.49 2.071.333c.003.449.18.879.493 1.2l-3.363 25.622-.3-.043c-1.216-.2-2.4.974-2.78 2.668l-4.823-.789c.081-1.737-.755-3.241-1.972-3.436l-.313-.055zm-7.039 53.767c.382-.214.663-.57.783-.991l2.067.336.068-.5c.249-1.955-.607-3.659-1.958-3.886l-.334-.055c1.127-3.267 3.294-5.351 5.451-5l.19.039c2.16.349 3.7 3.044 3.934 6.568-1.189.056-2.272 1.357-2.5 3.112l-.066.5 2.053.329a1.79 1.79 0 0 0 .509 1.2l-3.36 25.631-.3-.055c-1.208-.2-2.374.948-2.775 2.606l-4.84-.792c.061-1.712-.769-3.178-1.965-3.371l-.318-.042zm-.507 80.931c-1.242-.2-2.395.948-2.783 2.65l-4.816-.784a4.19 4.19 0 0 0-.62-2.471 2.07 2.07 0 0 0-1.362-.954l-.307-.049 3.35-25.624a1.63 1.63 0 0 0 .8-.991l2.055.336.066-.5a4.35 4.35 0 0 0-.573-2.935 2.09 2.09 0 0 0-1.365-.951l-.339-.049c1.132-3.242 3.333-5.345 5.447-5l.182.029c2.165.355 3.705 3.05 3.944 6.571a2.01 2.01 0 0 0-1.2.5 4.01 4.01 0 0 0-1.295 2.616l-.069.506 2.063.323c-.005.451.173.884.494 1.2l-3.362 25.637zm15.34 2.5c-1.218-.2-2.4.964-2.775 2.652l-7.169-1.168c.066-.869-.147-1.737-.606-2.478-.305-.492-.8-.836-1.367-.95l-.307-.043 3.36-25.632a1.6 1.6 0 0 0 .79-.988l2.056.328.066-.486a4.31 4.31 0 0 0-.576-2.93c-.304-.496-.801-.842-1.371-.957l-.066-.006c1.3-3.251 3.916-5.253 6.6-4.811l.241.037c2.684.44 4.687 3.189 5.1 6.723-1.3-.172-2.563 1.2-2.807 3.1l-.06.5 2.052.336a1.71 1.71 0 0 0 .5 1.191l-3.355 25.626zm18.9 3.074a1.91 1.91 0 0 0-1.553.483 3.84 3.84 0 0 0-1.219 2.175l-10.722-1.742a4.17 4.17 0 0 0-.608-2.481c-.306-.497-.805-.843-1.378-.954l-.306-.043 3.368-25.635a1.63 1.63 0 0 0 .784-.975l2.059.326.063-.5a4.3 4.3 0 0 0-.57-2.922c-.26-.405-.647-.714-1.1-.878 1.341-3.188 4.658-5.075 8.084-4.6l.281.047a8.22 8.22 0 0 1 6.551 6.979c-1.21.019-2.321 1.337-2.566 3.116l-.064.49 2.065.342c.007.449.186.879.5 1.2l-3.363 25.628zm21.909-23.723a1.73 1.73 0 0 0 .492 1.2l-3.353 25.622-.3-.049a1.94 1.94 0 0 0-1.559.478c-.635.573-1.064 1.34-1.22 2.182l-10.563-1.72a4.16 4.16 0 0 0-.615-2.474c-.298-.498-.795-.846-1.366-.954l-.3-.05 3.355-25.63a1.61 1.61 0 0 0 .794-.994l2.053.339.063-.5c.17-1.01-.032-2.047-.57-2.919-.26-.422-.663-.737-1.136-.888a7.61 7.61 0 0 1 8.071-4.6l.29.052c3.446.684 6.078 3.482 6.549 6.964a1.93 1.93 0 0 0-1.381.481c-.743.683-1.206 1.617-1.3 2.622l-.062.5zm7.026-53.7a1.72 1.72 0 0 0 .516 1.2l-3.361 25.621-.3-.045c-1.212-.194-2.383.941-2.767 2.612l-10.57-1.725c.05-1.709-.774-3.186-1.978-3.382l-.311-.053 3.353-25.624c.394-.202.684-.561.8-.988l2.06.336.068-.5c.236-1.8-.522-3.441-1.7-3.823a7.6 7.6 0 0 1 8.066-4.587l.293.042a8.26 8.26 0 0 1 6.545 6.973 1.98 1.98 0 0 0-1.387.487c-.74.686-1.202 1.62-1.3 2.625l-.06.487zm7.053-53.762a1.71 1.71 0 0 0 .508 1.2l-3.363 25.624-.312-.045c-.563-.084-1.134.093-1.551.48a3.86 3.86 0 0 0-1.222 2.188l-10.561-1.721c.078-1.745-.758-3.241-1.981-3.449l-.3-.045 3.362-25.622c.387-.211.673-.568.794-.991l2.056.329.06-.488c.242-1.837-.5-3.459-1.7-3.833a7.63 7.63 0 0 1 8.066-4.583l.281.046c3.448.692 6.079 3.494 6.553 6.979-.505-.024-1 .148-1.382.48a4.06 4.06 0 0 0-1.3 2.63l-.068.488zm7.078-54.02a1.8 1.8 0 0 0 .5 1.207l-3.349 25.624-.319-.046c-1.276-.211-2.51 1.092-2.822 2.92l-10.53-1.712c.178-1.878-.653-3.488-1.956-3.7l-.3-.049 3.356-25.624a1.59 1.59 0 0 0 .785-1l2.068.336.063-.49c.237-1.809-.521-3.452-1.7-3.826a7.61 7.61 0 0 1 8.067-4.59l.286.043a8.25 8.25 0 0 1 6.551 6.98 1.92 1.92 0 0 0-1.381.483 4.09 4.09 0 0 0-1.3 2.62l-.061.5zm7.046-53.74c0 .452.183.885.507 1.2l-3.363 25.632-.309-.047c-1.222-.2-2.4.965-2.767 2.649l-10.561-1.715c.067-1.742-.766-3.232-1.99-3.432l-.3-.047 3.353-25.628c.392-.202.682-.559.8-.984l2.051.327.074-.493c.24-1.809-.522-3.448-1.7-3.826 1.346-3.175 4.648-5.059 8.066-4.6l.281.056a8.25 8.25 0 0 1 6.557 6.967c-1.258-.07-2.441 1.277-2.689 3.112l-.06.5zm7.9-57.623a1.93 1.93 0 0 0-1.557.477 4.11 4.11 0 0 0-1.3 2.615l-.061.5 2.062.338c.004.45.183.881.5 1.2l-3.354 25.617-.311-.046c-1.2-.191-2.38.952-2.762 2.619l-10.579-1.722c.063-1.722-.767-3.191-1.968-3.392l-.319-.049 3.365-25.624a1.63 1.63 0 0 0 .791-.993l2.054.338.066-.5a4.33 4.33 0 0 0-.569-2.922c-.302-.496-.799-.841-1.369-.952l-.222-.034c1.383-3.431 4.916-5.487 8.582-4.995l.3.045a8.78 8.78 0 0 1 6.951 7.522zm1.29-52.922l-4.196 32.02-32.642-5.309 4.2-32.024c1.314-10.046 9.692-16.993 18.7-15.529s15.25 10.8 13.932 20.847M77.909 431.925c-2.462 2.043-4.052 4.947-4.448 8.122l-.4 3.093-3.478-.569.412-3.1a13.43 13.43 0 0 0-2.176-9.185c-2.017-3.047-5.208-5.121-8.812-5.726a12.44 12.44 0 0 0-14.356 10.8l-.407 3.083-3.854-.622.405-3.093a14.39 14.39 0 0 0-2.192-9.876 10.66 10.66 0 0 0-7.134-4.775c-2.895-.455-5.844.39-8.058 2.31-2.599 2.229-4.255 5.361-4.634 8.763l-.4 3.083-3.6-.586.411-3.09c.688-5.25-1.082-10.324-4.429-12.873l-10.757 82h1.009c.618-2.907 2.5-4.938 4.441-4.615l.6.1 7.217-51.212c.105.041.213.071.324.09l3.826.621a1.54 1.54 0 0 0 .333.017l-6.232 51.372.6.106c1.4.217 2.469 1.636 2.885 3.524H31.06l7.5-51.611c.106.039.221.061.338.095l3.814.621a1.62 1.62 0 0 0 .344.013l-6.185 50.883h24.134l6.6-46.875a1.89 1.89 0 0 0 .33.088l3.814.619a1.76 1.76 0 0 0 .348.016l-5.6 46.152h12.649l9.145-70.315c-.159-.034-.306-.1-.466-.128-3.538-.585-7.155.393-9.916 2.681"/></g></g></g></g></g></g></g></svg>