<svg xmlns="http://www.w3.org/2000/svg" width="96.186" height="43.352" viewBox="0 0 96.186 43.352">
  <g id="Group_40415" data-name="Group 40415" transform="translate(0 0)">
    <path id="Path_10744" data-name="Path 10744" d="M666.806,2358.529A6.171,6.171,0,0,1,672.85,2363l.315,1.056,3.253-3.252-.2-.417a10.468,10.468,0,0,0-19.869,4.656,10.368,10.368,0,0,0,5.737,9.461l.421.206,3.149-3.149-.993-.343a6.357,6.357,0,0,1-4.2-6.175A6.288,6.288,0,0,1,666.806,2358.529Z" transform="translate(-600.827 -2342.718)" fill="#fff"/>
    <path id="Path_10745" data-name="Path 10745" d="M688.777,2354.52l-.42-.206-3.15,3.149.993.343a6.36,6.36,0,0,1,4.2,6.175,6.289,6.289,0,0,1-6.339,6.518,6.174,6.174,0,0,1-6.045-4.476l-.315-1.056-3.25,3.252.194.417a10.468,10.468,0,0,0,19.869-4.655A10.367,10.367,0,0,0,688.777,2354.52Z" transform="translate(-607.224 -2342.642)" fill="#fff"/>
    <path id="Path_10746" data-name="Path 10746" d="M582.035,2358.5l-3.962-1.933c-2.087-.97-2.087-1.6-2.087-2.218,0-1.32,1.225-2.242,2.977-2.242,1.787,0,3.116.941,3.308,2.341l.11.8H587l-.183-1.428c-.481-3.747-3.579-6.167-7.892-6.167-4.407,0-7.606,2.864-7.606,6.811,0,2.885,1.528,4.857,4.947,6.39l4.07,1.934c1.777.817,2.318,1.488,2.318,2.873,0,1.542-1.4,2.538-3.571,2.538a3.62,3.62,0,0,1-3.868-3.052l-.133-.824h-4.215l-.393.05.2,1.452c.6,4.287,3.752,6.846,8.425,6.846,5.635,0,8.2-3.675,8.2-7.09C587.3,2361.411,584.771,2359.711,582.035,2358.5Z" transform="translate(-570.472 -2340.288)" fill="#fff"/>
    <path id="Path_10747" data-name="Path 10747" d="M612.958,2367.291c0,2.792-1.667,5.681-4.458,5.681a3.53,3.53,0,0,1-3.612-3.741v-10.775h-4.153v10.758a7.494,7.494,0,0,0,7.7,7.8,7.255,7.255,0,0,0,4.637-1.635v1.113h4.022v-18.033h-4.136Z" transform="translate(-581.169 -2344.106)" fill="#fff"/>
    <path id="Path_10748" data-name="Path 10748" d="M715.117,2368.854l-.2-.081c-2.1-.835-3.127-2.621-3.136-5.461l-.008-1.41.027-25.64-4.195,4.153.1,22.779c0,4.758,1.823,7.7,5.773,9.267l1.65.5Z" transform="translate(-618.942 -2336.262)" fill="#fff"/>
    <path id="Path_10749" data-name="Path 10749" d="M641.4,2367.291c0,2.792-1.667,5.681-4.458,5.681a3.53,3.53,0,0,1-3.612-3.741v-10.775h-4.153v10.758a7.494,7.494,0,0,0,7.7,7.8,7.258,7.258,0,0,0,4.638-1.636v12.083l4.021-4.023v-24.98H641.4Z" transform="translate(-591.222 -2344.106)" fill="#fff"/>
  </g>
</svg>
