<svg xmlns="http://www.w3.org/2000/svg" xmlns:xlink="http://www.w3.org/1999/xlink" width="73" height="73" viewBox="0 0 73 73">
  <defs>
    <clipPath id="clip-path">
      <rect id="Rectangle_21974" data-name="Rectangle 21974" width="73" height="73" transform="translate(347 761)" fill="none" stroke="#707070" stroke-width="1"/>
    </clipPath>
  </defs>
  <g id="Mask_Group_7352" data-name="Mask Group 7352" transform="translate(-347 -761)" clip-path="url(#clip-path)">
    <g id="Group_39948" data-name="Group 39948" transform="translate(364.638 769.082)">
      <path id="Union_1" data-name="Union 1" d="M7104.026,896.754v-.021h-6.4a7.46,7.46,0,0,1-7.263-7.438V847.377a7.476,7.476,0,0,1,7.263-7.458v.367a.751.751,0,0,1,.007-.107v-.259h22.975a7.463,7.463,0,0,1,7.479,7.458v41.918a7.465,7.465,0,0,1-7.479,7.46Zm2.356-42.072.974-.973v-5.943h-.995v2.1c0,.669-.39,1.361-1.061,1.361a.831.831,0,0,1-.864-.887v-2.571h-.995v2.549a1.807,1.807,0,0,0,1.837,1.882,1.7,1.7,0,0,0,1.1-.411Zm9.167-9.36.021,5.447a2.107,2.107,0,0,0,1.361,2.206l.412.107v-.973l-.064-.021a1.227,1.227,0,0,1-.735-1.3v-6.463Zm-16.5,4.993a1.817,1.817,0,0,0,2.941,1.492v.259h.972v-4.3h-.995v2.1c0,.669-.388,1.361-1.059,1.361a.831.831,0,0,1-.864-.887v-2.571h-.995Zm-4.6.109a1.836,1.836,0,0,0,2.011,1.642,1.748,1.748,0,0,0,1.946-1.685,1.777,1.777,0,0,0-1.254-1.708l-.952-.454c-.5-.238-.5-.388-.5-.519,0-.324.3-.54.714-.54a.735.735,0,0,1,.8.562l.021.2h1.1l-.043-.347a1.74,1.74,0,0,0-1.88-1.469,1.66,1.66,0,0,0-1.816,1.621c0,.692.367,1.147,1.167,1.513l.973.476c.433.195.562.345.562.671,0,.367-.346.6-.864.6a.83.83,0,0,1-.909-.714l-.043-.193h-1.1Zm14.592-3.005a2.49,2.49,0,0,0-1.4,2.249,2.453,2.453,0,0,0,1.361,2.249l.107.043.758-.735-.24-.086a1.566,1.566,0,0,1,.433-3.027h.064a1.466,1.466,0,0,1,1.449,1.059l.064.259.778-.778-.043-.109a2.479,2.479,0,0,0-2.222-1.39A2.448,2.448,0,0,0,7109.041,847.419Zm1.384,3.027.043.086a2.493,2.493,0,0,0,3.351,1.147,2.528,2.528,0,0,0,.021-4.5l-.085-.064-.757.757.238.086a1.57,1.57,0,0,1-.454,3.027h-.064a1.506,1.506,0,0,1-1.449-1.081l-.064-.238Z" transform="translate(-7090.362 -839.918)" fill="#373464" stroke="rgba(0,0,0,0)" stroke-miterlimit="10" stroke-width="1"/>
    </g>
  </g>
</svg>
