<svg xmlns="http://www.w3.org/2000/svg" xmlns:xlink="http://www.w3.org/1999/xlink" width="73" height="73" viewBox="0 0 73 73">
  <defs>
    <clipPath id="clip-path">
      <rect id="Rectangle_21955" data-name="Rectangle 21955" width="73" height="73" transform="translate(344 760)" fill="none" stroke="#707070" stroke-width="1"/>
    </clipPath>
    <clipPath id="clip-path-2">
      <rect id="Rectangle_21837" data-name="Rectangle 21837" width="37.86" height="57.05" transform="translate(0 0)" fill="#373464"/>
    </clipPath>
  </defs>
  <g id="Mask_Group_7319" data-name="Mask Group 7319" transform="translate(-344 -760)" clip-path="url(#clip-path)">
    <g id="Group_39472" data-name="Group 39472" transform="translate(362 768)">
      <g id="Group_39471" data-name="Group 39471" clip-path="url(#clip-path-2)">
        <path id="Path_42591" data-name="Path 42591" d="M7.354.009A7.489,7.489,0,0,0,0,7.491V49.548a7.485,7.485,0,0,0,7.277,7.475V.383A1.045,1.045,0,0,1,7.354.009" fill="#373464"/>
        <path id="Path_42592" data-name="Path 42592" d="M37.85,7.31A7.482,7.482,0,0,0,30.36,0H13.64a1,1,0,0,1,.08.38V57.05H30.36a7.488,7.488,0,0,0,7.49-7.31,1.21,1.21,0,0,0,.01-.19V7.5a1.21,1.21,0,0,0-.01-.19M30.14,52.94a3.273,3.273,0,0,1-2.51-1.16A3.24,3.24,0,0,1,25,53.09a3.31,3.31,0,1,1,0-6.62,3.263,3.263,0,0,1,2.51,1.15,3.307,3.307,0,0,1,5.94,2,3.316,3.316,0,0,1-3.31,3.32" fill="#373464"/>
      </g>
    </g>
  </g>
</svg>
