<svg xmlns="http://www.w3.org/2000/svg" xmlns:xlink="http://www.w3.org/1999/xlink" width="73" height="73" viewBox="0 0 73 73">
  <defs>
    <clipPath id="clip-path">
      <rect id="Rectangle_21974" data-name="Rectangle 21974" width="73" height="73" transform="translate(347 761)" fill="none" stroke="#707070" stroke-width="1"/>
    </clipPath>
    <clipPath id="clip-path-2">
      <rect id="Rectangle_21947" data-name="Rectangle 21947" width="37.725" height="56.836" fill="#373464"/>
    </clipPath>
  </defs>
  <g id="Mask_Group_7352" data-name="Mask Group 7352" transform="translate(-347 -761)" clip-path="url(#clip-path)">
    <g id="Group_39948" data-name="Group 39948" transform="translate(364.638 769.082)">
      <g id="Group_39967" data-name="Group 39967" transform="translate(0 0)" clip-path="url(#clip-path-2)">
        <path id="Path_43525" data-name="Path 43525" d="M30.245,0H7.329a1.2,1.2,0,0,0-.065.368V0A7.477,7.477,0,0,0,0,7.458V49.377a7.458,7.458,0,0,0,7.264,7.437h6.4v.022H30.245a7.464,7.464,0,0,0,7.48-7.458V7.458A7.464,7.464,0,0,0,30.245,0M26.18,4.41v6.464a1.229,1.229,0,0,0,.735,1.3l.065.022v.973l-.411-.108a2.1,2.1,0,0,1-1.362-2.205L25.186,5.4ZM6.1,12.15a1.836,1.836,0,0,1-2.011-1.643l-.065-.346h1.1l.043.195a.828.828,0,0,0,.908.713c.519,0,.865-.238.865-.605,0-.324-.13-.476-.562-.67L5.4,9.318C4.6,8.95,4.237,8.5,4.237,7.8A1.659,1.659,0,0,1,6.053,6.183a1.74,1.74,0,0,1,1.881,1.47L7.977,8h-1.1L6.853,7.8a.734.734,0,0,0-.8-.562c-.411,0-.713.216-.713.54,0,.13,0,.281.5.519l.951.454a1.775,1.775,0,0,1,1.254,1.708A1.748,1.748,0,0,1,6.1,12.15m6.507,0h-.973V11.89A1.817,1.817,0,0,1,8.691,10.4V7.848h.994V10.42a.831.831,0,0,0,.865.886c.67,0,1.059-.692,1.059-1.362v-2.1H12.6Zm4.389,1.643-.973.973v-2.9a1.7,1.7,0,0,1-1.1.411A1.807,1.807,0,0,1,13.079,10.4V7.848h.994V10.42a.831.831,0,0,0,.865.886c.67,0,1.059-.692,1.059-1.362v-2.1h.994Zm2.7-5.6a1.565,1.565,0,0,0-.432,3.027l.238.086-.757.735L18.635,12A2.45,2.45,0,0,1,17.273,9.75a2.5,2.5,0,0,1,4.734-1.124l.043.108-.778.778-.065-.259a1.467,1.467,0,0,0-1.448-1.059Zm.411,2.421-.043-.086.778-.778.065.238a1.5,1.5,0,0,0,1.448,1.081h.065a1.57,1.57,0,0,0,.454-3.027l-.238-.086.757-.757.086.065A2.413,2.413,0,0,1,24.84,9.512a2.432,2.432,0,0,1-1.384,2.248,2.492,2.492,0,0,1-3.351-1.146M29.1,52.9a3.189,3.189,0,0,1-2.075-.757,3.309,3.309,0,0,1-4.216-5.1,3.351,3.351,0,0,1,4.216,0A3.278,3.278,0,1,1,29.1,52.9" transform="translate(0 0)" fill="#373464"/>
        <path id="Path_43526" data-name="Path 43526" d="M3.428,0a1.2,1.2,0,0,0-.065.368V0Z" transform="translate(3.907 0)" fill="#373464"/>
      </g>
    </g>
  </g>
</svg>
