<svg xmlns="http://www.w3.org/2000/svg" xmlns:xlink="http://www.w3.org/1999/xlink" width="359" height="306" viewBox="0 0 359 306">
  <defs>
    <clipPath id="clip-path">
      <rect id="Rectangle_21167" data-name="Rectangle 21167" width="40.232" height="40.223" fill="none"/>
    </clipPath>
  </defs>
  <g id="Group_39687" data-name="Group 39687" transform="translate(-17 -8053.001)">
    <rect id="Rectangle_21813" data-name="Rectangle 21813" width="359" height="306" rx="20" transform="translate(376 8359.001) rotate(180)" fill="#f0f0f3"/>
    <g id="Group_39533" data-name="Group 39533" transform="translate(6706.66 1421.972)">
      <g id="Group_39048" data-name="Group 39048" transform="translate(-6635.218 6685.204)">
        <rect id="Rectangle_21165" data-name="Rectangle 21165" width="264.782" height="184.474" rx="12" transform="translate(0 0)" fill="#c4d9e4"/>
        <rect id="Rectangle_21164" data-name="Rectangle 21164" width="251.969" height="172.881" rx="12" transform="translate(6.104 5.491)" fill="#fff"/>
      </g>
      <path id="_name" data-name="✏️name" d="M5.282-11.841,3.2-7.869v2.407H2.372V-7.869L.285-11.841h.924L2.783-8.61l1.574-3.231ZM8.348-5.38A2.568,2.568,0,0,1,7.071-5.7a2.28,2.28,0,0,1-.9-.911,2.792,2.792,0,0,1-.325-1.368,2.711,2.711,0,0,1,.334-1.359,2.3,2.3,0,0,1,.911-.906,2.642,2.642,0,0,1,1.29-.316,2.642,2.642,0,0,1,1.29.316,2.31,2.31,0,0,1,.911.9,2.7,2.7,0,0,1,.334,1.364,2.672,2.672,0,0,1-.343,1.368,2.379,2.379,0,0,1-.929.911A2.664,2.664,0,0,1,8.348-5.38Zm0-.732a1.759,1.759,0,0,0,.842-.21,1.6,1.6,0,0,0,.636-.631,2.023,2.023,0,0,0,.243-1.025A2.054,2.054,0,0,0,9.83-9a1.558,1.558,0,0,0-.622-.627,1.736,1.736,0,0,0-.833-.206,1.728,1.728,0,0,0-.837.206A1.51,1.51,0,0,0,6.929-9,2.121,2.121,0,0,0,6.7-7.979a2.178,2.178,0,0,0,.224,1.034,1.49,1.49,0,0,0,.6.627A1.684,1.684,0,0,0,8.348-6.112Zm8.118-4.365v5.015h-.833V-6.2a1.621,1.621,0,0,1-.664.6,2.05,2.05,0,0,1-.938.215,2.248,2.248,0,0,1-1.052-.243,1.763,1.763,0,0,1-.737-.728,2.4,2.4,0,0,1-.27-1.181v-2.938H12.8V-7.65a1.6,1.6,0,0,0,.375,1.139,1.341,1.341,0,0,0,1.025.4,1.369,1.369,0,0,0,1.052-.412,1.7,1.7,0,0,0,.384-1.2v-2.755Zm2.242.815a1.6,1.6,0,0,1,.627-.668,1.938,1.938,0,0,1,.993-.238v.86h-.22q-1.4,0-1.4,1.519v2.727h-.833v-5.015h.833Zm4.713,1.684a2.837,2.837,0,0,1,.311-1.359,2.239,2.239,0,0,1,.865-.9,2.485,2.485,0,0,1,1.268-.32,2.474,2.474,0,0,1,1.524.448,2.117,2.117,0,0,1,.792,1.245h-.9a1.288,1.288,0,0,0-.5-.723,1.539,1.539,0,0,0-.92-.265,1.475,1.475,0,0,0-1.153.49,2.006,2.006,0,0,0-.439,1.386,2.038,2.038,0,0,0,.439,1.4,1.469,1.469,0,0,0,1.153.494,1.558,1.558,0,0,0,.915-.256,1.3,1.3,0,0,0,.5-.732h.9a2.206,2.206,0,0,1-.805,1.231,2.412,2.412,0,0,1-1.51.462A2.485,2.485,0,0,1,24.6-5.7a2.232,2.232,0,0,1-.865-.906A2.885,2.885,0,0,1,23.421-7.979Zm5.555-.009a2.817,2.817,0,0,1,.311-1.35,2.258,2.258,0,0,1,.856-.9,2.347,2.347,0,0,1,1.213-.32,2.225,2.225,0,0,1,1.144.284,1.89,1.89,0,0,1,.723.714v-.915h.842v5.015h-.842V-6.4a1.962,1.962,0,0,1-.737.728,2.2,2.2,0,0,1-1.139.288,2.273,2.273,0,0,1-1.208-.329,2.311,2.311,0,0,1-.851-.924A2.879,2.879,0,0,1,28.976-7.988Zm4.246.009a2.039,2.039,0,0,0-.229-.988,1.616,1.616,0,0,0-.618-.645,1.683,1.683,0,0,0-.856-.224,1.685,1.685,0,0,0-.851.22,1.593,1.593,0,0,0-.613.641,2.039,2.039,0,0,0-.229.988,2.086,2.086,0,0,0,.229,1,1.619,1.619,0,0,0,.613.65,1.658,1.658,0,0,0,.851.224,1.683,1.683,0,0,0,.856-.224,1.609,1.609,0,0,0,.618-.65A2.066,2.066,0,0,0,33.222-7.979Zm3.084-1.684a1.6,1.6,0,0,1,.627-.668,1.938,1.938,0,0,1,.993-.238v.86h-.22q-1.4,0-1.4,1.519v2.727h-.833v-5.015h.833Zm2.27,1.675a2.817,2.817,0,0,1,.311-1.35,2.258,2.258,0,0,1,.856-.9,2.364,2.364,0,0,1,1.222-.32,2.268,2.268,0,0,1,1.089.27,1.948,1.948,0,0,1,.769.709v-2.654h.842v6.772h-.842V-6.4a1.949,1.949,0,0,1-.732.737,2.179,2.179,0,0,1-1.135.288,2.3,2.3,0,0,1-1.213-.329,2.3,2.3,0,0,1-.856-.924A2.879,2.879,0,0,1,38.576-7.988Zm4.246.009a2.039,2.039,0,0,0-.229-.988,1.616,1.616,0,0,0-.618-.645,1.683,1.683,0,0,0-.856-.224,1.685,1.685,0,0,0-.851.22,1.593,1.593,0,0,0-.613.641,2.039,2.039,0,0,0-.229.988,2.086,2.086,0,0,0,.229,1,1.619,1.619,0,0,0,.613.65,1.658,1.658,0,0,0,.851.224,1.683,1.683,0,0,0,.856-.224,1.609,1.609,0,0,0,.618-.65A2.066,2.066,0,0,0,42.823-7.979Zm5.125-3.313a.548.548,0,0,1-.4-.165.548.548,0,0,1-.165-.4.548.548,0,0,1,.165-.4.548.548,0,0,1,.4-.165.522.522,0,0,1,.389.165.556.556,0,0,1,.16.4.556.556,0,0,1-.16.4A.522.522,0,0,1,47.948-11.292Zm.4.815v5.015h-.833v-5.015Zm3.194,5.1a2.594,2.594,0,0,1-1.034-.2,1.744,1.744,0,0,1-.723-.549,1.461,1.461,0,0,1-.293-.81h.86a.844.844,0,0,0,.352.613,1.341,1.341,0,0,0,.828.238,1.205,1.205,0,0,0,.75-.21.643.643,0,0,0,.275-.531.523.523,0,0,0-.293-.49,4.106,4.106,0,0,0-.906-.316,6.659,6.659,0,0,1-.911-.3,1.616,1.616,0,0,1-.6-.448,1.17,1.17,0,0,1-.252-.782,1.186,1.186,0,0,1,.229-.7,1.551,1.551,0,0,1,.65-.508,2.338,2.338,0,0,1,.961-.188,2.052,2.052,0,0,1,1.345.421,1.517,1.517,0,0,1,.549,1.153H52.5a.861.861,0,0,0-.316-.631,1.177,1.177,0,0,0-.773-.238,1.193,1.193,0,0,0-.714.192.594.594,0,0,0-.265.5.552.552,0,0,0,.16.407,1.17,1.17,0,0,0,.4.256,6.938,6.938,0,0,0,.673.215,7.245,7.245,0,0,1,.879.288,1.536,1.536,0,0,1,.581.426,1.138,1.138,0,0,1,.252.741,1.269,1.269,0,0,1-.229.741,1.526,1.526,0,0,1-.645.517A2.306,2.306,0,0,1,51.544-5.38Zm5.134-2.608a2.817,2.817,0,0,1,.311-1.35,2.258,2.258,0,0,1,.856-.9,2.347,2.347,0,0,1,1.213-.32,2.225,2.225,0,0,1,1.144.284,1.89,1.89,0,0,1,.723.714v-.915h.842v5.015h-.842V-6.4a1.962,1.962,0,0,1-.737.728,2.2,2.2,0,0,1-1.139.288,2.273,2.273,0,0,1-1.208-.329,2.311,2.311,0,0,1-.851-.924A2.879,2.879,0,0,1,56.678-7.988Zm4.246.009a2.039,2.039,0,0,0-.229-.988,1.616,1.616,0,0,0-.618-.645,1.683,1.683,0,0,0-.856-.224,1.685,1.685,0,0,0-.851.22,1.593,1.593,0,0,0-.613.641,2.039,2.039,0,0,0-.229.988,2.086,2.086,0,0,0,.229,1,1.619,1.619,0,0,0,.613.65,1.658,1.658,0,0,0,.851.224,1.683,1.683,0,0,0,.856-.224,1.609,1.609,0,0,0,.618-.65A2.066,2.066,0,0,0,60.925-7.979Zm1.94,0a2.837,2.837,0,0,1,.311-1.359,2.239,2.239,0,0,1,.865-.9,2.485,2.485,0,0,1,1.268-.32,2.474,2.474,0,0,1,1.524.448,2.117,2.117,0,0,1,.792,1.245h-.9a1.288,1.288,0,0,0-.5-.723,1.539,1.539,0,0,0-.92-.265,1.475,1.475,0,0,0-1.153.49,2.006,2.006,0,0,0-.439,1.386,2.038,2.038,0,0,0,.439,1.4,1.469,1.469,0,0,0,1.153.494,1.558,1.558,0,0,0,.915-.256,1.3,1.3,0,0,0,.5-.732h.9a2.206,2.206,0,0,1-.805,1.231,2.412,2.412,0,0,1-1.51.462,2.485,2.485,0,0,1-1.268-.32,2.232,2.232,0,0,1-.865-.906A2.885,2.885,0,0,1,62.865-7.979Zm6.882-1.812v2.956a.7.7,0,0,0,.156.517.767.767,0,0,0,.54.151h.613v.7h-.75a1.493,1.493,0,0,1-1.043-.32,1.375,1.375,0,0,1-.348-1.052V-9.791h-.65v-.686h.65V-11.74h.833v1.263h1.309v.686Zm2.746-1.5a.548.548,0,0,1-.4-.165.548.548,0,0,1-.165-.4.548.548,0,0,1,.165-.4.548.548,0,0,1,.4-.165.522.522,0,0,1,.389.165.556.556,0,0,1,.16.4.556.556,0,0,1-.16.4A.522.522,0,0,1,72.493-11.292Zm.4.815v5.015h-.833v-5.015Zm3.285,4.246,1.556-4.246h.888L76.657-5.462h-.97l-1.968-5.015h.9Zm7.843-1.931a4.9,4.9,0,0,1-.027.5H79.988A1.621,1.621,0,0,0,80.5-6.5a1.615,1.615,0,0,0,1.121.416,1.54,1.54,0,0,0,.9-.252,1.332,1.332,0,0,0,.508-.673h.9a2.156,2.156,0,0,1-.805,1.176,2.431,2.431,0,0,1-1.5.453A2.535,2.535,0,0,1,80.34-5.7a2.267,2.267,0,0,1-.883-.911,2.824,2.824,0,0,1-.32-1.368,2.864,2.864,0,0,1,.311-1.364,2.184,2.184,0,0,1,.874-.9,2.6,2.6,0,0,1,1.295-.316,2.517,2.517,0,0,1,1.263.311,2.155,2.155,0,0,1,.847.856A2.525,2.525,0,0,1,84.024-8.162Zm-.86-.174a1.536,1.536,0,0,0-.21-.819,1.369,1.369,0,0,0-.572-.522,1.784,1.784,0,0,0-.8-.178,1.544,1.544,0,0,0-1.075.4A1.641,1.641,0,0,0,80-8.336Zm11.083-2.142L92.682-5.462h-.86L90.613-9.443,89.405-5.462h-.86l-1.574-5.015h.851l1.153,4.21,1.245-4.21h.851l1.217,4.219,1.135-4.219Zm3.011,5.1a2.568,2.568,0,0,1-1.277-.32,2.28,2.28,0,0,1-.9-.911,2.792,2.792,0,0,1-.325-1.368,2.711,2.711,0,0,1,.334-1.359A2.3,2.3,0,0,1,96-10.244a2.642,2.642,0,0,1,1.29-.316,2.642,2.642,0,0,1,1.29.316,2.31,2.31,0,0,1,.911.9,2.7,2.7,0,0,1,.334,1.364,2.672,2.672,0,0,1-.343,1.368,2.379,2.379,0,0,1-.929.911A2.664,2.664,0,0,1,97.257-5.38Zm0-.732a1.758,1.758,0,0,0,.842-.21,1.6,1.6,0,0,0,.636-.631,2.023,2.023,0,0,0,.243-1.025A2.054,2.054,0,0,0,98.74-9a1.558,1.558,0,0,0-.622-.627,1.736,1.736,0,0,0-.833-.206,1.728,1.728,0,0,0-.837.206A1.51,1.51,0,0,0,95.839-9a2.121,2.121,0,0,0-.229,1.025,2.178,2.178,0,0,0,.224,1.034,1.49,1.49,0,0,0,.6.627A1.684,1.684,0,0,0,97.257-6.112Zm4.5-3.551a1.6,1.6,0,0,1,.627-.668,1.938,1.938,0,0,1,.993-.238v.86h-.22q-1.4,0-1.4,1.519v2.727h-.833v-5.015h.833Zm3.414-2.572v6.772h-.833v-6.772Zm1.107,4.246a2.817,2.817,0,0,1,.311-1.35,2.258,2.258,0,0,1,.856-.9,2.364,2.364,0,0,1,1.222-.32,2.268,2.268,0,0,1,1.089.27,1.948,1.948,0,0,1,.769.709v-2.654h.842v6.772h-.842V-6.4a1.949,1.949,0,0,1-.732.737,2.179,2.179,0,0,1-1.135.288,2.3,2.3,0,0,1-1.213-.329,2.3,2.3,0,0,1-.856-.924A2.879,2.879,0,0,1,106.281-7.988Zm4.246.009a2.039,2.039,0,0,0-.229-.988,1.616,1.616,0,0,0-.618-.645,1.683,1.683,0,0,0-.856-.224,1.685,1.685,0,0,0-.851.22,1.593,1.593,0,0,0-.613.641,2.039,2.039,0,0,0-.229.988,2.086,2.086,0,0,0,.229,1,1.619,1.619,0,0,0,.613.65,1.658,1.658,0,0,0,.851.224,1.683,1.683,0,0,0,.856-.224,1.609,1.609,0,0,0,.618-.65A2.066,2.066,0,0,0,110.528-7.979Zm8.932-2.5-1.565,5.015h-.86l-1.208-3.981-1.208,3.981h-.86l-1.574-5.015h.851l1.153,4.21,1.245-4.21h.851L117.5-6.258l1.135-4.219Zm1.254-.815a.548.548,0,0,1-.4-.165.548.548,0,0,1-.165-.4.548.548,0,0,1,.165-.4.548.548,0,0,1,.4-.165.522.522,0,0,1,.389.165.556.556,0,0,1,.16.4.556.556,0,0,1-.16.4A.522.522,0,0,1,120.714-11.292Zm.4.815v5.015h-.833v-5.015Zm1.107,2.489a2.817,2.817,0,0,1,.311-1.35,2.258,2.258,0,0,1,.856-.9,2.364,2.364,0,0,1,1.222-.32,2.268,2.268,0,0,1,1.089.27,1.948,1.948,0,0,1,.769.709v-2.654h.842v6.772h-.842V-6.4a1.949,1.949,0,0,1-.732.737,2.179,2.179,0,0,1-1.135.288,2.3,2.3,0,0,1-1.213-.329,2.3,2.3,0,0,1-.856-.924A2.879,2.879,0,0,1,122.224-7.988Zm4.246.009a2.039,2.039,0,0,0-.229-.988,1.616,1.616,0,0,0-.618-.645,1.683,1.683,0,0,0-.856-.224,1.685,1.685,0,0,0-.851.22,1.593,1.593,0,0,0-.613.641,2.039,2.039,0,0,0-.229.988,2.086,2.086,0,0,0,.229,1,1.619,1.619,0,0,0,.613.65,1.658,1.658,0,0,0,.851.224,1.683,1.683,0,0,0,.856-.224,1.609,1.609,0,0,0,.618-.65A2.066,2.066,0,0,0,126.47-7.979Zm6.827-.183a4.9,4.9,0,0,1-.027.5h-4.008a1.621,1.621,0,0,0,.508,1.158,1.615,1.615,0,0,0,1.121.416,1.54,1.54,0,0,0,.9-.252,1.332,1.332,0,0,0,.508-.673h.9a2.156,2.156,0,0,1-.805,1.176,2.431,2.431,0,0,1-1.5.453,2.535,2.535,0,0,1-1.277-.32,2.267,2.267,0,0,1-.883-.911,2.824,2.824,0,0,1-.32-1.368,2.865,2.865,0,0,1,.311-1.364,2.184,2.184,0,0,1,.874-.9,2.6,2.6,0,0,1,1.295-.316,2.517,2.517,0,0,1,1.263.311,2.155,2.155,0,0,1,.847.856A2.525,2.525,0,0,1,133.3-8.162Zm-.86-.174a1.536,1.536,0,0,0-.21-.819,1.369,1.369,0,0,0-.572-.522,1.784,1.784,0,0,0-.8-.178,1.544,1.544,0,0,0-1.075.4,1.641,1.641,0,0,0-.508,1.117ZM138.98-3.76a5.83,5.83,0,0,1-1.368-2.187,8.211,8.211,0,0,1-.49-2.865,8.254,8.254,0,0,1,.517-2.942,5.806,5.806,0,0,1,1.478-2.256h.869v.082a6.124,6.124,0,0,0-1.542,2.311,7.776,7.776,0,0,0-.517,2.805,7.572,7.572,0,0,0,.49,2.709,6.531,6.531,0,0,0,1.432,2.26v.082Zm1.656-7.559v-.76h1.721v6.617h-.842v-5.857Zm4.219,4.082a1.312,1.312,0,0,0,.426.805,1.347,1.347,0,0,0,.9.284,1.219,1.219,0,0,0,1.121-.595,3.974,3.974,0,0,0,.343-2,1.381,1.381,0,0,1-.641.645,2.128,2.128,0,0,1-1,.233,2.322,2.322,0,0,1-1.094-.252,1.829,1.829,0,0,1-.755-.737,2.343,2.343,0,0,1-.275-1.171,2.2,2.2,0,0,1,.567-1.579,2.111,2.111,0,0,1,1.611-.6,1.946,1.946,0,0,1,1.8.833,4.771,4.771,0,0,1,.517,2.48,7.35,7.35,0,0,1-.206,1.9,2.141,2.141,0,0,1-.7,1.144,2.083,2.083,0,0,1-1.341.394,2.009,2.009,0,0,1-1.455-.5,1.975,1.975,0,0,1-.595-1.281Zm1.29-1.336a1.39,1.39,0,0,0,1.007-.38,1.364,1.364,0,0,0,.394-1.03,1.578,1.578,0,0,0-.384-1.107,1.388,1.388,0,0,0-1.08-.421,1.336,1.336,0,0,0-1.02.4,1.484,1.484,0,0,0-.38,1.062,1.508,1.508,0,0,0,.375,1.071A1.416,1.416,0,0,0,146.146-8.574Zm3.2,1.638v-.631l3.212-4.448h1v4.356h.915v.723h-.915v1.473h-.824V-6.936Zm3.423-4.21L150.31-7.659h2.462Zm4.8,3.167a2.837,2.837,0,0,1,.311-1.359,2.239,2.239,0,0,1,.865-.9,2.485,2.485,0,0,1,1.268-.32,2.474,2.474,0,0,1,1.524.448,2.117,2.117,0,0,1,.792,1.245h-.9a1.288,1.288,0,0,0-.5-.723,1.539,1.539,0,0,0-.92-.265,1.475,1.475,0,0,0-1.153.49,2.006,2.006,0,0,0-.439,1.386,2.038,2.038,0,0,0,.439,1.4,1.469,1.469,0,0,0,1.153.494,1.558,1.558,0,0,0,.915-.256,1.3,1.3,0,0,0,.5-.732h.9a2.206,2.206,0,0,1-.805,1.231,2.412,2.412,0,0,1-1.51.462,2.485,2.485,0,0,1-1.268-.32,2.231,2.231,0,0,1-.865-.906A2.885,2.885,0,0,1,157.577-7.979Zm8.054,2.6a2.568,2.568,0,0,1-1.277-.32,2.28,2.28,0,0,1-.9-.911,2.792,2.792,0,0,1-.325-1.368,2.711,2.711,0,0,1,.334-1.359,2.3,2.3,0,0,1,.911-.906,2.642,2.642,0,0,1,1.29-.316,2.642,2.642,0,0,1,1.29.316,2.31,2.31,0,0,1,.911.9,2.7,2.7,0,0,1,.334,1.364,2.672,2.672,0,0,1-.343,1.368,2.379,2.379,0,0,1-.929.911A2.664,2.664,0,0,1,165.631-5.38Zm0-.732a1.758,1.758,0,0,0,.842-.21,1.6,1.6,0,0,0,.636-.631,2.023,2.023,0,0,0,.243-1.025A2.054,2.054,0,0,0,167.113-9a1.558,1.558,0,0,0-.622-.627,1.736,1.736,0,0,0-.833-.206,1.728,1.728,0,0,0-.837.206,1.51,1.51,0,0,0-.609.627,2.121,2.121,0,0,0-.229,1.025,2.178,2.178,0,0,0,.224,1.034,1.49,1.49,0,0,0,.6.627A1.684,1.684,0,0,0,165.631-6.112Zm8.118-4.365v5.015h-.833V-6.2a1.621,1.621,0,0,1-.663.6,2.05,2.05,0,0,1-.938.215,2.248,2.248,0,0,1-1.052-.243,1.763,1.763,0,0,1-.737-.728,2.4,2.4,0,0,1-.27-1.181v-2.938h.824V-7.65a1.6,1.6,0,0,0,.375,1.139,1.341,1.341,0,0,0,1.025.4,1.369,1.369,0,0,0,1.052-.412,1.7,1.7,0,0,0,.384-1.2v-2.755Zm3.853-.092a2.033,2.033,0,0,1,1.483.554,2.131,2.131,0,0,1,.567,1.6v2.956h-.824V-8.3a1.613,1.613,0,0,0-.375-1.149,1.341,1.341,0,0,0-1.025-.4,1.373,1.373,0,0,0-1.048.412,1.682,1.682,0,0,0-.389,1.2v2.773h-.833v-5.015h.833v.714a1.653,1.653,0,0,1,.673-.595A2.087,2.087,0,0,1,177.6-10.569Zm4.429.778v2.956a.7.7,0,0,0,.156.517.767.767,0,0,0,.54.151h.613v.7h-.75a1.493,1.493,0,0,1-1.043-.32,1.375,1.375,0,0,1-.348-1.052V-9.791h-.65v-.686h.65V-11.74h.833v1.263h1.309v.686Zm3.148.128a1.6,1.6,0,0,1,.627-.668,1.938,1.938,0,0,1,.993-.238v.86h-.22q-1.4,0-1.4,1.519v2.727h-.833v-5.015h.833Zm3.011-1.629a.548.548,0,0,1-.4-.165.548.548,0,0,1-.165-.4.548.548,0,0,1,.165-.4.548.548,0,0,1,.4-.165.522.522,0,0,1,.389.165.556.556,0,0,1,.16.4.556.556,0,0,1-.16.4A.522.522,0,0,1,188.19-11.292Zm.4.815v5.015h-.833v-5.015Zm5.994,2.315a4.9,4.9,0,0,1-.027.5h-4.008a1.621,1.621,0,0,0,.508,1.158,1.615,1.615,0,0,0,1.121.416,1.54,1.54,0,0,0,.9-.252,1.332,1.332,0,0,0,.508-.673h.9a2.156,2.156,0,0,1-.805,1.176,2.431,2.431,0,0,1-1.5.453A2.535,2.535,0,0,1,190.9-5.7a2.267,2.267,0,0,1-.883-.911,2.824,2.824,0,0,1-.32-1.368,2.864,2.864,0,0,1,.311-1.364,2.184,2.184,0,0,1,.874-.9,2.6,2.6,0,0,1,1.295-.316,2.517,2.517,0,0,1,1.263.311,2.155,2.155,0,0,1,.847.856A2.526,2.526,0,0,1,194.587-8.162Zm-.86-.174a1.536,1.536,0,0,0-.21-.819,1.369,1.369,0,0,0-.572-.522,1.784,1.784,0,0,0-.8-.178,1.543,1.543,0,0,0-1.075.4,1.641,1.641,0,0,0-.508,1.117ZM197.46-5.38a2.594,2.594,0,0,1-1.034-.2,1.744,1.744,0,0,1-.723-.549,1.461,1.461,0,0,1-.293-.81h.86a.844.844,0,0,0,.352.613,1.341,1.341,0,0,0,.828.238,1.205,1.205,0,0,0,.75-.21.643.643,0,0,0,.275-.531.523.523,0,0,0-.293-.49,4.106,4.106,0,0,0-.906-.316,6.66,6.66,0,0,1-.911-.3,1.616,1.616,0,0,1-.6-.448,1.17,1.17,0,0,1-.252-.782,1.186,1.186,0,0,1,.229-.7,1.551,1.551,0,0,1,.65-.508,2.338,2.338,0,0,1,.961-.188,2.052,2.052,0,0,1,1.345.421,1.517,1.517,0,0,1,.549,1.153h-.833a.861.861,0,0,0-.316-.631,1.177,1.177,0,0,0-.773-.238,1.193,1.193,0,0,0-.714.192.594.594,0,0,0-.265.5.552.552,0,0,0,.16.407,1.17,1.17,0,0,0,.4.256,6.937,6.937,0,0,0,.673.215,7.246,7.246,0,0,1,.879.288,1.536,1.536,0,0,1,.581.426,1.138,1.138,0,0,1,.252.741,1.269,1.269,0,0,1-.229.741,1.526,1.526,0,0,1-.645.517A2.306,2.306,0,0,1,197.46-5.38ZM200.2-3.76v-.082a6.531,6.531,0,0,0,1.432-2.26,7.572,7.572,0,0,0,.49-2.709,7.776,7.776,0,0,0-.517-2.805,6.124,6.124,0,0,0-1.542-2.311v-.082h.869a5.806,5.806,0,0,1,1.478,2.256,8.254,8.254,0,0,1,.517,2.942,8.211,8.211,0,0,1-.49,2.865,5.83,5.83,0,0,1-1.368,2.187Z" transform="translate(-6606.654 6846.247)"/>
      <path id="Path_42758" data-name="Path 42758" d="M.518,7.816A3.032,3.032,0,0,1,.924,6.253a2.889,2.889,0,0,1,1.1-1.081A3.075,3.075,0,0,1,3.55,4.784a3.1,3.1,0,0,1,1.687.466,2.651,2.651,0,0,1,1.072,1.32H5.139a1.569,1.569,0,0,0-.641-.7,1.9,1.9,0,0,0-.948-.231A2.072,2.072,0,0,0,2.5,5.9a1.843,1.843,0,0,0-.722.76,2.443,2.443,0,0,0-.261,1.153,2.443,2.443,0,0,0,.261,1.153,1.871,1.871,0,0,0,.722.764A2.046,2.046,0,0,0,3.55,10,1.9,1.9,0,0,0,4.5,9.772a1.569,1.569,0,0,0,.641-.7h1.17a2.628,2.628,0,0,1-1.072,1.315,3.119,3.119,0,0,1-1.687.461,3.068,3.068,0,0,1-1.529-.389,2.9,2.9,0,0,1-1.1-1.081A3.032,3.032,0,0,1,.518,7.816Zm9.362-1.8a1.974,1.974,0,0,1,.961.231,1.642,1.642,0,0,1,.666.683,2.28,2.28,0,0,1,.243,1.093V10.8h-.965V8.166a1.366,1.366,0,0,0-.316-.969,1.125,1.125,0,0,0-.863-.337,1.139,1.139,0,0,0-.867.337,1.354,1.354,0,0,0-.32.969V10.8H7.445V4.476h.974V6.637a1.633,1.633,0,0,1,.628-.461A2.1,2.1,0,0,1,9.88,6.014Zm5.151,4.86a2.41,2.41,0,0,1-1.2-.3,2.178,2.178,0,0,1-.846-.854,2.577,2.577,0,0,1-.307-1.277,2.527,2.527,0,0,1,.316-1.273,2.183,2.183,0,0,1,.863-.854,2.645,2.645,0,0,1,2.443,0,2.183,2.183,0,0,1,.863.854,2.527,2.527,0,0,1,.316,1.273,2.475,2.475,0,0,1-.325,1.273,2.247,2.247,0,0,1-.884.858A2.548,2.548,0,0,1,15.03,10.874Zm0-.846a1.449,1.449,0,0,0,.7-.179,1.367,1.367,0,0,0,.534-.538,1.73,1.73,0,0,0,.205-.871,1.766,1.766,0,0,0-.2-.867,1.326,1.326,0,0,0-.521-.534,1.425,1.425,0,0,0-.7-.179,1.4,1.4,0,0,0-.7.179,1.28,1.28,0,0,0-.508.534,1.832,1.832,0,0,0-.188.867,1.651,1.651,0,0,0,.389,1.174A1.284,1.284,0,0,0,15.03,10.028Zm5.45.846a2.41,2.41,0,0,1-1.2-.3,2.178,2.178,0,0,1-.846-.854,2.577,2.577,0,0,1-.308-1.277,2.527,2.527,0,0,1,.316-1.273,2.183,2.183,0,0,1,.863-.854,2.645,2.645,0,0,1,2.443,0,2.183,2.183,0,0,1,.863.854,2.527,2.527,0,0,1,.316,1.273A2.475,2.475,0,0,1,22.6,9.712a2.247,2.247,0,0,1-.884.858A2.548,2.548,0,0,1,20.48,10.874Zm0-.846a1.449,1.449,0,0,0,.7-.179,1.367,1.367,0,0,0,.534-.538,1.73,1.73,0,0,0,.205-.871,1.766,1.766,0,0,0-.2-.867,1.326,1.326,0,0,0-.521-.534,1.425,1.425,0,0,0-.7-.179,1.4,1.4,0,0,0-.7.179,1.28,1.28,0,0,0-.508.534,1.832,1.832,0,0,0-.188.867A1.651,1.651,0,0,0,19.5,9.614,1.284,1.284,0,0,0,20.48,10.028Zm5.116.846a2.371,2.371,0,0,1-1-.2,1.748,1.748,0,0,1-.7-.547,1.363,1.363,0,0,1-.273-.773H24.64a.687.687,0,0,0,.286.5,1.039,1.039,0,0,0,.653.2,1.1,1.1,0,0,0,.636-.158.477.477,0,0,0,.226-.406A.417.417,0,0,0,26.19,9.1a4.723,4.723,0,0,0-.8-.282,7.708,7.708,0,0,1-.863-.282,1.512,1.512,0,0,1-.577-.419,1.1,1.1,0,0,1-.243-.743,1.159,1.159,0,0,1,.222-.688,1.479,1.479,0,0,1,.636-.491,2.378,2.378,0,0,1,.952-.179,1.967,1.967,0,0,1,1.294.406,1.457,1.457,0,0,1,.525,1.106h-.974a.694.694,0,0,0-.256-.5.958.958,0,0,0-.624-.188,1.012,1.012,0,0,0-.589.145.45.45,0,0,0-.2.384.416.416,0,0,0,.137.316.974.974,0,0,0,.333.2q.2.073.581.184a6.319,6.319,0,0,1,.841.278,1.566,1.566,0,0,1,.568.414,1.1,1.1,0,0,1,.248.726,1.218,1.218,0,0,1-.222.718,1.472,1.472,0,0,1-.628.5A2.339,2.339,0,0,1,25.6,10.874Zm7.166-2.545a3.044,3.044,0,0,1-.034.478h-3.6a1.306,1.306,0,0,0,.419.905,1.321,1.321,0,0,0,.923.342,1.139,1.139,0,0,0,1.11-.658h1.051a2.12,2.12,0,0,1-.773,1.063,2.268,2.268,0,0,1-1.388.414,2.4,2.4,0,0,1-1.209-.3,2.157,2.157,0,0,1-.837-.854,2.606,2.606,0,0,1-.3-1.277,2.667,2.667,0,0,1,.295-1.277,2.072,2.072,0,0,1,.829-.85,2.466,2.466,0,0,1,1.226-.3,2.4,2.4,0,0,1,1.187.29,2.052,2.052,0,0,1,.811.816A2.457,2.457,0,0,1,32.763,8.329Zm-1.016-.307a1.108,1.108,0,0,0-.384-.863,1.374,1.374,0,0,0-.931-.325,1.251,1.251,0,0,0-.863.32,1.339,1.339,0,0,0-.427.867Zm3.869.419a2.667,2.667,0,0,1,.295-1.277,2.1,2.1,0,0,1,.816-.85,2.608,2.608,0,0,1,2.609.107,2,2,0,0,1,.756,1.157H39.041a1.111,1.111,0,0,0-.41-.547,1.211,1.211,0,0,0-.709-.2,1.179,1.179,0,0,0-.952.423,1.789,1.789,0,0,0-.354,1.183,1.806,1.806,0,0,0,.354,1.187,1.174,1.174,0,0,0,.952.427,1.081,1.081,0,0,0,1.119-.743h1.051a2.1,2.1,0,0,1-.769,1.14,2.269,2.269,0,0,1-1.4.423,2.334,2.334,0,0,1-1.2-.3,2.125,2.125,0,0,1-.816-.854A2.667,2.667,0,0,1,35.616,8.44Zm7.491,2.434a2.41,2.41,0,0,1-1.2-.3,2.178,2.178,0,0,1-.846-.854,2.576,2.576,0,0,1-.308-1.277,2.527,2.527,0,0,1,.316-1.273,2.183,2.183,0,0,1,.863-.854,2.645,2.645,0,0,1,2.443,0,2.183,2.183,0,0,1,.863.854A2.527,2.527,0,0,1,45.55,8.44a2.475,2.475,0,0,1-.325,1.273,2.247,2.247,0,0,1-.884.858A2.548,2.548,0,0,1,43.107,10.874Zm0-.846a1.449,1.449,0,0,0,.7-.179,1.367,1.367,0,0,0,.534-.538,1.73,1.73,0,0,0,.2-.871,1.766,1.766,0,0,0-.2-.867,1.326,1.326,0,0,0-.521-.534,1.425,1.425,0,0,0-.7-.179,1.4,1.4,0,0,0-.7.179,1.28,1.28,0,0,0-.508.534,1.832,1.832,0,0,0-.188.867,1.651,1.651,0,0,0,.389,1.174A1.284,1.284,0,0,0,43.107,10.028Zm7.67-3.938V10.8H49.8v-.555a1.576,1.576,0,0,1-.6.457,1.909,1.909,0,0,1-.79.167,2.111,2.111,0,0,1-1-.231,1.666,1.666,0,0,1-.692-.683,2.217,2.217,0,0,1-.252-1.093V6.091h.965V8.713a1.366,1.366,0,0,0,.316.969,1.125,1.125,0,0,0,.863.337,1.139,1.139,0,0,0,.867-.337,1.355,1.355,0,0,0,.32-.969V6.091Zm3.656-.077a2.111,2.111,0,0,1,1,.231,1.64,1.64,0,0,1,.688.683,2.248,2.248,0,0,1,.248,1.093V10.8H55.4V8.166a1.366,1.366,0,0,0-.316-.969,1.125,1.125,0,0,0-.863-.337,1.139,1.139,0,0,0-.867.337,1.354,1.354,0,0,0-.32.969V10.8h-.974V6.091h.974v.538a1.612,1.612,0,0,1,.611-.453A1.952,1.952,0,0,1,54.433,6.014Zm4.305.871V9.49a.5.5,0,0,0,.124.38.616.616,0,0,0,.423.115h.6V10.8h-.769a1.482,1.482,0,0,1-1.008-.307,1.267,1.267,0,0,1-.35-1V6.885H57.2V6.091h.555V4.92h.982v1.17h1.145v.794Zm3.015-.111a1.529,1.529,0,0,1,.568-.559,1.68,1.68,0,0,1,.841-.2V7.022h-.248a1.186,1.186,0,0,0-.867.29,1.389,1.389,0,0,0-.295,1.008V10.8H60.78V6.091h.974Zm2.8-1.307a.624.624,0,1,1,0-1.247.593.593,0,0,1,.436.179.64.64,0,0,1,0,.888A.593.593,0,0,1,64.555,5.467Zm.478.624V10.8H64.06V6.091Zm5.595,2.238a3.044,3.044,0,0,1-.034.478H67a1.306,1.306,0,0,0,.419.905,1.321,1.321,0,0,0,.922.342,1.139,1.139,0,0,0,1.11-.658H70.5a2.12,2.12,0,0,1-.773,1.063,2.268,2.268,0,0,1-1.388.414,2.4,2.4,0,0,1-1.209-.3,2.157,2.157,0,0,1-.837-.854,2.606,2.606,0,0,1-.3-1.277,2.667,2.667,0,0,1,.295-1.277,2.072,2.072,0,0,1,.829-.85,2.466,2.466,0,0,1,1.226-.3,2.4,2.4,0,0,1,1.187.29,2.052,2.052,0,0,1,.811.816A2.457,2.457,0,0,1,70.628,8.329Zm-1.016-.307a1.108,1.108,0,0,0-.384-.863,1.374,1.374,0,0,0-.931-.325,1.251,1.251,0,0,0-.863.32,1.339,1.339,0,0,0-.427.867Zm3.681,2.853a2.371,2.371,0,0,1-1-.2,1.748,1.748,0,0,1-.7-.547,1.363,1.363,0,0,1-.273-.773h1.008a.687.687,0,0,0,.286.5,1.039,1.039,0,0,0,.653.2,1.1,1.1,0,0,0,.636-.158.477.477,0,0,0,.226-.406.417.417,0,0,0-.252-.393,4.723,4.723,0,0,0-.8-.282,7.708,7.708,0,0,1-.863-.282,1.512,1.512,0,0,1-.577-.419,1.1,1.1,0,0,1-.243-.743,1.159,1.159,0,0,1,.222-.688,1.479,1.479,0,0,1,.636-.491,2.378,2.378,0,0,1,.952-.179,1.967,1.967,0,0,1,1.294.406,1.457,1.457,0,0,1,.525,1.106h-.974a.694.694,0,0,0-.256-.5.958.958,0,0,0-.624-.188,1.012,1.012,0,0,0-.589.145.45.45,0,0,0-.205.384.416.416,0,0,0,.137.316.974.974,0,0,0,.333.2q.2.073.581.184a6.318,6.318,0,0,1,.841.278,1.566,1.566,0,0,1,.568.414,1.1,1.1,0,0,1,.248.726,1.218,1.218,0,0,1-.222.718,1.472,1.472,0,0,1-.628.5A2.339,2.339,0,0,1,73.293,10.874ZM79.5,6.885V9.49a.5.5,0,0,0,.124.38.616.616,0,0,0,.423.115h.6V10.8h-.769a1.482,1.482,0,0,1-1.008-.307,1.267,1.267,0,0,1-.35-1V6.885h-.555V6.091h.555V4.92H79.5v1.17h1.145v.794Zm4.083,3.989a2.41,2.41,0,0,1-1.2-.3,2.178,2.178,0,0,1-.846-.854,2.577,2.577,0,0,1-.308-1.277,2.527,2.527,0,0,1,.316-1.273,2.183,2.183,0,0,1,.863-.854,2.645,2.645,0,0,1,2.443,0,2.183,2.183,0,0,1,.863.854,2.527,2.527,0,0,1,.316,1.273A2.475,2.475,0,0,1,85.7,9.712a2.247,2.247,0,0,1-.884.858A2.548,2.548,0,0,1,83.586,10.874Zm0-.846a1.449,1.449,0,0,0,.7-.179,1.367,1.367,0,0,0,.534-.538,1.73,1.73,0,0,0,.205-.871,1.766,1.766,0,0,0-.2-.867,1.326,1.326,0,0,0-.521-.534,1.425,1.425,0,0,0-.7-.179,1.4,1.4,0,0,0-.7.179,1.28,1.28,0,0,0-.508.534,1.832,1.832,0,0,0-.188.867,1.651,1.651,0,0,0,.389,1.174A1.284,1.284,0,0,0,83.586,10.028Zm5.3-1.606a2.6,2.6,0,0,1,.295-1.256,2.147,2.147,0,0,1,1.926-1.153,2.055,2.055,0,0,1,.969.218,1.967,1.967,0,0,1,.662.542V6.091h.982V10.8h-.982v-.7a1.934,1.934,0,0,1-.675.555,2.184,2.184,0,0,1-2.084-.09,2.211,2.211,0,0,1-.8-.871A2.68,2.68,0,0,1,88.89,8.423Zm3.852.017a1.7,1.7,0,0,0-.2-.846,1.409,1.409,0,0,0-.525-.547,1.374,1.374,0,0,0-.7-.188,1.4,1.4,0,0,0-.7.184,1.385,1.385,0,0,0-.525.538,1.68,1.68,0,0,0-.2.841,1.753,1.753,0,0,0,.2.854,1.416,1.416,0,0,0,.53.559,1.358,1.358,0,0,0,.7.192,1.374,1.374,0,0,0,.7-.188,1.4,1.4,0,0,0,.525-.551A1.729,1.729,0,0,0,92.743,8.44ZM95.98,4.476V10.8h-.974V4.476Zm2.255,0V10.8h-.974V4.476Zm3.323,6.4a2.41,2.41,0,0,1-1.2-.3,2.178,2.178,0,0,1-.846-.854A2.577,2.577,0,0,1,99.2,8.44a2.527,2.527,0,0,1,.316-1.273,2.183,2.183,0,0,1,.863-.854,2.645,2.645,0,0,1,2.443,0,2.183,2.183,0,0,1,.863.854A2.527,2.527,0,0,1,104,8.44a2.475,2.475,0,0,1-.325,1.273,2.247,2.247,0,0,1-.884.858A2.548,2.548,0,0,1,101.558,10.874Zm0-.846a1.449,1.449,0,0,0,.7-.179,1.367,1.367,0,0,0,.534-.538A1.73,1.73,0,0,0,103,8.44a1.766,1.766,0,0,0-.2-.867,1.326,1.326,0,0,0-.521-.534,1.425,1.425,0,0,0-.7-.179,1.4,1.4,0,0,0-.7.179,1.28,1.28,0,0,0-.508.534,1.832,1.832,0,0,0-.188.867,1.651,1.651,0,0,0,.389,1.174A1.284,1.284,0,0,0,101.558,10.028Zm9.729-3.938L109.826,10.8H108.8l-.948-3.476L106.9,10.8H105.88L104.41,6.091h.991l.982,3.784,1-3.784H108.4l.957,3.767.974-3.767Zm7.184,0-2.887,6.919h-1.008l.957-2.289-1.854-4.63h1.085l1.324,3.588,1.375-3.588Zm2.776,4.783a2.41,2.41,0,0,1-1.2-.3,2.178,2.178,0,0,1-.846-.854,2.577,2.577,0,0,1-.307-1.277,2.527,2.527,0,0,1,.316-1.273,2.183,2.183,0,0,1,.863-.854,2.645,2.645,0,0,1,2.443,0,2.183,2.183,0,0,1,.863.854,2.527,2.527,0,0,1,.316,1.273,2.475,2.475,0,0,1-.325,1.273,2.247,2.247,0,0,1-.884.858A2.548,2.548,0,0,1,121.246,10.874Zm0-.846a1.449,1.449,0,0,0,.7-.179,1.367,1.367,0,0,0,.534-.538,1.73,1.73,0,0,0,.205-.871,1.766,1.766,0,0,0-.2-.867,1.326,1.326,0,0,0-.521-.534,1.425,1.425,0,0,0-.7-.179,1.4,1.4,0,0,0-.7.179,1.28,1.28,0,0,0-.508.534,1.832,1.832,0,0,0-.188.867,1.651,1.651,0,0,0,.389,1.174A1.284,1.284,0,0,0,121.246,10.028Zm7.67-3.938V10.8h-.974v-.555a1.576,1.576,0,0,1-.6.457,1.91,1.91,0,0,1-.79.167,2.111,2.111,0,0,1-1-.231,1.666,1.666,0,0,1-.692-.683,2.217,2.217,0,0,1-.252-1.093V6.091h.965V8.713a1.366,1.366,0,0,0,.316.969,1.125,1.125,0,0,0,.863.337,1.139,1.139,0,0,0,.867-.337,1.354,1.354,0,0,0,.32-.969V6.091Zm2.255.683a1.529,1.529,0,0,1,.568-.559,1.68,1.68,0,0,1,.841-.2V7.022h-.248a1.186,1.186,0,0,0-.867.29,1.389,1.389,0,0,0-.295,1.008V10.8H130.2V6.091h.974Zm4.2,1.666a2.667,2.667,0,0,1,.295-1.277,2.1,2.1,0,0,1,.816-.85,2.608,2.608,0,0,1,2.609.107,2,2,0,0,1,.756,1.157H138.8a1.111,1.111,0,0,0-.41-.547,1.211,1.211,0,0,0-.709-.2,1.179,1.179,0,0,0-.952.423,1.789,1.789,0,0,0-.354,1.183,1.806,1.806,0,0,0,.354,1.187,1.174,1.174,0,0,0,.952.427,1.081,1.081,0,0,0,1.119-.743h1.051a2.1,2.1,0,0,1-.769,1.14,2.269,2.269,0,0,1-1.4.423,2.334,2.334,0,0,1-1.2-.3,2.125,2.125,0,0,1-.816-.854A2.667,2.667,0,0,1,135.374,8.44Zm5.125-.017a2.6,2.6,0,0,1,.295-1.256,2.147,2.147,0,0,1,1.926-1.153,2.055,2.055,0,0,1,.969.218,1.967,1.967,0,0,1,.662.542V6.091h.982V10.8h-.982v-.7a1.934,1.934,0,0,1-.675.555,2.184,2.184,0,0,1-2.084-.09,2.211,2.211,0,0,1-.8-.871A2.68,2.68,0,0,1,140.5,8.423Zm3.852.017a1.7,1.7,0,0,0-.2-.846,1.409,1.409,0,0,0-.525-.547,1.374,1.374,0,0,0-.7-.188,1.4,1.4,0,0,0-.7.184,1.385,1.385,0,0,0-.525.538,1.68,1.68,0,0,0-.2.841,1.753,1.753,0,0,0,.2.854,1.416,1.416,0,0,0,.53.559,1.358,1.358,0,0,0,.7.192,1.374,1.374,0,0,0,.7-.188,1.4,1.4,0,0,0,.525-.551A1.729,1.729,0,0,0,144.351,8.44Zm3.237-1.666a1.529,1.529,0,0,1,.568-.559,1.68,1.68,0,0,1,.841-.2V7.022h-.248a1.186,1.186,0,0,0-.867.29,1.389,1.389,0,0,0-.295,1.008V10.8h-.974V6.091h.974Zm1.982,1.649a2.6,2.6,0,0,1,.295-1.256A2.147,2.147,0,0,1,151.8,6.014a2.207,2.207,0,0,1,.91.2,1.861,1.861,0,0,1,.713.534V4.476h.982V10.8h-.982v-.709a1.823,1.823,0,0,1-.662.564,2.054,2.054,0,0,1-.969.222,2.106,2.106,0,0,1-1.123-.312,2.2,2.2,0,0,1-.8-.871A2.68,2.68,0,0,1,149.57,8.423Zm3.852.017a1.7,1.7,0,0,0-.2-.846,1.409,1.409,0,0,0-.525-.547,1.374,1.374,0,0,0-.7-.188,1.4,1.4,0,0,0-.7.184,1.385,1.385,0,0,0-.525.538,1.68,1.68,0,0,0-.2.841,1.753,1.753,0,0,0,.2.854,1.416,1.416,0,0,0,.53.559,1.358,1.358,0,0,0,.7.192,1.374,1.374,0,0,0,.7-.188,1.4,1.4,0,0,0,.525-.551A1.729,1.729,0,0,0,153.423,8.44Zm8.747-2.349V10.8H161.2v-.555a1.576,1.576,0,0,1-.6.457,1.91,1.91,0,0,1-.79.167,2.111,2.111,0,0,1-1-.231,1.666,1.666,0,0,1-.692-.683,2.217,2.217,0,0,1-.252-1.093V6.091h.965V8.713a1.366,1.366,0,0,0,.316.969,1.125,1.125,0,0,0,.863.337,1.139,1.139,0,0,0,.867-.337,1.354,1.354,0,0,0,.32-.969V6.091Zm2.99,4.783a2.371,2.371,0,0,1-1-.2,1.748,1.748,0,0,1-.7-.547,1.363,1.363,0,0,1-.273-.773H164.2a.687.687,0,0,0,.286.5,1.039,1.039,0,0,0,.653.2,1.1,1.1,0,0,0,.636-.158A.477.477,0,0,0,166,9.49a.417.417,0,0,0-.252-.393,4.723,4.723,0,0,0-.8-.282,7.707,7.707,0,0,1-.863-.282,1.512,1.512,0,0,1-.577-.419,1.1,1.1,0,0,1-.243-.743,1.159,1.159,0,0,1,.222-.688,1.479,1.479,0,0,1,.636-.491,2.378,2.378,0,0,1,.952-.179,1.967,1.967,0,0,1,1.294.406,1.457,1.457,0,0,1,.525,1.106h-.974a.694.694,0,0,0-.256-.5.958.958,0,0,0-.624-.188,1.012,1.012,0,0,0-.589.145.45.45,0,0,0-.205.384.416.416,0,0,0,.137.316.974.974,0,0,0,.333.2q.2.073.581.184a6.319,6.319,0,0,1,.841.278,1.566,1.566,0,0,1,.568.414,1.1,1.1,0,0,1,.248.726,1.218,1.218,0,0,1-.222.718,1.473,1.473,0,0,1-.628.5A2.339,2.339,0,0,1,165.159,10.874Zm2.528-2.451a2.6,2.6,0,0,1,.295-1.256,2.147,2.147,0,0,1,1.926-1.153,2.055,2.055,0,0,1,.969.218,1.967,1.967,0,0,1,.662.542V6.091h.982V10.8h-.982v-.7a1.934,1.934,0,0,1-.675.555,2.184,2.184,0,0,1-2.084-.09,2.211,2.211,0,0,1-.8-.871A2.68,2.68,0,0,1,167.687,8.423Zm3.852.017a1.7,1.7,0,0,0-.2-.846,1.409,1.409,0,0,0-.525-.547,1.374,1.374,0,0,0-.7-.188,1.4,1.4,0,0,0-.7.184,1.385,1.385,0,0,0-.525.538,1.68,1.68,0,0,0-.2.841,1.753,1.753,0,0,0,.2.854,1.416,1.416,0,0,0,.53.559,1.358,1.358,0,0,0,.7.192,1.374,1.374,0,0,0,.7-.188,1.4,1.4,0,0,0,.525-.551A1.729,1.729,0,0,0,171.539,8.44Zm4.16-2.426a2.087,2.087,0,0,1,.969.218,1.862,1.862,0,0,1,.662.542V6.091h.982v4.783a2.4,2.4,0,0,1-.273,1.157,1.975,1.975,0,0,1-.79.8,2.481,2.481,0,0,1-1.234.29,2.678,2.678,0,0,1-1.589-.448,1.655,1.655,0,0,1-.717-1.217h.965a1.048,1.048,0,0,0,.474.594,1.606,1.606,0,0,0,.867.226,1.3,1.3,0,0,0,.952-.359,1.4,1.4,0,0,0,.363-1.042v-.786a2.023,2.023,0,0,1-1.631.786,2.106,2.106,0,0,1-1.123-.312,2.2,2.2,0,0,1-.8-.871,2.68,2.68,0,0,1-.295-1.268,2.6,2.6,0,0,1,.295-1.256A2.147,2.147,0,0,1,175.7,6.014Zm1.631,2.426a1.7,1.7,0,0,0-.2-.846,1.409,1.409,0,0,0-.525-.547,1.374,1.374,0,0,0-.7-.188,1.4,1.4,0,0,0-.7.184,1.385,1.385,0,0,0-.525.538,1.68,1.68,0,0,0-.2.841,1.753,1.753,0,0,0,.2.854,1.416,1.416,0,0,0,.53.559,1.358,1.358,0,0,0,.7.192,1.374,1.374,0,0,0,.7-.188,1.4,1.4,0,0,0,.525-.551A1.729,1.729,0,0,0,177.331,8.44Zm6.577-.111a3.046,3.046,0,0,1-.034.478h-3.6a1.306,1.306,0,0,0,.419.905,1.321,1.321,0,0,0,.923.342,1.139,1.139,0,0,0,1.11-.658h1.051a2.12,2.12,0,0,1-.773,1.063,2.268,2.268,0,0,1-1.388.414,2.4,2.4,0,0,1-1.209-.3,2.157,2.157,0,0,1-.837-.854,2.606,2.606,0,0,1-.3-1.277,2.667,2.667,0,0,1,.295-1.277,2.072,2.072,0,0,1,.829-.85,2.466,2.466,0,0,1,1.226-.3,2.4,2.4,0,0,1,1.187.29,2.052,2.052,0,0,1,.811.816A2.457,2.457,0,0,1,183.908,8.329Zm-1.016-.307a1.108,1.108,0,0,0-.384-.863,1.374,1.374,0,0,0-.931-.325,1.251,1.251,0,0,0-.863.32,1.339,1.339,0,0,0-.427.867Zm4.689-2.554a.624.624,0,1,1,0-1.247.593.593,0,0,1,.436.179.64.64,0,0,1,0,.888A.593.593,0,0,1,187.581,5.467Zm.478.624V10.8h-.974V6.091Zm3.656-.077a2.111,2.111,0,0,1,1,.231,1.64,1.64,0,0,1,.688.683,2.248,2.248,0,0,1,.248,1.093V10.8h-.965V8.166a1.366,1.366,0,0,0-.316-.969,1.125,1.125,0,0,0-.863-.337,1.139,1.139,0,0,0-.867.337,1.354,1.354,0,0,0-.32.969V10.8h-.974V6.091h.974v.538a1.612,1.612,0,0,1,.611-.453A1.952,1.952,0,0,1,191.715,6.014Z" transform="translate(-6606.745 6709.793)"/>
      <path id="Path_42759" data-name="Path 42759" d="M0,0H206.831V.61H0Z" transform="translate(-6606.543 6731.573)" fill="#7588a0" opacity="0.2"/>
      <path id="_name-2" data-name="✏️name" d="M3.848-4.264a3.219,3.219,0,0,1-1.62-.416A3.048,3.048,0,0,1,1.071-5.842,3.328,3.328,0,0,1,.645-7.522,3.328,3.328,0,0,1,1.071-9.2a3.048,3.048,0,0,1,1.158-1.162,3.219,3.219,0,0,1,1.62-.416,3.237,3.237,0,0,1,1.629.416A3.025,3.025,0,0,1,6.63-9.206a3.349,3.349,0,0,1,.421,1.684A3.349,3.349,0,0,1,6.63-5.838,3.025,3.025,0,0,1,5.477-4.68,3.237,3.237,0,0,1,3.848-4.264Zm0-.723a2.351,2.351,0,0,0,1.2-.311,2.19,2.19,0,0,0,.842-.888A2.8,2.8,0,0,0,6.2-7.522a2.8,2.8,0,0,0-.307-1.341,2.207,2.207,0,0,0-.837-.883,2.344,2.344,0,0,0-1.208-.311,2.344,2.344,0,0,0-1.208.311,2.207,2.207,0,0,0-.837.883A2.8,2.8,0,0,0,1.5-7.522,2.8,2.8,0,0,0,1.8-6.185a2.19,2.19,0,0,0,.842.888A2.351,2.351,0,0,0,3.848-4.987Zm6.745-4.448a2.033,2.033,0,0,1,1.483.554,2.131,2.131,0,0,1,.567,1.6v2.956h-.824V-7.165a1.613,1.613,0,0,0-.375-1.149,1.341,1.341,0,0,0-1.025-.4A1.373,1.373,0,0,0,9.371-8.3a1.683,1.683,0,0,0-.389,1.2v2.773H8.149V-9.343h.833v.714a1.653,1.653,0,0,1,.673-.595A2.086,2.086,0,0,1,10.593-9.434ZM14.839-11.1v6.772h-.833V-11.1Zm5.738,1.757-3.02,7.376H16.7l.988-2.416-2.023-4.96h.924l1.574,4.063,1.556-4.063ZM24.687-5H26.92v.677H23.854v-6.379h.833Zm7.7-2.023a4.9,4.9,0,0,1-.027.5H28.347a1.621,1.621,0,0,0,.508,1.158,1.615,1.615,0,0,0,1.121.416,1.54,1.54,0,0,0,.9-.252,1.332,1.332,0,0,0,.508-.673h.9A2.156,2.156,0,0,1,31.477-4.7a2.431,2.431,0,0,1-1.5.453,2.535,2.535,0,0,1-1.277-.32,2.267,2.267,0,0,1-.883-.911,2.824,2.824,0,0,1-.32-1.368,2.864,2.864,0,0,1,.311-1.364,2.184,2.184,0,0,1,.874-.9,2.6,2.6,0,0,1,1.295-.316,2.517,2.517,0,0,1,1.263.311,2.155,2.155,0,0,1,.847.856A2.525,2.525,0,0,1,32.383-7.027Zm-.86-.174a1.536,1.536,0,0,0-.21-.819,1.369,1.369,0,0,0-.572-.522,1.784,1.784,0,0,0-.8-.178,1.544,1.544,0,0,0-1.075.4A1.641,1.641,0,0,0,28.357-7.2Zm2.791-1.208a1.969,1.969,0,0,1,.75-.732,2.22,2.22,0,0,1,1.126-.284,2.34,2.34,0,0,1,1.217.32,2.268,2.268,0,0,1,.851.9,2.817,2.817,0,0,1,.311,1.35A2.879,2.879,0,0,1,38.259-5.5a2.3,2.3,0,0,1-.856.924,2.3,2.3,0,0,1-1.213.329,2.232,2.232,0,0,1-1.139-.284,1.93,1.93,0,0,1-.737-.723v.924h-.833V-11.1h.833Zm3.4,1.556a2.039,2.039,0,0,0-.229-.988,1.584,1.584,0,0,0-.618-.641,1.71,1.71,0,0,0-.856-.22,1.666,1.666,0,0,0-.847.224,1.639,1.639,0,0,0-.622.65,2.013,2.013,0,0,0-.233.984,2.033,2.033,0,0,0,.233.993,1.639,1.639,0,0,0,.622.65,1.666,1.666,0,0,0,.847.224,1.683,1.683,0,0,0,.856-.224,1.609,1.609,0,0,0,.618-.65A2.086,2.086,0,0,0,37.719-6.854Zm1.638,0a2.817,2.817,0,0,1,.311-1.35,2.258,2.258,0,0,1,.856-.9,2.347,2.347,0,0,1,1.213-.32,2.225,2.225,0,0,1,1.144.284,1.89,1.89,0,0,1,.723.714v-.915h.842v5.015H43.6v-.933a1.962,1.962,0,0,1-.737.728,2.2,2.2,0,0,1-1.139.288,2.273,2.273,0,0,1-1.208-.329,2.311,2.311,0,0,1-.851-.924A2.879,2.879,0,0,1,39.357-6.854Zm4.246.009a2.039,2.039,0,0,0-.229-.988,1.616,1.616,0,0,0-.618-.645A1.683,1.683,0,0,0,41.9-8.7a1.685,1.685,0,0,0-.851.22,1.593,1.593,0,0,0-.613.641,2.039,2.039,0,0,0-.229.988,2.086,2.086,0,0,0,.229,1,1.619,1.619,0,0,0,.613.65,1.658,1.658,0,0,0,.851.224,1.683,1.683,0,0,0,.856-.224,1.609,1.609,0,0,0,.618-.65A2.066,2.066,0,0,0,43.6-6.844ZM48.3-9.434a2.033,2.033,0,0,1,1.483.554,2.131,2.131,0,0,1,.567,1.6v2.956h-.824V-7.165a1.613,1.613,0,0,0-.375-1.149,1.341,1.341,0,0,0-1.025-.4,1.373,1.373,0,0,0-1.048.412,1.683,1.683,0,0,0-.389,1.2v2.773h-.833V-9.343h.833v.714a1.653,1.653,0,0,1,.673-.595A2.086,2.086,0,0,1,48.3-9.434Zm5.6,5.189a2.568,2.568,0,0,1-1.277-.32,2.28,2.28,0,0,1-.9-.911A2.792,2.792,0,0,1,51.4-6.844,2.712,2.712,0,0,1,51.735-8.2a2.3,2.3,0,0,1,.911-.906,2.642,2.642,0,0,1,1.29-.316,2.642,2.642,0,0,1,1.29.316,2.31,2.31,0,0,1,.911.9,2.7,2.7,0,0,1,.334,1.364,2.672,2.672,0,0,1-.343,1.368,2.379,2.379,0,0,1-.929.911A2.664,2.664,0,0,1,53.9-4.245Zm0-.732a1.759,1.759,0,0,0,.842-.21,1.6,1.6,0,0,0,.636-.631,2.023,2.023,0,0,0,.243-1.025,2.054,2.054,0,0,0-.238-1.025A1.558,1.558,0,0,0,54.76-8.5a1.736,1.736,0,0,0-.833-.206,1.728,1.728,0,0,0-.837.206,1.51,1.51,0,0,0-.609.627,2.121,2.121,0,0,0-.229,1.025,2.178,2.178,0,0,0,.224,1.034,1.49,1.49,0,0,0,.6.627A1.684,1.684,0,0,0,53.9-4.977Zm6.113-4.457a2.033,2.033,0,0,1,1.483.554,2.131,2.131,0,0,1,.567,1.6v2.956h-.824V-7.165a1.613,1.613,0,0,0-.375-1.149,1.341,1.341,0,0,0-1.025-.4,1.373,1.373,0,0,0-1.048.412A1.682,1.682,0,0,0,58.4-7.1v2.773h-.833V-9.343H58.4v.714a1.653,1.653,0,0,1,.673-.595A2.086,2.086,0,0,1,60.013-9.434Z" transform="translate(-6584.22 6790.811)"/>
      <g id="Path_42760" data-name="Path 42760" transform="translate(-6606.543 6777.942)" fill="none">
        <path d="M5.491,0A5.491,5.491,0,1,1,0,5.491,5.491,5.491,0,0,1,5.491,0Z" stroke="none"/>
        <path d="M 5.491078853607178 0.9999990463256836 C 3.014688968658447 0.9999990463256836 0.9999990463256836 3.014688968658447 0.9999990463256836 5.491078853607178 C 0.9999990463256836 7.967468738555908 3.014688968658447 9.982158660888672 5.491078853607178 9.982158660888672 C 7.967468738555908 9.982158660888672 9.982158660888672 7.967468738555908 9.982158660888672 5.491078853607178 C 9.982158660888672 3.014688968658447 7.967468738555908 0.9999990463256836 5.491078853607178 0.9999990463256836 M 5.491078853607178 -9.5367431640625e-07 C 8.52371883392334 -9.5367431640625e-07 10.98215866088867 2.458438873291016 10.98215866088867 5.491078853607178 C 10.98215866088867 8.52371883392334 8.52371883392334 10.98215866088867 5.491078853607178 10.98215866088867 C 2.458438873291016 10.98215866088867 -9.5367431640625e-07 8.52371883392334 -9.5367431640625e-07 5.491078853607178 C -9.5367431640625e-07 2.458438873291016 2.458438873291016 -9.5367431640625e-07 5.491078853607178 -9.5367431640625e-07 Z" stroke="none" fill="#000"/>
      </g>
      <path id="_name-3" data-name="✏️name" d="M3.061-4.386a2.728,2.728,0,0,1-1.13-.224,1.883,1.883,0,0,1-.782-.622,1.594,1.594,0,0,1-.293-.92h.888a1.169,1.169,0,0,0,.371.755,1.33,1.33,0,0,0,.947.307A1.384,1.384,0,0,0,4-5.389a.965.965,0,0,0,.343-.764.867.867,0,0,0-.2-.595,1.286,1.286,0,0,0-.5-.348,7.865,7.865,0,0,0-.815-.256,7.173,7.173,0,0,1-1.011-.329,1.629,1.629,0,0,1-.65-.517,1.519,1.519,0,0,1-.27-.947,1.641,1.641,0,0,1,.265-.924,1.729,1.729,0,0,1,.746-.622,2.626,2.626,0,0,1,1.1-.22,2.31,2.31,0,0,1,1.469.448,1.657,1.657,0,0,1,.645,1.19H4.2a.987.987,0,0,0-.384-.645,1.365,1.365,0,0,0-.9-.279,1.3,1.3,0,0,0-.851.27.922.922,0,0,0-.329.755.818.818,0,0,0,.2.567,1.268,1.268,0,0,0,.485.334q.288.114.81.261a7.607,7.607,0,0,1,1.016.343,1.694,1.694,0,0,1,.659.522,1.517,1.517,0,0,1,.275.956,1.679,1.679,0,0,1-.247.879,1.816,1.816,0,0,1-.732.668A2.416,2.416,0,0,1,3.061-4.386ZM10.986-7.15a4.9,4.9,0,0,1-.027.5H6.95a1.621,1.621,0,0,0,.508,1.158,1.615,1.615,0,0,0,1.121.416,1.54,1.54,0,0,0,.9-.252A1.332,1.332,0,0,0,9.988-6h.9a2.156,2.156,0,0,1-.805,1.176,2.431,2.431,0,0,1-1.5.453A2.535,2.535,0,0,1,7.3-4.688,2.267,2.267,0,0,1,6.419-5.6,2.824,2.824,0,0,1,6.1-6.967,2.864,2.864,0,0,1,6.41-8.331a2.184,2.184,0,0,1,.874-.9,2.6,2.6,0,0,1,1.295-.316,2.517,2.517,0,0,1,1.263.311,2.155,2.155,0,0,1,.847.856A2.525,2.525,0,0,1,10.986-7.15Zm-.86-.174a1.536,1.536,0,0,0-.21-.819,1.369,1.369,0,0,0-.572-.522,1.784,1.784,0,0,0-.8-.178,1.544,1.544,0,0,0-1.075.4,1.641,1.641,0,0,0-.508,1.117Zm2.791-3.9V-4.45h-.833v-6.772ZM18.911-7.15a4.9,4.9,0,0,1-.027.5H14.876a1.621,1.621,0,0,0,.508,1.158,1.615,1.615,0,0,0,1.121.416,1.54,1.54,0,0,0,.9-.252A1.332,1.332,0,0,0,17.914-6h.9a2.156,2.156,0,0,1-.805,1.176,2.431,2.431,0,0,1-1.5.453,2.535,2.535,0,0,1-1.277-.32,2.267,2.267,0,0,1-.883-.911,2.824,2.824,0,0,1-.32-1.368,2.864,2.864,0,0,1,.311-1.364,2.184,2.184,0,0,1,.874-.9A2.6,2.6,0,0,1,16.5-9.548a2.517,2.517,0,0,1,1.263.311,2.155,2.155,0,0,1,.847.856A2.525,2.525,0,0,1,18.911-7.15Zm-.86-.174a1.536,1.536,0,0,0-.21-.819,1.369,1.369,0,0,0-.572-.522,1.784,1.784,0,0,0-.8-.178,1.544,1.544,0,0,0-1.075.4,1.641,1.641,0,0,0-.508,1.117Zm1.647.357a2.837,2.837,0,0,1,.311-1.359,2.239,2.239,0,0,1,.865-.9,2.485,2.485,0,0,1,1.268-.32,2.475,2.475,0,0,1,1.524.448,2.117,2.117,0,0,1,.792,1.245h-.9a1.288,1.288,0,0,0-.5-.723,1.539,1.539,0,0,0-.92-.265,1.475,1.475,0,0,0-1.153.49,2.006,2.006,0,0,0-.439,1.386,2.038,2.038,0,0,0,.439,1.4,1.469,1.469,0,0,0,1.153.494,1.558,1.558,0,0,0,.915-.256,1.3,1.3,0,0,0,.5-.732h.9a2.206,2.206,0,0,1-.805,1.231,2.412,2.412,0,0,1-1.51.462,2.485,2.485,0,0,1-1.268-.32,2.232,2.232,0,0,1-.865-.906A2.885,2.885,0,0,1,19.7-6.967Zm6.882-1.812v2.956a.7.7,0,0,0,.156.517.767.767,0,0,0,.54.151h.613v.7h-.75a1.493,1.493,0,0,1-1.043-.32,1.375,1.375,0,0,1-.348-1.052V-8.779H25.1v-.686h.65v-1.263h.833v1.263h1.309v.686ZM33.472-7.15a4.9,4.9,0,0,1-.027.5H29.436a1.621,1.621,0,0,0,.508,1.158,1.615,1.615,0,0,0,1.121.416,1.54,1.54,0,0,0,.9-.252A1.332,1.332,0,0,0,32.474-6h.9a2.156,2.156,0,0,1-.805,1.176,2.431,2.431,0,0,1-1.5.453,2.535,2.535,0,0,1-1.277-.32,2.267,2.267,0,0,1-.883-.911,2.824,2.824,0,0,1-.32-1.368A2.864,2.864,0,0,1,28.9-8.331a2.184,2.184,0,0,1,.874-.9,2.6,2.6,0,0,1,1.295-.316,2.517,2.517,0,0,1,1.263.311,2.155,2.155,0,0,1,.847.856A2.525,2.525,0,0,1,33.472-7.15Zm-.86-.174a1.536,1.536,0,0,0-.21-.819,1.369,1.369,0,0,0-.572-.522,1.784,1.784,0,0,0-.8-.178,1.544,1.544,0,0,0-1.075.4,1.641,1.641,0,0,0-.508,1.117Zm1.647.348a2.817,2.817,0,0,1,.311-1.35,2.258,2.258,0,0,1,.856-.9,2.364,2.364,0,0,1,1.222-.32,2.268,2.268,0,0,1,1.089.27,1.948,1.948,0,0,1,.769.709v-2.654h.842V-4.45h-.842v-.943a1.949,1.949,0,0,1-.732.737,2.179,2.179,0,0,1-1.135.288A2.3,2.3,0,0,1,35.426-4.7a2.3,2.3,0,0,1-.856-.924A2.879,2.879,0,0,1,34.259-6.976Zm4.246.009a2.039,2.039,0,0,0-.229-.988,1.616,1.616,0,0,0-.618-.645,1.683,1.683,0,0,0-.856-.224,1.685,1.685,0,0,0-.851.22,1.593,1.593,0,0,0-.613.641,2.039,2.039,0,0,0-.229.988,2.086,2.086,0,0,0,.229,1,1.619,1.619,0,0,0,.613.65A1.658,1.658,0,0,0,36.8-5.1a1.683,1.683,0,0,0,.856-.224,1.609,1.609,0,0,0,.618-.65A2.066,2.066,0,0,0,38.505-6.967Zm4.384-.677a3.356,3.356,0,0,1,.421-1.679,3.058,3.058,0,0,1,1.149-1.167,3.167,3.167,0,0,1,1.615-.421,3.278,3.278,0,0,1,1.821.5A2.885,2.885,0,0,1,49.03-8.981h-1a2,2,0,0,0-.764-.888,2.211,2.211,0,0,0-1.194-.311,2.326,2.326,0,0,0-1.2.311,2.176,2.176,0,0,0-.833.883,2.832,2.832,0,0,0-.3,1.341,2.811,2.811,0,0,0,.3,1.332,2.176,2.176,0,0,0,.833.883,2.326,2.326,0,0,0,1.2.311,2.237,2.237,0,0,0,1.194-.307,1.974,1.974,0,0,0,.764-.883h1A2.863,2.863,0,0,1,47.9-4.894a3.3,3.3,0,0,1-1.821.5,3.194,3.194,0,0,1-1.615-.416A3.034,3.034,0,0,1,43.31-5.97,3.331,3.331,0,0,1,42.889-7.644Zm9.564,3.276a2.568,2.568,0,0,1-1.277-.32,2.28,2.28,0,0,1-.9-.911,2.792,2.792,0,0,1-.325-1.368,2.712,2.712,0,0,1,.334-1.359,2.3,2.3,0,0,1,.911-.906,2.642,2.642,0,0,1,1.29-.316,2.642,2.642,0,0,1,1.29.316,2.31,2.31,0,0,1,.911.9,2.7,2.7,0,0,1,.334,1.364A2.673,2.673,0,0,1,54.681-5.6a2.379,2.379,0,0,1-.929.911A2.664,2.664,0,0,1,52.453-4.368Zm0-.732a1.759,1.759,0,0,0,.842-.21,1.6,1.6,0,0,0,.636-.631,2.023,2.023,0,0,0,.243-1.025,2.054,2.054,0,0,0-.238-1.025,1.558,1.558,0,0,0-.622-.627,1.736,1.736,0,0,0-.833-.206,1.728,1.728,0,0,0-.837.206,1.51,1.51,0,0,0-.609.627,2.121,2.121,0,0,0-.229,1.025,2.178,2.178,0,0,0,.224,1.034,1.49,1.49,0,0,0,.6.627A1.684,1.684,0,0,0,52.453-5.1ZM60.57-9.466V-4.45h-.833v-.741a1.621,1.621,0,0,1-.664.6,2.05,2.05,0,0,1-.938.215,2.248,2.248,0,0,1-1.052-.243,1.763,1.763,0,0,1-.737-.728,2.4,2.4,0,0,1-.27-1.181V-9.466H56.9v2.828A1.6,1.6,0,0,0,57.276-5.5a1.341,1.341,0,0,0,1.025.4,1.369,1.369,0,0,0,1.052-.412,1.7,1.7,0,0,0,.384-1.2V-9.466Zm3.853-.092A2.033,2.033,0,0,1,65.906-9a2.131,2.131,0,0,1,.567,1.6V-4.45H65.65V-7.288a1.613,1.613,0,0,0-.375-1.149,1.341,1.341,0,0,0-1.025-.4,1.373,1.373,0,0,0-1.048.412,1.683,1.683,0,0,0-.389,1.2V-4.45H61.98V-9.466h.833v.714a1.653,1.653,0,0,1,.673-.595A2.087,2.087,0,0,1,64.423-9.557Zm4.429.778v2.956a.7.7,0,0,0,.156.517.767.767,0,0,0,.54.151h.613v.7h-.75a1.493,1.493,0,0,1-1.043-.32,1.375,1.375,0,0,1-.348-1.052V-8.779h-.65v-.686h.65v-1.263h.833v1.263h1.309v.686ZM72-8.651a1.6,1.6,0,0,1,.627-.668,1.938,1.938,0,0,1,.993-.238v.86H73.4Q72-8.7,72-7.178V-4.45h-.833V-9.466H72Zm3.011-1.629a.548.548,0,0,1-.4-.165.548.548,0,0,1-.165-.4.548.548,0,0,1,.165-.4.548.548,0,0,1,.4-.165.522.522,0,0,1,.389.165.556.556,0,0,1,.16.4.556.556,0,0,1-.16.4A.522.522,0,0,1,75.012-10.28Zm.4.815V-4.45h-.833V-9.466ZM81.409-7.15a4.9,4.9,0,0,1-.027.5H77.373a1.621,1.621,0,0,0,.508,1.158A1.615,1.615,0,0,0,79-5.073a1.54,1.54,0,0,0,.9-.252A1.332,1.332,0,0,0,80.412-6h.9A2.156,2.156,0,0,1,80.5-4.821a2.431,2.431,0,0,1-1.5.453,2.535,2.535,0,0,1-1.277-.32,2.267,2.267,0,0,1-.883-.911,2.824,2.824,0,0,1-.32-1.368,2.864,2.864,0,0,1,.311-1.364,2.184,2.184,0,0,1,.874-.9A2.6,2.6,0,0,1,79-9.548a2.517,2.517,0,0,1,1.263.311,2.155,2.155,0,0,1,.847.856A2.525,2.525,0,0,1,81.409-7.15Zm-.86-.174a1.536,1.536,0,0,0-.21-.819,1.369,1.369,0,0,0-.572-.522,1.784,1.784,0,0,0-.8-.178,1.544,1.544,0,0,0-1.075.4,1.641,1.641,0,0,0-.508,1.117Zm3.734,2.956a2.594,2.594,0,0,1-1.034-.2,1.744,1.744,0,0,1-.723-.549,1.461,1.461,0,0,1-.293-.81h.86a.844.844,0,0,0,.352.613,1.341,1.341,0,0,0,.828.238,1.205,1.205,0,0,0,.75-.21.643.643,0,0,0,.275-.531.523.523,0,0,0-.293-.49,4.106,4.106,0,0,0-.906-.316,6.659,6.659,0,0,1-.911-.3,1.616,1.616,0,0,1-.6-.448,1.17,1.17,0,0,1-.252-.782,1.186,1.186,0,0,1,.229-.7,1.551,1.551,0,0,1,.65-.508,2.338,2.338,0,0,1,.961-.188,2.052,2.052,0,0,1,1.345.421,1.517,1.517,0,0,1,.549,1.153h-.833a.861.861,0,0,0-.316-.631,1.177,1.177,0,0,0-.773-.238,1.193,1.193,0,0,0-.714.192.594.594,0,0,0-.265.5.552.552,0,0,0,.16.407,1.17,1.17,0,0,0,.4.256,6.938,6.938,0,0,0,.673.215,7.245,7.245,0,0,1,.879.288,1.536,1.536,0,0,1,.581.426,1.138,1.138,0,0,1,.252.741,1.269,1.269,0,0,1-.229.741,1.526,1.526,0,0,1-.645.517A2.306,2.306,0,0,1,84.283-4.368Z" transform="translate(-6584.302 6820.22)"/>
      <g id="Path_42761" data-name="Path 42761" transform="translate(-6606.543 6807.228)" fill="none">
        <path d="M5.491,0A5.491,5.491,0,1,1,0,5.491,5.491,5.491,0,0,1,5.491,0Z" stroke="none"/>
        <path d="M 5.491078853607178 0.9999990463256836 C 3.014688968658447 0.9999990463256836 0.9999990463256836 3.014688968658447 0.9999990463256836 5.491078853607178 C 0.9999990463256836 7.967468738555908 3.014688968658447 9.982158660888672 5.491078853607178 9.982158660888672 C 7.967468738555908 9.982158660888672 9.982158660888672 7.967468738555908 9.982158660888672 5.491078853607178 C 9.982158660888672 3.014688968658447 7.967468738555908 0.9999990463256836 5.491078853607178 0.9999990463256836 M 5.491078853607178 -9.5367431640625e-07 C 8.52371883392334 -9.5367431640625e-07 10.98215866088867 2.458438873291016 10.98215866088867 5.491078853607178 C 10.98215866088867 8.52371883392334 8.52371883392334 10.98215866088867 5.491078853607178 10.98215866088867 C 2.458438873291016 10.98215866088867 -9.5367431640625e-07 8.52371883392334 -9.5367431640625e-07 5.491078853607178 C -9.5367431640625e-07 2.458438873291016 2.458438873291016 -9.5367431640625e-07 5.491078853607178 -9.5367431640625e-07 Z" stroke="none" fill="#000"/>
      </g>
      <path id="_name-4" data-name="✏️name" d="M4.668-5.869H1.886L1.374-4.45H.5L2.8-10.793h.961l2.3,6.342H5.181ZM4.43-6.546,3.277-9.768,2.124-6.546ZM7.9-11.223V-4.45H7.066v-6.772Zm2.251,0V-4.45H9.317v-6.772ZM13.7-7.644a3.356,3.356,0,0,1,.421-1.679,3.058,3.058,0,0,1,1.149-1.167,3.167,3.167,0,0,1,1.615-.421,3.278,3.278,0,0,1,1.821.5,2.885,2.885,0,0,1,1.135,1.428h-1a2,2,0,0,0-.764-.888,2.211,2.211,0,0,0-1.194-.311,2.326,2.326,0,0,0-1.2.311,2.176,2.176,0,0,0-.833.883,2.832,2.832,0,0,0-.3,1.341,2.811,2.811,0,0,0,.3,1.332,2.176,2.176,0,0,0,.833.883,2.326,2.326,0,0,0,1.2.311,2.237,2.237,0,0,0,1.194-.307,1.974,1.974,0,0,0,.764-.883h1a2.863,2.863,0,0,1-1.135,1.414,3.3,3.3,0,0,1-1.821.5,3.194,3.194,0,0,1-1.615-.416A3.034,3.034,0,0,1,14.122-5.97,3.331,3.331,0,0,1,13.7-7.644Zm9.564,3.276a2.568,2.568,0,0,1-1.277-.32,2.28,2.28,0,0,1-.9-.911,2.792,2.792,0,0,1-.325-1.368A2.711,2.711,0,0,1,21.1-8.326a2.3,2.3,0,0,1,.911-.906,2.642,2.642,0,0,1,1.29-.316,2.642,2.642,0,0,1,1.29.316,2.31,2.31,0,0,1,.911.9,2.7,2.7,0,0,1,.334,1.364A2.673,2.673,0,0,1,25.493-5.6a2.379,2.379,0,0,1-.929.911A2.664,2.664,0,0,1,23.265-4.368Zm0-.732a1.759,1.759,0,0,0,.842-.21,1.6,1.6,0,0,0,.636-.631,2.023,2.023,0,0,0,.243-1.025,2.054,2.054,0,0,0-.238-1.025,1.558,1.558,0,0,0-.622-.627,1.736,1.736,0,0,0-.833-.206,1.728,1.728,0,0,0-.837.206,1.51,1.51,0,0,0-.609.627,2.121,2.121,0,0,0-.229,1.025,2.178,2.178,0,0,0,.224,1.034,1.49,1.49,0,0,0,.6.627A1.684,1.684,0,0,0,23.265-5.1Zm8.118-4.365V-4.45H30.55v-.741a1.621,1.621,0,0,1-.664.6,2.05,2.05,0,0,1-.938.215A2.248,2.248,0,0,1,27.9-4.62a1.763,1.763,0,0,1-.737-.728,2.4,2.4,0,0,1-.27-1.181V-9.466h.824v2.828A1.6,1.6,0,0,0,28.088-5.5a1.341,1.341,0,0,0,1.025.4,1.369,1.369,0,0,0,1.052-.412,1.7,1.7,0,0,0,.384-1.2V-9.466Zm3.853-.092A2.033,2.033,0,0,1,36.718-9a2.131,2.131,0,0,1,.567,1.6V-4.45h-.824V-7.288a1.613,1.613,0,0,0-.375-1.149,1.341,1.341,0,0,0-1.025-.4,1.373,1.373,0,0,0-1.048.412,1.683,1.683,0,0,0-.389,1.2V-4.45h-.833V-9.466h.833v.714a1.653,1.653,0,0,1,.673-.595A2.086,2.086,0,0,1,35.235-9.557Zm4.429.778v2.956a.7.7,0,0,0,.156.517.767.767,0,0,0,.54.151h.613v.7h-.75a1.493,1.493,0,0,1-1.043-.32,1.375,1.375,0,0,1-.348-1.052V-8.779h-.65v-.686h.65v-1.263h.833v1.263h1.309v.686Zm3.148.128a1.6,1.6,0,0,1,.627-.668,1.938,1.938,0,0,1,.993-.238v.86h-.22q-1.4,0-1.4,1.519V-4.45H41.98V-9.466h.833Zm3.011-1.629a.548.548,0,0,1-.4-.165.548.548,0,0,1-.165-.4.548.548,0,0,1,.165-.4.548.548,0,0,1,.4-.165.522.522,0,0,1,.389.165.556.556,0,0,1,.16.4.556.556,0,0,1-.16.4A.522.522,0,0,1,45.824-10.28Zm.4.815V-4.45h-.833V-9.466ZM52.221-7.15a4.9,4.9,0,0,1-.027.5H48.185a1.621,1.621,0,0,0,.508,1.158,1.615,1.615,0,0,0,1.121.416,1.54,1.54,0,0,0,.9-.252A1.332,1.332,0,0,0,51.223-6h.9a2.156,2.156,0,0,1-.805,1.176,2.431,2.431,0,0,1-1.5.453,2.535,2.535,0,0,1-1.277-.32,2.267,2.267,0,0,1-.883-.911,2.824,2.824,0,0,1-.32-1.368,2.864,2.864,0,0,1,.311-1.364,2.184,2.184,0,0,1,.874-.9,2.6,2.6,0,0,1,1.295-.316,2.517,2.517,0,0,1,1.263.311,2.155,2.155,0,0,1,.847.856A2.525,2.525,0,0,1,52.221-7.15Zm-.86-.174a1.536,1.536,0,0,0-.21-.819,1.369,1.369,0,0,0-.572-.522,1.784,1.784,0,0,0-.8-.178,1.544,1.544,0,0,0-1.075.4,1.641,1.641,0,0,0-.508,1.117Zm3.734,2.956a2.594,2.594,0,0,1-1.034-.2,1.744,1.744,0,0,1-.723-.549,1.461,1.461,0,0,1-.293-.81h.86a.844.844,0,0,0,.352.613,1.341,1.341,0,0,0,.828.238,1.205,1.205,0,0,0,.75-.21.643.643,0,0,0,.275-.531.523.523,0,0,0-.293-.49,4.106,4.106,0,0,0-.906-.316,6.659,6.659,0,0,1-.911-.3,1.616,1.616,0,0,1-.6-.448,1.17,1.17,0,0,1-.252-.782,1.186,1.186,0,0,1,.229-.7,1.551,1.551,0,0,1,.65-.508,2.338,2.338,0,0,1,.961-.188,2.052,2.052,0,0,1,1.345.421,1.517,1.517,0,0,1,.549,1.153h-.833a.861.861,0,0,0-.316-.631,1.177,1.177,0,0,0-.773-.238,1.193,1.193,0,0,0-.714.192.594.594,0,0,0-.265.5.552.552,0,0,0,.16.407,1.17,1.17,0,0,0,.4.256,6.938,6.938,0,0,0,.673.215,7.245,7.245,0,0,1,.879.288,1.536,1.536,0,0,1,.581.426,1.138,1.138,0,0,1,.252.741,1.269,1.269,0,0,1-.229.741,1.526,1.526,0,0,1-.645.517A2.306,2.306,0,0,1,55.095-4.368Z" transform="translate(-6584.161 6758.598)"/>
      <g id="Path_42762" data-name="Path 42762" transform="translate(-6606.543 6745.605)" fill="none">
        <path d="M5.491,0A5.491,5.491,0,1,1,0,5.491,5.491,5.491,0,0,1,5.491,0Z" stroke="none"/>
        <path d="M 5.491078853607178 0.9999990463256836 C 3.014688968658447 0.9999990463256836 0.9999990463256836 3.014688968658447 0.9999990463256836 5.491078853607178 C 0.9999990463256836 7.967468738555908 3.014688968658447 9.982158660888672 5.491078853607178 9.982158660888672 C 7.967468738555908 9.982158660888672 9.982158660888672 7.967468738555908 9.982158660888672 5.491078853607178 C 9.982158660888672 3.014688968658447 7.967468738555908 0.9999990463256836 5.491078853607178 0.9999990463256836 M 5.491078853607178 -9.5367431640625e-07 C 8.52371883392334 -9.5367431640625e-07 10.98215866088867 2.458438873291016 10.98215866088867 5.491078853607178 C 10.98215866088867 8.52371883392334 8.52371883392334 10.98215866088867 5.491078853607178 10.98215866088867 C 2.458438873291016 10.98215866088867 -9.5367431640625e-07 8.52371883392334 -9.5367431640625e-07 5.491078853607178 C -9.5367431640625e-07 2.458438873291016 2.458438873291016 -9.5367431640625e-07 5.491078853607178 -9.5367431640625e-07 Z" stroke="none" fill="#000"/>
      </g>
      <g id="Path_42763" data-name="Path 42763" transform="translate(-6605.323 6746.826)">
        <path d="M 4.270839214324951 8.041679382324219 C 2.191589117050171 8.041679382324219 0.4999992251396179 6.350089073181152 0.4999992251396179 4.270839214324951 C 0.4999992251396179 2.191589117050171 2.191589117050171 0.4999992251396179 4.270839214324951 0.4999992251396179 C 6.350089073181152 0.4999992251396179 8.041679382324219 2.191589117050171 8.041679382324219 4.270839214324951 C 8.041679382324219 6.350089073181152 6.350089073181152 8.041679382324219 4.270839214324951 8.041679382324219 Z" stroke="none"/>
        <path d="M 4.270839214324951 0.9999990463256836 C 2.467289447784424 0.9999990463256836 0.9999990463256836 2.467289447784424 0.9999990463256836 4.270839214324951 C 0.9999990463256836 6.074389457702637 2.467289447784424 7.541679382324219 4.270839214324951 7.541679382324219 C 6.074389457702637 7.541679382324219 7.541679382324219 6.074389457702637 7.541679382324219 4.270839214324951 C 7.541679382324219 2.467289447784424 6.074389457702637 0.9999990463256836 4.270839214324951 0.9999990463256836 M 4.270839214324951 -9.5367431640625e-07 C 6.62955904006958 -9.5367431640625e-07 8.541679382324219 1.912119388580322 8.541679382324219 4.270839214324951 C 8.541679382324219 6.62955904006958 6.62955904006958 8.541679382324219 4.270839214324951 8.541679382324219 C 1.912119388580322 8.541679382324219 -9.5367431640625e-07 6.62955904006958 -9.5367431640625e-07 4.270839214324951 C -9.5367431640625e-07 1.912119388580322 1.912119388580322 -9.5367431640625e-07 4.270839214324951 -9.5367431640625e-07 Z" stroke="none" fill="#000"/>
      </g>
      <g id="Group_39051" data-name="Group 39051" transform="translate(-6390.552 6843.835)" clip-path="url(#clip-path)">
        <path id="Path_41468" data-name="Path 41468" d="M27.33,12.325H12.978a26.649,26.649,0,0,1,2.833-8.919Q17.758,0,20.114,0t4.3,3.406a27.814,27.814,0,0,1,2.914,8.919m-15,7.787q0-2.595.244-5.189H27.656q.244,2.595.243,5.189T27.656,25.3H12.574q-.244-2.595-.244-5.186m26.353-7.787H29.926Q28.709,4.864,25.871.805a19.878,19.878,0,0,1,7.66,4.338,20.52,20.52,0,0,1,5.152,7.182M14.357.805Q11.438,4.864,10.3,12.325H1.545A20.532,20.532,0,0,1,6.694,5.149,19.874,19.874,0,0,1,14.357.805M39.5,14.92a18.716,18.716,0,0,1,0,10.38H30.253q.242-2.676.243-5.19t-.243-5.189ZM9.735,20.113q0,2.433.243,5.19H.734A19.689,19.689,0,0,1,0,20.113a19.678,19.678,0,0,1,.734-5.189H9.978q-.242,2.671-.243,5.189M12.978,27.9h14.27a26.655,26.655,0,0,1-2.833,8.919q-1.947,3.406-4.3,3.406t-4.3-3.406a26.639,26.639,0,0,1-2.833-8.924ZM25.871,39.408q2.924-4.054,4.055-11.515h8.757a20.529,20.529,0,0,1-5.149,7.176,19.854,19.854,0,0,1-7.663,4.339M1.545,27.893H10.3q1.216,7.46,4.054,11.515A19.856,19.856,0,0,1,6.7,35.07a20.522,20.522,0,0,1-5.152-7.177" transform="translate(0 0)" fill="#005c8a"/>
      </g>
      <g id="surface1" transform="translate(-6670 6690.522) rotate(-9)">
        <path id="Path_11532" data-name="Path 11532" d="M39.489,32.694a24.7,24.7,0,0,1-5.916,9.216,30.965,30.965,0,0,1-11.562,6.85,3.536,3.536,0,0,1-1.124.2h-.042a3.59,3.59,0,0,1-.69-.068,3.726,3.726,0,0,1-.474-.129A30.964,30.964,0,0,1,8.108,41.914,24.653,24.653,0,0,1,2.193,32.7C-.2,26.216-.061,19.073.049,13.333l0-.088c.022-.474.036-.972.044-1.522A5.189,5.189,0,0,1,4.981,6.64,20.135,20.135,0,0,0,18.685.863l.032-.03a3.136,3.136,0,0,1,4.258,0l.032.03a20.138,20.138,0,0,0,13.7,5.776A5.189,5.189,0,0,1,41.6,11.723c.008.554.022,1.051.044,1.522v.037C41.752,19.033,41.887,26.19,39.489,32.694Zm0,0" transform="translate(0 0)" fill="#48a6d9"/>
        <path id="Path_11533" data-name="Path 11533" d="M18.6,32.693a24.7,24.7,0,0,1-5.916,9.216,30.965,30.965,0,0,1-11.562,6.85,3.623,3.623,0,0,1-.477.13A3.6,3.6,0,0,1,0,48.957V0A3.141,3.141,0,0,1,2.087.833l.032.03a20.138,20.138,0,0,0,13.7,5.776,5.189,5.189,0,0,1,4.886,5.083c.008.554.022,1.051.044,1.522v.037C20.864,19.033,21,26.19,18.6,32.693Zm0,0" transform="translate(20.888 0)" fill="#005c8a"/>
        <path id="Path_11534" data-name="Path 11534" d="M24.4,12.2A12.217,12.217,0,0,1,12.245,24.4H12.2A12.2,12.2,0,1,1,12.2,0h.043A12.217,12.217,0,0,1,24.4,12.2Zm0,0" transform="translate(8.644 12.278)" fill="#fff"/>
        <path id="Path_11535" data-name="Path 11535" d="M12.158,12.2A12.217,12.217,0,0,1,0,24.4V0A12.217,12.217,0,0,1,12.158,12.2Zm0,0" transform="translate(20.888 12.278)" fill="#e1ebf0"/>
        <path id="Path_11536" data-name="Path 11536" d="M11.689,2.452l-5.5,5.5L5.006,9.136a1.438,1.438,0,0,1-2.032,0L.421,6.581A1.436,1.436,0,0,1,2.452,4.55L3.99,6.088,9.658.421a1.436,1.436,0,1,1,2.031,2.031Zm0,0" transform="translate(14.695 20.27)" fill="#005c8a"/>
        <path id="Path_11537" data-name="Path 11537" d="M5.5,2.452,0,7.948V3.885L3.464.421A1.436,1.436,0,0,1,5.5,2.452Zm0,0" transform="translate(20.888 20.27)" fill="#005c8a"/>
      </g>
      <path id="Path_42490" data-name="Path 42490" d="M14.8,16.9a5.487,5.487,0,0,1-.763,2.808,5.939,5.939,0,0,1-2.246,2.16,8.113,8.113,0,0,1-3.5.993V25.2H6.45V22.835a8.123,8.123,0,0,1-4.636-1.742A5.147,5.147,0,0,1,0,17.076H4.319A2.534,2.534,0,0,0,6.45,19.581v-5.5a25.313,25.313,0,0,1-3.34-1.037,5.4,5.4,0,0,1-2.189-1.67A4.889,4.889,0,0,1,0,8.236,5.2,5.2,0,0,1,1.8,4.147,7.772,7.772,0,0,1,6.45,2.333V0H8.293V2.333A7.491,7.491,0,0,1,12.714,4a5.616,5.616,0,0,1,1.857,3.974H10.223A2.662,2.662,0,0,0,8.293,5.644v5.443a27.839,27.839,0,0,1,3.412,1.051,5.348,5.348,0,0,1,2.174,1.641A4.828,4.828,0,0,1,14.8,16.9ZM4.2,8.034A2.112,2.112,0,0,0,4.78,9.575a4.192,4.192,0,0,0,1.67.965V5.558a2.7,2.7,0,0,0-1.641.778A2.358,2.358,0,0,0,4.2,8.034Zm4.089,11.6a2.93,2.93,0,0,0,1.713-.893,2.415,2.415,0,0,0,.619-1.67,2.01,2.01,0,0,0-.6-1.526,4.576,4.576,0,0,0-1.728-.95Z" transform="translate(-6657.212 6850.285) rotate(-13)" fill="#373464"/>
      <path id="Path_42491" data-name="Path 42491" d="M7.96,9.091a2.951,2.951,0,0,1-.41,1.51,3.194,3.194,0,0,1-1.208,1.162A4.363,4.363,0,0,1,4.46,12.3v1.254H3.469v-1.27a4.369,4.369,0,0,1-2.493-.937A2.768,2.768,0,0,1,0,9.184H2.323a1.363,1.363,0,0,0,1.146,1.347V7.573a13.614,13.614,0,0,1-1.8-.558A2.9,2.9,0,0,1,.5,6.117,2.629,2.629,0,0,1,0,4.429a2.794,2.794,0,0,1,.968-2.2,4.18,4.18,0,0,1,2.5-.976V0H4.46V1.254a4.028,4.028,0,0,1,2.377.9,3.02,3.02,0,0,1,1,2.137H5.5A1.432,1.432,0,0,0,4.46,3.035V5.962A14.972,14.972,0,0,1,6.3,6.528a2.876,2.876,0,0,1,1.169.883A2.6,2.6,0,0,1,7.96,9.091Zm-5.7-4.77a1.136,1.136,0,0,0,.31.829,2.255,2.255,0,0,0,.9.519V2.989a1.453,1.453,0,0,0-.883.418A1.268,1.268,0,0,0,2.261,4.321Zm2.2,6.241a1.576,1.576,0,0,0,.921-.48,1.3,1.3,0,0,0,.333-.9,1.081,1.081,0,0,0-.325-.821,2.461,2.461,0,0,0-.929-.511Z" transform="translate(-6633.26 6865.079)" fill="#373464"/>
    </g>
  </g>
</svg>
