<svg xmlns="http://www.w3.org/2000/svg" width="784" height="664" viewBox="0 0 784 664">
  <g id="Group_40008" data-name="Group 40008" transform="translate(-109 -6284)">
    <rect id="Rectangle_21803" data-name="Rectangle 21803" width="784" height="664" rx="20" transform="translate(893 6948) rotate(180)" fill="#f0f0f3"/>
    <rect id="Rectangle_21165" data-name="Rectangle 21165" width="433.983" height="302.356" rx="12" transform="translate(296.008 6453.973)" fill="#c4d9e4"/>
    <rect id="Rectangle_21164" data-name="Rectangle 21164" width="412.983" height="283.356" rx="12" transform="translate(306.012 6462.973)" fill="#fff"/>
    <path id="_name" data-name="✏️name" d="M8.475-10.455,5.07-3.945V0H3.7V-3.945l-3.42-6.51H1.8L4.38-5.16l2.58-5.295ZM13.5.135A4.208,4.208,0,0,1,11.408-.39a3.738,3.738,0,0,1-1.47-1.492,4.576,4.576,0,0,1-.532-2.243,4.444,4.444,0,0,1,.547-2.227,3.773,3.773,0,0,1,1.493-1.485,4.33,4.33,0,0,1,2.115-.517,4.33,4.33,0,0,1,2.115.517A3.786,3.786,0,0,1,17.167-6.36a4.433,4.433,0,0,1,.548,2.235,4.38,4.38,0,0,1-.562,2.243A3.9,3.9,0,0,1,15.63-.39,4.366,4.366,0,0,1,13.5.135Zm0-1.2a2.882,2.882,0,0,0,1.38-.345,2.625,2.625,0,0,0,1.043-1.035,3.315,3.315,0,0,0,.4-1.68,3.366,3.366,0,0,0-.39-1.68,2.554,2.554,0,0,0-1.02-1.028,2.846,2.846,0,0,0-1.365-.337,2.833,2.833,0,0,0-1.372.337,2.474,2.474,0,0,0-1,1.028,3.476,3.476,0,0,0-.375,1.68,3.57,3.57,0,0,0,.368,1.695A2.443,2.443,0,0,0,12.15-1.4,2.76,2.76,0,0,0,13.5-1.065ZM26.805-8.22V0H25.44V-1.215a2.657,2.657,0,0,1-1.087.983A3.36,3.36,0,0,1,22.815.12a3.685,3.685,0,0,1-1.725-.4A2.89,2.89,0,0,1,19.882-1.47,3.926,3.926,0,0,1,19.44-3.4V-8.22h1.35v4.635a2.62,2.62,0,0,0,.615,1.867,2.2,2.2,0,0,0,1.68.652A2.245,2.245,0,0,0,24.81-1.74,2.779,2.779,0,0,0,25.44-3.7V-8.22ZM30.48-6.885a2.618,2.618,0,0,1,1.028-1.1,3.176,3.176,0,0,1,1.627-.39v1.41h-.36q-2.295,0-2.295,2.49V0H29.115V-8.22H30.48Zm7.725,2.76a4.65,4.65,0,0,1,.51-2.227A3.669,3.669,0,0,1,40.132-7.83a4.073,4.073,0,0,1,2.078-.525,4.056,4.056,0,0,1,2.5.735,3.469,3.469,0,0,1,1.3,2.04h-1.47a2.111,2.111,0,0,0-.817-1.185A2.523,2.523,0,0,0,42.21-7.2a2.418,2.418,0,0,0-1.89.8,3.288,3.288,0,0,0-.72,2.273,3.341,3.341,0,0,0,.72,2.295,2.408,2.408,0,0,0,1.89.81,2.553,2.553,0,0,0,1.5-.42,2.13,2.13,0,0,0,.825-1.2h1.47a3.616,3.616,0,0,1-1.32,2.017A3.954,3.954,0,0,1,42.21.135,4.073,4.073,0,0,1,40.132-.39a3.658,3.658,0,0,1-1.417-1.485A4.728,4.728,0,0,1,38.205-4.125Zm9.1-.015a4.617,4.617,0,0,1,.51-2.213,3.7,3.7,0,0,1,1.4-1.478,3.847,3.847,0,0,1,1.987-.525,3.648,3.648,0,0,1,1.875.465A3.1,3.1,0,0,1,54.27-6.72v-1.5h1.38V0H54.27V-1.53A3.216,3.216,0,0,1,53.063-.338a3.612,3.612,0,0,1-1.868.472,3.726,3.726,0,0,1-1.98-.54,3.787,3.787,0,0,1-1.4-1.515A4.718,4.718,0,0,1,47.31-4.14Zm6.96.015a3.342,3.342,0,0,0-.375-1.62A2.648,2.648,0,0,0,52.882-6.8a2.758,2.758,0,0,0-1.4-.367,2.762,2.762,0,0,0-1.4.36,2.612,2.612,0,0,0-1,1.05,3.342,3.342,0,0,0-.375,1.62A3.419,3.419,0,0,0,49.08-2.5a2.653,2.653,0,0,0,1,1.065,2.718,2.718,0,0,0,1.4.367,2.758,2.758,0,0,0,1.4-.367A2.637,2.637,0,0,0,53.9-2.5,3.386,3.386,0,0,0,54.27-4.125Zm5.055-2.76a2.618,2.618,0,0,1,1.028-1.1,3.176,3.176,0,0,1,1.627-.39v1.41h-.36q-2.295,0-2.295,2.49V0H57.96V-8.22h1.365Zm3.72,2.745a4.617,4.617,0,0,1,.51-2.213,3.7,3.7,0,0,1,1.4-1.478,3.875,3.875,0,0,1,2-.525,3.718,3.718,0,0,1,1.785.443,3.193,3.193,0,0,1,1.26,1.162V-11.1h1.38V0h-1.38V-1.545a3.194,3.194,0,0,1-1.2,1.207,3.572,3.572,0,0,1-1.86.472,3.765,3.765,0,0,1-1.987-.54,3.77,3.77,0,0,1-1.4-1.515A4.718,4.718,0,0,1,63.045-4.14Zm6.96.015a3.342,3.342,0,0,0-.375-1.62A2.648,2.648,0,0,0,68.618-6.8a2.758,2.758,0,0,0-1.4-.367,2.762,2.762,0,0,0-1.4.36,2.612,2.612,0,0,0-1,1.05,3.342,3.342,0,0,0-.375,1.62A3.419,3.419,0,0,0,64.815-2.5a2.653,2.653,0,0,0,1,1.065,2.718,2.718,0,0,0,1.4.367,2.758,2.758,0,0,0,1.4-.367A2.637,2.637,0,0,0,69.63-2.5,3.386,3.386,0,0,0,70.005-4.125Zm8.4-5.43a.9.9,0,0,1-.66-.27.9.9,0,0,1-.27-.66.9.9,0,0,1,.27-.66.9.9,0,0,1,.66-.27.856.856,0,0,1,.637.27.911.911,0,0,1,.263.66.911.911,0,0,1-.263.66A.856.856,0,0,1,78.4-9.555Zm.66,1.335V0H77.7V-8.22ZM84.3.135a4.252,4.252,0,0,1-1.695-.322,2.859,2.859,0,0,1-1.185-.9,2.4,2.4,0,0,1-.48-1.327h1.41a1.384,1.384,0,0,0,.577,1,2.2,2.2,0,0,0,1.358.39,1.975,1.975,0,0,0,1.23-.345,1.054,1.054,0,0,0,.45-.87.858.858,0,0,0-.48-.8A6.73,6.73,0,0,0,84-3.555a10.914,10.914,0,0,1-1.493-.487,2.648,2.648,0,0,1-.99-.735,1.918,1.918,0,0,1-.412-1.283,1.944,1.944,0,0,1,.375-1.155,2.542,2.542,0,0,1,1.065-.832,3.832,3.832,0,0,1,1.575-.307,3.363,3.363,0,0,1,2.2.69,2.486,2.486,0,0,1,.9,1.89H85.86a1.41,1.41,0,0,0-.518-1.035,1.93,1.93,0,0,0-1.268-.39,1.955,1.955,0,0,0-1.17.315.973.973,0,0,0-.435.825.9.9,0,0,0,.262.668,1.918,1.918,0,0,0,.66.42,11.372,11.372,0,0,0,1.1.352,11.875,11.875,0,0,1,1.44.472,2.518,2.518,0,0,1,.952.7A1.865,1.865,0,0,1,87.3-2.235a2.08,2.08,0,0,1-.375,1.215,2.5,2.5,0,0,1-1.058.848A3.78,3.78,0,0,1,84.3.135ZM92.715-4.14a4.617,4.617,0,0,1,.51-2.213,3.7,3.7,0,0,1,1.4-1.478,3.847,3.847,0,0,1,1.987-.525,3.648,3.648,0,0,1,1.875.465,3.1,3.1,0,0,1,1.185,1.17v-1.5h1.38V0h-1.38V-1.53A3.216,3.216,0,0,1,98.467-.338,3.612,3.612,0,0,1,96.6.135a3.726,3.726,0,0,1-1.98-.54,3.787,3.787,0,0,1-1.4-1.515A4.718,4.718,0,0,1,92.715-4.14Zm6.96.015a3.342,3.342,0,0,0-.375-1.62A2.648,2.648,0,0,0,98.287-6.8a2.758,2.758,0,0,0-1.4-.367,2.762,2.762,0,0,0-1.4.36,2.612,2.612,0,0,0-1,1.05,3.342,3.342,0,0,0-.375,1.62A3.419,3.419,0,0,0,94.485-2.5a2.653,2.653,0,0,0,1,1.065,2.718,2.718,0,0,0,1.4.367,2.758,2.758,0,0,0,1.4-.367A2.637,2.637,0,0,0,99.3-2.5,3.386,3.386,0,0,0,99.675-4.125Zm3.18,0a4.65,4.65,0,0,1,.51-2.227,3.669,3.669,0,0,1,1.418-1.478,4.073,4.073,0,0,1,2.077-.525,4.056,4.056,0,0,1,2.5.735,3.469,3.469,0,0,1,1.3,2.04h-1.47a2.111,2.111,0,0,0-.817-1.185A2.523,2.523,0,0,0,106.86-7.2a2.418,2.418,0,0,0-1.89.8,3.288,3.288,0,0,0-.72,2.273,3.341,3.341,0,0,0,.72,2.295,2.408,2.408,0,0,0,1.89.81,2.553,2.553,0,0,0,1.5-.42,2.13,2.13,0,0,0,.825-1.2h1.47a3.616,3.616,0,0,1-1.32,2.017,3.954,3.954,0,0,1-2.475.757,4.073,4.073,0,0,1-2.077-.525,3.658,3.658,0,0,1-1.418-1.485A4.728,4.728,0,0,1,102.855-4.125Zm11.28-2.97V-2.25a1.153,1.153,0,0,0,.255.847,1.257,1.257,0,0,0,.885.248h1V0h-1.23a2.448,2.448,0,0,1-1.71-.525,2.253,2.253,0,0,1-.57-1.725V-7.095h-1.065V-8.22h1.065v-2.07h1.365v2.07h2.145v1.125Zm4.5-2.46a.9.9,0,0,1-.66-.27.9.9,0,0,1-.27-.66.9.9,0,0,1,.27-.66.9.9,0,0,1,.66-.27.856.856,0,0,1,.637.27.911.911,0,0,1,.263.66.911.911,0,0,1-.263.66A.856.856,0,0,1,118.635-9.555Zm.66,1.335V0H117.93V-8.22Zm5.385,6.96,2.55-6.96h1.455L125.46,0h-1.59l-3.225-8.22h1.47Zm12.855-3.165a8.034,8.034,0,0,1-.045.825h-6.57a2.658,2.658,0,0,0,.833,1.9,2.648,2.648,0,0,0,1.838.682,2.524,2.524,0,0,0,1.477-.412,2.184,2.184,0,0,0,.833-1.1h1.47a3.534,3.534,0,0,1-1.32,1.928,3.984,3.984,0,0,1-2.46.743A4.155,4.155,0,0,1,131.5-.39a3.716,3.716,0,0,1-1.447-1.492,4.629,4.629,0,0,1-.525-2.243,4.7,4.7,0,0,1,.51-2.235,3.58,3.58,0,0,1,1.432-1.477,4.264,4.264,0,0,1,2.123-.517,4.125,4.125,0,0,1,2.07.51,3.531,3.531,0,0,1,1.387,1.4A4.139,4.139,0,0,1,137.535-4.425Zm-1.41-.285a2.518,2.518,0,0,0-.345-1.342,2.243,2.243,0,0,0-.937-.855A2.924,2.924,0,0,0,133.53-7.2a2.53,2.53,0,0,0-1.762.66,2.689,2.689,0,0,0-.833,1.83ZM154.29-8.22,151.725,0h-1.41l-1.98-6.525L146.355,0h-1.41l-2.58-8.22h1.4l1.89,6.9,2.04-6.9h1.395l2,6.915,1.86-6.915ZM159.225.135a4.208,4.208,0,0,1-2.092-.525,3.737,3.737,0,0,1-1.47-1.492,4.576,4.576,0,0,1-.533-2.243,4.444,4.444,0,0,1,.548-2.227,3.773,3.773,0,0,1,1.492-1.485,4.33,4.33,0,0,1,2.115-.517,4.33,4.33,0,0,1,2.115.517,3.786,3.786,0,0,1,1.493,1.477,4.433,4.433,0,0,1,.548,2.235,4.38,4.38,0,0,1-.562,2.243A3.9,3.9,0,0,1,161.355-.39,4.366,4.366,0,0,1,159.225.135Zm0-1.2a2.882,2.882,0,0,0,1.38-.345,2.625,2.625,0,0,0,1.043-1.035,3.315,3.315,0,0,0,.4-1.68,3.366,3.366,0,0,0-.39-1.68,2.554,2.554,0,0,0-1.02-1.028,2.846,2.846,0,0,0-1.365-.337,2.833,2.833,0,0,0-1.372.337,2.474,2.474,0,0,0-1,1.028,3.476,3.476,0,0,0-.375,1.68,3.569,3.569,0,0,0,.368,1.695,2.443,2.443,0,0,0,.982,1.028A2.76,2.76,0,0,0,159.225-1.065Zm7.38-5.82a2.618,2.618,0,0,1,1.027-1.1,3.176,3.176,0,0,1,1.628-.39v1.41h-.36q-2.295,0-2.295,2.49V0H165.24V-8.22h1.365ZM172.2-11.1V0h-1.365V-11.1Zm1.815,6.96a4.617,4.617,0,0,1,.51-2.213,3.7,3.7,0,0,1,1.4-1.478,3.875,3.875,0,0,1,2-.525,3.718,3.718,0,0,1,1.785.443,3.193,3.193,0,0,1,1.26,1.162V-11.1h1.38V0h-1.38V-1.545a3.194,3.194,0,0,1-1.2,1.207,3.572,3.572,0,0,1-1.86.472,3.765,3.765,0,0,1-1.988-.54,3.77,3.77,0,0,1-1.4-1.515A4.718,4.718,0,0,1,174.015-4.14Zm6.96.015a3.342,3.342,0,0,0-.375-1.62A2.648,2.648,0,0,0,179.587-6.8a2.758,2.758,0,0,0-1.4-.367,2.762,2.762,0,0,0-1.4.36,2.612,2.612,0,0,0-1.005,1.05,3.342,3.342,0,0,0-.375,1.62,3.419,3.419,0,0,0,.375,1.642,2.653,2.653,0,0,0,1.005,1.065,2.718,2.718,0,0,0,1.4.367,2.758,2.758,0,0,0,1.4-.367A2.637,2.637,0,0,0,180.6-2.5,3.386,3.386,0,0,0,180.975-4.125Zm14.64-4.095L193.05,0h-1.41l-1.98-6.525L187.68,0h-1.41l-2.58-8.22h1.4l1.89,6.9,2.04-6.9h1.395l2,6.915,1.86-6.915Zm2.055-1.335a.9.9,0,0,1-.66-.27.9.9,0,0,1-.27-.66.9.9,0,0,1,.27-.66.9.9,0,0,1,.66-.27.856.856,0,0,1,.637.27.911.911,0,0,1,.262.66.911.911,0,0,1-.262.66A.856.856,0,0,1,197.67-9.555Zm.66,1.335V0h-1.365V-8.22Zm1.815,4.08a4.617,4.617,0,0,1,.51-2.213,3.7,3.7,0,0,1,1.4-1.478,3.875,3.875,0,0,1,2-.525,3.718,3.718,0,0,1,1.785.443A3.193,3.193,0,0,1,207.1-6.75V-11.1h1.38V0H207.1V-1.545a3.194,3.194,0,0,1-1.2,1.207,3.572,3.572,0,0,1-1.86.472,3.765,3.765,0,0,1-1.988-.54,3.77,3.77,0,0,1-1.4-1.515A4.718,4.718,0,0,1,200.145-4.14Zm6.96.015a3.342,3.342,0,0,0-.375-1.62A2.648,2.648,0,0,0,205.717-6.8a2.758,2.758,0,0,0-1.4-.367,2.762,2.762,0,0,0-1.4.36,2.612,2.612,0,0,0-1.005,1.05,3.342,3.342,0,0,0-.375,1.62,3.419,3.419,0,0,0,.375,1.642,2.653,2.653,0,0,0,1.005,1.065,2.718,2.718,0,0,0,1.4.367,2.758,2.758,0,0,0,1.4-.367A2.637,2.637,0,0,0,206.73-2.5,3.386,3.386,0,0,0,207.1-4.125Zm11.19-.3a8.034,8.034,0,0,1-.045.825h-6.57a2.658,2.658,0,0,0,.833,1.9,2.648,2.648,0,0,0,1.838.682,2.524,2.524,0,0,0,1.477-.412,2.184,2.184,0,0,0,.833-1.1h1.47a3.534,3.534,0,0,1-1.32,1.928,3.984,3.984,0,0,1-2.46.743,4.155,4.155,0,0,1-2.093-.525,3.716,3.716,0,0,1-1.447-1.492,4.629,4.629,0,0,1-.525-2.243,4.7,4.7,0,0,1,.51-2.235,3.58,3.58,0,0,1,1.432-1.477,4.264,4.264,0,0,1,2.123-.517,4.125,4.125,0,0,1,2.07.51,3.531,3.531,0,0,1,1.387,1.4A4.139,4.139,0,0,1,218.295-4.425Zm-1.41-.285a2.518,2.518,0,0,0-.345-1.342,2.243,2.243,0,0,0-.937-.855A2.924,2.924,0,0,0,214.29-7.2a2.53,2.53,0,0,0-1.762.66,2.689,2.689,0,0,0-.833,1.83Zm10.725,7.5A9.555,9.555,0,0,1,225.368-.8a13.459,13.459,0,0,1-.8-4.695,13.529,13.529,0,0,1,.848-4.823,9.515,9.515,0,0,1,2.423-3.7h1.425v.135a10.038,10.038,0,0,0-2.527,3.787,12.745,12.745,0,0,0-.848,4.6,12.41,12.41,0,0,0,.8,4.44,10.7,10.7,0,0,0,2.348,3.7V2.79ZM230.325-9.6v-1.245h2.82V0h-1.38V-9.6Zm6.915,6.69a2.149,2.149,0,0,0,.7,1.32,2.207,2.207,0,0,0,1.477.465,2,2,0,0,0,1.837-.975,6.514,6.514,0,0,0,.563-3.285,2.264,2.264,0,0,1-1.05,1.057,3.488,3.488,0,0,1-1.635.383,3.805,3.805,0,0,1-1.792-.412A3,3,0,0,1,236.1-5.565a3.84,3.84,0,0,1-.45-1.92,3.609,3.609,0,0,1,.93-2.588,3.461,3.461,0,0,1,2.64-.983,3.19,3.19,0,0,1,2.948,1.365,7.819,7.819,0,0,1,.848,4.065,12.046,12.046,0,0,1-.338,3.12,3.51,3.51,0,0,1-1.14,1.875,3.413,3.413,0,0,1-2.2.645,3.293,3.293,0,0,1-2.385-.825,3.236,3.236,0,0,1-.975-2.1Zm2.115-2.19A2.278,2.278,0,0,0,241-5.722a2.236,2.236,0,0,0,.645-1.687,2.587,2.587,0,0,0-.63-1.815,2.276,2.276,0,0,0-1.77-.69,2.19,2.19,0,0,0-1.673.66,2.432,2.432,0,0,0-.623,1.74,2.471,2.471,0,0,0,.615,1.755A2.321,2.321,0,0,0,239.355-5.1Zm5.25,2.685V-3.45l5.265-7.29h1.635V-3.6h1.5v1.185h-1.5V0h-1.35V-2.415Zm5.61-6.9L246.18-3.6h4.035Zm7.875,5.19a4.65,4.65,0,0,1,.51-2.227,3.669,3.669,0,0,1,1.418-1.478,4.073,4.073,0,0,1,2.077-.525,4.056,4.056,0,0,1,2.5.735,3.469,3.469,0,0,1,1.3,2.04h-1.47a2.111,2.111,0,0,0-.818-1.185A2.523,2.523,0,0,0,262.1-7.2a2.418,2.418,0,0,0-1.89.8,3.288,3.288,0,0,0-.72,2.273,3.341,3.341,0,0,0,.72,2.295,2.408,2.408,0,0,0,1.89.81,2.553,2.553,0,0,0,1.5-.42,2.13,2.13,0,0,0,.825-1.2h1.47a3.616,3.616,0,0,1-1.32,2.017A3.954,3.954,0,0,1,262.1.135a4.073,4.073,0,0,1-2.077-.525A3.658,3.658,0,0,1,258.6-1.875,4.728,4.728,0,0,1,258.09-4.125Zm13.2,4.26A4.208,4.208,0,0,1,269.2-.39a3.738,3.738,0,0,1-1.47-1.492,4.576,4.576,0,0,1-.533-2.243,4.444,4.444,0,0,1,.548-2.227,3.772,3.772,0,0,1,1.492-1.485,4.33,4.33,0,0,1,2.115-.517,4.33,4.33,0,0,1,2.115.517,3.786,3.786,0,0,1,1.492,1.477,4.433,4.433,0,0,1,.547,2.235,4.38,4.38,0,0,1-.562,2.243A3.9,3.9,0,0,1,273.42-.39,4.366,4.366,0,0,1,271.29.135Zm0-1.2a2.882,2.882,0,0,0,1.38-.345,2.625,2.625,0,0,0,1.043-1.035,3.315,3.315,0,0,0,.4-1.68,3.367,3.367,0,0,0-.39-1.68,2.554,2.554,0,0,0-1.02-1.028,2.846,2.846,0,0,0-1.365-.337,2.833,2.833,0,0,0-1.372.337,2.474,2.474,0,0,0-1,1.028,3.476,3.476,0,0,0-.375,1.68,3.57,3.57,0,0,0,.367,1.695A2.443,2.443,0,0,0,269.94-1.4,2.76,2.76,0,0,0,271.29-1.065ZM284.6-8.22V0H283.23V-1.215a2.657,2.657,0,0,1-1.087.983A3.359,3.359,0,0,1,280.6.12a3.685,3.685,0,0,1-1.725-.4,2.89,2.89,0,0,1-1.208-1.192A3.926,3.926,0,0,1,277.23-3.4V-8.22h1.35v4.635a2.62,2.62,0,0,0,.615,1.867,2.2,2.2,0,0,0,1.68.652A2.245,2.245,0,0,0,282.6-1.74a2.779,2.779,0,0,0,.63-1.965V-8.22Zm6.315-.15a3.331,3.331,0,0,1,2.43.908,3.493,3.493,0,0,1,.93,2.617V0h-1.35V-4.65a2.643,2.643,0,0,0-.615-1.882,2.2,2.2,0,0,0-1.68-.653,2.25,2.25,0,0,0-1.717.675,2.758,2.758,0,0,0-.638,1.965V0H286.9V-8.22h1.365v1.17a2.71,2.71,0,0,1,1.1-.975A3.42,3.42,0,0,1,290.91-8.37Zm7.26,1.275V-2.25a1.153,1.153,0,0,0,.255.847,1.257,1.257,0,0,0,.885.248h1.005V0h-1.23a2.448,2.448,0,0,1-1.71-.525,2.253,2.253,0,0,1-.57-1.725V-7.095H295.74V-8.22H296.8v-2.07h1.365v2.07h2.145v1.125Zm5.16.21a2.619,2.619,0,0,1,1.027-1.1,3.176,3.176,0,0,1,1.628-.39v1.41h-.36q-2.295,0-2.3,2.49V0h-1.365V-8.22h1.365Zm4.935-2.67a.9.9,0,0,1-.66-.27.9.9,0,0,1-.27-.66.9.9,0,0,1,.27-.66.9.9,0,0,1,.66-.27.856.856,0,0,1,.638.27.911.911,0,0,1,.263.66.911.911,0,0,1-.263.66A.856.856,0,0,1,308.265-9.555Zm.66,1.335V0H307.56V-8.22Zm9.825,3.795a8.034,8.034,0,0,1-.045.825h-6.57a2.657,2.657,0,0,0,.832,1.9,2.648,2.648,0,0,0,1.837.682,2.524,2.524,0,0,0,1.478-.412,2.184,2.184,0,0,0,.832-1.1h1.47a3.534,3.534,0,0,1-1.32,1.928,3.984,3.984,0,0,1-2.46.743,4.155,4.155,0,0,1-2.092-.525,3.716,3.716,0,0,1-1.447-1.492,4.629,4.629,0,0,1-.525-2.243,4.7,4.7,0,0,1,.51-2.235,3.58,3.58,0,0,1,1.432-1.477,4.264,4.264,0,0,1,2.122-.517,4.125,4.125,0,0,1,2.07.51,3.531,3.531,0,0,1,1.388,1.4A4.139,4.139,0,0,1,318.75-4.425Zm-1.41-.285a2.518,2.518,0,0,0-.345-1.342,2.244,2.244,0,0,0-.937-.855,2.924,2.924,0,0,0-1.312-.292,2.53,2.53,0,0,0-1.762.66,2.689,2.689,0,0,0-.833,1.83ZM323.46.135a4.252,4.252,0,0,1-1.7-.322,2.859,2.859,0,0,1-1.185-.9,2.4,2.4,0,0,1-.48-1.327h1.41a1.384,1.384,0,0,0,.578,1,2.2,2.2,0,0,0,1.357.39,1.975,1.975,0,0,0,1.23-.345,1.054,1.054,0,0,0,.45-.87.858.858,0,0,0-.48-.8,6.73,6.73,0,0,0-1.485-.518,10.914,10.914,0,0,1-1.493-.487,2.648,2.648,0,0,1-.99-.735,1.918,1.918,0,0,1-.413-1.283,1.944,1.944,0,0,1,.375-1.155,2.542,2.542,0,0,1,1.065-.832,3.832,3.832,0,0,1,1.575-.307,3.363,3.363,0,0,1,2.2.69,2.486,2.486,0,0,1,.9,1.89H325.02A1.411,1.411,0,0,0,324.5-6.81a1.93,1.93,0,0,0-1.268-.39,1.955,1.955,0,0,0-1.17.315.973.973,0,0,0-.435.825.9.9,0,0,0,.263.668,1.918,1.918,0,0,0,.66.42,11.371,11.371,0,0,0,1.1.352,11.877,11.877,0,0,1,1.44.472,2.518,2.518,0,0,1,.952.7,1.865,1.865,0,0,1,.413,1.215,2.08,2.08,0,0,1-.375,1.215,2.5,2.5,0,0,1-1.057.848A3.78,3.78,0,0,1,323.46.135Zm4.485,2.655V2.655a10.7,10.7,0,0,0,2.348-3.7,12.41,12.41,0,0,0,.8-4.44,12.745,12.745,0,0,0-.848-4.6,10.038,10.038,0,0,0-2.527-3.787v-.135h1.425a9.516,9.516,0,0,1,2.422,3.7,13.529,13.529,0,0,1,.848,4.823,13.459,13.459,0,0,1-.8,4.695A9.555,9.555,0,0,1,329.37,2.79Z" transform="translate(343.008 6708.973)"/>
    <path id="Path_43624" data-name="Path 43624" d="M.518,10.114a4.969,4.969,0,0,1,.665-2.562A4.735,4.735,0,0,1,2.989,5.781a5.04,5.04,0,0,1,2.5-.637,5.077,5.077,0,0,1,2.765.763A4.345,4.345,0,0,1,10.01,8.07H8.092a2.572,2.572,0,0,0-1.05-1.148,3.116,3.116,0,0,0-1.554-.378,3.4,3.4,0,0,0-1.722.434A3.021,3.021,0,0,0,2.583,8.224a4,4,0,0,0-.427,1.89A4,4,0,0,0,2.583,12a3.067,3.067,0,0,0,1.183,1.253,3.354,3.354,0,0,0,1.722.441,3.116,3.116,0,0,0,1.554-.378,2.572,2.572,0,0,0,1.05-1.148H10.01a4.308,4.308,0,0,1-1.757,2.156,5.112,5.112,0,0,1-2.765.756,5.029,5.029,0,0,1-2.506-.637,4.749,4.749,0,0,1-1.8-1.771A4.969,4.969,0,0,1,.518,10.114ZM15.862,7.16a3.235,3.235,0,0,1,1.575.378,2.691,2.691,0,0,1,1.092,1.12,3.737,3.737,0,0,1,.4,1.792V15H17.346V10.688A2.239,2.239,0,0,0,16.828,9.1a1.844,1.844,0,0,0-1.414-.553,1.866,1.866,0,0,0-1.421.553,2.22,2.22,0,0,0-.525,1.589V15h-1.6V4.64h1.6V8.182A2.676,2.676,0,0,1,14.5,7.426,3.44,3.44,0,0,1,15.862,7.16ZM24.3,15.126a3.951,3.951,0,0,1-1.974-.5,3.57,3.57,0,0,1-1.386-1.4,4.223,4.223,0,0,1-.5-2.093,4.142,4.142,0,0,1,.518-2.086,3.578,3.578,0,0,1,1.414-1.4,4.335,4.335,0,0,1,4,0,3.578,3.578,0,0,1,1.414,1.4,4.142,4.142,0,0,1,.518,2.086,4.056,4.056,0,0,1-.532,2.086,3.684,3.684,0,0,1-1.449,1.407A4.176,4.176,0,0,1,24.3,15.126Zm0-1.386a2.375,2.375,0,0,0,1.155-.294,2.24,2.24,0,0,0,.875-.882,2.836,2.836,0,0,0,.336-1.428,2.9,2.9,0,0,0-.322-1.421,2.174,2.174,0,0,0-.854-.875,2.335,2.335,0,0,0-1.148-.294,2.3,2.3,0,0,0-1.141.294,2.1,2.1,0,0,0-.833.875,3,3,0,0,0-.308,1.421,2.707,2.707,0,0,0,.637,1.925A2.1,2.1,0,0,0,24.3,13.74Zm8.932,1.386a3.951,3.951,0,0,1-1.974-.5,3.57,3.57,0,0,1-1.386-1.4,4.223,4.223,0,0,1-.5-2.093A4.142,4.142,0,0,1,29.89,9.05,3.578,3.578,0,0,1,31.3,7.65a4.335,4.335,0,0,1,4,0,3.578,3.578,0,0,1,1.414,1.4,4.142,4.142,0,0,1,.518,2.086,4.056,4.056,0,0,1-.532,2.086,3.684,3.684,0,0,1-1.449,1.407A4.176,4.176,0,0,1,33.236,15.126Zm0-1.386a2.375,2.375,0,0,0,1.155-.294,2.24,2.24,0,0,0,.875-.882,2.836,2.836,0,0,0,.336-1.428,2.9,2.9,0,0,0-.322-1.421,2.174,2.174,0,0,0-.854-.875,2.335,2.335,0,0,0-1.148-.294,2.3,2.3,0,0,0-1.141.294,2.1,2.1,0,0,0-.833.875A3,3,0,0,0,31,11.136a2.707,2.707,0,0,0,.637,1.925A2.1,2.1,0,0,0,33.236,13.74Zm8.386,1.386a3.886,3.886,0,0,1-1.631-.329,2.865,2.865,0,0,1-1.141-.9,2.233,2.233,0,0,1-.448-1.267h1.652a1.127,1.127,0,0,0,.469.819,1.7,1.7,0,0,0,1.071.329,1.8,1.8,0,0,0,1.043-.259.782.782,0,0,0,.371-.665.683.683,0,0,0-.413-.644,7.742,7.742,0,0,0-1.309-.462,12.634,12.634,0,0,1-1.414-.462,2.479,2.479,0,0,1-.945-.686,1.8,1.8,0,0,1-.4-1.218,1.9,1.9,0,0,1,.364-1.127,2.424,2.424,0,0,1,1.043-.8A3.9,3.9,0,0,1,41.5,7.16a3.223,3.223,0,0,1,2.121.665,2.388,2.388,0,0,1,.861,1.813h-1.6a1.137,1.137,0,0,0-.42-.826A1.571,1.571,0,0,0,41.44,8.5a1.659,1.659,0,0,0-.966.238.737.737,0,0,0-.336.63.682.682,0,0,0,.224.518,1.6,1.6,0,0,0,.546.329q.322.119.952.3a10.356,10.356,0,0,1,1.379.455,2.567,2.567,0,0,1,.931.679,1.8,1.8,0,0,1,.406,1.19,2,2,0,0,1-.364,1.176,2.413,2.413,0,0,1-1.029.812A3.834,3.834,0,0,1,41.622,15.126Zm11.746-4.172a4.99,4.99,0,0,1-.056.784H47.418a2.141,2.141,0,0,0,.686,1.484,2.165,2.165,0,0,0,1.512.56,1.867,1.867,0,0,0,1.82-1.078h1.722a3.475,3.475,0,0,1-1.267,1.743,3.717,3.717,0,0,1-2.275.679,3.94,3.94,0,0,1-1.981-.5,3.536,3.536,0,0,1-1.372-1.4,4.271,4.271,0,0,1-.5-2.093,4.371,4.371,0,0,1,.483-2.093A3.4,3.4,0,0,1,47.607,7.65a4.041,4.041,0,0,1,2.009-.49,3.929,3.929,0,0,1,1.946.476,3.363,3.363,0,0,1,1.33,1.337A4.027,4.027,0,0,1,53.368,10.954Zm-1.666-.5a1.816,1.816,0,0,0-.63-1.414A2.252,2.252,0,0,0,49.546,8.5a2.05,2.05,0,0,0-1.414.525,2.194,2.194,0,0,0-.7,1.421Zm6.342.686a4.371,4.371,0,0,1,.483-2.093A3.436,3.436,0,0,1,59.864,7.65a4.274,4.274,0,0,1,4.277.175,3.274,3.274,0,0,1,1.239,1.9H63.658a1.821,1.821,0,0,0-.672-.9A1.985,1.985,0,0,0,61.824,8.5a1.932,1.932,0,0,0-1.561.693,2.932,2.932,0,0,0-.581,1.939,2.961,2.961,0,0,0,.581,1.946,1.924,1.924,0,0,0,1.561.7,1.771,1.771,0,0,0,1.834-1.218H65.38a3.447,3.447,0,0,1-1.26,1.869,3.718,3.718,0,0,1-2.3.693,3.825,3.825,0,0,1-1.96-.5,3.483,3.483,0,0,1-1.337-1.4A4.371,4.371,0,0,1,58.044,11.136Zm12.278,3.99a3.951,3.951,0,0,1-1.974-.5,3.57,3.57,0,0,1-1.386-1.4,4.223,4.223,0,0,1-.5-2.093,4.142,4.142,0,0,1,.518-2.086,3.578,3.578,0,0,1,1.414-1.4,4.335,4.335,0,0,1,4,0,3.578,3.578,0,0,1,1.414,1.4,4.142,4.142,0,0,1,.518,2.086,4.056,4.056,0,0,1-.532,2.086,3.684,3.684,0,0,1-1.449,1.407A4.176,4.176,0,0,1,70.322,15.126Zm0-1.386a2.375,2.375,0,0,0,1.155-.294,2.24,2.24,0,0,0,.875-.882,2.836,2.836,0,0,0,.336-1.428,2.9,2.9,0,0,0-.322-1.421,2.174,2.174,0,0,0-.854-.875,2.335,2.335,0,0,0-1.148-.294,2.3,2.3,0,0,0-1.141.294,2.1,2.1,0,0,0-.833.875,3,3,0,0,0-.308,1.421,2.707,2.707,0,0,0,.637,1.925A2.1,2.1,0,0,0,70.322,13.74ZM82.894,7.286V15H81.3v-.91a2.583,2.583,0,0,1-.987.749,3.13,3.13,0,0,1-1.3.273,3.459,3.459,0,0,1-1.631-.378,2.731,2.731,0,0,1-1.134-1.12,3.633,3.633,0,0,1-.413-1.792V7.286H77.42v4.3a2.239,2.239,0,0,0,.518,1.589,1.844,1.844,0,0,0,1.414.553,1.866,1.866,0,0,0,1.421-.553,2.22,2.22,0,0,0,.525-1.589v-4.3Zm5.992-.126a3.459,3.459,0,0,1,1.631.378,2.688,2.688,0,0,1,1.127,1.12,3.684,3.684,0,0,1,.406,1.792V15H90.468V10.688A2.239,2.239,0,0,0,89.95,9.1a1.844,1.844,0,0,0-1.414-.553,1.866,1.866,0,0,0-1.421.553,2.22,2.22,0,0,0-.525,1.589V15h-1.6V7.286h1.6v.882a2.642,2.642,0,0,1,1-.742A3.2,3.2,0,0,1,88.886,7.16Zm7.056,1.428v4.27a.82.82,0,0,0,.2.623,1.009,1.009,0,0,0,.693.189h.98V15h-1.26a2.429,2.429,0,0,1-1.652-.5,2.077,2.077,0,0,1-.574-1.638V8.588h-.91v-1.3h.91V5.368h1.61V7.286h1.876v1.3Zm4.942-.182a2.506,2.506,0,0,1,.931-.917,2.754,2.754,0,0,1,1.379-.329V8.812h-.406a1.944,1.944,0,0,0-1.421.476,2.276,2.276,0,0,0-.483,1.652V15h-1.6V7.286h1.6Zm4.592-2.142a1,1,0,0,1-1.022-1.022,1,1,0,0,1,1.022-1.022.972.972,0,0,1,.714.294,1.048,1.048,0,0,1,0,1.456A.972.972,0,0,1,105.476,6.264Zm.784,1.022V15h-1.6V7.286Zm9.17,3.668a4.989,4.989,0,0,1-.056.784H109.48a2.141,2.141,0,0,0,.686,1.484,2.165,2.165,0,0,0,1.512.56A1.868,1.868,0,0,0,113.5,12.7h1.722a3.475,3.475,0,0,1-1.267,1.743,3.717,3.717,0,0,1-2.275.679,3.94,3.94,0,0,1-1.981-.5,3.536,3.536,0,0,1-1.372-1.4,4.271,4.271,0,0,1-.5-2.093,4.371,4.371,0,0,1,.483-2.093,3.4,3.4,0,0,1,1.358-1.393,4.041,4.041,0,0,1,2.009-.49,3.929,3.929,0,0,1,1.946.476,3.363,3.363,0,0,1,1.33,1.337A4.027,4.027,0,0,1,115.43,10.954Zm-1.666-.5a1.816,1.816,0,0,0-.63-1.414,2.252,2.252,0,0,0-1.526-.532,2.05,2.05,0,0,0-1.414.525,2.194,2.194,0,0,0-.7,1.421Zm6.034,4.676a3.886,3.886,0,0,1-1.631-.329,2.865,2.865,0,0,1-1.141-.9,2.233,2.233,0,0,1-.448-1.267h1.652a1.127,1.127,0,0,0,.469.819,1.7,1.7,0,0,0,1.071.329,1.8,1.8,0,0,0,1.043-.259.782.782,0,0,0,.371-.665.683.683,0,0,0-.413-.644,7.741,7.741,0,0,0-1.309-.462,12.634,12.634,0,0,1-1.414-.462,2.479,2.479,0,0,1-.945-.686,1.8,1.8,0,0,1-.4-1.218,1.9,1.9,0,0,1,.364-1.127,2.424,2.424,0,0,1,1.043-.8,3.9,3.9,0,0,1,1.561-.294,3.223,3.223,0,0,1,2.121.665,2.388,2.388,0,0,1,.861,1.813h-1.6a1.137,1.137,0,0,0-.42-.826,1.571,1.571,0,0,0-1.022-.308,1.659,1.659,0,0,0-.966.238.737.737,0,0,0-.336.63.682.682,0,0,0,.224.518,1.6,1.6,0,0,0,.546.329q.322.119.952.3a10.356,10.356,0,0,1,1.379.455,2.567,2.567,0,0,1,.931.679,1.8,1.8,0,0,1,.406,1.19,2,2,0,0,1-.364,1.176,2.413,2.413,0,0,1-1.029.812A3.834,3.834,0,0,1,119.8,15.126Zm10.178-6.538v4.27a.82.82,0,0,0,.2.623,1.009,1.009,0,0,0,.693.189h.98V15h-1.26a2.429,2.429,0,0,1-1.652-.5,2.077,2.077,0,0,1-.574-1.638V8.588h-.91v-1.3h.91V5.368h1.61V7.286h1.876v1.3Zm6.692,6.538a3.951,3.951,0,0,1-1.974-.5,3.57,3.57,0,0,1-1.386-1.4,4.223,4.223,0,0,1-.5-2.093,4.142,4.142,0,0,1,.518-2.086,3.578,3.578,0,0,1,1.414-1.4,4.335,4.335,0,0,1,4,0,3.578,3.578,0,0,1,1.414,1.4,4.142,4.142,0,0,1,.518,2.086,4.056,4.056,0,0,1-.532,2.086,3.684,3.684,0,0,1-1.449,1.407A4.176,4.176,0,0,1,136.668,15.126Zm0-1.386a2.375,2.375,0,0,0,1.155-.294,2.24,2.24,0,0,0,.875-.882,2.836,2.836,0,0,0,.336-1.428,2.9,2.9,0,0,0-.322-1.421,2.174,2.174,0,0,0-.854-.875,2.335,2.335,0,0,0-1.148-.294,2.3,2.3,0,0,0-1.141.294,2.1,2.1,0,0,0-.833.875,3,3,0,0,0-.308,1.421,2.707,2.707,0,0,0,.637,1.925A2.1,2.1,0,0,0,136.668,13.74Zm8.694-2.632a4.269,4.269,0,0,1,.483-2.058A3.519,3.519,0,0,1,149,7.16a3.367,3.367,0,0,1,1.589.357,3.225,3.225,0,0,1,1.085.889V7.286h1.61V15h-1.61V13.852a3.17,3.17,0,0,1-1.106.91,3.579,3.579,0,0,1-3.416-.147,3.624,3.624,0,0,1-1.309-1.428A4.393,4.393,0,0,1,145.362,11.108Zm6.314.028a2.793,2.793,0,0,0-.329-1.386,2.31,2.31,0,0,0-.861-.9,2.253,2.253,0,0,0-1.148-.308,2.293,2.293,0,0,0-1.148.3,2.27,2.27,0,0,0-.861.882A2.754,2.754,0,0,0,147,11.108a2.874,2.874,0,0,0,.329,1.4,2.321,2.321,0,0,0,.868.917,2.226,2.226,0,0,0,1.141.315,2.253,2.253,0,0,0,1.148-.308,2.3,2.3,0,0,0,.861-.9A2.833,2.833,0,0,0,151.676,11.136Zm5.306-6.5V15h-1.6V4.64Zm3.7,0V15h-1.6V4.64Zm5.446,10.486a3.951,3.951,0,0,1-1.974-.5,3.57,3.57,0,0,1-1.386-1.4,4.223,4.223,0,0,1-.5-2.093,4.142,4.142,0,0,1,.518-2.086,3.578,3.578,0,0,1,1.414-1.4,4.335,4.335,0,0,1,4,0,3.578,3.578,0,0,1,1.414,1.4,4.142,4.142,0,0,1,.518,2.086,4.056,4.056,0,0,1-.532,2.086,3.684,3.684,0,0,1-1.449,1.407A4.176,4.176,0,0,1,166.124,15.126Zm0-1.386a2.375,2.375,0,0,0,1.155-.294,2.24,2.24,0,0,0,.875-.882,2.836,2.836,0,0,0,.336-1.428,2.9,2.9,0,0,0-.322-1.421,2.174,2.174,0,0,0-.854-.875,2.335,2.335,0,0,0-1.148-.294,2.3,2.3,0,0,0-1.141.294,2.1,2.1,0,0,0-.833.875,3,3,0,0,0-.308,1.421,2.707,2.707,0,0,0,.637,1.925A2.1,2.1,0,0,0,166.124,13.74ZM182.07,7.286,179.676,15H178l-1.554-5.7L174.888,15h-1.68L170.8,7.286h1.624l1.61,6.2,1.638-6.2h1.666l1.568,6.174,1.6-6.174Zm11.774,0-4.732,11.34H187.46l1.568-3.752L185.99,7.286h1.778l2.17,5.88,2.254-5.88Zm4.55,7.84a3.951,3.951,0,0,1-1.974-.5,3.57,3.57,0,0,1-1.386-1.4,4.223,4.223,0,0,1-.5-2.093,4.142,4.142,0,0,1,.518-2.086,3.578,3.578,0,0,1,1.414-1.4,4.335,4.335,0,0,1,4,0,3.578,3.578,0,0,1,1.414,1.4,4.142,4.142,0,0,1,.518,2.086,4.056,4.056,0,0,1-.532,2.086,3.684,3.684,0,0,1-1.449,1.407A4.176,4.176,0,0,1,198.394,15.126Zm0-1.386a2.375,2.375,0,0,0,1.155-.294,2.24,2.24,0,0,0,.875-.882,2.836,2.836,0,0,0,.336-1.428,2.9,2.9,0,0,0-.322-1.421,2.174,2.174,0,0,0-.854-.875,2.335,2.335,0,0,0-1.148-.294,2.3,2.3,0,0,0-1.141.294,2.1,2.1,0,0,0-.833.875,3,3,0,0,0-.308,1.421,2.707,2.707,0,0,0,.637,1.925A2.1,2.1,0,0,0,198.394,13.74Zm12.572-6.454V15h-1.6v-.91a2.583,2.583,0,0,1-.987.749,3.13,3.13,0,0,1-1.295.273,3.459,3.459,0,0,1-1.631-.378,2.731,2.731,0,0,1-1.134-1.12,3.633,3.633,0,0,1-.413-1.792V7.286h1.582v4.3a2.239,2.239,0,0,0,.518,1.589,1.844,1.844,0,0,0,1.414.553,1.866,1.866,0,0,0,1.421-.553,2.22,2.22,0,0,0,.525-1.589v-4.3Zm3.7,1.12a2.507,2.507,0,0,1,.931-.917,2.754,2.754,0,0,1,1.379-.329V8.812h-.406a1.944,1.944,0,0,0-1.421.476,2.276,2.276,0,0,0-.483,1.652V15h-1.6V7.286h1.6Zm6.888,2.73a4.371,4.371,0,0,1,.483-2.093A3.436,3.436,0,0,1,223.37,7.65a4.274,4.274,0,0,1,4.277.175,3.274,3.274,0,0,1,1.239,1.9h-1.722a1.821,1.821,0,0,0-.672-.9A1.985,1.985,0,0,0,225.33,8.5a1.932,1.932,0,0,0-1.561.693,2.932,2.932,0,0,0-.581,1.939,2.961,2.961,0,0,0,.581,1.946,1.924,1.924,0,0,0,1.561.7,1.771,1.771,0,0,0,1.834-1.218h1.722a3.447,3.447,0,0,1-1.26,1.869,3.718,3.718,0,0,1-2.3.693,3.825,3.825,0,0,1-1.96-.5,3.483,3.483,0,0,1-1.337-1.4A4.371,4.371,0,0,1,221.55,11.136Zm8.4-.028a4.269,4.269,0,0,1,.483-2.058,3.519,3.519,0,0,1,3.157-1.89,3.367,3.367,0,0,1,1.589.357,3.225,3.225,0,0,1,1.085.889V7.286h1.61V15h-1.61V13.852a3.17,3.17,0,0,1-1.106.91,3.579,3.579,0,0,1-3.416-.147,3.624,3.624,0,0,1-1.309-1.428A4.393,4.393,0,0,1,229.95,11.108Zm6.314.028a2.793,2.793,0,0,0-.329-1.386,2.31,2.31,0,0,0-.861-.9,2.253,2.253,0,0,0-1.148-.308,2.293,2.293,0,0,0-1.148.3,2.27,2.27,0,0,0-.861.882,2.754,2.754,0,0,0-.329,1.379,2.874,2.874,0,0,0,.329,1.4,2.321,2.321,0,0,0,.868.917,2.226,2.226,0,0,0,1.141.315,2.253,2.253,0,0,0,1.148-.308,2.3,2.3,0,0,0,.861-.9A2.833,2.833,0,0,0,236.264,11.136Zm5.306-2.73a2.507,2.507,0,0,1,.931-.917,2.754,2.754,0,0,1,1.379-.329V8.812h-.406a1.944,1.944,0,0,0-1.421.476,2.276,2.276,0,0,0-.483,1.652V15h-1.6V7.286h1.6Zm3.248,2.7A4.269,4.269,0,0,1,245.3,9.05a3.52,3.52,0,0,1,3.171-1.89,3.618,3.618,0,0,1,1.491.329,3.051,3.051,0,0,1,1.169.875V4.64h1.61V15h-1.61V13.838a2.988,2.988,0,0,1-1.085.924,3.366,3.366,0,0,1-1.589.364,3.452,3.452,0,0,1-1.841-.511,3.606,3.606,0,0,1-1.316-1.428A4.393,4.393,0,0,1,244.818,11.108Zm6.314.028A2.793,2.793,0,0,0,250.8,9.75a2.31,2.31,0,0,0-.861-.9,2.253,2.253,0,0,0-1.148-.308,2.293,2.293,0,0,0-1.148.3,2.27,2.27,0,0,0-.861.882,2.754,2.754,0,0,0-.329,1.379,2.874,2.874,0,0,0,.329,1.4,2.321,2.321,0,0,0,.868.917,2.226,2.226,0,0,0,1.141.315,2.253,2.253,0,0,0,1.148-.308,2.3,2.3,0,0,0,.861-.9A2.833,2.833,0,0,0,251.132,11.136Zm14.336-3.85V15h-1.6v-.91a2.583,2.583,0,0,1-.987.749,3.13,3.13,0,0,1-1.3.273,3.459,3.459,0,0,1-1.631-.378,2.731,2.731,0,0,1-1.134-1.12,3.633,3.633,0,0,1-.413-1.792V7.286h1.582v4.3a2.239,2.239,0,0,0,.518,1.589,1.844,1.844,0,0,0,1.414.553,1.866,1.866,0,0,0,1.421-.553,2.22,2.22,0,0,0,.525-1.589v-4.3Zm4.9,7.84a3.887,3.887,0,0,1-1.631-.329,2.865,2.865,0,0,1-1.141-.9,2.233,2.233,0,0,1-.448-1.267H268.8a1.126,1.126,0,0,0,.469.819,1.7,1.7,0,0,0,1.071.329,1.8,1.8,0,0,0,1.043-.259.782.782,0,0,0,.371-.665.683.683,0,0,0-.413-.644,7.742,7.742,0,0,0-1.309-.462,12.632,12.632,0,0,1-1.414-.462,2.479,2.479,0,0,1-.945-.686,1.8,1.8,0,0,1-.4-1.218,1.9,1.9,0,0,1,.364-1.127,2.424,2.424,0,0,1,1.043-.8,3.9,3.9,0,0,1,1.561-.294,3.223,3.223,0,0,1,2.121.665,2.388,2.388,0,0,1,.861,1.813h-1.6a1.137,1.137,0,0,0-.42-.826,1.571,1.571,0,0,0-1.022-.308,1.659,1.659,0,0,0-.966.238.737.737,0,0,0-.336.63.682.682,0,0,0,.224.518,1.6,1.6,0,0,0,.546.329q.322.119.952.3a10.357,10.357,0,0,1,1.379.455,2.567,2.567,0,0,1,.931.679,1.8,1.8,0,0,1,.406,1.19,2,2,0,0,1-.364,1.176,2.413,2.413,0,0,1-1.029.812A3.834,3.834,0,0,1,270.368,15.126Zm4.144-4.018a4.269,4.269,0,0,1,.483-2.058,3.519,3.519,0,0,1,3.157-1.89,3.368,3.368,0,0,1,1.589.357,3.225,3.225,0,0,1,1.085.889V7.286h1.61V15h-1.61V13.852a3.17,3.17,0,0,1-1.106.91,3.579,3.579,0,0,1-3.416-.147,3.624,3.624,0,0,1-1.309-1.428A4.393,4.393,0,0,1,274.512,11.108Zm6.314.028A2.793,2.793,0,0,0,280.5,9.75a2.309,2.309,0,0,0-.861-.9,2.253,2.253,0,0,0-1.148-.308,2.264,2.264,0,0,0-2.009,1.183,2.754,2.754,0,0,0-.329,1.379,2.874,2.874,0,0,0,.329,1.4,2.321,2.321,0,0,0,.868.917,2.226,2.226,0,0,0,1.141.315,2.253,2.253,0,0,0,1.148-.308,2.3,2.3,0,0,0,.861-.9A2.833,2.833,0,0,0,280.826,11.136Zm6.818-3.976a3.421,3.421,0,0,1,1.589.357,3.052,3.052,0,0,1,1.085.889V7.286h1.61v7.84a3.941,3.941,0,0,1-.448,1.9,3.237,3.237,0,0,1-1.295,1.309,4.066,4.066,0,0,1-2.023.476,4.39,4.39,0,0,1-2.6-.735,2.712,2.712,0,0,1-1.176-2h1.582a1.717,1.717,0,0,0,.777.973,2.631,2.631,0,0,0,1.421.371,2.125,2.125,0,0,0,1.561-.588,2.3,2.3,0,0,0,.6-1.708V13.838a3.316,3.316,0,0,1-2.674,1.288,3.452,3.452,0,0,1-1.841-.511,3.606,3.606,0,0,1-1.316-1.428A4.393,4.393,0,0,1,284,11.108a4.269,4.269,0,0,1,.483-2.058,3.519,3.519,0,0,1,3.157-1.89Zm2.674,3.976a2.793,2.793,0,0,0-.329-1.386,2.309,2.309,0,0,0-.861-.9,2.253,2.253,0,0,0-1.148-.308,2.264,2.264,0,0,0-2.009,1.183,2.754,2.754,0,0,0-.329,1.379,2.874,2.874,0,0,0,.329,1.4,2.321,2.321,0,0,0,.868.917,2.226,2.226,0,0,0,1.141.315,2.253,2.253,0,0,0,1.148-.308,2.3,2.3,0,0,0,.861-.9A2.833,2.833,0,0,0,290.318,11.136Zm10.78-.182a4.991,4.991,0,0,1-.056.784h-5.894a2.14,2.14,0,0,0,.686,1.484,2.166,2.166,0,0,0,1.512.56,1.867,1.867,0,0,0,1.82-1.078h1.722a3.475,3.475,0,0,1-1.267,1.743,3.717,3.717,0,0,1-2.275.679,3.94,3.94,0,0,1-1.981-.5,3.536,3.536,0,0,1-1.372-1.4,4.271,4.271,0,0,1-.5-2.093,4.371,4.371,0,0,1,.483-2.093,3.4,3.4,0,0,1,1.358-1.393,4.042,4.042,0,0,1,2.009-.49,3.929,3.929,0,0,1,1.946.476,3.364,3.364,0,0,1,1.33,1.337A4.027,4.027,0,0,1,301.1,10.954Zm-1.666-.5a1.816,1.816,0,0,0-.63-1.414,2.252,2.252,0,0,0-1.526-.532,2.05,2.05,0,0,0-1.414.525,2.194,2.194,0,0,0-.7,1.421Zm7.686-4.186A1,1,0,0,1,306.1,5.242a1,1,0,0,1,1.022-1.022.972.972,0,0,1,.714.294,1.048,1.048,0,0,1,0,1.456A.972.972,0,0,1,307.118,6.264Zm.784,1.022V15h-1.6V7.286Zm5.992-.126a3.459,3.459,0,0,1,1.631.378,2.688,2.688,0,0,1,1.127,1.12,3.684,3.684,0,0,1,.406,1.792V15h-1.582V10.688a2.239,2.239,0,0,0-.518-1.589,1.844,1.844,0,0,0-1.414-.553,1.866,1.866,0,0,0-1.421.553,2.22,2.22,0,0,0-.525,1.589V15H310V7.286h1.6v.882a2.642,2.642,0,0,1,1-.742A3.2,3.2,0,0,1,313.894,7.16Z" transform="translate(343.008 6496.973)"/>
    <rect id="Rectangle_17534" data-name="Rectangle 17534" width="339" height="1" transform="translate(343.008 6529.973)" fill="#7588a0" opacity="0.2"/>
    <path id="_name-2" data-name="✏️name" d="M5.895.105A5.276,5.276,0,0,1,3.24-.577a5,5,0,0,1-1.9-1.905,5.455,5.455,0,0,1-.7-2.753,5.455,5.455,0,0,1,.7-2.753,5,5,0,0,1,1.9-1.9,5.276,5.276,0,0,1,2.655-.682,5.3,5.3,0,0,1,2.67.682,4.957,4.957,0,0,1,1.89,1.9,5.49,5.49,0,0,1,.69,2.76,5.49,5.49,0,0,1-.69,2.76,4.957,4.957,0,0,1-1.89,1.9A5.3,5.3,0,0,1,5.895.105Zm0-1.185a3.853,3.853,0,0,0,1.973-.51,3.589,3.589,0,0,0,1.38-1.455,4.6,4.6,0,0,0,.5-2.19,4.584,4.584,0,0,0-.5-2.2A3.617,3.617,0,0,0,7.875-8.88a3.842,3.842,0,0,0-1.98-.51,3.842,3.842,0,0,0-1.98.51A3.617,3.617,0,0,0,2.543-7.432a4.584,4.584,0,0,0-.5,2.2,4.6,4.6,0,0,0,.5,2.19A3.589,3.589,0,0,0,3.923-1.59,3.853,3.853,0,0,0,5.895-1.08ZM16.95-8.37a3.331,3.331,0,0,1,2.43.908,3.493,3.493,0,0,1,.93,2.617V0H18.96V-4.65a2.643,2.643,0,0,0-.615-1.882,2.2,2.2,0,0,0-1.68-.653,2.25,2.25,0,0,0-1.718.675,2.758,2.758,0,0,0-.638,1.965V0H12.945V-8.22H14.31v1.17a2.71,2.71,0,0,1,1.1-.975A3.42,3.42,0,0,1,16.95-8.37Zm6.96-2.73V0H22.545V-11.1Zm9.405,2.88L28.365,3.87h-1.41l1.62-3.96L25.26-8.22h1.515l2.58,6.66,2.55-6.66ZM40.05-1.11h3.66V0H38.685V-10.455H40.05ZM52.665-4.425a8.033,8.033,0,0,1-.045.825H46.05a2.658,2.658,0,0,0,.833,1.9,2.648,2.648,0,0,0,1.837.682A2.524,2.524,0,0,0,50.2-1.433a2.184,2.184,0,0,0,.833-1.1H52.5A3.534,3.534,0,0,1,51.18-.608a3.984,3.984,0,0,1-2.46.743A4.155,4.155,0,0,1,46.627-.39,3.716,3.716,0,0,1,45.18-1.882a4.629,4.629,0,0,1-.525-2.243,4.7,4.7,0,0,1,.51-2.235A3.58,3.58,0,0,1,46.6-7.837a4.264,4.264,0,0,1,2.122-.517,4.125,4.125,0,0,1,2.07.51,3.531,3.531,0,0,1,1.388,1.4A4.139,4.139,0,0,1,52.665-4.425Zm-1.41-.285a2.518,2.518,0,0,0-.345-1.342,2.244,2.244,0,0,0-.937-.855A2.924,2.924,0,0,0,48.66-7.2a2.53,2.53,0,0,0-1.763.66,2.689,2.689,0,0,0-.833,1.83ZM55.83-6.69a3.227,3.227,0,0,1,1.23-1.2,3.639,3.639,0,0,1,1.845-.465A3.835,3.835,0,0,1,60.9-7.83a3.717,3.717,0,0,1,1.4,1.478,4.617,4.617,0,0,1,.51,2.213,4.718,4.718,0,0,1-.51,2.22,3.77,3.77,0,0,1-1.4,1.515,3.765,3.765,0,0,1-1.987.54A3.658,3.658,0,0,1,57.038-.33,3.163,3.163,0,0,1,55.83-1.515V0H54.465V-11.1H55.83Zm5.58,2.55a3.342,3.342,0,0,0-.375-1.62,2.6,2.6,0,0,0-1.013-1.05,2.8,2.8,0,0,0-1.4-.36,2.73,2.73,0,0,0-1.388.367,2.687,2.687,0,0,0-1.02,1.065,3.3,3.3,0,0,0-.382,1.612A3.332,3.332,0,0,0,56.213-2.5a2.687,2.687,0,0,0,1.02,1.065,2.73,2.73,0,0,0,1.388.367,2.758,2.758,0,0,0,1.4-.367A2.637,2.637,0,0,0,61.035-2.5,3.419,3.419,0,0,0,61.41-4.14Zm2.685,0a4.617,4.617,0,0,1,.51-2.213,3.7,3.7,0,0,1,1.4-1.478A3.847,3.847,0,0,1,68-8.355a3.648,3.648,0,0,1,1.875.465,3.1,3.1,0,0,1,1.185,1.17v-1.5h1.38V0h-1.38V-1.53A3.216,3.216,0,0,1,69.848-.338,3.612,3.612,0,0,1,67.98.135,3.726,3.726,0,0,1,66-.405,3.787,3.787,0,0,1,64.605-1.92,4.718,4.718,0,0,1,64.1-4.14Zm6.96.015a3.342,3.342,0,0,0-.375-1.62A2.648,2.648,0,0,0,69.668-6.8a2.758,2.758,0,0,0-1.4-.367,2.762,2.762,0,0,0-1.395.36,2.612,2.612,0,0,0-1.005,1.05,3.342,3.342,0,0,0-.375,1.62A3.419,3.419,0,0,0,65.865-2.5,2.653,2.653,0,0,0,66.87-1.433a2.718,2.718,0,0,0,1.395.367,2.758,2.758,0,0,0,1.4-.367A2.637,2.637,0,0,0,70.68-2.5,3.386,3.386,0,0,0,71.055-4.125ZM78.75-8.37a3.331,3.331,0,0,1,2.43.908,3.493,3.493,0,0,1,.93,2.617V0H80.76V-4.65a2.643,2.643,0,0,0-.615-1.882,2.2,2.2,0,0,0-1.68-.653,2.25,2.25,0,0,0-1.717.675,2.758,2.758,0,0,0-.638,1.965V0H74.745V-8.22H76.11v1.17a2.71,2.71,0,0,1,1.1-.975A3.42,3.42,0,0,1,78.75-8.37ZM87.93.135A4.208,4.208,0,0,1,85.838-.39a3.738,3.738,0,0,1-1.47-1.492,4.576,4.576,0,0,1-.533-2.243,4.444,4.444,0,0,1,.548-2.227,3.773,3.773,0,0,1,1.493-1.485,4.33,4.33,0,0,1,2.115-.517,4.33,4.33,0,0,1,2.115.517A3.786,3.786,0,0,1,91.6-6.36a4.433,4.433,0,0,1,.548,2.235,4.38,4.38,0,0,1-.562,2.243A3.9,3.9,0,0,1,90.06-.39,4.366,4.366,0,0,1,87.93.135Zm0-1.2a2.882,2.882,0,0,0,1.38-.345,2.625,2.625,0,0,0,1.042-1.035,3.315,3.315,0,0,0,.4-1.68,3.366,3.366,0,0,0-.39-1.68,2.554,2.554,0,0,0-1.02-1.028,2.846,2.846,0,0,0-1.365-.337,2.833,2.833,0,0,0-1.373.337,2.474,2.474,0,0,0-1,1.028,3.476,3.476,0,0,0-.375,1.68A3.57,3.57,0,0,0,85.6-2.43,2.443,2.443,0,0,0,86.58-1.4,2.76,2.76,0,0,0,87.93-1.065ZM97.95-8.37a3.331,3.331,0,0,1,2.43.908,3.493,3.493,0,0,1,.93,2.617V0H99.96V-4.65a2.643,2.643,0,0,0-.615-1.882,2.2,2.2,0,0,0-1.68-.653,2.25,2.25,0,0,0-1.717.675,2.758,2.758,0,0,0-.638,1.965V0H93.945V-8.22H95.31v1.17a2.71,2.71,0,0,1,1.1-.975A3.42,3.42,0,0,1,97.95-8.37Z" transform="translate(380.008 6619.973)"/>
    <g id="Rectangle_18174" data-name="Rectangle 18174" transform="translate(343.008 6605.973)" fill="none" stroke="#000" stroke-width="1">
      <rect width="18" height="18" rx="9" stroke="none"/>
      <rect x="0.5" y="0.5" width="17" height="17" rx="8.5" fill="none"/>
    </g>
    <path id="_name-3" data-name="✏️name" d="M4.47.105A4.472,4.472,0,0,1,2.618-.262a3.087,3.087,0,0,1-1.283-1.02A2.613,2.613,0,0,1,.855-2.79H2.31a1.916,1.916,0,0,0,.608,1.237,2.18,2.18,0,0,0,1.553.5,2.269,2.269,0,0,0,1.537-.488A1.582,1.582,0,0,0,6.57-2.79a1.422,1.422,0,0,0-.33-.975,2.108,2.108,0,0,0-.825-.57,12.891,12.891,0,0,0-1.335-.42,11.757,11.757,0,0,1-1.658-.54,2.669,2.669,0,0,1-1.065-.848A2.49,2.49,0,0,1,.915-7.7,2.69,2.69,0,0,1,1.35-9.21a2.834,2.834,0,0,1,1.222-1.02,4.3,4.3,0,0,1,1.808-.36,3.786,3.786,0,0,1,2.407.735,2.715,2.715,0,0,1,1.058,1.95h-1.5a1.618,1.618,0,0,0-.63-1.058,2.238,2.238,0,0,0-1.47-.457,2.13,2.13,0,0,0-1.395.443A1.511,1.511,0,0,0,2.31-7.74a1.341,1.341,0,0,0,.323.93,2.079,2.079,0,0,0,.795.548q.472.188,1.328.427a12.468,12.468,0,0,1,1.665.563,2.777,2.777,0,0,1,1.08.855A2.486,2.486,0,0,1,7.95-2.85a2.753,2.753,0,0,1-.4,1.44,2.977,2.977,0,0,1-1.2,1.095A3.96,3.96,0,0,1,4.47.105Zm12.99-4.53a8.033,8.033,0,0,1-.045.825h-6.57a2.658,2.658,0,0,0,.832,1.9,2.648,2.648,0,0,0,1.838.682,2.524,2.524,0,0,0,1.477-.412,2.184,2.184,0,0,0,.833-1.1H17.3a3.534,3.534,0,0,1-1.32,1.928,3.984,3.984,0,0,1-2.46.743A4.155,4.155,0,0,1,11.423-.39,3.716,3.716,0,0,1,9.975-1.882,4.629,4.629,0,0,1,9.45-4.125,4.7,4.7,0,0,1,9.96-6.36a3.58,3.58,0,0,1,1.432-1.477,4.264,4.264,0,0,1,2.123-.517,4.125,4.125,0,0,1,2.07.51,3.531,3.531,0,0,1,1.387,1.4A4.139,4.139,0,0,1,17.46-4.425ZM16.05-4.71A2.518,2.518,0,0,0,15.7-6.052a2.244,2.244,0,0,0-.937-.855A2.924,2.924,0,0,0,13.455-7.2a2.53,2.53,0,0,0-1.762.66,2.689,2.689,0,0,0-.832,1.83Zm4.575-6.39V0H19.26V-11.1ZM30.45-4.425A8.033,8.033,0,0,1,30.4-3.6h-6.57a2.658,2.658,0,0,0,.832,1.9,2.648,2.648,0,0,0,1.838.682,2.524,2.524,0,0,0,1.477-.412,2.184,2.184,0,0,0,.833-1.1h1.47a3.534,3.534,0,0,1-1.32,1.928,3.984,3.984,0,0,1-2.46.743A4.155,4.155,0,0,1,24.413-.39a3.716,3.716,0,0,1-1.448-1.492,4.629,4.629,0,0,1-.525-2.243,4.7,4.7,0,0,1,.51-2.235,3.58,3.58,0,0,1,1.432-1.477,4.264,4.264,0,0,1,2.123-.517,4.125,4.125,0,0,1,2.07.51,3.531,3.531,0,0,1,1.387,1.4A4.139,4.139,0,0,1,30.45-4.425ZM29.04-4.71a2.518,2.518,0,0,0-.345-1.342,2.244,2.244,0,0,0-.937-.855A2.924,2.924,0,0,0,26.445-7.2a2.53,2.53,0,0,0-1.763.66,2.689,2.689,0,0,0-.832,1.83Zm2.7.585a4.65,4.65,0,0,1,.51-2.227A3.669,3.669,0,0,1,33.667-7.83a4.073,4.073,0,0,1,2.077-.525,4.056,4.056,0,0,1,2.5.735,3.469,3.469,0,0,1,1.3,2.04H38.07a2.111,2.111,0,0,0-.818-1.185A2.523,2.523,0,0,0,35.745-7.2a2.418,2.418,0,0,0-1.89.8,3.288,3.288,0,0,0-.72,2.273,3.341,3.341,0,0,0,.72,2.295,2.408,2.408,0,0,0,1.89.81,2.553,2.553,0,0,0,1.5-.42,2.13,2.13,0,0,0,.825-1.2h1.47A3.616,3.616,0,0,1,38.22-.623a3.954,3.954,0,0,1-2.475.757A4.073,4.073,0,0,1,33.667-.39,3.658,3.658,0,0,1,32.25-1.875,4.728,4.728,0,0,1,31.74-4.125Zm11.28-2.97V-2.25a1.153,1.153,0,0,0,.255.847,1.257,1.257,0,0,0,.885.248h1.005V0h-1.23a2.448,2.448,0,0,1-1.71-.525,2.253,2.253,0,0,1-.57-1.725V-7.095H40.59V-8.22h1.065v-2.07H43.02v2.07h2.145v1.125Zm11.3,2.67a8.033,8.033,0,0,1-.045.825H47.7a2.658,2.658,0,0,0,.833,1.9,2.648,2.648,0,0,0,1.837.682,2.524,2.524,0,0,0,1.478-.412,2.184,2.184,0,0,0,.833-1.1h1.47A3.534,3.534,0,0,1,52.83-.608a3.984,3.984,0,0,1-2.46.743A4.155,4.155,0,0,1,48.278-.39,3.716,3.716,0,0,1,46.83-1.882a4.629,4.629,0,0,1-.525-2.243,4.7,4.7,0,0,1,.51-2.235,3.58,3.58,0,0,1,1.433-1.477,4.264,4.264,0,0,1,2.122-.517,4.125,4.125,0,0,1,2.07.51,3.531,3.531,0,0,1,1.388,1.4A4.139,4.139,0,0,1,54.315-4.425ZM52.9-4.71a2.518,2.518,0,0,0-.345-1.342,2.244,2.244,0,0,0-.937-.855A2.924,2.924,0,0,0,50.31-7.2a2.53,2.53,0,0,0-1.763.66,2.689,2.689,0,0,0-.833,1.83Zm2.7.57a4.617,4.617,0,0,1,.51-2.213,3.7,3.7,0,0,1,1.4-1.478,3.875,3.875,0,0,1,2-.525,3.718,3.718,0,0,1,1.785.443,3.193,3.193,0,0,1,1.26,1.162V-11.1h1.38V0h-1.38V-1.545a3.194,3.194,0,0,1-1.2,1.207A3.572,3.572,0,0,1,59.5.135a3.765,3.765,0,0,1-1.987-.54,3.77,3.77,0,0,1-1.4-1.515A4.718,4.718,0,0,1,55.6-4.14Zm6.96.015a3.342,3.342,0,0,0-.375-1.62A2.648,2.648,0,0,0,61.177-6.8a2.758,2.758,0,0,0-1.4-.367,2.762,2.762,0,0,0-1.4.36,2.612,2.612,0,0,0-1,1.05A3.342,3.342,0,0,0,57-4.14,3.419,3.419,0,0,0,57.375-2.5a2.653,2.653,0,0,0,1,1.065,2.718,2.718,0,0,0,1.4.367,2.758,2.758,0,0,0,1.4-.367A2.637,2.637,0,0,0,62.19-2.5,3.386,3.386,0,0,0,62.565-4.125Zm7.185-1.11a5.5,5.5,0,0,1,.69-2.753A5.013,5.013,0,0,1,72.323-9.9a5.19,5.19,0,0,1,2.647-.69,5.372,5.372,0,0,1,2.985.825,4.728,4.728,0,0,1,1.86,2.34H78.18A3.283,3.283,0,0,0,76.928-8.88a3.624,3.624,0,0,0-1.958-.51,3.812,3.812,0,0,0-1.965.51A3.566,3.566,0,0,0,71.64-7.432a4.641,4.641,0,0,0-.5,2.2,4.608,4.608,0,0,0,.5,2.183,3.566,3.566,0,0,0,1.365,1.447,3.812,3.812,0,0,0,1.965.51,3.666,3.666,0,0,0,1.958-.5A3.236,3.236,0,0,0,78.18-3.045h1.635a4.693,4.693,0,0,1-1.86,2.317A5.409,5.409,0,0,1,74.97.09a5.235,5.235,0,0,1-2.647-.683,4.973,4.973,0,0,1-1.882-1.9A5.46,5.46,0,0,1,69.75-5.235ZM85.425.135A4.208,4.208,0,0,1,83.332-.39a3.738,3.738,0,0,1-1.47-1.492,4.576,4.576,0,0,1-.533-2.243,4.444,4.444,0,0,1,.548-2.227A3.773,3.773,0,0,1,83.37-7.837a4.33,4.33,0,0,1,2.115-.517,4.33,4.33,0,0,1,2.115.517A3.786,3.786,0,0,1,89.092-6.36a4.433,4.433,0,0,1,.548,2.235,4.38,4.38,0,0,1-.562,2.243A3.9,3.9,0,0,1,87.555-.39,4.366,4.366,0,0,1,85.425.135Zm0-1.2a2.882,2.882,0,0,0,1.38-.345,2.625,2.625,0,0,0,1.042-1.035,3.315,3.315,0,0,0,.4-1.68,3.366,3.366,0,0,0-.39-1.68,2.554,2.554,0,0,0-1.02-1.028A2.846,2.846,0,0,0,85.47-7.17a2.833,2.833,0,0,0-1.373.337,2.474,2.474,0,0,0-1,1.028,3.476,3.476,0,0,0-.375,1.68,3.57,3.57,0,0,0,.368,1.695A2.443,2.443,0,0,0,84.075-1.4,2.76,2.76,0,0,0,85.425-1.065ZM98.73-8.22V0H97.365V-1.215a2.657,2.657,0,0,1-1.088.983A3.36,3.36,0,0,1,94.74.12a3.685,3.685,0,0,1-1.725-.4A2.89,2.89,0,0,1,91.808-1.47,3.926,3.926,0,0,1,91.365-3.4V-8.22h1.35v4.635a2.62,2.62,0,0,0,.615,1.867,2.2,2.2,0,0,0,1.68.652,2.245,2.245,0,0,0,1.725-.675,2.779,2.779,0,0,0,.63-1.965V-8.22Zm6.315-.15a3.331,3.331,0,0,1,2.43.908,3.493,3.493,0,0,1,.93,2.617V0h-1.35V-4.65a2.643,2.643,0,0,0-.615-1.882,2.2,2.2,0,0,0-1.68-.653,2.25,2.25,0,0,0-1.717.675,2.758,2.758,0,0,0-.638,1.965V0H101.04V-8.22H102.4v1.17a2.71,2.71,0,0,1,1.1-.975A3.42,3.42,0,0,1,105.045-8.37Zm7.26,1.275V-2.25a1.153,1.153,0,0,0,.255.847,1.257,1.257,0,0,0,.885.248h1V0h-1.23a2.448,2.448,0,0,1-1.71-.525,2.253,2.253,0,0,1-.57-1.725V-7.095h-1.065V-8.22h1.065v-2.07h1.365v2.07h2.145v1.125Zm5.16.21a2.618,2.618,0,0,1,1.028-1.1,3.176,3.176,0,0,1,1.628-.39v1.41h-.36q-2.3,0-2.3,2.49V0H116.1V-8.22h1.365Zm4.935-2.67a.9.9,0,0,1-.66-.27.9.9,0,0,1-.27-.66.9.9,0,0,1,.27-.66.9.9,0,0,1,.66-.27.856.856,0,0,1,.637.27.911.911,0,0,1,.263.66.911.911,0,0,1-.263.66A.856.856,0,0,1,122.4-9.555Zm.66,1.335V0h-1.365V-8.22Zm9.825,3.795a8.029,8.029,0,0,1-.045.825h-6.57a2.658,2.658,0,0,0,.832,1.9,2.648,2.648,0,0,0,1.838.682,2.524,2.524,0,0,0,1.478-.412,2.184,2.184,0,0,0,.832-1.1h1.47A3.534,3.534,0,0,1,131.4-.608a3.984,3.984,0,0,1-2.46.743,4.155,4.155,0,0,1-2.092-.525A3.716,3.716,0,0,1,125.4-1.882a4.629,4.629,0,0,1-.525-2.243,4.7,4.7,0,0,1,.51-2.235,3.58,3.58,0,0,1,1.433-1.477,4.264,4.264,0,0,1,2.122-.517,4.125,4.125,0,0,1,2.07.51,3.531,3.531,0,0,1,1.387,1.4A4.139,4.139,0,0,1,132.885-4.425Zm-1.41-.285a2.518,2.518,0,0,0-.345-1.342,2.243,2.243,0,0,0-.937-.855A2.924,2.924,0,0,0,128.88-7.2a2.53,2.53,0,0,0-1.763.66,2.689,2.689,0,0,0-.832,1.83ZM137.6.135a4.252,4.252,0,0,1-1.7-.322,2.859,2.859,0,0,1-1.185-.9,2.4,2.4,0,0,1-.48-1.327h1.41a1.384,1.384,0,0,0,.577,1,2.2,2.2,0,0,0,1.357.39,1.975,1.975,0,0,0,1.23-.345,1.054,1.054,0,0,0,.45-.87.858.858,0,0,0-.48-.8,6.73,6.73,0,0,0-1.485-.518,10.914,10.914,0,0,1-1.492-.487,2.648,2.648,0,0,1-.99-.735A1.918,1.918,0,0,1,134.4-6.06a1.944,1.944,0,0,1,.375-1.155,2.542,2.542,0,0,1,1.065-.832,3.832,3.832,0,0,1,1.575-.307,3.363,3.363,0,0,1,2.205.69,2.486,2.486,0,0,1,.9,1.89h-1.365a1.41,1.41,0,0,0-.518-1.035,1.93,1.93,0,0,0-1.268-.39,1.955,1.955,0,0,0-1.17.315.973.973,0,0,0-.435.825.9.9,0,0,0,.262.668,1.918,1.918,0,0,0,.66.42,11.371,11.371,0,0,0,1.1.352,11.874,11.874,0,0,1,1.44.472,2.518,2.518,0,0,1,.952.7,1.865,1.865,0,0,1,.413,1.215,2.08,2.08,0,0,1-.375,1.215,2.5,2.5,0,0,1-1.057.848A3.78,3.78,0,0,1,137.6.135Z" transform="translate(380.008 6667.973)"/>
    <g id="Rectangle_18212" data-name="Rectangle 18212" transform="translate(343.008 6653.973)" fill="none" stroke="#000" stroke-width="1">
      <rect width="18" height="18" rx="9" stroke="none"/>
      <rect x="0.5" y="0.5" width="17" height="17" rx="8.5" fill="none"/>
    </g>
    <path id="_name-4" data-name="✏️name" d="M7.335-2.325H2.775L1.935,0H.5l3.78-10.4H5.85L9.615,0H8.175Zm-.39-1.11-1.89-5.28-1.89,5.28ZM12.63-11.1V0H11.265V-11.1Zm3.69,0V0H14.955V-11.1Zm5.82,5.865a5.5,5.5,0,0,1,.69-2.753A5.013,5.013,0,0,1,24.713-9.9a5.19,5.19,0,0,1,2.647-.69,5.372,5.372,0,0,1,2.985.825,4.728,4.728,0,0,1,1.86,2.34H30.57A3.283,3.283,0,0,0,29.318-8.88a3.624,3.624,0,0,0-1.958-.51,3.813,3.813,0,0,0-1.965.51A3.566,3.566,0,0,0,24.03-7.432a4.641,4.641,0,0,0-.495,2.2,4.608,4.608,0,0,0,.495,2.183A3.566,3.566,0,0,0,25.4-1.605a3.813,3.813,0,0,0,1.965.51,3.666,3.666,0,0,0,1.958-.5A3.236,3.236,0,0,0,30.57-3.045h1.635a4.693,4.693,0,0,1-1.86,2.317A5.409,5.409,0,0,1,27.36.09a5.235,5.235,0,0,1-2.647-.683,4.973,4.973,0,0,1-1.882-1.9A5.46,5.46,0,0,1,22.14-5.235ZM37.815.135A4.208,4.208,0,0,1,35.722-.39a3.737,3.737,0,0,1-1.47-1.492,4.576,4.576,0,0,1-.533-2.243,4.444,4.444,0,0,1,.548-2.227A3.773,3.773,0,0,1,35.76-7.837a4.33,4.33,0,0,1,2.115-.517,4.33,4.33,0,0,1,2.115.517A3.786,3.786,0,0,1,41.483-6.36a4.433,4.433,0,0,1,.547,2.235,4.38,4.38,0,0,1-.562,2.243A3.9,3.9,0,0,1,39.945-.39,4.366,4.366,0,0,1,37.815.135Zm0-1.2a2.882,2.882,0,0,0,1.38-.345,2.625,2.625,0,0,0,1.042-1.035,3.315,3.315,0,0,0,.4-1.68,3.366,3.366,0,0,0-.39-1.68,2.554,2.554,0,0,0-1.02-1.028A2.846,2.846,0,0,0,37.86-7.17a2.833,2.833,0,0,0-1.373.337,2.474,2.474,0,0,0-1,1.028,3.476,3.476,0,0,0-.375,1.68,3.57,3.57,0,0,0,.368,1.695A2.443,2.443,0,0,0,36.465-1.4,2.76,2.76,0,0,0,37.815-1.065ZM51.12-8.22V0H49.755V-1.215a2.657,2.657,0,0,1-1.087.983A3.36,3.36,0,0,1,47.13.12a3.685,3.685,0,0,1-1.725-.4A2.89,2.89,0,0,1,44.2-1.47,3.926,3.926,0,0,1,43.755-3.4V-8.22H45.1v4.635a2.62,2.62,0,0,0,.615,1.867,2.2,2.2,0,0,0,1.68.652,2.245,2.245,0,0,0,1.725-.675,2.779,2.779,0,0,0,.63-1.965V-8.22Zm6.315-.15a3.331,3.331,0,0,1,2.43.908,3.493,3.493,0,0,1,.93,2.617V0h-1.35V-4.65a2.643,2.643,0,0,0-.615-1.882,2.2,2.2,0,0,0-1.68-.653,2.25,2.25,0,0,0-1.717.675A2.758,2.758,0,0,0,54.8-4.545V0H53.43V-8.22H54.8v1.17a2.71,2.71,0,0,1,1.1-.975A3.42,3.42,0,0,1,57.435-8.37Zm7.26,1.275V-2.25a1.153,1.153,0,0,0,.255.847,1.257,1.257,0,0,0,.885.248h1V0H65.61A2.448,2.448,0,0,1,63.9-.525a2.253,2.253,0,0,1-.57-1.725V-7.095H62.265V-8.22H63.33v-2.07h1.365v2.07H66.84v1.125Zm5.16.21a2.618,2.618,0,0,1,1.028-1.1,3.176,3.176,0,0,1,1.628-.39v1.41h-.36q-2.3,0-2.3,2.49V0H68.49V-8.22h1.365Zm4.935-2.67a.9.9,0,0,1-.66-.27.9.9,0,0,1-.27-.66.9.9,0,0,1,.27-.66.9.9,0,0,1,.66-.27.856.856,0,0,1,.637.27.911.911,0,0,1,.263.66.911.911,0,0,1-.263.66A.856.856,0,0,1,74.79-9.555Zm.66,1.335V0H74.085V-8.22Zm9.825,3.795a8.034,8.034,0,0,1-.045.825H78.66a2.658,2.658,0,0,0,.832,1.9,2.648,2.648,0,0,0,1.838.682,2.524,2.524,0,0,0,1.478-.412,2.184,2.184,0,0,0,.832-1.1h1.47A3.534,3.534,0,0,1,83.79-.608a3.984,3.984,0,0,1-2.46.743A4.155,4.155,0,0,1,79.238-.39,3.716,3.716,0,0,1,77.79-1.882a4.629,4.629,0,0,1-.525-2.243,4.7,4.7,0,0,1,.51-2.235,3.58,3.58,0,0,1,1.433-1.477,4.264,4.264,0,0,1,2.122-.517,4.125,4.125,0,0,1,2.07.51,3.531,3.531,0,0,1,1.388,1.4A4.139,4.139,0,0,1,85.275-4.425Zm-1.41-.285a2.518,2.518,0,0,0-.345-1.342,2.244,2.244,0,0,0-.937-.855A2.924,2.924,0,0,0,81.27-7.2a2.53,2.53,0,0,0-1.763.66,2.689,2.689,0,0,0-.832,1.83ZM89.985.135A4.252,4.252,0,0,1,88.29-.187a2.859,2.859,0,0,1-1.185-.9,2.4,2.4,0,0,1-.48-1.327h1.41a1.384,1.384,0,0,0,.577,1,2.2,2.2,0,0,0,1.358.39,1.975,1.975,0,0,0,1.23-.345,1.054,1.054,0,0,0,.45-.87.858.858,0,0,0-.48-.8,6.73,6.73,0,0,0-1.485-.518,10.914,10.914,0,0,1-1.493-.487,2.648,2.648,0,0,1-.99-.735A1.918,1.918,0,0,1,86.79-6.06a1.944,1.944,0,0,1,.375-1.155,2.542,2.542,0,0,1,1.065-.832,3.832,3.832,0,0,1,1.575-.307,3.363,3.363,0,0,1,2.2.69,2.486,2.486,0,0,1,.9,1.89H91.545a1.41,1.41,0,0,0-.518-1.035A1.93,1.93,0,0,0,89.76-7.2a1.955,1.955,0,0,0-1.17.315.973.973,0,0,0-.435.825.9.9,0,0,0,.262.668,1.918,1.918,0,0,0,.66.42,11.372,11.372,0,0,0,1.1.352,11.875,11.875,0,0,1,1.44.472,2.518,2.518,0,0,1,.952.7,1.865,1.865,0,0,1,.413,1.215A2.08,2.08,0,0,1,92.61-1.02a2.5,2.5,0,0,1-1.058.848A3.78,3.78,0,0,1,89.985.135Z" transform="translate(380.008 6566.973)"/>
    <g id="Rectangle_18213" data-name="Rectangle 18213" transform="translate(343.008 6552.973)" fill="none" stroke="#000" stroke-width="1">
      <rect width="18" height="18" rx="9" stroke="none"/>
      <rect x="0.5" y="0.5" width="17" height="17" rx="8.5" fill="none"/>
    </g>
    <g id="Rectangle_18357" data-name="Rectangle 18357" transform="translate(345.008 6554.973)" stroke="#000" stroke-width="1">
      <rect width="14" height="14" rx="7" stroke="none"/>
      <rect x="0.5" y="0.5" width="13" height="13" rx="6.5" fill="none"/>
    </g>
    <path id="Path_41468" data-name="Path 41468" d="M44.795,20.2H21.272A43.678,43.678,0,0,1,25.915,5.582Q29.105,0,32.967,0t7.052,5.582A45.587,45.587,0,0,1,44.795,20.2M20.208,32.965q0-4.253.4-8.505h24.72q.4,4.253.4,8.505t-.4,8.5H20.608q-.4-4.253-.4-8.5M63.4,20.2H49.049Q47.054,7.972,42.4,1.32A32.58,32.58,0,0,1,54.958,8.43,33.633,33.633,0,0,1,63.4,20.2M23.531,1.32Q18.748,7.973,16.887,20.2H2.533A33.652,33.652,0,0,1,10.971,8.439,32.574,32.574,0,0,1,23.531,1.32M64.737,24.454a30.676,30.676,0,0,1,0,17.012H49.586q.4-4.387.4-8.507t-.4-8.505ZM15.956,32.965q0,3.987.4,8.507H1.2A32.271,32.271,0,0,1,0,32.965,32.253,32.253,0,0,1,1.2,24.46H16.354q-.4,4.378-.4,8.505m5.316,12.76H44.661a43.687,43.687,0,0,1-4.643,14.619q-3.191,5.582-7.052,5.582t-7.052-5.582a43.662,43.662,0,0,1-4.643-14.626ZM42.4,64.591q4.792-6.645,6.646-18.873H63.4a33.647,33.647,0,0,1-8.439,11.762A32.541,32.541,0,0,1,42.4,64.591M2.533,45.718H16.887q1.993,12.227,6.645,18.873a32.544,32.544,0,0,1-12.555-7.11A33.637,33.637,0,0,1,2.533,45.718" transform="translate(697.021 6713.973)" fill="#005c8a"/>
    <rect id="Rectangle_21167" data-name="Rectangle 21167" width="65.941" height="65.926" transform="translate(697.021 6713.973)" fill="none"/>
    <path id="Path_11532" data-name="Path 11532" d="M64.724,53.586a40.484,40.484,0,0,1-9.7,15.1,50.752,50.752,0,0,1-18.95,11.227,5.8,5.8,0,0,1-1.842.325h-.069a5.884,5.884,0,0,1-1.13-.111,6.108,6.108,0,0,1-.777-.212A50.75,50.75,0,0,1,13.289,68.7,40.407,40.407,0,0,1,3.594,53.6C-.322,42.969-.1,31.261.08,21.853l0-.144c.036-.777.059-1.593.072-2.494a8.5,8.5,0,0,1,8.008-8.332c9.226-.515,16.363-3.524,22.461-9.468l.053-.049a5.14,5.14,0,0,1,6.979,0l.052.049c6.1,5.944,13.236,8.953,22.462,9.468a8.5,8.5,0,0,1,8.008,8.332c.013.907.036,1.722.072,2.494l0,.061C68.432,31.2,68.654,42.927,64.724,53.586Zm0,0" transform="translate(239 6462.689) rotate(-9)" fill="#48a6d9"/>
    <path id="Path_11533" data-name="Path 11533" d="M30.487,53.585a40.484,40.484,0,0,1-9.7,15.1A50.753,50.753,0,0,1,1.842,79.917a5.939,5.939,0,0,1-.782.214A5.9,5.9,0,0,1,0,80.242V0A5.148,5.148,0,0,1,3.42,1.365l.052.049c6.1,5.944,13.237,8.953,22.462,9.468a8.5,8.5,0,0,1,8.008,8.331c.013.907.036,1.722.072,2.494l0,.061C34.2,31.195,34.418,42.926,30.487,53.585Zm0,0" transform="translate(272.814 6457.334) rotate(-9)" fill="#005c8a"/>
    <path id="Path_11534" data-name="Path 11534" d="M40,20A20.023,20.023,0,0,1,20.069,40H20A20,20,0,1,1,20,0h.07A20.023,20.023,0,0,1,40,20Zm0,0" transform="translate(256.141 6480.349) rotate(-9)" fill="#fff"/>
    <path id="Path_11535" data-name="Path 11535" d="M19.928,20A20.023,20.023,0,0,1,0,40V0A20.023,20.023,0,0,1,19.928,20Zm0,0" transform="translate(275.963 6477.209) rotate(-9)" fill="#e1ebf0"/>
    <path id="Path_11536" data-name="Path 11536" d="M19.158,4.019l-9.007,9.008L8.205,14.973a2.357,2.357,0,0,1-3.331,0L.69,10.787A2.354,2.354,0,0,1,4.019,7.458L6.54,9.979,15.829.69a2.354,2.354,0,0,1,3.329,3.329Zm0,0" transform="translate(267.985 6491.735) rotate(-9)" fill="#005c8a"/>
    <path id="Path_11537" data-name="Path 11537" d="M9.007,4.019,0,13.027V6.367L5.678.69A2.354,2.354,0,0,1,9.007,4.019Zm0,0" transform="translate(278.012 6490.147) rotate(-9)" fill="#005c8a"/>
    <path id="Path_42490" data-name="Path 42490" d="M24.26,27.705a8.993,8.993,0,0,1-1.251,4.6,9.735,9.735,0,0,1-3.681,3.54,13.3,13.3,0,0,1-5.735,1.628V41.3H10.572v-3.87a13.315,13.315,0,0,1-7.6-2.855A8.437,8.437,0,0,1,0,27.988H7.08a4.154,4.154,0,0,0,3.493,4.106V23.08a41.489,41.489,0,0,1-5.475-1.7A8.851,8.851,0,0,1,1.51,18.643,8.013,8.013,0,0,1,0,13.5,8.516,8.516,0,0,1,2.95,6.8a12.739,12.739,0,0,1,7.622-2.973V0h3.021V3.823A12.277,12.277,0,0,1,20.838,6.56a9.2,9.2,0,0,1,3.044,6.513H16.755a4.364,4.364,0,0,0-3.162-3.823v8.92a45.629,45.629,0,0,1,5.593,1.723,8.765,8.765,0,0,1,3.563,2.69A7.913,7.913,0,0,1,24.26,27.705ZM6.891,13.168a3.462,3.462,0,0,0,.944,2.525,6.871,6.871,0,0,0,2.737,1.581V9.109a4.428,4.428,0,0,0-2.69,1.274A3.865,3.865,0,0,0,6.891,13.168Zm6.7,19.021A4.8,4.8,0,0,0,16.4,30.726a3.959,3.959,0,0,0,1.015-2.737,3.294,3.294,0,0,0-.991-2.5,7.5,7.5,0,0,0-2.832-1.558Z" transform="translate(259.959 6724.544) rotate(-13)" fill="#373464"/>
    <path id="Path_42491" data-name="Path 42491" d="M13.047,14.9a4.836,4.836,0,0,1-.673,2.475,5.235,5.235,0,0,1-1.98,1.9,7.151,7.151,0,0,1-3.084.876V22.21H5.686V20.129A7.161,7.161,0,0,1,1.6,18.593,4.537,4.537,0,0,1,0,15.052H3.808a2.234,2.234,0,0,0,1.878,2.208V12.412A22.313,22.313,0,0,1,2.741,11.5,4.76,4.76,0,0,1,.812,10.026,4.309,4.309,0,0,1,0,7.26a4.58,4.58,0,0,1,1.586-3.6,6.851,6.851,0,0,1,4.1-1.6V0H7.31V2.056a6.6,6.6,0,0,1,3.9,1.472,4.951,4.951,0,0,1,1.637,3.5H9.011a2.347,2.347,0,0,0-1.7-2.056v4.8a24.54,24.54,0,0,1,3.008.926,4.714,4.714,0,0,1,1.916,1.447A4.256,4.256,0,0,1,13.047,14.9ZM3.706,7.082A1.862,1.862,0,0,0,4.214,8.44a3.7,3.7,0,0,0,1.472.85V4.9a2.381,2.381,0,0,0-1.447.685A2.079,2.079,0,0,0,3.706,7.082Zm3.6,10.229a2.583,2.583,0,0,0,1.51-.787,2.129,2.129,0,0,0,.546-1.472,1.771,1.771,0,0,0-.533-1.345,4.034,4.034,0,0,0-1.523-.838Z" transform="translate(299.218 6748.792)" fill="#373464"/>
  </g>
</svg>
