<svg xmlns="http://www.w3.org/2000/svg" xmlns:xlink="http://www.w3.org/1999/xlink" width="73" height="73" viewBox="0 0 73 73">
  <defs>
    <clipPath id="clip-path">
      <rect id="Rectangle_21954" data-name="Rectangle 21954" width="73" height="73" transform="translate(340 926)" fill="none" stroke="#707070" stroke-width="1"/>
    </clipPath>
  </defs>
  <g id="Mask_Group_7320" data-name="Mask Group 7320" transform="translate(-340 -926)" clip-path="url(#clip-path)">
    <g id="Group_39466" data-name="Group 39466" transform="translate(-170 -199.725)">
      <path id="Path_42546" data-name="Path 42546" d="M21.717,44.953c-2.1-.1-4.167-.167-6.233-.3a2.272,2.272,0,0,1-2.183-2.3,88.711,88.711,0,0,1,0-12.215,2.359,2.359,0,0,1,2.288-2.288,94.559,94.559,0,0,1,12.216,0,2.313,2.313,0,0,1,2.3,2.262,80.533,80.533,0,0,1,0,12.347,2.23,2.23,0,0,1-2.14,2.191c-2.088.132-4.181.2-6.249.3" transform="translate(521.723 1135.591)" fill="#373464"/>
      <path id="Path_42547" data-name="Path 42547" d="M13.965,36.083c.076,1.918.161,3.831.223,5.745.049,1.483-.582,2.026-2.031,1.776A47.793,47.793,0,0,1,2.465,41a3.569,3.569,0,0,1-2.44-3.458c-.031-1.013-.036-2.029,0-3.041A3.531,3.531,0,0,1,2.4,31.135a48.021,48.021,0,0,1,9.884-2.67c1.261-.223,1.942.383,1.9,1.676-.059,1.981-.149,3.962-.225,5.942" transform="translate(518 1135.808)" fill="#373464"/>
      <path id="Path_42548" data-name="Path 42548" d="M21.464,28.528c-1.942.072-3.878.154-5.813.213-1.394.044-1.97-.606-1.73-1.96a47.974,47.974,0,0,1,2.656-9.817A3.486,3.486,0,0,1,19.8,14.6a30.53,30.53,0,0,1,3.377,0,3.475,3.475,0,0,1,3.229,2.358,47.293,47.293,0,0,1,2.665,9.953c.2,1.194-.379,1.864-1.6,1.83-2-.057-4.007-.143-6.007-.216" transform="translate(521.944 1131.865)" fill="#373464"/>
      <path id="Path_42549" data-name="Path 42549" d="M42.8,36.091a21.5,21.5,0,0,1-.208,2.344A3.265,3.265,0,0,1,40.505,40.9a47.233,47.233,0,0,1-10.261,2.772,1.4,1.4,0,0,1-1.7-1.581c.028-1.3.162-2.609.157-3.912-.013-2.542-.089-5.082-.139-7.624,0-.113-.017-.225-.019-.338-.048-1.347.66-1.991,1.973-1.734,1.544.3,3.1.574,4.612.992,1.794.494,3.569,1.075,5.316,1.719A3.355,3.355,0,0,1,42.713,34.4c.028.561,0,1.125,0,1.688l.085,0" transform="translate(526.118 1135.81)" fill="#373464"/>
      <path id="Path_42550" data-name="Path 42550" d="M21.452,43.363c1.918-.082,3.831-.148,5.744-.25,1.474-.078,2.1.578,1.848,2.037A47,47,0,0,1,26.4,54.9a3.483,3.483,0,0,1-3.357,2.359,30.727,30.727,0,0,1-3.969-.131A3.048,3.048,0,0,1,16.651,55.1a46.631,46.631,0,0,1-2.738-10.074c-.226-1.324.434-1.983,1.8-1.914,1.912.1,3.826.17,5.739.253" transform="translate(521.945 1139.985)" fill="#373464"/>
      <path id="Path_42551" data-name="Path 42551" d="M41.888,30.917c-.1.647-.444.8-.939.659-1.21-.342-2.4-.758-3.626-1.044q-3.115-.726-6.263-1.322A2.77,2.77,0,0,1,28.5,26.755a59.783,59.783,0,0,0-2.323-9.623,2.258,2.258,0,0,1-.08-.394c-.121-.786.249-1.143,1-.864a21.511,21.511,0,0,1,2.586,1.148A25.445,25.445,0,0,1,41.648,30.163c.11.267.177.552.24.754" transform="translate(525.417 1132.214)" fill="#373464"/>
      <path id="Path_42552" data-name="Path 42552" d="M17.034,16.623c-.081.286-.2.651-.285,1.022-.7,2.948-1.449,5.886-2.087,8.848a2.944,2.944,0,0,1-2.7,2.711,53.6,53.6,0,0,0-8.91,2.124,2.923,2.923,0,0,1-.78.2c-.292.014-.727.037-.85-.13a1.092,1.092,0,0,1-.078-.927,33.47,33.47,0,0,1,1.78-3.7A25.339,25.339,0,0,1,15.556,16.025a2.729,2.729,0,0,1,.772-.218c.5-.048.757.236.706.816" transform="translate(518.362 1132.22)" fill="#373464"/>
      <path id="Path_42553" data-name="Path 42553" d="M2.116,40.638a4.825,4.825,0,0,1,.537.131,60.358,60.358,0,0,0,9.693,2.318,2.567,2.567,0,0,1,2.209,2.158,63.764,63.764,0,0,0,2.366,9.89c.113.335.1.971-.091,1.092a1.489,1.489,0,0,1-1.173-.017A25.342,25.342,0,0,1,1.412,41.966c-.375-.906-.155-1.377.7-1.328" transform="translate(518.352 1139.282)" fill="#373464"/>
      <path id="Path_42554" data-name="Path 42554" d="M41.076,40.624c.615-.012.825.277.754.768a3.214,3.214,0,0,1-.238.769,25.478,25.478,0,0,1-13.977,14,.592.592,0,0,1-.189.069c-.4.022-.807.036-1.21.051a4.439,4.439,0,0,1-.032-1.212c.592-2.375,1.248-4.733,1.843-7.107.217-.871.316-1.77.483-2.654a2.622,2.622,0,0,1,2.232-2.216,59.607,59.607,0,0,0,9.692-2.32,5.386,5.386,0,0,1,.641-.146" transform="translate(525.436 1139.279)" fill="#373464"/>
      <path id="Path_42555" data-name="Path 42555" d="M42.668,56.746c6.888-6.409,9.313-14.555,7.412-24.05a26.858,26.858,0,0,0-8.345-14.687,28.374,28.374,0,0,0-22.8-7.826c-.108.01-.212.042-.444.091.27.189.443.31.615.432,1.559,1.1,3.126,2.185,4.675,3.3a1.408,1.408,0,0,1,.56,1.749,1.364,1.364,0,0,1-1.611.8,2.225,2.225,0,0,1-.7-.324c-2.568-1.792-5.138-3.581-7.686-5.4A1.976,1.976,0,0,1,13.8,7.875q2.489-3.557,4.989-7.1A1.488,1.488,0,0,1,20.952.284a1.5,1.5,0,0,1,.307,2.207c-1.1,1.58-2.213,3.153-3.372,4.8.222,0,.366.017.5,0a31.542,31.542,0,0,1,18.066,3.476c.658.338,1.3.7,1.951,1.057l3.45,2.424a3.251,3.251,0,0,0,.32.344,31.348,31.348,0,0,1,6.324,7c9.118,13.729,5.935,31.6-7.352,40.115C36.987,64.38,35.77,64.9,35.22,64.626c-2.773-1.4,3.176-2.93,7.448-7.88" transform="translate(521.799 1127.726)" fill="#373464"/>
    </g>
  </g>
</svg>
