<svg xmlns="http://www.w3.org/2000/svg" xmlns:xlink="http://www.w3.org/1999/xlink" width="73" height="73" viewBox="0 0 73 73">
  <defs>
    <clipPath id="clip-path">
      <rect id="Rectangle_21959" data-name="Rectangle 21959" width="73" height="73" transform="translate(1512 922)" fill="none" stroke="#707070" stroke-width="1"/>
    </clipPath>
    <clipPath id="clip-path-2">
      <rect id="Rectangle_21839" data-name="Rectangle 21839" width="39.685" height="73" fill="#373464"/>
    </clipPath>
  </defs>
  <g id="Mask_Group_7316" data-name="Mask Group 7316" transform="translate(-1512 -922)" clip-path="url(#clip-path)">
    <g id="Group_39476" data-name="Group 39476" transform="translate(1529 922)">
      <g id="Group_39475" data-name="Group 39475" transform="translate(0 0)" clip-path="url(#clip-path-2)">
        <path id="Path_42594" data-name="Path 42594" d="M34.891,51.286a.661.661,0,0,1-.6.722,1.865,1.865,0,0,1-.388.018H30.35c-.37,0-.686-.072-.794-.487a.471.471,0,0,1-.036-.19.628.628,0,0,1,.6-.659c.217-.018.442,0,.731,0V49.173c0-.181-.009-.37.009-.551v-.036A.636.636,0,0,1,31.542,48h.063a.615.615,0,0,1,.587.641c.018.659,0,1.309,0,2.04H34.16a.669.669,0,0,1,.731.6" transform="translate(-2.87 -4.667)" fill="#373464"/>
        <path id="Path_42595" data-name="Path 42595" d="M26.375,36.721c.009.235,0,.478,0,.7s.009.442,0,.668v.018a.636.636,0,0,1-.632.641H25.7a.64.64,0,0,1-.65-.641,12.216,12.216,0,0,1,0-1.408.664.664,0,0,1,1.327.018" transform="translate(-2.434 -3.508)" fill="#373464"/>
        <path id="Path_42596" data-name="Path 42596" d="M32.2,29.4c.009.2,0,.4,0,.587,0,1.273-.045,1.327-1.335,1.327s-1.354-.054-1.354-1.354c0-1.282.053-1.336,1.326-1.336h.587c.533.018.758.244.776.776" transform="translate(-2.87 -2.783)" fill="#373464"/>
        <path id="Path_42597" data-name="Path 42597" d="M33.743,25.64H27.406c-.641,0-.876.235-.876.876v6.3c0,.668.226.9.894.9H33.77c.587,0,.84-.253.84-.849V26.5c0-.623-.244-.858-.867-.858m-.515,6.717H27.9l.009-5.335h5.317Z" transform="translate(-2.58 -2.493)" fill="#373464"/>
        <path id="Path_42598" data-name="Path 42598" d="M35.173,40.971c0,.027-.009.045-.009.063a.617.617,0,0,1-.677.551q-.65.014-1.3,0h-.072a.634.634,0,0,1-.6-.659v-.081a.633.633,0,0,1,.659-.6c.208-.009.415,0,.677,0,0-.659-.027-1.291.009-1.914a1.006,1.006,0,0,1,.253-.623.69.69,0,0,1,.37-.162.651.651,0,0,1,.686.6c.045.939.027,1.887.009,2.826" transform="translate(-3.161 -3.651)" fill="#373464"/>
        <path id="Path_42599" data-name="Path 42599" d="M15.872,43.51v.009h-6.3c-.7,0-.921.217-.921.912v6.256c0,.677.226.9.894.9,2.1.009,4.2.009,6.3,0,.641,0,.885-.235.885-.876V44.377c0-.623-.244-.858-.858-.867m-.515,6.708H10.013V44.882h5.344Z" transform="translate(-0.841 -4.231)" fill="#373464"/>
        <path id="Path_42600" data-name="Path 42600" d="M14.329,47.817v.045c0,1.264-.063,1.327-1.336,1.327a3.4,3.4,0,0,1-.858-.036.546.546,0,0,1-.316-.181.432.432,0,0,1-.09-.153,1.13,1.13,0,0,1-.063-.208,3.768,3.768,0,0,1-.036-.767,1.813,1.813,0,0,1,.009-.226,2.552,2.552,0,0,1,.054-.659.511.511,0,0,1,.135-.28c.172-.181.506-.19,1.156-.19,1.282,0,1.345.063,1.345,1.327" transform="translate(-1.131 -4.521)" fill="#373464"/>
        <path id="Path_42601" data-name="Path 42601" d="M12.676,38.1c-.009.451-.3.659-.921.659H9.995v1.6a5.487,5.487,0,0,1-.027.551.576.576,0,0,1-.6.524.61.61,0,0,1-.686-.469,1.384,1.384,0,0,1-.036-.388V36.919a1.555,1.555,0,0,1,.036-.352.6.6,0,0,1,.668-.487.577.577,0,0,1,.614.542,7,7,0,0,1,.045.794h1.769c.614,0,.9.226.894.686" transform="translate(-0.841 -3.508)" fill="#373464"/>
        <path id="Path_42602" data-name="Path 42602" d="M24.452,33.75c.009.442-.271.686-.812.7H21.771v2.69c.244,0,.469-.018.686,0a.653.653,0,0,1,.668.659.665.665,0,0,1-.659.668c-.912.018-1.815.018-2.717,0h-.081a.637.637,0,0,1-.578-.686A.2.2,0,0,1,19.1,37.7a.631.631,0,0,1,.686-.578h.65V33.94c0-.614.217-.84.812-.84h2.41c.524,0,.794.217.794.65" transform="translate(-1.856 -3.219)" fill="#373464"/>
        <path id="Path_42603" data-name="Path 42603" d="M23.107,42.689q.014,2.031,0,4.062v.063a.607.607,0,0,1-.641.578h-.072a.626.626,0,0,1-.614-.641c-.018-.208,0-.424,0-.659H20.425c0,.244.009.451,0,.659a.25.25,0,0,1-.009.081.627.627,0,0,1-.686.56h-.063a.615.615,0,0,1-.578-.65c-.009-.424-.009-.849,0-1.264a.546.546,0,0,1,0-.172.678.678,0,0,1,.749-.6H21.77V42.7a.663.663,0,0,1,.65-.668h.063a.644.644,0,0,1,.623.659" transform="translate(-1.856 -4.087)" fill="#373464"/>
        <path id="Path_42604" data-name="Path 42604" d="M34.891,44.232q.027,1.3,0,2.6a.258.258,0,0,1,0,.117.671.671,0,0,1-1.336-.117c-.009-.641,0-1.282,0-1.977-1.137,0-2.212.009-3.286,0a.657.657,0,0,1-.749-.677v-.063a.645.645,0,0,1,.686-.6c1.327-.009,2.645-.009,3.972,0V43.51H34.3a.666.666,0,0,1,.6.722" transform="translate(-2.87 -4.231)" fill="#373464"/>
        <path id="Path_42605" data-name="Path 42605" d="M19.857,40.9a.515.515,0,0,1-.009.117.652.652,0,0,1-.731.569H14.829c-.334,0-.659.009-.993,0a.22.22,0,0,1-.108,0,.628.628,0,0,1-.578-.677v-.09a.632.632,0,0,1,.677-.569c.65-.009,1.309,0,2,0,0-.7-.018-1.345,0-2a.627.627,0,0,1,.063-.307.652.652,0,0,1,.858-.325.669.669,0,0,1,.415.7h.009V40.25c.659,0,1.3-.009,1.941,0h.063a.665.665,0,0,1,.677.65" transform="translate(-1.278 -3.652)" fill="#373464"/>
        <path id="Path_42606" data-name="Path 42606" d="M15.854,25.64H9.6c-.74,0-.948.208-.948.93v6.22c0,.7.217.93.912.93h6.256c.677,0,.912-.235.912-.894v-6.3c0-.65-.235-.885-.876-.885m-.5,6.708H10.022V27.012h5.335Z" transform="translate(-0.841 -2.493)" fill="#373464"/>
        <path id="Path_42607" data-name="Path 42607" d="M14.329,29.947c0,1.309-.054,1.372-1.381,1.372-1.246,0-1.309-.072-1.309-1.318,0-.226-.018-.442,0-.668a.22.22,0,0,1,0-.108.668.668,0,0,1,.722-.6h.632c1.282,0,1.336.063,1.336,1.327" transform="translate(-1.131 -2.783)" fill="#373464"/>
        <path id="Path_42608" data-name="Path 42608" d="M39.676,7.159V7.15a9.211,9.211,0,0,0-.036-.993A6.448,6.448,0,0,0,35.46.433C35.036.253,34.585.144,34.142,0H5.534c-.5.172-1.02.307-1.508.515C1.417,1.616,0,3.945,0,7.15V65.811c0,.28.009.569.027.849a6.494,6.494,0,0,0,6.491,6.328q13.284.027,26.55-.018a6.386,6.386,0,0,0,2.437-.451c2.952-1.237,4.18-3.566,4.18-6.635q-.014-29.371-.009-58.725M13.189,5.236q3.372-.014,6.744,0h6.753c.966,0,1.472.361,1.453,1-.018.758-.74.867-2.176.885-4.541.072-7.782.027-11.754-.045-1.661-.027-2.5-.054-2.474-.894.018-.614.515-.948,1.453-.948m9.605,62.236a1.076,1.076,0,0,1-1.137.9H19.942c-.388,0-.767.009-1.147.009-.19,0-.379,0-.569-.009a1.078,1.078,0,0,1-1.147-.9,1.029,1.029,0,0,1,1.029-1.029h.036q1.787-.054,3.575,0a1.043,1.043,0,0,1,1.074.993Zm11.98-18.958a1.805,1.805,0,0,1-1.806,1.806H6.581a1.805,1.805,0,0,1-1.806-1.806V21.991a1.805,1.805,0,0,1,1.806-1.806H32.969a1.805,1.805,0,0,1,1.806,1.806Z" transform="translate(0 0)" fill="#373464"/>
        <path id="Path_42609" data-name="Path 42609" d="M27.293,47.213q.014.609,0,1.219c-.009.506-.235.731-.749.749-.181.009-.361,0-.587,0v1.851c-.009.6-.226.849-.822.849q-1.87.014-3.737,0a.883.883,0,0,1-.578-.181,1.1,1.1,0,0,1-.181-.713c.036-.316.315-.451.641-.451h3.331V48.8c0-.758.2-.957.957-.966.108,0,.226-.009.388-.018,0-.226-.009-.424,0-.632V47.15a.669.669,0,0,1,.668-.65.278.278,0,0,1,.09.009.64.64,0,0,1,.578.7" transform="translate(-2.006 -4.522)" fill="#373464"/>
        <path id="Path_42610" data-name="Path 42610" d="M31.757,36.748v.072a.629.629,0,0,1-.668.6c-.208.018-.415,0-.668,0v3.1c0,.74-.2.939-.93.939-.551,0-1.1.009-1.652.009-.018,0-.045.018-.108.054v1.778c-.009.632-.226.849-.858.849-.388,0-.785.009-1.183-.009h-.027a.628.628,0,0,1-.614-.65.648.648,0,0,1,.623-.677c.217-.018.442,0,.713,0v-1.8c0-.668.226-.894.894-.894h1.778c.009-.162.018-.3.018-.433,0-.921-.009-1.842,0-2.753,0-.614.235-.849.831-.849.388,0,.785-.009,1.174,0h.09a.639.639,0,0,1,.587.668" transform="translate(-2.436 -3.508)" fill="#373464"/>
        <path id="Path_42611" data-name="Path 42611" d="M24.452,27.788c.009.424-.262.668-.776.686-.162.009-.333,0-.559,0v1.86c-.01.578-.236.831-.8.831q-1.219.014-2.437,0c-.515,0-.785-.253-.785-.686s.271-.65.8-.65h1.878V27.987c0-.623.226-.849.858-.858q.528-.014,1.056,0c.5.009.758.244.767.659" transform="translate(-1.856 -2.637)" fill="#373464"/>
        <path id="Path_42612" data-name="Path 42612" d="M20.417,26.192a15.2,15.2,0,0,1,0,1.571c0,.018-.009.027-.009.036a.6.6,0,0,1-.6.524c-.027,0-.054-.009-.081-.009a.619.619,0,0,1-.632-.614H19.1v-.713c0-.244-.018-.5,0-.74a.681.681,0,0,1,.542-.587.672.672,0,0,1,.776.533" transform="translate(-1.856 -2.494)" fill="#373464"/>
        <path id="Path_42613" data-name="Path 42613" d="M14.329,47.817v.045c0,1.264-.063,1.327-1.336,1.327a3.4,3.4,0,0,1-.858-.036.546.546,0,0,1-.316-.181.432.432,0,0,1-.09-.153,1.13,1.13,0,0,1-.063-.208,3.768,3.768,0,0,1-.036-.767,1.813,1.813,0,0,1,.009-.226,3.748,3.748,0,0,1,.054-.659.581.581,0,0,1,.135-.28c.172-.181.506-.19,1.156-.19,1.282,0,1.345.063,1.345,1.327" transform="translate(-1.131 -4.521)" fill="#373464"/>
      </g>
    </g>
  </g>
</svg>
