<svg xmlns="http://www.w3.org/2000/svg" xmlns:xlink="http://www.w3.org/1999/xlink" width="784" height="664" viewBox="0 0 784 664">
  <defs>
    <filter id="Base" x="227.75" y="200.5" width="180" height="53" filterUnits="userSpaceOnUse">
      <feOffset dy="4" input="SourceAlpha"/>
      <feGaussianBlur stdDeviation="2.5" result="blur"/>
      <feFlood flood-opacity="0.059"/>
      <feComposite operator="in" in2="blur"/>
      <feComposite in="SourceGraphic"/>
    </filter>
    <clipPath id="clip-path">
      <path id="Path_11364" data-name="Path 11364" d="M84.563,0,0,19.694,25.126,32.829Z" transform="translate(0 0)" fill="none"/>
    </clipPath>
    <clipPath id="clip-path-2">
      <path id="Path_11365" data-name="Path 11365" d="M71.1,0,21.662,38.1,52.19,57.54Z" transform="translate(-21.662 0)" fill="none"/>
    </clipPath>
    <clipPath id="clip-path-3">
      <rect id="Rectangle_21126" data-name="Rectangle 21126" width="63.451" height="57.963" transform="translate(0 0)" fill="none"/>
    </clipPath>
  </defs>
  <g id="Group_39677" data-name="Group 39677" transform="translate(-109 -3196)">
    <rect id="Rectangle_21801" data-name="Rectangle 21801" width="784" height="664" rx="20" transform="translate(893 3860) rotate(180)" fill="#f0f0f3"/>
    <g id="Group_39413" data-name="Group 39413" transform="translate(-48.89 47.5)">
      <rect id="Rectangle_21125" data-name="Rectangle 21125" width="433.983" height="302.356" rx="12" transform="translate(340.14 3309.5)" fill="#c4d9e4"/>
      <rect id="Rectangle_21124" data-name="Rectangle 21124" width="412.983" height="283.356" rx="12" transform="translate(350.142 3318.5)" fill="#fff"/>
      <path id="Path_12910" data-name="Path 12910" d="M24.26,27.705a8.993,8.993,0,0,1-1.251,4.6,9.735,9.735,0,0,1-3.681,3.54,13.3,13.3,0,0,1-5.735,1.628V41.3H10.572v-3.87a13.315,13.315,0,0,1-7.6-2.855A8.437,8.437,0,0,1,0,27.988H7.08a4.154,4.154,0,0,0,3.493,4.106V23.08a41.489,41.489,0,0,1-5.475-1.7A8.851,8.851,0,0,1,1.51,18.643,8.013,8.013,0,0,1,0,13.5,8.516,8.516,0,0,1,2.95,6.8a12.739,12.739,0,0,1,7.622-2.973V0h3.021V3.823A12.277,12.277,0,0,1,20.838,6.56a9.2,9.2,0,0,1,3.044,6.513H16.755a4.364,4.364,0,0,0-3.162-3.823v8.92a45.629,45.629,0,0,1,5.593,1.723,8.765,8.765,0,0,1,3.563,2.69A7.913,7.913,0,0,1,24.26,27.705ZM6.891,13.168a3.462,3.462,0,0,0,.944,2.525,6.871,6.871,0,0,0,2.737,1.581V9.109a4.428,4.428,0,0,0-2.69,1.274A3.865,3.865,0,0,0,6.891,13.168Zm6.7,19.021A4.8,4.8,0,0,0,16.4,30.726a3.959,3.959,0,0,0,1.015-2.737,3.294,3.294,0,0,0-.991-2.5,7.5,7.5,0,0,0-2.832-1.558Z" transform="translate(294.89 3599.16) rotate(-13)" fill="#373464"/>
      <path id="Path_12911" data-name="Path 12911" d="M13.463,15.375a4.991,4.991,0,0,1-.694,2.554,5.4,5.4,0,0,1-2.043,1.964,7.379,7.379,0,0,1-3.182.9v2.122H5.867V20.771A7.389,7.389,0,0,1,1.65,19.186,4.682,4.682,0,0,1,0,15.532H3.929a2.305,2.305,0,0,0,1.938,2.279v-5a23.024,23.024,0,0,1-3.038-.943A4.912,4.912,0,0,1,.838,10.346,4.447,4.447,0,0,1,0,7.491,4.726,4.726,0,0,1,1.637,3.772a7.07,7.07,0,0,1,4.23-1.65V0H7.544V2.122a6.813,6.813,0,0,1,4.021,1.519,5.108,5.108,0,0,1,1.689,3.615H9.3A2.422,2.422,0,0,0,7.544,5.134v4.95a25.322,25.322,0,0,1,3.1.956,4.864,4.864,0,0,1,1.978,1.493A4.391,4.391,0,0,1,13.463,15.375ZM3.824,7.308a1.921,1.921,0,0,0,.524,1.4,3.813,3.813,0,0,0,1.519.877V5.055a2.457,2.457,0,0,0-1.493.707A2.145,2.145,0,0,0,3.824,7.308ZM7.544,17.863A2.665,2.665,0,0,0,9.1,17.051a2.2,2.2,0,0,0,.563-1.519,1.828,1.828,0,0,0-.55-1.388,4.162,4.162,0,0,0-1.572-.864Z" transform="matrix(0.995, 0.105, -0.105, 0.995, 345.944, 3627.299)" fill="#373464"/>
      <line id="Line_178" data-name="Line 178" x2="339" transform="translate(387.14 3510.5)" fill="none" stroke="#d5d5d5" stroke-width="1"/>
      <line id="Line_204" data-name="Line 204" x2="339" transform="translate(387.64 3575.5)" fill="none" stroke="#d5d5d5" stroke-width="1"/>
      <text id="_name" data-name="✏️name" transform="translate(508.634 3555.5)" font-size="14" font-family="Poppins-Medium, Poppins" font-weight="500"><tspan x="0" y="0">Drinks on me!</tspan></text>
      <text id="Android_UI" data-name="Android UI" transform="translate(442.14 3441.5)" font-size="14" font-family="Poppins-Medium, Poppins" font-weight="500"><tspan x="0" y="0">How much do you want to send?</tspan></text>
      <g id="Group_38762" data-name="Group 38762" transform="translate(386.14 3081.5)">
        <text id="_20.00" data-name="20.00" transform="translate(178 413)" font-size="38" font-family="Poppins-Regular, Poppins"><tspan x="-50" y="0">20.00</tspan></text>
        <text id="_" data-name="$" transform="translate(84 376)" font-size="16" font-family="Poppins-Regular, Poppins"><tspan x="0" y="17">$</tspan></text>
      </g>
      <g id="Group_38761" data-name="Group 38761" transform="translate(345.14 3059.5)">
        <rect id="Base-2" data-name="Base" width="339" height="50" rx="12" transform="translate(42 287)" fill="#f2f2f2"/>
        <g transform="matrix(1, 0, 0, 1, -187.25, 89)" filter="url(#Base)">
          <rect id="Base-3" data-name="Base" width="165" height="38" rx="12" transform="translate(235.25 204)" fill="#fff"/>
        </g>
        <text id="USD" transform="translate(130.5 316.5)" fill="#373464" font-size="12" font-family="Poppins-SemiBold, Poppins" font-weight="600" letter-spacing="0.083em"><tspan x="-13" y="0">USD</tspan></text>
        <text id="EURO" transform="translate(296 316.5)" fill="#9c9da2" font-size="12" font-family="Poppins-SemiBold, Poppins" font-weight="600" letter-spacing="0.083em"><tspan x="-11" y="0">LBP</tspan></text>
      </g>
      <g id="Group_39003" data-name="Group 39003" transform="translate(709.14 3428.813) rotate(-14)">
        <g id="Group_6444" data-name="Group 6444" transform="translate(0 0)">
          <g id="Group_6443" data-name="Group 6443" clip-path="url(#clip-path)">
            <path id="Path_11368" data-name="Path 11368" d="M0,0H84.563V32.829H0Z" fill="#287094"/>
          </g>
        </g>
        <g id="Group_6446" data-name="Group 6446" transform="translate(35.121 0)">
          <g id="Group_6445" data-name="Group 6445" clip-path="url(#clip-path-2)">
            <rect id="Rectangle_20173" data-name="Rectangle 20173" width="49.441" height="57.54" transform="translate(0 0)" fill="#287094"/>
          </g>
        </g>
        <path id="Path_11366" data-name="Path 11366" d="M15.5,32.829,19.009,57.54,25.492,38.1,74.934,0Z" transform="translate(9.629 0)" fill="#48a6d9"/>
        <path id="Path_11367" data-name="Path 11367" d="M17.663,42.939,36.026,31.064,24.148,23.5Z" transform="translate(10.974 14.601)" fill="#287094"/>
      </g>
      <g id="Group_39005" data-name="Group 39005" transform="matrix(0.985, -0.174, 0.174, 0.985, 296.413, 3352.449)">
        <g id="Group_39004" data-name="Group 39004" clip-path="url(#clip-path-3)">
          <path id="Path_12917" data-name="Path 12917" d="M13.966,56.908a15.962,15.962,0,0,1-9.6-3.2A16.147,16.147,0,0,1,.151,49.09a.811.811,0,0,1-.071-.816A10.054,10.054,0,0,1,7,42.576c.248-.062.5-.1.752-.15a1.641,1.641,0,0,1,1.35.336,8.477,8.477,0,0,0,5.349,1.551A7.453,7.453,0,0,0,18.639,43a2.915,2.915,0,0,1,2.746-.366,10.311,10.311,0,0,1,6.274,4.834c.622,1.041.642,1.057-.023,2.06a16.2,16.2,0,0,1-13.67,7.384" fill="#005c8a"/>
          <path id="Path_12918" data-name="Path 12918" d="M14.059,41.8a8.165,8.165,0,1,1,8.173-8.165A8.214,8.214,0,0,1,14.059,41.8" fill="#005c8a"/>
          <path id="Path_12919" data-name="Path 12919" d="M49.287,32.727a15.962,15.962,0,0,1-9.6-3.2,16.148,16.148,0,0,1-4.214-4.621.811.811,0,0,1-.071-.816,10.054,10.054,0,0,1,6.924-5.7c.248-.062.5-.1.752-.15a1.641,1.641,0,0,1,1.35.336,8.477,8.477,0,0,0,5.349,1.551,7.453,7.453,0,0,0,4.184-1.317,2.915,2.915,0,0,1,2.746-.366,10.311,10.311,0,0,1,6.274,4.834c.622,1.041.642,1.057-.023,2.06a16.2,16.2,0,0,1-13.67,7.384" fill="#373464"/>
          <path id="Path_12920" data-name="Path 12920" d="M49.38,17.618a8.165,8.165,0,1,1,8.173-8.165,8.214,8.214,0,0,1-8.173,8.165" fill="#373464"/>
          <path id="Path_12921" data-name="Path 12921" d="M21.421,15.189l6.236-6.236A1.591,1.591,0,1,0,25.408,6.7l-6.237,6.236a1.591,1.591,0,0,0,2.25,2.25" fill="#005c8a"/>
          <path id="Path_12922" data-name="Path 12922" d="M25.435,6.2H12.457a1.608,1.608,0,0,0,0,3.216H25.435a1.608,1.608,0,0,0,0-3.216" fill="#005c8a"/>
          <path id="Path_12923" data-name="Path 12923" d="M14.065,17.3V7.784a1.608,1.608,0,0,0-3.216,0V17.3a1.608,1.608,0,0,0,3.216,0" fill="#005c8a"/>
          <path id="Path_12924" data-name="Path 12924" d="M25.408,8.95,19.172,2.714A1.591,1.591,0,1,1,21.421.464L27.658,6.7a1.591,1.591,0,0,1-2.25,2.25" fill="#005c8a"/>
          <path id="Path_12925" data-name="Path 12925" d="M40.069,42.774,33.833,49.01a1.591,1.591,0,1,0,2.249,2.25l6.237-6.236a1.591,1.591,0,0,0-2.25-2.25" fill="#005c8a"/>
          <path id="Path_12926" data-name="Path 12926" d="M36.055,51.762H49.033a1.608,1.608,0,0,0,0-3.216H36.055a1.608,1.608,0,1,0,0,3.216" fill="#005c8a"/>
          <path id="Path_12927" data-name="Path 12927" d="M47.425,40.666v9.513a1.608,1.608,0,0,0,3.216,0V40.666a1.608,1.608,0,1,0-3.216,0" fill="#005c8a"/>
          <path id="Path_12928" data-name="Path 12928" d="M36.082,49.013l6.236,6.236a1.591,1.591,0,1,1-2.249,2.25l-6.237-6.236a1.591,1.591,0,0,1,2.25-2.25" fill="#005c8a"/>
        </g>
      </g>
    </g>
  </g>
</svg>
