<svg xmlns="http://www.w3.org/2000/svg" xmlns:xlink="http://www.w3.org/1999/xlink" width="73" height="73" viewBox="0 0 73 73">
  <defs>
    <clipPath id="clip-path">
      <rect id="Rectangle_21988" data-name="Rectangle 21988" width="73" height="73" transform="translate(347 932)" fill="none" stroke="#707070" stroke-width="1"/>
    </clipPath>
  </defs>
  <g id="Mask_Group_7363" data-name="Mask Group 7363" transform="translate(-347 -932)" clip-path="url(#clip-path)">
    <g id="Group_39997" data-name="Group 39997" transform="translate(-2679.889 -657.277)">
      <path id="Path_43473" data-name="Path 43473" d="M25.95,9.611l-6.69,6.7a1.739,1.739,0,0,1-1.212.5,1.706,1.706,0,0,1-1.2-2.914l3.775-3.784H1.709A1.7,1.7,0,0,1,0,8.4,1.714,1.714,0,0,1,1.709,6.69h18.9L16.844,2.914a1.7,1.7,0,0,1,0-2.416,1.684,1.684,0,0,1,1.2-.5A1.707,1.707,0,0,1,19.26.5l6.69,6.7a1.706,1.706,0,0,1,0,2.416" transform="translate(3071.292 1630.667) rotate(90)" fill="#373464"/>
      <g id="Group_39901" data-name="Group 39901" transform="translate(3035.336 1595.064)">
        <path id="Path_9517" data-name="Path 9517" d="M52.433-72.221a5.906,5.906,0,0,1-5.9,5.9,5.906,5.906,0,0,1-5.9-5.9,5.906,5.906,0,0,1,5.9-5.9,5.906,5.906,0,0,1,5.9,5.9" transform="translate(-18.977 87.965)" fill="#373464"/>
        <path id="Path_9518" data-name="Path 9518" d="M55.45-93.75h-43.3a5.906,5.906,0,0,0-5.9,5.9v19.68a5.906,5.906,0,0,0,5.9,5.9h43.3a5.906,5.906,0,0,0,5.9-5.9v-19.68A5.906,5.906,0,0,0,55.45-93.75ZM16.09-83.91H14.122a1.967,1.967,0,0,1-1.968-1.968,1.967,1.967,0,0,1,1.968-1.968H16.09a1.967,1.967,0,0,1,1.968,1.968A1.967,1.967,0,0,1,16.09-83.91ZM33.8-68.166a9.829,9.829,0,0,1-6.957-2.883,9.829,9.829,0,0,1-2.883-6.957,9.829,9.829,0,0,1,2.883-6.957A9.829,9.829,0,0,1,33.8-87.846a9.829,9.829,0,0,1,6.957,2.883,9.829,9.829,0,0,1,2.883,6.957,9.829,9.829,0,0,1-2.883,6.957A9.829,9.829,0,0,1,33.8-68.166Zm19.68,0H51.514a1.967,1.967,0,0,1-1.968-1.968A1.967,1.967,0,0,1,51.514-72.1h1.968a1.967,1.967,0,0,1,1.968,1.968A1.968,1.968,0,0,1,53.482-68.166Z" transform="translate(-6.25 93.75)" fill="#373464"/>
      </g>
    </g>
  </g>
</svg>
