<svg xmlns="http://www.w3.org/2000/svg" xmlns:xlink="http://www.w3.org/1999/xlink" width="359" height="304" viewBox="0 0 359 304">
  <defs>
    <linearGradient id="linear-gradient" x1="0.5" x2="0.5" y2="1" gradientUnits="objectBoundingBox">
      <stop offset="0" stop-color="#226d96"/>
      <stop offset="1" stop-color="#373464"/>
    </linearGradient>
  </defs>
  <g id="Group_39686" data-name="Group 39686" transform="translate(-17 -7266)">
    <rect id="Rectangle_21812" data-name="Rectangle 21812" width="359" height="304" rx="20" transform="translate(376 7570) rotate(180)" fill="#f0f0f3"/>
    <g id="Group_39532" data-name="Group 39532" transform="translate(-1104.402 1667)">
      <g id="Group_39523" data-name="Group 39523" transform="translate(1165.134 5630)">
        <rect id="Rectangle_21851" data-name="Rectangle 21851" width="272.312" height="225.661" rx="12" transform="translate(0)" fill="#c4d9e4"/>
        <rect id="Rectangle_21852" data-name="Rectangle 21852" width="260.489" height="214.964" rx="12" transform="translate(5.631 5.067)" fill="#fff"/>
      </g>
      <g id="Group_39519" data-name="Group 39519" transform="translate(1415.839 5818.815)">
        <path id="Path_42546" data-name="Path 42546" d="M19.575,40.658c-1.577-.073-3.132-.126-4.685-.224a1.708,1.708,0,0,1-1.641-1.728,66.683,66.683,0,0,1,0-9.182A1.773,1.773,0,0,1,14.97,27.8a71.078,71.078,0,0,1,9.183,0,1.739,1.739,0,0,1,1.73,1.7,60.535,60.535,0,0,1,0,9.281,1.676,1.676,0,0,1-1.608,1.647c-1.57.1-3.143.154-4.7.226" transform="translate(-0.452 -0.955)" fill="#216d96"/>
        <path id="Path_42547" data-name="Path 42547" d="M10.5,34.18c.057,1.441.121,2.88.168,4.319.037,1.115-.437,1.523-1.526,1.335a35.926,35.926,0,0,1-7.286-1.961,2.683,2.683,0,0,1-1.834-2.6c-.023-.762-.027-1.525,0-2.286a2.654,2.654,0,0,1,1.785-2.527,36.1,36.1,0,0,1,7.429-2.007c.948-.168,1.46.288,1.431,1.26-.044,1.489-.112,2.978-.169,4.466" transform="translate(0 -0.981)" fill="#216d96"/>
        <path id="Path_42548" data-name="Path 42548" d="M19.578,25.058c-1.46.054-2.915.116-4.37.16-1.048.033-1.481-.456-1.3-1.473a36.062,36.062,0,0,1,2-7.379,2.621,2.621,0,0,1,2.424-1.775,22.949,22.949,0,0,1,2.538,0,2.612,2.612,0,0,1,2.427,1.773,35.55,35.55,0,0,1,2,7.481c.152.9-.285,1.4-1.2,1.376-1.506-.042-3.012-.107-4.515-.162" transform="translate(-0.479 -0.503)" fill="#216d96"/>
        <path id="Path_42549" data-name="Path 42549" d="M39.262,34.187a16.161,16.161,0,0,1-.156,1.762,2.455,2.455,0,0,1-1.57,1.851,35.5,35.5,0,0,1-7.713,2.083,1.055,1.055,0,0,1-1.274-1.188c.021-.981.122-1.961.118-2.941-.01-1.911-.067-3.82-.1-5.731,0-.085-.013-.169-.014-.254-.036-1.013.5-1.5,1.483-1.3,1.16.226,2.329.432,3.467.745,1.349.372,2.683.808,4,1.292a2.522,2.522,0,0,1,1.7,2.414c.021.422,0,.846,0,1.269l.064,0" transform="translate(-0.986 -0.981)" fill="#216d96"/>
        <path id="Path_42550" data-name="Path 42550" d="M19.569,43.3c1.441-.062,2.88-.111,4.318-.188,1.108-.059,1.581.434,1.389,1.531a35.33,35.33,0,0,1-1.985,7.33,2.618,2.618,0,0,1-2.524,1.774,23.1,23.1,0,0,1-2.983-.1A2.291,2.291,0,0,1,15.96,52.12,35.052,35.052,0,0,1,13.9,44.547c-.17-1,.326-1.491,1.354-1.439,1.438.071,2.876.127,4.314.19" transform="translate(-0.479 -1.488)" fill="#216d96"/>
        <path id="Path_42551" data-name="Path 42551" d="M37.962,27.158c-.071.487-.334.6-.706.5-.909-.257-1.806-.57-2.726-.785q-2.342-.546-4.708-.993A2.082,2.082,0,0,1,27.9,24.03,44.938,44.938,0,0,0,26.154,16.8a1.7,1.7,0,0,1-.06-.3c-.091-.591.187-.859.751-.65a16.169,16.169,0,0,1,1.943.863,19.127,19.127,0,0,1,8.992,9.878c.083.2.133.415.181.567" transform="translate(-0.9 -0.545)" fill="#216d96"/>
        <path id="Path_42552" data-name="Path 42552" d="M13.12,16.419c-.061.215-.148.489-.214.769-.529,2.216-1.089,4.425-1.569,6.651A2.213,2.213,0,0,1,9.3,25.877a40.287,40.287,0,0,0-6.7,1.6,2.2,2.2,0,0,1-.586.153c-.219.011-.546.028-.639-.1a.821.821,0,0,1-.059-.7,25.159,25.159,0,0,1,1.338-2.782,19.047,19.047,0,0,1,9.348-8.079,2.051,2.051,0,0,1,.58-.164c.377-.036.569.178.531.613" transform="translate(-0.044 -0.546)" fill="#216d96"/>
        <path id="Path_42553" data-name="Path 42553" d="M1.9,40.637a3.624,3.624,0,0,1,.4.1,45.371,45.371,0,0,0,7.286,1.743A1.929,1.929,0,0,1,11.248,44.1a47.93,47.93,0,0,0,1.778,7.434c.085.252.074.73-.069.821a1.12,1.12,0,0,1-.881-.013A19.049,19.049,0,0,1,1.368,41.635c-.282-.681-.117-1.035.529-1" transform="translate(-0.043 -1.403)" fill="#216d96"/>
        <path id="Path_42554" data-name="Path 42554" d="M37.369,40.624c.462-.009.62.209.567.577a2.416,2.416,0,0,1-.179.578A19.152,19.152,0,0,1,27.251,52.3a.445.445,0,0,1-.142.052c-.3.016-.606.027-.909.039a3.336,3.336,0,0,1-.024-.911c.445-1.785.938-3.558,1.385-5.342.163-.655.238-1.33.363-1.995A1.971,1.971,0,0,1,29.6,42.478a44.806,44.806,0,0,0,7.285-1.744,4.048,4.048,0,0,1,.482-.11" transform="translate(-0.903 -1.403)" fill="#216d96"/>
        <path id="Path_42555" data-name="Path 42555" d="M35.39,42.655c5.178-4.818,7-10.941,5.572-18.078a20.189,20.189,0,0,0-6.273-11.04A21.328,21.328,0,0,0,17.548,7.654c-.081.008-.159.032-.334.069l.462.324c1.172.825,2.35,1.642,3.514,2.478a1.058,1.058,0,0,1,.421,1.315,1.025,1.025,0,0,1-1.211.6,1.672,1.672,0,0,1-.528-.243c-1.93-1.347-3.862-2.692-5.777-4.06a1.485,1.485,0,0,1-.408-2.219q1.871-2.673,3.75-5.34A1.118,1.118,0,0,1,19.066.213,1.126,1.126,0,0,1,19.3,1.872c-.828,1.188-1.664,2.37-2.534,3.611.167,0,.275.013.379,0A23.71,23.71,0,0,1,30.722,8.1c.494.254.978.529,1.467.795l2.593,1.822a2.444,2.444,0,0,0,.24.259,23.564,23.564,0,0,1,4.754,5.262c6.854,10.32,4.461,23.75-5.526,30.154-3.13,2.006-4.045,2.4-4.459,2.192-2.084-1.051,2.388-2.2,5.6-5.923" transform="translate(-0.461 0)" fill="#216d96"/>
      </g>
      <g id="Group_39522" data-name="Group 39522" transform="translate(1211.301 5660.403)">
        <path id="Path_42748" data-name="Path 42748" d="M8.921,10.188a3.307,3.307,0,0,1-.46,1.692,3.58,3.58,0,0,1-1.354,1.3,4.89,4.89,0,0,1-2.109.6v1.406H3.888V13.763a4.9,4.9,0,0,1-2.794-1.05A3.1,3.1,0,0,1,0,10.292H2.6A1.528,1.528,0,0,0,3.888,11.8V8.487a15.257,15.257,0,0,1-2.013-.625A3.255,3.255,0,0,1,.555,6.856,2.947,2.947,0,0,1,0,4.964,3.132,3.132,0,0,1,1.085,2.5a4.685,4.685,0,0,1,2.8-1.093V0H5V1.406A4.515,4.515,0,0,1,7.663,2.412a3.385,3.385,0,0,1,1.119,2.4H6.161A1.6,1.6,0,0,0,5,3.4v3.28a16.779,16.779,0,0,1,2.057.633,3.223,3.223,0,0,1,1.31.989A2.91,2.91,0,0,1,8.921,10.188ZM2.534,4.842a1.273,1.273,0,0,0,.347.929,2.527,2.527,0,0,0,1.007.581v-3a1.628,1.628,0,0,0-.989.469A1.421,1.421,0,0,0,2.534,4.842ZM5,11.837A1.766,1.766,0,0,0,6.031,11.3,1.456,1.456,0,0,0,6.4,10.292a1.211,1.211,0,0,0-.364-.92A2.758,2.758,0,0,0,5,8.8Z" transform="translate(170.726 139.856) rotate(-1)" fill="#373464"/>
        <path id="Path_42747" data-name="Path 42747" d="M9.779,10.765a3.358,3.358,0,0,0,1.355-1.428h2.492a5.613,5.613,0,0,1-2.274,2.8,6.593,6.593,0,0,1-3.584.982,6.451,6.451,0,0,1-3.784-1.155,6.029,6.029,0,0,1-2.31-3.084H0V7.463H1.346q-.036-.509-.036-.8t.036-.8H0V4.443H1.674a6.029,6.029,0,0,1,2.31-3.084A6.451,6.451,0,0,1,7.768.2a6.564,6.564,0,0,1,3.575.992,5.646,5.646,0,0,1,2.283,2.811H11.134A3.358,3.358,0,0,0,9.779,2.578,4.058,4.058,0,0,0,7.768,2.1a4.385,4.385,0,0,0-2.338.619A3.981,3.981,0,0,0,3.893,4.443H7.768V5.862H3.493a5.9,5.9,0,0,0,0,1.6H7.768V8.882H3.893a3.962,3.962,0,0,0,1.537,1.747,4.385,4.385,0,0,0,2.338.619,4.058,4.058,0,0,0,2.01-.482" transform="translate(152.103 -0.204)" fill="#373464"/>
        <path id="Path_42750" data-name="Path 42750" d="M19.034,11.255v1.661H10.762l-.357-1.108a5.968,5.968,0,0,0,1.108-1.6,4.815,4.815,0,0,0,.357-1.974,3.473,3.473,0,0,0-.088-.75H9.817V6.074h1.517a6.877,6.877,0,0,1-.375-2.18,3.981,3.981,0,0,1,.52-2.072A3.5,3.5,0,0,1,12.908.473,4.5,4.5,0,0,1,15.016,0a3.728,3.728,0,0,1,2.893,1.072,4.024,4.024,0,0,1,1.02,2.733H17.07a2.224,2.224,0,0,0-.5-1.528,1.981,1.981,0,0,0-1.554-.563,2.141,2.141,0,0,0-1.545.554A2.292,2.292,0,0,0,12.888,4,4.6,4.6,0,0,0,13,5c.071.322.174.679.3,1.072h3.467V7.486H13.712a3.621,3.621,0,0,1,.088.768,4.225,4.225,0,0,1-1.2,3Z" transform="translate(-8.348 142.123)" fill="#373464"/>
        <path id="Path_42749" data-name="Path 42749" d="M25.032,5.887h2.342V7.411l-3.142.037-.576,1.1V9.1h3.719v1.524H23.655v2.6H21.538v-2.6H17.821V9.1h3.717V8.545l-.576-1.1-3.141-.037V5.887h2.323L17.245.312H19.6l2.974,6.3,2.974-6.3h2.379Z" transform="translate(-17.245 9.976)" fill="#373464"/>
        <g id="Group_39520" data-name="Group 39520" transform="translate(15.683 10.287)">
          <g id="Group_39518" data-name="Group 39518">
            <path id="Path_42703" data-name="Path 42703" d="M8.936,34.447c0-.816-.136-1.5-.136-2.311L11.791,32a11.694,11.694,0,0,0,.136,2.175Z" transform="translate(-8.79 1.851)" fill="#373464"/>
            <path id="Path_42704" data-name="Path 42704" d="M131.245,151.1v-2.991c1.5,0,2.991-.136,4.35-.272l.408,2.991C134.508,150.824,132.877,150.96,131.245,151.1Zm-4.622-.272c-1.5-.136-3.127-.272-4.622-.544l.544-2.991c1.5.272,2.991.408,4.486.544Zm14.139-1.088-.816-2.855a20.072,20.072,0,0,0,3.942-1.631l1.359,2.719A34.278,34.278,0,0,1,140.762,149.737Zm-23.519-.408-4.486-1.224.816-2.855c1.5.408,2.991.816,4.35,1.224Zm-8.837-2.583c-1.359-.544-2.855-1.088-4.35-1.631l1.088-2.855c1.359.544,2.855,1.088,4.214,1.631Zm-8.7-3.535c-1.359-.68-2.719-1.359-4.214-2.039l1.359-2.719c1.359.68,2.719,1.359,4.078,1.9ZM91.413,139c-1.359-.68-2.719-1.5-4.078-2.311l1.5-2.583c1.359.816,2.583,1.5,3.942,2.175Zm-8.021-4.622c-1.224-.816-2.583-1.631-3.942-2.583l1.631-2.447c1.224.816,2.583,1.631,3.807,2.447Zm-7.613-5.166c-1.224-.952-2.447-1.767-3.671-2.719l1.767-2.447c1.224.952,2.447,1.767,3.671,2.719Zm-7.341-5.574c-1.224-.952-2.447-1.9-3.535-2.855l1.9-2.311c1.224.952,2.311,1.9,3.535,2.855Zm-7.205-5.846c-1.088-.952-2.311-2.039-3.4-3.127l2.039-2.175c1.088,1.088,2.311,2.039,3.4,2.991Zm-6.8-6.254c-1.088-.952-2.039-2.039-3.127-3.127l-.136-.136,2.175-2.175.136.136c1.088,1.088,2.039,2.039,3.127,2.991Zm-6.526-6.526c-1.088-1.088-2.175-2.311-3.127-3.4l2.175-2.039c.952,1.088,2.039,2.175,3.127,3.263Zm-6.254-6.933c-.952-1.224-2.039-2.311-2.991-3.535l2.311-1.9c.952,1.224,1.9,2.311,2.991,3.535ZM35.81,91.007l-2.855-3.671L35.4,85.569c.952,1.224,1.767,2.447,2.719,3.671ZM30.236,83.53c-.952-1.224-1.767-2.583-2.583-3.807L30.1,78.092c.816,1.224,1.631,2.447,2.583,3.807ZM25.07,75.917c-.816-1.359-1.631-2.583-2.447-3.942l2.583-1.5c.816,1.224,1.5,2.583,2.311,3.942ZM20.448,67.9c-.68-1.359-1.5-2.719-2.175-4.078l2.719-1.359,2.039,4.078ZM16.369,59.6c-.68-1.5-1.224-2.855-1.767-4.214L17.457,54.3c.544,1.359,1.088,2.719,1.767,4.214Zm-3.535-8.7c-.544-1.5-.952-2.991-1.5-4.486l2.855-.816c.408,1.359.816,2.855,1.359,4.35ZM10.252,41.93C9.844,40.3,9.572,38.8,9.3,37.308l2.991-.408c.272,1.359.544,2.855.816,4.35Z" transform="translate(-8.61 3.613)" fill="#373464"/>
            <path id="Path_42705" data-name="Path 42705" d="M112.9,117.571l-1.9-2.311a14.885,14.885,0,0,0,1.5-1.359l2.175,2.175a17.223,17.223,0,0,0-1.767,1.5Z" transform="translate(27.949 31.293)" fill="#373464"/>
            <path id="Path_42706" data-name="Path 42706" d="M8.8,36.558C8.667,30.032,9.89,24.322,12.473,19.7l2.583,1.5c-2.311,4.078-3.4,9.244-3.263,15.226Z" transform="translate(-8.792 -2.571)" fill="#373464"/>
            <path id="Path_42707" data-name="Path 42707" d="M19.5,16.742,18,14.159c6.39-3.535,14.682-4.486,24.743-2.855L42.2,14.3c-9.109-1.631-16.994-.68-22.7,2.447Z" transform="translate(-5.483 -5.866)" fill="#373464"/>
            <path id="Path_42708" data-name="Path 42708" d="M17.077,26.254a7.724,7.724,0,0,1-4.486-1.5A7.405,7.405,0,0,1,9.6,18.777,7.544,7.544,0,0,1,17.077,11.3a7.154,7.154,0,0,1,5.846,2.991,7.417,7.417,0,0,1,1.5,4.486,7.34,7.34,0,0,1-7.341,7.477Zm0-11.827a4.38,4.38,0,0,0-4.35,4.35,4.509,4.509,0,0,0,1.767,3.535,4.636,4.636,0,0,0,2.583.952,4.38,4.38,0,0,0,4.35-4.35,3.589,3.589,0,0,0-.952-2.583A3.615,3.615,0,0,0,17.077,14.427Z" transform="translate(-8.502 -5.59)" fill="#373464"/>
            <path id="Path_42709" data-name="Path 42709" d="M104.5,14.155c1.359.408,2.719.816,4.078,1.359L109.8,12.8a24.826,24.826,0,0,0-4.486-1.5Z" transform="translate(25.613 -5.59)" fill="#373464"/>
            <path id="Path_42710" data-name="Path 42710" d="M98.2,10.536v2.991h.408a38.2,38.2,0,0,1,3.943.136l.272-2.991a41.171,41.171,0,0,0-4.214-.272Z" transform="translate(23.348 -5.914)" fill="#373464"/>
            <path id="Path_42711" data-name="Path 42711" d="M111.967,14.2,110.2,16.647a19.88,19.88,0,0,1,2.583,2.175l2.175-2.175A16.84,16.84,0,0,0,111.967,14.2Z" transform="translate(27.662 -4.548)" fill="#373464"/>
            <path id="Path_42712" data-name="Path 42712" d="M18.1,71.507,20.683,73c.68-1.224,1.5-2.583,2.311-3.807l-2.583-1.5C19.6,68.924,18.916,70.283,18.1,71.507Z" transform="translate(-5.447 14.685)" fill="#373464"/>
            <path id="Path_42713" data-name="Path 42713" d="M15.1,77.578,17.819,78.8a35.877,35.877,0,0,1,2.039-3.942L17.139,73.5A28.533,28.533,0,0,0,15.1,77.578Z" transform="translate(-6.525 16.77)" fill="#373464"/>
            <path id="Path_42714" data-name="Path 42714" d="M25.4,60.171l2.447,1.767c.816-1.224,1.767-2.447,2.719-3.671L28.119,56.5C27.167,57.724,26.216,58.947,25.4,60.171Z" transform="translate(-2.822 10.658)" fill="#373464"/>
            <path id="Path_42715" data-name="Path 42715" d="M21.6,65.807l2.583,1.631,2.447-3.671L24.183,62A37.389,37.389,0,0,0,21.6,65.807Z" transform="translate(-4.188 12.635)" fill="#373464"/>
            <path id="Path_42716" data-name="Path 42716" d="M12.1,113.031a26.286,26.286,0,0,0,2.991,3.807l2.175-2.175a15.184,15.184,0,0,1-2.583-3.263Z" transform="translate(-7.604 30.394)" fill="#373464"/>
            <path id="Path_42717" data-name="Path 42717" d="M12.771,93.044,9.78,92.5c-.272,1.5-.544,3.127-.68,4.622l2.991.408C12.227,96.035,12.5,94.539,12.771,93.044Z" transform="translate(-8.682 23.6)" fill="#373464"/>
            <path id="Path_42718" data-name="Path 42718" d="M16.886,80.824,14.167,79.6c-.544,1.5-1.224,2.855-1.767,4.214L15.255,84.9Z" transform="translate(-7.496 18.962)" fill="#373464"/>
            <path id="Path_42719" data-name="Path 42719" d="M14.478,86.852,11.624,85.9A27.524,27.524,0,0,0,10.4,90.386l2.855.816c.408-1.5.816-2.991,1.224-4.35Z" transform="translate(-8.215 21.227)" fill="#373464"/>
            <path id="Path_42720" data-name="Path 42720" d="M12.391,105.7l-2.991.68a35.051,35.051,0,0,0,1.359,4.486l2.855-1.088A23.251,23.251,0,0,1,12.391,105.7Z" transform="translate(-8.574 28.345)" fill="#373464"/>
            <path id="Path_42721" data-name="Path 42721" d="M29.4,54.835l2.311,1.9c.952-1.224,1.9-2.311,2.855-3.535l-2.311-1.9C31.3,52.524,30.352,53.611,29.4,54.835Z" transform="translate(-1.384 8.789)" fill="#373464"/>
            <path id="Path_42722" data-name="Path 42722" d="M11.791,100.559V99.336L8.8,99.2v1.224a27.3,27.3,0,0,0,.136,3.4l2.991-.272C11.927,102.735,11.791,101.647,11.791,100.559Z" transform="translate(-8.79 26.008)" fill="#373464"/>
            <path id="Path_42723" data-name="Path 42723" d="M40.883,42.08,38.3,44.663,40.475,46.7c.816-.816,1.631-1.767,2.583-2.583l.544-.544L41.427,41.4Z" transform="translate(1.815 5.23)" fill="#373464"/>
            <path id="Path_42724" data-name="Path 42724" d="M70,19.775l1.5,2.583c1.359-.68,2.583-1.359,3.942-2.039L74.078,17.6C72.583,18.416,71.359,19.1,70,19.775Z" transform="translate(13.21 -3.325)" fill="#373464"/>
            <path id="Path_42725" data-name="Path 42725" d="M76,16.7l1.224,2.719c1.359-.68,2.719-1.224,4.078-1.767L80.214,14.8C78.719,15.48,77.359,16.159,76,16.7Z" transform="translate(15.367 -4.332)" fill="#373464"/>
            <path id="Path_42726" data-name="Path 42726" d="M64.2,23.211l1.631,2.583c1.224-.816,2.583-1.631,3.807-2.311L68.007,20.9C66.783,21.58,65.424,22.4,64.2,23.211Z" transform="translate(11.125 -2.139)" fill="#373464"/>
            <path id="Path_42727" data-name="Path 42727" d="M88.7,11.98l.68,2.991c1.088-.272,2.039-.408,3.127-.68L91.963,11.3A27.844,27.844,0,0,0,88.7,11.98Z" transform="translate(19.933 -5.59)" fill="#373464"/>
            <path id="Path_42728" data-name="Path 42728" d="M82.2,14.059l.952,2.855c1.359-.544,2.855-.952,4.214-1.359L86.55,12.7C85.191,13.108,83.7,13.516,82.2,14.059Z" transform="translate(17.596 -5.087)" fill="#373464"/>
            <path id="Path_42729" data-name="Path 42729" d="M33.7,49.7l2.311,2.039c.952-1.088,2.039-2.175,2.991-3.4L36.827,46.3c-1.088,1.088-2.039,2.175-3.127,3.4Z" transform="translate(0.161 6.992)" fill="#373464"/>
            <path id="Path_42730" data-name="Path 42730" d="M48,35.355l2.039,2.311c1.088-.952,2.311-1.9,3.4-2.855l-1.9-2.311C50.311,33.452,49.224,34.4,48,35.355Z" transform="translate(5.302 2.031)" fill="#373464"/>
            <path id="Path_42731" data-name="Path 42731" d="M43,39.891l2.039,2.175c1.088-1.088,2.175-2.039,3.263-2.991L46.263,36.9C45.311,37.852,44.224,38.8,43,39.891Z" transform="translate(3.504 3.613)" fill="#373464"/>
            <path id="Path_42732" data-name="Path 42732" d="M53.2,31.055l1.9,2.311c1.224-.952,2.311-1.9,3.535-2.719L56.871,28.2C55.647,29.288,54.424,30.1,53.2,31.055Z" transform="translate(7.171 0.485)" fill="#373464"/>
            <path id="Path_42733" data-name="Path 42733" d="M58.6,26.983l1.767,2.447c1.224-.816,2.447-1.767,3.671-2.583L62.407,24.4C61.047,25.352,59.824,26.167,58.6,26.983Z" transform="translate(9.112 -0.881)" fill="#373464"/>
            <path id="Path_42734" data-name="Path 42734" d="M114.275,16,112.1,18.175c6.118,6.118,8.021,16.042,5.438,28.821a1.448,1.448,0,0,0,1.088,1.767,1.536,1.536,0,0,0,1.767-1.224C123.384,33.809,121.209,22.933,114.275,16Z" transform="translate(28.345 -3.901)" fill="#373464"/>
            <path id="Path_42735" data-name="Path 42735" d="M102.571,19.471H90.2V7.1h12.371Zm-9.38-2.991h6.39v-6.39h-6.39Z" transform="translate(20.472 -7.1)" fill="#373464"/>
          </g>
          <path id="Path_42736" data-name="Path 42736" d="M101.221,13.875A76.958,76.958,0,0,0,83.412,11.7a73.113,73.113,0,0,0-32.084,7.341,58.575,58.575,0,0,0-6.39,3.535L42.9,23.8A74.275,74.275,0,0,0,14.214,60.1,76.062,76.062,0,0,0,10,85.112a73.453,73.453,0,0,0,73.412,73.412,78.89,78.89,0,0,0,15.09-1.5c22.16-52.068,27.869-100.738,2.719-143.153Z" transform="translate(-8.359 -5.446)" fill="#216d96"/>
          <path id="Path_42737" data-name="Path 42737" d="M130.331,63.429a51.026,51.026,0,0,0-2.311-6.39A73.879,73.879,0,0,0,77.719,13.4C102.869,55.816,97.16,104.485,75,156.553a73.3,73.3,0,0,0,58.322-71.917A67.831,67.831,0,0,0,130.331,63.429Z" transform="translate(15.008 -4.835)" fill="#216d96"/>
          <path id="Path_42738" data-name="Path 42738" d="M38.65,22.455c.136,1.088.952.952,1.767.952h3.4c0-1.088-.544-1.631-1.631-1.5a23.9,23.9,0,0,1-3.127,0,9.269,9.269,0,0,1,.68-.952.861.861,0,0,0-.816-1.359H36.339L34.3,20.824c1.359.408,2.583.952,3.942,1.224.136.136.408.272.408.408Z" transform="translate(0.377 -2.606)" fill="#f2f2f2"/>
          <path id="Path_42739" data-name="Path 42739" d="M116.7,111.222v-2.175a3.118,3.118,0,0,0-.952-2.855,6.7,6.7,0,0,1-2.039-5.846,4.681,4.681,0,0,0-1.631-4.622c-1.088-.816-.952-2.311-.408-3.535a35.876,35.876,0,0,1,2.039-3.943,1.655,1.655,0,0,0,0-1.767c-1.359-2.175-2.583-4.486-3.807-6.8a5.033,5.033,0,0,1-.816-3.942,40.276,40.276,0,0,0,.408-4.214c-1.359-.136-2.583-.272-3.807-.408a3.7,3.7,0,0,1-1.631-.816,3.987,3.987,0,0,0-5.438-.136,2.851,2.851,0,0,1-1.5.544,8.882,8.882,0,0,1-1.9,0c-.544,0-1.088.136-1.767.136C91.142,91.917,84.616,113.8,75.1,136.236A73.723,73.723,0,0,0,116.7,111.222Z" transform="translate(15.044 15.21)" fill="#c4d9e4"/>
          <path id="Path_42740" data-name="Path 42740" d="M91.546,49.562a7.154,7.154,0,0,1,5.3-.136c.408.136.816.136,1.359.272l.408-2.039a14.154,14.154,0,0,1-1.631-.68,19.247,19.247,0,0,1,.544-2.719,1.573,1.573,0,0,1,.952-.68,4.756,4.756,0,0,0,4.894-3.127c.952-1.767,2.583-1.5,4.078-1.5a29.237,29.237,0,0,1,3.127.272c-.136-1.359-.408-2.447-.544-3.535-1.088.408-2.039.68-3.127,1.088a9.438,9.438,0,0,1-.68-1.767c-.272-.68-.544-1.088-1.359-1.088a1.487,1.487,0,0,1-.816-2.311,10.9,10.9,0,0,1,2.583-1.767c.272-.136.68-.272.952-.408A72.818,72.818,0,0,0,77,13.4,114.16,114.16,0,0,1,91,49.834c.272-.136.408-.272.544-.272Zm2.991-14.139a2.388,2.388,0,0,1,1.224-1.359,7.842,7.842,0,0,1,1.9-.408c.544,2.855,1.224,5.574,4.214,6.8-.816,2.175-2.175,2.311-6.254,2.039-.408-1.9-.136-2.311,2.039-3.127a14.238,14.238,0,0,0-1.088-1.5c-.408-.408-1.088-.544-1.359-.952C94.809,36.511,94.4,35.831,94.537,35.424Zm-.136,1.9c.952.408,1.359,1.5.68,2.039-1.359.952-2.447,2.583-4.622,2.175-.544-2.311,1.9-5.166,3.942-4.214Z" transform="translate(15.727 -4.835)" fill="#c4d9e4"/>
          <path id="Path_42741" data-name="Path 42741" d="M123.411,48.024c-1.767-.272-2.855-1.5-3.127-3.535-.136-.544-.136-1.224-.272-1.9-1.224.408-2.175.816-2.311,2.175a16.72,16.72,0,0,1-.816,2.991c-1.5-1.631-3.4-2.719-2.991-5.166a2.163,2.163,0,0,0-.68-1.359,13.158,13.158,0,0,0-2.991-2.583c-.952-.544-2.175-.408-3.4-.544.272,1.9.68,3.263,2.311,3.942a14.275,14.275,0,0,1,2.855,1.631,5.188,5.188,0,0,0-.544,1.767c-.136,1.5-.272,1.767-1.767,2.039-1.224.272-2.039-.272-2.583-1.631.952-.408,2.311.816,2.855-.952-1.9-2.039-5.166-2.583-6.39-5.574-.272.272-.544.408-.68.68-.952.952-1.9,1.631-3.263,1.088a1.127,1.127,0,0,0-1.088.408c-1.359,1.767-2.583,3.671-3.807,5.574-.136.272-.408.544-.544.544-2.039.136-4.078.68-5.982,0,.136.68.136,1.359.272,1.9a5.782,5.782,0,0,1,1.5-.272c2.175,0,4.214.272,5.982-1.224a1.031,1.031,0,0,1,.544-.272c2.719-.272,5.438-.408,8.429-.68v3.4a1.083,1.083,0,0,0,.952,1.224,38.934,38.934,0,0,1,3.807.952c.952.272,1.9.816,2.855,1.088.408.136.952.272,1.359.408.136-.272.272-.272.272-.408.272-.68-.544-1.9.68-2.039,1.359-.136,2.991-1.088,4.214.272,1.9,2.039,4.078,2.175,6.39,2.039a52.175,52.175,0,0,0-2.039-5.982Z" transform="translate(19.753 4.044)" fill="#c4d9e4"/>
          <path id="Path_42742" data-name="Path 42742" d="M115.5,56.835a1.965,1.965,0,0,1-.952-1.359c-.272-1.5-.952-2.991,0-4.486a1.392,1.392,0,0,1,.816-.68,116.167,116.167,0,0,0-14-36.434A76.957,76.957,0,0,0,83.548,11.7a73.113,73.113,0,0,0-32.084,7.341,4.191,4.191,0,0,1,1.359.136A2.446,2.446,0,0,1,53.911,20.4a3.748,3.748,0,0,0,4.214,1.631,3.748,3.748,0,0,0,1.224-.952,1.457,1.457,0,0,1,2.447-.136,11.051,11.051,0,0,1-2.583,2.447,15.163,15.163,0,0,1-3.671.408,14.981,14.981,0,0,1,.272,2.447h4.214a1.031,1.031,0,0,0,.544-.272c.272-1.359,1.359-1.088,2.175-1.088,1.631,0,1.767-.136,1.631-1.9-.544-.136-.952-.272-1.5-.408.136-2.039.544-1.9,2.039-2.039a29.57,29.57,0,0,1,4.758.272c-.816.68-1.359,1.359-1.9,1.767a1.4,1.4,0,0,0-.408,2.039,2.445,2.445,0,0,0,1.224.816c.544.136,1.088.136,1.631.272V23.12a2.025,2.025,0,0,1,.544-1.224c2.039-1.5,4.622-1.5,6.933-1.631a6.106,6.106,0,0,1,2.447.952,32.055,32.055,0,0,0,3.807,1.631,1.473,1.473,0,0,1,1.088,1.5c0,1.631,0,1.631,2.039,2.175-.272,1.767-.816,2.311-2.447,2.175-1.359-.136-2.039.272-2.311,1.631-.136.272-.544.816-.68.68-2.175-.408-4.35-.952-6.526-1.5v-.272c1.767-.952,3.535-1.9,5.166-2.855-1.088-1.631-2.447-1.9-4.35-1.631-1.631.272-3.127.544-4.35,1.9a6.347,6.347,0,0,1-2.719.952,14.827,14.827,0,0,1,.816,1.5c-.816.272-1.767.272-2.175,1.359-.272.68-1.631.136-1.767-.68a8.876,8.876,0,0,0-.272-1.5c-1.767.816-3.4,1.359-5.03,2.175a42.633,42.633,0,0,0-4.214,2.447c-.68.408-.68.816-.544,1.5a3.794,3.794,0,0,0,3.671,3.263c.816.136,1.631.272,2.583.408v4.078c1.088.136,1.9.136,2.175-1.088A4.185,4.185,0,0,1,67.778,37.8c1.224-.136,1.631-.816,1.5-2.039-.136-.544.136-1.088,0-1.631-.408-1.767.68-2.719,1.9-3.535a1.194,1.194,0,0,1,.952-.136c1.631.408,3.127.816,4.894,1.224-.136,1.088-.136,2.039-.272,3.263,2.039.544,3.4-1.224,5.3-1.631a20.079,20.079,0,0,1,.136,2.855,2.392,2.392,0,0,0,1.359,2.311c.68.408,1.631.544,1.631,1.767,0,1.359-.272,2.311-1.767,2.447-.408,0-.68.408-.952.68l.952.952c.544.272,1.224.544,1.767.816a2,2,0,0,1,.68.816c.136,1.359-.136,1.5-1.359,1.224a25.368,25.368,0,0,1-2.991-.952c-.408-.136-.816-.544-.816-.816a4.321,4.321,0,0,1,.408-1.224c.136-.408.544-.952.544-1.359,0-.272-.68-.544-1.088-.816a4.315,4.315,0,0,1-3.807,1.631c-.136-.136-.408-.272-.544-.544-.408-1.224-1.5-1.224-2.447-1.088A2.123,2.123,0,0,0,72.672,43.1c-.272.68.272,1.088.816,1.224s.952.272,1.631.408a11.887,11.887,0,0,1-1.088,1.359c-1.9-.952-2.039-1.088-3.4.544A23.166,23.166,0,0,1,64.515,51.4c-1.9,1.224-3.4,3.263-5.166,5.03a.475.475,0,0,0-.136.272c.136,2.175-1.631,2.855-2.991,3.807-1.224.952-2.447,1.9-3.671,2.991a1.857,1.857,0,0,0-.544,1.5c0,1.224.136,2.447.136,3.807-1.088-.544-2.175-.68-2.719-1.359s-.544-1.767-.816-2.719a5.888,5.888,0,0,0-.68-.136c-1.5,0-2.991.136-4.35,0a12.376,12.376,0,0,0-7.205,1.767c-2.039,1.088-2.447,3.263-3.263,5.03a4.2,4.2,0,0,0,.408,4.35,2.114,2.114,0,0,0,1.088.816c1.767.408,3.4.408,4.894-.952a34.445,34.445,0,0,1,3.671-2.447c.544.816.952,1.631.272,2.583-.408.816-.816,1.631-1.359,2.583,1.088.136,2.039.408,2.991.544s1.5.544,1.5,1.631c0,1.5.136,2.991.272,4.486A1.1,1.1,0,0,0,47.93,86.2a16.311,16.311,0,0,1,2.719.408,3.1,3.1,0,0,0,4.078-1.5c1.359-2.311,3.127-2.719,5.574-1.9a5.438,5.438,0,0,1,2.447,1.767,1.948,1.948,0,0,0,1.5.68c.68.136,1.5-.136,2.175,0,.816,0,1.5-.136,1.631-1.224,1.359.544,2.583.816,3.127,2.311,1.088,2.447,2.719,3.807,5.574,3.127a1.667,1.667,0,0,1,1.9,1.088,8.783,8.783,0,0,1,1.359,4.622,1.755,1.755,0,0,0,1.224,1.767,17.634,17.634,0,0,0,9.516,1.5,2.006,2.006,0,0,1,2.039,1.088c.68,1.5,1.631,2.719,3.4,2.855.68,0,.68.544.68,1.088-.136,2.039-1.767,3.263-2.855,4.894a6.246,6.246,0,0,0-.952,2.175c-.272,2.311-.544,4.486-.816,6.8a4.786,4.786,0,0,1-3.942,3.671h-1.5a2.326,2.326,0,0,0-3.127,1.767,3.914,3.914,0,0,0-.136,1.767c.816,3.807.816,3.671-1.5,6.8-1.224,1.631-2.447,3.4-3.535,5.166a1.638,1.638,0,0,1-.68.68c-1.9.816-3.671,2.311-5.982,2.311-.136,0-.408,0-.408.136l-.816.816c.272.272.408.68.816.816,1.359.544,1.5,1.224.408,2.175-.408.408-.952.68-1.224.952.544,2.039,1.9,1.9,3.4,1.9a16.036,16.036,0,0,1-.544,2.719c-.408,1.224-.544,2.311.816,3.127a4.25,4.25,0,0,1,1.5,1.224,1.674,1.674,0,0,1,.272,1.359c0,.272-.68.544-.952.544H72.128a1.544,1.544,0,0,1-1.088-.408,19.982,19.982,0,0,1-6.526-7.749,6.207,6.207,0,0,1-.816-4.622c.408-2.175.136-4.214-1.631-5.71a2.029,2.029,0,0,1-.544-2.311,43.146,43.146,0,0,0,.816-4.758c-1.9-.136-1.5-1.5-1.5-2.583V117.6a1.844,1.844,0,0,0-.952-1.767c-.816-.544-1.5-1.088-2.311-1.631a27.167,27.167,0,0,0-2.855-1.359c-.272-.136-.816-.408-.816-.68-.272-2.175-1.9-3.535-3.127-5.166-.816-1.088-1.767-2.175-2.583-3.4a2.623,2.623,0,0,1-.408-1.359c.136-1.631.272-3.4.544-5.03a9.136,9.136,0,0,1,.816-1.631c.136-.136.272-.272.408-.272,2.991-1.088,2.991-3.4,2.311-5.846-.136-.272-.544-.816-.952-.816a26.4,26.4,0,0,0-3.263-.272,3.076,3.076,0,0,1-2.855-1.5c-.408-.544-.952-1.088-1.359-1.631a7.461,7.461,0,0,0-5.3-3.127c-1.767-.272-1.767-.408-1.767-2.311-.952.408-2.039-1.088-2.855.68-1.9-.408-3.942-.952-5.846-1.5a2.438,2.438,0,0,1-.952-.68A13.789,13.789,0,0,0,25.5,76.547c-.952-1.088-1.224-2.039-.272-3.263.136-.136,0-.816-.136-1.088L23.459,69.75a11.5,11.5,0,0,1-2.719-7.477H19.109c0,2.583.408,4.894,2.039,6.8.272.408.544.952.816,1.359.544.816.544,1.9,0,2.175a2.608,2.608,0,0,1-2.447-.544A19.679,19.679,0,0,1,16.8,67.439a8.3,8.3,0,0,1-.136-3.671c.136-1.767-.272-2.991-2.039-3.535A65.813,65.813,0,0,0,10,85.112a73.453,73.453,0,0,0,73.412,73.412,78.888,78.888,0,0,0,15.09-1.5c9.516-22.567,16.042-44.455,18.353-65.391a33.331,33.331,0,0,1-3.671.272,1.948,1.948,0,0,1-1.5-.68L105.572,84.3a2.871,2.871,0,0,1-.544-1.359V77.363c1.631-.408,1.5-1.631,1.631-2.855-.68-.272-1.631.136-1.9-1.224a2.14,2.14,0,0,1,.952-2.583c2.175-1.5,4.214-2.991,6.254-4.622a1.732,1.732,0,0,0,.68-1.5c-.408-2.583.544-4.214,3.127-5.03.272-.136.68-.136.952-.272-.136-.68-.136-1.359-.272-1.9a2.191,2.191,0,0,0-.952-.544ZM72.944,49.63c-.136.272-.816.408-1.359.544l-.408-.408a8.316,8.316,0,0,0,.68-1.631H72.4C72.672,48.678,73.08,49.222,72.944,49.63ZM78.518,48a1.445,1.445,0,0,0-1.224,1.088,2.251,2.251,0,0,1-1.631.68c-.408,0-.68-.68-1.088-1.088.408-.272.68-.544,1.088-.544.544-.136,1.088,0,1.5-.68.272-.408,1.088-.272,1.631-.408,0,.136.136.272.136.544-.136,0-.272.272-.408.408Z" transform="translate(-8.359 -5.446)" fill="#c4d9e4"/>
          <path id="Path_42743" data-name="Path 42743" d="M123.586,141.822l-2.175-2.175c7.885-7.885,8.7-22.16,2.311-39.969C117.2,81.461,103.873,61.612,86.2,44.075L88.375,41.9c17.945,17.945,31.54,38.065,38.2,56.69C133.374,117.623,132.286,132.985,123.586,141.822Z" transform="translate(19.034 5.41)" fill="#373464"/>
          <path id="Path_42744" data-name="Path 42744" d="M82.8,38.1l3.263,19.577,16.314-16.314Z" transform="translate(17.812 4.044)" fill="#373464"/>
          <path id="Path_42745" data-name="Path 42745" d="M34.964,132.763c-8.7,0-15.634-2.447-20.664-7.477l2.175-2.175c7.885,7.885,22.16,8.7,39.969,2.311,18.217-6.526,38.065-19.848,55.6-37.522l2.175,2.175c-17.945,17.945-38.065,31.54-56.69,38.2-8.293,2.991-15.906,4.486-22.567,4.486Z" transform="translate(-6.813 21.946)" fill="#373464"/>
          <path id="Path_42746" data-name="Path 42746" d="M100.1,81.1,79.3,85.586l16.45,16.45Z" transform="translate(16.553 19.502)" fill="#373464"/>
        </g>
      </g>
      <g id="sKash_Center_Icon" data-name="sKash Center Icon" transform="translate(1143.403 5696.662)">
        <g id="home" transform="translate(0 0)">
          <path id="Path_10737" data-name="Path 10737" d="M21.731,0A21.731,21.731,0,1,1,0,21.731,21.731,21.731,0,0,1,21.731,0Z" transform="translate(0)" fill="url(#linear-gradient)"/>
        </g>
        <path id="Path_10699" data-name="Path 10699" d="M457.026,87.7l4.612-4.612V80.565l-2.182,2.182c-.1-.171-.216-.338-.338-.5l2.52-2.519V77.2l-3.772,3.772a6.826,6.826,0,0,0-4.1-1.349A6.491,6.491,0,0,0,447.1,86.24a6.682,6.682,0,0,0,1.386,4.107l-3.232,3.232v2.528l4.529-4.529q.246.177.506.33l-5.035,5.035v2.528l2.447-2.447a6.643,6.643,0,0,0,5.428,2.705A6.634,6.634,0,0,0,457.026,87.7ZM455.15,89.58a3.875,3.875,0,0,1,2.11,3.533,3.98,3.98,0,0,1-4.125,4.011,4.061,4.061,0,0,1-3.581-1.949Zm-3.5.135,5.626-5.626a3.834,3.834,0,0,1,.286.55l-5.338,5.338A4.063,4.063,0,0,1,451.652,89.714Zm-1.327-1.2a4.034,4.034,0,0,1,3.437-6.286,4.315,4.315,0,0,1,2.242.606Z" transform="translate(-431.771 -68.209)" fill="#fff"/>
      </g>
    </g>
  </g>
</svg>
