<svg xmlns="http://www.w3.org/2000/svg" xmlns:xlink="http://www.w3.org/1999/xlink" width="11.127" height="11.125" viewBox="0 0 11.127 11.125">
  <defs>
    <clipPath id="clip-path">
      <rect id="Rectangle_19911" data-name="Rectangle 19911" width="5.222" height="10.511" transform="translate(0 0)" fill="#004b71"/>
    </clipPath>
  </defs>
  <g id="Group_39068" data-name="Group 39068" transform="translate(7.434) rotate(45)">
    <g id="Group_6014" data-name="Group 6014" transform="translate(0 0)" clip-path="url(#clip-path)">
      <path id="Path_10928" data-name="Path 10928" d="M.028,10.511,0,8.132a2.859,2.859,0,0,0,2.011-.854,2.859,2.859,0,0,0,.832-2.023,2.859,2.859,0,0,0-.832-2.023A2.859,2.859,0,0,0,0,2.379L.028,0A5.225,5.225,0,0,1,3.7,1.559a5.224,5.224,0,0,1,1.519,3.7A5.224,5.224,0,0,1,3.7,8.952,5.224,5.224,0,0,1,.028,10.511" transform="translate(0 0)" fill="#004b71"/>
    </g>
  </g>
</svg>
