<?xml version="1.0" encoding="UTF-8"?>
<svg id="Layer_2" data-name="Layer 2" xmlns="http://www.w3.org/2000/svg" xmlns:xlink="http://www.w3.org/1999/xlink" viewBox="0 0 50 50">
  <defs>
    <style>
      .cls-1 {
        clip-path: url(#clippath);
      }

      .cls-2 {
        fill: none;
      }

      .cls-2, .cls-3, .cls-4 {
        stroke-width: 0px;
      }

      .cls-3 {
        fill: #494d74;
      }

      .cls-4 {
        fill: #fff;
      }
    </style>
    <clipPath id="clippath">
      <rect class="cls-2" width="50" height="50"/>
    </clipPath>
  </defs>
  <g id="Layer_1-2" data-name="Layer 1">
    <g class="cls-1">
      <g>
        <path id="Path_41485" data-name="Path 41485" class="cls-3" d="m25,0c13.81,0,25,11.19,25,25s-11.19,25-25,25S0,38.81,0,25,11.19,0,25,0"/>
        <g>
          <path id="Path_41486" data-name="Path 41486" class="cls-4" d="m20.79,36.65l-3.62,2.78c-.56.43-.63.43-1.18.01-1.08-.83-2.16-1.67-3.24-2.49-.61-.43-.96-1.14-.93-1.88V14.48c-.07-1.25.88-2.32,2.13-2.39.09,0,.18,0,.27,0h21.56c1.25-.09,2.33.86,2.42,2.11,0,.1,0,.2,0,.31v20.55c.03.76-.33,1.48-.95,1.92-1.09.82-2.16,1.66-3.24,2.49-.52.4-.62.4-1.12,0l-3.37-2.6c-.09-.07-.18-.13-.29-.2-1.24.95-2.47,1.9-3.7,2.84-.45.34-.58.34-1.03-.01l-3.7-2.84"/>
          <path id="Path_41487" data-name="Path 41487" class="cls-3" d="m20.8,26.64h-4.31c-.27.04-.54-.12-.63-.38-.08-.28.08-.57.36-.65.06-.02.13-.02.19-.02.48-.01.96,0,1.44,0h7.11c.11,0,.23,0,.34,0,.28,0,.51.23.51.51.02.28-.2.52-.48.54-.01,0-.02,0-.04,0-.5.02-1.01,0-1.51,0h-2.99"/>
          <path id="Path_41488" data-name="Path 41488" class="cls-3" d="m20.8,28.45c1.48,0,2.95,0,4.43,0,.27,0,.51.09.55.36.02.2-.04.4-.16.56-.15.11-.34.15-.52.14-1.09.01-2.17,0-3.25,0h-5.15c-.13,0-.25,0-.38-.02-.28-.02-.48-.26-.46-.54,0,0,0,0,0-.01,0-.27.22-.49.48-.49.01,0,.03,0,.04,0,.41,0,.83,0,1.25,0h3.18"/>
          <path id="Path_41489" data-name="Path 41489" class="cls-3" d="m20.84,32.34h-4.2c-.36.02-.85-.06-.84-.53.02-.53.4-.53.88-.53,2.76-.03,5.52,0,8.28,0,.58,0,.84.16.85.52s-.25.54-.86.54h-4.12"/>
          <path id="Path_41490" data-name="Path 41490" class="cls-3" d="m31.44,25.58h2.08c.41,0,.65.2.66.52s-.24.53-.64.54h-4.24c-.4,0-.65-.22-.64-.54s.25-.52.66-.52h2.13"/>
          <path id="Path_41491" data-name="Path 41491" class="cls-3" d="m31.42,28.45h2.12c.41,0,.65.2.64.53-.01.3-.26.54-.57.53-.02,0-.03,0-.05,0-1.42,0-2.85,0-4.28,0-.39,0-.64-.24-.63-.56s.25-.49.64-.5h2.12"/>
          <path id="Path_41492" data-name="Path 41492" class="cls-3" d="m31.41,32.34h-2.08c-.42,0-.66-.19-.67-.5s.24-.55.67-.55c1.4,0,2.8,0,4.2,0,.52,0,.82.42.56.78-.13.16-.33.25-.53.26-.72.03-1.44.01-2.16.01"/>
        </g>
      </g>
    </g>
  </g>
</svg>