<?xml version="1.0" encoding="UTF-8"?>
<svg id="Layer_2" data-name="Layer 2" xmlns="http://www.w3.org/2000/svg" xmlns:xlink="http://www.w3.org/1999/xlink" viewBox="0 0 50 50">
  <defs>
    <style>
      .cls-1 {
        clip-path: url(#clippath);
      }

      .cls-2 {
        fill: none;
      }

      .cls-2, .cls-3, .cls-4 {
        stroke-width: 0px;
      }

      .cls-3 {
        fill: #494d74;
      }

      .cls-4 {
        fill: #fff;
      }
    </style>
    <clipPath id="clippath">
      <rect class="cls-2" x="0" width="50" height="50"/>
    </clipPath>
  </defs>
  <g id="Layer_1-2" data-name="Layer 1">
    <g class="cls-1">
      <g>
        <circle class="cls-3" cx="25" cy="25" r="25"/>
        <path class="cls-4" d="m32.22,13.36c1.6,1.42,2.4,3.38,2.4,5.88s-.79,4.35-2.38,5.65c-1.59,1.3-3.69,1.95-6.31,1.95l-.15,2.91h-4.65l-.19-6.43h1.7c2.19,0,3.88-.29,5.07-.87,1.18-.58,1.78-1.64,1.78-3.18,0-1.11-.32-1.99-.96-2.65-.64-.66-1.52-.98-2.63-.98s-2.06.32-2.7.94c-.64.63-.96,1.5-.96,2.61h-4.99c-.03-1.54.3-2.91.98-4.12.68-1.21,1.68-2.15,3.01-2.84,1.32-.68,2.88-1.02,4.67-1.02,2.62,0,4.73.71,6.33,2.14Zm-11.15,24.54c-.62-.59-.93-1.33-.93-2.21s.31-1.62.93-2.21c.62-.59,1.4-.89,2.36-.89s1.7.3,2.31.89c.6.59.91,1.33.91,2.21s-.3,1.62-.91,2.21c-.6.59-1.37.89-2.31.89s-1.75-.3-2.36-.89Z"/>
      </g>
    </g>
  </g>
</svg>