<svg xmlns="http://www.w3.org/2000/svg" xmlns:xlink="http://www.w3.org/1999/xlink" width="73" height="73" viewBox="0 0 73 73">
  <defs>
    <clipPath id="clip-path">
      <rect id="Rectangle_21987" data-name="Rectangle 21987" width="73" height="73" transform="translate(13 825)" fill="#fff" stroke="#707070" stroke-width="1"/>
    </clipPath>
    <clipPath id="clip-path-2">
      <rect id="Rectangle_21982" data-name="Rectangle 21982" width="73" height="73" transform="translate(106 825)" fill="#fff" stroke="#707070" stroke-width="1"/>
    </clipPath>
    <clipPath id="clip-path-3">
      <rect id="Rectangle_21900" data-name="Rectangle 21900" width="68.645" height="52.558" fill="none"/>
    </clipPath>
  </defs>
  <g id="Mask_Group_7359" data-name="Mask Group 7359" transform="translate(-13 -825)" clip-path="url(#clip-path)">
    <g id="Mask_Group_7357" data-name="Mask Group 7357" transform="translate(-93)" clip-path="url(#clip-path-2)">
      <g id="Group_39654" data-name="Group 39654" transform="translate(108.123 836)">
        <g id="Group_39653" data-name="Group 39653" transform="translate(0 0)" clip-path="url(#clip-path-3)">
          <path id="Path_42999" data-name="Path 42999" d="M67.705,17.155A17.155,17.155,0,1,1,50.564,0,17.079,17.079,0,0,1,67.705,17.155" transform="translate(0.939 0)" fill="#373464"/>
          <path id="Path_43000" data-name="Path 43000" d="M34.309,34.892A17.155,17.155,0,1,1,17.168,17.738,17.079,17.079,0,0,1,34.309,34.892" transform="translate(0 0.498)" fill="#373464"/>
          <path id="Path_43001" data-name="Path 43001" d="M44.576,19.294h2.367v1.4H42.768V13.27h1.807Z" transform="translate(1.202 0.373)" fill="#fff"/>
          <path id="Path_43002" data-name="Path 43002" d="M53.2,17.523a1.946,1.946,0,0,1-.259,2.622,2.744,2.744,0,0,1-1.813.544H47.672V13.27h3.339a2.745,2.745,0,0,1,1.77.517,1.719,1.719,0,0,1,.639,1.406,1.7,1.7,0,0,1-.344,1.089,1.777,1.777,0,0,1-.913.6,1.725,1.725,0,0,1,1.035.638m-3.721-1.251h1.184a1.05,1.05,0,0,0,.682-.2.7.7,0,0,0,.237-.576.717.717,0,0,0-.237-.581,1.027,1.027,0,0,0-.682-.2H49.478Zm2.035,2.752a.73.73,0,0,0,.249-.6.765.765,0,0,0-.259-.614,1.062,1.062,0,0,0-.714-.221H49.478v1.638H50.81a1.07,1.07,0,0,0,.7-.207" transform="translate(1.34 0.373)" fill="#fff"/>
          <path id="Path_43003" data-name="Path 43003" d="M59.8,16.838a2.169,2.169,0,0,1-.909.861,3.191,3.191,0,0,1-1.522.328h-1.12v2.663H54.446V13.27h2.927a3.344,3.344,0,0,1,1.5.306,2.11,2.11,0,0,1,.919.846,2.462,2.462,0,0,1,.306,1.236,2.394,2.394,0,0,1-.3,1.179m-1.8-.492a1.056,1.056,0,0,0,0-1.374,1.078,1.078,0,0,0-.772-.243h-.982v1.86h.982a1.079,1.079,0,0,0,.772-.244" transform="translate(1.531 0.373)" fill="#fff"/>
          <path id="Path_43004" data-name="Path 43004" d="M8.385,31.63V36.1a1.481,1.481,0,0,0,.33,1.034,1.247,1.247,0,0,0,.971.363,1.281,1.281,0,0,0,.98-.363,1.45,1.45,0,0,0,.34-1.034V31.63h1.823v4.463a3.177,3.177,0,0,1-.427,1.694,2.737,2.737,0,0,1-1.145,1.045,3.6,3.6,0,0,1-1.6.352,3.51,3.51,0,0,1-1.583-.346,2.581,2.581,0,0,1-1.1-1.045,3.338,3.338,0,0,1-.405-1.7V31.63Z" transform="translate(0.184 0.889)" fill="#fff"/>
          <path id="Path_43005" data-name="Path 43005" d="M15.142,38.92a2.4,2.4,0,0,1-1.038-.789,2.141,2.141,0,0,1-.41-1.257h1.939a.863.863,0,0,0,.926.852,1,1,0,0,0,.639-.186.623.623,0,0,0,.234-.517.61.61,0,0,0-.186-.458,1.52,1.52,0,0,0-.459-.3A7.475,7.475,0,0,0,16.016,36a8.22,8.22,0,0,1-1.182-.447,2.176,2.176,0,0,1-.789-.66,1.844,1.844,0,0,1-.33-1.14,1.961,1.961,0,0,1,.756-1.636,3.111,3.111,0,0,1,1.971-.591,3.145,3.145,0,0,1,1.992.591,2.118,2.118,0,0,1,.81,1.647H17.272a.769.769,0,0,0-.266-.571.935.935,0,0,0-.628-.208.778.778,0,0,0-.533.176.635.635,0,0,0-.2.506.626.626,0,0,0,.341.564,5.526,5.526,0,0,0,1.065.437,10.093,10.093,0,0,1,1.177.468,2.263,2.263,0,0,1,.783.651,1.74,1.74,0,0,1,.33,1.1,2.151,2.151,0,0,1-.325,1.161,2.285,2.285,0,0,1-.943.832,3.234,3.234,0,0,1-1.46.308,3.859,3.859,0,0,1-1.47-.266" transform="translate(0.385 0.886)" fill="#fff"/>
          <path id="Path_43006" data-name="Path 43006" d="M25.142,32.1a3.357,3.357,0,0,1,1.368,1.316,4.17,4.17,0,0,1,0,3.9,3.322,3.322,0,0,1-1.374,1.32,4.35,4.35,0,0,1-2.062.47h-2.8V31.63h2.8a4.354,4.354,0,0,1,2.068.468m-.576,4.869a2.137,2.137,0,0,0,.576-1.6,2,2,0,0,0-2.185-2.184h-.863v4.346h.863a2.2,2.2,0,0,0,1.609-.564" transform="translate(0.57 0.889)" fill="#fff"/>
        </g>
      </g>
    </g>
  </g>
</svg>
