<svg xmlns="http://www.w3.org/2000/svg" xmlns:xlink="http://www.w3.org/1999/xlink" width="73" height="73" viewBox="0 0 73 73">
  <defs>
    <clipPath id="clip-path">
      <rect id="Rectangle_22020" data-name="Rectangle 22020" width="73" height="73" transform="translate(576 5241)" fill="#fff" stroke="#707070" stroke-width="1"/>
    </clipPath>
    <clipPath id="clip-path-2">
      <rect id="Rectangle_22019" data-name="Rectangle 22019" width="59.567" height="64.466" fill="none"/>
    </clipPath>
  </defs>
  <g id="Mask_Group_7370" data-name="Mask Group 7370" transform="translate(-576 -5241)" clip-path="url(#clip-path)">
    <g id="Group_40013" data-name="Group 40013" transform="translate(583 5245)">
      <g id="Group_40012" data-name="Group 40012" clip-path="url(#clip-path-2)">
        <path id="Path_43641" data-name="Path 43641" d="M96.768,160.982a22.713,22.713,0,1,1-22.713-22.713,22.713,22.713,0,0,1,22.713,22.713" transform="translate(-44.272 -119.229)" fill="#373464" fill-rule="evenodd"/>
        <path id="Path_43642" data-name="Path 43642" d="M111.048,330.956a19.049,19.049,0,0,1-11.459-3.816,19.27,19.27,0,0,1-5.03-5.515.968.968,0,0,1-.085-.974,12,12,0,0,1,8.265-6.8c.3-.074.6-.115.9-.18a1.965,1.965,0,0,1,1.612.4,10.116,10.116,0,0,0,6.384,1.851,8.892,8.892,0,0,0,4.994-1.572,3.479,3.479,0,0,1,3.277-.436,12.3,12.3,0,0,1,7.487,5.769c.743,1.241.767,1.261-.027,2.458a19.335,19.335,0,0,1-16.316,8.813" transform="translate(-81.384 -270.441)" fill="#fff"/>
        <path id="Path_43643" data-name="Path 43643" d="M155.273,186.453a9.745,9.745,0,1,1,9.755-9.745,9.8,9.8,0,0,1-9.755,9.745" transform="translate(-125.497 -143.971)" fill="#fff"/>
        <path id="Path_43644" data-name="Path 43644" d="M38.578,6.391a.905.905,0,0,0-.861-.626h0l-5.409.01L30.645.628a.905.905,0,0,0-1.723,0L27.26,5.776l-5.409-.011h0A.905.905,0,0,0,21.318,7.4L25.7,10.574l-1.681,5.142a.905.905,0,0,0,1.394,1.012l4.37-3.188,4.37,3.188a.905.905,0,0,0,1.394-1.012l-1.681-5.142L38.247,7.4a.906.906,0,0,0,.33-1.013ZM5.7,17.88.6,16.071a.905.905,0,0,1,.05-1.722l5.193-1.512L5.99,7.429a.905.905,0,0,1,1.654-.484l3.043,4.472,5.187-1.532a.906.906,0,0,1,.972,1.423l-3.313,4.276,3.06,4.46a.905.905,0,0,1-1.053,1.364l-5.09-1.829-3.3,4.288a.905.905,0,0,1-1.623-.579L5.7,17.88Zm53.216-3.531a.905.905,0,0,1,.05,1.723l-5.1,1.809.167,5.406a.905.905,0,0,1-1.623.579l-3.3-4.288-5.09,1.828a.905.905,0,0,1-1.053-1.364l3.06-4.459L42.72,11.307a.906.906,0,0,1,.972-1.424l5.187,1.532,3.043-4.471a.905.905,0,0,1,1.653.484l.146,5.408Z" transform="translate(0 0)" fill="#373464" fill-rule="evenodd"/>
      </g>
    </g>
  </g>
</svg>
