<svg xmlns="http://www.w3.org/2000/svg" xmlns:xlink="http://www.w3.org/1999/xlink" width="73" height="73" viewBox="0 0 73 73">
  <defs>
    <clipPath id="clip-path">
      <rect id="Rectangle_21978" data-name="Rectangle 21978" width="73" height="73" transform="translate(1226 857)" fill="#fff" stroke="#707070" stroke-width="1"/>
    </clipPath>
  </defs>
  <g id="Mask_Group_7354" data-name="Mask Group 7354" transform="translate(-1226 -857)" clip-path="url(#clip-path)">
    <g id="Group_39971" data-name="Group 39971" transform="translate(-155.931 -73.613)">
      <g id="Group_39888" data-name="Group 39888" transform="translate(1386.931 945.612)">
        <g id="Group_39885" data-name="Group 39885" transform="translate(0 14.869)">
          <path id="Path_9517" data-name="Path 9517" d="M51.549-72.663A5.463,5.463,0,0,1,46.087-67.2a5.463,5.463,0,0,1-5.462-5.462,5.463,5.463,0,0,1,5.462-5.462,5.463,5.463,0,0,1,5.462,5.462" transform="translate(-20.598 87.228)" fill="#373464"/>
          <path id="Path_9518" data-name="Path 9518" d="M51.767-93.75H11.712A5.463,5.463,0,0,0,6.25-88.288v18.207a5.463,5.463,0,0,0,5.462,5.462H51.767a5.463,5.463,0,0,0,5.462-5.462V-88.288A5.463,5.463,0,0,0,51.767-93.75Zm-36.413,9.1H13.533a1.82,1.82,0,0,1-1.821-1.821,1.82,1.82,0,0,1,1.821-1.821h1.821a1.82,1.82,0,0,1,1.821,1.821A1.82,1.82,0,0,1,15.353-84.647ZM31.739-70.081A9.093,9.093,0,0,1,25.3-72.749a9.093,9.093,0,0,1-2.667-6.436A9.093,9.093,0,0,1,25.3-85.621a9.093,9.093,0,0,1,6.436-2.667,9.093,9.093,0,0,1,6.436,2.667,9.093,9.093,0,0,1,2.667,6.436,9.093,9.093,0,0,1-2.667,6.436A9.093,9.093,0,0,1,31.739-70.081Zm18.207,0H48.125A1.82,1.82,0,0,1,46.3-71.9a1.82,1.82,0,0,1,1.821-1.821h1.821A1.82,1.82,0,0,1,51.767-71.9,1.82,1.82,0,0,1,49.946-70.081Z" transform="translate(-6.25 93.75)" fill="#373464"/>
        </g>
        <path id="Path_43489" data-name="Path 43489" d="M56.387,18.254H47.54a1.456,1.456,0,0,0,0,2.912h8.847a1.456,1.456,0,0,0,0-2.912Z" transform="translate(-24.457 -18.254)" fill="#373464" fill-rule="evenodd"/>
        <path id="Path_43490" data-name="Path 43490" d="M51.7,25.913H38.457a1.456,1.456,0,1,0,0,2.912H51.7a1.456,1.456,0,0,0,0-2.912Z" transform="translate(-24.191 -18.478)" fill="#373464" fill-rule="evenodd"/>
        <path id="Path_43491" data-name="Path 43491" d="M29.609,27.221A12.093,12.093,0,1,0,41.7,39.314,12.093,12.093,0,0,0,29.609,27.221Z" transform="translate(21.369 -24.445)" fill="#373464" stroke="#fff" stroke-width="1"/>
        <path id="Path_43492" data-name="Path 43492" d="M33,13.482l-3.92,3.924a1.019,1.019,0,0,1-.71.292,1,1,0,0,1-.705-1.707l2.212-2.217H18.8a1,1,0,0,1-1-1,1,1,0,0,1,1-1H29.876L27.668,9.557a1,1,0,0,1,0-1.416.987.987,0,0,1,.705-.292,1,1,0,0,1,.71.292L33,12.066a1,1,0,0,1,0,1.416" transform="translate(25.431 2.095)" fill="#fff"/>
      </g>
    </g>
  </g>
</svg>
