<svg xmlns="http://www.w3.org/2000/svg" xmlns:xlink="http://www.w3.org/1999/xlink" width="73" height="73" viewBox="0 0 73 73">
  <defs>
    <clipPath id="clip-path">
      <rect id="Rectangle_21986" data-name="Rectangle 21986" width="73" height="73" transform="translate(1402 828)" fill="#fff" stroke="#707070" stroke-width="1"/>
    </clipPath>
    <clipPath id="clip-path-2">
      <rect id="Rectangle_21985" data-name="Rectangle 21985" width="66" height="60" transform="translate(-0.348 -0.166)" fill="none"/>
    </clipPath>
  </defs>
  <g id="Mask_Group_7358" data-name="Mask Group 7358" transform="translate(-1402 -828)" clip-path="url(#clip-path)">
    <g id="Group_39978" data-name="Group 39978" transform="translate(1405.348 833.166)">
      <g id="Group_39977" data-name="Group 39977" transform="translate(0 0)" clip-path="url(#clip-path-2)">
        <g id="Group_39979" data-name="Group 39979" transform="translate(21.289 4.187)">
          <path id="Path_43560" data-name="Path 43560" d="M53,58.509s-10.49-.174-15.482-.455c-11.14-.626-12.307-12.253-12.416-13.9-.323-4.932.084-6.8,1.039-9.556,2.663-7.689,9.03-15.91,14.024-18.311a5.787,5.787,0,0,0,2.95.78h5.837a5.755,5.755,0,0,0,2.97-.8c2.272,1.092,11.338,5.877,15.036,21.121C71.132,54.565,57.173,58.509,53,58.509" transform="translate(-24.997 -5.164)" fill="#373464"/>
          <path id="Path_43561" data-name="Path 43561" d="M61.691,1.229c.011,2.309-.466,7.357-4.28,10.247a3.344,3.344,0,0,1-.455.3,5.986,5.986,0,0,1-3.089.83H47.8a6.017,6.017,0,0,1-3.067-.811c-.163-.1-.325-.21-.477-.325-3.815-2.887-4.28-7.932-4.28-10.244A1.068,1.068,0,0,1,41.063.184a1.11,1.11,0,0,1,.406.078C42.857.83,43.322,2.1,45.425,2.1c2.7,0,2.7-2.1,5.4-2.1s2.709,2.1,5.419,2.1c2.1,0,2.568-1.283,3.955-1.839A1.1,1.1,0,0,1,61.61.836a1.011,1.011,0,0,1,.082.394" transform="translate(-29.466 0)" fill="#373464"/>
        </g>
        <path id="Path_43562" data-name="Path 43562" d="M20.055,40.877h-9.65a1.651,1.651,0,0,0,0,3.3h9.65a1.651,1.651,0,0,0,0-3.3" transform="translate(-1.165 -10.018)" fill="#373464" fill-rule="evenodd"/>
        <path id="Path_43563" data-name="Path 43563" d="M20.055,55.747h-9.65a1.651,1.651,0,0,0,0,3.3h9.65a1.651,1.651,0,0,0,0-3.3" transform="translate(-1.165 -9.871)" fill="#373464" fill-rule="evenodd"/>
        <path id="Path_43564" data-name="Path 43564" d="M15.247,48.312H1.51a1.656,1.656,0,0,0,0,3.3H15.247a1.656,1.656,0,0,0,0-3.3" transform="translate(2.282 -9.943)" fill="#373464" fill-rule="evenodd"/>
      </g>
    </g>
  </g>
</svg>
