<svg id="Group_39973" data-name="Group 39973" xmlns="http://www.w3.org/2000/svg" xmlns:xlink="http://www.w3.org/1999/xlink" width="73" height="73" viewBox="0 0 73 73">
  <defs>
    <clipPath id="clip-path">
      <rect id="Rectangle_21981" data-name="Rectangle 21981" width="73" height="73" fill="none"/>
    </clipPath>
  </defs>
  <g id="Group_39972" data-name="Group 39972" clip-path="url(#clip-path)">
    <path id="Path_43549" data-name="Path 43549" d="M62.783,17.978a7.772,7.772,0,1,0-6.493-3.519l-4.569,4.6a23.107,23.107,0,0,0-30.414-.018l-4.589-4.588a7.765,7.765,0,1,0-2.256,2.257L19.05,21.3a23.108,23.108,0,0,0,.016,30.41l-4.6,4.571A7.774,7.774,0,1,0,16.72,58.54l4.6-4.574A23.108,23.108,0,0,0,51.7,53.95l4.587,4.587a7.769,7.769,0,1,0,2.257-2.257l-4.587-4.587a23.11,23.11,0,0,0,.018-30.373l4.571-4.607a7.7,7.7,0,0,0,4.236,1.263Z" fill="#373464" fill-rule="evenodd"/>
    <path id="Path_43550" data-name="Path 43550" d="M54.085,36.5A17.585,17.585,0,1,1,36.5,18.915,17.585,17.585,0,0,1,54.085,36.5" fill="#d7d7e2"/>
    <path id="Path_43551" data-name="Path 43551" d="M23.545,32.813v6.871h2.692v1.3H21.906v-8.17Z" fill="#373464"/>
    <path id="Path_43552" data-name="Path 43552" d="M28,41.065a.961.961,0,1,1,1-.96.964.964,0,0,1-1,.96" fill="#373464"/>
    <path id="Path_43553" data-name="Path 43553" d="M31.96,32.813v6.871h2.692v1.3H30.321v-8.17Z" fill="#373464"/>
    <path id="Path_43554" data-name="Path 43554" d="M41.263,29.9h1.6l-3.16,13.2H38.1Z" fill="#373464"/>
    <path id="Path_43555" data-name="Path 43555" d="M47.7,41.042c-1.51-.129-2.587-.937-2.622-2.341h1.756a1.04,1.04,0,0,0,.866,1.018V37.484c-1.205-.305-2.622-.645-2.622-2.376a2.511,2.511,0,0,1,2.622-2.4V31.76h.749v.948A2.46,2.46,0,0,1,51,35H49.232a1.074,1.074,0,0,0-.784-.948v2.212c1.217.316,2.645.632,2.645,2.364a2.547,2.547,0,0,1-2.645,2.423V42H47.7Zm0-5V34.019a.966.966,0,0,0-.913,1.006c0,.551.374.832.913,1.019m.749,1.65v2.048A1.045,1.045,0,0,0,49.4,38.7c0-.551-.4-.82-.948-1.007" fill="#373464"/>
  </g>
</svg>
