<svg xmlns="http://www.w3.org/2000/svg" xmlns:xlink="http://www.w3.org/1999/xlink" width="73" height="73" viewBox="0 0 73 73">
  <defs>
    <clipPath id="clip-path">
      <rect id="Rectangle_21976" data-name="Rectangle 21976" width="73" height="73" transform="translate(659 780)" fill="#fff" stroke="#707070" stroke-width="1"/>
    </clipPath>
  </defs>
  <g id="Mask_Group_7353" data-name="Mask Group 7353" transform="translate(-659 -780)" clip-path="url(#clip-path)">
    <g id="Group_39968" data-name="Group 39968" transform="translate(4.018 -90.211)">
      <path id="Path_43527" data-name="Path 43527" d="M19.887,29.905a14.349,14.349,0,0,1-6.932,1.551,14.341,14.341,0,0,1-6.93-1.551V58.014q.942-.093,1.89-.093a14.345,14.345,0,0,1,6.931,1.552V50.359c0-2.017,2-3.675,5.041-4.492Z" transform="translate(655 870)" fill="#373464"/>
      <path id="Path_43528" data-name="Path 43528" d="M7.914,60.441c-3.828,0-6.932,1.128-6.932,2.521s3.1,2.519,6.932,2.519,6.931-1.128,6.931-2.519-3.1-2.521-6.931-2.521" transform="translate(655 870)" fill="#373464"/>
      <path id="Path_43529" data-name="Path 43529" d="M.982,66.451v2.815c0,1.009,2.763,2.521,6.932,2.521s6.93-1.512,6.93-2.521V66.451A14.333,14.333,0,0,1,7.914,68,14.338,14.338,0,0,1,.982,66.451" transform="translate(655 870)" fill="#373464"/>
      <path id="Path_43530" data-name="Path 43530" d="M38.187,12.716h-.005a5.426,5.426,0,0,0,3.23,1.087A27.255,27.255,0,0,1,38.838,7.85a1.261,1.261,0,0,1,2.429-.676,23.274,23.274,0,0,0,3.179,6.639h1.3a23.121,23.121,0,0,0,3.178-6.638,1.261,1.261,0,0,1,2.446.614.61.61,0,0,1-.017.061,27.214,27.214,0,0,1-2.571,5.95,5.412,5.412,0,0,0,3.164-1.083c2.949-2.307,3.984-5.973,4.324-8.645a1.156,1.156,0,0,0-.533-1.154,1.308,1.308,0,0,0-1.431,0,5.339,5.339,0,0,1-2.951.813,5.679,5.679,0,0,1-3.932-1.537,3.318,3.318,0,0,0-4.692-.021l-.022.021a5.675,5.675,0,0,1-3.931,1.537,5.286,5.286,0,0,1-2.936-.809,1.337,1.337,0,0,0-.713-.21,1.364,1.364,0,0,0-.724.211,1.154,1.154,0,0,0-.535,1.151c.344,2.671,1.376,6.335,4.322,8.642" transform="translate(655 870)" fill="#373464"/>
      <path id="Path_43531" data-name="Path 43531" d="M20.515,11.3c3.828,0,6.929-1.13,6.929-2.523s-3.1-2.519-6.929-2.519-6.932,1.128-6.932,2.519,3.1,2.523,6.932,2.523" transform="translate(655 870)" fill="#373464"/>
      <path id="Path_43532" data-name="Path 43532" d="M12.954,28.937c3.828,0,6.932-1.128,6.932-2.521s-3.1-2.519-6.932-2.519-6.932,1.128-6.932,2.519,3.105,2.521,6.932,2.521" transform="translate(655 870)" fill="#373464"/>
      <path id="Path_43533" data-name="Path 43533" d="M17.365,53.849V66.742c0,1.008,2.763,2.519,6.932,2.519s6.93-1.511,6.93-2.519V53.849A14.341,14.341,0,0,1,24.3,55.4a14.349,14.349,0,0,1-6.932-1.551" transform="translate(655 870)" fill="#373464"/>
      <path id="Path_43534" data-name="Path 43534" d="M24.3,47.84c-3.828,0-6.932,1.129-6.932,2.521s3.1,2.52,6.932,2.52,6.932-1.128,6.932-2.52-3.1-2.521-6.932-2.521" transform="translate(655 870)" fill="#373464"/>
      <path id="Path_43535" data-name="Path 43535" d="M61.093,10.034c0,2.066-2.244,3.755-5.04,3.779a6.462,6.462,0,0,1-1.4-.151.917.917,0,0,1-.238.214c.2.127.429.265.668.4.768.5,1.664,1.121,2.647,1.891.1.075.186.151.289.238,6.276.465,8.265,3.087,8.331,3.163a1.255,1.255,0,0,0,1.045.542,1.183,1.183,0,0,0,.693-.214,1.26,1.26,0,0,0,.355-1.739c-.1-.152-1.841-2.646-6.92-3.793a5.761,5.761,0,0,0,2.092-4.336,6.5,6.5,0,0,0-4.828-5.885,1.8,1.8,0,0,1-.027.252,19.053,19.053,0,0,1-.427,2.284,3.847,3.847,0,0,1,2.76,3.351" transform="translate(655 870)" fill="#373464"/>
      <path id="Path_43536" data-name="Path 43536" d="M71.373,46.588a32.925,32.925,0,0,0-.644-4.053c-.027-.14-.044-.222-.044-.222l-.007,0c-.037-.164-.07-.328-.11-.491C66.465,24.411,55.515,17.306,52.183,15.5a7.53,7.53,0,0,1-1.933.645l2.342,2.192a1.252,1.252,0,0,1,.409.879,1.27,1.27,0,0,1-2.13.967l-4.113-3.853h-.4v3.791a1.264,1.264,0,0,1-2.527,0V16.327h-.4l-4.132,3.857a1.266,1.266,0,0,1-.9.334,1.313,1.313,0,0,1-.879-.4,1.271,1.271,0,0,1,.062-1.783l2.329-2.181a7.8,7.8,0,0,1-1.945-.644,33.445,33.445,0,0,0-8.357,6.7c-.013.012-.025.024-.025.036a35.388,35.388,0,0,0-2.6,3.158,1.259,1.259,0,0,1-2.031-1.486c.829-1.127,1.659-2.143,2.489-3.072v-8.6a14.19,14.19,0,0,1-6.936,1.56,14.29,14.29,0,0,1-6.924-1.548V21.4c5.068.159,8.821,2.265,8.821,5.015v19c.631-.062,1.264-.1,1.895-.1,5.388,0,9.451,2.167,9.451,5.041V64.218H71.105c1.458-5.627.875-13.033.268-17.63" transform="translate(655 870)" fill="#373464"/>
    </g>
  </g>
</svg>
