<svg xmlns="http://www.w3.org/2000/svg" xmlns:xlink="http://www.w3.org/1999/xlink" width="125" height="73" viewBox="0 0 125 73">
  <defs>
    <clipPath id="clip-path">
      <rect id="Rectangle_22024" data-name="Rectangle 22024" width="55" height="55" transform="translate(-0.071 -0.071)" fill="none" stroke="#707070" stroke-width="1"/>
    </clipPath>
    <clipPath id="clip-path-2">
      <rect id="Rectangle_22025" data-name="Rectangle 22025" width="55" height="55" transform="translate(0.225 -0.071)" fill="none" stroke="#707070" stroke-width="1"/>
    </clipPath>
    <clipPath id="clip-path-3">
      <rect id="Rectangle_22026" data-name="Rectangle 22026" width="73" height="73" transform="translate(1905 820)" fill="none" stroke="#707070" stroke-width="1"/>
    </clipPath>
  </defs>
  <g id="Group_40022" data-name="Group 40022" transform="translate(-315 -930)">
    <g id="Group_40021" data-name="Group 40021" transform="translate(0)">
      <g id="Mask_Group_7372" data-name="Mask Group 7372" transform="translate(385.071 948.071)" clip-path="url(#clip-path)">
        <g id="Group_40016" data-name="Group 40016" transform="translate(8.815 6.463)">
          <path id="Path_43645" data-name="Path 43645" d="M17.565,6.506l-4.528,4.533a1.177,1.177,0,0,1-.821.337A1.155,1.155,0,0,1,11.4,9.4l2.556-2.561H1.157A1.15,1.15,0,0,1,0,5.686,1.16,1.16,0,0,1,1.157,4.528h12.8L11.4,1.972a1.153,1.153,0,0,1,0-1.635A1.14,1.14,0,0,1,12.216,0a1.156,1.156,0,0,1,.821.337l4.528,4.533a1.155,1.155,0,0,1,0,1.635" transform="translate(24.338 24.099) rotate(90)" fill="rgba(55,52,100,0.58)"/>
          <g id="Group_40015" data-name="Group 40015">
            <path id="Path_43646" data-name="Path 43646" d="M48.618-74.129a4,4,0,0,1-4,4,4,4,0,0,1-4-4,4,4,0,0,1,4-4,4,4,0,0,1,4,4" transform="translate(-25.972 84.786)" fill="rgba(55,52,100,0.58)"/>
            <path id="Path_43647" data-name="Path 43647" d="M39.553-93.75H10.246a4,4,0,0,0-4,4v13.321a4,4,0,0,0,4,4H39.553a4,4,0,0,0,4-4V-89.754A4,4,0,0,0,39.553-93.75ZM12.911-87.089H11.578a1.332,1.332,0,0,1-1.332-1.332,1.332,1.332,0,0,1,1.332-1.332h1.332a1.332,1.332,0,0,1,1.332,1.332A1.332,1.332,0,0,1,12.911-87.089ZM24.9-76.432a6.653,6.653,0,0,1-4.709-1.952,6.653,6.653,0,0,1-1.952-4.709A6.653,6.653,0,0,1,20.191-87.8,6.653,6.653,0,0,1,24.9-89.754,6.653,6.653,0,0,1,29.609-87.8a6.653,6.653,0,0,1,1.952,4.709,6.653,6.653,0,0,1-1.952,4.709A6.653,6.653,0,0,1,24.9-76.432Zm13.321,0H36.889a1.332,1.332,0,0,1-1.332-1.332A1.332,1.332,0,0,1,36.889-79.1h1.332a1.332,1.332,0,0,1,1.332,1.332A1.332,1.332,0,0,1,38.221-76.432Z" transform="translate(-6.25 93.75)" fill="rgba(55,52,100,0.58)"/>
          </g>
        </g>
      </g>
      <g id="Mask_Group_7373" data-name="Mask Group 7373" transform="translate(314.776 948.071)" clip-path="url(#clip-path-2)">
        <g id="Group_40018" data-name="Group 40018" transform="translate(8.815 6.463)">
          <path id="Path_43648" data-name="Path 43648" d="M17.565,6.506l-4.528,4.533a1.177,1.177,0,0,1-.821.337A1.155,1.155,0,0,1,11.4,9.4l2.556-2.561H1.157A1.15,1.15,0,0,1,0,5.686,1.16,1.16,0,0,1,1.157,4.528h12.8L11.4,1.972a1.153,1.153,0,0,1,0-1.635A1.14,1.14,0,0,1,12.216,0a1.156,1.156,0,0,1,.821.337l4.528,4.533a1.155,1.155,0,0,1,0,1.635" transform="translate(24.338 24.099) rotate(90)" fill="rgba(55,52,100,0.58)"/>
          <g id="Group_40017" data-name="Group 40017">
            <path id="Path_43649" data-name="Path 43649" d="M48.618-74.129a4,4,0,0,1-4,4,4,4,0,0,1-4-4,4,4,0,0,1,4-4,4,4,0,0,1,4,4" transform="translate(-25.972 84.786)" fill="rgba(55,52,100,0.58)"/>
            <path id="Path_43650" data-name="Path 43650" d="M39.553-93.75H10.246a4,4,0,0,0-4,4v13.321a4,4,0,0,0,4,4H39.553a4,4,0,0,0,4-4V-89.754A4,4,0,0,0,39.553-93.75ZM12.911-87.089H11.578a1.332,1.332,0,0,1-1.332-1.332,1.332,1.332,0,0,1,1.332-1.332h1.332a1.332,1.332,0,0,1,1.332,1.332A1.332,1.332,0,0,1,12.911-87.089ZM24.9-76.432a6.653,6.653,0,0,1-4.709-1.952,6.653,6.653,0,0,1-1.952-4.709A6.653,6.653,0,0,1,20.191-87.8,6.653,6.653,0,0,1,24.9-89.754,6.653,6.653,0,0,1,29.609-87.8a6.653,6.653,0,0,1,1.952,4.709,6.653,6.653,0,0,1-1.952,4.709A6.653,6.653,0,0,1,24.9-76.432Zm13.321,0H36.889a1.332,1.332,0,0,1-1.332-1.332A1.332,1.332,0,0,1,36.889-79.1h1.332a1.332,1.332,0,0,1,1.332,1.332A1.332,1.332,0,0,1,38.221-76.432Z" transform="translate(-6.25 93.75)" fill="rgba(55,52,100,0.58)"/>
          </g>
        </g>
      </g>
    </g>
    <g id="Mask_Group_7374" data-name="Mask Group 7374" transform="translate(-1564 110)" clip-path="url(#clip-path-3)">
      <g id="Group_40020" data-name="Group 40020" transform="translate(1916.715 828.589)">
        <path id="Path_43651" data-name="Path 43651" d="M23.343,8.646l-6.018,6.025a1.564,1.564,0,0,1-1.091.448A1.535,1.535,0,0,1,15.152,12.5l3.4-3.4H1.537A1.529,1.529,0,0,1,0,7.556,1.542,1.542,0,0,1,1.537,6.018H18.542l-3.39-3.4a1.532,1.532,0,0,1,0-2.173A1.515,1.515,0,0,1,16.235,0a1.536,1.536,0,0,1,1.091.448l6.018,6.025a1.535,1.535,0,0,1,0,2.173" transform="translate(32.345 32.027) rotate(90)" fill="#373464"/>
        <g id="Group_40019" data-name="Group 40019">
          <path id="Path_43652" data-name="Path 43652" d="M51.247-72.814A5.312,5.312,0,0,1,45.936-67.5a5.312,5.312,0,0,1-5.311-5.311,5.312,5.312,0,0,1,5.311-5.311,5.312,5.312,0,0,1,5.311,5.311" transform="translate(-21.151 86.977)" fill="#373464"/>
          <path id="Path_43653" data-name="Path 43653" d="M50.509-93.75H11.561A5.312,5.312,0,0,0,6.25-88.439v17.7a5.312,5.312,0,0,0,5.311,5.311H50.509a5.312,5.312,0,0,0,5.311-5.311v-17.7A5.312,5.312,0,0,0,50.509-93.75ZM15.1-84.9h-1.77a1.77,1.77,0,0,1-1.77-1.77,1.77,1.77,0,0,1,1.77-1.77H15.1a1.77,1.77,0,0,1,1.77,1.77A1.77,1.77,0,0,1,15.1-84.9ZM31.035-70.735a8.842,8.842,0,0,1-6.258-2.594,8.841,8.841,0,0,1-2.594-6.258,8.842,8.842,0,0,1,2.594-6.258,8.841,8.841,0,0,1,6.258-2.594,8.842,8.842,0,0,1,6.258,2.594,8.841,8.841,0,0,1,2.594,6.258,8.842,8.842,0,0,1-2.594,6.258A8.841,8.841,0,0,1,31.035-70.735Zm17.7,0h-1.77a1.77,1.77,0,0,1-1.77-1.77,1.77,1.77,0,0,1,1.77-1.77h1.77a1.77,1.77,0,0,1,1.77,1.77A1.77,1.77,0,0,1,48.739-70.735Z" transform="translate(-6.25 93.75)" fill="#373464"/>
        </g>
      </g>
    </g>
  </g>
</svg>
