<svg xmlns="http://www.w3.org/2000/svg" width="72" height="72" viewBox="0 0 72 72">
  <g id="Group_40031" data-name="Group 40031" transform="translate(0 0)">
    <path id="Path_43643" data-name="Path 43643" d="M273.372.012a2.109,2.109,0,0,0-.523,4.186,31.872,31.872,0,0,1,8.316,2.491A2.11,2.11,0,1,0,282.8,2.8,36.191,36.191,0,0,0,273.372.012Z" transform="translate(-232.892 0)" fill="#373464"/>
    <path id="Path_43644" data-name="Path 43644" d="M395.921,59.064a2.109,2.109,0,0,0,.406-2.956,35.994,35.994,0,0,0-6.9-6.9,2.11,2.11,0,0,0-2.55,3.362,31.673,31.673,0,0,1,6.087,6.087A2.111,2.111,0,0,0,395.921,59.064Z" transform="translate(-331.755 -41.921)" fill="#373464"/>
    <path id="Path_43645" data-name="Path 43645" d="M463.55,147.071a2.112,2.112,0,0,0-1.125,2.764,33.17,33.17,0,0,1,2.627,8.457,2.109,2.109,0,0,0,4.186-.523,37.49,37.49,0,0,0-2.924-9.573A2.118,2.118,0,0,0,463.55,147.071Z" transform="translate(-397.255 -126.249)" fill="#373464"/>
    <path id="Path_43646" data-name="Path 43646" d="M149.18,2.8a2.11,2.11,0,1,0,1.64,3.889A31.871,31.871,0,0,1,159.136,4.2a2.109,2.109,0,0,0-.523-4.186A36.191,36.191,0,0,0,149.18,2.8Z" transform="translate(-127.093 0)" fill="#373464"/>
    <path id="Path_43647" data-name="Path 43647" d="M36,119.267c18.053,0,33.753-13.631,35.984-31.52a2.109,2.109,0,0,0-4.186-.523A31.922,31.922,0,0,1,4.219,83.267a32.237,32.237,0,0,1,8.016-20.889v.7a2.109,2.109,0,1,0,4.219,0V57.11A2.108,2.108,0,0,0,14.344,55H8.376a2.109,2.109,0,1,0,0,4.217H9.392A35.855,35.855,0,0,0,36,119.267Z" transform="translate(0 -47.266)" fill="#373464"/>
    <path id="Path_43648" data-name="Path 43648" d="M75,100.454A25.453,25.453,0,1,0,100.453,75,25.581,25.581,0,0,0,75,100.454Zm27.562-8.437a2.109,2.109,0,0,1,4.219,0v6.328H111V92.017a2.109,2.109,0,0,1,4.219,0v16.875a2.109,2.109,0,1,1-4.219,0v-6.328h-6.328a2.108,2.108,0,0,1-2.109-2.109ZM92.016,94.126a2.111,2.111,0,0,0-2.109,2.109,2.109,2.109,0,1,1-4.219,0,6.328,6.328,0,0,1,12.656,0c0,4.219-2.808,6.324-5.063,8.015a11.388,11.388,0,0,0-2.7,2.532h5.658a2.109,2.109,0,1,1,0,4.219H87.8a2.108,2.108,0,0,1-2.109-2.109c0-4.219,2.808-6.324,5.063-8.015,2.155-1.617,3.374-2.631,3.374-4.641A2.111,2.111,0,0,0,92.016,94.126Z" transform="translate(-64.453 -64.454)" fill="#373464"/>
  </g>
</svg>
