<svg id="Group_39029" data-name="Group 39029" xmlns="http://www.w3.org/2000/svg" width="65.544" height="76.968" viewBox="0 0 65.544 76.968">
  <g id="surface1" transform="translate(0 0)">
    <path id="Path_11532" data-name="Path 11532" d="M62.082,51.4a38.831,38.831,0,0,1-9.3,14.488A48.681,48.681,0,0,1,34.605,76.656a5.56,5.56,0,0,1-1.766.312h-.066a5.644,5.644,0,0,1-1.084-.107,5.859,5.859,0,0,1-.745-.2,48.679,48.679,0,0,1-18.2-10.763,38.758,38.758,0,0,1-9.3-14.485C-.309,41.215-.1,29.985.077,20.961l0-.139c.035-.745.057-1.528.069-2.392a8.157,8.157,0,0,1,7.681-7.991c8.849-.494,15.7-3.38,21.544-9.081l.051-.047a4.931,4.931,0,0,1,6.694,0l.05.047c5.85,5.7,12.7,8.587,21.546,9.081A8.157,8.157,0,0,1,65.4,18.43c.012.87.035,1.652.069,2.392l0,.059C65.639,29.922,65.852,41.174,62.082,51.4Zm0,0" transform="translate(0 0)" fill="#48a6d9"/>
    <path id="Path_11533" data-name="Path 11533" d="M29.243,51.4a38.831,38.831,0,0,1-9.3,14.488A48.681,48.681,0,0,1,1.766,76.655a5.7,5.7,0,0,1-.75.2A5.66,5.66,0,0,1,0,76.967V0A4.938,4.938,0,0,1,3.281,1.309l.05.047c5.85,5.7,12.7,8.587,21.546,9.081a8.157,8.157,0,0,1,7.681,7.991c.012.87.035,1.652.069,2.392l0,.059C32.8,29.922,33.013,41.174,29.243,51.4Zm0,0" transform="translate(32.839 0.001)" fill="#005c8a"/>
    <path id="Path_11534" data-name="Path 11534" d="M38.365,19.182A19.206,19.206,0,0,1,19.25,38.365h-.068A19.182,19.182,0,1,1,19.183,0h.068A19.206,19.206,0,0,1,38.365,19.182Zm0,0" transform="translate(13.589 19.302)" fill="#fff"/>
    <path id="Path_11535" data-name="Path 11535" d="M19.115,19.182A19.206,19.206,0,0,1,0,38.365V0A19.206,19.206,0,0,1,19.115,19.182Zm0,0" transform="translate(32.839 19.302)" fill="#e1ebf0"/>
    <path id="Path_11536" data-name="Path 11536" d="M18.376,3.855,9.737,12.5,7.87,14.362a2.26,2.26,0,0,1-3.2,0L.661,10.347A2.258,2.258,0,0,1,3.855,7.154L6.273,9.572l8.91-8.91a2.258,2.258,0,0,1,3.193,3.193Zm0,0" transform="translate(23.102 31.866)" fill="#005c8a"/>
    <path id="Path_11537" data-name="Path 11537" d="M8.639,3.855,0,12.5V6.107L5.446.662A2.258,2.258,0,0,1,8.639,3.855Zm0,0" transform="translate(32.839 31.866)" fill="#005c8a"/>
  </g>
</svg>
