<svg id="Group_39274" data-name="Group 39274" xmlns="http://www.w3.org/2000/svg" width="80.038" height="80.039" viewBox="0 0 80.038 80.039">
  <path id="Path_42024" data-name="Path 42024" d="M324.343,443.658a40.019,40.019,0,1,1-40.02-40.02,40.02,40.02,0,0,1,40.02,40.02" transform="translate(-244.305 -403.639)" fill="#004c79"/>
  <path id="Path_42025" data-name="Path 42025" d="M321.416,441.65a13.437,13.437,0,1,1-13.426-13.436,13.378,13.378,0,0,1,13.426,13.436" transform="translate(-254.087 -408.424)" fill="#fff"/>
  <path id="Path_42026" data-name="Path 42026" d="M288.02,459.387a13.437,13.437,0,1,1-13.426-13.436,13.377,13.377,0,0,1,13.426,13.436" transform="translate(-247.584 -411.878)" fill="#fff"/>
  <path id="Path_42027" data-name="Path 42027" d="M305.331,446.2h1.854v1.093h-3.269v-5.811h1.416Z" transform="translate(-255.912 -411.008)" fill="#004c79"/>
  <path id="Path_42028" data-name="Path 42028" d="M313.148,444.815a1.525,1.525,0,0,1-.2,2.053,2.149,2.149,0,0,1-1.42.426h-2.707v-5.811h2.616a2.15,2.15,0,0,1,1.387.405,1.346,1.346,0,0,1,.5,1.1,1.329,1.329,0,0,1-.27.853,1.392,1.392,0,0,1-.715.472,1.351,1.351,0,0,1,.811.5m-2.914-.98h.928a.822.822,0,0,0,.534-.154.549.549,0,0,0,.186-.451.561.561,0,0,0-.186-.455.8.8,0,0,0-.534-.158h-.928Zm1.594,2.156a.572.572,0,0,0,.195-.467.6.6,0,0,0-.2-.481.832.832,0,0,0-.559-.173h-1.027v1.283h1.043a.838.838,0,0,0,.551-.162" transform="translate(-256.867 -411.008)" fill="#004c79"/>
  <path id="Path_42029" data-name="Path 42029" d="M319.789,444.278a1.7,1.7,0,0,1-.712.674,2.5,2.5,0,0,1-1.192.257h-.877v2.086h-1.416v-5.811h2.293a2.619,2.619,0,0,1,1.176.24,1.653,1.653,0,0,1,.72.663,1.928,1.928,0,0,1,.24.968,1.875,1.875,0,0,1-.232.924m-1.407-.386a.827.827,0,0,0,0-1.076.844.844,0,0,0-.6-.19h-.769v1.457h.769a.845.845,0,0,0,.6-.191" transform="translate(-258.186 -411.008)" fill="#004c79"/>
  <path id="Path_42030" data-name="Path 42030" d="M269.137,459.843v3.5a1.16,1.16,0,0,0,.258.81.976.976,0,0,0,.759.284,1,1,0,0,0,.768-.284,1.136,1.136,0,0,0,.267-.81v-3.5h1.428v3.5a2.489,2.489,0,0,1-.334,1.327,2.148,2.148,0,0,1-.9.818,2.818,2.818,0,0,1-1.255.275,2.75,2.75,0,0,1-1.24-.271,2.022,2.022,0,0,1-.863-.818,2.614,2.614,0,0,1-.317-1.331v-3.5Z" transform="translate(-248.862 -414.583)" fill="#004c79"/>
  <path id="Path_42031" data-name="Path 42031" d="M275.975,465.531a1.877,1.877,0,0,1-.813-.618,1.677,1.677,0,0,1-.321-.985h1.519a.676.676,0,0,0,.726.668.782.782,0,0,0,.5-.146.488.488,0,0,0,.184-.405.478.478,0,0,0-.146-.358,1.191,1.191,0,0,0-.359-.234,6.247,6.247,0,0,0-.6-.209,6.447,6.447,0,0,1-.926-.35,1.7,1.7,0,0,1-.618-.517,1.444,1.444,0,0,1-.259-.893,1.536,1.536,0,0,1,.592-1.281,2.437,2.437,0,0,1,1.544-.463,2.463,2.463,0,0,1,1.561.463,1.659,1.659,0,0,1,.635,1.29h-1.545a.6.6,0,0,0-.209-.447.733.733,0,0,0-.492-.163.609.609,0,0,0-.417.138.5.5,0,0,0-.159.4.491.491,0,0,0,.267.442,4.329,4.329,0,0,0,.834.342,7.754,7.754,0,0,1,.922.367,1.762,1.762,0,0,1,.614.509,1.363,1.363,0,0,1,.259.86,1.685,1.685,0,0,1-.255.909,1.79,1.79,0,0,1-.738.652,2.533,2.533,0,0,1-1.144.242,3.023,3.023,0,0,1-1.152-.209" transform="translate(-250.251 -414.562)" fill="#004c79"/>
  <path id="Path_42032" data-name="Path 42032" d="M285.234,460.21a2.629,2.629,0,0,1,1.072,1.031,3.266,3.266,0,0,1,0,3.058,2.6,2.6,0,0,1-1.076,1.034,3.407,3.407,0,0,1-1.615.368H281.42v-5.858h2.194a3.41,3.41,0,0,1,1.619.366m-.451,3.814a1.674,1.674,0,0,0,.451-1.251,1.564,1.564,0,0,0-1.71-1.71h-.676v3.4h.676a1.722,1.722,0,0,0,1.259-.441" transform="translate(-251.532 -414.583)" fill="#004c79"/>
  <path id="Path_42033" data-name="Path 42033" d="M305.368,467.95l-5.1,5.1A1.3,1.3,0,0,0,302.1,474.9l5.1-5.1a1.3,1.3,0,1,0-1.842-1.842" transform="translate(-255.127 -416.087)" fill="#fff"/>
  <path id="Path_42034" data-name="Path 42034" d="M302.3,476.54h10.622a1.316,1.316,0,1,0,0-2.632H302.3a1.316,1.316,0,0,0,0,2.632" transform="translate(-255.34 -417.321)" fill="#fff"/>
  <path id="Path_42035" data-name="Path 42035" d="M314.171,465.581v7.786a1.316,1.316,0,0,0,2.632,0v-7.786a1.316,1.316,0,0,0-2.632,0" transform="translate(-257.909 -415.444)" fill="#fff"/>
  <path id="Path_42036" data-name="Path 42036" d="M302.1,474.291l5.1,5.1a1.3,1.3,0,1,1-1.842,1.842l-5.1-5.1a1.3,1.3,0,0,1,1.842-1.842" transform="translate(-255.127 -417.322)" fill="#fff"/>
  <path id="Path_42037" data-name="Path 42037" d="M281.492,438.511l5.1-5.1a1.3,1.3,0,0,0-1.842-1.842l-5.1,5.1a1.3,1.3,0,1,0,1.842,1.842" transform="translate(-251.113 -409.002)" fill="#fff"/>
  <path id="Path_42038" data-name="Path 42038" d="M283.221,431.146H272.6a1.316,1.316,0,1,0,0,2.632h10.623a1.316,1.316,0,0,0,0-2.632" transform="translate(-249.558 -408.995)" fill="#fff"/>
  <path id="Path_42039" data-name="Path 42039" d="M273.915,440.223v-7.786a1.316,1.316,0,0,0-2.632,0v7.786a1.316,1.316,0,0,0,2.632,0" transform="translate(-249.558 -408.99)" fill="#fff"/>
  <path id="Path_42040" data-name="Path 42040" d="M284.755,432.169l-5.1-5.1a1.3,1.3,0,0,1,1.842-1.842l5.1,5.1a1.3,1.3,0,1,1-1.842,1.842" transform="translate(-251.113 -407.768)" fill="#fff"/>
</svg>
