<svg id="Group_39275" data-name="Group 39275" xmlns="http://www.w3.org/2000/svg" width="80.038" height="80.039" viewBox="0 0 80.038 80.039">
  <path id="Path_42041" data-name="Path 42041" d="M198.212,444.963a40.019,40.019,0,1,1-40.02-40.02,40.019,40.019,0,0,1,40.02,40.02" transform="translate(-118.174 -404.943)" fill="#004c79"/>
  <path id="Path_42042" data-name="Path 42042" d="M179.089,438.837h-.281c-.191-.068-.383-.134-.573-.206a9.452,9.452,0,0,1-3.539-2.363,6.8,6.8,0,0,1-1.69-2.933,15,15,0,0,1-.474-3.549,24.079,24.079,0,0,1,.157-3.25.5.5,0,0,1,.421-.478c1.876-.522,3.749-1.046,5.627-1.561a.811.811,0,0,1,.411,0q2.829.776,5.654,1.567a.5.5,0,0,1,.408.49c.052.676.118,1.351.144,2.029a15.8,15.8,0,0,1-.395,4.485,6.519,6.519,0,0,1-1.019,2.3,9.267,9.267,0,0,1-3.928,3.12c-.3.129-.615.234-.924.349m-.658-7.053-.064.01a.644.644,0,0,0-.081-.133q-.732-.738-1.469-1.47a.47.47,0,0,0-.738,0q-.207.2-.407.407a.471.471,0,0,0,0,.738q1.181,1.183,2.364,2.364a.467.467,0,0,0,.727,0q1.944-1.94,3.884-3.883a.467.467,0,0,0,0-.719c-.117-.121-.238-.239-.357-.358-.314-.314-.538-.316-.849,0q-1.46,1.459-2.92,2.92a.8.8,0,0,0-.089.127" transform="translate(-128.757 -408.745)" fill="#fff"/>
  <path id="Path_42043" data-name="Path 42043" d="M147.984,435.935V466.75a5.483,5.483,0,0,0,5.332,5.477v-41.5a.742.742,0,0,1,.056-.274,5.486,5.486,0,0,0-5.387,5.482" transform="translate(-123.978 -409.91)" fill="#fff"/>
  <path id="Path_42044" data-name="Path 42044" d="M166.682,434.345a9.727,9.727,0,0,1,.817-3.9H160.39a.743.743,0,0,1,.057.284v41.517h12.192a5.493,5.493,0,0,0,5.494-5.494V443.958a9.724,9.724,0,0,1-11.451-9.614m5.8,34.886a2.412,2.412,0,0,1-1.834-.854,2.43,2.43,0,1,1-.093-3.034,2.424,2.424,0,1,1,1.928,3.888" transform="translate(-126.394 -409.908)" fill="#fff"/>
  <path id="Path_42045" data-name="Path 42045" d="M174.94,472.581a2.415,2.415,0,0,0-1.928.967,2.386,2.386,0,0,1,.093,3.034,2.423,2.423,0,1,0,1.834-4" transform="translate(-128.852 -418.113)" fill="#004c79"/>
  <path id="Path_42046" data-name="Path 42046" d="M171.98,473.575a2.426,2.426,0,1,0,.093,3.034,2.385,2.385,0,0,1-.093-3.034" transform="translate(-127.821 -418.14)" fill="#004c79"/>
  <path id="Path_42047" data-name="Path 42047" d="M172.89,473.782a2.385,2.385,0,0,0,.093,3.034,2.385,2.385,0,0,0-.093-3.034" transform="translate(-128.731 -418.347)" fill="#004c79"/>
</svg>
