<?xml version="1.0" standalone="no"?>
<!DOCTYPE svg PUBLIC "-//W3C//DTD SVG 1.1//EN" "http://www.w3.org/Graphics/SVG/1.1/DTD/svg11.dtd" >
<svg xmlns="http://www.w3.org/2000/svg">
<metadata>Generated by IcoMoon</metadata>
<defs>
<font id="Elnashra" horiz-adv-x="1024">
<font-face units-per-em="1024" ascent="960" descent="-64" />
<missing-glyph horiz-adv-x="1024" />
<glyph unicode="&#x20;" horiz-adv-x="512" d="" />
<glyph unicode="&#xe900;" glyph-name="checkmark" d="M864 832l-480-480-224 224-160-160 384-384 640 640z" />
<glyph unicode="&#xe901;" glyph-name="arrow-down" d="M107.076 564.43l404.958-404.753 404.89 404.753c27.921 27.989 27.921 73.182 0 101.171-27.989 27.989-73.318 27.989-101.103 0l-303.787-303.65-303.65 303.718c-27.989 27.989-73.182 27.989-101.171 0s-28.058-73.25-0.137-101.239z" />
<glyph unicode="&#xe902;" glyph-name="microphone" d="M596.594 564.275c23.187 78.882 13.379 165.355-29.388 237.773 0.94-1.315-408.841-414.403-411.772-411.81 71.215-42.053 157.689-53.891 235.518-32.169-0.564 1.992 203.988 206.506 205.642 206.205zM523.5 867.927c-55.206 54.417-134.201 91.321-217.743 91.321-168.85 0-305.757-137.245-305.757-306.508 0-82.602 37.581-162.574 90.57-217.705 0.113 0 430.337 429.36 432.93 432.892zM955.904 54.68c0 0 9.996 86.361-14.92 111.277-1.654 1.654-287.342 350.44-287.342 350.44l-212.594-212.594 348.787-288.958c23.262-26.57 112.93-13.304 112.93-13.304l71.403-64.789 49.832 49.832-68.096 68.096z" />
<glyph unicode="&#xe903;" glyph-name="line-chart" d="M1024.3 140.801v-63.999h-1024v767.999h63.999v-703.999h960zM960.299 764.8v-217.499c0-7-3.25-11.917-9.75-14.751s-12.417-1.583-17.751 3.75l-60.5 60.5-316.499-316.499c-3.334-3.334-7.167-4.999-11.499-4.999-4.334 0-8.168 1.666-11.499 4.999l-116.499 116.499-207.999-207.999-95.999 95.999 292.501 292.501c3.332 3.334 7.167 4.999 11.499 4.999s8.167-1.666 11.499-4.999l116.499-116.499 231.999 231.999-60.5 60.5c-5.334 5.334-6.583 11.25-3.75 17.751 2.831 6.501 7.749 9.751 14.749 9.75h217.499c4.666 0 8.499-1.499 11.499-4.499s4.501-6.832 4.499-11.501v0z" />
<glyph unicode="&#xe904;" glyph-name="arrow-left" d="M649.83 831.591l-404.821-404.958 404.821-404.89c27.989-27.921 73.182-27.921 101.103 0 27.989 27.989 27.989 73.318 0 101.103l-303.582 303.787 303.65 303.65c27.989 27.989 27.989 73.182 0 101.171-27.921 27.989-73.182 28.058-101.171 0.137z" />
<glyph unicode="&#xe905;" glyph-name="arrow-right" d="M374.203 21.709l404.753 404.958-404.753 404.89c-27.989 27.989-73.182 27.989-101.171 0s-27.989-73.25 0-101.103l303.65-303.787-303.65-303.65c-27.989-27.921-27.989-73.114 0-101.103 27.989-28.058 73.182-28.126 101.171-0.205z" />
<glyph unicode="&#xe906;" glyph-name="arrow-up" d="M916.959 288.87l-404.958 404.821-404.89-404.821c-27.989-27.989-27.989-73.182 0-101.171s73.25-27.989 101.171 0l303.718 303.582 303.65-303.65c27.989-27.989 73.182-27.989 101.171 0s28.058 73.25 0.137 101.239z" />
<glyph unicode="&#xe907;" glyph-name="email" d="M513.237 358.315h0.213c7.723 0 15.36 2.304 21.547 6.315l1.664 1.067c0.384 0.213 0.768 0.427 1.109 0.725l485.077 400.299c-0.896 1.323-2.603 2.261-4.352 2.261h-1013.163c-1.237 0-2.432-0.427-3.371-1.195l487.125-401.493c6.187-5.035 14.933-7.979 24.149-7.979v0zM-0.043 714.624v-569.557l348.971 281.856-348.971 287.701zM675.371 425.046l348.587-280.107v567.808l-348.587-287.701zM564.523 333.611c-13.867-11.435-32.085-17.664-51.157-17.664-19.157 0-37.333 6.229-51.157 17.536l-79.915 65.92-382.336-308.736v-0.981c0-2.944 2.517-5.461 5.461-5.461h1013.12c2.901 0 5.419 2.517 5.419 5.504v0.896l-381.995 306.901-77.44-63.915z" />
<glyph unicode="&#xe908;" glyph-name="shield" d="M944.672 723.136l-63.2 14.592v69.248l-85.024 23.072v68l-284.96 61.952-283.968-61.952v-68l-85.024-23.072v-69.248l-63.2-14.592c-46.080-568.48 432.16-787.136 432.16-787.136h1.088c0 0 478.304 218.656 432.128 787.136zM512.928 25.952h-1.824c0 0-394.272 180.256-356.224 648.896l52.064 12v57.088l70.112 19.008v56.064l235.84 51.072 234.016-51.072v-56.064l70.112-19.008v-57.088l52.064-12c38.112-468.672-356.16-648.896-356.16-648.896z" />
<glyph unicode="&#xe909;" glyph-name="fb" d="M639.147 683.094h72.192v122.155c-12.459 1.707-55.339 5.419-105.259 5.419-104.235 0-175.659-63.787-175.659-180.523v-100.651h-117.803v-136.533h117.803v-350.293h140.971v350.251h117.632l17.579 136.533h-135.211v87.211c0.043 39.424 10.923 66.432 67.755 66.432v0z" />
<glyph unicode="&#xe90a;" glyph-name="gp" d="M620.331 810.667h-201.728c-26.667 0-55.296-3.2-86.059-9.344-30.763-7.211-60.629-22.699-89.344-46.293-41.771-40.405-62.72-85.248-62.72-134.784 0-40.96 14.933-76.928 44.416-107.691 28.117-33.152 68.992-50.091 122.752-50.773 9.984 0 20.907 0.725 32.384 2.005-1.877-5.248-3.925-11.008-6.315-17.28-2.304-5.803-3.669-13.44-3.669-22.315 0-14.848 3.328-27.52 9.984-38.016 5.803-10.923 12.16-21.12 19.499-30.635-23.552-0.725-53.163-3.627-88.747-8.96-35.883-6.101-70.357-18.688-102.955-37.163-29.056-17.408-49.152-37.547-60.245-60.459-11.435-22.912-17.237-43.648-17.237-62.379 0-38.315 17.621-71.168 52.779-98.688 34.987-29.44 87.595-44.416 158.336-45.227 84.309 1.365 148.907 21.461 193.664 60.501 43.136 37.888 64.896 80.981 64.896 129.92-0.768 34.475-8.704 62.379-23.723 83.669-16 20.992-34.731 40.107-55.979 57.557l-34.219 28.032c-4.907 4.907-10.112 10.667-15.147 17.323-6.187 6.741-9.344 15.488-9.344 25.899 0 11.008 3.072 20.352 9.088 28.587 5.077 7.936 10.752 14.933 16.597 21.163 10.496 9.259 20.48 18.176 29.739 27.008 8.491 9.003 16.427 18.603 23.765 29.056 15.403 21.632 23.552 50.56 24.021 86.656 0 19.584-2.261 36.907-6.656 51.541-5.504 14.933-11.691 27.52-18.645 38.4-7.125 11.563-14.635 21.248-22.187 28.971-7.893 7.765-15.147 13.312-21.461 17.237h62.251l62.208 36.48zM509.824 260.566c16.597-18.987 24.96-41.301 24.96-66.859 0-31.445-12.16-57.259-36.565-77.312-25.173-20.395-61.355-30.891-108.971-31.531-52.992 0.683-94.763 12.501-125.184 35.541-32.213 22.869-48.171 52.181-48.171 87.595 0 18.048 3.669 33.408 11.051 46.123 6.443 12.203 14.421 22.485 23.68 30.677 9.6 7.893 19.072 13.867 28.331 18.091 9.387 3.925 16.555 6.912 21.717 8.917 21.803 6.613 43.264 11.392 64.043 14.336 21.376 1.963 34.389 2.56 39.595 1.963 8.491 0 16.085-0.299 22.699-0.981 37.376-26.453 65.109-48.427 82.816-66.56v0zM477.056 557.526c-2.517-13.611-7.936-26.795-16.427-39.68-17.621-17.963-39.979-27.563-66.432-28.459-21.12 0-39.851 6.315-55.936 19.371-16.555 12.672-29.739 28.245-40.064 46.72-21.291 39.381-32.043 77.355-32.043 113.749-0.64 27.648 6.571 52.608 21.803 75.051 18.176 21.333 40.96 32.427 68.437 33.024 20.48-0.64 38.827-6.827 54.571-18.304 15.659-12.117 28.16-27.904 37.76-47.317 20.437-40.363 30.549-80.555 30.549-120.192-0.043-9.173-0.811-20.523-2.219-33.963v0zM787.712 700.544v105.856h-51.285v-105.856h-105.856v-51.371h105.856v-105.728h51.285v105.728h105.899v51.371h-105.899z" />
<glyph unicode="&#xe90b;" glyph-name="ig" d="M797.525 810.667h-570.923c-54.315 0-98.773-44.373-98.773-98.389v-571.008c0-54.315 44.459-98.603 98.773-98.603h570.923c54.187 0 98.645 44.288 98.645 98.603v571.008c0 54.016-44.459 98.389-98.645 98.389zM652.971 690.774c0 19.072 15.488 34.603 34.56 34.603h86.741c19.2 0 34.731-15.531 34.731-34.603v-82.816c0-18.944-15.531-34.56-34.731-34.56h-86.741c-19.029 0-34.56 15.573-34.56 34.56v82.816zM512.896 577.792c85.035 0 154.155-66.901 154.155-149.333 0-82.56-69.077-149.589-154.155-149.589-85.291 0-154.411 67.029-154.411 149.589 0 82.432 69.12 149.333 154.411 149.333zM809.301 161.451c0-16.896-13.739-30.421-30.464-30.421h-534.912c-16.896 0-30.421 13.483-30.421 30.421v324.523h70.4c-6.357-20.949-9.856-43.051-9.856-66.048 0-127.659 106.923-231.125 238.891-231.125 131.712 0 238.72 103.509 238.72 231.125 0 23.040-3.413 45.099-9.899 66.048h67.627v-324.523z" />
<glyph unicode="&#xe90c;" glyph-name="play" d="M109.715 938.667v-1024l804.571 512z" />
<glyph unicode="&#xe90d;" glyph-name="print" d="M264.747 725.078v-132.608h43.648v174.549h-1.664c-23.168 0-41.984-18.773-41.984-41.941v0zM716.288 767.019v-174.592h43.648v132.608c0 23.168-18.773 41.984-41.941 41.984h-1.707zM375.509 810.667c-23.125 0-41.941-18.773-41.941-41.941v-176.256h357.547v176.256c0 23.125-18.773 41.941-41.941 41.941h-273.664zM177.877 187.862h134.784v94.507h-34.816c-7.637 0-13.739 6.229-13.739 13.739 0 7.595 6.229 13.781 13.739 13.781h469.035c7.637 0 13.739-6.229 13.739-13.781s-6.229-13.739-13.739-13.739h-34.816v-94.507h134.784c23.168 0 41.941 18.773 41.941 41.941v295.467c0 23.168-18.773 41.941-41.941 41.941h-668.971c-23.168 0-41.984-18.773-41.984-41.941v-295.467c0-23.125 18.816-41.941 41.984-41.941v0zM658.176 486.102c0 11.605 9.387 20.992 20.949 20.992h80.341c0.171 0 0.341 0 0.512 0 11.349-0.256 20.437-9.6 20.437-20.992v-15.104c0-11.563-9.387-20.992-20.949-20.992h-80.341c-6.059 0-11.563 2.603-15.317 6.699-3.499 3.797-5.632 8.747-5.632 14.251v15.147zM649.173 42.667c23.168 0 41.941 18.816 41.941 41.941v197.76h-357.547v-197.76c0-23.125 18.773-41.941 41.941-41.941h273.664zM438.144 235.307h148.48c7.68 0 13.781-6.229 13.781-13.739s-6.229-13.781-13.781-13.781h-148.48c-7.637 0-13.781 6.229-13.781 13.781s6.144 13.739 13.781 13.739v0zM438.144 167.979h148.48c4.437 0 8.277-2.133 10.923-5.291 1.877-2.389 2.944-5.333 2.944-8.448 0-7.68-6.229-13.781-13.781-13.781h-148.565c-7.637 0-13.739 6.229-13.739 13.781 0 3.157 1.067 6.101 2.944 8.448 2.389 3.328 6.357 5.291 10.795 5.291v0z" />
<glyph unicode="&#xe90e;" glyph-name="star" d="M512 947.744l158.235-320.597 353.765-51.4-255.987-249.553 60.42-352.339-316.432 166.374-316.432-166.374 60.445 352.339-256.014 249.553 353.802 51.4z" />
<glyph unicode="&#xe90f;" glyph-name="text" d="M592.128 763.474c0-14.252-11.554-25.803-25.806-25.803h-540.52c-14.252 0-25.803 11.551-25.803 25.803v0c0 14.252 11.551 25.803 25.803 25.803h540.52c14.252 0 25.806-11.551 25.806-25.803v0zM1023.999 590.317c0-14.252-11.554-25.803-25.806-25.803h-972.391c-14.252 0-25.803 11.551-25.803 25.803v0c0 14.252 11.551 25.803 25.803 25.803h972.391c14.252 0 25.806-11.551 25.806-25.803v0zM1023.999 417.157c0-14.252-11.554-25.803-25.806-25.803h-972.391c-14.252 0-25.803 11.551-25.803 25.803v0c0 14.256 11.551 25.806 25.803 25.806h972.391c14.252 0 25.806-11.551 25.806-25.806v0zM1023.999 244.006c0-14.252-11.554-25.806-25.806-25.806h-972.391c-14.252 0-25.803 11.554-25.803 25.806v0c0 14.252 11.551 25.803 25.803 25.803h972.391c14.252 0 25.806-11.551 25.806-25.803v0zM1023.999 70.849c0-14.252-11.554-25.806-25.806-25.806h-972.391c-14.252 0-25.803 11.554-25.803 25.806v0c0 14.252 11.551 25.803 25.803 25.803h972.391c14.252 0 25.806-11.551 25.806-25.803v0z" />
<glyph unicode="&#xe910;" glyph-name="trending" d="M857.078 494.057l119.976-116.088 46.946 400.567-398.81-60.093 119.976-116.097-195.252-201.78-209.436 202.656-340.478-351.867 111.914-108.29 232.191 239.953 209.432-202.658 108.288 111.919z" />
<glyph unicode="&#xe911;" glyph-name="tw" d="M984.533 719.83c-34.816-15.531-71.936-26.027-111.104-30.592 39.765 24.021 70.784 61.909 85.035 107.349-37.376-22.4-78.763-38.357-123.051-47.019-35.456 37.461-85.76 61.099-141.525 61.099-107.221 0-193.877-86.827-193.877-193.835 0-15.232 1.579-30.123 4.949-44.331-161.195 7.936-304.085 85.291-399.701 202.709-16.683-28.544-26.155-61.952-26.155-97.493 0-67.285 34.005-126.677 86.059-161.323-31.616 0.939-61.525 9.685-87.765 24.192v-2.432c0-93.995 66.816-172.416 155.563-190.080-16.128-4.523-33.323-6.869-51.029-6.869-12.331 0-24.661 1.152-36.523 3.413 24.661-76.885 96.299-133.077 181.205-134.528-66.389-52.181-149.888-83.2-240.811-83.2-15.872 0-31.147 1.109-46.379 2.773 85.845-54.784 187.819-86.997 297.259-86.997 356.821 0 551.808 295.339 551.808 551.595 0 8.405-0.171 16.725-0.512 25.216 37.675 27.136 70.485 61.44 96.555 100.352v0z" />
<glyph unicode="&#xe912;" glyph-name="wa" d="M519.125 810.667c-208.341 0-377.088-167.509-377.088-374.059 0-70.613 19.797-136.789 54.059-193.109l-68.011-200.832 208.725 66.475c54.059-29.696 116.011-46.592 182.144-46.592 208.213 0 376.96 167.509 376.96 373.973 0 206.635-168.747 374.144-376.789 374.144v0zM518.997 122.070c-64.256 0-124.203 19.2-174.336 52.096l-121.771-38.741 39.637 116.736c-38.059 51.84-60.416 115.541-60.416 184.32 0 173.397 142.208 314.496 316.928 314.496s316.928-141.099 316.928-314.496c-0.043-173.312-142.251-314.411-316.971-314.411v0zM691.584 361.088c-9.131 4.651-54.613 26.795-63.104 29.781-8.533 3.115-14.635 4.693-20.736-4.565-6.187-9.173-23.851-29.696-29.355-35.968-5.419-6.144-10.795-6.827-20.011-2.347-9.259 4.651-39.083 14.293-74.325 45.44-27.52 24.363-46.123 54.315-51.499 63.616-5.333 9.173-0.469 14.080 4.053 18.56 4.181 4.139 9.301 10.752 13.952 16.128 4.608 5.376 6.101 9.173 9.173 15.275 3.029 6.144 1.536 11.52-0.768 16.043-2.347 4.651-20.779 49.792-28.501 68.096-7.68 18.347-15.403 15.275-20.779 15.275s-11.52 0.768-17.749 0.768c-6.144 0-16.128-2.219-24.576-11.52-8.533-9.173-32.427-31.275-32.427-76.416 0-45.269 33.152-88.789 37.803-94.891 4.651-6.016 63.957-101.717 157.824-138.368 94.037-36.651 94.037-24.448 110.891-22.869 16.981 1.579 54.656 22.101 62.379 43.563 7.723 21.547 7.723 39.808 5.376 43.691-2.219 3.925-8.32 6.229-17.621 10.709v0z" />
<glyph unicode="&#xe913;" glyph-name="yt" d="M733.355 248.918h-42.155l0.256 24.448c0 10.837 8.875 19.797 19.755 19.797h2.731c10.923 0 19.84-8.917 19.84-19.797l-0.427-24.448zM575.275 301.355c-10.752 0-19.499-7.253-19.499-16.043v-119.040c0-8.747 8.747-15.915 19.499-15.915 10.667 0 19.456 7.211 19.456 15.915v119.040c0 8.875-8.789 16.043-19.456 16.043v0zM832 367.915v-226.432c0-54.4-47.104-98.816-104.704-98.816h-430.592c-57.643 0-104.704 44.416-104.704 98.816v226.432c0 54.272 47.061 98.816 104.704 98.816h430.592c57.557 0 104.704-44.501 104.704-98.816v0zM325.376 116.779v238.677h53.291v35.285l-142.208 0.256v-34.773l44.416-0.085v-239.317l44.501-0.043zM485.376 319.915h-44.459v-127.403c0-18.432 1.109-27.648-0.085-30.933-3.627-9.813-19.883-20.309-26.197-0.981-1.067 3.371-0.171 13.525-0.171 31.061l-0.128 128.299h-44.288l0.128-126.251c0-19.328-0.512-33.792 0.171-40.363 1.024-11.563 0.683-25.088 11.435-32.853 20.096-14.379 58.453 2.176 67.968 22.827l-0.043-26.368h35.797v202.965h-0.128zM627.755 173.952l-0.128 106.112c0 40.363-30.208 64.555-71.253 31.915l0.128 78.763-44.373-0.085-0.256-272.085 36.565 0.597 3.328 16.896c46.677-42.837 76.075-13.483 75.989 37.888v0zM767.104 188.075l-33.28-0.256c-0.128-1.28-0.213-2.731-0.213-4.395v-18.688c0-10.069-8.192-18.091-18.176-18.091h-6.613c-9.899 0-18.219 8.021-18.219 18.091v49.024h76.416v28.757c0 20.992-0.512 41.984-2.304 54.059-5.419 37.931-58.795 44.032-85.76 24.533-8.405-6.059-14.976-14.165-18.645-25.173-3.883-10.837-5.717-25.813-5.717-44.715v-63.232c0-105.301 127.701-90.368 112.512 0.085v0 0zM595.925 531.328c2.347-5.547 5.76-10.069 10.624-13.483 4.821-3.413 10.88-5.035 18.219-5.035 6.4 0 12.117 1.707 17.067 5.291 4.864 3.669 9.045 8.917 12.373 15.957l-0.811-17.408h49.664v210.901h-39.083v-164.139c0-8.875-7.253-16.171-16.299-16.171-8.875 0-16.213 7.253-16.213 16.171v164.139h-40.704v-142.293c0-18.133 0.384-30.208 0.853-36.267 0.555-6.187 1.963-11.947 4.309-17.664v0 0zM445.568 650.496c0 20.267 1.664 36.053 5.077 47.531 3.371 11.349 9.429 20.437 18.219 27.307 8.747 6.997 19.925 10.453 33.579 10.453 11.477 0 21.291-2.219 29.525-6.699 8.32-4.352 14.635-10.112 19.072-17.237 4.48-7.125 7.552-14.464 9.216-22.016 1.621-7.595 2.432-19.029 2.432-34.56v-53.376c0-19.499-0.725-33.963-2.261-43.051-1.536-9.131-4.779-17.664-9.771-25.6-4.949-7.936-11.435-13.781-19.115-17.536-7.936-3.84-16.811-5.632-26.923-5.632-11.264 0-20.779 1.536-28.629 4.821-7.893 3.157-13.995 8.107-18.304 14.592-4.352 6.571-7.467 14.421-9.301 23.637-1.92 9.216-2.731 23.125-2.731 41.6l-0.085 55.765zM484.395 566.699c0-11.947 8.917-21.76 19.712-21.76s19.669 9.771 19.669 21.76v112.299c0 11.904-8.875 21.675-19.669 21.675s-19.712-9.771-19.712-21.675v-112.299zM347.179 509.952h46.763l0.043 161.792 55.296 138.624h-51.243l-29.355-102.912-29.739 103.211h-50.731l58.795-138.965 0.171-161.749z" />
<glyph unicode="&#xe914;" glyph-name="home" d="M1024 346.667l-192 192v288h-128v-160l-192 192-512-512v-32h128v-320h320v192h128v-192h320v320h128z" />
<glyph unicode="&#xe915;" glyph-name="newspaper" d="M896 682.667v128h-896v-704c0-35.346 28.654-64 64-64h864c53.022 0 96 42.978 96 96v544h-128zM832 106.667h-768v640h768v-640zM128 618.667h640v-64h-640zM512 490.667h256v-64h-256zM512 362.667h256v-64h-256zM512 234.667h192v-64h-192zM128 490.667h320v-320h-320z" />
<glyph unicode="&#xe916;" glyph-name="thumbs-down" d="M163.836 734.71c0-11.098-4.053-20.696-12.16-28.797-8.104-8.1-17.705-12.153-28.797-12.16-11.519 0-21.226 4.053-29.118 12.157-7.892 8.106-11.835 17.705-11.832 28.797 0 11.519 3.945 21.224 11.832 29.115 7.889 7.892 17.596 11.835 29.118 11.832 11.096 0 20.696-3.944 28.797-11.832 8.104-7.887 12.157-17.592 12.16-29.113v0zM266.233 407.029v409.602c0 11.096-4.053 20.696-12.157 28.797-8.106 8.104-17.705 12.157-28.797 12.162h-184.321c-11.096 0-20.696-4.053-28.797-12.162-8.1-8.106-12.153-17.705-12.16-28.797v-409.602c0-11.096 4.053-20.696 12.157-28.797 8.106-8.1 17.705-12.153 28.799-12.16h184.319c11.096 0 20.696 4.053 28.797 12.16s12.153 17.707 12.16 28.797v0zM988.806 502.385c23.464-26.026 35.194-57.814 35.194-95.36-0.423-33.28-12.69-62.082-36.796-86.405-24.104-24.322-52.801-36.48-86.085-36.475h-177.282c1.706-5.973 3.411-11.094 5.125-15.358 1.711-4.266 4.060-8.959 7.043-14.077 2.983-5.121 5.117-8.962 6.398-11.519 7.679-15.783 13.439-27.943 17.28-36.472 3.841-8.536 7.896-21.013 12.16-37.441 4.266-16.428 6.398-32.748 6.398-48.96 0-10.241-0.105-18.562-0.314-24.961-0.208-6.401-1.276-16-3.205-28.797-1.924-12.798-4.487-23.466-7.679-32.005s-8.313-18.135-15.36-28.796c-7.045-10.66-15.579-19.3-25.597-25.919s-22.817-12.168-38.401-16.645c-15.586-4.479-33.184-6.717-52.803-6.719-11.098 0-20.698 4.055-28.797 12.162-8.536 8.534-15.787 19.2-21.76 32-5.967 12.8-10.13 23.892-12.481 33.278-2.352 9.383-5.015 22.396-7.998 39.037-3.838 17.922-6.717 30.829-8.637 38.716-1.922 7.892-5.658 18.236-11.205 31.033-5.546 12.8-12.16 23.041-19.839 30.722-14.077 14.082-35.624 39.679-64.644 76.795-20.906 27.307-42.456 53.118-64.644 77.438-22.19 24.324-38.403 36.91-48.64 37.765-10.664 0.853-19.836 5.23-27.52 13.124-7.681 7.896-11.522 17.175-11.522 27.837v410.247c0 11.096 4.053 20.59 12.16 28.488 8.104 7.896 17.703 12.054 28.797 12.481 14.935 0.425 48.642 9.811 101.122 28.16 32.854 11.096 58.561 19.522 77.117 25.279s44.475 11.945 77.762 18.562c33.282 6.618 64 9.924 92.155 9.913h82.558c56.746-0.853 98.773-17.495 126.086-49.92 24.747-29.439 35.201-68.051 31.36-115.839 16.638-15.783 28.158-35.837 34.56-60.159 7.253-26.026 7.253-50.984 0-74.877 19.626-26.026 28.797-55.253 27.52-87.681 0-13.654-3.198-29.867-9.599-48.64l0.013-0.015z" />
<glyph unicode="&#xe917;" glyph-name="thumbs-up" d="M163.841 161.284c0 11.092-4.052 20.691-12.159 28.797-8.107 8.109-17.705 12.163-28.8 12.161-11.523 0-21.228-4.054-29.12-12.161-7.891-8.104-11.838-17.705-11.838-28.797 0-11.52 3.947-21.226 11.838-29.12s17.597-11.841 29.12-11.841c11.092 0 20.691 3.947 28.8 11.841 8.107 7.894 12.161 17.6 12.159 29.12zM266.24 488.96v-409.598c0-11.092-4.054-20.691-12.161-28.797s-17.707-12.161-28.8-12.161h-184.318c-11.092 0-20.691 4.054-28.8 12.161-8.107 8.104-12.161 17.705-12.159 28.797v409.598c0 11.095 4.052 20.693 12.159 28.8s17.705 12.159 28.8 12.159h184.318c11.095 0 20.693-4.052 28.8-12.159s12.159-17.705 12.161-28.8v0zM1023.997 488.96c0-36.693-11.733-68.481-35.199-95.361 6.4-18.776 9.598-34.986 9.598-48.639 1.281-32.428-7.891-61.651-27.518-87.68 7.251-23.894 7.251-48.854 0-74.878-6.4-24.32-17.92-44.376-34.561-60.159 3.842-47.788-6.612-86.399-31.36-115.839-27.305-32.428-69.332-49.067-126.080-49.92h-82.557c-28.159 0-58.88 3.306-92.162 9.919s-59.198 12.799-77.757 18.561c-18.561 5.761-44.267 14.188-77.121 25.281-52.481 18.346-86.188 27.733-101.12 28.159-11.095 0.428-20.693 4.59-28.8 12.481-8.107 7.894-12.159 17.387-12.159 28.479v410.241c0 10.667 3.839 19.947 11.52 27.841s16.854 12.268 27.521 13.12c10.239 0.853 26.454 13.44 48.641 37.76 22.189 24.32 43.734 50.133 64.639 77.441 29.015 37.119 50.559 62.72 64.639 76.8 7.679 7.681 14.293 17.92 19.837 30.721s9.28 23.146 11.2 31.040 4.803 20.798 8.637 38.718c2.988 16.639 5.654 29.653 8.001 39.039 2.35 9.386 6.507 20.48 12.481 33.28 5.972 12.802 13.225 23.468 21.759 31.998 8.104 8.107 17.705 12.159 28.8 12.159 19.627 0 37.226-2.24 52.799-6.72 15.575-4.48 28.374-10.026 38.402-16.639 10.026-6.612 18.558-15.254 25.599-25.921 7.040-10.669 12.161-20.267 15.36-28.8 3.201-8.532 5.759-19.199 7.679-31.998 1.917-12.802 2.986-22.4 3.199-28.8 0.215-6.4 0.323-14.719 0.323-24.96 0-16.213-2.027-32.426-6.082-48.639-4.052-16.213-8.104-29.015-12.159-38.4-4.054-9.388-9.919-21.334-17.597-35.84-1.279-2.56-3.414-6.4-6.4-11.52s-5.333-9.813-7.040-14.081c-1.709-4.267-3.414-9.386-5.121-15.36h177.279c33.28 0 62.081-12.159 86.401-36.478 24.32-24.317 36.48-53.119 36.48-86.401l-0.004-0.002z" />
<glyph unicode="&#xe918;" glyph-name="chronometer" d="M899.2 647.467c0 0-3.2 3.2 0 6.4l19.2 19.2c0 0 3.2 0 3.2 0 6.4 0 12.8 0 22.4 3.2 28.8 6.4 12.8 38.4-16 67.2-28.8 32-64 44.8-67.2 16 0-9.6-3.2-16-3.2-22.4 0 0 0 0 0-3.2l-19.2-19.2c-3.2-3.2-6.4 0-9.6 0-60.8 51.2-137.6 86.4-217.6 99.2 0 0-6.4 0-6.4 3.2v19.2c0 3.2 3.2 3.2 3.2 6.4 19.2 6.4 32 19.2 44.8 35.2 28.8 32-48 54.4-112 54.4-60.8 0-140.8-19.2-112-54.4 12.8-12.8 25.6-25.6 44.8-35.2 0 0 3.2 0 3.2-3.2v-9.6c0-3.2-3.2-6.4-6.4-6.4-105.6-16-198.4-70.4-265.6-147.2-73.6-80-115.2-185.6-115.2-300.8 0-249.6 201.6-451.2 451.2-451.2 236.8 0 432 182.4 451.2 416 0 12.8 0 22.4 0 35.2 0 102.4-35.2 198.4-92.8 272zM905.6 337.067c-16-185.6-172.8-329.6-364.8-329.6-201.6 0-364.8 163.2-364.8 364.8 0 92.8 35.2 179.2 92.8 243.2 67.2 76.8 163.2 121.6 272 121.6 201.6 0 364.8-163.2 364.8-364.8 0-9.6 0-22.4 0-35.2zM662.4 157.867l35.2-60.8c6.4 3.2 16 9.6 22.4 16l-35.2 60.8-22.4-16zM755.2 241.067l51.2-28.8c3.2 6.4 6.4 16 12.8 25.6l-48 28.8-16-25.6zM531.2 154.667h57.6v-96h-57.6v96zM556.8 394.667v278.4c153.6 0 281.6-124.8 281.6-281.6h-281.6zM377.6 500.267l-57.6 35.2 12.8 22.4 57.6-35.2zM284.8 205.867l-12.8 25.6 60.8 35.2 16-25.6zM403.2 97.067l-22.4 16 35.2 60.8 25.6-16zM233.6 413.867h96v-73.6h-96v73.6zM454.4 586.667l-35.2 57.6 22.4 12.8 35.2-57.6z" />
<glyph unicode="&#xe919;" glyph-name="tennis" d="M1019.433 447.864c-47.35-26.665-90.153-59.556-127.795-98.468-21.361-22.036-40.428-45.814-60.621-71.107-19.866-24.822-40.305-50.319-63.263-74.22-62.71-65.229-146.985-102.031-237.507-103.875-2.314 0-4.608-0.123-6.922-0.123-87.859 0-170.988 33.362-234.496 94.413-65.229 62.689-102.052 146.944-103.916 237.425-1.843 90.378 31.744 176.169 94.433 241.377 22.856 23.777 47.698 45.363 71.7 66.13 24.351 21.115 47.452 41.103 68.69 63.365 37.294 39.137 68.588 83.231 93.286 131.604-133.816 0.348-267.387-51.814-367.268-155.832-194.294-202.117-187.945-523.592 14.193-717.967 202.158-194.273 523.694-187.924 718.111 14.193 100.045 103.997 146.924 239.534 141.373 373.084zM392.643 691.637c-23.9-20.767-46.531-40.407-67.543-62.095-50.913-52.982-78.152-122.573-76.78-196.116 1.495-73.4 31.396-141.967 84.398-192.86s122.614-78.152 196.157-76.759c73.421 1.495 142.008 31.396 192.922 84.378 20.91 21.709 39.608 45.138 59.433 69.816 20.214 25.293 41.124 51.384 64.553 75.612 48.026 49.623 103.895 90.726 165.908 122.225-18.145 102.031-67.543 199.475-148.029 276.808-80.323 77.455-179.63 123.044-282.378 137.134-29.082-63.263-67.871-120.627-115.569-170.598-23.306-24.371-48.599-46.305-73.073-67.543z" />
<glyph unicode="&#xe91a;" glyph-name="other-sports" d="M512 934.571c-280.515 0-507.904-227.389-507.904-507.904 0-280.494 227.389-507.904 507.904-507.904s507.904 227.41 507.904 507.904c0 280.515-227.389 507.904-507.904 507.904zM381.993 360.906c-21.586 0-36.803 17.142-36.803 39.977 0 22.856 15.852 39.977 38.072 39.977 22.2 0 37.437-16.507 37.437-39.977 0-22.835-15.217-39.977-38.707-39.977zM513.372 360.906c-21.586 0-36.803 17.142-36.803 39.977 0 22.856 15.852 39.977 38.072 39.977s37.458-16.507 37.458-39.977c0-22.835-15.237-39.977-38.728-39.977zM644.751 360.906c-21.586 0-36.803 17.142-36.803 39.977 0 22.856 15.831 39.977 38.031 39.977 22.221 0 37.478-16.507 37.478-39.977 0.020-22.835-15.237-39.977-38.707-39.977z" />
<glyph unicode="&#xe91b;" glyph-name="basketball" d="M553.39 852.528c11.51 15.217 9.646 47.514 8.008 76.001-0.041 1.249-0.123 2.417-0.205 3.666-16.118 1.536-32.44 2.376-48.947 2.376-63.242 0-123.781-11.653-179.63-32.768 39.854-19.149 101.56-52.081 170.127-100.762 23.347 20.132 41.001 38.707 50.647 51.487v0zM810.865 562.716c-25.068-2.847-46.182-6.943-64.266-12.698 86.385-150.692 120.033-341.094 128.266-479.007 85.586 87.101 139.899 204.882 145.039 335.34-58.941 72.438-137.052 164.516-209.039 156.365v0zM297.472 692.784c60.641 12.616 117.678 43.131 163.103 75.366-94.802 65.29-173.875 99.164-189.624 105.595-98.365-53.166-177.091-137.83-222.863-240.456 59.515 23.695 123.986 35.758 187.31 47.514 20.48 3.809 41.656 7.721 62.075 11.981v0zM648.704 678.018c5.427-5.448 10.793-10.998 16.179-16.63 19.804-20.787 37.786-43.479 54.19-67.523 24.023 9.032 52.244 15.483 86.057 19.272 79.647 9.011 150.467-54.047 211.21-123.474-13.025 105.267-58.184 200.499-125.481 275.62-36.741-4.424-77.66-11.919-119.398-24.351-27.341-8.172-70.963-30.392-122.757-62.915v0zM581.837 415.731c20.849 70.533 44.974 121.426 91.75 154.44-14.049 20.132-29.143 39.035-45.527 56.197-7.557 7.967-15.217 15.626-22.897 23.163-187.658-127.672-444.723-362.168-468.091-565.391 78.029-85.34 184.812-143.852 305.029-160.44 43.766 87.101 84.951 264.131 109.466 369.459 11.735 50.606 21.914 94.249 30.269 122.573v0zM369.070 527.613c65.434 60.273 134.533 114.299 197.755 157.737-21.094 18.616-42.23 35.799-62.976 51.569-52.49-39.465-121.221-78.295-196.035-93.839-20.951-4.383-42.394-8.335-63.14-12.206-79.913-14.848-156.611-29.204-221.143-65.167-12.575-44.216-19.436-90.829-19.436-139.039 0-107.889 33.751-207.852 91.136-290.12 37.192 147.169 164.68 290.55 273.838 391.066v0zM610.57 714.35c60.416 38.543 112.538 65.167 146.35 75.244 30.372 9.073 60.17 15.688 88.371 20.5-65.167 56.627-144.855 96.952-232.837 114.565 1.987-35.492 2.826-74.424-18.534-102.728-10.138-13.414-27.279-31.867-49.623-51.855 21.893-17.019 44.093-35.574 66.273-55.726v0zM630.559 401.354c-7.946-26.87-17.92-69.878-29.491-119.665-34.222-147.067-66.908-278.61-105.124-362.496 5.427-0.164 10.854-0.43 16.302-0.43 118.415 0 227.328 40.591 313.692 108.503-3.379 144.323-38.011 348.508-125.235 500.040-33.812-25.129-51.999-64.635-70.144-125.952v0z" />
<glyph unicode="&#xe91c;" glyph-name="soccer2" d="M320.871 897.4c-62.976-25.518-119.501-63.099-167.997-111.575-48.517-48.435-85.996-105.062-111.534-168.038-24.678-60.867-37.233-125.133-37.233-191.16 0-65.946 12.534-130.232 37.212-191.099 25.559-63.058 63.037-119.624 111.534-168.059 48.476-48.476 105.021-85.996 167.997-111.616 60.846-24.617 125.215-37.089 191.16-37.089 65.987 0 130.253 12.452 191.119 37.089 62.996 25.62 119.542 63.14 167.997 111.616 48.497 48.435 86.057 105.001 111.575 168.059 24.617 60.867 37.192 125.153 37.192 191.099 0 66.028-12.575 130.294-37.192 191.16-25.518 62.976-63.14 119.603-111.575 168.038-48.456 48.476-105.001 86.057-167.997 111.575-60.867 24.699-125.133 37.171-191.119 37.171-65.946 0-130.314-12.472-191.14-37.171v0zM131.022 212.794c-24.453 15.34-47.002 33.075-66.929 53.862-30.515 85.791-35.656 178.688-15.421 266.875 9.441 18.739 20.255 36.762 32.461 53.965 3.748 5.345 7.27 10.895 11.305 16.036l114.647-67.85v-2.908c-0.266-61.624 5.98-122.819 18.432-183.173 0-0.225 0.102-0.389 0.164-0.614l-88.904-139.407c-1.905 1.004-3.891 2.048-5.755 3.215v0zM471.85-22.808c19.722-10.097 40.059-18.616 61.010-25.559-88.76-3.85-178.483 16.978-257.7 62.464l192.082-34.304c1.495-0.922 3.011-1.843 4.608-2.601v0zM471.153 11.886l-226.796 40.366c-26.481 32.215-50.34 66.376-70.861 102.789-5.181 9.236-11.018 18.207-15.483 27.935l88.822 139.203c1.905-0.471 4.096-1.004 6.656-1.638 55.521-14.889 112.046-25.416 169.001-33.731 3.297-0.43 6.062-0.922 8.499-1.126l106.435-184.054c-18.514-25.989-37.151-51.835-56.3-77.292-3.133-4.342-6.492-8.417-9.974-12.452v0zM848.375 90.324c-18.084-18.104-37.192-34.365-57.303-48.927-3.318 26.542-9.032 52.675-17.142 78.090l113.562 211.886c31.314 14.234 61.481 30.413 89.477 50.401 3.645 2.601 6.636 5.591 9.052 8.724-8.233-109.445-54.108-216.658-137.646-300.175v0zM843.275 365.084c4.301-8.049 8.438-16.179 12.616-24.412l-109.732-204.657c-0.614-0.205-1.229-0.369-1.843-0.43-59.331-11.059-119.091-16.937-179.343-17.224l-109.527 189.297c17.080 31.662 33.935 63.488 50.647 95.191 11.387 21.586 22.548 43.233 33.731 64.983l226.57 23.224c27.75-40.632 54.088-82.248 76.882-125.972v0zM797.338 607.854c-10.691-28.385-22.221-56.463-33.71-84.644l-220.733-22.692c-2.642 3.502-5.325 6.943-8.172 10.138-26.112 29.553-52.306 58.88-78.561 88.31 0.266 0.328 0.471 0.532 0.758 0.799-10.547 10.568-21.176 21.115-31.744 31.683l61.42 185.057c4.239 1.106 8.54 2.068 12.78 2.519 33.485 3.359 66.929 7.229 100.454 9.175 20.48 1.106 41.103 1.802 61.911 0.369l152.105-171.418c-5.284-16.548-10.424-33.137-16.507-49.295v0zM848.375 763.031c41.923-41.964 74.424-89.866 97.382-141.005-28.488 19.517-58.819 35.635-90.706 48.742-4.977 2.068-10.097 3.85-15.278 5.612l-149.647 168.653c1.024 7.27 1.577 14.623 1.782 21.934 56.934-23.142 110.326-57.815 156.467-103.936v0zM359.64 875.916c0.614-0.471 0.881-0.84 1.27-0.901 34.181-11.858 65.29-29.266 94.618-49.889l-57.344-172.913c-0.369-0.082-0.614-0.143-0.881-0.307-11.735-4.854-23.716-9.155-35.328-14.438-47.616-21.688-94.065-45.65-137.851-74.445l-113.213 67.011c0.143 3.564 0.758 7.127 1.905 10.363 7.639 20.296 15.155 40.632 23.736 60.518 6.656 15.278 14.172 30.085 22.405 44.544 5.427 5.898 10.977 11.796 16.712 17.551 53.801 53.801 117.391 91.976 185.119 114.586-0.389-0.512-0.778-1.085-1.147-1.679v0z" />
<glyph unicode="&#xe91d;" glyph-name="poll" d="M726 212.667v172h-86v-172h86zM554 212.667v428h-84v-428h84zM384 212.667v300h-86v-300h86zM810 810.667q34 0 60-26t26-60v-596q0-34-26-60t-60-26h-596q-34 0-60 26t-26 60v596q0 34 26 60t60 26h596z" />
<glyph unicode="&#xe91e;" glyph-name="plus" d="M992 576h-352v352c0 17.672-14.328 32-32 32h-192c-17.672 0-32-14.328-32-32v-352h-352c-17.672 0-32-14.328-32-32v-192c0-17.672 14.328-32 32-32h352v-352c0-17.672 14.328-32 32-32h192c17.672 0 32 14.328 32 32v352h352c17.672 0 32 14.328 32 32v192c0 17.672-14.328 32-32 32z" />
<glyph unicode="&#xe91f;" glyph-name="uefa" horiz-adv-x="621" d="M417.404 85.071c-87.282 83.969 1.065 172.395 1.065 172.395 127.788 186.673 51.391 353.705 51.391 353.705 25.124 182.335-92.844 139.699-92.844 139.699s0 14.159 37.114 17.433c37.035 3.274 34.984 72.058 34.984 72.058h-277.15c0 0-2.248-68.785 34.905-72.058 37.193-3.274 37.193-17.433 37.193-17.433s-117.928 42.596-92.883-139.699c0 0-76.436-167.032 51.391-353.705 0 0 88.347-88.426 0.986-172.395 0 0-87.282-65.551 96.078-72.098h21.732c183.399 6.508 96.038 72.098 96.038 72.098zM443.909 630.576c-17.196 2.445-42.517 17.196-51.628 25.36-8.992 8.164-9.702 58.924-9.702 58.924 92.449 27.056 61.33-84.285 61.33-84.285zM231.993 655.936c-9.111-8.204-34.353-22.915-51.628-25.36 0 0-31.119 111.341 61.409 84.324 0-0.039-0.789-50.8-9.781-58.964z" />
<glyph unicode="&#xe920;" glyph-name="copa-america" horiz-adv-x="621" d="M303.557 631.719c-85.981 3.037-153.464-36.404-153.464-36.404 5.009 19.76 9.86 39.52 28.831 55.533 18.853 16.013 48.907 29.581 6.942 95.013-41.926 65.393 117.691 75.174 117.691 75.174s159.617-9.821 117.612-75.174c-41.965-65.393-11.872-79 7.020-95.013 18.892-16.052 23.822-35.773 28.752-55.533 0 0-67.523 39.441-153.385 36.404zM308.487 610.145c0 0 146.010 6.192 165.691-55.493 0 0 51.825-109.803-17.236-228.204 0 0 34.471 154.174-129.523 172.672 0 0-61.685 0.158-61.685-30.764 0 0 17.275-11.28 33.288 12.818 0 0 38.652-22.797 9.466-56.045 0 0-14.356-24.69-64.998-18.498 0 0-56.716 15.934-32.026 74.582 0 0-76.436-79.513-16.013-170.818 0 0 38.179-39.441 43.148-11.122 0 0-7.415 30.843-40.703 24.69 0 0 37.666 47.881 81.406-3.707 0 0 46.146-78.96-30.803-78.96 0 0-71.624 8.638-88.899 90.083 0 0-64.604 115.128-9.466 231.951-0.039-0.079 14.948 43.148 158.355 46.816zM345.877 306.609c0 0-38.218 75.292 33.327 60.423 71.624-14.751 31.434-133.901-43.464-147.706 0 0-40.427-10.176-98.365 10.767 0 0 64.091-80.183-18.616-123.331 0 0-67.128-28.437 11.122-51.825 0 0 113.077-22.639 180.126 12.345 0 0 30.882 22.205-2.445 35.733 0 0-99.943 41.965-29.581 123.41 0 0 130.983 98.72 37.035 175.196 0 0-78.093 54.586-118.559-22.205 0.079 0-25.36-62.474 49.419-72.808z" />
<glyph unicode="&#xe921;" glyph-name="spy" d="M511.714 239.627c103.138 0 187.047 83.909 187.047 187.047s-83.909 187.047-187.047 187.047-187.047-83.909-187.047-187.047 83.909-187.047 187.047-187.047zM511.714 507.984c44.835 0 81.31-36.474 81.31-81.31s-36.474-81.31-81.31-81.31c-44.835 0-81.31 36.474-81.31 81.31s36.474 81.31 81.31 81.31zM1020.928 438.889c-1.576 2.938-39.536 72.776-121.187 142.832-75.328 64.622-203.738 141.66-387.737 141.66s-312.413-77.038-387.741-141.66c-81.655-70.053-119.615-139.892-121.191-142.832-4.089-7.62-4.096-16.777-0.021-24.407 1.569-2.941 39.395-72.794 120.987-142.864 75.259-64.626 203.659-141.667 387.965-141.667s312.703 77.041 387.962 141.671c81.592 70.063 119.415 139.923 120.984 142.864 4.075 7.627 4.068 16.784-0.021 24.404zM511.714 665.438c131.655 0 238.764-107.106 238.764-238.764s-107.11-238.764-238.764-238.764c-131.658 0-238.764 107.11-238.764 238.764s107.106 238.764 238.764 238.764z" />
<glyph unicode="&#xe922;" glyph-name="share2" d="M864 256c-45.16 0-85.92-18.738-115.012-48.83l-431.004 215.502c1.314 8.252 2.016 16.706 2.016 25.328s-0.702 17.076-2.016 25.326l431.004 215.502c29.092-30.090 69.852-48.828 115.012-48.828 88.366 0 160 71.634 160 160s-71.634 160-160 160-160-71.634-160-160c0-8.622 0.704-17.076 2.016-25.326l-431.004-215.504c-29.092 30.090-69.852 48.83-115.012 48.83-88.366 0-160-71.636-160-160 0-88.368 71.634-160 160-160 45.16 0 85.92 18.738 115.012 48.828l431.004-215.502c-1.312-8.25-2.016-16.704-2.016-25.326 0-88.368 71.634-160 160-160s160 71.632 160 160c0 88.364-71.634 160-160 160z" />
<glyph unicode="&#xe923;" glyph-name="share" d="M568.986 665.088v199.168l456.294-401.766-456.294-405.197v196.71c0 0-407.962 90.419-568.986-161.024 0 0 88.269 526.029 568.986 572.109z" />
<glyph unicode="&#xe924;" glyph-name="notification-bell-disabled" d="M752.742 569.344h-0.137c-2.458 110.592-77.005 203.435-178.483 233.506-7.987 30.857-36.011 53.658-69.393 53.658-33.007 0-60.757-22.289-69.086-52.634-9.626-2.731-18.978-5.973-28.058-9.762l345.156-345.122v120.354zM989.867 62.771l-791.313 791.279-20.582-20.582 123.324-123.29c-29.935-41.165-47.616-91.819-47.616-146.603 0-5.325 0.205-10.65 0.512-15.872v-130.56c0-201.933-79.531-204.527-79.531-204.527l1.98-0.205c-11.981-1.331-21.333-11.503-21.333-23.859 0-13.312 10.786-24.030 24.064-24.030h220.228c0-58.095 47.070-105.165 105.131-105.165s105.165 47.070 105.165 105.165h220.16c4.881 0 9.216 1.502 12.937 3.891l126.225-126.191 20.651 20.548z" />
<glyph unicode="&#xe925;" glyph-name="settings" d="M777.941 144.982l114.688 158.677-92.672 81.792c1.749 13.013 2.688 26.24 2.688 39.723 0 16.213-1.451 32.085-3.968 47.616l0.128-0.128 92.075 83.115-116.437 157.355-90.155-53.973c-20.224 14.976-42.496 27.307-66.304 36.651l-11.093 114.859h-195.797l-11.477-117.376c-22.144-9.259-42.923-21.205-61.824-35.413l-91.733 53.547-114.688-158.635 93.013-82.133 0.683 0.853c-2.432-15.104-3.669-30.592-3.669-46.293 0-17.536 1.536-34.731 4.523-51.499l-86.827-78.293 116.48-157.355 86.144 51.584c17.963-13.013 37.504-24.021 58.24-32.683l11.093-114.347h195.797l10.88 111.744c26.411 10.325 50.901 24.405 72.917 41.6l87.296-50.987zM511.957 285.824c-77.013 0-139.392 62.336-139.392 139.349s62.421 139.392 139.392 139.392c77.056 0 139.392-62.379 139.392-139.392s-62.336-139.349-139.392-139.349z" />
<glyph unicode="&#xe926;" glyph-name="notification-bell" d="M827.733 217.19l0.853 0.034c0 0-78.95 2.628-78.95 203.093v151.108h-0.102c-2.458 109.807-76.425 201.967-177.186 231.834-7.885 30.618-35.738 53.282-68.881 53.282-32.734 0-60.348-22.153-68.608-52.292-104.209-29.218-180.668-124.928-180.668-238.524 0-5.291 0.205-10.547 0.512-15.77v-129.604c0-200.465-78.95-203.093-78.95-203.093l1.98-0.171c-11.913-1.331-21.163-11.435-21.163-23.723 0-13.141 10.684-23.859 23.893-23.859h218.658c0-57.617 46.729-104.38 104.38-104.38s104.414 46.729 104.414 104.38h218.59c13.21 0 23.893 10.718 23.893 23.859-0.034 12.766-10.069 23.177-22.665 23.825z" />
<glyph unicode="&#xe927;" glyph-name="arrow-light-left" horiz-adv-x="591" d="M142.186 448.041l435.824 435.797c8.19 8.095 13.15 19.296 13.232 31.601-0.082 24.543-19.977 44.479-44.574 44.561-12.305 0-23.52-5.097-31.492-13.137l-498.891-498.836 498.85-498.932c8.026-8.054 19.228-13.096 31.533-13.096 24.597 0 44.493 20.086 44.574 44.493 0 12.414-5.042 23.561-13.068 31.588l-435.988 435.96z" />
<glyph unicode="&#xe928;" glyph-name="arrow-light-right" horiz-adv-x="591" d="M465.341 447.959l-435.824-435.783c-8.19-8.108-13.15-19.296-13.232-31.615 0.082-24.543 19.977-44.479 44.574-44.561 12.305 0 23.52 5.097 31.492 13.137l498.904 498.836-498.863 498.932c-8.026 8.054-19.228 13.096-31.547 13.096-24.583 0-44.479-20.086-44.561-44.493 0-12.414 5.042-23.561 13.068-31.588l435.988-435.96z" />
<glyph unicode="&#xe929;" glyph-name="fax" d="M102.693 23.235h14.238c-13.312 24.478-21.163 53.882-21.163 85.675v322.609c0 31.695 7.753 61.147 21.163 85.723h-14.238c-45.495 0-82.359-36.815-82.359-82.359v-329.338c0-45.397 36.864-82.31 82.359-82.31v0zM325.827 23.235h601.381c45.544 0 82.359 36.913 82.359 82.359v329.289c0 45.544-36.864 82.359-82.359 82.359h-49.981v164.718c0 62.903-47.982 113.859-107.081 113.859h-307.395c-59.002 0-107.032-51.102-107.032-113.859v-164.718h-29.891c13.312-24.576 21.114-54.028 21.114-85.626v-322.706c0-31.744-7.802-61.196-21.114-85.675v0zM844.849 81.164c-19.7 0-35.645 16.043-35.645 35.694 0 19.7 15.945 35.645 35.645 35.645s35.645-15.945 35.645-35.645c0.146-19.651-15.945-35.694-35.645-35.694v0zM888.734 341.894v-135.168h-458.313v135.168h458.313zM405.065 681.96c0 35.547 25.893 64.463 57.685 64.463h307.395c31.695 0 57.685-28.867 57.685-64.463v-181.297c0-35.499-25.941-64.463-57.685-64.463h-307.395c-31.793 0-57.685 28.916-57.685 64.463v181.297zM221.33-15.238c52.565 0 95.086 55.589 95.086 124.148v322.609c0 68.559-42.569 124.099-95.086 124.099s-95.086-55.54-95.086-124.099v-322.609c0-68.559 42.569-124.148 95.086-124.148v0zM460.312 663.089h309.833c10.533 0 19.163 8.631 19.163 19.261 0 10.581-8.631 19.261-19.163 19.261h-309.833c-10.581 0-19.261-8.631-19.261-19.261s8.68-19.261 19.261-19.261v0zM460.312 574.196h309.833c10.533 0 19.163 8.631 19.163 19.261s-8.631 19.163-19.163 19.163h-309.833c-10.581 0-19.261-8.533-19.261-19.163s8.68-19.261 19.261-19.261v0zM460.312 485.303h309.833c10.533 0 19.163 8.533 19.163 19.163 0 10.581-8.631 19.261-19.163 19.261h-309.833c-10.581 0-19.261-8.631-19.261-19.261 0-10.679 8.68-19.163 19.261-19.163v0z" />
<glyph unicode="&#xe92a;" glyph-name="phone" d="M989.818 157.525l-154.526 154.575c-30.72 30.622-81.774 29.647-113.566-2.194l-77.873-77.824c-4.925 2.731-9.996 5.51-15.36 8.533-49.152 27.307-116.395 64.61-187.197 135.461-70.997 70.997-108.398 138.386-135.704 187.587-2.926 5.266-5.705 10.289-8.387 15.019l52.273 52.175 25.649 25.746c31.89 31.842 32.768 82.846 2.048 113.615l-154.526 154.526c-30.671 30.671-81.676 29.745-113.566-2.146l-43.544-43.837 1.219-1.17c-14.629-18.627-26.819-40.082-35.889-63.293-8.436-22.040-13.605-43.106-15.994-64.171-20.382-169.155 56.905-323.779 266.679-533.553 289.938-289.938 523.605-268.044 533.699-266.971 21.943 2.633 42.959 7.851 64.366 16.14 23.016 9.021 44.471 21.211 63.049 35.742l0.975-0.878 44.13 43.203c31.842 31.939 32.719 82.895 2.048 113.713z" />
<glyph unicode="&#xe92b;" glyph-name="bubble" d="M512 960c-253.527 0-459.037-205.512-459.037-459.037 0-134.031 57.412-254.554 149.008-338.455v-226.508l188.654 122.225c38.677-10.543 79.32-16.299 121.375-16.299 253.496 0 459.037 205.512 459.037 459.037s-205.541 459.037-459.037 459.037zM430.154 471.714c-5.873-5.902-13.069-8.839-21.556-8.839-8.781 0-16.24 2.937-22.437 8.839-6.138 5.902-9.221 13.069-9.221 21.556 0 8.781 3.084 16.24 9.221 22.437 6.196 6.138 13.656 9.221 22.437 9.221 8.487 0 15.683-3.084 21.556-9.221 5.902-6.196 8.869-13.656 8.869-22.437 0-8.487-2.967-15.653-8.869-21.556zM534.201 471.714c-5.902-5.902-13.098-8.839-21.585-8.839-8.781 0-16.269 2.937-22.437 8.839s-9.221 13.069-9.221 21.556c0 8.781 3.054 16.24 9.221 22.437 6.167 6.138 13.656 9.221 22.437 9.221 8.487 0 15.683-3.084 21.585-9.221 5.873-6.196 8.839-13.656 8.839-22.437 0-8.487-2.967-15.653-8.839-21.556zM638.19 471.714c-5.873-5.902-13.069-8.839-21.556-8.839-8.781 0-16.24 2.937-22.437 8.839-6.138 5.902-9.221 13.069-9.221 21.556 0 8.781 3.084 16.24 9.221 22.437 6.196 6.138 13.656 9.221 22.437 9.221 8.487 0 15.683-3.084 21.556-9.221 5.902-6.196 8.869-13.656 8.869-22.437 0-8.487-2.967-15.653-8.869-21.556z" />
<glyph unicode="&#xe92c;" glyph-name="bitten-pie" d="M932.352 739.84c-29.888-26.432-68.672-43.008-111.68-43.008-93.248 0-168.896 75.648-168.896 168.96 0 25.024 5.824 48.64 15.616 70.016-49.024 15.616-101.184 24.192-155.392 24.192-282.752 0-512-229.248-512-512s229.248-512 512-512c282.752 0 511.936 229.248 511.936 512 0.064 108.608-33.92 209.024-91.584 291.84v0zM517.824 266.368c-93.248 0-168.896 75.648-168.896 169.024 0 93.312 75.648 168.96 168.896 168.96 93.376 0 168.896-75.648 168.896-168.96-0.064-93.376-75.52-169.024-168.896-169.024v0z" />
<glyph unicode="&#xe92d;" glyph-name="checkbox-unchecked" d="M896 960h-768c-70.4 0-128-57.6-128-128v-768c0-70.4 57.6-128 128-128h768c70.4 0 128 57.6 128 128v768c0 70.4-57.6 128-128 128zM896 64h-768v768h768v-768z" />
<glyph unicode="&#xe92e;" glyph-name="camera" d="M1023.505 614.617v0c0 63.792-48.596 116.071-110.723 122.094v0.496h-9.317c-0.886 0-1.77 0.141-2.621 0.141-0.921 0-1.77-0.141-2.657-0.141h-200.763l-52.423 138.069-1.204-0.425c-7.793 18.807-26.318 32.090-47.959 32.090h-147.914c-18.455 0-34.641-9.669-43.814-24.228l-0.461 0.141-0.851-2.337c-2.586-4.57-4.535-9.493-5.597-14.806l-48.809-128.54h-223.042c-0.886 0-1.77 0.141-2.657 0.141s-1.77-0.141-2.621-0.141h-4.356v-0.212c-62.978-3.613-113.203-54.583-115.469-117.95h-0.247v-511.717h0.247c2.266-63.296 52.458-114.301 115.469-117.879v-0.284h5.668c0.461 0 0.851-0.071 1.31-0.071s0.851 0.071 1.347 0.071h775.528c0.461 0 0.886-0.071 1.347-0.071 0.425 0 0.851 0.071 1.274 0.071h10.661v0.567c62.127 6.021 110.723 58.302 110.723 122.094h0.425v502.826h-0.496zM511.965 136.584c-125.176 0-226.62 101.479-226.62 226.62s101.444 226.62 226.62 226.62c125.141 0 226.583-101.479 226.583-226.62s-101.444-226.62-226.583-226.62zM693.069 363.202c0-100.020-81.082-181.104-181.104-181.104s-181.104 81.082-181.104 181.104c0 100.020 81.082 181.104 181.104 181.104s181.104-81.082 181.104-181.104z" />
<glyph unicode="&#xe92f;" glyph-name="horoscope" d="M920.983 279.479c-17.034-0.544-31.434-0.878-41.267 0.090-15.611 1.634-29.195 4.448-41.781 7.835-30.042 10.589-52.824 29.317-68.8 54.669l-7.655 15.55-4.598 11.165 10.257 6.323c3.45 2.299 6.928 3.45 10.378 4.598 2.299 1.151 6.928 2.299 11.526 2.299l43.778-2.299c8.048-1.151 16.095 1.151 23.024 3.45 17.275 5.749 33.402 17.275 48.378 32.221 9.227 10.408 21.904 26.502 38.030 49.557l17.275 24.203c6.928 9.227 13.826 16.127 19.544 24.173 14.976 14.976 29.952 26.502 44.928 32.251-11.526-4.598-25.354-10.378-38.030-17.275-6.928-3.45-18.426-11.526-35.701-23.024-14.976-8.108-26.502-15.006-35.731-19.605-13.795-6.928-26.502-11.496-40.299-13.795-13.826-2.329-29.952-3.45-44.928-1.151-14.946 2.299-28.771 5.749-41.448 13.826-4.598 2.299-9.227 5.719-13.826 9.227l-10.257 8.532 5.446 10.074c1.876 3.721 4.265 6.474 6.687 9.197 1.422 2.149 4.841 5.476 8.803 7.775l39.089 19.878c7.534 3.056 13.372 9.076 18.243 14.492 12.072 13.615 20.271 31.677 25.777 52.129 2.783 13.584 5.689 33.886 8.169 61.9l2.874 29.589c1.392 11.466 3.904 20.876 4.841 30.769 5.506 20.452 12.677 37.91 22.781 50.374-7.655-9.741-16.761-21.633-24.295-33.976-4.265-6.444-10.195-19.181-19.394-37.788-8.956-14.462-15.46-26.201-21.149-34.793-8.502-12.918-17.185-23.235-27.986-32.131-10.801-8.926-24.203-17.972-38.332-23.448s-27.834-9.44-42.84-8.773c-5.143-0.333-10.862 0.394-16.58 1.058l-13.251 2.269v11.103l1.151 11.526c1.151 2.299 2.299 5.719 4.598 10.347 2.299 3.48 4.598 9.227 10.378 17.275l12.647 19.574c4.598 8.078 8.108 14.946 9.257 21.874 2.269 17.305 1.151 36.88-4.629 58.754-4.598 12.677-11.496 32.221-23.024 56.424-11.526 25.354-19.574 44.928-23.054 56.454-6.928 20.725-8.078 39.149-5.749 55.275-2.299-12.677-4.598-26.502-4.598-42.629 0-6.928 0-20.755 2.299-41.448 0-16.127 0-29.952 0-40.33-2.299-14.946-4.598-28.771-9.227-41.448-10.347-29.922-28.771-52.976-54.125-69.101-4.598-3.45-9.227-5.749-16.127-8.078l-11.406-4.418-6.050 10.528-4.781 10.558c-0.151 2.572-0.847 6.143-1.181 11.285 0.273 4.175-0.635 10.287 0.363 20.149l1.151 23.295c0 9.319-0.484 17.002-2.966 23.538-6.626 16.127-17.426 32.494-33.372 48.559-10.317 8.683-26.079 22.177-48.165 37.364-22.661 16.187-39.422 29.105-48.195 37.364-16.337 14.492-26.564 29.862-32.615 44.988 4.357-12.133 9.257-25.263 17.305-39.209 3.45-5.99 10.378-17.972 22.751-34.763 8.048-13.978 14.946-25.898 20.149-34.884 5.506-14.129 10.408-27.229 12.737-40.541 5.99-31.103 1.572-60.267-12.313-86.922-2.239-5.295-5.082-9.56-9.924-15.036l-7.745-9.56-10.105 5.749c-3.45 2.299-6.928 4.598-9.227 6.928-2.299 1.119-4.598 4.598-6.928 9.227-2.269 3.42-5.719 9.227-10.347 17.245l-10.378 20.755c-3.45 8.078-9.227 13.826-14.976 19.574-13.826 11.526-31.103 19.574-51.826 24.203-13.826 3.42-33.402 6.928-61.085 9.227-27.623 2.299-48.378 4.568-59.874 8.048-21.904 4.598-38.030 12.677-50.677 23.054 9.227-9.227 20.755-17.275 34.551-25.354 5.749-3.42 17.275-10.347 35.731-19.544 14.976-8.078 27.623-14.976 35.731-20.755 12.647-8.078 23.024-18.426 31.071-27.653 20.755-24.173 32.251-50.677 33.402-81.778l-1.151-17.245-2.633-12.193-11.285-0.030c-4.145 0.243-8.259 0.544-11.436 1.361-2.572-0.181-6.293 1.695-10.589 4.508-3.721 1.876-9.59 5.113-17.639 9.773l-19.333 12.767c-7.018 5.265-14.886 7.382-22.781 9.47-17.729 3.056-36.699 1.392-56.97-4.962-13.705-3.934-32.372-10.711-57.484-22.54-25.081-11.829-44.201-20.211-55.91-22.994-21.239-6.928-39.239-8.048-55.396-5.386 12.586-3.358 26.594-4.598 42.599-4.659 6.717-0.121 20.119-0.363 40.693 0.878 17.034 0.544 31.434 0.847 41.298-0.090 15.006-0.635 29.195-4.448 40.783-8.38 30.042-10.619 53.247-27.773 69.828-54.125l7.625-15.55 3.964-12.223-9.44-5.809c-3.48-2.299-6.928-3.45-10.378-4.598-3.45-1.119-6.928-1.119-11.526-1.119-3.45-1.181-10.378 0-19.574 0l-24.173 1.119c-8.108 0-16.127-1.119-24.233-3.42-16.095-6.928-32.191-16.127-47.227-32.251-5.719-6.928-12.647-14.976-19.544-23.054-4.598-5.749-10.378-14.976-18.426-26.472-16.127-23.054-28.802-38.030-36.88-47.257-14.946-16.127-29.922-27.623-46.047-33.402 12.677 4.598 25.354 10.378 39.179 17.275 6.898 4.598 18.396 11.526 35.701 23.054 13.826 8.078 26.502 14.976 35.731 19.574 13.826 6.928 26.472 11.526 39.149 13.826 31.103 5.719 61.085 1.119 87.557-12.707 4.598-2.299 9.227-4.598 14.976-9.227l8.896-8.078-5.416-9.984c-1.845-3.721-4.235-6.444-6.657-9.197-2.42-2.723-5.446-4.418-9.44-6.747-2.39-2.723-8.986-5.203-16.942-9.803l-21.54-11.072c-6.988-4.054-13.372-9.076-19.241-15.097-10.528-14.038-19.847-30.073-24.749-51.524-1.542-8.865-3.48-19.333-5.446-29.709-1.119-7.321-1.512-18.183-2.723-32.161-2.45-28.016-5.93-47.318-8.289-59.36-4.902-21.45-12.102-38.878-23.205-51.946 8.653 10.317 16.761 21.633 25.263 34.551 3.691 7.442 10.195 19.181 19.424 37.788 7.926 13.918 15.46 26.231 21.119 34.824 8.502 12.918 17.185 23.235 27.018 31.524 24.052 20.573 52.31 31.556 82.141 32.826 5.173 0.303 10.317 0.635 17.578-0.514l11.649-2.542 0.787-11.98-1.151-11.526c-1.151-2.269-2.299-5.719-4.598-10.347-1.151-3.45-4.598-9.227-10.378-17.275l-12.677-19.574c-4.598-6.928-8.048-14.946-9.227-21.874-3.42-17.275-1.151-36.88 4.598-58.754 3.45-12.677 11.526-31.071 23.054-56.424 11.526-25.323 19.574-43.747 23.054-56.424 6.928-20.755 8.078-39.149 5.719-55.275 2.329 12.647 3.48 26.472 4.598 42.599l-1.119 41.478c-1.151 17.245-1.151 29.922 0 40.299 1.119 16.127 3.42 28.771 8.048 41.478 4.598 14.946 11.526 27.623 20.755 40.299 9.227 11.526 20.755 20.755 33.402 29.952 4.598 2.299 9.197 4.598 14.976 6.898l11.92 4.295 6.564-9.803 4.749-10.589c0.181-2.542 0.878-6.111 1.181-11.255 0.727-3.57 0.635-10.317-0.333-20.179l-1.181-23.295c-0.574-8.259 0.514-17.002 2.966-23.538 5.657-16.701 17.426-32.494 33.372-48.559 9.349-9.257 25.534-21.179 48.165-37.364 22.661-16.157 38.878-28.107 48.195-37.334 16.337-14.492 26.564-29.862 32.615-44.988-4.327 12.133-10.257 24.657-17.305 39.209l-21.723 35.338c-9.621 14.402-15.944 25.354-20.149 34.914-7.080 14.522-11.406 26.655-13.765 39.936-3.48 15.249-3.842 29.679-2.179 45.261 2.209 14.582 7.594 28.348 13.948 42.659 2.843 4.295 5.689 8.562 9.5 13.434l8.38 9.894 10.589-6.080c3.48-2.299 6.928-4.598 9.227-5.719 2.299-2.299 4.629-5.779 6.928-9.227 2.299-3.48 5.749-9.227 10.378-18.426l10.378-20.755c3.45-6.928 9.227-13.826 14.946-18.426 12.707-11.526 29.952-20.755 53.006-25.323 12.677-3.45 32.251-5.749 59.904-9.227 27.623-2.299 48.348-4.598 61.055-6.928 20.725-5.749 36.85-12.677 49.527-24.203-9.227 9.227-20.755 17.275-34.581 25.354-5.719 3.45-17.245 10.378-35.701 19.544-14.976 8.108-27.653 15.006-35.701 20.755-12.707 9.227-23.054 18.426-32.251 27.653-20.755 24.173-31.103 51.826-32.251 81.778l1.151 17.245 1.725 12.767 12.010 0.060c4.175-0.243 8.289-0.544 10.862-0.363 3.147-0.847 6.868-2.693 10.589-4.538s9.59-5.082 18.213-10.741l19.364-12.767c6.444-4.295 14.855-7.382 22.177-8.502 16.731-3.6 36.275-2.966 58.573 4.538 12.707 3.358 30.799 11.165 56.454 21.994 25.081 11.829 44.201 20.211 56.304 24.566 20.815 5.355 38.271 7.442 54.972 3.811-12.586 3.358-26.594 4.598-42.569 4.659-6.777 0-20.241 0.243-40.783-0.998z" />
<glyph unicode="&#xe930;" glyph-name="triangle-left" d="M914.285 938.667v-1024l-804.571 512z" />
<glyph unicode="&#xe931;" glyph-name="vip" d="M409.183 663.867l-134.003-431.756h-135.073l-140.107 431.756h139.659l68.322-235.339c4.685-13.928 8.821-27.608 12.408-41.113l79.783 276.476h109.011zM581.507 663.867v-431.756h-132.557v431.756h132.557zM791.206 389.010v-156.901h-134.426v431.756h184.383c45.996 0 80.93-5.257 104.875-15.822 23.945-10.539 42.932-26.66 56.934-48.388 14.029-21.702 21.029-46.071 21.029-73.081 0-41.113-14.327-74.327-43.031-99.642-28.655-25.316-66.951-37.923-114.791-37.923h-74.975zM789.312 481.675h44.276c39.019 0 58.555 14.351 58.555 43.031 0 27.009-18.064 40.489-54.119 40.489h-48.712v-83.52z" />
<glyph unicode="&#xe932;" glyph-name="globe" d="M340.954 282.365c44.093 3.857 96.040 6.494 156.588 6.883v144.268h-173.265c0.888-52.945 6.549-104.032 16.677-151.149zM324.194 462.458h173.32v144.268c-60.493 0.389-112.412 3.024-156.477 6.883-10.156-47.228-15.955-98.287-16.843-151.149zM382.3 737.423c-13.874-28.665-25.363-60.715-34.465-95.235 42.401-3.636 92.127-6.133 149.707-6.494v216.027c-42.012-7.715-83.303-48.394-115.242-114.299zM386.796 149.53c18.703-36.268 39.903-63.962 63.075-82.387 15.624-12.404 31.606-20.062 47.645-22.921v216.082c-57.579-0.389-107.306-2.886-149.707-6.494 10.045-38.266 23.116-73.48 38.988-104.282zM361.072 136.266c-17.675 34.297-31.772 73.175-42.318 114.743-72.508-7.63-120.099-18.37-145.961-25.473 16.206-24.558 35.242-47.534 56.859-68.456 54.138-52.418 120.543-88.020 192.467-104.225-22.033 20.035-42.679 47.84-61.049 83.413zM356.3 749.995c19.453 40.264 41.846 71.259 65.848 93.099-22.339-5.050-44.287-11.988-65.683-20.867-51.17-21.2-96.873-52.252-135.776-92.349-17.926-18.537-33.881-38.432-47.812-59.411 25.917-7.159 73.424-17.843 145.849-25.473 9.601 37.627 22.061 73.064 37.572 105.002zM312.179 616.438c-80.056 8.575-129.977 20.812-154.951 28.304-30.94-55.498-48.394-117.602-50.615-182.257h188.666c0.86 52.501 6.522 104.698 16.9 153.952zM295.306 433.542h-188.721c2.275-64.878 19.674-126.98 50.503-182.257 24.919 7.437 74.84 19.674 154.951 28.304-10.268 49.116-15.845 101.424-16.732 153.952zM728.694 462.458h188.694c-2.247 64.878-19.701 126.98-50.531 182.257-24.891-7.437-74.84-19.674-154.923-28.304 10.295-49.116 15.872-101.368 16.76-153.952zM676.108 253.811c-42.373 3.636-92.071 6.133-149.652 6.494v-216.027c41.957 7.686 83.303 48.394 115.159 114.355 13.902 28.637 25.446 60.715 34.492 95.18zM667.7 146.005c-19.453-40.209-41.902-71.259-65.904-93.099 22.394 5.050 44.315 12.043 65.683 20.867 51.225 21.2 96.9 52.308 135.831 92.405 17.926 18.48 33.881 38.377 47.757 59.411-25.89 7.104-73.424 17.788-145.794 25.418-9.601-37.627-22.116-73.064-37.572-105.002zM662.901 759.734c17.732-34.297 31.772-73.175 42.318-114.743 72.508 7.63 120.099 18.37 145.989 25.473-16.233 24.558-35.214 47.534-56.886 68.456-54.138 52.418-120.486 88.020-192.44 104.225 21.978-20.035 42.679-47.84 61.021-83.413zM835.223 781.1c-184.255 178.26-478.229 173.654-656.767-10.351-178.455-184.004-173.849-477.647 10.351-655.907 184.2-178.205 478.173-173.543 656.684 10.406 178.51 184.004 173.877 477.647-10.268 655.851zM824.067 146.005c-85.218-87.854-198.573-132.030-312.067-132.085h-0.166c-108.888 0-217.942 40.653-302.326 122.318-172.35 166.773-176.65 441.6-9.656 613.727 85.246 87.909 198.573 132.030 312.123 132.085h0.111c108.888 0 217.97-40.653 302.354-122.318 172.377-166.8 176.707-441.6 9.629-613.727zM728.749 433.542c-0.888-52.529-6.549-104.698-16.9-153.98 80.028-8.575 129.977-20.812 154.923-28.304 30.967 55.498 48.366 117.602 50.643 182.257h-188.666zM637.204 746.47c-18.703 36.268-39.931 63.962-63.13 82.387-15.624 12.404-31.551 20.062-47.589 22.921v-216.082c57.551 0.389 107.306 2.886 149.707 6.494-10.1 38.266-23.116 73.48-38.988 104.282zM699.806 433.542h-173.32v-144.268c60.465-0.389 112.412-3.024 156.477-6.883 10.156 47.228 15.928 98.287 16.843 151.149zM683.018 613.635c-44.093-3.857-96.068-6.494-156.56-6.883v-144.268h173.265c-0.915 52.945-6.577 104.032-16.705 151.149z" />
<glyph unicode="&#xe933;" glyph-name="diamond" d="M1017.289 619.352l-234.301 277.871c-4.153 4.962-10.344 7.807-16.843 7.807h-508.288c-6.498 0-12.652-2.846-16.843-7.807l-234.225-277.871c-5.577-6.536-6.807-15.689-3.152-23.458 0.807-1.807 1.922-3.384 3.152-4.883h-0.077l505.366-600.040 505.136 600.040c1.23 1.501 2.346 3.076 3.193 4.883 3.576 7.767 2.384 16.919-3.114 23.458z" />
<glyph unicode="&#xe934;" glyph-name="exclamation-mark" d="M512.32 158.24c30.72 0 56.8-10.816 78.24-32.512 21.504-21.728 32.256-47.904 32.256-78.624s-10.752-56.928-32.256-78.624c-21.44-21.632-47.488-32.48-78.24-32.48-30.72 0-56.928 10.848-78.624 32.512-21.696 21.696-32.512 47.904-32.512 78.624s10.816 56.896 32.512 78.624c21.696 21.664 47.904 32.48 78.624 32.48zM542.112 208.448h-70.432c-35.232 225.888-52.896 383.776-52.896 473.696v277.856h176.224v-277.184c0-90.368-17.632-248.512-52.896-474.368z" />
<glyph unicode="&#xe935;" glyph-name="idea" d="M602.767 125.003h-181.641c-14.068 0-25.48-11.464-25.48-25.48 0-14.068 11.412-25.48 25.48-25.48h181.641c14.068 0 25.506 11.412 25.506 25.48 0 14.015-11.438 25.48-25.506 25.48zM465.196-23.533c3.445-22.85 22.981-40.467 46.83-40.467 23.822 0 43.385 17.618 46.83 40.467 31.211 1.841 55.98 27.478 55.98 59.109h-205.752c0-31.632 24.848-57.242 56.111-59.109zM512.026 813.068c18.801 0 33.972 15.199 33.972 33.946v79.040c0 18.748-15.171 33.946-33.972 33.946-18.775 0-33.972-15.199-33.972-33.946v-79.040c0-18.748 15.199-33.946 33.972-33.946zM289.079 763.556c6.679-9.202 17.012-14.015 27.556-14.015 6.916 0 13.883 2.103 19.932 6.468 15.171 11.044 18.564 32.263 7.52 47.46l-46.436 63.947c-11.044 15.145-32.263 18.59-47.487 7.546-15.145-11.044-18.537-32.263-7.52-47.46l46.436-63.947zM734.895 265.571c-11.017 15.145-32.237 18.537-47.434 7.494-15.145-11.044-18.537-32.263-7.494-47.46l46.488-63.947c6.626-9.15 16.986-14.015 27.504-14.015 6.916 0 13.883 2.103 19.932 6.468 15.171 11.044 18.564 32.316 7.52 47.46l-46.514 64zM206.357 649.597l-75.176 24.454c-18.012 5.811-36.97-3.944-42.808-21.824-5.811-17.827 3.944-36.97 21.797-42.78l75.176-24.506c3.497-1.078 7.021-1.656 10.492-1.656 14.33 0 27.635 9.15 32.316 23.481 5.811 17.827-3.918 37.022-21.797 42.834zM913.853 419.681l-75.149 24.454c-17.879 5.759-36.996-3.997-42.808-21.824-5.811-17.879 3.97-37.022 21.797-42.834l75.202-24.401c3.471-1.131 6.995-1.682 10.466-1.682 14.33 0 27.635 9.15 32.316 23.534 5.785 17.801-3.97 36.944-21.824 42.754zM185.374 444.134l-75.202-24.401c-17.853-5.811-27.635-24.953-21.824-42.78 4.628-14.382 17.986-23.534 32.316-23.534 3.445 0 7.021 0.552 10.466 1.682l75.202 24.349c17.853 5.811 27.661 24.953 21.824 42.834-5.785 17.827-24.769 27.583-42.78 21.85zM828.187 583.31c3.497 0 7.021 0.552 10.492 1.656l75.149 24.454c17.853 5.811 27.609 24.953 21.824 42.834-5.811 17.827-25.031 27.53-42.78 21.771l-75.202-24.401c-17.827-5.811-27.609-24.953-21.797-42.834 4.707-14.356 17.986-23.481 32.316-23.481zM289.131 265.571l-46.541-63.895c-11.044-15.199-7.677-36.469 7.494-47.513 6.021-4.365 13.016-6.468 19.958-6.468 10.492 0 20.878 4.838 27.504 13.962l46.541 63.947c11.044 15.145 7.677 36.417-7.52 47.46-15.119 11.096-36.469 7.705-47.434-7.494zM726.377 867.391l-46.436-63.947c-11.044-15.199-7.625-36.469 7.52-47.46 6.021-4.365 13.042-6.468 19.932-6.468 10.518 0 20.878 4.838 27.556 14.015l46.436 63.947c11.044 15.199 7.651 36.417-7.52 47.46-15.277 11.096-36.443 7.651-47.487-7.546zM757.377 513.289c0 135.521-109.858 245.377-245.377 245.377-135.547 0-245.429-109.858-245.429-245.377 0-57.164 19.668-109.699 52.509-151.349 28.818-36.523 56.059-76.411 79.697-116.535v-81.512h225.052v79.355c23.401 39.021 53.666 83.957 81.012 118.639 32.867 41.729 52.535 94.212 52.535 151.402z" />
<glyph unicode="&#xe936;" glyph-name="heart" d="M1023.997 620.427c0 157.384-127.577 284.987-284.959 284.987-92.699 0-175.003-44.262-227.053-112.756-52.022 68.494-134.356 112.756-227.026 112.756-157.384 0-284.959-127.605-284.959-284.987 0-78.691 31.908-149.932 83.455-201.506l-0.14-0.14 428.195-428.195 417.102 417.074c58.549 52.218 95.388 128.164 95.388 212.766z" />
<glyph unicode="&#xe937;" glyph-name="balance" d="M949.792 748.64c0-9.862-7.994-17.856-17.856-17.856s-17.856 7.994-17.856 17.856c0 9.862 7.994 17.856 17.856 17.856s17.856-7.994 17.856-17.856zM923.456 743.936c0 0-35.68-108.064-144.672-45.088-108.96 62.944-106.144 72.32-232.992 83.584v-79.84c0 0 79.872 62.016 163.488 7.488 83.584-54.464 178.496-108.032 222.624 27.264l-8.448 6.592zM123.584 748.64c0-9.862-7.994-17.856-17.856-17.856s-17.856 7.994-17.856 17.856c0 9.862 7.994 17.856 17.856 17.856s17.856-7.994 17.856-17.856zM114.176 743.936c0 0 35.68-108.064 144.672-45.088 108.992 62.944 106.176 72.32 232.992 83.584v-79.84c0 0-79.84 62.016-163.456 7.488-83.648-54.464-178.528-108.032-222.656 27.264l8.448 6.592zM830.496 661.248v-360.736l4.704-0.96v361.696zM830.848 664.224l-148.416-364.896 3.968-2.752 148.8 365.888zM837.184 664.224l148.384-364.896-3.936-2.752-148.832 365.888zM642.592 306.144h381.408c0 0 2.816-110.88-188.8-112.736 0 0-162.528-3.776-192.608 112.736zM187.904 661.248v-360.736l4.704-0.96v361.696zM188.224 664.224l-148.352-364.896 3.936-2.752 148.8 365.888zM194.592 664.224l148.384-364.896-3.936-2.752-148.8 365.888zM0 306.144h381.408c0 0 2.816-110.88-188.832-112.736 0.032 0-162.528-3.776-192.576 112.736zM766.592 66.592c0-20.224-16.416-36.64-36.64-36.64h-418.976c-20.224 0-36.64 16.416-36.64 36.64v0c0 20.224 16.416 36.64 36.64 36.64h419.008c20.192 0 36.608-16.416 36.608-36.64v0zM631.328 127.872c0-7.904-6.4-14.304-14.304-14.304h-197.76c-7.936 0-14.336 6.4-14.336 14.304v0c0 7.936 6.432 14.336 14.336 14.336h197.76c7.872 0 14.304-6.4 14.304-14.336v0zM500.736 796.544h35.712v-514.816h-35.712v514.816zM560.832 825.632c0-22.303-18.081-40.384-40.384-40.384s-40.384 18.081-40.384 40.384c0 22.303 18.081 40.384 40.384 40.384s40.384-18.081 40.384-40.384zM568.384 143.84c0-27.488-22.272-15.968-49.792-15.968v0c-27.52 0-49.792-17.184-49.792 10.336v118.112c0 27.488 22.272 49.792 49.792 49.792v0c27.488 0 49.792-22.272 49.792-49.792v-112.48z" />
<glyph unicode="&#xe938;" glyph-name="video" d="M594.8 958.744c-75.399 0-142.251-36.702-183.587-93.175-41.463 56.476-108.231 93.175-183.63 93.175-125.666 0-227.56-101.852-227.56-227.518 0-125.24 101.172-226.837 226.199-227.518v-0.085h368.578c125.666 0 227.56 101.894 227.56 227.602s-101.894 227.518-227.56 227.518zM226.222 630.907c-55.412 0-100.319 44.949-100.319 100.319s44.949 100.319 100.319 100.319 100.319-44.949 100.319-100.319-44.907-100.319-100.319-100.319zM594.8 630.907c-55.412 0-100.277 44.949-100.277 100.319s44.907 100.319 100.277 100.319 100.319-44.949 100.319-100.319-44.907-100.319-100.319-100.319zM1023.978 343.853c0 15.863-12.843 28.748-28.705 28.748-6.548 0-12.504-2.34-17.35-5.995 0 0.085 0 0.085 0 0.085l-124.049-89.136v-113.376l124.178-90.028c0.638-0.426 1.191-0.892 1.829-1.318l0.468-0.341 0.042 0.085c4.381-2.679 9.441-4.338 14.926-4.338 15.479 0 28.025 12.289 28.578 27.641h0.127v246.017h-0.212c0.042 0.68 0.169 1.276 0.169 1.956zM797.948 325.481c0 63.536-48.48 115.714-110.399 121.669v0.511h-9.314c-0.892 0-1.744 0.085-2.636 0.085s-1.744-0.085-2.636-0.085h-545.913c-0.892 0-1.744 0.085-2.636 0.085s-1.744-0.085-2.636-0.085h-4.423v-0.254c-62.81-3.573-112.781-54.391-115.033-117.543h-0.254v-274.764h0.254c2.297-63.109 52.265-113.887 115.033-117.458v-0.341h5.699c0.468 0 0.892-0.085 1.318-0.085s0.892 0.085 1.318 0.085h548.507c0.468 0 0.892-0.085 1.318-0.085s0.892 0.085 1.318 0.085h10.59v0.596c61.918 5.995 110.399 58.133 110.399 121.669h0.384v265.791h-0.426l0.169 0.127z" />
<glyph unicode="&#xe939;" glyph-name="logo-elnashra" d="M982.176 727.232c-111.424 187.936-412.32 215.328-672.256 61.024-259.68-154.144-379.84-431.488-268.224-619.456 111.392-187.936 412.384-215.136 672.192-60.928 259.904 154.208 380.16 431.52 268.288 619.36zM747.424 328.832l56.064-57.44c-268.96-289.952-578.016-190.112-629.824 1.952-27.872 103.072 10.144 224.896 71.52 313.664 52.736 76.48 124.832 126.016 162.592 147.040 45.952 25.6 116.864 48.864 188.8 55.648 119.264 11.136 240.256-23.52 247.2-170.848 11.2-235.392-483.872-253.44-483.872-253.44 32.64-328.256 387.52-36.576 387.52-36.576zM634.592 670.688c-169.44 61.152-272.864-222.592-272.864-222.592s142.496 6.24 222.112 53.504c84 49.888 117.696 144.864 50.752 169.088z" />
<glyph unicode="&#xe93a;" glyph-name="globe-search" d="M885.344 832.832v0c-179.232 173.408-465.184 168.896-638.848-10.080-94.848-97.792-136.384-227.36-125.472-353.12 6.272 29.536 16.512 57.536 29.92 83.68 9.6 90.56 48.032 178.752 116.384 249.216 82.944 85.568 193.184 128.448 303.68 128.544h0.064c105.92 0 212.064-39.52 294.112-118.976 167.68-162.24 171.904-429.568 9.376-597.024-76.384-78.72-176-121.248-277.568-127.52-26.752-12.192-55.296-20.992-85.216-25.984 136.832-17.984 280.128 26.752 383.584 133.344 173.568 178.912 169.12 464.544-10.016 637.92zM556.864 715.2v186.368c-40.896-7.52-81.056-47.104-112.096-111.168-9.216-19.072-17.28-39.776-24.32-61.6 11.424 1.152 23.008 1.76 34.752 1.76 35.424-0.032 69.536-5.408 101.664-15.36zM419.456 802.528v0.032c18.944 39.2 40.704 69.312 64.064 90.56-21.696-4.896-43.040-11.68-63.936-20.32-49.76-20.544-94.24-50.816-132.032-89.824-17.44-18.048-32.96-37.376-46.496-57.792 18.368-5.12 48.032-12 89.984-18.24 18.784 7.328 38.24 13.216 58.464 17.152 8.256 27.808 18.144 54.144 29.952 78.432zM286.56 685.824c-27.584 5.312-47.776 10.464-60.704 14.368-17.44-31.328-30.336-64.8-38.656-99.68 27.296 34.464 60.96 63.488 99.36 85.312zM781.792 522.912h183.488c-2.144 63.072-19.2 123.456-49.152 177.312-24.192-7.264-72.768-19.136-150.656-27.552 9.952-47.808 15.392-98.656 16.32-149.76zM677.888 129.824c15.008 4.192 29.856 8.992 44.352 15.008 49.824 20.608 94.272 50.88 132.16 89.856 17.408 18.016 32.928 37.344 46.464 57.856-21.504 5.92-58.4 14.304-112.352 21.248-16.352-72.928-55.904-136.928-110.624-183.968zM717.76 812.064c17.216-33.376 30.88-71.168 41.12-111.584 70.56 7.392 116.8 17.856 142.016 24.768-15.744 23.84-34.208 46.208-55.328 66.592-52.672 50.912-117.216 85.6-187.232 101.344 21.376-19.456 41.568-46.528 59.328-81.12h0.096zM781.6 490.464c10.016-32.128 15.392-66.272 15.392-101.696 0-16.032-1.504-31.68-3.616-47.168 61.664-7.936 101.472-17.856 122.624-24.224 30.176 54.016 47.072 114.432 49.28 177.344h-183.488c-0.032-1.408-0.16-2.816-0.192-4.256zM730.624 697.696c-9.824 37.216-22.432 71.488-37.92 101.472-18.144 35.264-38.816 62.208-61.408 80.096-15.2 12.096-30.688 19.52-46.272 22.304v-196.736c9.536-3.904 18.784-8.288 27.84-13.056 44.256 0.896 83.648 3.008 117.76 5.92zM752.16 557.568c-2.272 39.136-7.232 76.928-14.816 112.352h-0.064c-24.48-2.144-51.68-3.84-81.216-5.024 39.168-28.512 72-65.056 96.096-107.328zM664.608 185.12c114.272 114.4 114.272 299.648 0 413.888-114.272 114.272-299.552 114.272-413.888 0-105.664-105.696-113.408-272-23.52-386.88l-225.856-225.888c15.936-17.728 32.928-34.464 50.784-50.24l225.568 225.568c114.816-89.856 281.216-82.080 386.912 23.552v0zM294.048 555.712c90.304 90.208 236.768 90.208 327.104 0 90.336-90.4 90.336-236.8 0-327.136-90.304-90.272-236.8-90.272-327.104 0-90.208 90.336-90.176 236.736 0 327.136v0z" />
<glyph unicode="&#xe93b;" glyph-name="interview" d="M571.392 438.144h223.392c0 0 70.496 1.728 72.192-63.584 1.728-65.312-48.128-67.040-44.672-77.344 3.392-10.304 32.64-17.184 20.576-79.072 0 0-12-37.824-48.096-49.888 0 0 53.312-75.584-46.368-120.288 0 0-1.76-118.592-152.96-111.712 0 0-135.808-8.608-330.016 91.136 0 0-110.016 58.4-190.752 34.336v300.768c0 0 109.984-26.56 233.76 85.568 123.712 112.128 209.632 143.072 262.944-9.92zM786.24 486.304h-187.328l19.456 132.32 186.784-36.096zM800.992 572.32c51.264 13.728 95.68 48.192 121.184 96.064-0.416-0.928-365.856 86.112-365.408 88.672 0.736-53.44 23.296-105.056 61.408-140.672 0.96 0.992 182.464-43.040 182.816-44.064zM943.872 714.688c11.456 48.736 5.216 104.704-22.848 150.752-56.768 93.12-178.432 122.432-271.744 65.568-45.568-27.808-76.992-75.392-89.6-123.104 0.096-0.096 381.376-92.96 384.192-93.216v0z" />
<glyph unicode="&#xe93c;" glyph-name="may-murr" d="M17.44 696.128c0 2.848 1.408 4.256 4.256 4.256h8.48c2.848 0 4.224-1.408 4.224-4.256v-31.424c0-11.328 4.832-16.992 14.464-16.992s14.432 5.088 14.432 15.296v33.12c0 2.848 1.44 4.256 4.256 4.256h8.48c2.816 0 4.256-1.408 4.256-4.256v-33.12c0-10.176 4.8-15.296 14.432-15.296s14.464 5.632 14.464 16.992v31.424c0 2.848 1.408 4.256 4.224 4.256h8.512c2.816 0 4.256-1.408 4.256-4.256v-30.144c0-9.952-2.688-18.144-8.064-24.672s-13.184-9.792-23.36-9.792c-10.176 0-18.016 3.136-23.36 9.344-5.376-6.24-13.024-9.344-22.944-9.344-10.208 0-17.92 3.264-23.168 9.792-5.248 6.496-7.872 14.72-7.872 24.672v30.144h0.032zM47.168 528.288c0 2.816 1.408 4.256 4.192 4.256h39.168c2.816 0 4.192-1.408 4.192-4.224v-103.36c0-8.448 3.2-14.944 9.568-19.424 6.368-4.576 14.944-6.816 25.696-6.816h7.232c5.664 0 9.92-1.568 12.736-4.672 2.816-3.2 4.256-8.512 4.256-15.872 0-8.32-1.344-14.048-4.032-17.184-2.72-3.2-7.008-4.736-12.96-4.736-9.664 0-17.952 0.864-24.864 2.56-6.944 1.76-12.832 5.632-17.632 11.616v-8.128c0-15.328-1.28-28.672-3.808-40.192-2.56-11.424-6.656-21.056-12.416-28.672-5.76-7.68-13.408-13.44-22.976-17.248s-21.408-5.76-35.584-5.76h-15.744c-2.848 0-4.224 1.44-4.224 4.256v34.016c0 2.816 1.376 4.256 4.224 4.256h9.344c8.224 0 14.592 1.376 19.104 4.256 4.544 2.816 7.872 7.008 9.984 12.512 2.112 5.568 3.392 12.192 3.84 20 0.416 7.744 0.64 16.736 0.64 26.944l0.064 151.616zM268 353.248c-14.176 0-26.944 1.952-38.304 5.76-11.36 3.872-20.864 10.24-28.512 19.136-2.88-4.576-6.272-8.32-10.304-11.2-4-2.88-8.128-5.056-12.384-6.624-4.256-1.632-8.672-2.688-13.184-3.264s-8.768-0.864-12.736-0.864h-14.848c-5.664 0-9.92 1.632-12.736 4.928s-4.256 8.8-4.256 16.512c0 8.32 1.344 13.952 4.032 16.736 2.688 2.88 7.008 4.32 12.96 4.32h16.576c3.136 0 6.24 0.64 9.344 1.888 3.136 1.248 5.952 3.424 8.512 6.368s4.672 6.88 6.368 11.872c1.728 4.864 2.56 11.072 2.56 18.4-0.288 2.272-0.416 4.384-0.416 6.336 0 2.016 0 4.128 0 6.368 0.288 16.384 2.624 30.272 7.008 41.728 4.416 11.424 10.528 20.736 18.336 27.968 7.776 7.2 16.96 12.416 27.456 15.68s22.016 4.864 34.496 4.864c12.48 0 24.096-1.696 34.944-5.088 10.784-3.392 20.096-8.768 27.872-16.128 7.808-7.392 13.92-17.184 18.304-29.344 4.416-12.192 6.624-26.912 6.624-44.192 0-16.704-2.112-30.88-6.4-42.528-4.224-11.616-10.208-21.056-17.888-28.448-7.648-7.36-16.864-12.736-27.648-16.128-10.816-3.36-22.752-5.056-35.776-5.056zM267.904 497.696c-13.536 0-23.52-4.352-30.016-13.12-6.496-8.736-9.728-21.44-9.728-38.080 0-18.080 3.232-31.008 9.728-38.88 6.464-7.936 16.48-11.872 30.016-11.872 13.792 0 23.968 4 30.432 12.064 6.496 8 9.728 20.928 9.728 38.72 0 34.112-13.408 51.168-40.16 51.168zM692.16 313.76c16.992 0 28.64 2.112 34.848 6.368 6.24 4.256 9.376 9.696 9.376 16.256 0 5.376-1.664 10.016-4.896 13.888-3.264 3.808-8.352 7.552-15.296 11.072-6.976 3.552-15.744 7.328-26.336 11.136-10.624 3.872-23.2 8.448-37.6 13.888-2.56 0.864-3.36 2.56-2.56 5.12l11.456 33.568c0.832 2.88 2.528 3.872 5.088 3.008 9.056-3.36 17.696-6.88 25.92-10.432 8.224-3.488 16.32-6.624 24.256-9.312 7.904-2.688 15.648-4.928 23.296-6.816 7.584-1.824 15.456-2.752 23.616-2.752h42.368c5.664 0 9.92-1.44 12.736-4.32 2.816-2.816 4.256-8 4.256-15.36 0-8.32-1.344-14.176-4.064-17.632-2.688-3.424-7.008-5.184-12.928-5.184h-29.312c1.408-2.24 3.040-5.888 4.832-10.816s2.72-10.24 2.72-15.936c0-7.872-1.568-15.36-4.672-22.496-3.104-7.072-7.968-13.312-14.624-18.688-6.624-5.376-15.296-9.696-25.92-12.928-10.592-3.264-23.488-4.864-38.784-4.864h-96.736c-36.736 0-64.16 8.448-82.080 25.44-17.984 16.992-26.944 40.128-26.944 69.248 0 7.936 0.736 15.936 2.336 24.064 1.568 8.064 3.584 15.808 6.144 23.328s5.472 14.624 8.704 21.28c3.264 6.656 6.72 12.544 10.4 17.632 1.44 2.272 3.392 2.56 5.952 0.832l33.6-17.376c2.24-1.472 2.688-3.296 1.28-5.536-4.832-7.936-9.28-17.12-13.376-27.616-4.128-10.496-6.176-21.248-6.176-32.32 0-10.752 1.888-19.68 5.728-26.752s8.832-12.736 15.104-16.992 13.312-7.328 21.248-9.12c7.936-1.888 15.968-2.816 24.224-2.816l82.848-0.064zM596.992 195.616c-2.848 0-4.256 1.44-4.256 4.256v36.928c0 2.816 1.408 4.256 4.256 4.256h35.68c2.816 0 4.256-1.44 4.256-4.256v-36.928c0-2.816-1.44-4.256-4.256-4.256h-35.68zM652.224 195.616c-2.816 0-4.256 1.44-4.256 4.256v36.928c0 2.816 1.44 4.256 4.256 4.256h35.712c2.816 0 4.224-1.44 4.224-4.256v-36.928c0-2.816-1.408-4.256-4.224-4.256h-35.712zM936.352 353.248c-14.176 0-26.944 1.952-38.272 5.76-11.36 3.872-20.864 10.24-28.544 19.136-2.88-4.576-6.272-8.32-10.272-11.2-4.032-2.88-8.16-5.056-12.416-6.624-4.256-1.632-8.672-2.688-13.184-3.264s-8.768-0.864-12.704-0.864h-14.88c-5.696 0-9.952 1.632-12.768 4.928-2.816 3.328-4.256 8.8-4.256 16.512 0 8.32 1.344 13.952 4.064 16.736 2.688 2.88 7.008 4.32 12.96 4.32h16.576c3.136 0 6.24 0.64 9.312 1.888 3.168 1.248 5.984 3.424 8.544 6.368s4.672 6.88 6.336 11.872c1.728 4.864 2.56 11.072 2.56 18.4-0.288 2.272-0.416 4.384-0.416 6.336 0 2.016 0 4.128 0 6.368 0.288 16.384 2.592 30.272 7.008 41.728s10.528 20.736 18.304 27.968c7.808 7.2 16.96 12.416 27.488 15.68 10.496 3.264 22.016 4.864 34.496 4.864s24.096-1.696 34.912-5.088 20.096-8.768 27.904-16.128c7.776-7.392 13.92-17.184 18.304-29.344 4.416-12.224 6.592-26.944 6.592-44.224 0-16.704-2.112-30.88-6.368-42.528s-10.208-21.056-17.888-28.448-16.864-12.736-27.648-16.128-22.688-5.024-35.744-5.024zM936.288 497.696c-13.568 0-23.52-4.352-30.016-13.12-6.464-8.736-9.728-21.44-9.728-38.080 0-18.080 3.264-31.008 9.728-38.88 6.496-7.936 16.512-11.872 30.016-11.872 13.792 0 23.968 4 30.432 12.064 6.464 8 9.696 20.928 9.696 38.72 0 34.112-13.376 51.168-40.128 51.168z" />
<glyph unicode="&#xe93d;" glyph-name="question-mark-signal" d="M851.2 563.2l-102.4-118.4c-22.4 28.8-44.8 41.6-64 41.6-22.4 0-35.2-9.6-35.2-32 0-16 16-35.2 41.6-48 32-19.2 51.2-32 57.6-38.4 6.4-9.6 9.6-25.6 9.6-48v-32l-150.4-166.4-3.2 92.8c0 32-3.2 51.2-9.6 57.6-6.4 9.6-19.2 22.4-44.8 38.4s-44.8 32-54.4 48c-16 22.4-25.6 54.4-28.8 92.8 0 54.4 19.2 102.4 60.8 140.8 38.4 35.2 86.4 51.2 140.8 51.2 70.4 3.2 128-22.4 182.4-80zM425.6 518.4c-3.2-16-16-28.8-32-25.6-16 0-28.8 16-25.6 32 3.2 38.4 16 73.6 35.2 105.6s44.8 60.8 76.8 83.2c32 22.4 67.2 38.4 102.4 44.8 38.4 9.6 76.8 9.6 112 0 16-3.2 25.6-19.2 22.4-35.2s-19.2-25.6-35.2-22.4c-28.8 6.4-57.6 6.4-86.4 0s-54.4-19.2-80-35.2c-25.6-19.2-44.8-41.6-57.6-64-19.2-28.8-28.8-54.4-32-83.2zM329.6 531.2c6.4 41.6 19.2 83.2 41.6 118.4s51.2 67.2 86.4 92.8c35.2 25.6 73.6 44.8 115.2 51.2 41.6 9.6 83.2 9.6 124.8 3.2 16-3.2 32 6.4 35.2 22.4s-6.4 32-22.4 35.2c-48 9.6-99.2 9.6-150.4-3.2-48-9.6-96-32-137.6-60.8-41.6-32-76.8-70.4-102.4-112-25.6-44.8-41.6-92.8-48-140.8-3.2-16 9.6-32 25.6-32 16-3.2 28.8 9.6 32 25.6zM233.6 544c6.4 54.4 25.6 108.8 54.4 153.6s64 86.4 112 121.6c48 35.2 99.2 57.6 150.4 67.2 54.4 12.8 112 12.8 163.2 3.2 16-3.2 32 6.4 35.2 25.6 3.2 16-6.4 32-22.4 35.2-60.8 9.6-124.8 9.6-188.8-3.2-60.8-12.8-118.4-38.4-172.8-76.8s-96-86.4-128-140.8c-32-54.4-54.4-115.2-64-179.2-3.2-16 9.6-32 25.6-32 19.2 0 32 9.6 35.2 25.6zM709.139-64.596l-97.297 97.297 97.297 97.297 97.297-97.297-97.297-97.297z" />
<glyph unicode="&#xe93e;" glyph-name="encircled-globe" d="M819.2 435.2c0-41.6-9.6-83.2-28.8-121.6 6.4-3.2 16-3.2 22.4-6.4 22.4 51.2 32 102.4 28.8 156.8-16-9.6-32-19.2-51.2-28.8h28.8zM729.6 224c-32-32-67.2-57.6-108.8-73.6-16-6.4-35.2-12.8-51.2-16 19.2 16 38.4 41.6 51.2 73.6 6.4 12.8 12.8 28.8 19.2 44.8-6.4 3.2-16 6.4-22.4 6.4-6.4-16-9.6-28.8-16-41.6-25.6-51.2-57.6-83.2-92.8-89.6v172.8c0 0 3.2 0 3.2 0s-3.2 0-3.2 0c-9.6-3.2-16-6.4-25.6-9.6v-163.2c-12.8 3.2-25.6 9.6-38.4 19.2-19.2 16-35.2 35.2-51.2 64-6.4 12.8-12.8 25.6-16 38.4-6.4-3.2-16-6.4-22.4-6.4 6.4-16 12.8-28.8 19.2-41.6 16-28.8 32-51.2 48-67.2-57.6 12.8-108.8 41.6-150.4 80-9.6-3.2-16-6.4-25.6-6.4 3.2-3.2 6.4-6.4 6.4-6.4 67.2-64 153.6-96 240-96v0 0 0c89.6 0 179.2 35.2 249.6 105.6 3.2 3.2 6.4 6.4 9.6 9.6-3.2 0-12.8 3.2-22.4 3.2 0 0 0 0 0 0zM355.2 348.8c0 6.4-3.2 9.6-3.2 16-9.6 3.2-16 6.4-25.6 12.8 0-12.8 3.2-25.6 3.2-35.2 12.8 3.2 19.2 6.4 25.6 6.4zM208 304c-19.2 41.6-32 86.4-35.2 131.2h38.4c-22.4 12.8-41.6 22.4-60.8 35.2-3.2-60.8 6.4-118.4 32-172.8 6.4 0 12.8 3.2 16 3.2 6.4 3.2 9.6 3.2 9.6 3.2zM198.4 566.4c6.4 12.8 9.6 25.6 19.2 38.4 19.2-6.4 60.8-16 121.6-22.4-6.4-28.8-9.6-57.6-12.8-86.4 6.4-3.2 16-6.4 22.4-9.6 3.2 32 6.4 67.2 12.8 96 35.2-3.2 76.8-6.4 124.8-6.4v-115.2h-86.4c16-6.4 35.2-16 51.2-22.4h35.2v-16c3.2 0 6.4-3.2 9.6-3.2 3.2-3.2 9.6-3.2 12.8-6.4v25.6h54.4c16 6.4 32 16 48 22.4h-102.4v115.2c48 0 89.6 3.2 124.8 6.4 6.4-32 12.8-67.2 12.8-102.4 6.4 3.2 16 6.4 22.4 12.8-3.2 32-6.4 64-12.8 92.8 64 6.4 102.4 16 121.6 22.4 6.4-12.8 12.8-28.8 19.2-41.6 6.4 3.2 12.8 9.6 19.2 12.8-16 44.8-44.8 86.4-80 121.6-67.2 64-153.6 96-240 96v0 0 0c-89.6 0-179.2-35.2-249.6-105.6-32-32-54.4-70.4-70.4-108.8 3.2-3.2 9.6-6.4 16-9.6 3.2-3.2 3.2-6.4 6.4-6.4zM723.2 678.4c16-16 32-35.2 44.8-54.4-19.2-6.4-57.6-12.8-115.2-19.2-9.6 32-19.2 64-35.2 89.6-16 28.8-32 51.2-48 67.2 57.6-12.8 108.8-41.6 153.6-83.2zM508.8 768c12.8-3.2 25.6-9.6 38.4-19.2 19.2-16 35.2-35.2 51.2-64 12.8-25.6 22.4-51.2 32-83.2-35.2-3.2-73.6-6.4-118.4-6.4l-3.2 172.8zM486.4 768v-172.8c-44.8 0-86.4 3.2-118.4 6.4 6.4 28.8 16 54.4 28.8 76.8 22.4 51.2 57.6 83.2 89.6 89.6zM265.6 672c32 32 67.2 57.6 108.8 73.6 16 6.4 35.2 12.8 51.2 16-19.2-16-38.4-41.6-51.2-73.6-12.8-25.6-22.4-54.4-28.8-83.2-57.6 6.4-96 16-115.2 19.2 9.6 16 22.4 32 35.2 48zM646.4 361.6c6.4-3.2 12.8-3.2 19.2-6.4 0 6.4 0 9.6 3.2 16-9.6-3.2-16-6.4-22.4-9.6zM83.2 201.6c32 0 70.4 6.4 121.6 19.2 80 19.2 176 51.2 278.4 92.8-6.4 3.2-16 6.4-22.4 9.6-16 6.4-35.2 16-51.2 22.4-70.4-25.6-137.6-48-195.2-64-67.2-16-105.6-22.4-128-22.4-12.8 0-19.2 0-22.4 3.2 6.4 9.6 32 38.4 86.4 80-9.6 19.2-12.8 38.4-16 60.8-99.2-67.2-147.2-124.8-128-166.4 6.4-25.6 32-35.2 76.8-35.2zM540.8 400c25.6-9.6 51.2-19.2 76.8-28.8 105.6 48 198.4 102.4 268.8 150.4 102.4 70.4 140.8 118.4 121.6 160-9.6 22.4-35.2 35.2-76.8 35.2-32 0-80-9.6-131.2-22.4-6.4-3.2-16-3.2-22.4-6.4 9.6-9.6 28.8-48 32-51.2 57.6 12.8 102.4 19.2 121.6 19.2 9.6 0 19.2 0 22.4-3.2-6.4-12.8-28.8-41.6-115.2-99.2-80-48-185.6-102.4-297.6-153.6zM896 406.4c-3.2 3.2-19.2 12.8-25.6 16-3.2-19.2-9.6-38.4-16-57.6 70.4-48 105.6-83.2 112-92.8-3.2 0-12.8-3.2-28.8-3.2-22.4 0-60.8 3.2-124.8 19.2-92.8 22.4-208 60.8-326.4 108.8s-227.2 102.4-307.2 153.6c-86.4 54.4-112 83.2-118.4 96 6.4 0 12.8 3.2 28.8 3.2 19.2 0 57.6-3.2 99.2-12.8 3.2 3.2 19.2 41.6 32 51.2 0 0-16 0-16 0-48 9.6-86.4 16-115.2 16-48 0-73.6-12.8-83.2-38.4-16-41.6 22.4-89.6 124.8-156.8 86.4-54.4 204.8-115.2 332.8-169.6 131.2-54.4 256-96 355.2-115.2 48-9.6 86.4-16 115.2-16 48 0 73.6 12.8 83.2 38.4 19.2 41.6-19.2 89.6-121.6 160z" />
<glyph unicode="&#xe93f;" glyph-name="chart" d="M0 582.4c0 6.4 3.2 9.6 6.4 12.8s9.6 6.4 16 6.4h326.4c3.2 0 9.6-3.2 16-6.4s6.4-9.6 6.4-16v-473.6c0-12.8-6.4-19.2-22.4-19.2h-326.4c-12.8 0-19.2 6.4-19.2 19.2v476.8zM656 438.4c0 6.4 3.2 9.6 6.4 12.8s9.6 6.4 16 6.4h326.4c3.2 0 9.6-3.2 16-6.4s6.4-9.6 6.4-16v-329.6c0-12.8-6.4-19.2-22.4-19.2h-326.4c-12.8 0-19.2 6.4-19.2 19.2l-3.2 332.8zM323.2 787.2c0 6.4 3.2 9.6 6.4 12.8s9.6 6.4 16 6.4h326.4c3.2 0 9.6-3.2 16-6.4s6.4-9.6 6.4-16v-678.4c0-12.8-6.4-19.2-22.4-19.2h-326.4c-12.8 0-19.2 6.4-19.2 19.2-3.2 3.2-3.2 681.6-3.2 681.6z" />
<glyph unicode="&#xe940;" glyph-name="trophy" d="M444.8 109.867c-16 0-28.8-12.8-28.8-25.6 0-3.2 0-6.4 0-9.6h182.4c3.2 3.2 3.2 6.4 3.2 9.6 0 12.8-12.8 25.6-28.8 25.6h-12.8v147.2h12.8c16 0 28.8 12.8 28.8 25.6 0 6.4-3.2 12.8-9.6 16-6.4-3.2-16-3.2-22.4-3.2v35.2c86.4 19.2 153.6 92.8 166.4 182.4 35.2 3.2 60.8 16 86.4 41.6 83.2 86.4 83.2 275.2 83.2 284.8 0 16-12.8 25.6-28.8 25.6h-140.8v57.6c0 9.6-6.4 16-16 16h-419.2c-6.4 0-16-6.4-16-16v-57.6h-137.6c-16 0-28.8-12.8-28.8-25.6 0-9.6-3.2-198.4 83.2-284.8 25.6-25.6 54.4-38.4 86.4-41.6 12.8-86.4 80-160 169.6-182.4v-38.4h-3.2c-9.6 3.2-19.2 3.2-28.8 6.4-6.4-3.2-6.4-12.8-6.4-16 0-16 9.6-25.6 28.8-25.6h9.6v-147.2h-12.8zM704-78.933v92.8c0 6.4-3.2 9.6-9.6 9.6h-28.8c-6.4 0-12.8 3.2-12.8 9.6v16c0 6.4-3.2 9.6-9.6 9.6h-275.2c-6.4 0-9.6-3.2-9.6-9.6v-16c0-6.4-6.4-9.6-12.8-9.6h-25.6c-6.4 0-9.6-3.2-9.6-9.6v-92.8c0-3.2 3.2-6.4 9.6-6.4h371.2c6.4 0 12.8 3.2 12.8 6.4v0zM172.8 785.067h112v-243.2c-19.2 3.2-35.2 9.6-48 25.6-48 44.8-60.8 153.6-64 217.6v0zM841.6 785.067c-3.2-60.8-16-169.6-64-217.6-16-16-28.8-22.4-48-25.6v243.2h112z" />
<glyph unicode="&#xe941;" glyph-name="calendar" d="M374.4 346.667h230.4v-41.6h-230.4v41.6zM944 865.067h-128v-108.8c0-32-25.6-57.6-57.6-57.6s-57.6 25.6-57.6 57.6v108.8h-384v-108.8c0-32-25.6-57.6-57.6-57.6s-57.6 25.6-57.6 57.6v108.8h-121.6c-44.8 0-80-35.2-80-80v-780.8c0-44.8 35.2-80 80-80h864c44.8 0 80 35.2 80 80v780.8c0 44.8-35.2 80-80 80zM934.4 103.467c0-44.8-35.2-80-80-80h-688c-44.8 0-80 35.2-80 80v400h848v-400zM259.2 717.867v0c-22.4 0-41.6 19.2-41.6 41.6v128c0 22.4 19.2 41.6 41.6 41.6v0c22.4 0 41.6-19.2 41.6-41.6v-128c0-22.4-19.2-41.6-41.6-41.6zM761.6 717.867v0c-22.4 0-41.6 19.2-41.6 41.6v128c0 22.4 19.2 41.6 41.6 41.6v0c22.4 0 41.6-19.2 41.6-41.6v-128c-3.2-22.4-22.4-41.6-41.6-41.6zM566.4 407.467l124.8-80-124.8-80z" />
<glyph unicode="&#xe942;" glyph-name="broadcast" d="M624 426.667c0-61.856-50.144-112-112-112s-112 50.144-112 112c0 61.856 50.144 112 112 112s112-50.144 112-112zM816 426.667c0-112-60.8-211.2-153.6-262.4l41.6-41.6c102.4 64 169.6 176 169.6 304s-67.2 236.8-166.4 300.8l-41.6-41.6c89.6-51.2 150.4-147.2 150.4-259.2zM326.4 122.667l41.6 41.6c-89.6 51.2-153.6 150.4-153.6 262.4s60.8 208 150.4 259.2l-41.6 41.6c-99.2-64-166.4-176-166.4-300.8 3.2-128 70.4-240 169.6-304zM940.8 426.667c0-160-89.6-300.8-220.8-374.4l60.8-60.8c144 89.6 240 252.8 240 435.2s-96 342.4-240 432l-60.8-60.8c134.4-70.4 220.8-211.2 220.8-371.2zM240-8.533l60.8 60.8c-131.2 73.6-220.8 214.4-220.8 374.4s86.4 297.6 217.6 374.4l-60.8 60.8c-140.8-92.8-236.8-252.8-236.8-435.2s96-342.4 240-435.2z" />
<glyph unicode="&#xe943;" glyph-name="clock" d="M848 817.067c-76.8 67.2-176 112-284.8 121.6v-67.2c89.6-9.6 172.8-48 236.8-102.4l48 48zM460.8 871.467v67.2c-105.6-9.6-201.6-54.4-278.4-118.4l48-48c64 54.4 144 89.6 230.4 99.2zM1024 481.067c-9.6 96-48 185.6-102.4 259.2l-48-48c44.8-60.8 73.6-134.4 83.2-211.2h67.2zM956.8 375.467c-25.6-224-214.4-393.6-444.8-393.6-246.4 0-448 201.6-448 448 0 102.4 35.2 195.2 89.6 268.8l-48 48c-67.2-86.4-108.8-198.4-108.8-316.8 0-284.8 230.4-512 512-512 265.6 0 483.2 201.6 512 460.8h-64zM851.2 346.667v64h-336l-236.8 236.8-44.8-44.8 256-256z" />
<glyph unicode="&#xe944;" glyph-name="ramadan" d="M646.4 803.2c22.4-3.2 44.8-9.6 57.6-22.4 19.2-16 32-35.2 32-60.8v-550.4c0-22.4-12.8-44.8-32-60.8-16-12.8-35.2-19.2-57.6-22.4-3.2-19.2-12.8-38.4-22.4-57.6-12.8-19.2-32-35.2-54.4-44.8l-48-48c-6.4-6.4-16-6.4-22.4 0 0 0 0 0 0 0l-44.8 48c-22.4 9.6-38.4 25.6-54.4 44.8-12.8 16-19.2 35.2-22.4 57.6-22.4 3.2-44.8 9.6-57.6 22.4-19.2 16-32 35.2-32 60.8v550.4c0 22.4 12.8 44.8 32 60.8 16 12.8 35.2 19.2 57.6 22.4 3.2 19.2 12.8 38.4 22.4 57.6 12.8 19.2 32 35.2 54.4 44.8l48 48c6.4 6.4 16 6.4 22.4 0 0 0 0 0 0 0l44.8-48c22.4-9.6 38.4-25.6 54.4-44.8 9.6-16 19.2-35.2 22.4-57.6zM684.8 755.2c-12.8 9.6-32 16-54.4 16-9.6 0-16 6.4-16 16v0c-3.2 19.2-9.6 38.4-19.2 54.4s-25.6 28.8-41.6 35.2c-3.2 0-3.2 3.2-6.4 3.2v0l-38.4 38.4-35.2-38.4c0-3.2-3.2-3.2-6.4-3.2v0c-16-6.4-32-19.2-44.8-35.2-9.6-16-19.2-32-19.2-54.4 0-9.6-6.4-16-16-16v0c-22.4 0-41.6-6.4-54.4-16s-19.2-22.4-19.2-35.2v-550.4c0-12.8 6.4-25.6 19.2-35.2s32-16 54.4-16c9.6 0 16-6.4 16-16v0c3.2-19.2 9.6-38.4 19.2-54.4s25.6-28.8 41.6-35.2c3.2 0 3.2-3.2 6.4-3.2v0l38.4-38.4 35.2 38.4c0 3.2 3.2 3.2 6.4 3.2v0c16 6.4 32 19.2 44.8 35.2 9.6 16 19.2 32 19.2 54.4 0 9.6 6.4 16 16 16v0c22.4 0 41.6 6.4 54.4 16s19.2 22.4 19.2 35.2v550.4c3.2 16-6.4 25.6-19.2 35.2v0zM256 732.8c-6.4 0-12.8-6.4-12.8-16s6.4-16 12.8-16h508.8c6.4 0 12.8 6.4 12.8 16s-6.4 16-12.8 16h-508.8zM256 192c-6.4 0-12.8-6.4-12.8-16s6.4-16 12.8-16h508.8c6.4 0 12.8 6.4 12.8 16s-6.4 16-12.8 16h-508.8zM512 640c16 0 25.6-19.2 35.2-35.2 3.2-6.4 6.4-12.8 6.4-12.8 9.6-6.4 19.2-16 25.6-25.6s12.8-19.2 16-28.8l12.8-9.6c3.2-3.2 6.4-6.4 6.4-12.8v0-336c0-9.6-6.4-16-16-16h-172.8c-9.6 0-16 6.4-16 16v336c0 6.4 3.2 9.6 6.4 12.8l12.8 9.6c3.2 12.8 9.6 22.4 16 32s16 19.2 25.6 25.6c0 0 3.2 6.4 6.4 12.8 9.6 12.8 19.2 32 35.2 32v0zM518.4 588.8c-3.2 9.6-3.2 16-6.4 16s0-9.6-3.2-16c-6.4-12.8-9.6-22.4-19.2-28.8-6.4-3.2-12.8-9.6-19.2-16s-9.6-16-12.8-25.6c0-3.2-3.2-6.4-6.4-6.4v0l-9.6-9.6v-313.6h140.8v313.6l-9.6 6.4c-3.2 3.2-3.2 3.2-6.4 6.4v0c-3.2 9.6-6.4 16-12.8 25.6-6.4 6.4-9.6 12.8-16 16-9.6 12.8-16 22.4-19.2 32v0z" />
<glyph unicode="&#xe945;" glyph-name="filmstrip" d="M924.8-9.6h-828.8c-54.4 0-99.2 44.8-99.2 99.2v118.4h89.6c12.8 3.2 22.4 16 22.4 28.8v428.8c0 12.8-9.6 25.6-22.4 28.8h-86.4v118.4c0 54.4 44.8 99.2 99.2 99.2h828.8c54.4 0 99.2-44.8 99.2-99.2v-118.4h-89.6c-12.8-3.2-22.4-16-22.4-28.8v-428.8c0-12.8 9.6-25.6 22.4-28.8h89.6v-118.4c-3.2-54.4-48-99.2-102.4-99.2zM646.4 48h105.6v105.6h-105.6v-105.6zM457.6 48h105.6v105.6h-105.6v-105.6zM268.8 48h105.6v105.6h-105.6v-105.6zM80 153.6v-105.6h105.6v105.6h-105.6zM192 848h-105.6v-105.6h105.6v105.6zM377.6 848h-105.6v-105.6h105.6v105.6zM566.4 848h-105.6v-105.6h105.6v105.6zM755.2 848h-105.6v-105.6h105.6v105.6zM803.2 675.2h-582.4v-457.6h582.4v457.6zM944 742.4v105.6h-105.6v-105.6h105.6zM940.8 153.6h-108.8v-105.6h105.6v105.6zM489.6 409.6c0 0 0 0 0 0 0-51.2 0-102.4 0-112v0c0 0 0 0 0-3.2 0-6.4-6.4-12.8-12.8-12.8-3.2 0-6.4 3.2-9.6 3.2v0 0c0 0 0 0 0 0l-80 92.8h-60.8c0 0 0 0-3.2 0-6.4 0-12.8 6.4-12.8 12.8v112c0 6.4 6.4 12.8 12.8 12.8v0 0h64l80 89.6c0 0 0 0 0 0v0c3.2 3.2 6.4 3.2 9.6 3.2 6.4 0 12.8-6.4 12.8-12.8v-92.8c0 0 0-9.6 0-22.4 0 0 0 0 0 0v-70.4zM528 486.4l19.2 19.2c16-16 25.6-35.2 25.6-57.6s-9.6-44.8-25.6-57.6l-19.2 19.2c9.6 9.6 16 25.6 16 41.6-3.2 12.8-6.4 25.6-16 35.2v0zM576 537.6l19.2 19.2c28.8-28.8 48-67.2 48-108.8s-16-80-44.8-108.8l-19.2 19.2c22.4 22.4 38.4 54.4 38.4 89.6-3.2 35.2-19.2 67.2-41.6 89.6v0zM624 585.6l22.4 22.4c38.4-41.6 64-96 64-156.8s-25.6-118.4-67.2-160l-19.2 19.2c35.2 35.2 57.6 83.2 57.6 137.6 0 51.2-22.4 102.4-57.6 137.6v0z" />
<glyph unicode="&#xe946;" glyph-name="document-elnashra" d="M640 435.2c0 51.2-41.6 60.8-80 57.6-22.4-3.2-48-9.6-60.8-19.2-12.8-6.4-38.4-22.4-54.4-48-19.2-28.8-32-70.4-22.4-102.4 16-60.8 118.4-96 201.6 0l-19.2 19.2c0 0-118.4-96-124.8 9.6 3.2 0 163.2 6.4 160 83.2zM553.6 396.8c-28.8-16-73.6-16-73.6-16s32 92.8 89.6 73.6c22.4-6.4 12.8-38.4-16-57.6zM1020.8 768c-3.2 3.2-6.4 3.2-9.6 3.2h-422.4c-3.2 0-6.4 0-9.6-3.2l-57.6-54.4h-73.6l-124.8 115.2c-3.2 3.2-6.4 3.2-9.6 3.2h-188.8c-3.2 0-6.4 0-9.6-3.2l-112-118.4c-3.2-3.2-3.2-6.4-3.2-9.6l28.8-624c0-6.4 6.4-12.8 12.8-12.8h848c3.2 0 6.4 0 9.6 3.2v0c6.4 0 12.8 3.2 12.8 12.8l112 672c0 9.6 0 12.8-3.2 16zM150.4 630.4l-99.2-496-16 432c0 6.4 6.4 12.8 12.8 12.8h25.6v73.6c0 6.4 6.4 12.8 12.8 12.8h22.4l6.4 44.8c3.2 9.6 9.6 12.8 16 12.8l364.8-44.8-38.4-35.2h-294.4c-9.6 0-12.8-3.2-12.8-12.8zM598.4 275.2c-86.4-51.2-182.4-41.6-217.6 19.2-38.4 60.8 0 147.2 86.4 198.4s182.4 41.6 217.6-19.2c32-60.8-3.2-150.4-86.4-198.4z" />
<glyph unicode="&#xe947;" glyph-name="search" d="M14.327 80.146l245.169 253.279c17.581 18.171 39.554 25.446 49.073 16.156 9.553-9.224 31.541-1.967 49.121 16.204l3.507 3.636c-109.729 144.318-99.080 350.949 32.688 482.717 143.812 143.812 376.986 143.812 520.78 0 143.812-143.812 143.812-376.953 0-520.765-134.013-134.031-345.527-143.008-490.14-27.248l-1.539-1.606c-17.548-18.171-24.085-40.373-14.502-49.612 9.537-9.242 3.049-31.459-14.55-49.597l-245.037-253.378c-17.581-18.123-46.549-18.662-64.738-1.066l-68.769 66.539c-18.12 17.554-18.611 46.503-1.063 64.741zM474.81 412.304c98.965-98.981 260.012-98.981 358.962-0.033 98.965 98.965 98.95 260.030 0 358.977-98.95 98.965-259.997 98.95-358.929-0.015-98.981-98.95-98.981-259.982-0.033-358.929z" />
<glyph unicode="&#xe948;" glyph-name="checkbox-checked" d="M896 960h-768c-70.4 0-128-57.6-128-128v-768c0-70.4 57.6-128 128-128h768c70.4 0 128 57.6 128 128v768c0 70.4-57.6 128-128 128zM448 165.49l-237.254 237.256 90.51 90.508 146.744-146.744 306.746 306.746 90.508-90.51-397.254-397.256z" />
<glyph unicode="&#xe949;" glyph-name="minus" d="M0 544v-192c0-17.672 14.328-32 32-32h960c17.672 0 32 14.328 32 32v192c0 17.672-14.328 32-32 32h-960c-17.672 0-32-14.328-32-32z" />
<glyph unicode="&#xe94a;" glyph-name="bell-disabled" d="M512-16c57.6 0 108.8 35.2 131.2 83.2h-265.6c25.6-48 76.8-83.2 134.4-83.2zM905.6 278.4l-64 64v169.6c0 160-115.2 294.4-265.6 323.2v38.4c0 35.2-28.8 64-64 64s-64-28.8-64-64v-41.6c-44.8-9.6-86.4-25.6-124.8-51.2l579.2-579.2v76.8zM182.4 508.8v-169.6l-64-64v-83.2h-64v-64h652.8l-499.2 505.6c-16-38.4-25.6-80-25.6-124.8zM14.195 913.36l45.254 45.254 952.605-952.605-45.254-45.254-952.605 952.605z" />
<glyph unicode="&#xe94b;" glyph-name="bell" d="M512-16c57.6 0 108.8 35.2 131.2 83.2h-265.6c25.6-48 76.8-83.2 134.4-83.2zM905.6 192v83.2l-64 64v169.6c0 160-115.2 294.4-268.8 323.2v41.6c0 35.2-28.8 64-64 64s-64-28.8-64-64v-41.6c-147.2-28.8-262.4-163.2-262.4-323.2v-169.6l-64-64v-83.2h-64v-64h912v64h-60.8z" />
<glyph unicode="&#xe94c;" glyph-name="player-close" d="M988.8 134.4l-310.4 313.6 313.6 313.6c25.6 25.6 25.6 64 0 89.6l-76.8 76.8c-25.6 25.6-64 25.6-89.6 0l-313.6-313.6-313.6 310.4c-25.6 25.6-64 25.6-89.6 0l-73.6-73.6c-25.6-25.6-25.6-64 0-89.6l313.6-313.6-313.6-313.6c-25.6-25.6-25.6-64 0-89.6l76.8-76.8c25.6-25.6 64-25.6 89.6 0l313.6 313.6 313.6-313.6c25.6-25.6 64-25.6 89.6 0l76.8 76.8c19.2 25.6 19.2 67.2-6.4 89.6z" />
<glyph unicode="&#xe94d;" glyph-name="player-pause" d="M323.2 950.4h-64c-35.2 0-64-28.8-64-64v-883.2c0-35.2 28.8-64 64-64h64c35.2 0 64 28.8 64 64v886.4c0 35.2-28.8 60.8-64 60.8zM748.8 950.4h-64c-35.2 0-64-28.8-64-64v-883.2c0-35.2 28.8-64 64-64h64c35.2 0 64 28.8 64 64v886.4c0 35.2-28.8 60.8-64 60.8z" />
<glyph unicode="&#xe94e;" glyph-name="player-play" d="M860.8 464l-604.8 483.2c-6.4 3.2-19.2 6.4-28.8 3.2 0 0-3.2 0-3.2-3.2-6.4-3.2-12.8-9.6-12.8-16v-963.2c0-6.4 3.2-16 9.6-19.2 0 0 3.2 0 3.2-3.2 9.6-3.2 19.2 0 28.8 3.2l604.8 483.2c12.8 6.4 12.8 25.6 3.2 32z" />
<glyph unicode="&#xe94f;" glyph-name="volume-mute" d="M486.4 800c-16 6.4-35.2 6.4-48-6.4l-252.8-211.2h-137.6c-25.6 0-44.8-22.4-44.8-48v-185.6c0-25.6 19.2-48 44.8-48h134.4l252.8-211.2c9.6-6.4 19.2-9.6 28.8-9.6 6.4 0 12.8 0 19.2 3.2 16 6.4 25.6 25.6 25.6 41.6v630.4c3.2 19.2-6.4 35.2-22.4 44.8zM828.8 441.6l57.6 57.6c19.2 19.2 19.2 54.4 0 76.8v0c-19.2 19.2-54.4 19.2-76.8 0l-57.6-57.6-57.6 57.6c-19.2 19.2-54.4 19.2-76.8 0v0c-19.2-19.2-19.2-54.4 0-76.8l57.6-57.6-54.4-57.6c-19.2-19.2-19.2-54.4 0-76.8 19.2-19.2 54.4-19.2 76.8 0l57.6 57.6 57.6-57.6c19.2-19.2 54.4-19.2 76.8 0s19.2 54.4 0 76.8l-60.8 57.6z" />
<glyph unicode="&#xe950;" glyph-name="volume" d="M512 128c0-19.2-9.6-35.2-25.6-41.6-6.4-3.2-12.8-3.2-19.2-3.2-9.6 0-22.4 3.2-28.8 9.6l-252.8 211.2h-137.6c-25.6 0-44.8 22.4-44.8 48v185.6c0 25.6 19.2 48 44.8 48h134.4l252.8 211.2c12.8 12.8 32 12.8 48 6.4 19.2-12.8 28.8-28.8 28.8-48v-627.2zM691.2 201.6c0 0-3.2 0-3.2 0-12.8 0-22.4 6.4-32 12.8l-6.4 6.4c-16 16-19.2 41.6-3.2 60.8 35.2 48 54.4 102.4 54.4 160 0 64-19.2 121.6-60.8 169.6-16 19.2-12.8 44.8 3.2 60.8l6.4 6.4c9.6 9.6 22.4 12.8 35.2 12.8s25.6-6.4 32-16c54.4-67.2 83.2-147.2 83.2-236.8 0-80-25.6-156.8-73.6-224-9.6-6.4-22.4-12.8-35.2-12.8v0zM880 57.6c-9.6-9.6-19.2-16-32-16 0 0 0 0-3.2 0-12.8 0-22.4 6.4-32 12.8l-6.4 6.4c-16 16-19.2 44.8-3.2 64 73.6 89.6 115.2 201.6 115.2 320 0 121.6-44.8 236.8-124.8 329.6-16 19.2-16 44.8 3.2 64l6.4 6.4c9.6 9.6 19.2 12.8 35.2 12.8 12.8 0 25.6-6.4 32-16 96-108.8 150.4-249.6 150.4-396.8 0-144-51.2-278.4-140.8-387.2v0z" />
<glyph unicode="&#xe951;" glyph-name="modules" d="M188.8-21.333l-124.8 217.6 124.8 217.6h249.6l124.8-217.6-124.8-217.6zM582.4 209.067l-124.8 217.6 124.8 217.6h252.8l124.8-217.6-124.8-217.6zM188.8 439.467l-124.8 217.6 124.8 217.6h249.6l124.8-217.6-124.8-217.6z" />
<glyph unicode="&#xe952;" glyph-name="basketball-bin" d="M700.8 436.267h-144c51.2 57.6 48 147.2-3.2 204.8-54.4 57.6-147.2 57.6-201.6 0-54.4-54.4-54.4-144-3.2-204.8h-12.8c-12.8 0-22.4-9.6-22.4-22.4v-16c0-12.8 9.6-22.4 22.4-22.4h9.6c6.4-19.2 12.8-41.6 16-64v0 0c9.6-41.6 12.8-86.4 12.8-131.2v-3.2h16v3.2c0 9.6 0 16 0 25.6l28.8-28.8h12.8l28.8 28.8 28.8-28.8h12.8l28.8 28.8 28.8-28.8h16l28.8 28.8 22.4-25.6h16v3.2c0 67.2 9.6 131.2 28.8 195.2h28.8c0 0 9.6 3.2 12.8 12.8 6.4 9.6 9.6 35.2-12.8 44.8zM544 449.067l-32 35.2c22.4 19.2 48 25.6 64 28.8-6.4-22.4-16-44.8-32-64zM499.2 471.467l32-35.2h-51.2c6.4 12.8 12.8 25.6 19.2 35.2zM464 436.267h-96l83.2 86.4 38.4-41.6c-9.6-12.8-19.2-25.6-25.6-44.8zM576 529.067c-12.8-3.2-48-9.6-76.8-35.2l-38.4 41.6 83.2 86.4c22.4-25.6 32-57.6 32-92.8zM531.2 634.667l-83.2-86.4-38.4 41.6c22.4 28.8 32 64 35.2 76.8 32 0 64-9.6 86.4-32zM428.8 663.467c-3.2-12.8-9.6-41.6-28.8-64l-32 35.2c16 16 38.4 25.6 60.8 28.8zM355.2 621.867l32-35.2c-22.4-19.2-48-25.6-64-28.8 3.2 22.4 12.8 44.8 32 64zM323.2 538.667c12.8 3.2 48 9.6 76.8 35.2l38.4-41.6-83.2-86.4c-22.4 28.8-35.2 60.8-32 92.8zM355.2 372.267h9.6l22.4-22.4 9.6 9.6-9.6 9.6h48l6.4-6.4-22.4-25.6-9.6 9.6-9.6-9.6 9.6-9.6-25.6-25.6-12.8 16c-3.2 16-9.6 35.2-16 54.4zM576 327.467l22.4 25.6 22.4-25.6-22.4-25.6-22.4 25.6zM588.8 289.067l-22.4-25.6-25.6 25.6 22.4 25.6 25.6-25.6zM563.2 337.067l-25.6 25.6 6.4 6.4h32l6.4-6.4-19.2-25.6zM553.6 327.467l-25.6-25.6-22.4 25.6 22.4 25.6 25.6-25.6zM518.4 289.067l-22.4-25.6-22.4 25.6 22.4 25.6 22.4-25.6zM492.8 337.067l-32 32h64l-32-32zM483.2 327.467l-25.6-25.6-22.4 25.6 22.4 25.6 25.6-25.6zM444.8 289.067l-22.4-25.6-25.6 25.6 22.4 25.6 25.6-25.6zM384 228.267c0 19.2-3.2 38.4-6.4 57.6l32-35.2-25.6-22.4zM422.4 189.867v0l-25.6 25.6 22.4 25.6 22.4-25.6-19.2-25.6zM457.6 225.067l-22.4 25.6 22.4 25.6 22.4-25.6-22.4-25.6zM492.8 189.867v0l-25.6 25.6 22.4 25.6 22.4-25.6-19.2-25.6zM563.2 189.867v0l-25.6 25.6 6.4 6.4-9.6 9.6-6.4-6.4-22.4 25.6 22.4 25.6 22.4-25.6-6.4-6.4 9.6-9.6 6.4 6.4 22.4-25.6-19.2-25.6zM576 250.667l22.4 25.6 22.4-25.6-22.4-25.6-22.4 25.6zM624 199.467l-12.8 12.8 12.8 16c0-6.4 0-19.2 0-28.8zM630.4 269.867l-19.2 19.2 22.4 25.6c0-16 0-32-3.2-44.8zM643.2 330.667l-38.4 38.4h48c-3.2-9.6-6.4-25.6-9.6-38.4zM707.2 388.267h-377.6c-3.2 0-6.4 3.2-6.4 6.4v16c0 3.2 3.2 6.4 6.4 6.4h377.6z" />
<glyph unicode="&#xe953;" glyph-name="racing-flags" d="M512 365.867c48 105.6 96 211.2 144 316.8 22.4-6.4 41.6-12.8 64-19.2 28.8-12.8 51.2-35.2 70.4-57.6s38.4-44.8 57.6-67.2c32-38.4 67.2-70.4 121.6-67.2-3.2-6.4-3.2-9.6-3.2-12.8-35.2-80-70.4-156.8-105.6-236.8-3.2-9.6-9.6-12.8-16-12.8-35.2 3.2-64 12.8-83.2 38.4-28.8 28.8-54.4 64-83.2 92.8-19.2 22.4-38.4 41.6-64 57.6-12.8 6.4-28.8 12.8-41.6 12.8-3.2 0-9.6-3.2-12.8-6.4-12.8-22.4-19.2-41.6-28.8-67.2-3.2-6.4 0-12.8 0-16 19.2-48 41.6-92.8 67.2-144-9.6-3.2-12.8-6.4-22.4-12.8-19.2 44.8-41.6 89.6-60.8 134.4-19.2-44.8-41.6-89.6-60.8-134.4-9.6 3.2-12.8 6.4-22.4 9.6 12.8 28.8 25.6 57.6 38.4 86.4 9.6 19.2 19.2 41.6 28.8 64 3.2 6.4 3.2 12.8 0 12.8-9.6 22.4-19.2 41.6-28.8 67.2-3.2 6.4-6.4 9.6-12.8 9.6-35.2-3.2-60.8-22.4-80-44.8-25.6-25.6-44.8-57.6-70.4-83.2-22.4-28.8-48-51.2-83.2-67.2-3.2 0-3.2 0-6.4-3.2-38.4-12.8-41.6-9.6-54.4 25.6-32 70.4-67.2 144-96 214.4-6.4 0-6.4 6.4-9.6 9.6 3.2 0 3.2 3.2 3.2 3.2 44.8-3.2 76.8 19.2 105.6 51.2 22.4 25.6 41.6 54.4 67.2 76.8 19.2 19.2 41.6 41.6 60.8 54.4 12.8 9.6 25.6 12.8 41.6 16 12.8 3.2 22.4 6.4 38.4 9.6 41.6-99.2 89.6-201.6 137.6-310.4zM675.2 529.067c-16 6.4-35.2 12.8-51.2 19.2-9.6-19.2-16-41.6-25.6-54.4 16-6.4 35.2-12.8 51.2-16 9.6 12.8 16 32 25.6 51.2 12.8-12.8 28.8-22.4 44.8-38.4 9.6 16 12.8 32 22.4 48 0 3.2 0 6.4 0 6.4-12.8 12.8-25.6 22.4-41.6 38.4-9.6-22.4-16-38.4-25.6-54.4zM326.4 583.467c-12.8-12.8-32-22.4-48-35.2-6.4 16-12.8 35.2-22.4 54.4-12.8-12.8-22.4-28.8-35.2-41.6-3.2-3.2-3.2-9.6-3.2-12.8 9.6-12.8 12.8-32 22.4-48 12.8 16 25.6 32 41.6 44.8 9.6-19.2 16-38.4 25.6-54.4 12.8 12.8 28.8 22.4 44.8 35.2 9.6-16 16-35.2 25.6-51.2 16 6.4 35.2 12.8 51.2 16-6.4 12.8-12.8 32-22.4 48 0 3.2-6.4 6.4-6.4 3.2-16-6.4-32-12.8-48-19.2-3.2 9.6-9.6 19.2-12.8 28.8-6.4 12.8-9.6 22.4-12.8 32 12.8 9.6 32 12.8 48 22.4-6.4 12.8-12.8 32-19.2 44.8 0 3.2-6.4 6.4-12.8 3.2-12.8-3.2-28.8-9.6-44.8-12.8 12.8-22.4 19.2-38.4 28.8-57.6zM153.6 417.067c6.4 3.2 12.8 6.4 12.8 9.6 12.8 9.6 19.2 16 32 25.6 9.6-16 16-38.4 25.6-54.4 12.8 16 25.6 32 41.6 44.8 9.6-19.2 16-38.4 25.6-54.4 12.8 16 25.6 32 41.6 44.8 9.6-19.2 16-38.4 25.6-54.4 12.8 12.8 28.8 25.6 41.6 38.4-9.6 16-16 35.2-25.6 54.4-12.8-12.8-28.8-25.6-41.6-38.4-9.6 16-16 35.2-25.6 54.4-12.8-16-25.6-32-41.6-44.8-9.6 19.2-16 38.4-25.6 54.4-12.8-16-25.6-32-41.6-44.8-9.6 19.2-16 38.4-25.6 54.4-12.8-12.8-28.8-25.6-41.6-38.4 9.6-16 16-35.2 22.4-51.2-12.8-9.6-32-12.8-44.8-22.4 6.4-12.8 12.8-28.8 19.2-41.6 0-6.4 6.4-9.6 12.8-9.6 12.8 6.4 28.8 9.6 41.6 12.8 9.6-16 16-35.2 25.6-54.4 12.8 12.8 28.8 25.6 41.6 38.4 9.6-16 16-35.2 25.6-54.4 12.8 12.8 25.6 28.8 38.4 41.6 0 3.2 3.2 6.4 0 6.4-9.6 16-12.8 35.2-22.4 51.2-12.8-16-25.6-32-41.6-44.8-9.6 19.2-16 38.4-25.6 54.4-12.8-12.8-28.8-22.4-41.6-38.4-6.4 22.4-16 44.8-28.8 60.8zM716.8 490.667c-9.6-19.2-16-38.4-25.6-54.4-12.8 12.8-28.8 22.4-41.6 38.4-9.6-19.2-16-38.4-25.6-54.4 12.8-12.8 28.8-25.6 41.6-38.4 9.6 16 16 35.2 25.6 54.4 12.8-16 25.6-32 41.6-44.8 9.6 19.2 16 38.4 25.6 54.4 12.8-12.8 25.6-32 41.6-44.8 9.6 19.2 16 38.4 25.6 54.4 12.8-12.8 28.8-25.6 41.6-38.4-9.6-16-16-35.2-25.6-57.6 16-6.4 32-12.8 44.8-12.8 3.2 0 9.6 3.2 9.6 6.4 9.6 12.8 12.8 32 22.4 44.8-16 6.4-35.2 12.8-51.2 16 9.6 19.2 16 41.6 25.6 57.6-12.8 12.8-28.8 25.6-41.6 38.4-9.6-16-16-35.2-25.6-54.4-12.8 12.8-25.6 32-41.6 44.8-9.6-19.2-16-38.4-25.6-54.4-16 12.8-25.6 28.8-41.6 44.8zM790.4 244.267c16-6.4 32-12.8 44.8-12.8 3.2 0 9.6 0 9.6 3.2 9.6 16 12.8 35.2 22.4 48-16 6.4-35.2 12.8-51.2 16-9.6-12.8-19.2-32-25.6-54.4zM649.6 602.667c16-6.4 35.2-12.8 51.2-16 9.6 16 16 35.2 25.6 57.6-16 6.4-32 12.8-44.8 12.8-3.2 0-9.6-3.2-12.8-6.4-6.4-16-12.8-32-19.2-48zM784 500.267c9.6 16 12.8 35.2 22.4 51.2 0 3.2 0 6.4 0 6.4-12.8 12.8-22.4 28.8-38.4 44.8-9.6-19.2-16-38.4-25.6-54.4 12.8-16 25.6-32 41.6-48zM156.8 285.867c9.6-16 12.8-35.2 22.4-48 0-3.2 6.4-3.2 6.4-3.2 16 6.4 32 9.6 48 12.8-9.6 19.2-16 41.6-25.6 57.6-16-9.6-32-12.8-51.2-19.2zM816 301.867c9.6 19.2 16 38.4 25.6 54.4-12.8 12.8-28.8 25.6-41.6 38.4-9.6-19.2-16-38.4-25.6-54.4 12.8-12.8 22.4-22.4 41.6-38.4zM732.8 388.267c-9.6-16-12.8-35.2-22.4-51.2 0-3.2 0-6.4 3.2-9.6 12.8-12.8 22.4-28.8 35.2-41.6 9.6 16 16 35.2 22.4 51.2 0 3.2 0 6.4 0 9.6-12.8 12.8-28.8 25.6-38.4 41.6z" />
<glyph unicode="&#xe954;" glyph-name="soccer" d="M396.8 570.667c0 0 25.6-60.8 35.2-67.2 0 0 48-3.2 92.8 0l41.6 64c0 0 9.6 9.6 0 19.2s-38.4 51.2-38.4 51.2l-80-3.2c0-3.2-25.6-32-51.2-64zM537.6 634.667l41.6-54.4 80-12.8c0 0 16 19.2 16 41.6l-48 41.6c0 0-3.2 6.4 3.2 6.4 0 0 9.6 9.6-51.2 22.4l-19.2 3.2-12.8-3.2 19.2-9.6c0 0 6.4-6.4-6.4-9.6-9.6 0-22.4-25.6-22.4-25.6zM329.6 561.067l25.6 6.4 32 6.4 51.2 60.8-19.2 22.4c0 0-6.4 6.4 0 9.6s22.4 9.6 22.4 9.6l3.2 6.4h-12.8l-70.4-35.2 3.2-6.4-41.6-44.8c3.2-3.2 0-32 6.4-35.2zM320 551.467v32l-19.2-6.4-25.6-44.8c0 0-16-28.8-9.6-54.4l22.4 6.4 32 67.2zM291.2 349.867c0 0 9.6 44.8 12.8 48 3.2 6.4 0 19.2 0 19.2l-19.2 54.4c-16 0-25.6-12.8-25.6-12.8l-6.4-54.4 12.8-48c0 0 9.6-6.4 25.6-6.4zM313.6 404.267h64l44.8-76.8c0 0 3.2-9.6 0-12.8-3.2-6.4-25.6-48-25.6-48s-51.2 9.6-64 9.6c0 0-25.6 38.4-38.4 57.6 3.2 0 6.4 28.8 19.2 70.4zM428.8 497.067h102.4l51.2-86.4-57.6-86.4h-89.6l-48 83.2zM592 404.267l-54.4-86.4 44.8-64 73.6 9.6 48 67.2-28.8 73.6zM771.2 413.867h-9.6l-9.6 60.8c0 0-32 9.6-44.8 6.4l-32-64 32-76.8 38.4 16 3.2-22.4c0 0 19.2 25.6 22.4 80zM582.4 244.267l70.4 9.6c0 0 12.8-9.6 9.6-28.8l6.4-6.4c0 0-60.8-44.8-96-44.8 0 0-16 3.2-38.4 22.4l48 48zM396.8 250.667l48-48-25.6-19.2c0 0-38.4 12.8-86.4 51.2v32l64-16zM451.2 202.667l-19.2-16c0 0 44.8-22.4 118.4-12.8l-22.4 22.4c0 0-41.6-3.2-76.8 6.4zM752 487.467c-12.8-3.2-44.8 9.6-44.8 9.6l-44.8 64 19.2 41.6 41.6-22.4 32-54.4c0 0 3.2-19.2-3.2-38.4z" />
</font>
</defs>
</svg>
