<?xml version="1.0" encoding="UTF-8"?>
<svg id="Layer_2" data-name="Layer 2" xmlns="http://www.w3.org/2000/svg" xmlns:xlink="http://www.w3.org/1999/xlink" viewBox="0 0 50 50">
  <defs>
    <style>
      .cls-1 {
        clip-path: url(#clippath);
      }

      .cls-2 {
        fill: none;
      }

      .cls-2, .cls-3, .cls-4 {
        stroke-width: 0px;
      }

      .cls-3 {
        fill: #494d74;
      }

      .cls-4 {
        fill: #fff;
      }
    </style>
    <clipPath id="clippath">
      <rect class="cls-2" width="50" height="50"/>
    </clipPath>
  </defs>
  <g id="Layer_1-2" data-name="Layer 1">
    <g class="cls-1">
      <g>
        <path class="cls-3" d="m45.44,50c-.14,0-.28,0-.42,0-11.57,0-23.14,0-34.7,0-4.05,0-7.23-2.69-7.89-6.67-.08-.49-.07-1-.07-1.5,0-5.62,0-11.24,0-16.86s-.02-11.37,0-17.06c0-3.87,2.53-6.97,6.28-7.74.52-.11,1.06-.15,1.59-.15,11.63,0,23.24,0,34.86,0,1.61,0,2.56.94,2.56,2.54v33.98c0,1.66-.95,2.55-2.71,2.55-11.46,0-22.93,0-34.39,0-.85,0-1.65.13-2.33.69-1.02.83-1.44,2.17-1.04,3.4.41,1.24,1.55,2.1,2.89,2.17.2,0,.38,0,.58,0,11.44,0,22.89,0,34.34,0,1.13,0,2,.34,2.48,1.41.67,1.48-.38,3.16-2.01,3.27Z"/>
        <g>
          <path class="cls-4" d="m29.34,28.9c-.09.39-.17.74-.26,1.08-.02.06-.09.13-.15.15-.93.32-1.85.71-2.8.93-.91.21-1.85.14-2.74-.24-1.03-.44-1.64-1.39-1.61-2.53.03-1.1.32-2.14.62-3.19.32-1.15.66-2.3.93-3.46.12-.52.13-1.08.1-1.61-.02-.47-.29-.68-.77-.78-.68-.14-1.32-.02-1.96.21-.09.03-.18.05-.32.09.09-.38.16-.71.26-1.03.02-.08.11-.17.19-.2,1.02-.4,2.03-.84,3.13-.96.97-.11,1.93-.05,2.78.52.87.58,1.17,1.42,1.14,2.44-.04,1.12-.38,2.18-.67,3.24-.32,1.17-.64,2.35-.92,3.53-.09.4-.11.84-.07,1.25.06.58.35.87.94.89.54.02,1.09-.08,1.64-.15.17-.02.33-.1.55-.18Z"/>
          <path class="cls-4" d="m27.02,10.21c1.31.03,2.41.93,2.57,2.13.18,1.3-.79,2.56-2.1,2.73-1.11.14-2.06-.18-2.69-1.12-.87-1.29-.21-3.06,1.31-3.55.29-.09.6-.13.9-.19Z"/>
        </g>
      </g>
    </g>
  </g>
</svg>