<svg xmlns="http://www.w3.org/2000/svg" xmlns:xlink="http://www.w3.org/1999/xlink" width="73" height="73" viewBox="0 0 73 73">
  <defs>
    <clipPath id="clip-path">
      <rect id="Rectangle_21997" data-name="Rectangle 21997" width="73" height="73" transform="translate(1376 2983.286)" fill="none" stroke="#707070" stroke-width="1"/>
    </clipPath>
    <clipPath id="clip-path-2">
      <rect id="Rectangle_21996" data-name="Rectangle 21996" width="70.779" height="50.169" fill="#373464"/>
    </clipPath>
  </defs>
  <g id="Mask_Group_7367" data-name="Mask Group 7367" transform="translate(-1376 -2983.286)" clip-path="url(#clip-path)">
    <g id="Group_40030" data-name="Group 40030" transform="translate(1377.222 2993.989)">
      <g id="Group_40029" data-name="Group 40029" transform="translate(0 0)" clip-path="url(#clip-path-2)">
        <path id="Path_43655" data-name="Path 43655" d="M24.35,20.449a6.214,6.214,0,1,1-6.237-6.191,6.216,6.216,0,0,1,6.237,6.191" transform="translate(10.909 13.047)" fill="#373464"/>
        <path id="Path_43656" data-name="Path 43656" d="M58.063,23.487h-.077A14.711,14.711,0,0,1,43.26,8.818L6.2,8.952A6.248,6.248,0,0,0,0,15.195v.019l.077,20.7A6.207,6.207,0,0,0,6.32,42.1L51.9,41.948A6.236,6.236,0,0,0,58.1,35.7ZM10.379,19.312H8.311a2.06,2.06,0,0,1-2.068-2.068,2.08,2.08,0,0,1,2.049-2.068H10.36a2.06,2.06,0,0,1,2.087,2.049,2.088,2.088,0,0,1-2.068,2.087M36.385,32.736A10.345,10.345,0,1,1,29.012,15.1,10.331,10.331,0,0,1,39.392,25.4a10.311,10.311,0,0,1-3.007,7.334m15.473.958a2.047,2.047,0,0,1-2.049,2.03H49.79l-2.068.019a2.072,2.072,0,0,1-2.068-2.068v-.038A2.076,2.076,0,0,1,47.7,31.587H49.79a2.072,2.072,0,0,1,2.068,2.068Z" transform="translate(0 8.069)" fill="#373464"/>
        <path id="Path_43657" data-name="Path 43657" d="M24.529,0,14.462.036a1.656,1.656,0,0,0,.011,3.313L24.54,3.313A1.656,1.656,0,1,0,24.531,0h0" transform="translate(11.724 0.001)" fill="#373464" fill-rule="evenodd"/>
        <path id="Path_43658" data-name="Path 43658" d="M24.3,4.428,9.239,4.484A1.656,1.656,0,0,0,9.25,7.8l15.065-.056A1.656,1.656,0,1,0,24.3,4.428" transform="translate(6.945 4.052)" fill="#373464" fill-rule="evenodd"/>
        <path id="Path_43659" data-name="Path 43659" d="M36.4,2.108h-.057A12.8,12.8,0,0,0,27.382,24a12.554,12.554,0,0,0,9.058,3.715h.019a12.8,12.8,0,0,0-.057-25.6m8.483,13.577-4.443,4.481a1.162,1.162,0,0,1-.8.326,1.138,1.138,0,0,1-.823-1.934l2.509-2.528-7.545.019-5.056.019a1.116,1.116,0,0,1-1.13-1.111v-.019a1.152,1.152,0,0,1,1.13-1.168l12.6-.038L38.8,11.243a1.149,1.149,0,0,1,.8-1.953,1.072,1.072,0,0,1,.8.345l4.481,4.443a1.144,1.144,0,0,1,0,1.609" transform="translate(21.585 1.93)" fill="#373464"/>
      </g>
    </g>
  </g>
</svg>
