<svg xmlns="http://www.w3.org/2000/svg" xmlns:xlink="http://www.w3.org/1999/xlink" width="73" height="73" viewBox="0 0 73 73">
  <defs>
    <clipPath id="clip-path">
      <rect id="Rectangle_21975" data-name="Rectangle 21975" width="73" height="73" transform="translate(1512 761)" fill="none" stroke="#707070" stroke-width="1"/>
    </clipPath>
  </defs>
  <g id="Mask_Group_7351" data-name="Mask Group 7351" transform="translate(-1512 -761)" clip-path="url(#clip-path)">
    <g id="Group_39739" data-name="Group 39739" transform="translate(1522.147 771.455)">
      <path id="Path_9516" data-name="Path 9516" d="M39.623-76.925a1.221,1.221,0,0,0-.137-1.6,1.216,1.216,0,0,0-1.6-.076L16.108-60.067,4.578-64.53a2.792,2.792,0,0,1-1.793-2.432A2.8,2.8,0,0,1,4.255-69.6L51.979-96.342a2.353,2.353,0,0,1,2.445.081,2.351,2.351,0,0,1,1.049,2.21L51.247-50.409a2.883,2.883,0,0,1-1.357,2.175,2.888,2.888,0,0,1-2.552.242l-14-5.416-8.783,8.236a2.268,2.268,0,0,1-2.463.425,2.272,2.272,0,0,1-1.357-2.1v-6.443Z" transform="translate(-2.78 96.646)" fill="#373464"/>
    </g>
  </g>
</svg>
