<svg xmlns="http://www.w3.org/2000/svg" width="44.902" height="61.76" viewBox="0 0 44.902 61.76">
  <path id="Path_42821" data-name="Path 42821" d="M333.594,2318.283l12.644-12.644v-6.93l-5.983,5.983c-.285-.467-.593-.925-.926-1.368l6.908-6.907v-6.929L335.9,2299.83a18.71,18.71,0,0,0-11.25-3.7,17.8,17.8,0,0,0-18.251,18.137,18.314,18.314,0,0,0,3.8,11.26l-8.861,8.861v6.928l12.416-12.415q.673.486,1.387.905l-13.8,13.8v6.929l6.711-6.71a18.207,18.207,0,0,0,14.882,7.417,18.188,18.188,0,0,0,10.665-32.965Zm-5.141,5.141a10.624,10.624,0,0,1,5.785,9.687c0,6.268-4.862,11-11.309,11a11.132,11.132,0,0,1-9.817-5.342Zm-9.59.369,15.425-15.425a10.577,10.577,0,0,1,.784,1.508l-14.635,14.635A11.166,11.166,0,0,1,318.862,2323.794Zm-3.64-3.289a10.956,10.956,0,0,1-1.885-6.235c0-6.27,4.862-11,11.309-11a11.823,11.823,0,0,1,6.145,1.664Z" transform="translate(-301.336 -2289.488)" fill="#fff"/>
</svg>
