<svg xmlns="http://www.w3.org/2000/svg" width="22" height="22" viewBox="0 0 22 22">
  <g id="Group_38885" data-name="Group 38885" transform="translate(-8.115 -8.533)">
    <circle id="Ellipse_328" data-name="Ellipse 328" cx="11" cy="11" r="11" transform="translate(8.115 8.533)" fill="#c82f2a"/>
    <path id="Path_41432" data-name="Path 41432" d="M147.746,154.479l-2.53-2.471a.571.571,0,0,1-.011-.807l.011-.011.839-.819a.6.6,0,0,1,.839,0l1.506,1.472,4.224-6.422a.6.6,0,0,1,.819-.174l1,.627a.572.572,0,0,1,.188.787l-.009.015-5,7.607a1.228,1.228,0,0,1-1.872.2Z" transform="translate(-130.557 -130.664)" fill="#fff"/>
  </g>
</svg>
