<svg xmlns="http://www.w3.org/2000/svg" xmlns:xlink="http://www.w3.org/1999/xlink" width="67" height="67" viewBox="0 0 67 67">
  <defs>
    <clipPath id="clip-path">
      <rect id="Rectangle_21871" data-name="Rectangle 21871" width="67" height="67" transform="translate(269 2914)" fill="none" stroke="#707070" stroke-width="1"/>
    </clipPath>
  </defs>
  <g id="Mask_Group_7272" data-name="Mask Group 7272" transform="translate(-269 -2914)" clip-path="url(#clip-path)">
    <g id="Group_39499" data-name="Group 39499">
      <circle id="Ellipse_76" data-name="Ellipse 76" cx="33.5" cy="33.5" r="33.5" transform="translate(269 2914)" fill="#216d96"/>
      <g id="Group_39273" data-name="Group 39273" transform="translate(286.744 2931.753)">
        <path id="Path_41965" data-name="Path 41965" d="M35.848,19.491v2.474h2.41v4.864h2.408V19.491Z" transform="translate(-9.154 -4.977)" fill="#fff"/>
        <rect id="Rectangle_21496" data-name="Rectangle 21496" width="2.538" height="2.538" transform="translate(24.22 19.443)" fill="#fff"/>
        <rect id="Rectangle_21497" data-name="Rectangle 21497" width="2.538" height="2.529" transform="translate(21.764 14.487)" fill="#fff"/>
        <path id="Path_41966" data-name="Path 41966" d="M2.53,28.515H9.766v7.227H2.53ZM.13,38.15H12.166V26.1H.13Z" transform="translate(-0.033 -6.666)" fill="#fff"/>
        <rect id="Rectangle_21498" data-name="Rectangle 21498" width="8.528" height="2.474" transform="translate(0 14.515)" fill="#fff"/>
        <path id="Path_41967" data-name="Path 41967" d="M25.6,30.834H28.02v2.381H25.6ZM18.3,16.176V18.64H14.608v2.474H18.3v4.865h.563v.036h4.265V28.36h-4.9v7.264H20.7v-4.79h2.428v4.781h12.11V28.387h-2.4v4.828H30.429V28.36H25.6V26.015h.008V23.541H20.765V21.114h2.363V18.64H20.765V16.176Z" transform="translate(-3.73 -4.13)" fill="#fff"/>
        <path id="Path_41968" data-name="Path 41968" d="M28.557,2.41h7.228V9.646H28.557Zm-2.408,9.645H38.185V0H26.149Z" transform="translate(-6.677 0)" fill="#fff"/>
        <rect id="Rectangle_21499" data-name="Rectangle 21499" width="2.538" height="2.538" transform="translate(14.5 2.1)" fill="#fff"/>
        <rect id="Rectangle_21500" data-name="Rectangle 21500" width="2.538" height="2.538" transform="translate(14.5 6.936)" fill="#fff"/>
        <path id="Path_41969" data-name="Path 41969" d="M2.443,2.41H9.679V9.646H2.443Zm-2.4,9.645H12.079V0H.043Z" transform="translate(-0.011 0)" fill="#fff"/>
        <rect id="Rectangle_21501" data-name="Rectangle 21501" width="2.538" height="2.529" transform="translate(4.851 4.828)" fill="#fff"/>
        <rect id="Rectangle_21502" data-name="Rectangle 21502" width="2.538" height="2.538" transform="translate(4.915 24.257)" fill="#fff"/>
        <rect id="Rectangle_21503" data-name="Rectangle 21503" width="2.538" height="2.529" transform="translate(24.289 4.828)" fill="#fff"/>
      </g>
    </g>
  </g>
</svg>
