<svg xmlns="http://www.w3.org/2000/svg" width="21.271" height="21.277" viewBox="0 0 21.271 21.277">
  <path id="Path_43632" data-name="Path 43632" d="M11.183,13.272A29.45,29.45,0,0,0,18.211,20.3c.2-.29.392-.563.583-.836a2.4,2.4,0,0,1,3.657-.654l2.758,1.929a2.375,2.375,0,0,1,.823,3.282,4.243,4.243,0,0,1-3.671,2.326,9.9,9.9,0,0,1-5.236-1.127A22.956,22.956,0,0,1,6.183,14.2,9.734,9.734,0,0,1,5.13,9.153a4.229,4.229,0,0,1,2.7-3.874,2.263,2.263,0,0,1,2.7.726c.808,1.093,1.591,2.206,2.337,3.344a2.318,2.318,0,0,1-.567,3.119c-.353.273-.725.521-1.124.8" transform="translate(-5.101 -5.1)" fill="#216d96"/>
</svg>
