<svg xmlns="http://www.w3.org/2000/svg" width="18.509" height="18.509" viewBox="0 0 18.509 18.509">
  <g id="Group_39826" data-name="Group 39826" transform="translate(-42.667 -32.002)">
    <path id="Path_43469" data-name="Path 43469" d="M51.714,49.4l-.267.134-7.855-3.491V36.878l7.678,3.413a.463.463,0,0,0,.376,0l7.678-3.413v3.915a.463.463,0,1,0,.925,0V36.166a.463.463,0,0,0-.275-.423l-8.329-3.7a.464.464,0,0,0-.376,0l-8.329,3.7a.463.463,0,0,0-.275.423v10.18a.463.463,0,0,0,.275.423l8.329,3.7a.463.463,0,0,0,.395-.009l.463-.231a.463.463,0,1,0-.414-.828Zm-.256-10.041-3.274-1.455,7.163-3.184.023-.013,3.277,1.456Zm0-6.391L54.235,34.2l-7.129,3.168a.457.457,0,0,0-.053.03l-2.784-1.237Z" transform="translate(0)"/>
    <path id="Path_43470" data-name="Path 43470" d="M260.626,245.333a4.627,4.627,0,1,0,4.627,4.627A4.627,4.627,0,0,0,260.626,245.333Zm0,8.329a3.7,3.7,0,1,1,3.7-3.7,3.7,3.7,0,0,1-3.7,3.7Z" transform="translate(-204.078 -204.077)"/>
    <path id="Path_43471" data-name="Path 43471" d="M323.567,309.469a.463.463,0,0,0-.654,0l-1.061,1.061-1.061-1.061a.463.463,0,1,0-.654.654l1.061,1.061-1.061,1.061a.463.463,0,1,0,.654.654l1.061-1.061,1.061,1.061a.463.463,0,1,0,.654-.654l-1.061-1.061,1.061-1.061A.463.463,0,0,0,323.567,309.469Z" transform="translate(-265.303 -265.301)"/>
  </g>
</svg>
