<svg xmlns="http://www.w3.org/2000/svg" width="36.837" height="36.837" viewBox="0 0 36.837 36.837">
  <g id="Group_39640" data-name="Group 39640" transform="translate(-227.533 -9058.163)">
    <path id="Path_42962" data-name="Path 42962" d="M62.418,0A18.418,18.418,0,1,0,80.837,18.418,18.419,18.419,0,0,0,62.418,0m9.066,23.648a2.26,2.26,0,0,1-1.048,1.058c-1.245.654-14.072.645-15.711.1a2.258,2.258,0,0,1-1.487-1.444c-.643-1.77-.833-9.177.405-10.635a2.407,2.407,0,0,1,1.619-.861c3.34-.359,13.665-.307,14.854.121a2.332,2.332,0,0,1,1.461,1.4c.7,1.831.729,8.489-.094,10.253" transform="translate(183.533 9058.163)" fill="#fff"/>
    <path id="Path_42963" data-name="Path 42963" d="M68.535,9.343a2.331,2.331,0,0,0-1.461-1.406c-1.19-.428-11.515-.479-14.854-.12a2.4,2.4,0,0,0-1.619.86c-1.239,1.46-1.048,8.865-.405,10.635a2.259,2.259,0,0,0,1.489,1.446c1.639.54,14.465.548,15.711-.106a2.25,2.25,0,0,0,1.047-1.058c.823-1.764.8-8.422.094-10.251M56.99,17.286V11.027l6.017,3.139-6.017,3.12" transform="translate(186.578 9062.217)" fill="#216d96" fill-rule="evenodd"/>
    <path id="Path_42964" data-name="Path 42964" d="M60.462,12.964l-6.017,3.12V9.825l6.017,3.139" transform="translate(189.121 9063.418)" fill="#fff" fill-rule="evenodd"/>
  </g>
</svg>
