<svg xmlns="http://www.w3.org/2000/svg" xmlns:xlink="http://www.w3.org/1999/xlink" width="357" height="239" viewBox="0 0 357 239">
  <defs>
    <filter id="Path_41548" x="0" y="0" width="357" height="239" filterUnits="userSpaceOnUse">
      <feOffset dy="3" input="SourceAlpha"/>
      <feGaussianBlur stdDeviation="3" result="blur"/>
      <feFlood flood-opacity="0.161"/>
      <feComposite operator="in" in2="blur"/>
      <feComposite in="SourceGraphic"/>
    </filter>
  </defs>
  <g id="Group_39190" data-name="Group 39190" transform="translate(-9 -179)">
    <g transform="matrix(1, 0, 0, 1, 9, 179)" filter="url(#Path_41548)">
      <path id="Path_41548-2" data-name="Path 41548" d="M7,0H332a7,7,0,0,1,7,7V214a7,7,0,0,1-7,7H7a7,7,0,0,1-7-7V7A7,7,0,0,1,7,0Z" transform="translate(9 6)" fill="#10a9dc"/>
    </g>
    <path id="Path_41573" data-name="Path 41573" d="M2.444-7.384V-13.1l17-24.336h8.476v23.712H32.5v6.344H27.924V0h-7.28V-7.384ZM21.112-29.64,10.452-13.728h10.66ZM77.532-36.3V0h-7.28V-23.608L60.528,0H55.016L45.24-23.608V0H37.96V-36.3h8.268L57.772-9.308,69.316-36.3Zm41.7,14.664V-15.5H97.188v-6.136ZM158.6-28.444a6,6,0,0,0-1.794-3.276,5.478,5.478,0,0,0-3.666-1.092,5.683,5.683,0,0,0-5.278,2.886q-1.69,2.886-1.742,9.386a8.439,8.439,0,0,1,3.64-3.25,11.674,11.674,0,0,1,5.2-1.17,12.031,12.031,0,0,1,5.98,1.456A10.086,10.086,0,0,1,165-19.266a14.245,14.245,0,0,1,1.456,6.682,14.2,14.2,0,0,1-1.482,6.578,10.65,10.65,0,0,1-4.342,4.5A13.657,13.657,0,0,1,153.816.1q-5.408,0-8.5-2.392A12.468,12.468,0,0,1,141-8.97a39.189,39.189,0,0,1-1.222-10.582q0-9.516,3.276-14.378T153.4-38.792q5.46,0,8.476,2.964a11.756,11.756,0,0,1,3.484,7.384Zm-5.3,9.464a6.844,6.844,0,0,0-4.628,1.612,5.838,5.838,0,0,0-1.872,4.68,6.591,6.591,0,0,0,1.742,4.836,6.588,6.588,0,0,0,4.914,1.768A5.856,5.856,0,0,0,157.9-7.8a6.424,6.424,0,0,0,1.638-4.628,6.9,6.9,0,0,0-1.586-4.784A5.93,5.93,0,0,0,153.3-18.98Zm18.928-.468q0-9,3.25-14.092t10.79-5.1q7.54,0,10.79,5.1t3.25,14.092q0,9.048-3.25,14.2T186.264-.1q-7.54,0-10.79-5.148T172.224-19.448Zm20.9,0a35.775,35.775,0,0,0-.494-6.474,8.724,8.724,0,0,0-1.976-4.29,5.579,5.579,0,0,0-4.394-1.664,5.579,5.579,0,0,0-4.394,1.664,8.724,8.724,0,0,0-1.976,4.29,35.775,35.775,0,0,0-.494,6.474,39.415,39.415,0,0,0,.468,6.63A8.322,8.322,0,0,0,181.844-8.5a5.711,5.711,0,0,0,4.42,1.638,5.711,5.711,0,0,0,4.42-1.638,8.322,8.322,0,0,0,1.976-4.316A39.415,39.415,0,0,0,193.128-19.448Zm38.792-5.928a8.522,8.522,0,0,0-3.432-3.484,10.444,10.444,0,0,0-5.1-1.2,11.141,11.141,0,0,0-5.72,1.456,10.056,10.056,0,0,0-3.9,4.16,13.35,13.35,0,0,0-1.4,6.24,13.382,13.382,0,0,0,1.43,6.344,10.124,10.124,0,0,0,3.978,4.16A11.74,11.74,0,0,0,223.7-6.24a10.283,10.283,0,0,0,6.812-2.21A10.548,10.548,0,0,0,234-14.612H221.52v-5.564h19.656v6.344a17.051,17.051,0,0,1-3.12,7.02,17.616,17.616,0,0,1-6.162,5.174,18.118,18.118,0,0,1-8.45,1.95,19.132,19.132,0,0,1-9.49-2.366A17.215,17.215,0,0,1,207.3-8.632,18.87,18.87,0,0,1,204.88-18.2a19.013,19.013,0,0,1,2.418-9.594,17.163,17.163,0,0,1,6.656-6.6,19.028,19.028,0,0,1,9.438-2.366,18.887,18.887,0,0,1,10.66,2.99,15.268,15.268,0,0,1,6.24,8.4Zm35.256,6.76a8.157,8.157,0,0,1,5.044,3.068,8.96,8.96,0,0,1,1.976,5.72,9.218,9.218,0,0,1-1.43,5.122,9.523,9.523,0,0,1-4.134,3.458A15.146,15.146,0,0,1,262.236,0H246.584V-36.3H261.56a15.531,15.531,0,0,1,6.37,1.2,9.07,9.07,0,0,1,4.056,3.328,8.714,8.714,0,0,1,1.378,4.836,8.272,8.272,0,0,1-1.69,5.3A9.042,9.042,0,0,1,267.176-18.616Zm-13.312-2.7h6.656a6.094,6.094,0,0,0,4-1.17,4.12,4.12,0,0,0,1.4-3.354,4.2,4.2,0,0,0-1.4-3.38,6,6,0,0,0-4-1.2h-6.656ZM261.2-5.928a6.23,6.23,0,0,0,4.134-1.248,4.367,4.367,0,0,0,1.482-3.536,4.554,4.554,0,0,0-1.56-3.666A6.29,6.29,0,0,0,261.04-15.7h-7.176v9.776Z" transform="translate(50 314)" fill="#fff"/>
  </g>
</svg>
