<svg xmlns="http://www.w3.org/2000/svg" xmlns:xlink="http://www.w3.org/1999/xlink" width="54" height="54" viewBox="0 0 54 54">
  <defs>
    <clipPath id="clip-path">
      <circle id="Ellipse_738" data-name="Ellipse 738" cx="27" cy="27" r="27" transform="translate(38 182)" fill="#10a9dc"/>
    </clipPath>
  </defs>
  <g id="Mask_Group_7259" data-name="Mask Group 7259" transform="translate(-38 -182)" clip-path="url(#clip-path)">
    <circle id="Ellipse_735" data-name="Ellipse 735" cx="27" cy="27" r="27" transform="translate(38 182)" fill="#14254b"/>
    <circle id="Ellipse_736" data-name="Ellipse 736" cx="27" cy="27" r="27" transform="translate(37.839 182)" fill="red"/>
    <circle id="Ellipse_737" data-name="Ellipse 737" cx="27" cy="27" r="27" transform="translate(38 182)" fill="#10a9dc"/>
    <path id="Path_41564" data-name="Path 41564" d="M261.613,31.4a10.48,10.48,0,0,1-4.963,1.251c-3.988-.212-5.86-.979-9.185,1.413-4.516,3.248-11.16,2.27-11.16-.272,0-3.4,6.728-2.086,7.245-4.036.582-2.19-2.861-3.6-2.362-5.616.579-2.324,3.526-.425,6.324-.747,1.713-.2,2.407-2.057,2.676-3.829A22.058,22.058,0,0,1,261.613,31.4Z" transform="translate(-171.304 166.132)" fill="#7c7f2a"/>
    <path id="Path_41565" data-name="Path 41565" d="M83.222,14.875c-1.877,1.145-.48,4.973-3.032,5.656-3.221.862-3.754-4.009-6.786-4.939a10.59,10.59,0,0,0-4.927.078A21.867,21.867,0,0,1,83.446,5.36a4.5,4.5,0,0,0-.224,2.855c.765,2.545,4.475,1.247,4.7,3.647S85.1,13.729,83.222,14.875Z" transform="matrix(0.951, -0.309, 0.309, 0.951, -31.094, 206.785)" fill="#7c7f2a"/>
    <path id="Path_41566" data-name="Path 41566" d="M92.41,20.8c-3.047,1.859-.779,8.072-4.921,9.18-5.228,1.4-6.093-6.507-11.014-8.017-2.37-.728-5.444-.406-8,.127,5.476-9.024,13.732-14.6,24.3-16.733a7.308,7.308,0,0,0-.364,4.635c1.241,4.131,7.264,2.025,7.631,5.92S95.456,18.944,92.41,20.8Z" transform="translate(21.67 307.021) rotate(-83)" fill="#7c7f2a"/>
    <path id="Path_41567" data-name="Path 41567" d="M333.837,202.6q-.277-13.54-.926-25.377c-1.579,3.76-3.872,7.986-6.061,7.521-3.5-.738-7.157-12.074-10.753,0-.807,2.71-5.955,9.774-1.108,11.216Z" transform="translate(-155.279 -69.819) rotate(21)" fill="#7c7f2a"/>
    <path id="I_teach_full_stack_development_Which_means_you_will_see_tutorials_regarding_UI_UX_Frontend_Dev_Backend_Dev_Graphic_Design_and_more" data-name="I teach full stack development! Which means you will see tutorials regarding UI/UX, Frontend Dev, Backend Dev, Graphic Design and more" d="M1.344-14.6V0H-1.05V-10L-5.5,0H-7.161l-4.473-10V0h-2.394V-14.6h2.583L-6.321-3.15l5.1-11.445ZM9.3.147A6.536,6.536,0,0,1,6.657-.368,4.342,4.342,0,0,1,4.809-1.827a3.706,3.706,0,0,1-.672-2.205H6.7a2.313,2.313,0,0,0,.745,1.554A2.643,2.643,0,0,0,9.3-1.869a2.862,2.862,0,0,0,1.932-.6,1.946,1.946,0,0,0,.693-1.544,1.686,1.686,0,0,0-.431-1.2,2.88,2.88,0,0,0-1.071-.714,16.151,16.151,0,0,0-1.774-.546,16.626,16.626,0,0,1-2.32-.766A3.835,3.835,0,0,1,4.809-8.442a3.49,3.49,0,0,1-.63-2.184,3.882,3.882,0,0,1,.63-2.205A4.024,4.024,0,0,1,6.573-14.28a6.409,6.409,0,0,1,2.625-.5,5.47,5.47,0,0,1,3.476,1.061,3.913,3.913,0,0,1,1.5,2.909H11.529a1.917,1.917,0,0,0-.756-1.365,2.8,2.8,0,0,0-1.827-.567,2.592,2.592,0,0,0-1.68.525,1.829,1.829,0,0,0-.651,1.512,1.535,1.535,0,0,0,.41,1.1,2.892,2.892,0,0,0,1.039.682,16.138,16.138,0,0,0,1.722.546,17.977,17.977,0,0,1,2.363.8A3.932,3.932,0,0,1,13.7-6.352a3.531,3.531,0,0,1,.641,2.215,3.984,3.984,0,0,1-.6,2.1A4.318,4.318,0,0,1,12-.452,5.747,5.747,0,0,1,9.3.147Z" transform="translate(65 217)" fill="#fff"/>
  </g>
</svg>
