<svg xmlns="http://www.w3.org/2000/svg" xmlns:xlink="http://www.w3.org/1999/xlink" width="357" height="239" viewBox="0 0 357 239">
  <defs>
    <filter id="Path_41548" x="0" y="0" width="357" height="239" filterUnits="userSpaceOnUse">
      <feOffset dy="3" input="SourceAlpha"/>
      <feGaussianBlur stdDeviation="3" result="blur"/>
      <feFlood flood-opacity="0.161"/>
      <feComposite operator="in" in2="blur"/>
      <feComposite in="SourceGraphic"/>
    </filter>
  </defs>
  <g id="Group_39196" data-name="Group 39196" transform="translate(-9 -181)">
    <g transform="matrix(1, 0, 0, 1, 9, 181)" filter="url(#Path_41548)">
      <path id="Path_41548-2" data-name="Path 41548" d="M7,0H332a7,7,0,0,1,7,7V214a7,7,0,0,1-7,7H7a7,7,0,0,1-7-7V7A7,7,0,0,1,7,0Z" transform="translate(9 6)" fill="#f4c615"/>
    </g>
    <path id="Path_41579" data-name="Path 41579" d="M-72.462,0-80.47-14.144H-83.9V0h-7.28V-36.3h13.624a15.909,15.909,0,0,1,7.176,1.482,10.353,10.353,0,0,1,4.446,4,10.928,10.928,0,0,1,1.482,5.642,10.807,10.807,0,0,1-2.08,6.474,10.685,10.685,0,0,1-6.188,3.978L-64.038,0ZM-83.9-19.6h6.084a6.079,6.079,0,0,0,4.42-1.43,5.322,5.322,0,0,0,1.456-3.978A5.077,5.077,0,0,0-73.4-28.886a6.225,6.225,0,0,0-4.42-1.378H-83.9ZM-50.57-30.42v9.1h12.22v5.772H-50.57v9.62h13.78V0H-57.85V-36.348h21.06v5.928Zm42.8-5.876v5.876H-22.906v9.308h11.6v5.772h-11.6V0h-7.28V-36.3ZM8.034-31.2v-6.708H20.566V0H13.078V-31.2Zm22,22.984q4.992-4.16,7.956-6.942a32.181,32.181,0,0,0,4.94-5.8A10.8,10.8,0,0,0,44.9-26.884a6.337,6.337,0,0,0-1.248-4.16,4.709,4.709,0,0,0-3.848-1.508,4.846,4.846,0,0,0-4,1.742,7.592,7.592,0,0,0-1.456,4.758H27.274q.208-6.24,3.718-9.464A12.672,12.672,0,0,1,39.91-38.74q5.928,0,9.1,3.146A11.163,11.163,0,0,1,52.182-27.3,14.994,14.994,0,0,1,50-19.552a30.663,30.663,0,0,1-4.992,6.422Q42.2-10.4,37.674-6.552h15.34V-.52H27.326V-5.928Zm53.664-17.16a8.522,8.522,0,0,0-3.432-3.484,10.444,10.444,0,0,0-5.1-1.2,11.141,11.141,0,0,0-5.72,1.456,10.056,10.056,0,0,0-3.9,4.16,13.35,13.35,0,0,0-1.4,6.24,13.382,13.382,0,0,0,1.43,6.344A10.124,10.124,0,0,0,69.55-7.7,11.74,11.74,0,0,0,75.478-6.24,10.283,10.283,0,0,0,82.29-8.45a10.548,10.548,0,0,0,3.484-6.162H73.294v-5.564H92.95v6.344a17.051,17.051,0,0,1-3.12,7.02,17.616,17.616,0,0,1-6.162,5.174,18.118,18.118,0,0,1-8.45,1.95,19.132,19.132,0,0,1-9.49-2.366,17.215,17.215,0,0,1-6.656-6.578A18.87,18.87,0,0,1,56.654-18.2a19.013,19.013,0,0,1,2.418-9.594,17.163,17.163,0,0,1,6.656-6.6,19.028,19.028,0,0,1,9.438-2.366,18.887,18.887,0,0,1,10.66,2.99,15.268,15.268,0,0,1,6.24,8.4Z" transform="translate(188 316)" fill="#fff"/>
  </g>
</svg>
