<svg xmlns="http://www.w3.org/2000/svg" xmlns:xlink="http://www.w3.org/1999/xlink" width="35" height="35" viewBox="0 0 35 35">
  <defs>
    <clipPath id="clip-path">
      <rect id="check_7_Background_Mask_" data-name="check 7 (Background/Mask)" width="35" height="35" fill="none"/>
    </clipPath>
  </defs>
  <g id="check_7" data-name="check 7" transform="translate(0 0.333)">
    <rect id="check_7_Background_Mask_2" data-name="check 7 (Background/Mask)" width="35" height="35" transform="translate(0 -0.333)" fill="none"/>
    <g id="check_7-2" data-name="check 7" transform="translate(0 -0.333)" clip-path="url(#clip-path)">
      <path id="Vector" d="M0,17.364A17.364,17.364,0,1,0,17.364,0,17.384,17.384,0,0,0,0,17.364Z" transform="translate(0 0.271)" fill="#226d96"/>
      <path id="Vector-2" data-name="Vector" d="M7.173,11.876a1.446,1.446,0,0,1-2.046,0l-4.7-4.7A1.447,1.447,0,0,1,2.47,5.127l3.68,3.68L14.533.424A1.447,1.447,0,0,1,16.579,2.47h0Z" transform="translate(9.586 11.486)" fill="#fafafa"/>
    </g>
  </g>
</svg>
