<svg xmlns="http://www.w3.org/2000/svg" width="32" height="32" viewBox="0 0 32 32">
  <g id="Group_40007" data-name="Group 40007" transform="translate(-0.103)">
    <circle id="Ellipse_603" data-name="Ellipse 603" cx="16" cy="16" r="16" transform="translate(0.103)" fill="#02adff"/>
    <path id="Path_43595" data-name="Path 43595" d="M10.45,19.743H3.085A3.088,3.088,0,0,1,0,16.658V6.208A3.088,3.088,0,0,1,3.085,3.123H10.45a3.088,3.088,0,0,1,3.085,3.085v10.45A3.088,3.088,0,0,1,10.45,19.743ZM3.085,4.666A1.544,1.544,0,0,0,1.542,6.208v10.45A1.544,1.544,0,0,0,3.085,18.2H10.45a1.544,1.544,0,0,0,1.542-1.542V6.208A1.544,1.544,0,0,0,10.45,4.666ZM16.619,14.73V3.085A3.088,3.088,0,0,0,13.535,0H4.974a.771.771,0,0,0,0,1.542h8.56a1.544,1.544,0,0,1,1.542,1.542V14.73a.771.771,0,1,0,1.542,0Zm0,0" transform="translate(7.353 6.434)" fill="#fff"/>
  </g>
</svg>
