<svg xmlns="http://www.w3.org/2000/svg" xmlns:xlink="http://www.w3.org/1999/xlink" width="55" height="55" viewBox="0 0 55 55">
  <defs>
    <clipPath id="clip-path">
      <rect id="Rectangle_21804" data-name="Rectangle 21804" width="55" height="55" transform="translate(1201 677)" fill="none" stroke="#707070" stroke-width="1"/>
    </clipPath>
  </defs>
  <g id="Mask_Group_3" data-name="Mask Group 3" transform="translate(-1201 -677)" clip-path="url(#clip-path)">
    <g id="Group_6012" data-name="Group 6012" transform="translate(1207 691)">
      <path id="Path_10929" data-name="Path 10929" d="M1187.9,382.637v1.172l-21.2,7.687-21.214-7.687v-1.172a3.087,3.087,0,0,1,3.089-3.072h36.252a3.084,3.084,0,0,1,3.071,3.072" transform="translate(-1145.49 -379.565)" fill="#387ea5"/>
      <path id="Path_10930" data-name="Path 10930" d="M1167.184,395.192,1187.9,387.7v16.581a3.072,3.072,0,0,1-3.071,3.072h-36.252a3.076,3.076,0,0,1-3.088-3.072V387.7l20.717,7.491a.156.156,0,0,0,.088.018.969.969,0,0,0,.391.071h.017a1.115,1.115,0,0,0,.409-.071c.017,0,.053-.018.071-.018" transform="translate(-1145.49 -380.298)" fill="#387ea5"/>
    </g>
  </g>
</svg>
