<svg xmlns="http://www.w3.org/2000/svg" width="36.837" height="36.837" viewBox="0 0 36.837 36.837">
  <g id="Group_39641" data-name="Group 39641" transform="translate(-295.068 -9058.163)">
    <path id="Path_42970" data-name="Path 42970" d="M124.837,18.418A18.418,18.418,0,1,1,106.418,0a18.419,18.419,0,0,1,18.418,18.418" transform="translate(207.068 9058.163)" fill="#fff"/>
    <path id="Path_42971" data-name="Path 42971" d="M103.44,5.6c1.584,0,3.168,0,4.752,0a4.914,4.914,0,0,1,5.044,5.034q.009,4.775,0,9.548a4.918,4.918,0,0,1-5.062,5.057q-4.752.007-9.5,0a4.916,4.916,0,0,1-5.064-5.054q-.009-4.754,0-9.51A4.92,4.92,0,0,1,98.688,5.6c1.584,0,3.168,0,4.752,0m0,5.739a4.081,4.081,0,1,0,4.063,4.106,4.061,4.061,0,0,0-4.063-4.106m6.515-1.251a1.2,1.2,0,0,0-1.219-1.2,1.219,1.219,0,0,0-1.222,1.209,1.245,1.245,0,0,0,1.249,1.231,1.218,1.218,0,0,0,1.191-1.239" transform="translate(210.064 9061.158)" fill="#216d96"/>
    <path id="Path_42972" data-name="Path 42972" d="M101.435,9.341a4.081,4.081,0,1,1-4.093,4.075,4.062,4.062,0,0,1,4.093-4.075" transform="translate(212.064 9063.159)" fill="#fff"/>
    <path id="Path_42973" data-name="Path 42973" d="M105.105,8.945a1.218,1.218,0,0,1-1.191,1.239,1.245,1.245,0,0,1-1.249-1.231,1.219,1.219,0,0,1,1.222-1.209,1.2,1.2,0,0,1,1.219,1.2" transform="translate(214.912 9062.305)" fill="#fff"/>
  </g>
</svg>
