<svg xmlns="http://www.w3.org/2000/svg" xmlns:xlink="http://www.w3.org/1999/xlink" width="55" height="55" viewBox="0 0 55 55">
  <defs>
    <clipPath id="clip-path">
      <rect id="Rectangle_21803" data-name="Rectangle 21803" width="55" height="55" transform="translate(1201 580)" fill="none" stroke="#707070" stroke-width="1"/>
    </clipPath>
  </defs>
  <g id="Mask_Group_4" data-name="Mask Group 4" transform="translate(-1201 -580)" clip-path="url(#clip-path)">
    <path id="Path_10928" data-name="Path 10928" d="M11.823,15.887a57.219,57.219,0,0,0,13.663,13.66l1.132-1.622c1.849-2.646,4.465-3.116,7.109-1.271q2.683,1.871,5.362,3.747a4.619,4.619,0,0,1,1.6,6.38A8.246,8.246,0,0,1,33.552,41.3a19.224,19.224,0,0,1-10.176-2.189A44.631,44.631,0,0,1,2.1,17.684,18.941,18.941,0,0,1,.056,7.878C.351,4.368,1.951,1.72,5.314.346a4.4,4.4,0,0,1,5.252,1.411c1.571,2.126,3.095,4.29,4.544,6.5a4.51,4.51,0,0,1-1.1,6.065c-.685.53-1.408,1.01-2.185,1.563" transform="translate(1208 587)" fill="#387ea5"/>
  </g>
</svg>
