<svg xmlns="http://www.w3.org/2000/svg" xmlns:xlink="http://www.w3.org/1999/xlink" width="210.513" height="210.542" viewBox="0 0 210.513 210.542">
  <defs>
    <clipPath id="clip-path">
      <rect id="Rectangle_21927" data-name="Rectangle 21927" width="210.513" height="210.542" fill="none"/>
    </clipPath>
  </defs>
  <g id="Group_39589" data-name="Group 39589" transform="translate(0 0)">
    <g id="Group_39588" data-name="Group 39588" transform="translate(0 0)" clip-path="url(#clip-path)">
      <path id="Path_1" data-name="Path 1" d="M77.168,21.242H91.687V28.46h14.466V43H98.992V64.762H91.77v21.8h14.383V93.8H99.025v7.235h-7.28V93.927H84.428v14.466l.033-.029H77.255v7.292h7.206l-.029-.029v7.292l.029-.033H69.9l.033.033V115.7H55.357v7.186H48.118l.029.033v-7.292H40.855l.033.029V101.1h-7.3l.033.033V93.837l-.033.029h7.333V79.289H55.431V64.778h7.247V57.523h7.255v7.3h7.231V72.1H62.723v7.157H84.366v-14.4c-2.464,0-4.845,0-7.227,0v-7.3H69.9v-7.19H84.481v7.116h7.161V42.955H84.412V28.46H77.2V21.209ZM69.852,86.668H48.188v21.668H69.852Z" transform="translate(104.335 65.877)" fill="#346d94"/>
      <path id="Path_2" data-name="Path 2" d="M121.115,43.376q0,10.908,0,21.82l.033-.033H106.6V57.9h7.21V50.722h-7.181v7.21H99.3v7.186H92.069v-14.4H77.537v7.206l.033-.029H70.257V50.664H63.018V36.195H55.784v14.47H41.2v7.264H19.441V50.635H34.026V36.182h7.231v7.136h7.235V28.849H55.7V21.614H48.5q.012-3.646.029-7.292l-.033.029h7.292V7.058l-.029.033q3.646-.018,7.292-.029V28.8h7.284v-7.19h7.243l-.029-.029v14.47h7.292V21.585l-.033.033h7.259V43.339h7.243V36.195h7.243v7.214h14.6Z" transform="translate(60.385 21.923)" fill="#346d94"/>
      <path id="Path_3" data-name="Path 3" d="M38.914,0h50.7V50.7h-50.7ZM46.6,43.054H81.986V7.635H46.6Z" transform="translate(120.869 0.007)" fill="#346d94"/>
      <path id="Path_4" data-name="Path 4" d="M0,0H50.7V50.7H0ZM7.67,43.066H43.048V7.635H7.67Z" transform="translate(0 0.007)" fill="#346d94"/>
      <path id="Path_5" data-name="Path 5" d="M50.673,89.657H.008V38.919H50.673Zm-7.6-43.1H7.633V81.946H43.072Z" transform="translate(0.025 120.885)" fill="#346d94"/>
      <path id="Path_6" data-name="Path 6" d="M29.012,32V24.747l-.033.029H50.795l-.029-.029v7.325H43.572v7.239h7.223v7.251H36.325v14.5h7.21q-.018,3.646-.033,7.292l.033-.033H36.276v7.223H7.283V68.382h7.108V46.575H0V32.105H7.156v7.1H14.44V31.974h14.6Q29.018,35.638,29,39.3h-7.21v28.96h7.181V39.274h7.218V32Z" transform="translate(0.009 76.866)" fill="#346d94"/>
      <path id="Path_7" data-name="Path 7" d="M46.94,106.4H32.417v7.259l.029-.037H25.219V99.209h7.1V91.925H25.182V70.159H10.626V62.826l-.029.033H25.124V48.3h7.259V26.516h7.325V41.1h7.14v7.276H39.717v7.243H46.87V62.85h-14.4V77.357h7.21V99.189h7.235v7.247Z" transform="translate(32.915 82.36)" fill="#346d94"/>
      <path id="Path_8" data-name="Path 8" d="M63.047,55.377H55.8V69.9H34.03v7.235h7.2V84.46l.033-.029H33.968v7.292L34,91.691H26.754v14.47H19.47V84.427l-.029.033h7.2V69.888H19.527V62.612H41.281V55.373h7.21V48.118H55.8V40.829h7.214V33.59h7.309v7.333h7.214V55.41l.033-.029H70.282l.029.029V48.2H63.019v7.21Z" transform="translate(60.385 104.333)" fill="#346d94"/>
      <path id="Path_9" data-name="Path 9" d="M12.608,37.722V30.495h-7.3V23.207l-.029.033c.411-.021.825-.053,1.236-.053h35.14V15.9l-.033.033q3.646-.018,7.292-.029V44.981H41.654v7.268q-3.646-.018-7.292-.033l.033.033V44.932H19.835V37.693H34.313V30.511H19.864v7.21q-3.64-.012-7.288-.029Z" transform="translate(16.409 49.393)" fill="#346d94"/>
      <path id="Path_10" data-name="Path 10" d="M75.347,45.972V67.705H31.839v-21.7h7.223l-.029-.033v14.47h7.292V45.976L46.3,46h7.292l-.029-.029V53.3h7.3v7.161h7.272V46h7.243Z" transform="translate(98.893 142.792)" fill="#346d94"/>
      <path id="Path_11" data-name="Path 11" d="M28.277,7.249h7.255V.006H57.356v7.2l.033-.033H50.183v7.292h7.206l-.033-.029v7.292l.033-.029q-7.274.012-14.552.029V14.525H35.6v7.206q-3.646-.012-7.288-.029l.033.029L28.306,7.216l-.029.033" transform="translate(87.83 0.019)" fill="#346d94"/>
      <path id="Path_12" data-name="Path 12" d="M30.238,46H37.5v7.2h7.247V46.055h7.21V60.487H44.811v7.206H30.3V60.561h-7.3V53.232l-.029.033h7.292V45.973Z" transform="translate(71.373 142.793)" fill="#346d94"/>
      <path id="Path_13" data-name="Path 13" d="M29.008,41.153H.015V33.947H7.123v-7.28H0v-7.2H14.44V33.853h7.239V26.659h7.329l-.033-.033V41.182Z" transform="translate(0.009 60.46)" fill="#346d94"/>
      <path id="Path_14" data-name="Path 14" d="M19.442,7.22h7.247V0h29.03V7.261l.029-.037c-4.8,0-9.588,0-14.494,0v7.2H34.018v7.227H26.751V14.509H19.475V7.188Z" transform="translate(60.388 0.007)" fill="#346d94"/>
      <path id="Path_15" data-name="Path 15" d="M15.936,21.537V14.286H30.41v-7.2H44.95v7.19l.033-.029H37.719v7.292H30.459V28.8H23.146V21.508H15.9Z" transform="translate(49.397 22.002)" fill="#346d94"/>
      <path id="Path_16" data-name="Path 16" d="M1.754,21.375H9.005V14.152H23.471v7.186H16.244v7.337l.029-.033H1.787v-7.3Z" transform="translate(5.448 43.957)" fill="#346d94"/>
      <path id="Path_17" data-name="Path 17" d="M35.9,7.2H21.328v7.288l.033-.029H14.155V0H35.864V7.231L35.9,7.2" transform="translate(43.966 0)" fill="#346d94"/>
      <path id="Path_18" data-name="Path 18" d="M30.577,21.4H8.852V14.167H30.573l-.029-.033v7.292Z" transform="translate(27.495 43.901)" fill="#346d94"/>
      <path id="Path_19" data-name="Path 19" d="M24.78,19.846V5.319H39.307l-.033-.029v7.292l.029-.029H32.011v7.292l.029-.029H24.747Z" transform="translate(76.865 16.431)" fill="#346d94"/>
      <path id="Path_20" data-name="Path 20" d="M55.007,28.66V21.408H47.764V14.153H62.152V28.631H54.974l.033.029" transform="translate(148.357 43.96)" fill="#346d94"/>
      <path id="Path_21" data-name="Path 21" d="M21.338,3.553h7.21V18h-14.4V10.845H21.37V3.52l-.033.033" transform="translate(43.957 10.934)" fill="#346d94"/>
      <path id="Path_22" data-name="Path 22" d="M60.457,24.906H45.995v-7.2H60.5l-.033-.029q-.018,3.628-.045,7.259Z" transform="translate(142.863 54.912)" fill="#346d94"/>
      <path id="Path_23" data-name="Path 23" d="M55,47.741V62.2H47.775V47.741l-.033.029h7.292Z" transform="translate(148.289 148.286)" fill="#346d94"/>
      <path id="Path_24" data-name="Path 24" d="M51.361,47.733V62.219H44.225V47.762h7.169l-.033-.029" transform="translate(137.365 148.261)" fill="#346d94"/>
      <path id="Path_25" data-name="Path 25" d="M14.164,25.156V10.629h7.268L21.4,10.6q.012,7.28.029,14.556-3.646-.012-7.292-.029Z" transform="translate(43.904 32.912)" fill="#346d94"/>
      <path id="Path_26" data-name="Path 26" d="M40.855,7.059q0,7.28,0,14.56l.029-.033h-7.3l.029.029V7.088h7.268Z" transform="translate(104.335 21.926)" fill="#346d94"/>
      <path id="Path_27" data-name="Path 27" d="M49.509,19.472h7.2v7.177H49.542v-7.21l-.033.033" transform="translate(153.777 60.379)" fill="#346d94"/>
      <path id="Path_28" data-name="Path 28" d="M44.235,21.359v-7.2h7.177v7.169H44.2l.033.033" transform="translate(137.294 43.973)" fill="#346d94"/>
      <rect id="Rectangle_21916" data-name="Rectangle 21916" width="7.14" height="7.12" transform="translate(0.004 130.757)" fill="#346d94"/>
      <path id="Path_29" data-name="Path 29" d="M7.21,21.332H.008V14.155H7.177v7.21l.033-.033" transform="translate(0.025 43.966)" fill="#346d94"/>
      <path id="Path_30" data-name="Path 30" d="M37.346,46.16H30.083V38.9l-.029.033h7.292l-.029-.029v7.292Z" transform="translate(93.349 120.813)" fill="#346d94"/>
      <path id="Path_31" data-name="Path 31" d="M39.086,40.665v7.259H31.826l.033.033q-.006-3.646-.008-7.292l-.029.033h7.292Z" transform="translate(98.841 126.308)" fill="#346d94"/>
      <path id="Path_32" data-name="Path 32" d="M22.978,8.857h7.3l-.033-.029.025,7.292H22.982q.012-3.646.029-7.292l-.033.029" transform="translate(71.371 27.421)" fill="#346d94"/>
      <path id="Path_33" data-name="Path 33" d="M37.252,42.433v7.2H30.075V42.466h7.21l-.033-.033" transform="translate(93.414 131.799)" fill="#346d94"/>
      <path id="Path_34" data-name="Path 34" d="M45.972,42.464h7.264v7.264l.033-.029H45.976l.029.029V42.435Z" transform="translate(142.791 131.806)" fill="#346d94"/>
      <path id="Path_35" data-name="Path 35" d="M49.553,49.685V42.458h7.136v7.2H49.52l.033.029" transform="translate(153.811 131.877)" fill="#346d94"/>
      <path id="Path_36" data-name="Path 36" d="M33.621,51.5V44.232h7.268l-.033-.029V51.5l.029-.029H33.592Z" transform="translate(104.338 137.297)" fill="#346d94"/>
      <path id="Path_37" data-name="Path 37" d="M47.741,44.233q3.671.012,7.338.029l-.033-.029Q55.027,47.867,55,51.5l.033-.029H47.745l.029.029V44.2Z" transform="translate(148.286 137.3)" fill="#346d94"/>
      <path id="Path_38" data-name="Path 38" d="M35.359,5.319h7.2V12.55h-7.2l.033.033V5.29Z" transform="translate(109.828 16.432)" fill="#346d94"/>
      <path id="Path_39" data-name="Path 39" d="M53.3,53.239q-3.671-.012-7.338-.029l.033.029.037-7.268L46,46H53.3l-.029-.029v7.292Z" transform="translate(142.763 142.788)" fill="#346d94"/>
      <path id="Path_40" data-name="Path 40" d="M49.51,46h7.2v7.235h-7.2l.033.029V45.973Z" transform="translate(153.78 142.795)" fill="#346d94"/>
      <path id="Path_41" data-name="Path 41" d="M15.937,55.06l.025-7.329-.029.033H23.11v7.264H15.9l.033.033" transform="translate(49.399 148.255)" fill="#346d94"/>
      <path id="Path_42" data-name="Path 42" d="M35.36,1.782h7.2V9.017h-7.2l.033.029V1.753Z" transform="translate(109.83 5.445)" fill="#346d94"/>
      <path id="Path_43" data-name="Path 43" d="M21.333,49.508v7.2H14.156V49.541h7.21l-.033-.033" transform="translate(43.969 153.775)" fill="#346d94"/>
      <path id="Path_44" data-name="Path 44" d="M68.542,72.079H54.015V86.6H39.508v7.264H17.672V86.614H32.183V64.848H46.755V43l-.033.029q3.646-.018,7.292-.033V50.21h7.177V43.024H53.986q.012-3.646.033-7.288l-.033.029h7.292V28.473l-.029.029h7.292V21.209l-.029.033h7.251v7.214h14.5v7.313h14.585l-.029-.029V50.255H97.6V57.5H83.061v7.247h-7.2V50.313h7.116v-14.5H75.822v7.149h-7.28Zm-14.5-7.329H61.2v-7.14H54.043Z" transform="translate(54.89 65.877)" fill="#346d94"/>
      <path id="Path_45" data-name="Path 45" d="M28.285,17.672h7.292q-.018,7.28-.029,14.556l.029-.033H28.285l.033.033q-.018-7.28-.033-14.556" transform="translate(87.855 54.89)" fill="#346d94"/>
      <path id="Path_46" data-name="Path 46" d="M38.929,30.206V23H46.16v7.2l.029-.033q-3.646.006-7.292.008l.033.033" transform="translate(120.813 71.439)" fill="#346d94"/>
      <path id="Path_47" data-name="Path 47" d="M33.59,19.472h7.2v7.177H33.623v-7.21l-.033.033" transform="translate(104.332 60.379)" fill="#346d94"/>
      <path id="Path_48" data-name="Path 48" d="M40.665,24.778h7.2v7.177H40.7v-7.21l-.033.033" transform="translate(126.307 76.86)" fill="#346d94"/>
      <rect id="Rectangle_21917" data-name="Rectangle 21917" width="7.128" height="7.124" transform="translate(145.284 130.728)" fill="#346d94"/>
      <rect id="Rectangle_21918" data-name="Rectangle 21918" width="7.161" height="7.112" transform="translate(159.775 159.795)" fill="#346d94"/>
      <rect id="Rectangle_21919" data-name="Rectangle 21919" width="7.292" height="7.292" transform="translate(72.562 65.298)" fill="#346d94"/>
      <rect id="Rectangle_21920" data-name="Rectangle 21920" width="7.292" height="7.292" transform="translate(65.303 58.035)" fill="#346d94"/>
      <rect id="Rectangle_21921" data-name="Rectangle 21921" width="7.292" height="7.198" transform="translate(79.826 50.771)" fill="#346d94"/>
      <path id="Path_49" data-name="Path 49" d="M24.748,10.6H32.04v7.292H24.748Z" transform="translate(76.868 32.912)" fill="#346d94"/>
      <path id="Path_50" data-name="Path 50" d="M21.21,10.6H28.5v7.292H21.21Z" transform="translate(65.879 32.912)" fill="#346d94"/>
      <path id="Path_51" data-name="Path 51" d="M15.9,41.256V33.964h7.243V19.441h7.309V26.68H44.934V41.261h7.313l-.029-.033V48.52l.033-.029H37.756v7.2H30.427V41.232h7.214V34.05H30.456v7.21q-7.274-.006-14.552,0" transform="translate(49.399 60.385)" fill="#346d94"/>
      <path id="Path_52" data-name="Path 52" d="M24.777,35.769V21.242H39.3l-.033-.033V28.5l.033-.029H32.012v7.292l.029-.029H24.748Z" transform="translate(76.868 65.877)" fill="#346d94"/>
      <rect id="Rectangle_21922" data-name="Rectangle 21922" width="7.292" height="7.292" transform="translate(123.403 21.721)" fill="#346d94"/>
      <rect id="Rectangle_21923" data-name="Rectangle 21923" width="21.651" height="21.651" transform="translate(174.335 14.523)" fill="#346d94"/>
      <rect id="Rectangle_21924" data-name="Rectangle 21924" width="21.651" height="21.647" transform="translate(14.564 14.552)" fill="#346d94"/>
      <rect id="Rectangle_21925" data-name="Rectangle 21925" width="21.655" height="21.651" transform="translate(14.531 174.339)" fill="#346d94"/>
      <path id="Path_53" data-name="Path 53" d="M14.135,24.747h7.292v7.292H14.135Z" transform="translate(43.904 76.866)" fill="#346d94"/>
      <path id="Path_54" data-name="Path 54" d="M12.366,37.345V30.053h7.292v7.292Z" transform="translate(38.409 93.346)" fill="#346d94"/>
      <rect id="Rectangle_21926" data-name="Rectangle 21926" width="7.292" height="7.292" transform="translate(43.512 130.663)" fill="#346d94"/>
    </g>
  </g>
</svg>
