<svg xmlns="http://www.w3.org/2000/svg" width="90" height="90" viewBox="0 0 90 90">
  <g id="Group_39997" data-name="Group 39997" transform="translate(-16 -676.107)">
    <path id="Oval" d="M45,0A45,45,0,1,1,0,45,45,45,0,0,1,45,0Z" transform="translate(16 676.107)" fill="#216d96"/>
    <g id="Group_39810" data-name="Group 39810" transform="translate(38.789 698.904)">
      <path id="Path_43426" data-name="Path 43426" d="M6.343,6.343h6.343v6.343H6.343ZM0,19.03H19.044V0H0Z" fill="#fff"/>
      <path id="Path_43427" data-name="Path 43427" d="M6.343,24.384h6.343v6.343H6.343ZM0,37.071H19.044V18.039H0Z" transform="translate(0 7.333)" fill="#fff"/>
      <rect id="Rectangle_21925" data-name="Rectangle 21925" width="3.179" height="3.165" transform="translate(34.901 41.242)" fill="#fff"/>
      <path id="Path_43428" data-name="Path 43428" d="M24.393,6.343h6.343v6.343H24.393ZM18.05,19.03H37.08V0H18.05Z" transform="translate(7.338)" fill="#fff"/>
      <path id="Path_43429" data-name="Path 43429" d="M33.906,18.042v3.179H27.562V18.042H18.053v19.03H24.4V27.565h3.165v3.165h9.522V18.042Z" transform="translate(7.339 7.335)" fill="#fff"/>
      <rect id="Rectangle_21926" data-name="Rectangle 21926" width="3.179" height="3.165" transform="translate(41.245 41.242)" fill="#fff"/>
      <path id="Path_43430" data-name="Path 43430" d="M34.9,44.4h3.179V41.239H34.9Zm6.343,0h3.179V41.239H41.239ZM6.343,31.717h6.343V38.06H6.343ZM0,44.4H19.044V25.372H0Zm41.239-19.03v3.179H34.9V25.374H25.388V44.4h6.343V34.9H34.9V38.06h9.522V25.374ZM6.343,6.343h6.343v6.343H6.343ZM0,19.03H19.044V0H0ZM31.731,6.343h6.343v6.343H31.731ZM25.388,19.03h19.03V0H25.388Z" fill="#fff"/>
    </g>
  </g>
</svg>
