<svg xmlns="http://www.w3.org/2000/svg" width="65.315" height="65.315" viewBox="0 0 65.315 65.315">
  <g id="Group_7056" data-name="Group 7056" transform="translate(0 100)">
    <g id="Group_3965" data-name="Group 3965" transform="translate(13.712 -80.319)">
      <path id="Path_9524" data-name="Path 9524" d="M35.835,59.17a2,2,0,0,1-1.467-.642L22.4,45.567a2,2,0,1,1,2.934-2.708L35.83,54.226,56.3,31.9a2,2,0,0,1,2.943,2.7L37.307,58.523A1.99,1.99,0,0,1,35.835,59.17Z" transform="translate(-21.875 -31.25)" fill="#1ed66c"/>
    </g>
    <g id="Group_3966" data-name="Group 3966" transform="translate(0 -100)">
      <path id="Path_9525" data-name="Path 9525" d="M32.658,65.315A32.666,32.666,0,0,1,19.945,2.567,32.665,32.665,0,0,1,45.37,62.748,32.453,32.453,0,0,1,32.658,65.315Zm0-61.323A28.673,28.673,0,0,0,21.5,59.071,28.673,28.673,0,0,0,43.814,6.244,28.482,28.482,0,0,0,32.658,3.992Z" transform="translate(0 0)" fill="#1ed66c"/>
    </g>
  </g>
</svg>
