<svg xmlns="http://www.w3.org/2000/svg" xmlns:xlink="http://www.w3.org/1999/xlink" width="127.119" height="127.119" viewBox="0 0 127.119 127.119">
  <defs>
    <linearGradient id="linear-gradient" x1="0.5" x2="0.5" y2="1" gradientUnits="objectBoundingBox">
      <stop offset="0" stop-color="#373464"/>
      <stop offset="1" stop-color="#216d96"/>
    </linearGradient>
  </defs>
  <g id="Group_39590" data-name="Group 39590" transform="translate(-8575 -2196)">
    <path id="Path_43646" data-name="Path 43646" d="M25.424,0H101.7a25.424,25.424,0,0,1,25.424,25.424V101.7A25.424,25.424,0,0,1,101.7,127.119H25.424A25.424,25.424,0,0,1,0,101.7V25.424A25.424,25.424,0,0,1,25.424,0Z" transform="translate(8575 2196)" fill="url(#linear-gradient)"/>
    <path id="Path_43644" data-name="Path 43644" d="M349.516,2332.5,368.4,2313.61v-10.348l-8.936,8.936c-.426-.7-.886-1.38-1.383-2.041l10.318-10.318v-10.351l-15.447,15.447a27.944,27.944,0,0,0-16.8-5.524c-15.541,0-27.26,11.646-27.26,27.09a27.355,27.355,0,0,0,5.679,16.818l-13.235,13.234V2366.9l18.545-18.544c.67.485,1.362.936,2.071,1.354l-20.615,20.612v10.352l10.023-10.019a27.193,27.193,0,0,0,22.228,11.074c15.539,0,27.258-11.645,27.258-27.086A26.763,26.763,0,0,0,349.516,2332.5Zm-7.679,7.68a15.868,15.868,0,0,1,8.641,14.468c0,9.361-7.262,16.426-16.891,16.426a16.63,16.63,0,0,1-14.662-7.979Zm-14.324.551,23.039-23.04a15.925,15.925,0,0,1,1.171,2.251L329.864,2341.8A17.12,17.12,0,0,1,327.513,2340.726Zm-5.437-4.914a16.362,16.362,0,0,1-2.815-9.312c0-9.364,7.262-16.426,16.891-16.426a17.651,17.651,0,0,1,9.178,2.485Z" transform="translate(8304.174 -78.234)" fill="#fff"/>
  </g>
</svg>
