<svg xmlns="http://www.w3.org/2000/svg" width="36.837" height="36.837" viewBox="0 0 36.837 36.837">
  <g id="Group_39643" data-name="Group 39643" transform="translate(-430.137 -9058.163)">
    <path id="Path_42968" data-name="Path 42968" d="M212.837,18.418A18.418,18.418,0,1,1,194.418,0a18.419,18.419,0,0,1,18.418,18.418" transform="translate(254.137 9058.163)" fill="#fff"/>
    <path id="Path_42969" data-name="Path 42969" d="M199.54,6.468c-.161.175-.282.312-.407.444q-2.482,2.666-4.967,5.329c-.419.448-.835.9-1.259,1.341a.168.168,0,0,0-.02.262q2.086,2.781,4.164,5.568l2.9,3.876c.035.048.069.1.126.18-.1.006-.158.012-.221.012q-2.4,0-4.8,0a.3.3,0,0,1-.276-.137q-2.049-2.751-4.1-5.5c-.255-.342-.511-.685-.783-1.047-.137.143-.258.269-.378.4l-4.95,5.3c-.276.295-.551.592-.832.884a.282.282,0,0,1-.164.1c-.447.008-.895,0-1.383,0a1.781,1.781,0,0,1,.107-.15q2.086-2.231,4.173-4.459c.881-.941,1.757-1.883,2.64-2.821a.17.17,0,0,0,.018-.264q-1.4-1.867-2.8-3.74l-2.784-3.73c-.41-.551-.823-1.1-1.233-1.65-.04-.052-.077-.107-.137-.195.1-.008.161-.015.224-.015,1.595,0,3.191,0,4.786,0a.337.337,0,0,1,.3.158q2.235,2.993,4.476,5.978c.051.068.106.13.175.213.282-.3.551-.586.818-.872q1.78-1.9,3.558-3.8c.473-.5.947-1.011,1.415-1.521a.421.421,0,0,1,.352-.155c.342.011.686,0,1.03,0,.06,0,.118.006.238.012m-1.635,15.874c-.041-.069-.061-.112-.089-.149q-1.084-1.45-2.17-2.9-1.869-2.5-3.74-4.99-2.466-3.29-4.928-6.583a.3.3,0,0,0-.276-.138c-.7,0-1.4,0-2.1,0-.057,0-.112.006-.2.011.072.106.118.177.169.244q.624.833,1.248,1.662,3.133,4.181,6.265,8.363,1.6,2.134,3.192,4.273a.477.477,0,0,0,.442.219c.655-.014,1.312,0,1.969-.006.063,0,.127,0,.221-.009" transform="translate(257.434 9061.613)" fill="#216d96"/>
  </g>
</svg>
