<svg xmlns="http://www.w3.org/2000/svg" xmlns:xlink="http://www.w3.org/1999/xlink" width="357" height="239" viewBox="0 0 357 239">
  <defs>
    <filter id="Path_41548" x="0" y="0" width="357" height="239" filterUnits="userSpaceOnUse">
      <feOffset dy="3" input="SourceAlpha"/>
      <feGaussianBlur stdDeviation="3" result="blur"/>
      <feFlood flood-opacity="0.161"/>
      <feComposite operator="in" in2="blur"/>
      <feComposite in="SourceGraphic"/>
    </filter>
  </defs>
  <g id="Group_39205" data-name="Group 39205" transform="translate(-9 -181)">
    <g transform="matrix(1, 0, 0, 1, 9, 181)" filter="url(#Path_41548)">
      <path id="Path_41548-2" data-name="Path 41548" d="M7,0H332a7,7,0,0,1,7,7V214a7,7,0,0,1-7,7H7a7,7,0,0,1-7-7V7A7,7,0,0,1,7,0Z" transform="translate(9 6)" fill="#10a9dc"/>
    </g>
    <path id="Path_41588" data-name="Path 41588" d="M-92.482-8.216q4.992-4.16,7.956-6.942a32.181,32.181,0,0,0,4.94-5.8,10.8,10.8,0,0,0,1.976-5.928,6.337,6.337,0,0,0-1.248-4.16,4.709,4.709,0,0,0-3.848-1.508,4.846,4.846,0,0,0-4,1.742,7.592,7.592,0,0,0-1.456,4.758h-7.072q.208-6.24,3.718-9.464A12.672,12.672,0,0,1-82.6-38.74q5.928,0,9.1,3.146A11.163,11.163,0,0,1-70.33-27.3a14.994,14.994,0,0,1-2.184,7.748,30.663,30.663,0,0,1-4.992,6.422q-2.808,2.73-7.332,6.578H-69.5V-.52H-95.186V-5.928Zm53.04-23.4H-56.29v8.892a7.83,7.83,0,0,1,3.12-2.21,10.962,10.962,0,0,1,4.316-.858,11.789,11.789,0,0,1,6.812,1.82,10.531,10.531,0,0,1,3.848,4.654A15.419,15.419,0,0,1-37-13.26,13.511,13.511,0,0,1-40.4-3.64Q-43.81,0-50.1,0q-5.928,0-9.464-2.964a11.123,11.123,0,0,1-4-7.748H-56.5a5.589,5.589,0,0,0,2.106,3.328,6.713,6.713,0,0,0,4.186,1.248A5.606,5.606,0,0,0-45.578-8.06a7.845,7.845,0,0,0,1.56-5.1A6.923,6.923,0,0,0-45.6-18.07a6.078,6.078,0,0,0-4.654-1.69,5.9,5.9,0,0,0-3.64,1.092,5.956,5.956,0,0,0-2.08,2.912h-6.968V-38.012h23.5Zm8.008,12.168q0-9,3.25-14.092t10.79-5.1q7.54,0,10.79,5.1t3.25,14.092q0,9.048-3.25,14.2T-17.394-.1q-7.54,0-10.79-5.148T-31.434-19.448Zm20.9,0a35.775,35.775,0,0,0-.494-6.474A8.724,8.724,0,0,0-13-30.212a5.579,5.579,0,0,0-4.394-1.664,5.579,5.579,0,0,0-4.394,1.664,8.724,8.724,0,0,0-1.976,4.29,35.775,35.775,0,0,0-.494,6.474,39.414,39.414,0,0,0,.468,6.63A8.322,8.322,0,0,0-21.814-8.5a5.711,5.711,0,0,0,4.42,1.638A5.711,5.711,0,0,0-12.974-8.5,8.322,8.322,0,0,0-11-12.818,39.414,39.414,0,0,0-10.53-19.448Zm51.168-5.928a8.522,8.522,0,0,0-3.432-3.484,10.444,10.444,0,0,0-5.1-1.2A11.141,11.141,0,0,0,26.39-28.6a10.056,10.056,0,0,0-3.9,4.16,13.35,13.35,0,0,0-1.4,6.24,13.382,13.382,0,0,0,1.43,6.344A10.124,10.124,0,0,0,26.494-7.7,11.74,11.74,0,0,0,32.422-6.24a10.283,10.283,0,0,0,6.812-2.21,10.548,10.548,0,0,0,3.484-6.162H30.238v-5.564H49.894v6.344a17.051,17.051,0,0,1-3.12,7.02,17.616,17.616,0,0,1-6.162,5.174,18.118,18.118,0,0,1-8.45,1.95,19.132,19.132,0,0,1-9.49-2.366,17.215,17.215,0,0,1-6.656-6.578A18.87,18.87,0,0,1,13.6-18.2a19.013,19.013,0,0,1,2.418-9.594,17.163,17.163,0,0,1,6.656-6.6,19.028,19.028,0,0,1,9.438-2.366,18.887,18.887,0,0,1,10.66,2.99,15.268,15.268,0,0,1,6.24,8.4Zm35.256,6.76a8.157,8.157,0,0,1,5.044,3.068,8.96,8.96,0,0,1,1.976,5.72,9.218,9.218,0,0,1-1.43,5.122A9.523,9.523,0,0,1,77.35-1.248,15.146,15.146,0,0,1,70.954,0H55.3V-36.3H70.278a15.531,15.531,0,0,1,6.37,1.2A9.07,9.07,0,0,1,80.7-31.772a8.714,8.714,0,0,1,1.378,4.836,8.272,8.272,0,0,1-1.69,5.3A9.042,9.042,0,0,1,75.894-18.616Zm-13.312-2.7h6.656a6.094,6.094,0,0,0,4-1.17,4.12,4.12,0,0,0,1.4-3.354,4.2,4.2,0,0,0-1.4-3.38,6,6,0,0,0-4-1.2H62.582ZM69.914-5.928a6.23,6.23,0,0,0,4.134-1.248,4.367,4.367,0,0,0,1.482-3.536,4.554,4.554,0,0,0-1.56-3.666A6.29,6.29,0,0,0,69.758-15.7H62.582v9.776Z" transform="translate(188 316)" fill="#fff"/>
  </g>
</svg>
