<svg xmlns="http://www.w3.org/2000/svg" xmlns:xlink="http://www.w3.org/1999/xlink" width="357" height="239" viewBox="0 0 357 239">
  <defs>
    <filter id="Path_41548" x="0" y="0" width="357" height="239" filterUnits="userSpaceOnUse">
      <feOffset dy="3" input="SourceAlpha"/>
      <feGaussianBlur stdDeviation="3" result="blur"/>
      <feFlood flood-opacity="0.161"/>
      <feComposite operator="in" in2="blur"/>
      <feComposite in="SourceGraphic"/>
    </filter>
  </defs>
  <g id="Group_39206" data-name="Group 39206" transform="translate(-9 -181)">
    <g transform="matrix(1, 0, 0, 1, 9, 181)" filter="url(#Path_41548)">
      <path id="Path_41548-2" data-name="Path 41548" d="M7,0H332a7,7,0,0,1,7,7V214a7,7,0,0,1-7,7H7a7,7,0,0,1-7-7V7A7,7,0,0,1,7,0Z" transform="translate(9 6)" fill="#10a9dc"/>
    </g>
    <path id="Path_41589" data-name="Path 41589" d="M-97.4-7.384V-13.1l17-24.336h8.476v23.712h4.576v6.344h-4.576V0H-79.2V-7.384ZM-78.728-29.64l-10.66,15.912h10.66Zm16.016,10.192q0-9,3.25-14.092t10.79-5.1q7.54,0,10.79,5.1t3.25,14.092q0,9.048-3.25,14.2T-48.672-.1q-7.54,0-10.79-5.148T-62.712-19.448Zm20.9,0a35.775,35.775,0,0,0-.494-6.474,8.724,8.724,0,0,0-1.976-4.29,5.579,5.579,0,0,0-4.394-1.664,5.579,5.579,0,0,0-4.394,1.664,8.724,8.724,0,0,0-1.976,4.29,35.775,35.775,0,0,0-.494,6.474,39.414,39.414,0,0,0,.468,6.63A8.322,8.322,0,0,0-53.092-8.5a5.711,5.711,0,0,0,4.42,1.638A5.711,5.711,0,0,0-44.252-8.5a8.322,8.322,0,0,0,1.976-4.316A39.414,39.414,0,0,0-41.808-19.448Zm12.688,0q0-9,3.25-14.092t10.79-5.1q7.54,0,10.79,5.1t3.25,14.092q0,9.048-3.25,14.2T-15.08-.1q-7.54,0-10.79-5.148T-29.12-19.448Zm20.9,0a35.775,35.775,0,0,0-.494-6.474,8.724,8.724,0,0,0-1.976-4.29,5.579,5.579,0,0,0-4.394-1.664,5.579,5.579,0,0,0-4.394,1.664,8.724,8.724,0,0,0-1.976,4.29,35.775,35.775,0,0,0-.494,6.474,39.414,39.414,0,0,0,.468,6.63A8.322,8.322,0,0,0-19.5-8.5a5.711,5.711,0,0,0,4.42,1.638A5.711,5.711,0,0,0-10.66-8.5a8.322,8.322,0,0,0,1.976-4.316A39.414,39.414,0,0,0-8.216-19.448Zm51.168-5.928A8.522,8.522,0,0,0,39.52-28.86a10.444,10.444,0,0,0-5.1-1.2A11.141,11.141,0,0,0,28.7-28.6a10.056,10.056,0,0,0-3.9,4.16,13.35,13.35,0,0,0-1.4,6.24,13.382,13.382,0,0,0,1.43,6.344A10.124,10.124,0,0,0,28.808-7.7,11.74,11.74,0,0,0,34.736-6.24a10.283,10.283,0,0,0,6.812-2.21,10.548,10.548,0,0,0,3.484-6.162H32.552v-5.564H52.208v6.344a17.051,17.051,0,0,1-3.12,7.02,17.616,17.616,0,0,1-6.162,5.174,18.118,18.118,0,0,1-8.45,1.95,19.132,19.132,0,0,1-9.49-2.366A17.215,17.215,0,0,1,18.33-8.632,18.87,18.87,0,0,1,15.912-18.2a19.013,19.013,0,0,1,2.418-9.594,17.163,17.163,0,0,1,6.656-6.6,19.028,19.028,0,0,1,9.438-2.366,18.887,18.887,0,0,1,10.66,2.99,15.268,15.268,0,0,1,6.24,8.4Zm35.256,6.76a8.157,8.157,0,0,1,5.044,3.068,8.96,8.96,0,0,1,1.976,5.72A9.218,9.218,0,0,1,83.8-4.706a9.523,9.523,0,0,1-4.134,3.458A15.146,15.146,0,0,1,73.268,0H57.616V-36.3H72.592a15.531,15.531,0,0,1,6.37,1.2,9.07,9.07,0,0,1,4.056,3.328A8.714,8.714,0,0,1,84.4-26.936a8.272,8.272,0,0,1-1.69,5.3A9.042,9.042,0,0,1,78.208-18.616ZM64.9-21.32h6.656a6.094,6.094,0,0,0,4-1.17,4.12,4.12,0,0,0,1.4-3.354,4.2,4.2,0,0,0-1.4-3.38,6,6,0,0,0-4-1.2H64.9ZM72.228-5.928a6.23,6.23,0,0,0,4.134-1.248,4.367,4.367,0,0,0,1.482-3.536,4.554,4.554,0,0,0-1.56-3.666A6.29,6.29,0,0,0,72.072-15.7H64.9v9.776Z" transform="translate(188 316)" fill="#fff"/>
  </g>
</svg>
