<svg xmlns="http://www.w3.org/2000/svg" width="54" height="54" viewBox="0 0 54 54">
  <g id="Group_39232" data-name="Group 39232" transform="translate(-38 -394)">
    <circle id="Ellipse_749" data-name="Ellipse 749" cx="27" cy="27" r="27" transform="translate(38 394)" fill="#10a9dc"/>
    <path id="I_teach_full_stack_development_Which_means_you_will_see_tutorials_regarding_UI_UX_Frontend_Dev_Backend_Dev_Graphic_Design_and_more" data-name="I teach full stack development! Which means you will see tutorials regarding UI/UX, Frontend Dev, Backend Dev, Graphic Design and more" d="M-9.18-10.08a2.164,2.164,0,0,0-.72-1.242,2.291,2.291,0,0,0-1.458-.414,2.356,2.356,0,0,0-2.124,1.089,7.134,7.134,0,0,0-.738,3.609,3.1,3.1,0,0,1,1.368-1.224,4.434,4.434,0,0,1,1.944-.432,4.193,4.193,0,0,1,2.1.513A3.577,3.577,0,0,1-7.389-6.7a4.913,4.913,0,0,1,.513,2.322,4.963,4.963,0,0,1-.495,2.25A3.67,3.67,0,0,1-8.838-.567,4.567,4.567,0,0,1-11.178,0a4.626,4.626,0,0,1-2.907-.819,4.314,4.314,0,0,1-1.476-2.313,13.91,13.91,0,0,1-.423-3.726q0-6.588,4.644-6.588a3.976,3.976,0,0,1,2.835.972A3.851,3.851,0,0,1-7.29-10.08Zm-2.178,3.114a2.761,2.761,0,0,0-1.863.657,2.366,2.366,0,0,0-.765,1.9,2.7,2.7,0,0,0,.711,1.971,2.651,2.651,0,0,0,1.989.729,2.334,2.334,0,0,0,1.791-.7,2.629,2.629,0,0,0,.657-1.872,2.857,2.857,0,0,0-.639-1.953A2.368,2.368,0,0,0-11.358-6.966Zm6.678.234A9.478,9.478,0,0,1-3.627-11.6,3.883,3.883,0,0,1,0-13.356,3.883,3.883,0,0,1,3.627-11.6,9.478,9.478,0,0,1,4.68-6.732,9.665,9.665,0,0,1,3.627-1.809,3.871,3.871,0,0,1,0-.036,3.871,3.871,0,0,1-3.627-1.809,9.665,9.665,0,0,1-4.68-6.732Zm7.344,0A13.648,13.648,0,0,0,2.475-9.2a3.312,3.312,0,0,0-.765-1.647A2.185,2.185,0,0,0,0-11.484a2.185,2.185,0,0,0-1.71.639A3.312,3.312,0,0,0-2.475-9.2a13.648,13.648,0,0,0-.189,2.466,15.028,15.028,0,0,0,.18,2.538,3.176,3.176,0,0,0,.765,1.656A2.232,2.232,0,0,0,0-1.908a2.232,2.232,0,0,0,1.719-.63,3.176,3.176,0,0,0,.765-1.656A15.028,15.028,0,0,0,2.664-6.732Zm4.194,0A9.478,9.478,0,0,1,7.911-11.6a3.883,3.883,0,0,1,3.627-1.755A3.883,3.883,0,0,1,15.165-11.6a9.478,9.478,0,0,1,1.053,4.869,9.665,9.665,0,0,1-1.053,4.923A3.871,3.871,0,0,1,11.538-.036,3.871,3.871,0,0,1,7.911-1.809,9.665,9.665,0,0,1,6.858-6.732Zm7.344,0A13.648,13.648,0,0,0,14.013-9.2a3.312,3.312,0,0,0-.765-1.647,2.185,2.185,0,0,0-1.71-.639,2.185,2.185,0,0,0-1.71.639A3.312,3.312,0,0,0,9.063-9.2a13.648,13.648,0,0,0-.189,2.466,15.028,15.028,0,0,0,.18,2.538,3.176,3.176,0,0,0,.765,1.656,2.232,2.232,0,0,0,1.719.63,2.232,2.232,0,0,0,1.719-.63,3.176,3.176,0,0,0,.765-1.656A15.028,15.028,0,0,0,14.2-6.732ZM-2.223,9.09a3.307,3.307,0,0,0-1.35-1.413,4.066,4.066,0,0,0-2-.477,4.366,4.366,0,0,0-2.214.558A3.91,3.91,0,0,0-9.306,9.342a4.96,4.96,0,0,0-.549,2.376A5.014,5.014,0,0,0-9.306,14.1,3.9,3.9,0,0,0-7.785,15.7a4.366,4.366,0,0,0,2.214.558,3.917,3.917,0,0,0,2.718-.936A4.068,4.068,0,0,0-1.575,12.78h-4.7V11.142H.621v1.6A6.158,6.158,0,0,1-.414,15.426a6.157,6.157,0,0,1-2.178,1.953,6.135,6.135,0,0,1-2.979.729,6.465,6.465,0,0,1-3.222-.819,6.106,6.106,0,0,1-2.313-2.277,6.389,6.389,0,0,1-.855-3.294,6.389,6.389,0,0,1,.855-3.294A6.088,6.088,0,0,1-8.784,6.147a6.48,6.48,0,0,1,3.213-.819,6.527,6.527,0,0,1,3.555.981A5.586,5.586,0,0,1,.243,9.09ZM9.333,11.574a2.766,2.766,0,0,1,1.71,1.062,3.211,3.211,0,0,1,.207,3.717,3.355,3.355,0,0,1-1.431,1.206A5.059,5.059,0,0,1,7.641,18h-5V5.49h4.77a5.12,5.12,0,0,1,2.2.432,3.223,3.223,0,0,1,1.386,1.161,2.952,2.952,0,0,1,.468,1.629,2.79,2.79,0,0,1-.576,1.8A3.353,3.353,0,0,1,9.333,11.574Zm-4.644-.828H7.227A2.438,2.438,0,0,0,8.8,10.287a1.6,1.6,0,0,0,.567-1.323A1.635,1.635,0,0,0,8.8,7.641a2.374,2.374,0,0,0-1.575-.477H4.689Zm2.772,5.58a2.453,2.453,0,0,0,1.638-.5,1.742,1.742,0,0,0,.594-1.4,1.822,1.822,0,0,0-.63-1.458,2.484,2.484,0,0,0-1.674-.54h-2.7v3.906Z" transform="translate(65 420)" fill="#fff"/>
  </g>
</svg>
