<svg xmlns="http://www.w3.org/2000/svg" width="54" height="54" viewBox="0 0 54 54">
  <g id="Group_39227" data-name="Group 39227" transform="translate(-38 -924)">
    <circle id="Ellipse_721" data-name="Ellipse 721" cx="27" cy="27" r="27" transform="translate(38 924)" fill="#5115f4"/>
    <g id="Group_39189" data-name="Group 39189" transform="translate(43.484 807.63)">
      <g id="Group_39188" data-name="Group 39188" transform="translate(0 133.12)">
        <path id="Path_41550" data-name="Path 41550" d="M32.813,133.12c-6.642,0-9.954,4.94-12.877,9.3-2.8,4.179-5.224,7.785-10.041,7.785a6.843,6.843,0,0,1,0-13.667,8.066,8.066,0,0,1,5.709,2.277,12.719,12.719,0,0,1,1.112,1.138,1.71,1.71,0,1,0,2.586-2.236,16.215,16.215,0,0,0-1.408-1.435,11.423,11.423,0,0,0-8-3.16,10.256,10.256,0,0,0,0,20.5c6.642,0,9.954-4.94,12.877-9.3,2.8-4.179,5.224-7.785,10.041-7.785a6.843,6.843,0,0,1,0,13.667,8.066,8.066,0,0,1-5.709-2.277A12.719,12.719,0,0,1,26,146.788a1.71,1.71,0,1,0-2.586,2.236,16.23,16.23,0,0,0,1.408,1.435,11.423,11.423,0,0,0,8,3.16,10.256,10.256,0,0,0,0-20.5Z" transform="translate(0 -133.12)" fill="#fff"/>
      </g>
    </g>
  </g>
</svg>
