<svg xmlns="http://www.w3.org/2000/svg" xmlns:xlink="http://www.w3.org/1999/xlink" width="357" height="239" viewBox="0 0 357 239">
  <defs>
    <filter id="Path_41548" x="0" y="0" width="357" height="239" filterUnits="userSpaceOnUse">
      <feOffset dy="3" input="SourceAlpha"/>
      <feGaussianBlur stdDeviation="3" result="blur"/>
      <feFlood flood-opacity="0.161"/>
      <feComposite operator="in" in2="blur"/>
      <feComposite in="SourceGraphic"/>
    </filter>
  </defs>
  <g id="Group_39198" data-name="Group 39198" transform="translate(-9 -181)">
    <g transform="matrix(1, 0, 0, 1, 9, 181)" filter="url(#Path_41548)">
      <path id="Path_41548-2" data-name="Path 41548" d="M7,0H332a7,7,0,0,1,7,7V214a7,7,0,0,1-7,7H7a7,7,0,0,1-7-7V7A7,7,0,0,1,7,0Z" transform="translate(9 6)" fill="#5115f4"/>
    </g>
    <path id="Path_41581" data-name="Path 41581" d="M-93.587-17.45v10.8a3.7,3.7,0,0,0,.925,2.713,3.488,3.488,0,0,0,2.6.938,3.523,3.523,0,0,0,2.625-.937,3.7,3.7,0,0,0,.925-2.713v-10.8h3.525V-6.675a6.956,6.956,0,0,1-.963,3.762A6.1,6.1,0,0,1-86.525-.6a8.174,8.174,0,0,1-3.588.775A7.956,7.956,0,0,1-93.65-.6a5.9,5.9,0,0,1-2.513-2.312,7.175,7.175,0,0,1-.925-3.762V-17.45Zm21.65,3.4a5.338,5.338,0,0,1,4,1.562,5.982,5.982,0,0,1,1.525,4.363V0h-3.5V-7.65a3.591,3.591,0,0,0-.825-2.538,2.922,2.922,0,0,0-2.25-.887,2.994,2.994,0,0,0-2.287.887,3.557,3.557,0,0,0-.838,2.538V0h-3.5V-13.85h3.5v1.725a4.835,4.835,0,0,1,1.787-1.412A5.53,5.53,0,0,1-71.937-14.05Zm12.35-4.45V0h-3.5V-18.5Zm5.225,3a2.133,2.133,0,0,1-1.537-.587,1.944,1.944,0,0,1-.613-1.463,1.944,1.944,0,0,1,.613-1.462,2.133,2.133,0,0,1,1.537-.587,2.133,2.133,0,0,1,1.537.587,1.944,1.944,0,0,1,.613,1.462,1.944,1.944,0,0,1-.613,1.463A2.133,2.133,0,0,1-54.362-15.5Zm1.725,1.65V0h-3.5V-13.85Zm20.65-.2a5.56,5.56,0,0,1,4.112,1.562,5.9,5.9,0,0,1,1.563,4.363V0h-3.5V-7.65a3.46,3.46,0,0,0-.825-2.488A2.966,2.966,0,0,0-32.887-11a3.008,3.008,0,0,0-2.263.863,3.428,3.428,0,0,0-.838,2.488V0h-3.5V-7.65a3.46,3.46,0,0,0-.825-2.488A2.966,2.966,0,0,0-42.562-11a3.041,3.041,0,0,0-2.287.863,3.428,3.428,0,0,0-.838,2.488V0h-3.5V-13.85h3.5v1.675A4.658,4.658,0,0,1-43.95-13.55a5.42,5.42,0,0,1,2.337-.5,6.013,6.013,0,0,1,2.9.687A4.818,4.818,0,0,1-36.737-11.4a5.014,5.014,0,0,1,1.963-1.925A5.587,5.587,0,0,1-31.987-14.05Zm10.775-1.45a2.133,2.133,0,0,1-1.538-.587,1.944,1.944,0,0,1-.612-1.463,1.944,1.944,0,0,1,.612-1.462,2.133,2.133,0,0,1,1.538-.587,2.133,2.133,0,0,1,1.538.587,1.944,1.944,0,0,1,.612,1.462,1.944,1.944,0,0,1-.612,1.463A2.133,2.133,0,0,1-21.212-15.5Zm1.725,1.65V0h-3.5V-13.85Zm7.525,2.875v6.7a1.324,1.324,0,0,0,.338,1.013,1.658,1.658,0,0,0,1.137.313h1.625V0h-2.2q-4.425,0-4.425-4.3v-6.675h-1.65V-13.85h1.65v-3.425h3.525v3.425h3.1v2.875Zm18.5,3.75a8.26,8.26,0,0,1-.1,1.35H-3.687a3.443,3.443,0,0,0,1.05,2.35,3.238,3.238,0,0,0,2.275.85A2.858,2.858,0,0,0,2.413-4.35H6.188a6.309,6.309,0,0,1-2.3,3.287A6.715,6.715,0,0,1-.288.225,7.225,7.225,0,0,1-3.875-.662,6.247,6.247,0,0,1-6.35-3.175a7.7,7.7,0,0,1-.888-3.75A7.842,7.842,0,0,1-6.363-10.7a6.105,6.105,0,0,1,2.45-2.5,7.34,7.34,0,0,1,3.625-.875,7.281,7.281,0,0,1,3.538.85,5.982,5.982,0,0,1,2.425,2.412A7.3,7.3,0,0,1,6.537-7.225Zm-3.625-1a2.776,2.776,0,0,0-.975-2.162A3.454,3.454,0,0,0-.387-11.2a3.177,3.177,0,0,0-2.188.788A3.462,3.462,0,0,0-3.662-8.225Zm5.275,1.25A8.016,8.016,0,0,1,9.025-10.7a6.109,6.109,0,0,1,2.288-2.5,6.121,6.121,0,0,1,3.225-.875,5.883,5.883,0,0,1,2.575.588,5.149,5.149,0,0,1,1.95,1.563V-18.5h3.55V0h-3.55V-2.05A4.743,4.743,0,0,1,17.238-.4a5.717,5.717,0,0,1-2.725.625,5.949,5.949,0,0,1-3.2-.9A6.267,6.267,0,0,1,9.025-3.213,8.149,8.149,0,0,1,8.188-6.975Zm10.9.05a4.489,4.489,0,0,0-.5-2.187,3.525,3.525,0,0,0-1.35-1.4A3.608,3.608,0,0,0,15.413-11a3.545,3.545,0,0,0-1.8.475,3.577,3.577,0,0,0-1.337,1.387,4.346,4.346,0,0,0-.513,2.162,4.49,4.49,0,0,0,.513,2.188,3.69,3.69,0,0,0,1.35,1.437,3.429,3.429,0,0,0,1.788.5,3.608,3.608,0,0,0,1.825-.487,3.525,3.525,0,0,0,1.35-1.4A4.489,4.489,0,0,0,19.088-6.925ZM46.912,0h-3.5L35.487-11.975V0h-3.5V-17.475h3.5l7.925,12v-12h3.5Zm5.225-15.5a2.133,2.133,0,0,1-1.537-.587,1.944,1.944,0,0,1-.613-1.463,1.944,1.944,0,0,1,.613-1.462,2.133,2.133,0,0,1,1.537-.587,2.133,2.133,0,0,1,1.537.587,1.944,1.944,0,0,1,.613,1.462,1.944,1.944,0,0,1-.613,1.463A2.133,2.133,0,0,1,52.137-15.5Zm1.725,1.65V0h-3.5V-13.85Zm8.875-.225a5.813,5.813,0,0,1,2.725.613,5.017,5.017,0,0,1,1.85,1.588V-13.85h3.525V.1a7.43,7.43,0,0,1-.775,3.437,5.754,5.754,0,0,1-2.325,2.4,7.432,7.432,0,0,1-3.75.887A8.01,8.01,0,0,1,59.15,5.45,5.1,5.1,0,0,1,57.013,1.7h3.475a2.587,2.587,0,0,0,1.188,1.513,4.137,4.137,0,0,0,2.212.562,3.424,3.424,0,0,0,2.475-.912A3.665,3.665,0,0,0,67.313.1V-2.05A5.317,5.317,0,0,1,65.45-.425a5.557,5.557,0,0,1-2.713.65,5.949,5.949,0,0,1-3.2-.9A6.267,6.267,0,0,1,57.25-3.213a8.149,8.149,0,0,1-.837-3.763A8.016,8.016,0,0,1,57.25-10.7a6.138,6.138,0,0,1,2.275-2.5A6.057,6.057,0,0,1,62.738-14.075Zm4.575,7.15a4.489,4.489,0,0,0-.5-2.187,3.525,3.525,0,0,0-1.35-1.4A3.608,3.608,0,0,0,63.638-11a3.545,3.545,0,0,0-1.8.475A3.577,3.577,0,0,0,60.5-9.137a4.346,4.346,0,0,0-.512,2.162A4.49,4.49,0,0,0,60.5-4.787,3.69,3.69,0,0,0,61.85-3.35a3.429,3.429,0,0,0,1.787.5,3.608,3.608,0,0,0,1.825-.487,3.525,3.525,0,0,0,1.35-1.4A4.489,4.489,0,0,0,67.313-6.925Zm14.75-7.125a5.622,5.622,0,0,1,2.8.687,4.737,4.737,0,0,1,1.913,2.025,6.952,6.952,0,0,1,.688,3.212V0h-3.5V-7.65a3.591,3.591,0,0,0-.825-2.538,2.922,2.922,0,0,0-2.25-.887,2.994,2.994,0,0,0-2.287.887,3.557,3.557,0,0,0-.838,2.538V0h-3.5V-18.5h3.5v6.375a4.563,4.563,0,0,1,1.8-1.412A5.961,5.961,0,0,1,82.063-14.05Zm12.8,3.075v6.7A1.324,1.324,0,0,0,95.2-3.263a1.658,1.658,0,0,0,1.138.313h1.625V0h-2.2q-4.425,0-4.425-4.3v-6.675h-1.65V-13.85h1.65v-3.425h3.525v3.425h3.1v2.875Z" transform="translate(188 306)" fill="#fff"/>
  </g>
</svg>
