<svg xmlns="http://www.w3.org/2000/svg" width="54" height="54" viewBox="0 0 54 54">
  <g id="Group_39230" data-name="Group 39230" transform="translate(-38 -606)">
    <circle id="Ellipse_747" data-name="Ellipse 747" cx="27" cy="27" r="27" transform="translate(38 606)" fill="#15a7f4"/>
    <path id="Path_41572" data-name="Path 41572" d="M7.374,24.368a.951.951,0,0,0-.493,1.837l4.711,1.262L7.541,29.807a.953.953,0,0,0-.348,1.3.977.977,0,0,0,1.3.348l4.052-2.339-1.262,4.711a.951.951,0,0,0,.672,1.165.964.964,0,0,0,1.165-.672l1.755-6.548,7.018-4.052v8.1L17.1,36.616a.951.951,0,1,0,1.345,1.345l3.449-3.449V39.19a.951.951,0,0,0,1.9,0V34.512l3.449,3.449a.974.974,0,0,0,1.345,0,.952.952,0,0,0,0-1.345l-4.794-4.794v-8.1l7.018,4.052,1.755,6.548a.969.969,0,0,0,1.165.672.95.95,0,0,0,.672-1.165l-1.262-4.711,4.052,2.339a.976.976,0,0,0,1.3-.349.953.953,0,0,0-.348-1.3l-4.052-2.339L38.8,26.205a.951.951,0,1,0-.492-1.837l-6.548,1.754-7.018-4.052,7.018-4.052,6.548,1.754a.967.967,0,0,0,1.165-.672.95.95,0,0,0-.672-1.165l-4.711-1.262,4.052-2.339a.951.951,0,0,0-.232-1.743.934.934,0,0,0-.719.1l-4.052,2.339L34.4,10.315a.951.951,0,0,0-1.837-.492l-1.754,6.548-7.018,4.052v-8.1l4.794-4.794a.951.951,0,1,0-1.345-1.345L23.794,9.63V4.951a.951.951,0,0,0-1.9,0V9.63L18.442,6.181A.951.951,0,0,0,17.1,7.526l4.794,4.794v8.1l-7.018-4.052L13.119,9.823a.951.951,0,1,0-1.837.492l1.262,4.711L8.492,12.687a.951.951,0,1,0-.951,1.648l4.052,2.339L6.881,17.936A.95.95,0,0,0,6.209,19.1a.969.969,0,0,0,1.165.672l6.548-1.754,7.018,4.052-7.018,4.052Z" transform="translate(41.996 610.929)" fill="#fff"/>
  </g>
</svg>
