<svg xmlns="http://www.w3.org/2000/svg" xmlns:xlink="http://www.w3.org/1999/xlink" width="357" height="239.002" viewBox="0 0 357 239.002">
  <defs>
    <filter id="Path_41548" x="0" y="0" width="357" height="239" filterUnits="userSpaceOnUse">
      <feOffset dy="3" input="SourceAlpha"/>
      <feGaussianBlur stdDeviation="3" result="blur"/>
      <feFlood flood-opacity="0.161"/>
      <feComposite operator="in" in2="blur"/>
      <feComposite in="SourceGraphic"/>
    </filter>
    <filter id="Subtraction_1" x="0" y="0" width="356.999" height="239.002" filterUnits="userSpaceOnUse">
      <feOffset dy="3" input="SourceAlpha"/>
      <feGaussianBlur stdDeviation="3" result="blur-2"/>
      <feFlood flood-opacity="0.161"/>
      <feComposite operator="in" in2="blur-2"/>
      <feComposite in="SourceGraphic"/>
    </filter>
  </defs>
  <g id="Group_39203" data-name="Group 39203" transform="translate(-9 -182)">
    <g transform="matrix(1, 0, 0, 1, 9, 182)" filter="url(#Path_41548)">
      <path id="Path_41548-2" data-name="Path 41548" d="M7,0H332a7,7,0,0,1,7,7V214a7,7,0,0,1-7,7H7a7,7,0,0,1-7-7V7A7,7,0,0,1,7,0Z" transform="translate(9 6)" fill="#7c7f2a"/>
    </g>
    <g transform="matrix(1, 0, 0, 1, 9, 182)" filter="url(#Subtraction_1)">
      <path id="Subtraction_1-2" data-name="Subtraction 1" d="M-2530.512-11006.105h-325a7.009,7.009,0,0,1-7-7v-157.829c.518.083,1.033.19,1.534.319,6.783,1.746,13.032,5.46,18.546,8.737,5.95,3.536,11.087,6.589,15.6,6.589,3.128,0,5.713-1.519,7.9-4.642,3.941-5.642,1.625-12.535-.827-19.833-2.517-7.491-5.119-15.235-.483-21.646a6.57,6.57,0,0,1,3.333-2.358,15.024,15.024,0,0,1,4.872-.674c4.073,0,9.059.959,14.338,1.975l.787.151c6.062,1.162,11.486,2.124,16.486,2.124,8.583,0,13.7-2.922,16.111-9.2,2.079-5.416-.986-11.874-8.408-17.72h242.216a7.007,7.007,0,0,1,7,7v117.462c-4.769,9.687-10.9,14.6-18.236,14.6-.337,0-.675-.01-1-.03-6.991-.42-13.836-2.874-19.874-5.038l-.011,0c-5.293-1.9-10.292-3.689-14.34-3.689-4.3,0-7.183,1.991-9.085,6.266-2.792,6.29.8,12.615,4.6,19.312,3.9,6.873,7.931,13.979,4.6,21.155-1.121,2.42-3.683,3.9-8.062,4.648a88.86,88.86,0,0,1-13.845.69h-.014c-6.963.015-14.164.03-20.018,1.679-6.663,1.877-10.4,5.634-11.437,11.484-.556,3.15.429,6.257,2.927,9.233,6.538,7.793,22.132,13.028,38.8,13.028a75.973,75.973,0,0,0,32.817-7.238,70.691,70.691,0,0,1,13.474-5.045,47.133,47.133,0,0,1,11.639-1.473,52.682,52.682,0,0,1,7.066.5v9.467A7.007,7.007,0,0,1-2530.512-11006.105Z" transform="translate(2871.51 11233.11)" fill="#10a9dc"/>
    </g>
    <path id="Path_41586" data-name="Path 41586" d="M-70.7-3.885h8.05V0H-75.6V-24.43h4.9Zm25.025-8.645a5.49,5.49,0,0,1,3.395,2.065,6.031,6.031,0,0,1,1.33,3.85,6.2,6.2,0,0,1-.963,3.447A6.41,6.41,0,0,1-44.695-.84,10.194,10.194,0,0,1-49,0H-59.535V-24.43h10.08a10.454,10.454,0,0,1,4.288.805,6.105,6.105,0,0,1,2.73,2.24,5.865,5.865,0,0,1,.928,3.255,5.567,5.567,0,0,1-1.138,3.57A6.086,6.086,0,0,1-45.675-12.53Zm-8.96-1.82h4.48a4.1,4.1,0,0,0,2.695-.788,2.773,2.773,0,0,0,.945-2.258,2.825,2.825,0,0,0-.945-2.275,4.04,4.04,0,0,0-2.695-.8h-4.48ZM-49.7-3.99a4.193,4.193,0,0,0,2.783-.84,2.939,2.939,0,0,0,1-2.38,3.065,3.065,0,0,0-1.05-2.467A4.234,4.234,0,0,0-49.8-10.57h-4.83v6.58Zm27.58-10.57v4.13H-36.96v-4.13ZM-1.645-4.655h-9.73L-12.985,0H-18.13l8.785-24.465h5.7L5.145,0H-.035Zm-1.33-3.92L-6.51-18.8l-3.535,10.22Zm16.31-7.8A6.889,6.889,0,0,1,15.8-18.8a6.863,6.863,0,0,1,3.482-.875v5.145H17.99a4.963,4.963,0,0,0-3.483,1.085q-1.173,1.085-1.172,3.78V0h-4.9V-19.39h4.9Zm33.32-3.29a7.784,7.784,0,0,1,5.757,2.188A8.256,8.256,0,0,1,54.6-11.375V0H49.7V-10.71a4.844,4.844,0,0,0-1.155-3.483A4.153,4.153,0,0,0,45.4-15.4a4.211,4.211,0,0,0-3.167,1.207,4.8,4.8,0,0,0-1.173,3.483V0h-4.9V-10.71A4.844,4.844,0,0,0,35-14.193,4.153,4.153,0,0,0,31.85-15.4a4.257,4.257,0,0,0-3.2,1.207,4.8,4.8,0,0,0-1.172,3.483V0h-4.9V-19.39h4.9v2.345a6.521,6.521,0,0,1,2.432-1.925,7.589,7.589,0,0,1,3.273-.7,8.418,8.418,0,0,1,4.06.962,6.745,6.745,0,0,1,2.765,2.748,7.02,7.02,0,0,1,2.747-2.695A7.822,7.822,0,0,1,46.655-19.67Zm31.15.28L65.8,9.17H60.585l4.2-9.66-7.77-18.9H62.51L67.515-5.845,72.59-19.39ZM-83.072,28.57V43.69a5.184,5.184,0,0,0,1.295,3.8,4.883,4.883,0,0,0,3.64,1.313,4.932,4.932,0,0,0,3.675-1.312,5.184,5.184,0,0,0,1.295-3.8V28.57h4.935V43.655a9.738,9.738,0,0,1-1.348,5.268,8.546,8.546,0,0,1-3.6,3.237,11.444,11.444,0,0,1-5.022,1.085A11.138,11.138,0,0,1-83.16,52.16a8.26,8.26,0,0,1-3.518-3.237,10.046,10.046,0,0,1-1.295-5.268V28.57Zm30.31,4.76a7.474,7.474,0,0,1,5.6,2.188,8.375,8.375,0,0,1,2.135,6.107V53h-4.9V42.29a5.028,5.028,0,0,0-1.155-3.553,4.091,4.091,0,0,0-3.15-1.242,4.192,4.192,0,0,0-3.2,1.242,4.98,4.98,0,0,0-1.173,3.553V53h-4.9V33.61h4.9v2.415a6.769,6.769,0,0,1,2.5-1.978A7.741,7.741,0,0,1-52.763,33.33Zm17.29-6.23V53h-4.9V27.1Zm7.315,4.2a2.986,2.986,0,0,1-2.153-.822,2.721,2.721,0,0,1-.858-2.048,2.721,2.721,0,0,1,.858-2.047,2.986,2.986,0,0,1,2.153-.822A2.986,2.986,0,0,1-26,26.382a2.721,2.721,0,0,1,.858,2.047A2.721,2.721,0,0,1-26,30.478,2.986,2.986,0,0,1-28.157,31.3Zm2.415,2.31V53h-4.9V33.61Zm28.91-.28a7.784,7.784,0,0,1,5.758,2.188,8.256,8.256,0,0,1,2.187,6.107V53h-4.9V42.29a4.844,4.844,0,0,0-1.155-3.483A4.153,4.153,0,0,0,1.908,37.6,4.211,4.211,0,0,0-1.26,38.807,4.8,4.8,0,0,0-2.432,42.29V53h-4.9V42.29a4.844,4.844,0,0,0-1.155-3.483,4.153,4.153,0,0,0-3.15-1.208,4.257,4.257,0,0,0-3.2,1.208,4.8,4.8,0,0,0-1.172,3.483V53h-4.9V33.61h4.9v2.345A6.521,6.521,0,0,1-13.58,34.03a7.589,7.589,0,0,1,3.273-.7,8.418,8.418,0,0,1,4.06.962A6.745,6.745,0,0,1-3.483,37.04,7.02,7.02,0,0,1-.735,34.345,7.822,7.822,0,0,1,3.168,33.33ZM18.253,31.3a2.986,2.986,0,0,1-2.153-.822,2.873,2.873,0,0,1,0-4.1,2.986,2.986,0,0,1,2.153-.822,2.986,2.986,0,0,1,2.153.822,2.873,2.873,0,0,1,0,4.1A2.986,2.986,0,0,1,18.253,31.3Zm2.415,2.31V53h-4.9V33.61ZM31.2,37.635v9.38a1.854,1.854,0,0,0,.472,1.417,2.321,2.321,0,0,0,1.593.438h2.275V53h-3.08q-6.2,0-6.2-6.02V37.635h-2.31V33.61h2.31v-4.8H31.2v4.8h4.34v4.025Zm25.9,5.25a11.564,11.564,0,0,1-.14,1.89H42.788a4.821,4.821,0,0,0,1.47,3.29,4.533,4.533,0,0,0,3.185,1.19,4,4,0,0,0,3.885-2.345h5.285a8.832,8.832,0,0,1-3.22,4.6,9.4,9.4,0,0,1-5.845,1.8,10.115,10.115,0,0,1-5.022-1.243,8.745,8.745,0,0,1-3.465-3.517,10.778,10.778,0,0,1-1.243-5.25,10.979,10.979,0,0,1,1.225-5.285,8.547,8.547,0,0,1,3.43-3.5A11.013,11.013,0,0,1,52.5,34.485,8.375,8.375,0,0,1,55.9,37.862,10.221,10.221,0,0,1,57.1,42.885Zm-5.075-1.4a3.886,3.886,0,0,0-1.365-3.028,4.836,4.836,0,0,0-3.255-1.138,4.448,4.448,0,0,0-3.063,1.1,4.847,4.847,0,0,0-1.522,3.063Zm7.385,1.75a11.222,11.222,0,0,1,1.173-5.215A8.453,8.453,0,0,1,68.3,33.295a8.236,8.236,0,0,1,3.605.823,7.208,7.208,0,0,1,2.73,2.188V27.1h4.97V53h-4.97V50.13a6.641,6.641,0,0,1-2.555,2.31,8,8,0,0,1-3.815.875,8.328,8.328,0,0,1-4.48-1.26,8.774,8.774,0,0,1-3.2-3.553A11.409,11.409,0,0,1,59.412,43.235Zm15.26.07a6.285,6.285,0,0,0-.7-3.062,4.935,4.935,0,0,0-1.89-1.96,5.051,5.051,0,0,0-2.555-.683,4.921,4.921,0,0,0-4.392,2.608,6.085,6.085,0,0,0-.718,3.028,6.285,6.285,0,0,0,.718,3.063,5.166,5.166,0,0,0,1.89,2.013,4.8,4.8,0,0,0,2.5.7,5.051,5.051,0,0,0,2.555-.682,4.935,4.935,0,0,0,1.89-1.96A6.285,6.285,0,0,0,74.673,43.305ZM-44.3,116.616V110.9l17-24.336h8.476v23.712h4.576v6.344h-4.576V124H-26.1v-7.384ZM-25.636,94.36-36.3,110.272h10.66ZM30.784,87.7V124H23.5V100.392L13.78,124H8.268l-9.776-23.608V124h-7.28V87.7H-.52l11.544,26.988L22.568,87.7Z" transform="translate(188 246)" fill="#fff"/>
  </g>
</svg>
