<svg xmlns="http://www.w3.org/2000/svg" width="54" height="54" viewBox="0 0 54 54">
  <g id="Group_39222" data-name="Group 39222" transform="translate(-38 -712)">
    <circle id="Ellipse_718" data-name="Ellipse 718" cx="27" cy="27" r="27" transform="translate(38 712)" fill="#10a9dc"/>
    <path id="I_teach_full_stack_development_Which_means_you_will_see_tutorials_regarding_UI_UX_Frontend_Dev_Backend_Dev_Graphic_Design_and_more" data-name="I teach full stack development! Which means you will see tutorials regarding UI/UX, Frontend Dev, Backend Dev, Graphic Design and more" d="M-14.425-9.525a4.3,4.3,0,0,1-2.6-4.1A4.721,4.721,0,0,1-16.35-16.1a4.691,4.691,0,0,1,2.025-1.788,7.442,7.442,0,0,1,3.3-.662,7.46,7.46,0,0,1,3.288.662A4.679,4.679,0,0,1-5.7-16.1a4.721,4.721,0,0,1,.675,2.475,4.317,4.317,0,0,1-.713,2.462A4.734,4.734,0,0,1-7.625-9.525a4.6,4.6,0,0,1,2.25,1.713A4.763,4.763,0,0,1-4.55-5.025,5.1,5.1,0,0,1-5.375-2.15a5.346,5.346,0,0,1-2.3,1.925,7.965,7.965,0,0,1-3.35.675,7.879,7.879,0,0,1-3.338-.675A5.36,5.36,0,0,1-16.65-2.15a5.1,5.1,0,0,1-.825-2.875,4.748,4.748,0,0,1,.825-2.8A4.637,4.637,0,0,1-14.425-9.525Zm6.675-3.75a2.676,2.676,0,0,0-.875-2.15,3.568,3.568,0,0,0-2.4-.75,3.528,3.528,0,0,0-2.375.75,2.707,2.707,0,0,0-.875,2.175,2.566,2.566,0,0,0,.913,2.037,3.45,3.45,0,0,0,2.337.788,3.464,3.464,0,0,0,2.35-.8A2.588,2.588,0,0,0-7.75-13.275Zm-3.275,5a4.231,4.231,0,0,0-2.687.812A2.793,2.793,0,0,0-14.75-5.125a2.946,2.946,0,0,0,1,2.313,3.959,3.959,0,0,0,2.725.888,3.839,3.839,0,0,0,2.687-.9,2.973,2.973,0,0,0,.988-2.3A2.83,2.83,0,0,0-8.363-7.45,4.083,4.083,0,0,0-11.025-8.275Zm28.15-9.1V0h-2.85V-11.9L8.975,0H7L1.675-11.9V0h-2.85V-17.375H1.9L8-3.75l6.075-13.625Z" transform="translate(65 748)" fill="#fff"/>
  </g>
</svg>
