<svg xmlns="http://www.w3.org/2000/svg" xmlns:xlink="http://www.w3.org/1999/xlink" width="54" height="54" viewBox="0 0 54 54">
  <defs>
    <clipPath id="clip-path">
      <circle id="Ellipse_734" data-name="Ellipse 734" cx="27" cy="27" r="27" transform="translate(38 182)" fill="#10a9dc"/>
    </clipPath>
  </defs>
  <g id="Mask_Group_7258" data-name="Mask Group 7258" transform="translate(-38 -182)" clip-path="url(#clip-path)">
    <circle id="Ellipse_731" data-name="Ellipse 731" cx="27" cy="27" r="27" transform="translate(38 182)" fill="#14254b"/>
    <circle id="Ellipse_732" data-name="Ellipse 732" cx="27" cy="27" r="27" transform="translate(37.839 182)" fill="red"/>
    <circle id="Ellipse_733" data-name="Ellipse 733" cx="27" cy="27" r="27" transform="translate(38 182)" fill="#10a9dc"/>
    <path id="Path_41560" data-name="Path 41560" d="M261.613,31.4a10.48,10.48,0,0,1-4.963,1.251c-3.988-.212-5.86-.979-9.185,1.413-4.516,3.248-11.16,2.27-11.16-.272,0-3.4,6.728-2.086,7.245-4.036.582-2.19-2.861-3.6-2.362-5.616.579-2.324,3.526-.425,6.324-.747,1.713-.2,2.407-2.057,2.676-3.829A22.058,22.058,0,0,1,261.613,31.4Z" transform="translate(-171.304 166.132)" fill="#7c7f2a"/>
    <path id="Path_41561" data-name="Path 41561" d="M83.222,14.875c-1.877,1.145-.48,4.973-3.032,5.656-3.221.862-3.754-4.009-6.786-4.939a10.59,10.59,0,0,0-4.927.078A21.867,21.867,0,0,1,83.446,5.36a4.5,4.5,0,0,0-.224,2.855c.765,2.545,4.475,1.247,4.7,3.647S85.1,13.729,83.222,14.875Z" transform="matrix(0.951, -0.309, 0.309, 0.951, -31.094, 206.785)" fill="#7c7f2a"/>
    <path id="Path_41562" data-name="Path 41562" d="M92.41,20.8c-3.047,1.859-.779,8.072-4.921,9.18-5.228,1.4-6.093-6.507-11.014-8.017-2.37-.728-5.444-.406-8,.127,5.476-9.024,13.732-14.6,24.3-16.733a7.308,7.308,0,0,0-.364,4.635c1.241,4.131,7.264,2.025,7.631,5.92S95.456,18.944,92.41,20.8Z" transform="translate(21.67 307.021) rotate(-83)" fill="#7c7f2a"/>
    <path id="Path_41563" data-name="Path 41563" d="M333.837,202.6q-.277-13.54-.926-25.377c-1.579,3.76-3.872,7.986-6.061,7.521-3.5-.738-7.157-12.074-10.753,0-.807,2.71-5.955,9.774-1.108,11.216Z" transform="translate(-155.279 -69.819) rotate(21)" fill="#7c7f2a"/>
    <path id="I_teach_full_stack_development_Which_means_you_will_see_tutorials_regarding_UI_UX_Frontend_Dev_Backend_Dev_Graphic_Design_and_more" data-name="I teach full stack development! Which means you will see tutorials regarding UI/UX, Frontend Dev, Backend Dev, Graphic Design and more" d="M-12.117-8A3.615,3.615,0,0,1-14.3-11.445a3.965,3.965,0,0,1,.567-2.079,3.94,3.94,0,0,1,1.7-1.5,6.251,6.251,0,0,1,2.772-.556,6.267,6.267,0,0,1,2.762.556,3.93,3.93,0,0,1,1.711,1.5,3.965,3.965,0,0,1,.567,2.079,3.626,3.626,0,0,1-.6,2.069A3.977,3.977,0,0,1-6.4-8a3.863,3.863,0,0,1,1.89,1.439,4,4,0,0,1,.693,2.341,4.284,4.284,0,0,1-.693,2.415A4.491,4.491,0,0,1-6.447-.189,6.69,6.69,0,0,1-9.261.378a6.619,6.619,0,0,1-2.8-.567,4.5,4.5,0,0,1-1.922-1.617,4.284,4.284,0,0,1-.693-2.415,3.988,3.988,0,0,1,.693-2.352A3.9,3.9,0,0,1-12.117-8Zm5.607-3.15a2.248,2.248,0,0,0-.735-1.806,3,3,0,0,0-2.016-.63,2.964,2.964,0,0,0-2,.63,2.274,2.274,0,0,0-.735,1.827,2.156,2.156,0,0,0,.766,1.711,2.9,2.9,0,0,0,1.964.661,2.91,2.91,0,0,0,1.974-.672A2.174,2.174,0,0,0-6.51-11.151Zm-2.751,4.2a3.554,3.554,0,0,0-2.257.683A2.346,2.346,0,0,0-12.39-4.3a2.475,2.475,0,0,0,.84,1.942,3.325,3.325,0,0,0,2.289.745A3.224,3.224,0,0,0-7-2.373,2.5,2.5,0,0,0-6.174-4.3a2.377,2.377,0,0,0-.851-1.953A3.43,3.43,0,0,0-9.261-6.951ZM14.385-14.6V0H11.991V-10L7.539,0H5.88L1.407-10V0H-.987V-14.6H1.6L6.72-3.15l5.1-11.445Z" transform="translate(65 217)" fill="#fff"/>
  </g>
</svg>
