<svg xmlns="http://www.w3.org/2000/svg" width="54" height="54" viewBox="0 0 54 54">
  <g id="Group_39223" data-name="Group 39223" transform="translate(-38 -818)">
    <circle id="Ellipse_719" data-name="Ellipse 719" cx="27" cy="27" r="27" transform="translate(38 818)" fill="#f4c615"/>
    <path id="I_teach_full_stack_development_Which_means_you_will_see_tutorials_regarding_UI_UX_Frontend_Dev_Backend_Dev_Graphic_Design_and_more" data-name="I teach full stack development! Which means you will see tutorials regarding UI/UX, Frontend Dev, Backend Dev, Graphic Design and more" d="M-20.125-15.625v-2.6h5.2V0H-17.8V-15.625Zm10.7,11.75q2.4-2.075,3.788-3.412a15.373,15.373,0,0,0,2.312-2.787,5.356,5.356,0,0,0,.925-2.9,3.549,3.549,0,0,0-.713-2.35,2.758,2.758,0,0,0-2.237-.85,2.865,2.865,0,0,0-2.288.938A3.9,3.9,0,0,0-8.5-12.725h-2.75a5.868,5.868,0,0,1,1.712-4.362A5.9,5.9,0,0,1-5.375-18.6a5.845,5.845,0,0,1,4.262,1.5,5.333,5.333,0,0,1,1.538,4A7.1,7.1,0,0,1-.487-9.638,13.943,13.943,0,0,1-2.663-6.662Q-3.925-5.35-5.875-3.625L-7-2.625H.925V-.25h-12.15V-2.325Zm25.8-8.5A4.593,4.593,0,0,0,14.5-14.337,5.648,5.648,0,0,0,11.725-15a6.065,6.065,0,0,0-3.075.775,5.431,5.431,0,0,0-2.113,2.2,6.889,6.889,0,0,0-.762,3.3,6.963,6.963,0,0,0,.762,3.313A5.412,5.412,0,0,0,8.65-3.2a6.065,6.065,0,0,0,3.075.775,5.441,5.441,0,0,0,3.775-1.3A5.651,5.651,0,0,0,17.275-7.25H10.75V-9.525h9.575V-7.3a8.553,8.553,0,0,1-1.437,3.725A8.552,8.552,0,0,1,15.862-.862,8.52,8.52,0,0,1,11.725.15,8.98,8.98,0,0,1,7.25-.988,8.481,8.481,0,0,1,4.037-4.15,8.874,8.874,0,0,1,2.85-8.725,8.874,8.874,0,0,1,4.037-13.3a8.455,8.455,0,0,1,3.225-3.162A9,9,0,0,1,11.725-17.6a9.066,9.066,0,0,1,4.937,1.362A7.758,7.758,0,0,1,19.8-12.375Z" transform="translate(65 854)" fill="#fff"/>
  </g>
</svg>
