<svg xmlns="http://www.w3.org/2000/svg" xmlns:xlink="http://www.w3.org/1999/xlink" width="357" height="239" viewBox="0 0 357 239">
  <defs>
    <filter id="Path_41548" x="0" y="0" width="357" height="239" filterUnits="userSpaceOnUse">
      <feOffset dy="3" input="SourceAlpha"/>
      <feGaussianBlur stdDeviation="3" result="blur"/>
      <feFlood flood-opacity="0.161"/>
      <feComposite operator="in" in2="blur"/>
      <feComposite in="SourceGraphic"/>
    </filter>
  </defs>
  <g id="Group_39197" data-name="Group 39197" transform="translate(-9 -181)">
    <g transform="matrix(1, 0, 0, 1, 9, 181)" filter="url(#Path_41548)">
      <path id="Path_41548-2" data-name="Path 41548" d="M7,0H332a7,7,0,0,1,7,7V214a7,7,0,0,1-7,7H7a7,7,0,0,1-7-7V7A7,7,0,0,1,7,0Z" transform="translate(9 6)" fill="#f4c615"/>
    </g>
    <path id="Path_41580" data-name="Path 41580" d="M-79.794,0-87.8-14.144h-3.432V0h-7.28V-36.3H-84.89a15.909,15.909,0,0,1,7.176,1.482,10.353,10.353,0,0,1,4.446,4,10.928,10.928,0,0,1,1.482,5.642,10.807,10.807,0,0,1-2.08,6.474,10.685,10.685,0,0,1-6.188,3.978L-71.37,0Zm-11.44-19.6h6.084a6.079,6.079,0,0,0,4.42-1.43,5.322,5.322,0,0,0,1.456-3.978,5.077,5.077,0,0,0-1.456-3.874,6.225,6.225,0,0,0-4.42-1.378h-6.084ZM-57.9-30.42v9.1h12.22v5.772H-57.9v9.62h13.78V0h-21.06V-36.348h21.06v5.928Zm42.8-5.876v5.876H-30.238v9.308h11.6v5.772h-11.6V0h-7.28V-36.3ZM3.874-8.216q4.992-4.16,7.956-6.942a32.181,32.181,0,0,0,4.94-5.8,10.8,10.8,0,0,0,1.976-5.928,6.337,6.337,0,0,0-1.248-4.16,4.709,4.709,0,0,0-3.848-1.508,4.846,4.846,0,0,0-4,1.742A7.592,7.592,0,0,0,8.19-26.052H1.118q.208-6.24,3.718-9.464a12.672,12.672,0,0,1,8.918-3.224q5.928,0,9.1,3.146A11.163,11.163,0,0,1,26.026-27.3a14.994,14.994,0,0,1-2.184,7.748A30.663,30.663,0,0,1,18.85-13.13q-2.808,2.73-7.332,6.578h15.34V-.52H1.17V-5.928Zm53.04-23.4H40.066v8.892a7.83,7.83,0,0,1,3.12-2.21,10.962,10.962,0,0,1,4.316-.858,11.789,11.789,0,0,1,6.812,1.82,10.531,10.531,0,0,1,3.848,4.654,15.419,15.419,0,0,1,1.2,6.058,13.511,13.511,0,0,1-3.406,9.62Q52.546,0,46.254,0,40.326,0,36.79-2.964a11.123,11.123,0,0,1-4-7.748h7.072a5.589,5.589,0,0,0,2.106,3.328A6.713,6.713,0,0,0,46.15-6.136,5.606,5.606,0,0,0,50.778-8.06a7.845,7.845,0,0,0,1.56-5.1,6.923,6.923,0,0,0-1.586-4.914A6.078,6.078,0,0,0,46.1-19.76a5.9,5.9,0,0,0-3.64,1.092,5.956,5.956,0,0,0-2.08,2.912H33.41V-38.012h23.5Zm34.112,6.24a8.522,8.522,0,0,0-3.432-3.484,10.444,10.444,0,0,0-5.1-1.2,11.141,11.141,0,0,0-5.72,1.456,10.056,10.056,0,0,0-3.9,4.16,13.35,13.35,0,0,0-1.4,6.24,13.382,13.382,0,0,0,1.43,6.344A10.124,10.124,0,0,0,76.882-7.7,11.74,11.74,0,0,0,82.81-6.24a10.283,10.283,0,0,0,6.812-2.21,10.548,10.548,0,0,0,3.484-6.162H80.626v-5.564h19.656v6.344a17.051,17.051,0,0,1-3.12,7.02A17.616,17.616,0,0,1,91-1.638,18.118,18.118,0,0,1,82.55.312a19.132,19.132,0,0,1-9.49-2.366A17.215,17.215,0,0,1,66.4-8.632,18.87,18.87,0,0,1,63.986-18.2,19.013,19.013,0,0,1,66.4-27.794a17.163,17.163,0,0,1,6.656-6.6A19.028,19.028,0,0,1,82.5-36.764a18.887,18.887,0,0,1,10.66,2.99,15.268,15.268,0,0,1,6.24,8.4Z" transform="translate(188 316)" fill="#fff"/>
  </g>
</svg>
