<svg xmlns="http://www.w3.org/2000/svg" width="101.547" height="97.963" viewBox="0 0 101.547 97.963">
  <g id="Group_40635" data-name="Group 40635" transform="translate(2020.15 10351.918)">
    <circle id="Ellipse_639" data-name="Ellipse 639" cx="47.787" cy="47.787" r="47.787" transform="translate(-2014.178 -10349.529)" fill="#454066"/>
    <g id="Ellipse_640" data-name="Ellipse 640" transform="translate(-2020.15 -10351.918)" fill="#fff" stroke="#2d74a2" stroke-width="1">
      <circle cx="47.19" cy="47.19" r="47.19" stroke="none"/>
      <circle cx="47.19" cy="47.19" r="46.69" fill="none"/>
    </g>
    <path id="Path_44393" data-name="Path 44393" d="M8.19-20.335H-2.73v4.83a5.087,5.087,0,0,1,1.96-1.26,7.467,7.467,0,0,1,2.73-.49,7.523,7.523,0,0,1,4.358,1.19,7,7,0,0,1,2.537,3.08A10.34,10.34,0,0,1,9.66-8.89,8.963,8.963,0,0,1,7.35-2.4,8.617,8.617,0,0,1,.84,0,11.418,11.418,0,0,1-4.025-.962,7.453,7.453,0,0,1-7.21-3.64,7.756,7.756,0,0,1-8.435-7.595H-2.59a3.149,3.149,0,0,0,1.015,1.8,3.2,3.2,0,0,0,2.2.718,2.892,2.892,0,0,0,2.45-1.05,4.485,4.485,0,0,0,.8-2.8,3.735,3.735,0,0,0-.84-2.625A3.17,3.17,0,0,0,.6-12.46a3.177,3.177,0,0,0-1.96.577A2.693,2.693,0,0,0-2.38-10.36H-8.155V-25.585H8.19Z" transform="translate(-1973.939 -10292.888)" fill="#2c73a1"/>
  </g>
</svg>
