<svg id="Group_40614" data-name="Group 40614" xmlns="http://www.w3.org/2000/svg" width="127.953" height="150.25" viewBox="0 0 127.953 150.25">
  <g id="Group_6894" data-name="Group 6894" transform="translate(0 65.997)">
    <g id="Group_8838" data-name="Group 8838" transform="translate(0 0)">
      <path id="Path_15033" data-name="Path 15033" d="M451.961,129.882h22.233c-9.211-11.683-8.252-23.429-8.252-23.429H460.2S461.172,118.2,451.961,129.882Z" transform="translate(-399.082 -104.436)" fill="#fed130"/>
      <path id="Path_15034" data-name="Path 15034" d="M461.571,106.453h-5.738c.084,2.621-.042.157-.384,2.759a27.839,27.839,0,0,0,5.263,20.1c.145.192.29.382.44.571h8.659C460.611,118.2,461.571,106.453,461.571,106.453Z" transform="translate(-394.704 -104.436)" fill="#f7bc14"/>
      <path id="Path_15035" data-name="Path 15035" d="M482.153,124.477H450.431a.816.816,0,0,1-.817-.819.835.835,0,0,1,.049-.283l3.169-8.556a.82.82,0,0,1,.768-.534h25.385a.818.818,0,0,1,.768.534l3.169,8.556a.82.82,0,0,1-.484,1.053A.837.837,0,0,1,482.153,124.477Z" transform="translate(-402.228 -93.938)" fill="#ffb125"/>
      <path id="Path_15036" data-name="Path 15036" d="M470.84,123.375l-3.169-8.556a.817.817,0,0,0-.768-.534h-8.275l3.775,10.192h7.669a.819.819,0,0,0,.819-.819A.79.79,0,0,0,470.84,123.375Z" transform="translate(-390.146 -93.938)" fill="#ff901d"/>
      <path id="Path_15041" data-name="Path 15041" d="M552.828,129.928H512.966V119.544a1.535,1.535,0,0,0-1.535-1.535H473.1a1.536,1.536,0,0,0-1.535,1.535h0v10.384H431.706a1.536,1.536,0,0,0-1.535,1.535h0V169.79a1.536,1.536,0,0,0,1.535,1.535H552.828a1.535,1.535,0,0,0,1.535-1.535h0V131.461A1.534,1.534,0,0,0,552.828,129.928Z" transform="translate(-428.287 -88.947)" fill="#b9bbc1"/>
      <g id="Group_8837" data-name="Group 8837" transform="translate(34.114 40.979)">
        <path id="Path_15042" data-name="Path 15042" d="M486.953,123.1h-7.632v41.4h7.632a1.535,1.535,0,0,0,1.535-1.535h0V124.636a1.535,1.535,0,0,0-1.535-1.535Z" transform="translate(-396.526 -123.101)" fill="#a0a3aa"/>
        <path id="Path_15043" data-name="Path 15043" d="M453.11,123.1h-9.167v41.4h9.167Z" transform="translate(-443.943 -123.101)" fill="#a0a3aa"/>
      </g>
      <path id="Path_15044" data-name="Path 15044" d="M489.257,171.323h-41.4V119.544a1.536,1.536,0,0,1,1.535-1.535h38.322a1.535,1.535,0,0,1,1.535,1.535h0v51.779Z" transform="translate(-404.579 -88.947)" fill="#b9bbc1"/>
      <path id="Path_15045" data-name="Path 15045" d="M469.082,118.01h-7.311v53.312h8.846V119.543A1.534,1.534,0,0,0,469.082,118.01Z" transform="translate(-385.934 -88.946)" fill="#a0a3aa"/>
      <path id="Path_15048" data-name="Path 15048" d="M464.847,151.582a14.1,14.1,0,1,1-.042-28.21h.25a14.1,14.1,0,1,1,.045,28.21h-.253Z" transform="translate(-400.744 -81.759)" fill="#fed130"/>
      <path id="Path_15049" data-name="Path 15049" d="M459.2,123.372h-.208a14.066,14.066,0,0,0-3.906.555,14.353,14.353,0,0,1,0,27.1,14.066,14.066,0,0,0,3.906.555h.208a14.1,14.1,0,1,0,.044-28.21H459.2Z" transform="translate(-394.891 -81.759)" fill="#f7bc14"/>
      <path id="Path_15054" data-name="Path 15054" d="M459.041,125.751a.882.882,0,0,0-.58.215l-2.539,1.935a1.21,1.21,0,0,0-.538,1.011,1.039,1.039,0,0,0,.9,1.119.765.765,0,0,0,.517-.194l.688-.688v11.486c0,.58.688.882,1.4.882s1.4-.3,1.4-.882V126.652C460.288,126.095,459.621,125.751,459.041,125.751Z" transform="translate(-394.5 -78.571)" fill="#495666"/>
      <path id="Path_21205" data-name="Path 21205" d="M553.907,144.693H530.148a1.872,1.872,0,1,0,0,3.744h23.421V186.09H515.924V148.446h5.488a1.872,1.872,0,0,0,.007-3.744h-5.5v-8.516a3.416,3.416,0,0,0-3.412-3.412h-1.285l-2.574-6.955a2.712,2.712,0,0,0-2.527-1.758h-3.742a43.669,43.669,0,0,1-3.445-11l2.5,1.587V110.2l-6.674-4.227a2.509,2.509,0,0,0-2.675,0l-7.168,4.543v4.449l2.862-1.811a43.5,43.5,0,0,1-3.429,10.906h-3.62a2.711,2.711,0,0,0-2.528,1.76l-2.574,6.953h-1.451a3.416,3.416,0,0,0-3.412,3.412v8.5H432.785a3.42,3.42,0,0,0-3.419,3.41v38.329a3.416,3.416,0,0,0,3.412,3.412H553.907a3.416,3.416,0,0,0,3.412-3.412V148.1A3.415,3.415,0,0,0,553.907,144.693Zm-83.137,41.4H433.129V148.446H470.77Zm21.219-75.6v0l1.442-.913,1.3.824a51.052,51.052,0,0,0,3.527,13.658h-9.787A50.815,50.815,0,0,0,491.99,110.494Zm-10.515,17.323h23.911l1.837,4.957H479.638Zm30.693,58.273H474.534V136.53h37.634Z" transform="translate(-429.366 -105.591)" fill="#495666"/>
      <path id="Path_15057" data-name="Path 15057" d="M466.118,122.57h-.208a15.983,15.983,0,0,0,0,31.966h.208a15.983,15.983,0,1,0,0-31.966Zm0,28.21h-.208a12.228,12.228,0,0,1,0-24.456h.208a12.228,12.228,0,1,1,0,24.456Z" transform="translate(-401.807 -82.834)" fill="#495666"/>
    </g>
  </g>
  <path id="Path_15038" data-name="Path 15038" d="M491.793,88.29l11.77,29.666a1,1,0,0,0,.87.632l31.85,2.025a1.005,1.005,0,0,1,.579,1.779l-24.576,20.36a1.013,1.013,0,0,0-.333,1.026l7.913,30.919a1.007,1.007,0,0,1-.723,1.226,1.019,1.019,0,0,1-.791-.125L491.4,158.716a1.009,1.009,0,0,0-1.078,0l-26.957,17.1a1,1,0,0,1-1.389-.31,1.019,1.019,0,0,1-.125-.791l7.913-30.919a1,1,0,0,0-.333-1.026l-17.545-14.536-7.031-5.824a1.009,1.009,0,0,1,.579-1.779l31.85-2.025a1,1,0,0,0,.87-.632l11.77-29.666a1.006,1.006,0,0,1,1.873-.015Z" transform="translate(-426.881 -87.661)" fill="#fff"/>
  <path id="Path_15038-2" data-name="Path 15038" d="M491.793,88.29l11.77,29.666a1,1,0,0,0,.87.632l31.85,2.025a1.005,1.005,0,0,1,.579,1.779l-24.576,20.36a1.013,1.013,0,0,0-.333,1.026l7.913,30.919a1.007,1.007,0,0,1-.723,1.226,1.019,1.019,0,0,1-.791-.125L491.4,158.716a1.009,1.009,0,0,0-1.078,0l-26.957,17.1a1,1,0,0,1-1.389-.31,1.019,1.019,0,0,1-.125-.791l7.913-30.919a1,1,0,0,0-.333-1.026l-17.545-14.536-7.031-5.824a1.009,1.009,0,0,1,.579-1.779l31.85-2.025a1,1,0,0,0,.87-.632l11.77-29.666a1.006,1.006,0,0,1,1.873-.015Z" transform="translate(-426.881 -87.661)" fill="#216d96" opacity="0.152"/>
</svg>
