<svg xmlns="http://www.w3.org/2000/svg" width="768.446" height="242.338" viewBox="0 0 768.446 242.338">
  <g id="Group_40633" data-name="Group 40633" transform="translate(2039.322 11121.794)">
    <path id="Path_44299" data-name="Path 44299" d="M50.475,25.093A25.166,25.166,0,0,1,25.237,0,25.166,25.166,0,0,1,0,25.093,25.165,25.165,0,0,1,25.237,50.186a24.9,24.9,0,0,1,5.676-15.854L75.688,46.886,39.439,27.614a25.256,25.256,0,0,1,11.036-2.521" transform="matrix(-0.469, 0.883, -0.883, -0.469, -1270.875, -10946.285)" fill="#216d95"/>
    <path id="Path_44290" data-name="Path 44290" d="M72.766,36.175A36.28,36.28,0,0,1,36.383,0,36.28,36.28,0,0,1,0,36.175,36.28,36.28,0,0,1,36.383,72.35a35.9,35.9,0,0,1,8.183-22.856l64.549,18.1L56.856,39.81a36.412,36.412,0,0,1,15.91-3.635" transform="matrix(0.978, 0.208, -0.208, 0.978, -1934.054, -11084.802)" fill="#f8ba13"/>
    <path id="Path_44291" data-name="Path 44291" d="M72.766,36.175A36.28,36.28,0,0,1,36.383,0,36.28,36.28,0,0,1,0,36.175,36.28,36.28,0,0,1,36.383,72.35a35.9,35.9,0,0,1,8.183-22.856l64.549,18.1L56.856,39.81a36.41,36.41,0,0,1,15.91-3.635" transform="matrix(-0.469, 0.883, -0.883, -0.469, -1419.576, -11073.336)" fill="#f8ba13"/>
    <path id="Path_44293" data-name="Path 44293" d="M318.2,464.912a22.565,22.565,0,0,1,22.63-22.5,22.566,22.566,0,0,1-22.63-22.5,22.566,22.566,0,0,1-22.629,22.5,22.565,22.565,0,0,1,22.629,22.5" transform="translate(-2334.892 -11462.058)" fill="#f8ba13"/>
    <path id="Path_44294" data-name="Path 44294" d="M318.2,464.912a22.565,22.565,0,0,1,22.63-22.5,22.566,22.566,0,0,1-22.63-22.5,22.566,22.566,0,0,1-22.629,22.5,22.565,22.565,0,0,1,22.629,22.5" transform="translate(-1737.775 -11344.369)" fill="#f8ba13"/>
    <path id="Path_44295" data-name="Path 44295" d="M309.607,447.824a14,14,0,0,1,14.037-13.956,14,14,0,0,1-14.037-13.957,14,14,0,0,1-14.036,13.957,14,14,0,0,1,14.036,13.956" transform="translate(-2251.326 -11327.28)" fill="#216d95"/>
    <path id="Path_44296" data-name="Path 44296" d="M309.607,447.824a14,14,0,0,1,14.037-13.956,14,14,0,0,1-14.037-13.957,14,14,0,0,1-14.036,13.957,14,14,0,0,1,14.036,13.956" transform="translate(-2114.013 -11541.705)" fill="#fff"/>
    <path id="Path_44297" data-name="Path 44297" d="M309.607,447.824a14,14,0,0,1,14.037-13.956,14,14,0,0,1-14.037-13.957,14,14,0,0,1-14.036,13.957,14,14,0,0,1,14.036,13.956" transform="translate(-1789.032 -11389.758)" fill="#fff"/>
  </g>
</svg>
