<svg id="Group_40427" data-name="Group 40427" xmlns="http://www.w3.org/2000/svg" xmlns:xlink="http://www.w3.org/1999/xlink" width="106.804" height="82.003" viewBox="0 0 106.804 82.003">
  <defs>
    <clipPath id="clip-path">
      <rect id="Rectangle_22222" data-name="Rectangle 22222" width="106.804" height="82.003" fill="none"/>
    </clipPath>
  </defs>
  <g id="Group_40411" data-name="Group 40411" clip-path="url(#clip-path)">
    <path id="Path_44254" data-name="Path 44254" d="M157.237,115.409a6.853,6.853,0,0,1,6.712,4.969l.35,1.172,3.611-3.61-.217-.463a11.624,11.624,0,0,0-22.062,5.169A11.514,11.514,0,0,0,152,133.153l.468.228,3.5-3.5-1.1-.38a7.06,7.06,0,0,1-4.665-6.857,6.983,6.983,0,0,1,7.038-7.237" transform="translate(-83.975 -63.987)" fill="#fff"/>
    <path id="Path_44255" data-name="Path 44255" d="M192.226,110.831l-.466-.228-3.5,3.5,1.1.38a7.063,7.063,0,0,1,4.665,6.857,6.983,6.983,0,0,1-7.038,7.238,6.856,6.856,0,0,1-6.712-4.97l-.35-1.173-3.609,3.61.215.464a11.623,11.623,0,0,0,22.062-5.169,11.512,11.512,0,0,0-6.371-10.506" transform="translate(-101.672 -63.777)" fill="#fff"/>
    <path id="Path_44256" data-name="Path 44256" d="M12.84,111.346,8.44,109.2c-2.317-1.077-2.317-1.782-2.317-2.464,0-1.465,1.359-2.489,3.306-2.489,1.984,0,3.46,1.044,3.672,2.6l.122.893h5.128l-.2-1.586c-.534-4.16-3.974-6.849-8.764-6.849-4.894,0-8.445,3.181-8.445,7.563,0,3.2,1.7,5.393,5.493,7.1l4.519,2.148c1.974.907,2.575,1.652,2.575,3.189,0,1.713-1.557,2.819-3.966,2.819a4.021,4.021,0,0,1-4.3-3.39l-.148-.915H.437L0,117.872l.227,1.612c.668,4.76,4.166,7.6,9.355,7.6,6.257,0,9.106-4.081,9.106-7.873,0-4.63-2.811-6.517-5.848-7.867" transform="translate(0 -57.263)" fill="#fff"/>
    <path id="Path_44257" data-name="Path 44257" d="M64.89,127.435c0,3.1-1.851,6.308-4.95,6.308a3.92,3.92,0,0,1-4.01-4.155V117.625H51.319v11.946a8.322,8.322,0,0,0,8.549,8.658,8.059,8.059,0,0,0,5.149-1.816v1.237h4.466V117.625H64.89Z" transform="translate(-29.592 -67.826)" fill="#fff"/>
    <path id="Path_44258" data-name="Path 44258" d="M240.877,116.18l-.226-.09c-2.333-.927-3.472-2.909-3.483-6.063l-.008-1.566.03-28.471L232.532,84.6l.115,25.293c0,5.283,2.025,8.549,6.411,10.29l1.832.554Z" transform="translate(-134.086 -46.125)" fill="#fff"/>
    <path id="Path_44259" data-name="Path 44259" d="M113.12,127.435c0,3.1-1.851,6.308-4.95,6.308a3.92,3.92,0,0,1-4.01-4.155V117.625H99.549v11.946a8.322,8.322,0,0,0,8.549,8.658,8.059,8.059,0,0,0,5.149-1.817v13.417l4.466-4.466V117.625H113.12Z" transform="translate(-57.403 -67.826)" fill="#fff"/>
    <path id="Path_44260" data-name="Path 44260" d="M112.9,18.427l8.091-8.092V5.9L117.16,9.73c-.182-.3-.38-.592-.592-.875l4.421-4.421V0L114.37,6.618a11.972,11.972,0,0,0-7.2-2.366A11.387,11.387,0,0,0,95.491,15.858a11.722,11.722,0,0,0,2.433,7.206l-5.67,5.671v4.434l7.945-7.946q.431.311.887.58l-8.833,8.833V39.07l4.294-4.294a11.654,11.654,0,0,0,9.524,4.746,11.388,11.388,0,0,0,11.679-11.607,11.467,11.467,0,0,0-4.853-9.489m-3.29,3.29a6.8,6.8,0,0,1,3.7,6.2,6.983,6.983,0,0,1-7.237,7.038,7.124,7.124,0,0,1-6.282-3.419Zm-6.138.236,9.871-9.871a6.735,6.735,0,0,1,.5.965l-9.366,9.366a7.178,7.178,0,0,1-1.008-.46m-2.329-2.1A7.077,7.077,0,0,1,107.171,8.82,7.571,7.571,0,0,1,111.1,9.885Z" transform="translate(-53.197)" fill="#fff"/>
  </g>
</svg>
