<svg id="Group_40613" data-name="Group 40613" xmlns="http://www.w3.org/2000/svg" width="135.242" height="145.431" viewBox="0 0 135.242 145.431">
  <g id="Group_3" data-name="Group 3" transform="translate(0 0)">
    <g id="Group_6377" data-name="Group 6377" transform="translate(0 0)">
      <g id="Group_5752" data-name="Group 5752">
        <path id="Path_10171" data-name="Path 10171" d="M231.36,329.868H167.727a8.514,8.514,0,0,1-8.514-8.514V197.214a8.514,8.514,0,0,1,8.514-8.514H231.36a8.514,8.514,0,0,1,8.514,8.514V321.343a8.514,8.514,0,0,1-8.514,8.514Z" transform="translate(-157.083 -186.57)" fill="#e0e1e2"/>
        <path id="Path_10172" data-name="Path 10172" d="M210.322,188.7h-8.514a8.514,8.514,0,0,1,8.514,8.514h0V321.343a8.514,8.514,0,0,1-8.514,8.514h8.514a8.514,8.514,0,0,0,8.514-8.514h0V197.214a8.514,8.514,0,0,0-8.514-8.514Z" transform="translate(-136.053 -186.57)" fill="#c4c4c3"/>
        <path id="Path_10173" data-name="Path 10173" d="M231.36,289.263H167.727a8.514,8.514,0,0,1-8.514-8.514h0v-9.806h80.661v9.8a8.514,8.514,0,0,1-8.514,8.514h0Z" transform="translate(-157.083 -145.965)" fill="#e6e6e6"/>
        <path id="Path_10174" data-name="Path 10174" d="M210.322,270.942v9.8a8.514,8.514,0,0,1-8.514,8.514h8.514a8.514,8.514,0,0,0,8.514-8.514h0v-9.8Z" transform="translate(-136.053 -145.965)" fill="#c4c4c3"/>
        <path id="Path_10175" data-name="Path 10175" d="M212.068,200.058H174.575a2.838,2.838,0,0,1-2.838-2.838v-8.514h43.169v8.514A2.839,2.839,0,0,1,212.068,200.058Z" transform="translate(-150.899 -186.567)" fill="#e6e6e6"/>
        <rect id="Rectangle_18015" data-name="Rectangle 18015" width="60.217" height="25.564" transform="translate(44.735 74.419)" fill="#f2f3f3"/>
        <rect id="Rectangle_18016" data-name="Rectangle 18016" width="8.522" height="25.564" transform="translate(96.432 74.419)" fill="#e0e0df"/>
        <path id="Path_10176" data-name="Path 10176" d="M204.453,279.766a2.13,2.13,0,0,0,0-4.26h-26.36a2.13,2.13,0,0,0,0,4.26Z" transform="translate(-148.81 -143.711)" fill="#374554"/>
        <path id="Path_10177" data-name="Path 10177" d="M262.739,246.78a2.131,2.131,0,0,0,2.13-2.13l-12.957-13.981c0-1.176-1.792,0-1.792,0l-7.4-13.712v-19.03a10.662,10.662,0,0,0-10.653-10.652H168.439a10.661,10.661,0,0,0-10.652,10.652v7.491a2.13,2.13,0,0,0,4.26.006v-7.5a6.4,6.4,0,0,1,6.39-6.392h8.053v6.392a4.978,4.978,0,0,0,4.971,4.971h37.493a4.979,4.979,0,0,0,4.971-4.971v-6.392h8.138a6.4,6.4,0,0,1,6.386,6.392v58.209s-3.785-6-3.785-4.823l-10.743-3.246c0,1.176-4.033,0-2.86,0l-.687-1.291a2.13,2.13,0,1,0,0-4.26H204.654l24.815,8.035,31.141-8.035H229.468a2.13,2.13,0,1,0,0,4.26h8.98v12.782L225.2,251.088a2.129,2.129,0,0,0-2.13,2.13v25.564a2.13,2.13,0,0,0,2.13,2.13l13.246,8.469v20.593H174.965a2.13,2.13,0,1,0,0,4.26h63.484v7.811a6.4,6.4,0,0,1-6.39,6.39H168.439a6.4,6.4,0,0,1-6.39-6.39v-7.8h4.033a2.13,2.13,0,1,0,0-4.26h-4.033V214.666a2.13,2.13,0,0,0-4.26,0V322.053a10.663,10.663,0,0,0,10.652,10.652h63.625a10.664,10.664,0,0,0,10.652-10.652V289.387h20.025c1.177,0-6.151-7.543-6.151-8.72l8.281-18.97a2.13,2.13,0,0,0-2.13-2.13H242.715V246.784Zm-43.075-48.855a.712.712,0,0,1-.71.71H181.463a.711.711,0,0,1-.71-.71v-6.392h38.913Zm7.672,50.145v9.387l-26.945-14.937,23.534,8.035Zm0,7.283-26.945,8.469v21.3l26.945-8.469Zm33.271,29.771H204.654v-21.3h55.957Z" transform="translate(-157.787 -187.274)" fill="#374554"/>
        <path id="Path_10178" data-name="Path 10178" d="M194.333,216.92h42.606a2.13,2.13,0,1,0,.01-4.26H194.333a2.13,2.13,0,0,0,0,4.26Z" transform="translate(-140.792 -174.74)" fill="#030504"/>
        <path id="Path_10179" data-name="Path 10179" d="M194.337,222.624h42.606a2.13,2.13,0,1,0,.01-4.26H194.337a2.13,2.13,0,0,0-.012,4.26Z" transform="translate(-140.796 -171.924)" fill="#030504"/>
        <path id="Path_10180" data-name="Path 10180" d="M192.205,243.313a2.13,2.13,0,0,0,2.13,2.13h42.606a2.13,2.13,0,1,0,.01-4.26H194.335A2.129,2.129,0,0,0,192.205,243.313Z" transform="translate(-140.794 -160.658)" fill="#030504"/>
        <path id="Path_10181" data-name="Path 10181" d="M236.939,246.888H194.333a2.13,2.13,0,0,0,0,4.26h42.606a2.13,2.13,0,1,0,.01-4.26Z" transform="translate(-140.792 -157.841)" fill="#030504"/>
      </g>
    </g>
    <g id="Group_6378" data-name="Group 6378" transform="translate(32.218 14.912)">
      <ellipse id="Ellipse_250" data-name="Ellipse 250" cx="43.477" cy="43.477" rx="43.477" ry="43.477" transform="translate(0 13.781)" fill="#fff"/>
      <path id="Path_10930" data-name="Path 10930" d="M253.375,249.96a43.47,43.47,0,0,1-43.45,43.475H209.9a41.039,41.039,0,0,1-4.348-.218,43.477,43.477,0,0,0,0-86.518,40.636,40.636,0,0,1,4.348-.217,43.467,43.467,0,0,1,43.477,43.45Z" transform="translate(-166.423 -192.702)" fill="#b5b4b3"/>
      <path id="Path_10931" data-name="Path 10931" d="M222.113,290.543a41.3,41.3,0,1,1,41.3-41.3v0a41.3,41.3,0,0,1-41.3,41.3Z" transform="translate(-178.638 -191.984)" fill="#374554"/>
      <ellipse id="Ellipse_251" data-name="Ellipse 251" cx="34.782" cy="34.782" rx="34.782" ry="34.782" transform="translate(8.695 22.476)" fill="#d30c1c"/>
      <path id="Path_10932" data-name="Path 10932" d="M244.68,247.086A34.827,34.827,0,0,1,209.9,281.867a31.832,31.832,0,0,1-4.348-.284,34.77,34.77,0,0,0,0-69,31.59,31.59,0,0,1,4.348-.282A34.826,34.826,0,0,1,244.68,247.086Z" transform="translate(-166.423 -189.828)" fill="#dc061b"/>
      <path id="Path_10933" data-name="Path 10933" d="M220.677,210.849A36.955,36.955,0,1,0,257.632,247.8h0A36.955,36.955,0,0,0,220.677,210.849Zm0,69.562A32.607,32.607,0,1,1,253.285,247.8a32.607,32.607,0,0,1-32.608,32.607h0Z" transform="translate(-177.2 -190.546)" fill="#030504"/>
      <path id="Path_10934" data-name="Path 10934" d="M215.731,205.656l2.253-8.4,4.2,1.125-2.253,8.4Z" transform="translate(-161.396 -197.257)" fill="#374554"/>
      <path id="Path_10935" data-name="Path 10935" d="M223.942,208.368l4.347-7.53,3.766,2.175-4.347,7.53Z" transform="translate(-157.342 -195.489)" fill="#374554"/>
      <path id="Path_10936" data-name="Path 10936" d="M231.092,212.929l6.147-6.147,3.074,3.074L234.166,216Z" transform="translate(-153.812 -192.554)" fill="#374554"/>
      <ellipse id="Ellipse_252" data-name="Ellipse 252" cx="34.782" cy="34.782" rx="34.782" ry="34.782" transform="translate(8.695 22.386)" fill="#216d96"/>
      <path id="Path_10937" data-name="Path 10937" d="M244.68,247.026A34.827,34.827,0,0,1,209.9,281.807a32.077,32.077,0,0,1-4.348-.284,34.77,34.77,0,0,0,0-69,31.334,31.334,0,0,1,4.348-.284A34.826,34.826,0,0,1,244.68,247.026Z" transform="translate(-166.423 -189.858)" fill="#177cb4"/>
      <path id="Path_10941" data-name="Path 10941" d="M216.3,269.226l4.2-1.126,2.253,8.4-4.2,1.126Z" transform="translate(-161.114 -162.28)" fill="#374554"/>
      <path id="Path_10942" data-name="Path 10942" d="M237.288,219.582l7.53-4.347L246.991,219l-7.53,4.347Z" transform="translate(-150.753 -188.381)" fill="#374554"/>
      <path id="Path_10943" data-name="Path 10943" d="M241,226.817l8.4-2.253,1.125,4.2-8.4,2.253Z" transform="translate(-148.921 -183.775)" fill="#374554"/>
      <path id="Path_10944" data-name="Path 10944" d="M242.5,234.69h8.7v4.348h-8.7Z" transform="translate(-148.178 -178.775)" fill="#374554"/>
      <path id="Path_10945" data-name="Path 10945" d="M241,247.6l1.126-4.2,8.4,2.253-1.125,4.2Z" transform="translate(-148.921 -174.475)" fill="#374554"/>
      <path id="Path_10946" data-name="Path 10946" d="M237.289,255.391l2.175-3.764,7.528,4.347-2.173,3.766Z" transform="translate(-150.752 -170.413)" fill="#374554"/>
      <path id="Path_10947" data-name="Path 10947" d="M231.654,261.859l3.074-3.074,6.148,6.148-3.074,3.073Z" transform="translate(-153.534 -166.879)" fill="#374554"/>
      <path id="Path_10948" data-name="Path 10948" d="M224.505,266.574l3.766-2.173,4.348,7.53-3.766,2.173Z" transform="translate(-157.064 -164.106)" fill="#374554"/>
      <path id="Path_44389" data-name="Path 44389" d="M120.146,24.9l10.932-10.933V7.974l-5.173,5.173c-.247-.4-.514-.8-.8-1.182l5.973-5.973V0l-8.942,8.942a16.176,16.176,0,0,0-9.727-3.2A15.386,15.386,0,0,0,96.628,21.427a15.838,15.838,0,0,0,3.287,9.736l-7.661,7.662v5.991L102.989,34.08q.583.42,1.2.783L92.254,46.8V52.79l5.8-5.8A15.746,15.746,0,0,0,110.923,53.4,15.387,15.387,0,0,0,126.7,37.718,15.494,15.494,0,0,0,120.146,24.9M115.7,29.343a9.187,9.187,0,0,1,5,8.376,9.436,9.436,0,0,1-9.779,9.509,9.626,9.626,0,0,1-8.488-4.62Zm-8.293.319,13.337-13.337a9.1,9.1,0,0,1,.678,1.3L108.768,30.283a9.7,9.7,0,0,1-1.361-.621m-3.147-2.844a9.563,9.563,0,0,1,8.149-14.9,10.23,10.23,0,0,1,5.314,1.438Z" transform="translate(-69.439 29.215)" fill="#fff" stroke="#000" stroke-width="1"/>
    </g>
  </g>
</svg>
