<svg id="Group_40516" data-name="Group 40516" xmlns="http://www.w3.org/2000/svg" width="167.15" height="167.15" viewBox="0 0 167.15 167.15">
  <path id="Path_43498" data-name="Path 43498" d="M167.148,83.592a80.957,80.957,0,0,1-11.285,41.8,84.219,84.219,0,0,1-30.513,30.473,80.681,80.681,0,0,1-41.758,11.285A81.224,81.224,0,0,1,41.8,155.9,84.611,84.611,0,0,1,11.287,125.39,80.922,80.922,0,0,1,0,83.592,80.9,80.9,0,0,1,11.287,41.8,84.593,84.593,0,0,1,41.8,11.286,80.948,80.948,0,0,1,83.593,0a80.935,80.935,0,0,1,41.794,11.285A84.756,84.756,0,0,1,155.864,41.8a80.935,80.935,0,0,1,11.285,41.794" transform="translate(0 0.001)" fill="#216d96"/>
  <path id="Path_43499" data-name="Path 43499" d="M59.311,76.558A57.219,57.219,0,0,1,24.895,65.1,57.884,57.884,0,0,1,9.789,48.533a2.908,2.908,0,0,1-.255-2.925c5.087-10.682,13.328-17.533,24.824-20.425.885-.222,1.8-.344,2.692-.538a5.883,5.883,0,0,1,4.839,1.2,30.386,30.386,0,0,0,19.174,5.56c5.42-.219,10.632-1.527,15-4.725,3.244-2.373,6.363-2.276,9.843-1.308A36.962,36.962,0,0,1,108.4,42.7c2.23,3.732,2.3,3.789-.082,7.381a58.061,58.061,0,0,1-49,26.473" transform="translate(23.905 63.368)" fill="#fff"/>
  <path id="Path_43500" data-name="Path 43500" d="M44.39,66.133a29.269,29.269,0,1,1,29.3-29.269,29.444,29.444,0,0,1-29.3,29.269" transform="translate(39.164 19.632)" fill="#fff"/>
</svg>
