<?xml version="1.0" encoding="UTF-8"?>
<svg id="Layer_2" data-name="Layer 2" xmlns="http://www.w3.org/2000/svg" viewBox="0 0 1506.02 1156.3">
  <defs>
    <style>
      .cls-1 {
        fill: #fff;
        stroke-width: 0px;
      }
    </style>
  </defs>
  <g id="Layer_1-2" data-name="Layer 1">
    <g>
      <g>
        <path class="cls-1" d="M1033.04,725.08c44.83,0,81.97,27.5,94.64,70.07l4.93,16.53,50.92-50.91-3.05-6.52c-26.5-56.63-83-91.8-147.44-91.8-93.3,0-163.66,70.8-163.66,164.69,0,64.39,34.42,121.16,89.83,148.15l6.59,3.21,49.31-49.31-15.54-5.36c-39.96-13.76-65.77-51.71-65.77-96.69,0-58.18,42.66-102.05,99.23-102.05Z"/>
        <path class="cls-1" d="M1276.88,663.49l-6.57-3.21-49.32,49.31,15.54,5.36c39.96,13.78,65.78,51.73,65.78,96.69,0,58.19-42.67,102.06-99.24,102.06-44.81,0-81.97-27.51-94.65-70.08l-4.93-16.54-50.89,50.91,3.03,6.53c26.5,56.63,82.99,91.81,147.44,91.81,93.3,0,163.66-70.8,163.66-164.7,0-64.4-34.42-121.16-89.84-148.14Z"/>
        <path class="cls-1" d="M181.06,762.61l-62.04-30.26c-32.67-15.18-32.67-25.12-32.67-34.74,0-20.66,19.17-35.09,46.61-35.09s48.79,14.72,51.78,36.65l1.72,12.59h72.3l-2.87-22.36c-7.53-58.66-56.03-96.57-123.57-96.57s-119.08,44.85-119.08,106.64c0,45.17,23.92,76.04,77.45,100.05l63.72,30.29c27.83,12.79,36.31,23.3,36.31,44.97,0,24.15-21.95,39.75-55.91,39.75s-55.79-18.32-60.57-47.8l-2.09-12.9H6.16l-6.16.79,3.2,22.73c9.43,67.12,58.74,107.19,131.92,107.19,88.22,0,128.41-57.55,128.41-111.02,0-65.29-39.63-91.9-82.47-110.93Z"/>
        <path class="cls-1" d="M497.73,840.53c0,43.72-26.11,88.95-69.8,88.95-38.85,0-56.55-30.37-56.55-58.58v-168.7h-65.02v168.44c0,70.73,50.69,122.08,120.55,122.08,27.01,0,51.89-8.82,72.61-25.6v17.44h62.97v-282.36h-64.76v138.33Z"/>
        <path class="cls-1" d="M1505.84,987.82l-3.18-1.27c-32.9-13.07-48.96-41.03-49.11-85.49l-.12-22.08.43-401.46-65.68,65.02,1.62,356.65c-.04,74.49,28.55,120.55,90.4,145.09l25.83,7.81-.18-64.28Z"/>
        <path class="cls-1" d="M785.65,840.53c0,43.72-26.11,88.95-69.8,88.95-38.85,0-56.55-30.37-56.55-58.58v-168.7h-65.02v168.44c0,70.73,50.69,122.08,120.55,122.08,27,0,51.88-8.82,72.61-25.61v189.19l62.97-62.98v-391.12h-64.76v138.33Z"/>
      </g>
      <path class="cls-1" d="M841.82,259.83l114.09-114.1v-62.52l-53.99,53.99c-2.57-4.22-5.36-8.35-8.35-12.34l62.34-62.33V0l-93.32,93.32c-28.55-21.55-64.41-33.36-101.52-33.36-93.89,0-164.69,70.36-164.69,163.66,0,37.3,12.15,73.19,34.3,101.61l-79.96,79.96v62.52l112.04-112.04c4.05,2.93,8.23,5.66,12.52,8.18l-124.55,124.56v62.52l60.55-60.55c30.26,42.02,80,66.92,134.29,66.92,93.89,0,164.69-70.36,164.69-163.66,0-54.35-25.47-103.89-68.44-133.8ZM795.43,306.23c32.75,16.87,52.2,49.29,52.2,87.41,0,56.58-43.87,99.24-102.05,99.24-37.91,0-70.74-17.95-88.59-48.21l138.44-138.44ZM708.88,309.56l139.19-139.19c2.69,4.28,5.06,8.83,7.08,13.61l-132.06,132.06c-4.92-1.8-9.68-3.97-14.21-6.48ZM676.04,279.88c-11.15-16.31-17.01-35.64-17.01-56.26,0-56.58,43.87-99.24,102.05-99.24,20.13,0,39.17,5.17,55.46,15.01l-140.5,140.5Z"/>
    </g>
  </g>
</svg>