<svg xmlns="http://www.w3.org/2000/svg" xmlns:xlink="http://www.w3.org/1999/xlink" width="60" height="60" viewBox="0 0 60 60">
  <defs>
    <clipPath id="clip-path">
      <rect id="Rectangle_21923" data-name="Rectangle 21923" width="60" height="60" transform="translate(803 2829)" fill="none" stroke="#707070" stroke-width="1"/>
    </clipPath>
  </defs>
  <g id="Mask_Group_7306" data-name="Mask Group 7306" transform="translate(-803 -2829)" clip-path="url(#clip-path)">
    <g id="Group_39619" data-name="Group 39619" transform="translate(634.973 2764.895)">
      <path id="Path_42924" data-name="Path 42924" d="M188.227,70.117a6.315,6.315,0,0,0-6.2,6.31v35.462a6.312,6.312,0,0,0,6.136,6.3V70.432a.872.872,0,0,1,.064-.315" fill="#004c79"/>
      <path id="Path_42925" data-name="Path 42925" d="M207.621,70.105h-14.1a.85.85,0,0,1,.066.328v47.776h14.031a6.321,6.321,0,0,0,6.321-6.321V76.426a6.321,6.321,0,0,0-6.321-6.321" fill="#004c79"/>
      <path id="Path_42926" data-name="Path 42926" d="M210.234,111.952a2.794,2.794,0,1,1-2.794-2.794,2.794,2.794,0,0,1,2.794,2.794" fill="#fff"/>
      <path id="Path_42927" data-name="Path 42927" d="M205.9,112.083a2.794,2.794,0,1,1-2.794-2.794,2.794,2.794,0,0,1,2.794,2.794" fill="#fff"/>
    </g>
  </g>
</svg>
