<svg xmlns="http://www.w3.org/2000/svg" xmlns:xlink="http://www.w3.org/1999/xlink" width="60" height="60" viewBox="0 0 60 60">
  <defs>
    <clipPath id="clip-path">
      <rect id="Rectangle_21922" data-name="Rectangle 21922" width="60" height="60" transform="translate(124 3000)" fill="none" stroke="#707070" stroke-width="1"/>
    </clipPath>
  </defs>
  <g id="Mask_Group_7305" data-name="Mask Group 7305" transform="translate(-124 -3000)" clip-path="url(#clip-path)">
    <g id="Group_39618" data-name="Group 39618" transform="translate(-148.965 2937.234)">
      <path id="Path_42922" data-name="Path 42922" d="M319.435,68.314c-.847-1.276-2.553-1.969-3.482-1.27-2.356,1.806-4.9.944-7.357,1.208-.992.107-2.4-.424-2.338,1.406.077,2.453-1.867,3.183-3.5,4.19a12.576,12.576,0,0,0-5.963,7.917,41.9,41.9,0,0,1-4.355,11.881c-2.305,4.282-3.25,9.229-6.04,13.268-2.58,3.726-2.909,8.271-5.432,12.177,2.687.155,4.771.167,6.83.414,2.814.342,4.761-.351,5.235-3.5.141-.918.394-2.191,1.481-2.344,4.118-.591,6.822-3.609,9.3-6.257,1.334-1.431,7.052-2.9,2.293-6.97-.73-.623-.052-1.887.569-2.64,1.426-1.737,2.974-3.216,5.526-3.041,1.86.137,3.74.032,5.871.032C315,91.46,315.189,90.2,319.3,88.05c2.835-1.486,5.333-3.909,4.829-6.621-.671-3.617-1.129-8.406-7.34-8.852.91-.992,1.354-1.388,1.69-1.862.5-.721,1.774-1.182.954-2.4" fill="#004b79"/>
      <path id="Path_42923" data-name="Path 42923" d="M312.913,83.956a2.316,2.316,0,0,1-.342,1.179,2.518,2.518,0,0,1-.963.892,3.427,3.427,0,0,1-1.483.393l-.017.984-.777-.014.017-.994a3.423,3.423,0,0,1-1.942-.768,2.171,2.171,0,0,1-.735-1.708l1.821.032a1.068,1.068,0,0,0,.88,1.072l.041-2.319a10.629,10.629,0,0,1-1.4-.461,2.282,2.282,0,0,1-.911-.719,2.066,2.066,0,0,1-.365-1.333,2.19,2.19,0,0,1,.789-1.71,3.28,3.28,0,0,1,1.974-.731l.017-.984.778.014-.018.984a3.152,3.152,0,0,1,1.852.738,2.372,2.372,0,0,1,.754,1.687l-1.835-.032a1.122,1.122,0,0,0-.795-1l-.04,2.295a11.555,11.555,0,0,1,1.431.468,2.259,2.259,0,0,1,.9.708,2.029,2.029,0,0,1,.365,1.324m-4.4-3.818a.891.891,0,0,0,.232.654,1.776,1.776,0,0,0,.7.419l.037-2.1a1.141,1.141,0,0,0-.7.317,1,1,0,0,0-.269.71m1.639,4.922a1.236,1.236,0,0,0,.729-.364,1.023,1.023,0,0,0,.274-.7.85.85,0,0,0-.244-.648,1.943,1.943,0,0,0-.722-.413Z" fill="#fff"/>
    </g>
  </g>
</svg>
