<svg xmlns="http://www.w3.org/2000/svg" xmlns:xlink="http://www.w3.org/1999/xlink" width="60" height="60" viewBox="0 0 60 60">
  <defs>
    <clipPath id="clip-path">
      <rect id="Rectangle_21978" data-name="Rectangle 21978" width="60" height="60" transform="translate(347 761)" fill="none" stroke="#707070" stroke-width="1"/>
    </clipPath>
    <clipPath id="clip-path-2">
      <rect id="Rectangle_21977" data-name="Rectangle 21977" width="31.007" height="46.714" fill="#014b79"/>
    </clipPath>
  </defs>
  <g id="Mask_Group_7353" data-name="Mask Group 7353" transform="translate(-347 -761)" clip-path="url(#clip-path)">
    <g id="Group_39969" data-name="Group 39969" transform="translate(361.497 767.643)">
      <g id="Group_39968" data-name="Group 39968" transform="translate(0 0)" clip-path="url(#clip-path-2)">
        <path id="Path_43527" data-name="Path 43527" d="M24.859,0H6.024A.986.986,0,0,0,5.97.3V0A6.145,6.145,0,0,0,0,6.13V40.584A6.13,6.13,0,0,0,5.97,46.7h5.26v.018H24.859a6.135,6.135,0,0,0,6.148-6.13V6.13A6.135,6.135,0,0,0,24.859,0M21.518,3.625V8.938a1.01,1.01,0,0,0,.6,1.066l.053.018v.8l-.338-.089A1.729,1.729,0,0,1,20.718,8.92L20.7,4.442ZM5.011,9.986a1.509,1.509,0,0,1-1.652-1.35L3.3,8.351h.906l.036.16a.681.681,0,0,0,.746.586c.426,0,.711-.2.711-.5,0-.267-.107-.391-.462-.551l-.8-.391c-.657-.3-.96-.675-.96-1.244A1.364,1.364,0,0,1,4.975,5.082,1.431,1.431,0,0,1,6.521,6.29l.036.284H5.65l-.018-.16a.6.6,0,0,0-.657-.462c-.338,0-.586.178-.586.444,0,.107,0,.231.409.426l.782.373A1.459,1.459,0,0,1,6.61,8.6a1.437,1.437,0,0,1-1.6,1.386m5.348,0h-.8V9.773A1.494,1.494,0,0,1,7.143,8.547V6.45H7.96V8.565a.683.683,0,0,0,.711.729c.551,0,.871-.569.871-1.119V6.45h.817Zm3.607,1.35-.8.8V9.755a1.394,1.394,0,0,1-.906.338,1.485,1.485,0,0,1-1.51-1.546V6.45h.817V8.565a.683.683,0,0,0,.711.729c.551,0,.871-.569.871-1.119V6.45h.817Zm2.221-4.6a1.286,1.286,0,0,0-.355,2.488l.2.071-.622.6-.089-.036A2.014,2.014,0,0,1,14.2,8.014a2.055,2.055,0,0,1,3.891-.924l.036.089-.64.64-.053-.213a1.206,1.206,0,0,0-1.191-.871Zm.338,1.99-.036-.071.64-.64.053.2a1.237,1.237,0,0,0,1.191.888h.053A1.291,1.291,0,0,0,18.8,6.61l-.2-.071.622-.622.071.053a1.984,1.984,0,0,1,1.119,1.848,2,2,0,0,1-1.137,1.848,2.048,2.048,0,0,1-2.754-.942M23.917,43.48a2.621,2.621,0,0,1-1.706-.622,2.72,2.72,0,0,1-3.465-4.193,2.755,2.755,0,0,1,3.465,0,2.694,2.694,0,1,1,1.706,4.815" transform="translate(0 0)" fill="#014b79"/>
        <path id="Path_43528" data-name="Path 43528" d="M3.416,0a.986.986,0,0,0-.053.3V0Z" transform="translate(2.613 0)" fill="#014b79"/>
      </g>
    </g>
  </g>
</svg>
