<svg xmlns="http://www.w3.org/2000/svg" xmlns:xlink="http://www.w3.org/1999/xlink" width="60" height="60" viewBox="0 0 60 60">
  <defs>
    <clipPath id="clip-path">
      <rect id="Rectangle_21927" data-name="Rectangle 21927" width="60" height="60" transform="translate(124 2831)" fill="none" stroke="#707070" stroke-width="1"/>
    </clipPath>
  </defs>
  <g id="Mask_Group_7308" data-name="Mask Group 7308" transform="translate(-124 -2831)" clip-path="url(#clip-path)">
    <g id="Group_39623" data-name="Group 39623" transform="translate(-259.92 2771.327)">
      <path id="Path_42933" data-name="Path 42933" d="M422.707,96.691h-1.475c0-.555.01-1.055,0-1.553a.467.467,0,0,0-.494-.489.484.484,0,0,0-.515.474c-.014.139-.007.28-.008.42,0,.374,0,.749,0,1.155-.219,0-.388-.013-.555,0a.482.482,0,0,0-.435.642c.084.316.328.374.6.374h2.7a2.124,2.124,0,0,0,.3-.012.51.51,0,1,0-.116-1.013" fill="#004c79"/>
      <path id="Path_42934" data-name="Path 42934" d="M416.655,88.5a.486.486,0,0,0,.482-.5c.008-.169,0-.338,0-.508s.009-.359,0-.537a.506.506,0,0,0-1.01-.015c-.018.358-.017.718,0,1.075a.493.493,0,0,0,.531.489" fill="#004c79"/>
      <path id="Path_42935" data-name="Path 42935" d="M420.647,81.338c-.151,0-.3,0-.45,0-.969,0-1.011.041-1.011,1.017s.047,1.033,1.031,1.033,1.02-.045,1.02-1.009c0-.15,0-.3,0-.45-.012-.407-.184-.578-.589-.59" fill="#004c79"/>
      <path id="Path_42936" data-name="Path 42936" d="M417.825,85.433c.789,0,1.579,0,2.367,0,.819,0,1.638,0,2.457,0,.449,0,.639-.19.64-.641q0-2.427,0-4.854c0-.473-.182-.653-.655-.653q-2.412,0-4.824,0c-.491,0-.669.18-.669.669q0,2.4,0,4.794c0,.509.176.685.684.686m.364-5.1h4.049V84.4h-4.049Z" fill="#004c79"/>
      <path id="Path_42937" data-name="Path 42937" d="M422.463,87.6a.741.741,0,0,0-.189.473c-.024.475-.009.953-.009,1.455-.194,0-.353-.007-.511,0a.485.485,0,0,0-.5.514.478.478,0,0,0,.513.5c.329.009.659.009.988,0a.471.471,0,0,0,.523-.465c.019-.718.028-1.439,0-2.156a.484.484,0,0,0-.806-.325" fill="#004c79"/>
      <path id="Path_42938" data-name="Path 42938" d="M410.353,91.567c-.8,0-1.6,0-2.4,0h-2.4c-.533,0-.7.166-.7.7q0,2.382,0,4.764c0,.513.172.687.683.688q2.4,0,4.794,0c.491,0,.672-.184.672-.669q0-2.412,0-4.823c0-.473-.183-.655-.653-.657m-.389,5.1H405.9V92.61h4.065Z" fill="#004c79"/>
      <path id="Path_42939" data-name="Path 42939" d="M407.941,95.664c.973,0,1.019-.046,1.019-1.01v-.03c0-.962-.05-1.01-1.022-1.01-.992,0-1.015.036-1.033,1.028-.016.944.093,1.055,1.036,1.022" fill="#004c79"/>
      <path id="Path_42940" data-name="Path 42940" d="M407.225,88.5c.474,0,.692-.159.7-.5s-.215-.516-.682-.517H405.9c-.011-.231-.008-.42-.032-.606a.443.443,0,0,0-.473-.409.457.457,0,0,0-.508.369,1.136,1.136,0,0,0-.026.267q0,1.394,0,2.786a1.136,1.136,0,0,0,.031.3.457.457,0,0,0,.519.353.443.443,0,0,0,.455-.4,2.774,2.774,0,0,0,.018-.418c0-.4,0-.795,0-1.221h1.343" fill="#004c79"/>
      <path id="Path_42941" data-name="Path 42941" d="M414.073,85.434c.5,0,.959,0,1.418,0,.409,0,.626-.19.621-.525s-.207-.494-.609-.5q-.913,0-1.828,0c-.456,0-.622.174-.623.641,0,.609,0,1.218,0,1.828v.6c-.2,0-.345,0-.494,0a.486.486,0,0,0-.524.494.479.479,0,0,0,.5.521q1.033.018,2.067,0a.507.507,0,0,0-.005-1.014c-.165-.008-.332,0-.518,0V85.434Z" fill="#004c79"/>
      <path id="Path_42942" data-name="Path 42942" d="M414.075,93.636c0,.182-.008.342,0,.5a.477.477,0,0,0,.523.492.466.466,0,0,0,.491-.491q.012-1.545,0-3.088a.488.488,0,0,0-.521-.5.5.5,0,0,0-.495.56c-.005.486,0,.972,0,1.481-.516,0-.994-.007-1.472,0a.514.514,0,0,0-.571.58c-.005.319-.007.639,0,.959a.469.469,0,0,0,.485.5.481.481,0,0,0,.53-.486c.011-.159,0-.319,0-.506Z" fill="#004c79"/>
      <path id="Path_42943" data-name="Path 42943" d="M422.741,91.57q-1.512-.012-3.024,0a.489.489,0,0,0-.52.5c0,.314.2.511.566.513.817.005,1.635,0,2.5,0,0,.53-.007,1.017,0,1.5.007.354.19.537.506.537a.48.48,0,0,0,.511-.537q.016-.987,0-1.976a.5.5,0,0,0-.545-.547" fill="#004c79"/>
      <path id="Path_42944" data-name="Path 42944" d="M411.006,88.048a.509.509,0,0,0-.316-.528.5.5,0,0,0-.7.478c-.011.5,0,.994,0,1.524-.53,0-1.027-.006-1.524,0a.474.474,0,0,0-.517.5.48.48,0,0,0,.525.519c.25.007.5,0,.75,0,1.089,0,2.179,0,3.268,0a.5.5,0,0,0,.559-.524.5.5,0,0,0-.561-.495c-.486-.005-.972,0-1.479,0,0-.518,0-1,0-1.474" fill="#004c79"/>
      <path id="Path_42945" data-name="Path 42945" d="M405.552,85.433q2.382,0,4.764,0c.511,0,.69-.177.691-.681q0-2.4,0-4.793c0-.493-.177-.673-.665-.675-.8,0-1.6,0-2.4,0h-2.367c-.557,0-.72.16-.721.709q0,2.367,0,4.733c0,.535.17.707.7.707m.351-5.1h4.061v4.06H405.9Z" fill="#004c79"/>
      <path id="Path_42946" data-name="Path 42946" d="M407.941,81.338c-.16,0-.32-.006-.48,0a.5.5,0,0,0-.547.539c-.009.169,0,.34,0,.509,0,.95.051,1,1,1,1.008,0,1.052-.043,1.052-1.043,0-.964-.044-1.007-1.02-1.006" fill="#004c79"/>
      <path id="Path_42947" data-name="Path 42947" d="M429.11,67.118c0-.253,0-.507-.026-.758A4.909,4.909,0,0,0,425.9,62c-.323-.136-.666-.222-1-.331H403.13c-.382.129-.775.233-1.147.39a5.068,5.068,0,0,0-3.063,5.054q0,22.317,0,44.635c0,.217,0,.434.016.65a4.947,4.947,0,0,0,4.943,4.813q10.1.026,20.205-.016a4.861,4.861,0,0,0,1.853-.344,4.979,4.979,0,0,0,3.178-5.048q-.014-22.344-.005-44.689M408.95,65.66q2.569,0,5.137,0t5.137,0c.734,0,1.125.274,1.11.761-.019.578-.569.66-1.656.678-3.46.056-5.924.017-8.945-.038-1.262-.022-1.906-.041-1.887-.682.014-.468.391-.717,1.1-.719M415.4,113.7c-.036,0-.073,0-.109,0h-1.2v0c-.435,0-.871.012-1.306,0a.81.81,0,0,1-.867-.686.784.784,0,0,1,.813-.783c.906-.03,1.815-.03,2.721,0a.785.785,0,0,1,.814.783.825.825,0,0,1-.868.689m8.612-13.74H403.922a1.374,1.374,0,0,1-1.374-1.374V78.409a1.374,1.374,0,0,1,1.374-1.374h20.086a1.374,1.374,0,0,1,1.374,1.374V98.59a1.374,1.374,0,0,1-1.374,1.374" fill="#004c79"/>
      <path id="Path_42948" data-name="Path 42948" d="M415.771,96.691q-1.094,0-2.187,0c-.245,0-.461.1-.491.345a.812.812,0,0,0,.144.537.617.617,0,0,0,.434.136c.949.011,1.9.01,2.846,0,.453,0,.621-.185.623-.65s0-.912,0-1.4c.173,0,.311,0,.448,0,.391-.016.566-.189.574-.573.005-.31.006-.619,0-.929a.49.49,0,0,0-.51-.538.5.5,0,0,0-.508.517c-.009.157,0,.314,0,.483-.123.007-.211.014-.3.015-.573.008-.725.16-.725.734,0,.428,0,.856,0,1.32h-.347" fill="#004c79"/>
      <path id="Path_42949" data-name="Path 42949" d="M416.616,92.584c.3.012.6.007.9,0,.484,0,.646-.164.649-.645,0-.456,0-.913,0-1.352.053-.025.071-.04.088-.04l1.257-.008c.555,0,.7-.15.7-.714,0-.489,0-.979,0-1.468v-.885c.2,0,.354.008.512,0a.482.482,0,0,0,.5-.513.475.475,0,0,0-.509-.5c-.3-.008-.6,0-.9,0-.454,0-.629.177-.632.64,0,.7,0,1.4,0,2.1,0,.1-.009.21-.014.329h-1.35c-.511,0-.681.171-.682.684,0,.446,0,.891,0,1.364-.2,0-.373-.012-.539,0a.5.5,0,0,0-.477.517.481.481,0,0,0,.492.5" fill="#004c79"/>
      <path id="Path_42950" data-name="Path 42950" d="M412.641,82.364c-.4,0-.6.173-.606.5s.2.518.592.522q.928.01,1.856,0c.434-.005.61-.192.612-.632,0-.458,0-.915,0-1.417.171,0,.3,0,.429,0,.389-.015.6-.2.588-.525s-.206-.49-.581-.5c-.27-.007-.539,0-.809,0-.477.005-.647.176-.649.653,0,.456,0,.912,0,1.4-.5,0-.966,0-1.433,0" fill="#004c79"/>
      <path id="Path_42951" data-name="Path 42951" d="M412.032,80.851a.473.473,0,0,0,.48.47.46.46,0,0,0,.525-.418,9.689,9.689,0,0,0,0-1.193.506.506,0,0,0-1,.036c-.014.189,0,.378,0,.568h0v.477a.6.6,0,0,0,0,.06" fill="#004c79"/>
      <path id="Path_42952" data-name="Path 42952" d="M407.938,93.613c.973,0,1.022.049,1.022,1.01v.03c0,.965-.046,1.01-1.019,1.01-.943.034-1.052-.077-1.035-1.022.017-.992.04-1.028,1.032-1.028" fill="#004c79"/>
    </g>
  </g>
</svg>
