<svg xmlns="http://www.w3.org/2000/svg" xmlns:xlink="http://www.w3.org/1999/xlink" width="60" height="60" viewBox="0 0 60 60">
  <defs>
    <clipPath id="clip-path">
      <rect id="Rectangle_21988" data-name="Rectangle 21988" width="60" height="60" transform="translate(347 932)" fill="none" stroke="#707070" stroke-width="1"/>
    </clipPath>
  </defs>
  <g id="Mask_Group_7363" data-name="Mask Group 7363" transform="translate(-347 -932)" clip-path="url(#clip-path)">
    <g id="Group_39997" data-name="Group 39997" transform="translate(353.969 936.775)">
      <path id="Path_43473" data-name="Path 43473" d="M21.408,7.929l-5.519,5.525a1.435,1.435,0,0,1-1,.411,1.407,1.407,0,0,1-.993-2.4L17.011,8.34H1.41A1.4,1.4,0,0,1,0,6.93a1.414,1.414,0,0,1,1.41-1.41h15.6L13.9,2.4a1.405,1.405,0,0,1,0-1.993A1.39,1.39,0,0,1,14.889,0a1.408,1.408,0,0,1,1,.411l5.519,5.525a1.408,1.408,0,0,1,0,1.993" transform="translate(29.663 29.372) rotate(90)" fill="#014b79"/>
      <g id="Group_39901" data-name="Group 39901">
        <path id="Path_9517" data-name="Path 9517" d="M50.367-73.254A4.872,4.872,0,0,1,45.5-68.383a4.872,4.872,0,0,1-4.871-4.871A4.872,4.872,0,0,1,45.5-78.125a4.872,4.872,0,0,1,4.871,4.871" transform="translate(-22.765 86.243)" fill="#014b79"/>
        <path id="Path_9518" data-name="Path 9518" d="M46.84-93.75H11.121A4.872,4.872,0,0,0,6.25-88.879v16.236a4.872,4.872,0,0,0,4.871,4.871H46.84a4.872,4.872,0,0,0,4.871-4.871V-88.879A4.872,4.872,0,0,0,46.84-93.75ZM14.368-85.632H12.744a1.623,1.623,0,0,1-1.624-1.624,1.623,1.623,0,0,1,1.624-1.624h1.624a1.623,1.623,0,0,1,1.624,1.624A1.623,1.623,0,0,1,14.368-85.632ZM28.98-72.643a8.109,8.109,0,0,1-5.74-2.379,8.109,8.109,0,0,1-2.379-5.74,8.109,8.109,0,0,1,2.379-5.74,8.109,8.109,0,0,1,5.74-2.379A8.109,8.109,0,0,1,34.72-86.5a8.109,8.109,0,0,1,2.379,5.74,8.109,8.109,0,0,1-2.379,5.74A8.109,8.109,0,0,1,28.98-72.643Zm16.236,0H43.593a1.623,1.623,0,0,1-1.624-1.624,1.623,1.623,0,0,1,1.624-1.624h1.624a1.623,1.623,0,0,1,1.624,1.624A1.623,1.623,0,0,1,45.217-72.643Z" transform="translate(-6.25 93.75)" fill="#014b79"/>
      </g>
    </g>
  </g>
</svg>
