<?xml version="1.0" encoding="UTF-8"?>
<svg id="Layer_2" data-name="Layer 2" xmlns="http://www.w3.org/2000/svg" xmlns:xlink="http://www.w3.org/1999/xlink" viewBox="0 0 884.71 913.18">
  <defs>
    <style>
      .cls-1 {
        fill: url(#linear-gradient);
      }

      .cls-1, .cls-2, .cls-3, .cls-4, .cls-5, .cls-6, .cls-7, .cls-8, .cls-9, .cls-10 {
        stroke-width: 0px;
      }

      .cls-11, .cls-12, .cls-13, .cls-14, .cls-15, .cls-16 {
        stroke-miterlimit: 10;
      }

      .cls-11, .cls-12, .cls-15 {
        stroke: #fff;
      }

      .cls-12, .cls-5 {
        fill: #287094;
      }

      .cls-13 {
        stroke: url(#linear-gradient-3);
      }

      .cls-13, .cls-14 {
        stroke-width: 2px;
      }

      .cls-13, .cls-14, .cls-8, .cls-10 {
        fill: #fff;
      }

      .cls-14 {
        stroke: url(#linear-gradient-2);
      }

      .cls-15, .cls-16 {
        fill: none;
      }

      .cls-16 {
        stroke: #287094;
      }

      .cls-3 {
        fill: #fabf2d;
        filter: url(#drop-shadow-2);
      }

      .cls-4 {
        fill: #f8be2c;
      }

      .cls-6 {
        fill: #25627a;
      }

      .cls-7 {
        fill: #236d96;
      }

      .cls-9 {
        fill: #fae5df;
      }

      .cls-10 {
        fill-rule: evenodd;
        filter: url(#drop-shadow-1);
      }
    </style>
    <linearGradient id="linear-gradient" x1="-9077.47" y1="8512.18" x2="-8201.56" y2="8512.18" gradientTransform="translate(-8560.85 -7657.18) rotate(177.52) scale(1 -1)" gradientUnits="userSpaceOnUse">
      <stop offset="0" stop-color="#387ea5"/>
      <stop offset=".87" stop-color="#4e4376"/>
    </linearGradient>
    <filter id="drop-shadow-1" filterUnits="userSpaceOnUse">
      <feOffset dx="7" dy="7"/>
      <feGaussianBlur result="blur" stdDeviation="5"/>
      <feFlood flood-color="#000" flood-opacity=".3"/>
      <feComposite in2="blur" operator="in"/>
      <feComposite in="SourceGraphic"/>
    </filter>
    <filter id="drop-shadow-2" filterUnits="userSpaceOnUse">
      <feOffset dx="7" dy="7"/>
      <feGaussianBlur result="blur-2" stdDeviation="5"/>
      <feFlood flood-color="#000" flood-opacity=".3"/>
      <feComposite in2="blur-2" operator="in"/>
      <feComposite in="SourceGraphic"/>
    </filter>
    <linearGradient id="linear-gradient-2" x1="523.43" y1="62.36" x2="884.71" y2="62.36" gradientTransform="matrix(1,0,0,1,0,0)" xlink:href="#linear-gradient"/>
    <linearGradient id="linear-gradient-3" x1="723.69" y1="200.69" x2="884.32" y2="200.69" gradientTransform="matrix(1,0,0,1,0,0)" xlink:href="#linear-gradient"/>
  </defs>
  <g id="Layer_1-2" data-name="Layer 1">
    <g>
      <path class="cls-1" d="M735.65,484.91l-11.75,46.67c-30.17,120.11-130.37,201.24-255.21,206.64-157.61,6.82-281.76-110.25-288.78-272.34-1.57-36.33,3.03-71.24,12.96-103.61-.81-1.15-1.43-2.56-1.77-4.26-.12-.58-.21-1.17-.32-1.75-1.43-3.35-1.84-7-1.64-10.73-2.93-25.62.78-51.74,8.62-76.3,3.96-12.4,8.43-24.12,16.87-34.16,8.25-9.81,18.96-17.8,29.75-24.61,24.67-15.58,50.2-26.64,79.23-30.74,14.85-2.1,29.59-1.8,44.52-2.57,4.87-.25,9.73-.64,14.57-.87l11.43-4.5L250.8,40.37l-17.93,9.74C81.75,131.97-7.3,294.25.47,473.64c11.33,261.57,215.86,450.32,475.78,439.06,179.53-7.77,332.64-112.6,399.65-273.54l7.67-18.57-147.91-135.69Z"/>
      <g>
        <path class="cls-10" d="M340.94,160.57h0c-83.95,0-152,68.05-152,152v68.33h33.98v-66.98c0-65.2,52.86-118.06,118.06-118.06h0c65.2,0,118.06,52.86,118.06,118.06v66.98h33.92v-68.33c0-83.95-68.05-152-152-152Z"/>
        <rect class="cls-3" x="131.18" y="367.48" width="419.53" height="376.55" rx="30.69" ry="30.69"/>
        <g>
          <circle class="cls-2" cx="347.14" cy="528.9" r="51.66"/>
          <rect class="cls-2" x="327.68" y="551.08" width="38.91" height="86.12" rx="6.47" ry="6.47"/>
        </g>
      </g>
      <g>
        <path class="cls-2" d="M235.39,88.31c-11.25-18.43,3.23-33.78-.75-38.1-3.98-4.32-27.66-4.3-23.61,37.9,2.41,25.1,34.2,34.79,34.2,34.79,15.62-13.96.73-17.27-9.84-34.59Z"/>
        <path class="cls-2" d="M272.67,16.14c-7.98-20.17-64.09-28.7-60.89,18.69,2.05,30.28,41.5,14.06,41.5,14.06,1.65,5.42,27.54-12.15,19.39-32.75Z"/>
        <path class="cls-11" d="M422.97,486.64c-1.42,1.94,23.53,24.28,41.11,32.12,5.8,2.58,43.15,6.02,44.18,2.3,5.88-21.39-34.73-21.36-49.63-29.07-14.9-7.71-24.35-20.74-35.66-5.35Z"/>
        <path class="cls-11" d="M409.8,497.63c-1.42,1.94,23.53,24.28,41.11,32.12,5.8,2.58,43.15,6.02,44.18,2.3,5.88-21.39-34.73-21.36-49.63-29.07-14.9-7.71-24.35-20.74-35.66-5.35Z"/>
        <path class="cls-5" d="M411.07,375.56l-3.79,134.89s11.75,5.49,42.83,4.71c17.14-.43,36.42-8.59,36.42-8.59,0,0,2.91-132.72-13.13-166.04-16.03-33.32-62.34,35.03-62.34,35.03Z"/>
        <path class="cls-5" d="M431.24,368.68l7.59,124.87s10.43,5.1,37.93,4.42c15.17-.38,32.18-7.91,32.18-7.91,0,0,3.94-134.55-10.45-165.44-14.39-30.89-67.26,44.06-67.26,44.06Z"/>
        <path class="cls-9" d="M272.66,122.71l-11.04,1.76s1.41,11.86,2.01,15.49c.92,5.54-1.25,7.86-14.1,14.22-16.31,8.07-8.62,16.14-8.62,16.14,0,0,3.31,22.94,30.64,24.45,27.32,1.51,48.42-42.35,48.42-42.35,0,0-22.68-4.51-32.46-6.64-4.82-1.05-7.81-1.56-8.94-2.55-6.96-6.13-5.91-20.52-5.91-20.52Z"/>
        <path class="cls-2" d="M273.82,122.97l.07,6.88s-.52,2.37-5.58,3.34c-4.89.94-5.78-.22-5.78-.22l-1.06-5.31,12.35-4.68Z"/>
        <path class="cls-9" d="M225.56,94.94c4.45,23.21,25.67,39.23,44.14,35.09,20.92-4.7,27.64-24.8,23.18-48.01-4.45-23.21-23.14-39.13-41.73-35.57-18.59,3.57-30.05,25.28-25.6,48.49Z"/>
        <path class="cls-2" d="M275.29,68.38c14.66,5.4,16.04,22.77,20.09,23.31,4.04.54,11.97-19.34-11.74-43.42-14.1-14.33-32.04-2.14-32.04-2.14.15,17.12,9.92,17.18,23.69,22.26Z"/>
        <ellipse class="cls-9" cx="228.71" cy="106.36" rx="6" ry="11.79" transform="translate(-23.33 116.2) rotate(-27.18)"/>
        <g>
          <path class="cls-5" d="M282.34,55.24s-.99.62-3.55,4.28c-2.55,3.66-5.91,7.13-5.91,7.13,0,0,1.15.73,2.23,1.37.91.54,3.04,1.56,3.04,1.56,0,0,1.59-2.09,3.92-5.89,2.74-4.46,3.3-6.88,3.3-6.88l-3.04-1.56Z"/>
          <path class="cls-8" d="M285.06,55.84l3.09-1.86.34-1.36-1.46.88c-.03-.11-.07-.21-.11-.31l1.69-1.02.34-1.36-2.53,1.52c-.5-.62-1.22-1.07-2.02-1.27-2.04-.51-3.96.63-4.46,2.66-.2.81-.13,1.65.19,2.39l-2.17,1.3-.34,1.36,3.04-1.82c.07.09.15.17.23.25l-3.38,2.03-.34,1.36,1.64-.99c.43,1.08,1.37,1.89,2.55,2.18,2.04.51,3.96-.63,4.46-2.66.29-1.18.01-2.39-.76-3.27ZM283.81,56.6c.62.54.87,1.35.66,2.18-.31,1.23-1.49,1.92-2.75,1.6-.82-.21-1.44-.77-1.66-1.53l3.75-2.25ZM281.91,56.2l3.78-2.27c.04.11.06.22.08.33l-3.58,2.15c-.1-.07-.19-.14-.27-.22ZM281.36,55.38c-.15-.41-.18-.87-.06-1.31.31-1.23,1.49-1.92,2.75-1.6.44.11.82.32,1.12.63l-3.81,2.29Z"/>
        </g>
        <path class="cls-16" d="M233.99,114.72c7.99-1.53,16.08,5.61,18.06,15.96,1.99,10.35-2.88,19.98-10.87,21.52-7.99,1.53-16.08-5.61-18.06-15.96-1.65-8.59,1.43-16.69,7.09-20.07"/>
        <path class="cls-2" d="M244.04,92.21c2.33,2.22,4.83,1.99,7.29,1.78,2.48-.22,5.09-1.04,7.51-3.22.93-.84.11-1.4-.41-1-1.8,1.43-3.13,2.12-4.47,2.15s-2.68.09-4.8.47c-1.88.34-3.55.14-4.45-.7-.15-.14-.52-.57-.8-.04-.05.09,0,.44.12.56Z"/>
        <path class="cls-2" d="M272.11,89.62c2.33,2.22,4.83,1.99,7.29,1.78,2.48-.22,5.09-1.04,7.51-3.22.93-.84.11-1.4-.41-1-1.8,1.43-3.13,2.12-4.47,2.15s-2.68.09-4.8.47c-1.88.34-3.55.14-4.45-.7-.15-.14-.52-.57-.8-.04-.05.09,0,.44.12.56Z"/>
        <path class="cls-2" d="M256.34,111.12c2,2.52,4.3,3.34,6.76,3.46s5.33-.38,8.02-2.22c1.04-.71.28-1.4-.27-1.04-1.99,1.27-2.98,1.65-4.58,2.02-1.59.37-2.93.48-5.03,0-2.1-.48-3.38-1.67-4.16-2.62-.13-.16-.43-.63-.79-.15-.06.08-.06.44.04.57Z"/>
        <path class="cls-9" d="M226.12,193.77l22.75,3.49s-11.29,58.11-13.71,74.99c-2.82,19.62-19.96,18.31-19.34-3.17.73-25.67,10.3-75.31,10.3-75.31Z"/>
        <path class="cls-9" d="M343.26,177.15l-19.67,6.41s18.53,51.3,23.16,66.33c5.38,17.46,20.38,13.83,16.69-5.64-4.42-23.26-20.18-67.1-20.18-67.1Z"/>
        <path class="cls-4" d="M354.49,204.43l-15,3.56-4.29-22.36s9.86,15.83,5.27,31.03c-3.02,10.02-5.76,17.11-5.65,23.23.08,4.54.76,16.48.76,16.48l-31.19,11.68-34.04-1.29s-4.19-18.1-6.23-25.21c-1.7-5.9-5.81-13.56-9.55-22.39-.82-1.93-3.72-18-3.72-18l-6.83,26.26-23.46-.86s-.35-65.47,7.24-71.13c3.53-2.63,8.69-5.56,13.29-4.96,7.82,1.01,11.43,2.44,11.43,2.44,0,0,19.26,22.7,45.88,18.66,26.61-4.04-1.91-24.18-1.91-24.18,0,0,20.12,3.82,27.79,6.26,6.24,1.98,18.96,16.31,30.2,50.79Z"/>
        <path class="cls-5" d="M282.54,373.94c36.16,29.92,142.86,10.46,142.86,10.46,0,0,37.28,13.24,34.53-11.41-2.03-18.19-7.77-36.59-20.08-39.25-24.01-5.19-135.18-39.97-135.18-39.97,0,0-66.59,43.38-22.12,80.17Z"/>
        <path class="cls-5" d="M366.24,322.61l108.11,33.28s16.71,15.33,25.35-5.17c4.77-11.31.75-34.43-8.86-40-27.37-15.86-86.1-33.65-112.52-35.1-26.15-1.43-37.37,3.49-37.37,3.49l25.29,43.49Z"/>
        <path class="cls-5" d="M335.9,248.13l-21.83,12.6-44.14,3.09s-.32,22.01-3.2,29.1c-3.84,9.47-16.3,41.86,9.64,74.44,7.13,8.95,16.63,13.96,21.03,12.96,7.21-1.64-.68.76,19.13-14.16,16.4-12.36,32.98,2.64,25.68-7.63-14.24-20.02-3.91-14.22-3.91-14.22l10.29,10.03s-11.17.03,14.96-16.82c14.41-9.29,17.52-6.39,32.27-11.17,13.37-4.34,22.79-4.24-6.56-26.73-29.04-22.26-40.42-29.03-40.42-29.03,0,0-8.69-9.95-12.95-22.48Z"/>
        <path class="cls-6" d="M277.46,287.56l2.18-1.26c.72-2.65-2,6.17-1.96,21.95.03,12.95,5.1,32.59,5.1,32.59,0,0-6.14-18.06-7.75-33.22-1.18-11.12,2.44-20.05,2.44-20.05Z"/>
        <path class="cls-6" d="M335.3,272.75l-2.34.91s5.64-4.03,15.21,4.71c9.56,8.73,22.18,24.41,22.18,24.41,0,0-10.21-16.11-21.01-26.88-7.92-7.89-14.04-3.15-14.04-3.15Z"/>
        <path class="cls-6" d="M296.91,288.1l2.94-2.07s-4.94,2.23-1.34,14.69c3.6,12.44,4.33,14.61,4.33,14.61,0,0-2.19-.2-7.06-14.65-3.57-10.6,1.14-12.58,1.14-12.58Z"/>
        <path class="cls-6" d="M324.92,276.58l-3.39,1.19s5.89-3.34,13.93,6.83c8.03,10.16,9.37,12.01,9.37,12.01,0,0,1.11-1.9-7.81-14.26-6.54-9.07-12.09-5.77-12.09-5.77Z"/>
        <path class="cls-9" d="M220.51,353.78l-11.89,2.34s4.27-60.18,7.2-79.24c3.4-22.14,20.49-20.28,19.24,4.02-1.49,29.03-14.55,72.88-14.55,72.88Z"/>
        <path class="cls-15" d="M403.22,312.28s40.91,22.5,57.72,34.27"/>
        <line class="cls-12" x1="482.99" y1="498.73" x2="473.32" y2="354.28"/>
        <g>
          <path class="cls-9" d="M205.59,345.82c-3.8,1.84-14.9,8.14-16.45,13.29-1.93,6.44-.96,2,2.41,4.94,2.35,2.05,2.22,5.27,7.99,3.08,7.31-2.77,11.88,2.29,17.36-6.28,3.54-5.53,4.32-8.76,4.89-9.77,2.26-4.03,1.93-11.98,1.76-12.09l-11.42-1.77s-4.11,7.43-6.54,8.61Z"/>
          <path class="cls-9" d="M197.52,368.34s-19.77,11.36-23.11,11.15c-1.89-.12,11.95-8.64,19.05-14.9s4.06,3.74,4.06,3.74Z"/>
          <path class="cls-9" d="M215.01,363.27s-5.83,9.43-15.56,19.01c-1.35,1.33.27-10.58,7.37-16.84,7.1-6.26,8.19-2.17,8.19-2.17Z"/>
          <path class="cls-9" d="M195.51,364.06s-30.18,12.3-34.95,5.02c-1.04-1.58,25.57-8.22,34.48-16.78,8.54-8.21.48,11.76.48,11.76Z"/>
        </g>
        <g>
          <path class="cls-9" d="M347.93,349.17c.02,4.22-.18,14.63-2.55,19.46-1.11,2.26-3.54,2.9-7.66,1.16-2.87-1.21-8.7-4.57-7.19-6.88.95-1.45,1.78-2.14-2.09-3.98-.71-.34,1.04-3.13,1.21-6.05.15-2.63-1.38-5.33-.19-7.27,3.42-5.6,5.98-7.73,6.64-8.68,2.63-3.8,2.14-14.46,2.31-14.36l11.6,10.48s-2.09,13.43-2.07,16.13Z"/>
          <path class="cls-9" d="M330.02,353.88s-11.12,22.96-10.63,26.67c.28,2.1,8.7-14.02,15.12-22.44,6.43-8.42-4.5-4.23-4.5-4.23Z"/>
          <path class="cls-9" d="M331.07,344.45s-8.9,6.6-17.63,17.11c-1.21,1.46,10.52-1.16,16.16-8.76,5.64-7.61,1.47-8.34,1.47-8.34Z"/>
        </g>
        <path class="cls-9" d="M348.58,339.16l-11.97.02s5.58-57.45,8.88-75.61c3.84-21.09,20.53-18.88,18.75,4.34-2.13,27.73-15.65,71.26-15.65,71.26Z"/>
        <path class="cls-2" d="M243.74,85.89c.18-.01.36-.06.52-.14,3.28-1.63,14.08-2.92,14.14-2.92.77-.04,1.34-.65,1.32-1.4-.02-.75-.64-1.34-1.4-1.33-.27.01-11.46,1.3-15.28,3.2-.67.34-.95,1.15-.61,1.83.25.5.77.78,1.3.75Z"/>
        <path class="cls-2" d="M270.75,82.59c.18.02.36.01.54-.04,3.53-1,14.38-.24,14.43-.23.76.1,1.44-.38,1.56-1.13.12-.74-.38-1.44-1.12-1.56-.27-.04-11.5-.86-15.61.3-.72.2-1.14.96-.94,1.68.15.54.61.91,1.14.98Z"/>
        <path class="cls-2" d="M284.73,89.95c.03,1.48.72,2.66-1.9,3.78-2.24.95-4.44-1.11-4.47-2.59s1.93-1.09,4.36-1.14,1.98-1.52,2.01-.04Z"/>
        <path class="cls-2" d="M256.67,93.2c.03,1.48.04,2.01-2.59,3.12-2.24.95-4.44-1.11-4.47-2.59-.03-1.48,1.93-1.09,4.36-1.14s2.66-.87,2.69.61Z"/>
        <path class="cls-2" d="M260.65,43.81s1.53,24.98-19.92,45.41c-5.61,5.34-6.84,5.91,2,47.31,6.37,29.82,13.04,70.47,13.04,70.47,0,0-14.06-60.51-14.27-64.21-.85-14.62-7.17-26.81-9.43-35.71-1.35-5.31-5.27-8.9-6.14-10.57-5.64-10.82-16.29-14.03-3.6-39.21,9.41-18.67,38.32-13.49,38.32-13.49Z"/>
        <path class="cls-8" d="M318.19,268.72l2.05-3.33-.35-1.47-.97,1.57c-.08-.09-.17-.17-.27-.24l1.12-1.82-.35-1.47-1.68,2.72c-.79-.35-1.7-.43-2.58-.22-2.21.52-3.49,2.58-2.97,4.78.21.88.7,1.66,1.38,2.2l-1.44,2.33.35,1.47,2.01-3.27c.11.05.23.09.34.12l-2.24,3.63.35,1.47,1.09-1.77c.95.82,2.26,1.13,3.54.83,2.21-.52,3.49-2.58,2.97-4.78-.3-1.28-1.18-2.31-2.36-2.77ZM317.36,270.07c.87.21,1.51.87,1.72,1.77.32,1.33-.48,2.58-1.85,2.91-.89.21-1.77-.03-2.36-.64l2.49-4.04ZM315.34,270.64l2.5-4.06c.09.09.17.18.24.28l-2.37,3.85c-.13-.01-.25-.04-.37-.07ZM314.4,270.12c-.35-.32-.6-.74-.72-1.23-.32-1.33.48-2.58,1.85-2.91.47-.11.95-.1,1.39.04l-2.53,4.1Z"/>
      </g>
      <g>
        <rect class="cls-14" x="524.43" y="29.56" width="359.28" height="65.6" rx="7.03" ry="7.03"/>
        <g>
          <path class="cls-2" d="M578.2,60.87l11.71-7.9,2.54,4.63-12.8,5.81,12.89,5.81-2.63,4.72-11.71-7.81,1.09,14.26h-5.27l1-14.26-11.71,7.9-2.72-4.81,12.89-5.81-12.8-5.72,2.63-4.72,11.8,7.9-1.09-14.25h5.36l-1.18,14.25Z"/>
          <path class="cls-2" d="M620.78,60.87l11.71-7.9,2.54,4.63-12.8,5.81,12.89,5.81-2.63,4.72-11.71-7.81,1.09,14.26h-5.27l1-14.26-11.71,7.9-2.72-4.81,12.89-5.81-12.8-5.72,2.63-4.72,11.8,7.9-1.09-14.25h5.36l-1.18,14.25Z"/>
          <path class="cls-2" d="M663.36,60.87l11.71-7.9,2.54,4.63-12.8,5.81,12.89,5.81-2.63,4.72-11.71-7.81,1.09,14.26h-5.27l1-14.26-11.71,7.9-2.72-4.81,12.89-5.81-12.8-5.72,2.63-4.72,11.8,7.9-1.09-14.25h5.36l-1.18,14.25Z"/>
          <path class="cls-2" d="M705.94,60.87l11.71-7.9,2.54,4.63-12.8,5.81,12.89,5.81-2.63,4.72-11.71-7.81,1.09,14.26h-5.27l1-14.26-11.71,7.9-2.72-4.81,12.89-5.81-12.8-5.72,2.63-4.72,11.8,7.9-1.09-14.25h5.36l-1.18,14.25Z"/>
          <path class="cls-2" d="M748.52,60.87l11.71-7.9,2.54,4.63-12.8,5.81,12.89,5.81-2.63,4.72-11.71-7.81,1.09,14.26h-5.27l1-14.26-11.71,7.9-2.72-4.81,12.89-5.81-12.8-5.72,2.63-4.72,11.8,7.9-1.09-14.25h5.36l-1.18,14.25Z"/>
          <path class="cls-2" d="M791.1,60.87l11.71-7.9,2.54,4.63-12.8,5.81,12.89,5.81-2.63,4.72-11.71-7.81,1.09,14.26h-5.27l1-14.26-11.71,7.9-2.72-4.81,12.89-5.81-12.8-5.72,2.63-4.72,11.8,7.9-1.09-14.25h5.36l-1.18,14.25Z"/>
          <path class="cls-2" d="M833.68,60.87l11.71-7.9,2.54,4.63-12.8,5.81,12.89,5.81-2.63,4.72-11.71-7.81,1.09,14.26h-5.27l1-14.26-11.71,7.9-2.72-4.81,12.89-5.81-12.8-5.72,2.63-4.72,11.8,7.9-1.09-14.25h5.36l-1.18,14.25Z"/>
        </g>
      </g>
      <g>
        <rect class="cls-13" x="724.69" y="113.61" width="158.63" height="174.16" rx="9.37" ry="9.37"/>
        <g id="_43_Identification" data-name="43 Identification">
          <g id="Group_6491" data-name="Group 6491">
            <g id="Group_6490" data-name="Group 6490">
              <path id="Path_11544" data-name="Path 11544" class="cls-7" d="M825.71,260.66c-2.96-.93-5.84-2.1-8.62-3.47-1.14-.57-2.53-.11-3.1,1.03-.57,1.14-.11,2.53,1.03,3.1,0,0,0,0,.01,0,2.99,1.48,6.1,2.73,9.28,3.74,1.22.38,2.51-.29,2.9-1.51.38-1.22-.29-2.51-1.51-2.9h0Z"/>
              <path id="Path_11545" data-name="Path 11545" class="cls-7" d="M835.29,250.03c-2.83-.51-5.6-1.28-8.29-2.3-1.2-.43-2.52.2-2.95,1.4-.41,1.17.17,2.46,1.32,2.92,2.95,1.11,5.99,1.95,9.09,2.51,1.25.23,2.46-.6,2.68-1.86.23-1.25-.6-2.46-1.86-2.68h0Z"/>
              <path id="Path_11546" data-name="Path 11546" class="cls-7" d="M793.43,139.7c-22.16,0-40.12,17.95-40.13,40.1,0,.02,0,.03,0,.05,0,5.68-4.61,10.29-10.29,10.29-1.28,0-2.31,1.03-2.31,2.31s1.03,2.31,2.31,2.31c8.22.02,14.9-6.63,14.92-14.85,0-.03,0-.06,0-.08,0-19.61,15.9-35.51,35.51-35.52,19.61,0,35.51,15.9,35.52,35.51h0c0,4.85-.02,22.07.02,22.87.07,8.18,6.71,14.78,14.89,14.79,1.28,0,2.31-1.03,2.31-2.31s-1.03-2.31-2.31-2.31c-5.68,0-10.28-4.61-10.28-10.28,0-.3-.01-22.45-.01-22.75-.03-22.15-17.98-40.1-40.13-40.13Z"/>
              <path id="Path_11547" data-name="Path 11547" class="cls-7" d="M797.2,215.99c.73-1.05.46-2.49-.58-3.21-1.05-.73-2.49-.46-3.21.58-.01.02-.03.04-.04.06-10.51,15.75-27.73,25.73-46.61,27.03-1.27.08-2.24,1.17-2.16,2.45.08,1.27,1.17,2.24,2.45,2.16,20.33-1.39,38.86-12.13,50.17-29.07Z"/>
              <path id="Path_11548" data-name="Path 11548" class="cls-7" d="M802.47,229.78c.82-.98.69-2.43-.29-3.25-.98-.82-2.43-.69-3.25.29-11.47,13.81-27.61,22.91-45.35,25.59-1.26.19-2.13,1.36-1.95,2.62s1.36,2.13,2.62,1.95c18.86-2.84,36.03-12.52,48.22-27.19Z"/>
              <path id="Path_11549" data-name="Path 11549" class="cls-7" d="M810.2,240.03c.87-.94.81-2.4-.13-3.26-.94-.87-2.4-.81-3.26.13-.02.02-.04.04-.05.06-11.18,12.61-25.81,21.65-42.09,26.01-1.23.33-1.97,1.59-1.64,2.82.33,1.23,1.59,1.97,2.82,1.64h0c17.15-4.59,32.57-14.12,44.35-27.4Z"/>
              <path id="Path_11550" data-name="Path 11550" class="cls-7" d="M820.39,247.51c.83-.97.71-2.43-.27-3.26-.95-.81-2.38-.71-3.22.22-9.76,11.18-21.88,20.05-35.48,25.97-1.17.51-1.71,1.86-1.2,3.04.51,1.17,1.86,1.71,3.04,1.2h0c14.24-6.19,26.92-15.48,37.13-27.17Z"/>
              <path id="Path_11551" data-name="Path 11551" class="cls-7" d="M795.63,183.02l.1-2.65c.06-1.27-.92-2.36-2.2-2.42-1.27-.06-2.36.92-2.42,2.2,0,.02,0,.04,0,.06l-.09,2.58c-1.72,25.11-22.62,44.96-47.57,45.19-1.28,0-2.3,1.04-2.3,2.32,0,1.28,1.04,2.3,2.32,2.3h.02c27.35-.25,50.26-21.99,52.14-49.57Z"/>
              <path id="Path_11552" data-name="Path 11552" class="cls-7" d="M841.08,238.04c-18.38-1.52-32.58-16.78-32.77-35.21.09-.85.03-11.47.05-23,.03-8.24-6.63-14.94-14.86-14.96-8.24-.03-14.94,6.63-14.96,14.86v.02l-.09,2.57c-1.34,18.59-16.79,32.99-35.43,33.04-1.28,0-2.31,1.03-2.31,2.31s1.03,2.31,2.31,2.31h0c21.08-.06,38.55-16.38,40.03-37.41,0-.24.09-2.49.1-2.73-.06-5.69,4.5-10.35,10.19-10.4,5.69-.06,10.35,4.5,10.4,10.19,0,.07,0,.14,0,.21,0,.3-.06,22.45-.06,22.75.08,20.94,16.17,38.34,37.05,40.07,1.27.1,2.38-.85,2.48-2.12.1-1.27-.85-2.38-2.12-2.48Z"/>
              <path id="Path_11553" data-name="Path 11553" class="cls-7" d="M843.86,225.51c-12.62-.01-22.86-10.21-22.92-22.83.03-.71.01-17.14.02-22.85,0-15.2-12.32-27.52-27.52-27.52s-27.52,12.32-27.52,27.52c-.35,13.85-11.06,22.92-22.9,22.92-1.28,0-2.31,1.03-2.31,2.31s1.03,2.31,2.31,2.31h0c15.16.04,27.49-12.23,27.52-27.39,0-.05,0-.1,0-.14,0-12.65,10.25-22.9,22.9-22.9s22.9,10.25,22.9,22.9c0,.3-.02,22.45-.02,22.75.02,15.21,12.34,27.53,27.55,27.55,1.28-.03,2.29-1.08,2.26-2.36-.03-1.24-1.02-2.23-2.26-2.26h0Z"/>
              <path id="Path_11554" data-name="Path 11554" class="cls-7" d="M846.77,126.51c-8.53.01-16.16,5.29-19.18,13.27-22.07-18.92-55.3-16.38-74.22,5.69-8.21,9.57-12.71,21.76-12.68,34.37.03,1.27,1.05,2.29,2.32,2.32,1.28,0,2.31-1.05,2.31-2.33,0-.08,0-.15-.01-.23.08-26.53,21.66-47.96,48.18-47.88,12.23.04,23.98,4.74,32.86,13.14-1,9.29,4.41,18.08,13.15,21.37,1.34,4.41,2.03,8.99,2.04,13.6v24.69c0,1.28,1.03,2.31,2.31,2.31s2.31-1.03,2.31-2.31v-24.69c0-4.16-.51-8.31-1.5-12.35,11.28,1.17,21.38-7.03,22.55-18.31,1.17-11.28-7.03-21.38-18.31-22.55-.71-.07-1.42-.11-2.13-.11h0ZM846.77,162.97c-8.79,0-15.92-7.14-15.91-15.93,0-8.79,7.14-15.92,15.93-15.91,8.78,0,15.9,7.13,15.91,15.91,0,8.8-7.14,15.93-15.93,15.93Z"/>
              <path id="Path_11555" data-name="Path 11555" class="cls-7" d="M850.52,141.65l-5.9,5.9-1.56-1.56c-.9-.9-2.36-.9-3.27,0-.9.9-.9,2.36,0,3.27l3.19,3.19c.9.9,2.36.9,3.26,0,0,0,0,0,0,0l7.54-7.54c.9-.9.9-2.36,0-3.27s-2.36-.9-3.27,0h0Z"/>
            </g>
          </g>
        </g>
      </g>
    </g>
  </g>
</svg>