<svg xmlns="http://www.w3.org/2000/svg" width="63.126" height="59.813" viewBox="0 0 63.126 59.813">
  <g id="Group_40088" data-name="Group 40088" transform="translate(-1032.938 -754)">
    <path id="Path_43660" data-name="Path 43660" d="M6.671,33.422,15.886,49.7a1.773,1.773,0,0,1-.667,2.409l-3.368,1.906a1.772,1.772,0,0,1-2.408-.668L.228,37.07a1.773,1.773,0,0,1,.667-2.409l3.368-1.906a1.773,1.773,0,0,1,2.408.667m3.835.278L17.5,46.05l.645-.372,15.8,4.233A7.984,7.984,0,0,0,40.408,49L61.634,36.362c3.1-1.91,1.732-10.27-7.6-4.836L42.59,37.742a7.794,7.794,0,0,1-5.352.932c-1.6-.256-5.416-1.324-9.233-2.347a1.3,1.3,0,0,1,.672-2.509L39.46,36.708a3.754,3.754,0,0,0,.261-.7,3.467,3.467,0,0,0-2.4-4.154c-4.781-.863-9.47-2.862-12.34-3.793-2.577-.835-4.958.127-7.3,1.485Z" transform="translate(1032.938 759.566)" fill="#373464" fill-rule="evenodd"/>
    <path id="Subtraction_2" data-name="Subtraction 2" d="M13.4,26.916A13.455,13.455,0,0,1,3.886,3.947,13.455,13.455,0,0,1,22.914,22.975,13.367,13.367,0,0,1,13.4,26.916Zm.553-10.857a1.023,1.023,0,1,0,1.008,1.022A1.012,1.012,0,0,0,13.953,16.06Zm2.73-7.783v9.73h4.886V16.718h-3.29V8.276Zm-9.59,0v9.73h4.885V16.718H8.689V8.276Z" transform="translate(1037.055 753.994)" fill="#373464"/>
    <g id="Group_40087" data-name="Group 40087" transform="translate(1067.156 760.404)">
      <path id="Subtraction_1" data-name="Subtraction 1" d="M13.455,0A13.455,13.455,0,1,1,0,13.455,13.455,13.455,0,0,1,13.455,0Z" transform="translate(0.344 0.096)" fill="#373464" stroke="#fff" stroke-width="1"/>
      <text id="Full_Customizable" data-name="Full Customizable" transform="translate(13.844 17.596)" fill="#f0f0f3" font-size="13" font-family="Poppins-Medium, Poppins" font-weight="500"><tspan x="-4" y="0">$</tspan></text>
    </g>
  </g>
</svg>
