<svg xmlns="http://www.w3.org/2000/svg" xmlns:xlink="http://www.w3.org/1999/xlink" width="357" height="239" viewBox="0 0 357 239">
  <defs>
    <filter id="Rectangle_20727" x="0" y="0" width="357" height="239" filterUnits="userSpaceOnUse">
      <feOffset dy="3" input="SourceAlpha"/>
      <feGaussianBlur stdDeviation="3" result="blur"/>
      <feFlood flood-opacity="0.161"/>
      <feComposite operator="in" in2="blur"/>
      <feComposite in="SourceGraphic"/>
    </filter>
  </defs>
  <g id="Group_39157" data-name="Group 39157" transform="translate(-9 -182)">
    <g transform="matrix(1, 0, 0, 1, 9, 182)" filter="url(#Rectangle_20727)">
      <rect id="Rectangle_20727-2" data-name="Rectangle 20727" width="339" height="221" rx="7" transform="translate(9 6)" fill="#10a9dc"/>
    </g>
    <path id="Android_UI" data-name="Android UI" d="M-60.375-21.06a12.25,12.25,0,0,1,5.82,1.32,9.43,9.43,0,0,1,3.855,3.7,10.886,10.886,0,0,1,1.365,5.5A10.908,10.908,0,0,1-50.7-5.04a9.381,9.381,0,0,1-3.87,3.72A12.272,12.272,0,0,1-60.375,0h-7.89V-21.06Zm-.33,16.62a6.191,6.191,0,0,0,4.53-1.59,6.02,6.02,0,0,0,1.62-4.5,6.124,6.124,0,0,0-1.62-4.53,6.124,6.124,0,0,0-4.53-1.62h-2.43V-4.44ZM-38.835.21a10.833,10.833,0,0,1-4.14-.75A6.748,6.748,0,0,1-45.9-2.76,6.065,6.065,0,0,1-47.055-6.3h5.46a2.649,2.649,0,0,0,.81,1.785,2.6,2.6,0,0,0,1.8.615,2.815,2.815,0,0,0,1.8-.525,1.756,1.756,0,0,0,.66-1.455,1.722,1.722,0,0,0-.525-1.29,4.235,4.235,0,0,0-1.29-.84,20.75,20.75,0,0,0-2.175-.75,23.682,23.682,0,0,1-3.33-1.26,6.153,6.153,0,0,1-2.22-1.86A5.183,5.183,0,0,1-47-15.09a5.52,5.52,0,0,1,2.13-4.6,8.752,8.752,0,0,1,5.55-1.665,8.854,8.854,0,0,1,5.61,1.665,5.96,5.96,0,0,1,2.28,4.635h-5.55a2.171,2.171,0,0,0-.75-1.6,2.642,2.642,0,0,0-1.77-.585,2.206,2.206,0,0,0-1.5.5,1.785,1.785,0,0,0-.57,1.425,1.766,1.766,0,0,0,.96,1.59,15.737,15.737,0,0,0,3,1.23,27.745,27.745,0,0,1,3.315,1.32,6.311,6.311,0,0,1,2.2,1.83,4.9,4.9,0,0,1,.93,3.09A6.064,6.064,0,0,1-32.07-3,6.408,6.408,0,0,1-34.725-.66,9.089,9.089,0,0,1-38.835.21Zm15.96-4.17h6.72V0h-11.85V-21.06h5.13ZM7.575-17.43h-9.36v4.14A4.36,4.36,0,0,1-.1-14.37a6.4,6.4,0,0,1,2.34-.42A6.449,6.449,0,0,1,5.97-13.77a6,6,0,0,1,2.175,2.64,8.863,8.863,0,0,1,.69,3.51,7.683,7.683,0,0,1-1.98,5.565A7.386,7.386,0,0,1,1.275,0a9.787,9.787,0,0,1-4.17-.825,6.388,6.388,0,0,1-2.73-2.3,6.648,6.648,0,0,1-1.05-3.39h5.01A2.7,2.7,0,0,0-.8-4.965,2.739,2.739,0,0,0,1.1-4.35a2.479,2.479,0,0,0,2.1-.9,3.844,3.844,0,0,0,.69-2.4,3.2,3.2,0,0,0-.72-2.25,2.717,2.717,0,0,0-2.1-.78,2.723,2.723,0,0,0-1.68.495,2.308,2.308,0,0,0-.87,1.305h-4.95V-21.93H7.575Zm4.08,6.18q0-5.16,1.995-8.13t6.435-2.97q4.44,0,6.435,2.97t1.995,8.13q0,5.22-1.995,8.19T20.085-.09q-4.44,0-6.435-2.97T11.655-11.25Zm11.82,0a12.94,12.94,0,0,0-.66-4.665,2.64,2.64,0,0,0-2.73-1.635,2.64,2.64,0,0,0-2.73,1.635,12.94,12.94,0,0,0-.66,4.665,19.612,19.612,0,0,0,.24,3.375,4.319,4.319,0,0,0,.975,2.16,2.762,2.762,0,0,0,2.175.825,2.762,2.762,0,0,0,2.175-.825,4.319,4.319,0,0,0,.975-2.16A19.613,19.613,0,0,0,23.475-11.25Zm38.46-9.81V0h-5.13V-12.63L52.095,0h-4.14l-4.74-12.66V0h-5.13V-21.06h6.06l5.91,14.58L55.9-21.06Zm-130.395,46v12.6a4.169,4.169,0,0,0,.93,2.91,3.509,3.509,0,0,0,2.73,1.02,3.608,3.608,0,0,0,2.76-1.02,4.085,4.085,0,0,0,.96-2.91V24.94h5.13V37.51a8.937,8.937,0,0,1-1.2,4.77,7.684,7.684,0,0,1-3.225,2.94,10.142,10.142,0,0,1-4.515.99,9.889,9.889,0,0,1-4.455-.975,7.269,7.269,0,0,1-3.1-2.94,9.389,9.389,0,0,1-1.14-4.785V24.94Zm26.31,4.14a6.075,6.075,0,0,1,4.695,1.905A7.43,7.43,0,0,1-35.7,36.22V46h-5.1V36.91a3.674,3.674,0,0,0-.87-2.61,3.051,3.051,0,0,0-2.34-.93,3.051,3.051,0,0,0-2.34.93,3.674,3.674,0,0,0-.87,2.61V46h-5.13V29.26h5.13v2.22a5.412,5.412,0,0,1,2.1-1.755A6.676,6.676,0,0,1-42.15,29.08ZM-27,23.8V46h-5.13V23.8Zm6.3,3.72a3.109,3.109,0,0,1-2.2-.8,2.576,2.576,0,0,1-.855-1.965,2.61,2.61,0,0,1,.855-2,3.109,3.109,0,0,1,2.2-.8,3.068,3.068,0,0,1,2.175.8,2.61,2.61,0,0,1,.855,2,2.576,2.576,0,0,1-.855,1.965A3.068,3.068,0,0,1-20.7,27.52Zm2.55,1.74V46h-5.13V29.26Zm25.08-.18a6.62,6.62,0,0,1,4.965,1.89,7.2,7.2,0,0,1,1.845,5.25V46H8.64V36.91A3.459,3.459,0,0,0,7.785,34.4,3.121,3.121,0,0,0,5.43,33.52a3.121,3.121,0,0,0-2.355.885A3.459,3.459,0,0,0,2.22,36.91V46h-5.1V36.91A3.459,3.459,0,0,0-3.735,34.4,3.121,3.121,0,0,0-6.09,33.52a3.121,3.121,0,0,0-2.355.885A3.459,3.459,0,0,0-9.3,36.91V46h-5.13V29.26H-9.3v2.1a5.491,5.491,0,0,1,2.04-1.665,6.414,6.414,0,0,1,2.85-.615,6.933,6.933,0,0,1,3.375.81A5.807,5.807,0,0,1,1.29,32.2a6.743,6.743,0,0,1,2.37-2.25A6.4,6.4,0,0,1,6.93,29.08Zm12.99-1.56a3.109,3.109,0,0,1-2.2-.8,2.576,2.576,0,0,1-.855-1.965,2.61,2.61,0,0,1,.855-2,3.109,3.109,0,0,1,2.2-.8,3.068,3.068,0,0,1,2.175.8,2.61,2.61,0,0,1,.855,2,2.576,2.576,0,0,1-.855,1.965A3.068,3.068,0,0,1,19.92,27.52Zm2.55,1.74V46H17.34V29.26ZM35.52,41.65V46H32.91a6.389,6.389,0,0,1-4.35-1.365Q27,43.27,27,40.18V33.52H24.96V29.26H27V25.18h5.13v4.08h3.36v4.26H32.13v6.72a1.406,1.406,0,0,0,.36,1.08,1.757,1.757,0,0,0,1.2.33Zm18.63-4.29a13.1,13.1,0,0,1-.09,1.5H42.45a3.489,3.489,0,0,0,1.005,2.385,3.07,3.07,0,0,0,2.175.825,2.7,2.7,0,0,0,2.67-1.62h5.46a7.492,7.492,0,0,1-1.515,2.97A7.585,7.585,0,0,1,49.5,45.49a8.817,8.817,0,0,1-3.69.75,8.979,8.979,0,0,1-4.38-1.05,7.469,7.469,0,0,1-3-3,9.262,9.262,0,0,1-1.08-4.56,9.367,9.367,0,0,1,1.065-4.56,7.372,7.372,0,0,1,2.985-3,9.042,9.042,0,0,1,4.41-1.05,8.952,8.952,0,0,1,4.32,1.02,7.324,7.324,0,0,1,2.955,2.91A8.833,8.833,0,0,1,54.15,37.36ZM48.9,36.01a2.638,2.638,0,0,0-.9-2.1,3.313,3.313,0,0,0-2.25-.78,3.249,3.249,0,0,0-2.175.75,3.331,3.331,0,0,0-1.095,2.13Zm6.93,1.59a10,10,0,0,1,.975-4.53,7.273,7.273,0,0,1,2.655-3,6.931,6.931,0,0,1,3.75-1.05,6.587,6.587,0,0,1,3.015.69,5.494,5.494,0,0,1,2.145,1.86V23.8H73.5V46H68.37V43.6a5.226,5.226,0,0,1-2.055,1.92,6.442,6.442,0,0,1-3.1.72,6.859,6.859,0,0,1-3.75-1.065,7.359,7.359,0,0,1-2.655-3.03A10.1,10.1,0,0,1,55.83,37.6Zm12.54.03a4.194,4.194,0,0,0-1.065-3.03,3.605,3.605,0,0,0-5.19-.015A4.141,4.141,0,0,0,61.05,37.6a4.248,4.248,0,0,0,1.065,3.045,3.572,3.572,0,0,0,5.19.015A4.194,4.194,0,0,0,68.37,37.63Z" transform="translate(188 286)" fill="#fff"/>
  </g>
</svg>
