<svg xmlns="http://www.w3.org/2000/svg" xmlns:xlink="http://www.w3.org/1999/xlink" width="357" height="239" viewBox="0 0 357 239">
  <defs>
    <filter id="Rectangle_20727" x="0" y="0" width="357" height="239" filterUnits="userSpaceOnUse">
      <feOffset dy="3" input="SourceAlpha"/>
      <feGaussianBlur stdDeviation="3" result="blur"/>
      <feFlood flood-opacity="0.161"/>
      <feComposite operator="in" in2="blur"/>
      <feComposite in="SourceGraphic"/>
    </filter>
  </defs>
  <g id="Group_39152" data-name="Group 39152" transform="translate(-9 -182)">
    <g transform="matrix(1, 0, 0, 1, 9, 182)" filter="url(#Rectangle_20727)">
      <rect id="Rectangle_20727-2" data-name="Rectangle 20727" width="339" height="221" rx="7" transform="translate(9 6)" fill="#14254b"/>
    </g>
    <path id="Android_UI" data-name="Android UI" d="M-116.475-21.06a12.25,12.25,0,0,1,5.82,1.32,9.43,9.43,0,0,1,3.855,3.7,10.886,10.886,0,0,1,1.365,5.5A10.908,10.908,0,0,1-106.8-5.04a9.38,9.38,0,0,1-3.87,3.72A12.272,12.272,0,0,1-116.475,0h-7.89V-21.06Zm-.33,16.62a6.191,6.191,0,0,0,4.53-1.59,6.02,6.02,0,0,0,1.62-4.5,6.124,6.124,0,0,0-1.62-4.53,6.124,6.124,0,0,0-4.53-1.62h-2.43V-4.44ZM-94.935.21a10.833,10.833,0,0,1-4.14-.75A6.748,6.748,0,0,1-102-2.76a6.065,6.065,0,0,1-1.155-3.54h5.46a2.649,2.649,0,0,0,.81,1.785,2.6,2.6,0,0,0,1.8.615,2.815,2.815,0,0,0,1.8-.525,1.756,1.756,0,0,0,.66-1.455,1.722,1.722,0,0,0-.525-1.29,4.235,4.235,0,0,0-1.29-.84,20.751,20.751,0,0,0-2.175-.75,23.682,23.682,0,0,1-3.33-1.26,6.153,6.153,0,0,1-2.22-1.86,5.183,5.183,0,0,1-.93-3.21,5.52,5.52,0,0,1,2.13-4.6,8.752,8.752,0,0,1,5.55-1.665,8.854,8.854,0,0,1,5.61,1.665,5.96,5.96,0,0,1,2.28,4.635h-5.55a2.171,2.171,0,0,0-.75-1.6,2.642,2.642,0,0,0-1.77-.585,2.206,2.206,0,0,0-1.5.5,1.785,1.785,0,0,0-.57,1.425,1.766,1.766,0,0,0,.96,1.59,15.737,15.737,0,0,0,3,1.23,27.744,27.744,0,0,1,3.315,1.32,6.311,6.311,0,0,1,2.205,1.83,4.9,4.9,0,0,1,.93,3.09A6.064,6.064,0,0,1-88.17-3,6.408,6.408,0,0,1-90.825-.66,9.089,9.089,0,0,1-94.935.21Zm15.96-4.17h6.72V0H-84.1V-21.06h5.13Zm25.5,4.17A10.991,10.991,0,0,1-58.92-1.17a10.316,10.316,0,0,1-3.93-3.855,10.774,10.774,0,0,1-1.455-5.565,10.694,10.694,0,0,1,1.455-5.55,10.349,10.349,0,0,1,3.93-3.84,10.991,10.991,0,0,1,5.445-1.38,10.991,10.991,0,0,1,5.445,1.38,10.132,10.132,0,0,1,3.9,3.84A10.869,10.869,0,0,1-42.7-10.59a10.861,10.861,0,0,1-1.44,5.565,10.239,10.239,0,0,1-3.9,3.855A10.908,10.908,0,0,1-53.475.21Zm0-4.68A5.168,5.168,0,0,0-49.44-6.15a6.378,6.378,0,0,0,1.515-4.44,6.366,6.366,0,0,0-1.515-4.455,5.191,5.191,0,0,0-4.035-1.665,5.25,5.25,0,0,0-4.065,1.65,6.354,6.354,0,0,0-1.515,4.47A6.366,6.366,0,0,0-57.54-6.135,5.227,5.227,0,0,0-53.475-4.47Zm18.75-9.9a5.569,5.569,0,0,1,2.07-1.89,6.354,6.354,0,0,1,3.09-.72,6.931,6.931,0,0,1,3.75,1.05,7.273,7.273,0,0,1,2.655,3,10,10,0,0,1,.975,4.53,10.1,10.1,0,0,1-.975,4.545,7.359,7.359,0,0,1-2.655,3.03A6.859,6.859,0,0,1-29.565.24,6.377,6.377,0,0,1-32.64-.48a5.637,5.637,0,0,1-2.085-1.86V7.98h-5.13V-16.74h5.13ZM-27.4-8.4a4.141,4.141,0,0,0-1.065-3.015,3.517,3.517,0,0,0-2.625-1.1A3.46,3.46,0,0,0-33.69-11.4a4.194,4.194,0,0,0-1.065,3.03A4.194,4.194,0,0,0-33.69-5.34a3.46,3.46,0,0,0,2.595,1.11,3.486,3.486,0,0,0,2.61-1.125A4.213,4.213,0,0,0-27.4-8.4Zm23.7-.24a13.1,13.1,0,0,1-.09,1.5h-11.61a3.489,3.489,0,0,0,1,2.385,3.07,3.07,0,0,0,2.175.825,2.7,2.7,0,0,0,2.67-1.62H-4.1A7.492,7.492,0,0,1-5.61-2.58,7.585,7.585,0,0,1-8.355-.51a8.817,8.817,0,0,1-3.69.75,8.979,8.979,0,0,1-4.38-1.05,7.469,7.469,0,0,1-3-3,9.262,9.262,0,0,1-1.08-4.56,9.367,9.367,0,0,1,1.065-4.56,7.372,7.372,0,0,1,2.985-3,9.042,9.042,0,0,1,4.41-1.05,8.952,8.952,0,0,1,4.32,1.02A7.324,7.324,0,0,1-4.77-13.05,8.833,8.833,0,0,1-3.705-8.64Zm-5.25-1.35a2.638,2.638,0,0,0-.9-2.1,3.313,3.313,0,0,0-2.25-.78,3.249,3.249,0,0,0-2.175.75,3.331,3.331,0,0,0-1.095,2.13ZM9.2-16.92a6.075,6.075,0,0,1,4.695,1.9A7.43,7.43,0,0,1,15.645-9.78V0h-5.1V-9.09a3.674,3.674,0,0,0-.87-2.61,3.051,3.051,0,0,0-2.34-.93A3.051,3.051,0,0,0,5-11.7a3.674,3.674,0,0,0-.87,2.61V0H-1V-16.74h5.13v2.22a5.412,5.412,0,0,1,2.1-1.755A6.676,6.676,0,0,1,9.2-16.92ZM33.2.21a10.833,10.833,0,0,1-4.14-.75A6.748,6.748,0,0,1,26.13-2.76,6.065,6.065,0,0,1,24.975-6.3h5.46a2.649,2.649,0,0,0,.81,1.785,2.6,2.6,0,0,0,1.8.615,2.815,2.815,0,0,0,1.8-.525,1.756,1.756,0,0,0,.66-1.455,1.722,1.722,0,0,0-.525-1.29,4.235,4.235,0,0,0-1.29-.84,20.75,20.75,0,0,0-2.175-.75,23.682,23.682,0,0,1-3.33-1.26,6.153,6.153,0,0,1-2.22-1.86,5.183,5.183,0,0,1-.93-3.21,5.52,5.52,0,0,1,2.13-4.6,8.752,8.752,0,0,1,5.55-1.665,8.854,8.854,0,0,1,5.61,1.665,5.96,5.96,0,0,1,2.28,4.635h-5.55a2.171,2.171,0,0,0-.75-1.6,2.642,2.642,0,0,0-1.77-.585,2.206,2.206,0,0,0-1.5.5,1.785,1.785,0,0,0-.57,1.425,1.766,1.766,0,0,0,.96,1.59,15.737,15.737,0,0,0,3,1.23,27.745,27.745,0,0,1,3.315,1.32,6.311,6.311,0,0,1,2.2,1.83,4.9,4.9,0,0,1,.93,3.09A6.064,6.064,0,0,1,39.96-3,6.408,6.408,0,0,1,37.305-.66,9.089,9.089,0,0,1,33.2.21Zm15.96-14.58a5.569,5.569,0,0,1,2.07-1.89,6.354,6.354,0,0,1,3.09-.72,6.931,6.931,0,0,1,3.75,1.05,7.273,7.273,0,0,1,2.655,3,10,10,0,0,1,.975,4.53,10.1,10.1,0,0,1-.975,4.545,7.359,7.359,0,0,1-2.655,3.03A6.859,6.859,0,0,1,54.315.24,6.377,6.377,0,0,1,51.24-.48a5.637,5.637,0,0,1-2.085-1.86V7.98h-5.13V-16.74h5.13Zm7.32,5.97a4.141,4.141,0,0,0-1.065-3.015,3.517,3.517,0,0,0-2.625-1.1A3.46,3.46,0,0,0,50.19-11.4a4.194,4.194,0,0,0-1.065,3.03A4.194,4.194,0,0,0,50.19-5.34a3.46,3.46,0,0,0,2.595,1.11A3.486,3.486,0,0,0,55.4-5.355,4.213,4.213,0,0,0,56.475-8.4Zm23.7-.24a13.1,13.1,0,0,1-.09,1.5H68.475a3.488,3.488,0,0,0,1,2.385,3.07,3.07,0,0,0,2.175.825,2.7,2.7,0,0,0,2.67-1.62h5.46A7.492,7.492,0,0,1,78.27-2.58,7.585,7.585,0,0,1,75.525-.51a8.817,8.817,0,0,1-3.69.75,8.979,8.979,0,0,1-4.38-1.05,7.469,7.469,0,0,1-3-3,9.262,9.262,0,0,1-1.08-4.56,9.367,9.367,0,0,1,1.065-4.56,7.372,7.372,0,0,1,2.985-3,9.042,9.042,0,0,1,4.41-1.05,8.952,8.952,0,0,1,4.32,1.02,7.324,7.324,0,0,1,2.955,2.91A8.833,8.833,0,0,1,80.175-8.64Zm-5.25-1.35a2.638,2.638,0,0,0-.9-2.1,3.313,3.313,0,0,0-2.25-.78,3.249,3.249,0,0,0-2.175.75,3.331,3.331,0,0,0-1.1,2.13Zm23.73,1.35a13.1,13.1,0,0,1-.09,1.5H86.955a3.488,3.488,0,0,0,1,2.385,3.07,3.07,0,0,0,2.175.825,2.7,2.7,0,0,0,2.67-1.62h5.46A7.492,7.492,0,0,1,96.75-2.58,7.585,7.585,0,0,1,94.005-.51a8.817,8.817,0,0,1-3.69.75,8.979,8.979,0,0,1-4.38-1.05,7.469,7.469,0,0,1-3-3,9.262,9.262,0,0,1-1.08-4.56,9.367,9.367,0,0,1,1.065-4.56,7.372,7.372,0,0,1,2.985-3,9.042,9.042,0,0,1,4.41-1.05,8.952,8.952,0,0,1,4.32,1.02,7.324,7.324,0,0,1,2.955,2.91A8.833,8.833,0,0,1,98.655-8.64Zm-5.25-1.35a2.638,2.638,0,0,0-.9-2.1,3.313,3.313,0,0,0-2.25-.78,3.249,3.249,0,0,0-2.175.75,3.331,3.331,0,0,0-1.1,2.13Zm6.93,1.59a10,10,0,0,1,.975-4.53,7.273,7.273,0,0,1,2.655-3,6.931,6.931,0,0,1,3.75-1.05,6.587,6.587,0,0,1,3.015.69,5.494,5.494,0,0,1,2.145,1.86V-22.2h5.13V0h-5.13V-2.4A5.226,5.226,0,0,1,110.82-.48a6.442,6.442,0,0,1-3.1.72,6.859,6.859,0,0,1-3.75-1.065,7.359,7.359,0,0,1-2.655-3.03A10.1,10.1,0,0,1,100.335-8.4Zm12.54.03a4.194,4.194,0,0,0-1.065-3.03,3.46,3.46,0,0,0-2.6-1.11,3.483,3.483,0,0,0-2.6,1.1A4.141,4.141,0,0,0,105.555-8.4a4.248,4.248,0,0,0,1.065,3.045,3.438,3.438,0,0,0,2.6,1.125,3.46,3.46,0,0,0,2.6-1.11A4.194,4.194,0,0,0,112.875-8.37ZM-67.184,61.876q1.768-1.4,1.612-1.3,5.1-4.212,8.034-6.916a33.261,33.261,0,0,0,4.966-5.668,10.242,10.242,0,0,0,2.028-5.772,5.081,5.081,0,0,0-.988-3.328A3.622,3.622,0,0,0-54.5,37.7a3.659,3.659,0,0,0-3.094,1.482,6.833,6.833,0,0,0-1.118,4.186h-8.58a14.728,14.728,0,0,1,1.9-7.384,11.025,11.025,0,0,1,4.732-4.368,14.941,14.941,0,0,1,6.526-1.4q6.188,0,9.334,3.172a11.234,11.234,0,0,1,3.146,8.268,16.216,16.216,0,0,1-3.8,10.322,55.9,55.9,0,0,1-9.672,9.282h14.04V68.48h-26.1Zm30.212.364V55.064l16.432-23.5h9.932V54.544h4.264v7.7h-4.264V69H-19.5V62.24Zm18.1-20.9-8.736,13.208h8.736Zm16.9,8.164q0-8.944,3.458-14.092T12.636,30.26q7.7,0,11.154,5.148T27.248,49.5q0,9.048-3.458,14.2T12.636,68.844q-7.7,0-11.154-5.148T-1.976,49.5Zm20.488,0a22.429,22.429,0,0,0-1.144-8.086q-1.144-2.834-4.732-2.834T7.9,41.414A22.429,22.429,0,0,0,6.76,49.5a34,34,0,0,0,.416,5.85,7.486,7.486,0,0,0,1.69,3.744,4.787,4.787,0,0,0,3.77,1.43,4.787,4.787,0,0,0,3.77-1.43A7.486,7.486,0,0,0,18.1,55.35,34,34,0,0,0,18.512,49.5Zm38.532-5.46a6.651,6.651,0,0,0-2.834-2.782,9.273,9.273,0,0,0-4.342-.962,8.934,8.934,0,0,0-6.916,2.834,10.755,10.755,0,0,0-2.6,7.566q0,5.044,2.73,7.878A9.943,9.943,0,0,0,50.6,61.408a9.088,9.088,0,0,0,5.538-1.664,9.431,9.431,0,0,0,3.3-4.784H48.152V48.408H67.5v8.268a17.442,17.442,0,0,1-3.354,6.188,17.7,17.7,0,0,1-6.006,4.628A18.564,18.564,0,0,1,49.92,69.26a19.449,19.449,0,0,1-9.646-2.366,16.853,16.853,0,0,1-6.6-6.578A19.3,19.3,0,0,1,31.3,50.7,19.449,19.449,0,0,1,33.67,41.05a16.853,16.853,0,0,1,6.578-6.6,19.3,19.3,0,0,1,9.62-2.366,18.689,18.689,0,0,1,11.05,3.172,14.969,14.969,0,0,1,5.954,8.788Z" transform="translate(188 271)" fill="#fff"/>
  </g>
</svg>
