<svg xmlns="http://www.w3.org/2000/svg" width="101.547" height="97.963" viewBox="0 0 101.547 97.963">
  <g id="Group_40636" data-name="Group 40636" transform="translate(2020.15 10226.371)">
    <circle id="Ellipse_641" data-name="Ellipse 641" cx="47.787" cy="47.787" r="47.787" transform="translate(-2014.178 -10223.982)" fill="#454066"/>
    <g id="Ellipse_642" data-name="Ellipse 642" transform="translate(-2020.15 -10226.371)" fill="#fff" stroke="#2d74a2" stroke-width="1">
      <circle cx="47.19" cy="47.19" r="47.19" stroke="none"/>
      <circle cx="47.19" cy="47.19" r="46.69" fill="none"/>
    </g>
    <path id="Path_44394" data-name="Path 44394" d="M3.15-19.188a3.71,3.71,0,0,0-1.008-2A2.912,2.912,0,0,0,.09-21.852,3.068,3.068,0,0,0-2.862-20.07,13.466,13.466,0,0,0-3.8-14.436a5.374,5.374,0,0,1,2.286-1.98,7.487,7.487,0,0,1,3.294-.72A7.5,7.5,0,0,1,7.452-14.9,8.627,8.627,0,0,1,9.594-8.676,9.6,9.6,0,0,1,8.532-4.068a7.545,7.545,0,0,1-3.1,3.1A9.842,9.842,0,0,1,.63.144q-5.544,0-7.7-3.474t-2.16-9.99q0-6.84,2.286-10.17T.378-26.82a9.035,9.035,0,0,1,4.554,1.062,7.214,7.214,0,0,1,2.808,2.79,9.435,9.435,0,0,1,1.134,3.78ZM.306-12.276a3.717,3.717,0,0,0-2.574.918,3.32,3.32,0,0,0-1.026,2.61,3.689,3.689,0,0,0,.954,2.7,3.637,3.637,0,0,0,2.718.972,3.309,3.309,0,0,0,2.5-.954A3.607,3.607,0,0,0,3.8-8.64,3.769,3.769,0,0,0,2.9-11.3,3.358,3.358,0,0,0,.306-12.276Z" transform="translate(-1975.437 -10167.957)" fill="#2c73a1"/>
  </g>
</svg>
