<svg id="Group_40612" data-name="Group 40612" xmlns="http://www.w3.org/2000/svg" width="134.426" height="133.99" viewBox="0 0 134.426 133.99">
  <ellipse id="Ellipse_3" data-name="Ellipse 3" cx="30.247" cy="30.247" rx="30.247" ry="30.247" transform="translate(36.732 35.647)" fill="#f2f4f7"/>
  <path id="Path_10805" data-name="Path 10805" d="M203.913,226.659a26.182,26.182,0,0,1-11.339-2.591,1.341,1.341,0,0,1,1.168-2.414,23.488,23.488,0,0,0,10.17,2.323,23.3,23.3,0,0,0,16.479-39.772,1.341,1.341,0,0,1,1.9-1.9,25.986,25.986,0,0,1-18.374,44.35Zm-16.12-5.591a26.264,26.264,0,0,1-2.255-2.009,1.341,1.341,0,1,1,1.9-1.9,23.544,23.544,0,0,0,2.024,1.8,1.341,1.341,0,0,1-1.665,2.1Z" transform="translate(-136.934 -134.79)" fill="#495666"/>
  <path id="Path_10806" data-name="Path 10806" d="M221.891,199.426a19.226,19.226,0,1,1-19.226-19.236A19.178,19.178,0,0,1,221.891,199.426Z" transform="translate(-135.687 -133.527)" fill="#efefef"/>
  <ellipse id="Ellipse_4" data-name="Ellipse 4" cx="6.26" cy="6.26" rx="6.26" ry="6.26" transform="translate(60.719 57.204)" fill="#ffb69f"/>
  <path id="Path_10807" data-name="Path 10807" d="M234.057,276.064v1.156a19.217,19.217,0,0,1-24.375,0v-1.156a9.882,9.882,0,0,1,9.884-9.885h4.606A9.881,9.881,0,0,1,234.057,276.064Z" transform="translate(-154.891 -196.455)" fill="#216d95"/>
  <path id="Path_10808" data-name="Path 10808" d="M222.107,284.451a1.341,1.341,0,0,1-1.086-1.554,6.925,6.925,0,0,1,6.828-5.721,1.341,1.341,0,0,1,0,2.682,4.247,4.247,0,0,0-4.188,3.507A1.34,1.34,0,0,1,222.107,284.451Z" transform="translate(-163.174 -204.502)" fill="#ffcbc2"/>
  <path id="Path_10809" data-name="Path 10809" d="M50.2,31.1A19.909,19.909,0,1,1,30.291,11.2,19.864,19.864,0,0,1,50.2,31.1Z" transform="translate(-9.045 -9.856)" fill="#efefef"/>
  <ellipse id="Ellipse_5" data-name="Ellipse 5" cx="6.26" cy="6.26" rx="6.26" ry="6.26" transform="translate(14.985 7.286)" fill="#ffb69f"/>
  <path id="Path_10810" data-name="Path 10810" d="M63.539,89.942v7.289a19.911,19.911,0,0,1-24.373.005V89.942a9.877,9.877,0,0,1,9.88-9.886h4.608A9.881,9.881,0,0,1,63.539,89.942Z" transform="translate(-30.106 -60.248)" fill="#ffb800"/>
  <path id="Path_10811" data-name="Path 10811" d="M53.507,105.517a1.341,1.341,0,0,1-1.341-1.341V99.455a6.4,6.4,0,0,1,6.394-6.4,1.341,1.341,0,1,1,0,2.682,3.719,3.719,0,0,0-3.712,3.717v4.721A1.341,1.341,0,0,1,53.507,105.517Z" transform="translate(-39.619 -69.761)" fill="#f9e5af"/>
  <path id="Path_10812" data-name="Path 10812" d="M50.2,372.269a19.909,19.909,0,1,1-19.905-19.905A19.863,19.863,0,0,1,50.2,372.269Z" transform="translate(-9.045 -259.525)" fill="#efefef"/>
  <ellipse id="Ellipse_6" data-name="Ellipse 6" cx="6.26" cy="6.26" rx="6.26" ry="6.26" transform="translate(14.649 99.14) rotate(-3.17)" fill="#ffb69f"/>
  <path id="Path_10813" data-name="Path 10813" d="M63.539,431.11V438.4a19.911,19.911,0,0,1-24.373.005V431.11a9.877,9.877,0,0,1,9.88-9.886h4.608a9.881,9.881,0,0,1,9.886,9.886Z" transform="translate(-30.106 -309.918)" fill="#ffb800"/>
  <path id="Path_10814" data-name="Path 10814" d="M353.174,372.269a19.909,19.909,0,1,0,19.905-19.905,19.863,19.863,0,0,0-19.905,19.905Z" transform="translate(-259.9 -259.525)" fill="#efefef"/>
  <ellipse id="Ellipse_7" data-name="Ellipse 7" cx="6.26" cy="6.26" rx="6.26" ry="6.26" transform="translate(106.92 98.784)" fill="#ffb69f"/>
  <path id="Path_10815" data-name="Path 10815" d="M381.954,431.11V438.4a19.911,19.911,0,0,0,24.373.005V431.11a9.877,9.877,0,0,0-9.88-9.886H391.84a9.881,9.881,0,0,0-9.886,9.886Z" transform="translate(-280.961 -309.918)" fill="#ffb800"/>
  <path id="Path_10816" data-name="Path 10816" d="M53.507,450.243a1.341,1.341,0,0,1-1.341-1.341v-4.721a6.4,6.4,0,0,1,6.394-6.4,1.341,1.341,0,1,1,0,2.682,3.719,3.719,0,0,0-3.712,3.717V448.9a1.341,1.341,0,0,1-1.341,1.341Z" transform="translate(-39.619 -322.035)" fill="#f9e5af"/>
  <path id="Path_10817" data-name="Path 10817" d="M396.791,450.243a1.341,1.341,0,0,1-1.341-1.341v-4.721a6.4,6.4,0,0,1,6.394-6.4,1.341,1.341,0,1,1,0,2.682,3.719,3.719,0,0,0-3.712,3.717V448.9a1.341,1.341,0,0,1-1.341,1.341Z" transform="translate(-290.838 -322.035)" fill="#f9e5af"/>
  <path id="Path_10818" data-name="Path 10818" d="M253.678,361a1.342,1.342,0,1,0,1.3-1.384A1.333,1.333,0,0,0,253.678,361Z" transform="translate(-187.087 -264.832)" fill="#495666"/>
  <path id="Path_10819" data-name="Path 10819" d="M293.623,191.94h.005a1.339,1.339,0,0,0,1.6-2.146,1.369,1.369,0,0,0-1.877.268A1.348,1.348,0,0,0,293.623,191.94Z" transform="translate(-215.929 -140.366)" fill="#495666"/>
  <path id="Path_10820" data-name="Path 10820" d="M199,177.877a17.976,17.976,0,0,1,6.367,1.169,1.364,1.364,0,0,0,1.727-.778,1.333,1.333,0,0,0-.772-1.727,20.437,20.437,0,0,0-7.311-1.341H199a20.575,20.575,0,1,0,16.381,8.132,1.367,1.367,0,0,0-1.877-.258,1.342,1.342,0,0,0-.257,1.877,17.879,17.879,0,0,1-.879,22.7,11.245,11.245,0,0,0-7.981-8.952,7.6,7.6,0,1,0-10.767,0,11.243,11.243,0,0,0-7.981,8.953A17.889,17.889,0,0,1,199,177.877Zm0,10.544a4.919,4.919,0,1,1-4.919,4.919A4.925,4.925,0,0,1,199.007,188.42Zm-2.3,12.52h4.606a8.554,8.554,0,0,1,8.544,8.544v.5l-.035.028a17.95,17.95,0,0,1-10.785,3.642h-.051A17.951,17.951,0,0,1,188.176,210l-.016-.012v-.505a8.553,8.553,0,0,1,8.544-8.544Z" transform="translate(-132.028 -129.875)" fill="#495666"/>
  <path id="Path_10821" data-name="Path 10821" d="M20.528,17.108a1.341,1.341,0,0,0-1.341,1.341V20H17.633a1.341,1.341,0,0,0,0,2.682h1.554V24.24a1.341,1.341,0,0,0,2.682,0V22.685h1.554a1.341,1.341,0,0,0,0-2.682H21.869V18.449A1.341,1.341,0,0,0,20.528,17.108Z" transform="translate(-13.367 -14.182)" fill="#495666"/>
  <path id="Path_10822" data-name="Path 10822" d="M20.528,358.276a1.341,1.341,0,0,0-1.341,1.341v1.554H17.633a1.341,1.341,0,1,0,0,2.682h1.554v1.554a1.341,1.341,0,0,0,2.682,0v-1.554h1.554a1.341,1.341,0,1,0,0-2.682H21.869v-1.554A1.341,1.341,0,0,0,20.528,358.276Z" transform="translate(-13.367 -263.852)" fill="#495666"/>
  <path id="Path_10823" data-name="Path 10823" d="M93.232,48.392a31.558,31.558,0,0,0-41.74,0l-7.863-8.2a21.249,21.249,0,0,0-17-34,20.991,20.991,0,0,0-9.489,2.234,1.341,1.341,0,0,0,1.2,2.4,18.337,18.337,0,0,1,8.288-1.95A18.563,18.563,0,0,1,40.158,40.156V35.893a11.24,11.24,0,0,0-8.146-10.787,7.6,7.6,0,1,0-10.766,0A11.239,11.239,0,0,0,13.1,35.892v4.266A18.576,18.576,0,0,1,9.761,19.687a1.341,1.341,0,0,0-2.435-1.125,21.249,21.249,0,0,0,34.551,23.68l7.681,8.008a31.566,31.566,0,0,0-.008,43.691l-8.8,9.143A21.221,21.221,0,0,0,17.142,99.93a1.341,1.341,0,0,0,1.2,2.4,18.337,18.337,0,0,1,8.288-1.95,18.563,18.563,0,0,1,13.528,31.275v-4.263A11.24,11.24,0,0,0,32.013,116.6a7.6,7.6,0,1,0-10.766,0A11.239,11.239,0,0,0,13.1,127.391v4.266a18.576,18.576,0,0,1-3.342-20.471,1.341,1.341,0,0,0-2.435-1.125h0a21.244,21.244,0,0,0,19.3,30.128,21.229,21.229,0,0,0,16-35.2l8.85-9.2a31.551,31.551,0,0,0,16.289,7.551,1.342,1.342,0,0,0,.386-2.655,28.906,28.906,0,0,1,4.2-57.506,28.909,28.909,0,0,1,6,57.189,1.343,1.343,0,0,0-1.041,1.588A1.365,1.365,0,0,0,78.91,103a31.615,31.615,0,0,0,14.325-7.208l9.106,9.453a21.235,21.235,0,1,0,35.527,4.816,1.341,1.341,0,1,0-2.435,1.125,18.576,18.576,0,0,1-3.342,20.471v-4.266a11.238,11.238,0,0,0-8.144-10.787,7.6,7.6,0,1,0-10.766,0,11.239,11.239,0,0,0-8.146,10.787v4.263a18.566,18.566,0,0,1,21.815-29.326,1.341,1.341,0,1,0,1.2-2.4A21.225,21.225,0,0,0,104.2,103.3l-9.026-9.37a31.56,31.56,0,0,0-.006-43.686m23.4,56.074a4.919,4.919,0,1,1-4.919,4.919A4.925,4.925,0,0,1,118.565,106.323Zm-2.3,12.522h4.608a8.552,8.552,0,0,1,8.539,8.545v6.621A18.559,18.559,0,0,1,107.718,134V127.39A8.555,8.555,0,0,1,116.262,118.845ZM26.63,14.825a4.919,4.919,0,1,1-4.919,4.919A4.925,4.925,0,0,1,26.63,14.825ZM15.785,42.513V35.892a8.552,8.552,0,0,1,8.539-8.545h4.608a8.554,8.554,0,0,1,8.545,8.545V42.5l-.035.026a18.56,18.56,0,0,1-21.656-.018Zm10.845,63.81a4.919,4.919,0,1,1-4.919,4.919A4.925,4.925,0,0,1,26.63,106.323Zm-2.306,12.522h4.608a8.554,8.554,0,0,1,8.545,8.545V134l-.035.026a18.561,18.561,0,0,1-21.621.008l-.035-.026V127.39a8.552,8.552,0,0,1,8.539-8.545Z" transform="translate(-5.384 -6.198)" fill="#495666"/>
  <path id="Path_10824" data-name="Path 10824" d="M468.352,366.749a1.341,1.341,0,0,0,1.341-1.341v-1.554h1.555a1.341,1.341,0,0,0,0-2.682h-1.555v-1.554a1.341,1.341,0,1,0-2.682,0v1.554h-1.554a1.341,1.341,0,0,0,0,2.682h1.554v1.554A1.341,1.341,0,0,0,468.352,366.749Z" transform="translate(-341.088 -263.852)" fill="#495666"/>
</svg>
