<svg xmlns="http://www.w3.org/2000/svg" width="28.88" height="28" viewBox="0 0 28.88 28">
  <g id="support" transform="translate(0.44)">
    <rect id="Rectangle_319" data-name="Rectangle 319" width="28" height="28" fill="none"/>
    <path id="Path_181" data-name="Path 181" d="M42.24,19.12a1.12,1.12,0,1,0-2.24,0v8.4a1.12,1.12,0,1,0,2.24,0Z" transform="translate(-17.6 -7.92)" fill="none" stroke="#226d96" stroke-width="2"/>
    <path id="Path_182" data-name="Path 182" d="M24.92,45.24a1.12,1.12,0,1,0,0-2.24h-2.8a1.12,1.12,0,1,0,0,2.24Z" transform="translate(-9.24 -18.92)" fill="none" stroke="#226d96" stroke-width="2"/>
    <path id="Path_183" data-name="Path 183" d="M8,11.52a9.52,9.52,0,0,1,19.04,0" transform="translate(-3.52 -0.88)" fill="none" stroke="#226d96" stroke-width="2"/>
    <path id="Path_184" data-name="Path 184" d="M44,20c1.547,0,2.8,1.88,2.8,4.2s-1.253,4.2-2.8,4.2" transform="translate(-19.36 -8.8)" fill="none" stroke="#226d96" stroke-width="2"/>
    <path id="Path_185" data-name="Path 185" d="M6,19.12a1.12,1.12,0,0,1,2.24,0v8.4a1.12,1.12,0,0,1-2.24,0Z" transform="translate(-2.64 -7.92)" fill="none" stroke="#226d96" stroke-width="2"/>
    <path id="Path_186" data-name="Path 186" d="M3.8,20C2.254,20,1,21.88,1,24.2s1.254,4.2,2.8,4.2" transform="translate(-0.44 -8.8)" fill="none" stroke="#226d96" stroke-width="2"/>
    <path id="Path_187" data-name="Path 187" d="M36.72,37a4.121,4.121,0,0,1-4.48,4.48H30" transform="translate(-13.2 -16.28)" fill="none" stroke="#226d96" stroke-width="2"/>
  </g>
</svg>
