<svg xmlns="http://www.w3.org/2000/svg" xmlns:xlink="http://www.w3.org/1999/xlink" width="166.675" height="166.675" viewBox="0 0 166.675 166.675">
  <defs>
    <clipPath id="clip-path">
      <rect id="Rectangle_22278" data-name="Rectangle 22278" width="72.252" height="108.854" transform="translate(0)" fill="#fff"/>
    </clipPath>
  </defs>
  <g id="Group_40668" data-name="Group 40668" transform="translate(-1162.847 -2101.792)">
    <path id="Path_44344" data-name="Path 44344" d="M83.337,0A83.337,83.337,0,1,1,0,83.337,83.335,83.335,0,0,1,83.337,0" transform="translate(1162.847 2101.792)" fill="#216d96"/>
    <g id="Mask_Group_7201" data-name="Mask Group 7201" transform="translate(1208.682 2130.959)" clip-path="url(#clip-path)">
      <path id="Path_44345" data-name="Path 44345" d="M57.926,0H14.036a2.3,2.3,0,0,0-.124.7V0A14.32,14.32,0,0,0,0,14.285V94.569a14.283,14.283,0,0,0,13.912,14.243H26.168v.041H57.926A14.3,14.3,0,0,0,72.252,94.569V14.285A14.3,14.3,0,0,0,57.926,0M50.142,8.447v12.38a2.355,2.355,0,0,0,1.408,2.484l.124.041v1.863l-.787-.207c-1.78-.7-2.609-2.07-2.609-4.223l-.041-10.434ZM11.676,23.27a3.516,3.516,0,0,1-3.851-3.147L7.7,19.46H9.813l.083.373A1.587,1.587,0,0,0,11.635,21.2c.994,0,1.656-.455,1.656-1.159,0-.621-.248-.911-1.077-1.284l-1.863-.911c-1.532-.7-2.236-1.573-2.236-2.9a3.178,3.178,0,0,1,3.478-3.105,3.333,3.333,0,0,1,3.6,2.816l.083.662H13.167l-.041-.373a1.406,1.406,0,0,0-1.532-1.077c-.787,0-1.366.414-1.366,1.035,0,.248,0,.538.952.994l1.822.87c1.242.58,2.4,1.366,2.4,3.271,0,1.532-1.159,3.23-3.726,3.23m12.463,0H22.276v-.5a3.481,3.481,0,0,1-5.631-2.857V15.03h1.9v4.927a1.591,1.591,0,0,0,1.656,1.7c1.284,0,2.029-1.325,2.029-2.609V15.03h1.9Zm8.405,3.147L30.681,28.28V22.731a3.248,3.248,0,0,1-2.112.787,3.46,3.46,0,0,1-3.519-3.6V15.03h1.9v4.927a1.591,1.591,0,0,0,1.656,1.7c1.284,0,2.029-1.325,2.029-2.609V15.03h1.9ZM37.72,15.693a3,3,0,0,0-.828,5.8l.455.166L35.9,23.063l-.207-.083a4.693,4.693,0,0,1-2.609-4.306,4.789,4.789,0,0,1,9.068-2.153l.083.207-1.491,1.491-.124-.5a2.81,2.81,0,0,0-2.774-2.029Zm.787,4.637-.083-.166,1.491-1.491.124.455a2.882,2.882,0,0,0,2.774,2.07h.124a3.008,3.008,0,0,0,.87-5.8l-.455-.166L44.8,13.788l.166.124a4.622,4.622,0,0,1,2.609,4.306,4.659,4.659,0,0,1-2.65,4.306,4.773,4.773,0,0,1-6.418-2.194" transform="translate(0 0.258)" fill="#fff"/>
      <path id="Path_44346" data-name="Path 44346" d="M3.487,0a2.3,2.3,0,0,0-.124.7V0Z" transform="translate(10.562 0.258)" fill="#fff"/>
    </g>
  </g>
</svg>
