<svg id="Group_13" data-name="Group 13" xmlns="http://www.w3.org/2000/svg" width="148.772" height="114.225" viewBox="0 0 148.772 114.225">
  <path id="Path_10737" data-name="Path 10737" d="M348.981,2361.115a9.546,9.546,0,0,1,9.349,6.922l.487,1.633,5.03-5.029-.3-.645a16.191,16.191,0,0,0-30.731,7.2,16.037,16.037,0,0,0,8.874,14.635l.651.317,4.871-4.871-1.535-.529a9.833,9.833,0,0,1-6.5-9.552A9.726,9.726,0,0,1,348.981,2361.115Z" transform="translate(-246.932 -2289.488)" fill="#fff"/>
  <path id="Path_10738" data-name="Path 10738" d="M373.069,2355.031l-.65-.318-4.872,4.871,1.536.529a9.84,9.84,0,0,1,6.5,9.552,9.728,9.728,0,0,1-9.8,10.082,9.551,9.551,0,0,1-9.35-6.923l-.487-1.634-5.027,5.03.3.645a16.191,16.191,0,0,0,30.732-7.2A16.035,16.035,0,0,0,373.069,2355.031Z" transform="translate(-246.932 -2289.488)" fill="#fff"/>
  <path id="Path_10739" data-name="Path 10739" d="M264.818,2364.822l-6.129-2.989c-3.228-1.5-3.228-2.481-3.228-3.432,0-2.041,1.894-3.466,4.605-3.466,2.764,0,4.819,1.455,5.115,3.621l.17,1.244h7.143l-.284-2.209c-.744-5.8-5.535-9.54-12.207-9.54-6.816,0-11.763,4.431-11.763,10.535,0,4.462,2.363,7.512,7.651,9.884l6.295,2.992c2.749,1.264,3.587,2.3,3.587,4.442,0,2.386-2.168,3.927-5.523,3.927-3.218,0-5.511-1.81-5.984-4.722l-.206-1.274h-6.519l-.609.078.317,2.245c.931,6.631,5.8,10.589,13.031,10.589,8.715,0,12.684-5.685,12.684-10.967C272.964,2369.331,269.049,2366.7,264.818,2364.822Z" transform="translate(-246.932 -2289.488)" fill="#fff"/>
  <path id="Path_10740" data-name="Path 10740" d="M296.1,2372.52c0,4.319-2.579,8.787-6.9,8.787-3.838,0-5.586-3-5.586-5.787v-16.666H277.2v16.64c0,6.987,5.008,12.06,11.908,12.06a11.219,11.219,0,0,0,7.173-2.53v1.723H302.5v-27.893h-6.4Z" transform="translate(-246.932 -2289.488)" fill="#fff"/>
  <path id="Path_10741" data-name="Path 10741" d="M395.686,2387.07l-.314-.125c-3.25-1.291-4.837-4.052-4.852-8.445l-.012-2.182.042-39.657-6.488,6.423.16,35.231c0,7.359,2.821,11.909,8.93,14.333l2.552.772Z" transform="translate(-246.932 -2289.488)" fill="#fff"/>
  <path id="Path_10742" data-name="Path 10742" d="M324.543,2372.52c0,4.319-2.58,8.787-6.9,8.787-3.838,0-5.586-3-5.586-5.787v-16.666h-6.423v16.64c0,6.987,5.008,12.06,11.908,12.06a11.219,11.219,0,0,0,7.173-2.531v18.69l6.221-6.222v-38.637h-6.4Z" transform="translate(-246.932 -2289.488)" fill="#fff"/>
  <path id="Path_10743" data-name="Path 10743" d="M330.091,2315.156l11.271-11.271v-6.177l-5.333,5.333c-.254-.416-.529-.824-.825-1.219l6.158-6.157v-6.177l-9.219,9.219a16.677,16.677,0,0,0-10.028-3.3,15.862,15.862,0,0,0-16.269,16.167,16.324,16.324,0,0,0,3.389,10.037l-7.9,7.9v6.176l11.068-11.067q.6.434,1.236.807l-12.3,12.3v6.177l5.982-5.981a16.23,16.23,0,0,0,13.266,6.611,16.213,16.213,0,0,0,9.507-29.385Zm-4.583,4.583a9.47,9.47,0,0,1,5.157,8.635,9.727,9.727,0,0,1-10.081,9.8,9.923,9.923,0,0,1-8.751-4.762Zm-8.549.329,13.75-13.75a9.422,9.422,0,0,1,.7,1.344l-13.046,13.046A9.958,9.958,0,0,1,316.959,2320.068Zm-3.245-2.932a9.859,9.859,0,0,1,8.4-15.362,10.541,10.541,0,0,1,5.478,1.483Z" transform="translate(-246.932 -2289.488)" fill="#fff"/>
</svg>
