<svg xmlns="http://www.w3.org/2000/svg" width="79.691" height="79" viewBox="0 0 79.691 79">
  <g id="Group_39133" data-name="Group 39133" transform="translate(-2062 -1496)">
    <g id="Group_39129" data-name="Group 39129" transform="translate(2083.584 1496)">
      <path id="Path_41474" data-name="Path 41474" d="M142.771,12.57l-4.1-4.1,5.815-5.815a1.49,1.49,0,0,1,2.107,0l1.99,1.99a1.49,1.49,0,0,1,0,2.107Z" transform="translate(-138.673 -2.221)" fill="#005c8a"/>
      <path id="Path_41475" data-name="Path 41475" d="M212.769,45.58l-4.1-4.1,5.815-5.815a1.49,1.49,0,0,1,2.107,0l1.99,1.99a1.49,1.49,0,0,1,0,2.107Z" transform="translate(-197.776 -30.093)" fill="#005c8a"/>
      <path id="Path_41476" data-name="Path 41476" d="M445.507,315.307l4.1,4.1,5.815-5.815a1.49,1.49,0,0,0,0-2.107l-1.99-1.99a1.49,1.49,0,0,0-2.107,0Z" transform="translate(-397.749 -261.297)" fill="#005c8a"/>
      <path id="Path_41477" data-name="Path 41477" d="M408.054,245.31l4.1,4.1,5.815-5.815a1.49,1.49,0,0,0,0-2.107l-1.99-1.99a1.49,1.49,0,0,0-2.107,0Z" transform="translate(-366.126 -202.195)" fill="#005c8a"/>
    </g>
    <g id="Group_39130" data-name="Group 39130" transform="translate(2062 1497.229)">
      <path id="Path_41478" data-name="Path 41478" d="M107.781,79.961,81.769,45.114,46.922,19.1a2.5,2.5,0,0,1-.272-3.772l3.573-3.573a5.591,5.591,0,0,1,6.095-1.212L98.75,28.133l17.586,42.433a5.592,5.592,0,0,1-1.212,6.095l-3.573,3.573A2.5,2.5,0,0,1,107.781,79.961Z" transform="translate(-38.77 -10.12)" fill="#e0ebf0"/>
      <path id="Path_41479" data-name="Path 41479" d="M28.295,330.476l-11.962-15.9L.428,302.609a1.073,1.073,0,0,1-.114-1.616l1.834-1.834a4.2,4.2,0,0,1,4.7-.856l17.727,8.025L32.6,324.056a4.2,4.2,0,0,1-.856,4.7l-1.834,1.834A1.073,1.073,0,0,1,28.295,330.476Z" transform="translate(0 -253.133)" fill="#e0ebf0"/>
    </g>
    <g id="Group_39131" data-name="Group 39131" transform="translate(2062 1502.17)">
      <path id="Path_41480" data-name="Path 41480" d="M32.6,336.167,29.852,330.1h0l-1.711,1.711a3.466,3.466,0,0,1-5.221-.367l-4.87-6.475-.015.015L1.146,312.273h0l-.831.831a1.073,1.073,0,0,0,.114,1.616l15.9,11.962,11.962,15.9a1.073,1.073,0,0,0,1.616.114l1.834-1.834A4.2,4.2,0,0,0,32.6,336.167Z" transform="translate(0 -270.184)" fill="#bad5e5"/>
      <path id="Path_41481" data-name="Path 41481" d="M116.257,101.856c.072-.155.139-.313.2-.474a5.66,5.66,0,0,0-.1-4.015L113.794,91.2l-.162-.392a5.588,5.588,0,0,1-1.594,3.259l-3.573,3.573a2.5,2.5,0,0,1-3.772-.272L84.023,69.675,46.933,41.862l-.27.27a2.506,2.506,0,0,0,.272,3.771L69.576,62.8l12.207,9.111,9.111,12.207,16.9,22.641a2.506,2.506,0,0,0,3.772.272l3.573-3.573A5.578,5.578,0,0,0,116.257,101.856Z" transform="translate(-38.784 -41.862)" fill="#bad5e5"/>
    </g>
    <path id="Path_41482" data-name="Path 41482" d="M80,79.428h0a3.2,3.2,0,0,1-4.268-4.268h0A74.792,74.792,0,0,1,86.7,58.4l30.17-34.832a26.388,26.388,0,0,1,17.537-9l1.85-.17a4.143,4.143,0,0,1,4.5,4.5l-.169,1.85a26.389,26.389,0,0,1-9,17.537L96.76,68.461A74.789,74.789,0,0,1,80,79.428Z" transform="translate(1998.327 1483.51)" fill="#48a6d9"/>
    <path id="Path_41483" data-name="Path 41483" d="M145.831,20.754,146,18.9a4.143,4.143,0,0,0-4.5-4.5l-1.85.17-.072.007a26.388,26.388,0,0,1-8.994,17.465L81.614,78.817a3.145,3.145,0,0,0,3.627.611h0A74.792,74.792,0,0,0,102,68.461l34.832-30.17A26.388,26.388,0,0,0,145.831,20.754Z" transform="translate(1993.089 1483.51)" fill="#005c8a"/>
    <path id="Path_41484" data-name="Path 41484" d="M393.873,56.236a1.192,1.192,0,0,0-.2,2.376,6.09,6.09,0,0,1,6.018,6.018,1.192,1.192,0,1,0,2.375-.2A8.465,8.465,0,0,0,393.873,56.236Z" transform="translate(1730.525 1448.175)" fill="#fff"/>
    <path id="Path_41485" data-name="Path 41485" d="M432.913,79.676A1.192,1.192,0,0,0,434,78.386a9,9,0,0,0-2.386-5.622q-.551,1.154-1.212,2.251a7.023,7.023,0,0,1,1.222,3.575,1.192,1.192,0,0,0,1.29,1.086Z" transform="translate(1698.59 1434.216)" fill="#ccdfed"/>
  </g>
</svg>
