<svg xmlns="http://www.w3.org/2000/svg" xmlns:xlink="http://www.w3.org/1999/xlink" width="55" height="55" viewBox="0 0 55 55">
  <defs>
    <clipPath id="clip-path">
      <rect id="Rectangle_21806" data-name="Rectangle 21806" width="55" height="55" transform="translate(1203 879)" fill="none" stroke="#707070" stroke-width="1"/>
    </clipPath>
    <clipPath id="clip-path-2">
      <rect id="Rectangle_21802" data-name="Rectangle 21802" width="49.892" height="47" fill="#387ea5"/>
    </clipPath>
  </defs>
  <g id="Mask_Group_1" data-name="Mask Group 1" transform="translate(-1203 -879)" clip-path="url(#clip-path)">
    <g id="Group_6016" data-name="Group 6016" transform="translate(1206 883)">
      <g id="Group_6015" data-name="Group 6015" transform="translate(0 0)" clip-path="url(#clip-path-2)">
        <path id="Path_42822" data-name="Path 42822" d="M42.626,16.187a22.139,22.139,0,0,1,2.589.495,6.687,6.687,0,0,1,4.66,6.349,48.223,48.223,0,0,1-.112,5.3,6.638,6.638,0,0,1-6.128,5.7c-.842.048-1.688.036-2.532.024a1.5,1.5,0,0,1-1.54-1.635q-.007-4.53,0-9.06c0-2,.016-3.994-.009-5.991a14.611,14.611,0,0,0-28.97-2.307,15.8,15.8,0,0,0-.245,2.9c-.025,4.74-.011,9.482-.011,14.223,0,1.24-.377,1.764-1.6,1.883-2.835.274-5.413-.263-7.291-2.65A6.567,6.567,0,0,1,.007,27.312c-.011-1.38-.007-2.76,0-4.14A6.811,6.811,0,0,1,6.726,16.31c.161,0,.32,0,.509,0A17.634,17.634,0,0,1,14.767,3.218,17.123,17.123,0,0,1,26.018.036,17.236,17.236,0,0,1,37.332,5.052a17.515,17.515,0,0,1,5.294,11.135" transform="translate(0 0)" fill="#387ea5"/>
        <path id="Path_42823" data-name="Path 42823" d="M29.322,55.992c-.649,0-1.3.013-1.947,0a3.113,3.113,0,0,1-.062-6.224c1.345-.044,2.694-.041,4.04,0a3.114,3.114,0,0,1-.084,6.227c-.649.013-1.3,0-1.947,0" transform="translate(-4.397 -8.997)" fill="#387ea5"/>
        <path id="Path_42824" data-name="Path 42824" d="M21.466,51.04q.041.9.08,1.794A12.109,12.109,0,0,1,11.8,50.293,11.588,11.588,0,0,1,8.089,43.81H9.758a9.974,9.974,0,0,0,3.517,5.44,10.323,10.323,0,0,0,8.191,1.791" transform="translate(-1.463 -7.926)" fill="#387ea5"/>
      </g>
    </g>
  </g>
</svg>
