<svg xmlns="http://www.w3.org/2000/svg" xmlns:xlink="http://www.w3.org/1999/xlink" width="806.09" height="867.862" viewBox="0 0 806.09 867.862">
  <defs>
    <linearGradient id="linear-gradient" y1="0.831" x2="1" y2="0.122" gradientUnits="objectBoundingBox">
      <stop offset="0" stop-color="#226d96"/>
      <stop offset="1" stop-color="#3e3085"/>
    </linearGradient>
    <clipPath id="clip-path">
      <rect id="shopping-cart_1_1_Background_Mask_" data-name="shopping-cart (1) 1 (Background/Mask)" width="38.179" height="38.179" fill="none"/>
    </clipPath>
    <clipPath id="clip-path-2">
      <rect id="video-game_1_Background_Mask_" data-name="video-game 1 (Background/Mask)" width="42.618" height="42.618" fill="none"/>
    </clipPath>
    <clipPath id="clip-path-3">
      <rect id="Rectangle_20248" data-name="Rectangle 20248" width="45.349" height="30.227" fill="#fff"/>
    </clipPath>
  </defs>
  <g id="Group_6489" data-name="Group 6489" transform="translate(-2303.91 -565.268)">
    <path id="Path_10752" data-name="Path 10752" d="M754.632,2694.122l177.677-177.677V2419.07l-84.07,84.071c-4-6.558-8.339-12.989-13.005-19.219l97.075-97.059v-97.375L786.98,2434.817c-44.455-33.543-100.291-51.959-158.083-51.959-146.212,0-256.466,109.564-256.466,254.858,0,58.093,18.917,113.992,53.424,158.226l-124.52,124.52v97.359l174.477-174.46q9.458,6.834,19.484,12.721L301.336,3050.039v97.375l94.3-94.282c47.119,65.439,124.568,104.217,209.126,104.217,146.2,0,256.45-109.577,256.45-254.857C861.213,2817.85,821.55,2740.69,754.632,2694.122Zm-72.247,72.245c51.013,26.281,81.3,76.753,81.3,136.125,0,88.087-68.322,154.533-158.918,154.533-59.052,0-110.175-27.947-137.952-75.066Zm-134.767,5.188L764.374,2554.8a148.654,148.654,0,0,1,11.019,21.186L569.735,2781.642A156.717,156.717,0,0,1,547.619,2771.554Zm-51.155-46.22c-17.356-25.4-26.484-55.491-26.484-87.619,0-88.1,68.322-154.549,158.918-154.549,31.339,0,60.992,8.053,86.356,23.38Z" transform="translate(2002.574 -1724.22)" opacity="0.496" fill="url(#linear-gradient)"/>
    <g id="Group_6485" data-name="Group 6485">
      <rect id="Rectangle_66" data-name="Rectangle 66" width="504.869" height="155" rx="23" transform="translate(2572 755.13)" fill="#c4d9e4"/>
      <rect id="Rectangle_66-2" data-name="Rectangle 66" width="488.331" height="139.396" rx="15" transform="translate(2580.363 763.148)" fill="#fff"/>
    </g>
    <g id="Group_6487" data-name="Group 6487" transform="translate(0 0.471)">
      <rect id="Rectangle_69" data-name="Rectangle 69" width="570" height="174.601" rx="23" transform="translate(2540 960.529)" fill="#c4d9e4"/>
      <rect id="Rectangle_69-2" data-name="Rectangle 69" width="553.145" height="158.929" rx="15" transform="translate(2548.398 967.955)" fill="#fff"/>
    </g>
    <rect id="Rectangle_66-3" data-name="Rectangle 66" width="505" height="155" rx="23" transform="translate(2572 1174)" fill="#c4d9e4"/>
    <rect id="Rectangle_68" data-name="Rectangle 68" width="488.331" height="139.396" rx="15" transform="translate(2580 1182)" fill="#fff"/>
    <g id="Group_6488" data-name="Group 6488" transform="translate(1.664 0.1)">
      <path id="E_commerce_Payment" data-name="E commerce Payment" d="M3.969-14.6V0H1.575V-14.6Zm8.988,2.835a5.189,5.189,0,0,1,2.446.567,4.032,4.032,0,0,1,1.691,1.68A5.526,5.526,0,0,1,17.7-6.825V0H15.33V-6.468a3.358,3.358,0,0,0-.777-2.383,2.765,2.765,0,0,0-2.121-.83,2.8,2.8,0,0,0-2.131.83,3.33,3.33,0,0,0-.788,2.383V0H7.119V-11.571H9.513v1.323a3.963,3.963,0,0,1,1.5-1.113A4.8,4.8,0,0,1,12.957-11.76ZM31.017.147a6.536,6.536,0,0,1-2.646-.515,4.342,4.342,0,0,1-1.848-1.459,3.707,3.707,0,0,1-.672-2.205h2.562a2.313,2.313,0,0,0,.745,1.554,2.643,2.643,0,0,0,1.858.609,2.862,2.862,0,0,0,1.932-.6,1.946,1.946,0,0,0,.693-1.544,1.686,1.686,0,0,0-.431-1.2,2.88,2.88,0,0,0-1.071-.714,16.151,16.151,0,0,0-1.774-.546,16.626,16.626,0,0,1-2.32-.766,3.835,3.835,0,0,1-1.523-1.208,3.49,3.49,0,0,1-.63-2.184,3.882,3.882,0,0,1,.63-2.205,4.024,4.024,0,0,1,1.764-1.449,6.409,6.409,0,0,1,2.625-.5,5.47,5.47,0,0,1,3.476,1.061,3.913,3.913,0,0,1,1.5,2.909H33.243a1.917,1.917,0,0,0-.756-1.365,2.8,2.8,0,0,0-1.827-.567,2.592,2.592,0,0,0-1.68.525,1.829,1.829,0,0,0-.651,1.512,1.535,1.535,0,0,0,.41,1.1,2.892,2.892,0,0,0,1.04.682,16.137,16.137,0,0,0,1.722.546,17.977,17.977,0,0,1,2.362.8,3.932,3.932,0,0,1,1.554,1.228,3.531,3.531,0,0,1,.64,2.215,3.984,3.984,0,0,1-.6,2.1A4.318,4.318,0,0,1,33.715-.452,5.747,5.747,0,0,1,31.017.147ZM41.685-9.618v6.405a1.229,1.229,0,0,0,.3.934A1.514,1.514,0,0,0,43.029-2H44.5V0h-1.89a3.643,3.643,0,0,1-2.478-.756,3.116,3.116,0,0,1-.861-2.457V-9.618H37.905v-1.953H39.27v-2.877h2.415v2.877H44.5v1.953ZM51.723.189a5.926,5.926,0,0,1-2.961-.746,5.355,5.355,0,0,1-2.079-2.1,6.335,6.335,0,0,1-.756-3.14A6.213,6.213,0,0,1,46.7-8.925a5.367,5.367,0,0,1,2.121-2.1,6.155,6.155,0,0,1,3-.735,6.155,6.155,0,0,1,3,.735,5.367,5.367,0,0,1,2.121,2.1A6.213,6.213,0,0,1,57.729-5.8a6.084,6.084,0,0,1-.8,3.129A5.525,5.525,0,0,1,54.757-.557,6.265,6.265,0,0,1,51.723.189Zm0-2.079a3.562,3.562,0,0,0,1.732-.441,3.36,3.36,0,0,0,1.313-1.323,4.253,4.253,0,0,0,.5-2.142,4.342,4.342,0,0,0-.483-2.131A3.261,3.261,0,0,0,53.508-9.24a3.5,3.5,0,0,0-1.722-.441,3.445,3.445,0,0,0-1.712.441,3.148,3.148,0,0,0-1.25,1.313A4.5,4.5,0,0,0,48.363-5.8a4.06,4.06,0,0,0,.955,2.887A3.157,3.157,0,0,0,51.723-1.89Zm10.773-8a3.76,3.76,0,0,1,1.4-1.375,4.131,4.131,0,0,1,2.068-.494v2.478h-.609a2.916,2.916,0,0,0-2.131.714A3.414,3.414,0,0,0,62.5-6.09V0H60.1V-11.571H62.5ZM78.771-6.069a7.485,7.485,0,0,1-.084,1.176H69.846a3.211,3.211,0,0,0,1.029,2.226,3.248,3.248,0,0,0,2.268.84,2.8,2.8,0,0,0,2.73-1.617h2.583a5.212,5.212,0,0,1-1.9,2.614A5.576,5.576,0,0,1,73.143.189a5.91,5.91,0,0,1-2.972-.746,5.3,5.3,0,0,1-2.058-2.1,6.406,6.406,0,0,1-.745-3.14,6.557,6.557,0,0,1,.725-3.14,5.1,5.1,0,0,1,2.037-2.089,6.062,6.062,0,0,1,3.014-.735,5.893,5.893,0,0,1,2.919.714,5.045,5.045,0,0,1,2,2.006A6.04,6.04,0,0,1,78.771-6.069Zm-2.5-.756a2.724,2.724,0,0,0-.945-2.121,3.379,3.379,0,0,0-2.289-.8,3.075,3.075,0,0,0-2.121.787,3.291,3.291,0,0,0-1.05,2.132Zm20.517-3.423a4.407,4.407,0,0,1-.525,2.1,3.935,3.935,0,0,1-1.68,1.607,6.236,6.236,0,0,1-2.961.62H88.977V0H86.583V-14.6h5.04a6.363,6.363,0,0,1,2.846.578,4.015,4.015,0,0,1,1.743,1.564A4.285,4.285,0,0,1,96.789-10.248ZM91.623-7.875a2.919,2.919,0,0,0,2.037-.62,2.266,2.266,0,0,0,.672-1.753q0-2.394-2.709-2.394H88.977v4.767ZM98.28-5.838A6.4,6.4,0,0,1,99-8.925a5.31,5.31,0,0,1,1.974-2.09,5.288,5.288,0,0,1,2.761-.745,5.051,5.051,0,0,1,2.383.536,4.837,4.837,0,0,1,1.628,1.333v-1.68h2.415V0h-2.415V-1.722a4.754,4.754,0,0,1-1.659,1.365A5.113,5.113,0,0,1,103.7.189a5.088,5.088,0,0,1-2.73-.766A5.436,5.436,0,0,1,99-2.72,6.589,6.589,0,0,1,98.28-5.838Zm9.471.042a4.19,4.19,0,0,0-.493-2.079,3.464,3.464,0,0,0-1.292-1.344,3.379,3.379,0,0,0-1.722-.462,3.439,3.439,0,0,0-1.722.451,3.405,3.405,0,0,0-1.291,1.323,4.13,4.13,0,0,0-.493,2.069,4.31,4.31,0,0,0,.493,2.1,3.482,3.482,0,0,0,1.3,1.376,3.339,3.339,0,0,0,1.711.472,3.379,3.379,0,0,0,1.722-.462,3.447,3.447,0,0,0,1.292-1.354A4.25,4.25,0,0,0,107.751-5.8Zm15.981-5.775-7.1,17.01h-2.478l2.352-5.628-4.557-11.382h2.667l3.255,8.82,3.381-8.82Zm15.813-.189a5.189,5.189,0,0,1,2.447.567,4.1,4.1,0,0,1,1.7,1.68,5.45,5.45,0,0,1,.619,2.688V0h-2.373V-6.468a3.358,3.358,0,0,0-.777-2.383,2.765,2.765,0,0,0-2.121-.83,2.8,2.8,0,0,0-2.132.83,3.33,3.33,0,0,0-.788,2.383V0h-2.373V-6.468a3.358,3.358,0,0,0-.777-2.383,2.765,2.765,0,0,0-2.121-.83,2.8,2.8,0,0,0-2.132.83,3.33,3.33,0,0,0-.787,2.383V0h-2.394V-11.571h2.394v1.323a3.98,3.98,0,0,1,1.491-1.113,4.727,4.727,0,0,1,1.932-.4,5.143,5.143,0,0,1,2.478.588,4.019,4.019,0,0,1,1.68,1.7,3.881,3.881,0,0,1,1.638-1.67A4.844,4.844,0,0,1,139.545-11.76Zm18.417,5.691a7.485,7.485,0,0,1-.084,1.176h-8.841a3.211,3.211,0,0,0,1.029,2.226,3.248,3.248,0,0,0,2.268.84,2.8,2.8,0,0,0,2.73-1.617h2.583a5.212,5.212,0,0,1-1.9,2.614A5.576,5.576,0,0,1,152.334.189a5.909,5.909,0,0,1-2.971-.746,5.3,5.3,0,0,1-2.058-2.1,6.406,6.406,0,0,1-.746-3.14,6.557,6.557,0,0,1,.725-3.14,5.1,5.1,0,0,1,2.037-2.089,6.062,6.062,0,0,1,3.014-.735,5.893,5.893,0,0,1,2.919.714,5.045,5.045,0,0,1,2,2.006A6.04,6.04,0,0,1,157.962-6.069Zm-2.5-.756a2.724,2.724,0,0,0-.945-2.121,3.379,3.379,0,0,0-2.289-.8,3.075,3.075,0,0,0-2.121.787,3.291,3.291,0,0,0-1.05,2.132Zm10.689-4.935a5.189,5.189,0,0,1,2.447.567,4.032,4.032,0,0,1,1.691,1.68,5.527,5.527,0,0,1,.609,2.688V0h-2.373V-6.468a3.358,3.358,0,0,0-.777-2.383,2.765,2.765,0,0,0-2.121-.83,2.8,2.8,0,0,0-2.132.83,3.33,3.33,0,0,0-.788,2.383V0h-2.394V-11.571h2.394v1.323a3.963,3.963,0,0,1,1.5-1.113A4.8,4.8,0,0,1,166.152-11.76Zm10.584,2.142v6.405a1.229,1.229,0,0,0,.3.934A1.514,1.514,0,0,0,178.08-2h1.47V0h-1.89a3.643,3.643,0,0,1-2.478-.756,3.116,3.116,0,0,1-.861-2.457V-9.618h-1.365v-1.953h1.365v-2.877h2.415v2.877h2.814v1.953Z" transform="translate(2699.57 1235.9)"/>
      <path id="_-_100" data-name="-$100" d="M-80.346-8.61v2.016h-8.631V-8.61Zm13.251,4.452a4,4,0,0,1-.515,1.974A4.33,4.33,0,0,1-69.121-.63a5.263,5.263,0,0,1-2.362.756v1.7h-1.365V.126a5.564,5.564,0,0,1-3.192-1.239,3.48,3.48,0,0,1-1.218-2.772H-74.7a2.279,2.279,0,0,0,.525,1.355,2.157,2.157,0,0,0,1.323.682v-4.62a16.95,16.95,0,0,1-2.289-.725,3.667,3.667,0,0,1-1.5-1.165,3.476,3.476,0,0,1-.619-2.184,3.793,3.793,0,0,1,1.218-2.888,5.236,5.236,0,0,1,3.192-1.333v-1.7h1.365v1.7A5.027,5.027,0,0,1-68.512-13.6a3.947,3.947,0,0,1,1.271,2.74H-69.8a2.06,2.06,0,0,0-.5-1.165,2.234,2.234,0,0,0-1.176-.7V-8.19a15.413,15.413,0,0,1,2.289.7A3.625,3.625,0,0,1-67.7-6.332,3.473,3.473,0,0,1-67.095-4.158Zm-7.728-6.51a1.754,1.754,0,0,0,.515,1.344,3.721,3.721,0,0,0,1.459.777v-4.242a2.317,2.317,0,0,0-1.438.651A2.008,2.008,0,0,0-74.823-10.668Zm3.339,8.82a2.342,2.342,0,0,0,1.449-.745,2.107,2.107,0,0,0,.525-1.439,1.693,1.693,0,0,0-.515-1.312,3.808,3.808,0,0,0-1.459-.766Zm7.56-11.277v-2.184h4.368V0h-2.415V-13.125Zm7.665,5.271a11.057,11.057,0,0,1,1.229-5.681A4.53,4.53,0,0,1-50.8-15.582a4.53,4.53,0,0,1,4.231,2.047,11.057,11.057,0,0,1,1.229,5.681,11.276,11.276,0,0,1-1.229,5.743A4.516,4.516,0,0,1-50.8-.042a4.516,4.516,0,0,1-4.232-2.069A11.276,11.276,0,0,1-56.259-7.854Zm8.568,0a15.922,15.922,0,0,0-.22-2.877,3.864,3.864,0,0,0-.893-1.922A2.549,2.549,0,0,0-50.8-13.4a2.549,2.549,0,0,0-2,.746,3.864,3.864,0,0,0-.892,1.922,15.922,15.922,0,0,0-.221,2.877,17.532,17.532,0,0,0,.21,2.961A3.705,3.705,0,0,0-52.8-2.961a2.6,2.6,0,0,0,2.006.735,2.6,2.6,0,0,0,2.005-.735A3.705,3.705,0,0,0-47.9-4.893,17.532,17.532,0,0,0-47.691-7.854Zm6.216,4.6Q-39.459-5-38.294-6.122a12.913,12.913,0,0,0,1.943-2.342,4.5,4.5,0,0,0,.777-2.436,2.981,2.981,0,0,0-.6-1.974,2.317,2.317,0,0,0-1.88-.714,2.406,2.406,0,0,0-1.922.788,3.277,3.277,0,0,0-.724,2.11h-2.31a4.929,4.929,0,0,1,1.438-3.664,4.952,4.952,0,0,1,3.5-1.271,4.91,4.91,0,0,1,3.581,1.26A4.48,4.48,0,0,1-33.2-11,5.965,5.965,0,0,1-33.968-8.1a11.712,11.712,0,0,1-1.827,2.5q-1.061,1.1-2.7,2.552l-.945.84h6.657V-.21H-42.987V-1.953ZM-29.4.147a1.483,1.483,0,0,1-1.092-.441,1.483,1.483,0,0,1-.441-1.092,1.483,1.483,0,0,1,.441-1.092A1.483,1.483,0,0,1-29.4-2.919a1.458,1.458,0,0,1,1.071.441,1.483,1.483,0,0,1,.441,1.092,1.483,1.483,0,0,1-.441,1.092A1.458,1.458,0,0,1-29.4.147Zm13.65-13.4h-7.035v4.179a3.326,3.326,0,0,1,1.313-.987,4.412,4.412,0,0,1,1.858-.4,4.97,4.97,0,0,1,2.867.756,4.235,4.235,0,0,1,1.575,1.911A6.371,6.371,0,0,1-14.7-5.355a6.138,6.138,0,0,1-.6,2.762,4.451,4.451,0,0,1-1.785,1.9A5.68,5.68,0,0,1-19.992,0a5.623,5.623,0,0,1-3.675-1.134,4.591,4.591,0,0,1-1.659-3H-23a2.6,2.6,0,0,0,1.029,1.565,3.314,3.314,0,0,0,2,.577,2.732,2.732,0,0,0,2.236-.9,3.641,3.641,0,0,0,.745-2.394,3.273,3.273,0,0,0-.756-2.32,2.9,2.9,0,0,0-2.226-.808,2.855,2.855,0,0,0-1.733.514,2.881,2.881,0,0,0-1.018,1.4H-24.99v-8.841h9.24Zm3.549,5.4a11.057,11.057,0,0,1,1.229-5.681,4.53,4.53,0,0,1,4.231-2.047,4.53,4.53,0,0,1,4.232,2.047A11.057,11.057,0,0,1-1.281-7.854,11.276,11.276,0,0,1-2.509-2.111,4.516,4.516,0,0,1-6.741-.042a4.516,4.516,0,0,1-4.231-2.069A11.276,11.276,0,0,1-12.2-7.854Zm8.568,0a15.922,15.922,0,0,0-.22-2.877,3.864,3.864,0,0,0-.892-1.922,2.549,2.549,0,0,0-2-.746,2.549,2.549,0,0,0-1.995.746,3.864,3.864,0,0,0-.892,1.922,15.922,15.922,0,0,0-.22,2.877,17.532,17.532,0,0,0,.21,2.961,3.705,3.705,0,0,0,.892,1.932,2.6,2.6,0,0,0,2.005.735,2.6,2.6,0,0,0,2.006-.735,3.705,3.705,0,0,0,.892-1.932A17.532,17.532,0,0,0-3.633-7.854Z" transform="translate(3043.457 1258.098)"/>
      <circle id="Ellipse_182" data-name="Ellipse 182" cx="37.735" cy="37.735" r="37.735" transform="translate(2604.336 1213.9)" fill="#216d96"/>
      <g id="shopping-cart_1_1" data-name="shopping-cart (1) 1" transform="translate(2622.98 1232.547)">
        <rect id="shopping-cart_1_1_Background_Mask_2" data-name="shopping-cart (1) 1 (Background/Mask)" width="38.179" height="38.179" transform="translate(0 0)" fill="none"/>
        <g id="shopping-cart_1_1-2" data-name="shopping-cart (1) 1" transform="translate(0 0)" clip-path="url(#clip-path)">
          <g id="Group" transform="translate(10.631 29.437)">
            <g id="Group-2" data-name="Group">
              <path id="Vector" d="M0,4.372A4.294,4.294,0,0,1,4.372,0a4.293,4.293,0,0,1,4.37,4.372,4.293,4.293,0,0,1-4.37,4.37A4.293,4.293,0,0,1,0,4.372Z" fill="#fff"/>
            </g>
          </g>
          <g id="Group-3" data-name="Group" transform="translate(25.202 29.437)">
            <g id="Group-4" data-name="Group">
              <path id="Vector-2" data-name="Vector" d="M0,4.372A4.294,4.294,0,0,1,4.372,0a4.293,4.293,0,0,1,4.37,4.372,4.293,4.293,0,0,1-4.37,4.37A4.293,4.293,0,0,1,0,4.372Z" fill="#fff"/>
            </g>
          </g>
          <g id="Group-5" data-name="Group" transform="translate(1.889 0.296)">
            <g id="Group-6" data-name="Group">
              <path id="Vector-3" data-name="Vector" d="M8.305,5.828,5.828,0H0V2.914H3.934l6.119,14.862a4.5,4.5,0,0,0-2.768,4.517A4.546,4.546,0,0,0,11.8,26.226H32.055V23.312h-20.4a1.457,1.457,0,0,1,0-2.914H30.889a1.419,1.419,0,0,0,1.457-1.166L34.677,7.577A1.537,1.537,0,0,0,33.22,5.828Z" fill="#fff"/>
            </g>
          </g>
        </g>
      </g>
      <path id="_12_october_2021" data-name="12 october 2021" d="M.675-9.375v-1.56h3.12V0H2.07V-9.375ZM7.1-2.325Q8.535-3.57,9.368-4.372a9.224,9.224,0,0,0,1.387-1.673,3.214,3.214,0,0,0,.555-1.74,2.13,2.13,0,0,0-.428-1.41A1.655,1.655,0,0,0,9.54-9.7a1.719,1.719,0,0,0-1.373.563A2.341,2.341,0,0,0,7.65-7.635H6a3.521,3.521,0,0,1,1.028-2.617,3.537,3.537,0,0,1,2.5-.908,3.507,3.507,0,0,1,2.558.9,3.2,3.2,0,0,1,.922,2.4,4.261,4.261,0,0,1-.547,2.077A8.366,8.366,0,0,1,11.153-4q-.758.788-1.927,1.822l-.675.6h4.755V-.15H6.015V-1.395ZM23.685.105a5.4,5.4,0,0,1-2.677-.682,5.057,5.057,0,0,1-1.935-1.905,5.365,5.365,0,0,1-.712-2.753,5.324,5.324,0,0,1,.712-2.745,5.073,5.073,0,0,1,1.935-1.9,5.4,5.4,0,0,1,2.677-.682,5.43,5.43,0,0,1,2.693.682,5.019,5.019,0,0,1,1.927,1.9,5.368,5.368,0,0,1,.7,2.745,5.409,5.409,0,0,1-.7,2.753A5,5,0,0,1,26.378-.577,5.43,5.43,0,0,1,23.685.105Zm0-1.485a3.593,3.593,0,0,0,1.845-.472A3.276,3.276,0,0,0,26.8-3.2a4.335,4.335,0,0,0,.458-2.033A4.289,4.289,0,0,0,26.8-7.26,3.236,3.236,0,0,0,25.53-8.6a3.639,3.639,0,0,0-1.845-.465A3.639,3.639,0,0,0,21.84-8.6,3.236,3.236,0,0,0,20.573-7.26a4.289,4.289,0,0,0-.458,2.025A4.335,4.335,0,0,0,20.573-3.2a3.276,3.276,0,0,0,1.267,1.35A3.593,3.593,0,0,0,23.685-1.38ZM30.12-4.14a4.683,4.683,0,0,1,.517-2.243A3.681,3.681,0,0,1,32.07-7.875a4.144,4.144,0,0,1,2.1-.525,4.12,4.12,0,0,1,2.482.712A3.508,3.508,0,0,1,37.98-5.655H36.135a1.951,1.951,0,0,0-.72-.96A2.126,2.126,0,0,0,34.17-6.96a2.07,2.07,0,0,0-1.673.743,3.141,3.141,0,0,0-.623,2.077A3.172,3.172,0,0,0,32.5-2.055a2.062,2.062,0,0,0,1.673.75,1.9,1.9,0,0,0,1.965-1.3H37.98a3.694,3.694,0,0,1-1.35,2,3.984,3.984,0,0,1-2.46.743A4.1,4.1,0,0,1,32.07-.4a3.732,3.732,0,0,1-1.432-1.5A4.683,4.683,0,0,1,30.12-4.14ZM41.685-6.87V-2.3a.878.878,0,0,0,.218.668,1.081,1.081,0,0,0,.743.2h1.05V0h-1.35a2.6,2.6,0,0,1-1.77-.54A2.226,2.226,0,0,1,39.96-2.3V-6.87h-.975v-1.4h.975V-10.32h1.725v2.055h2.01v1.4Zm7.17,7A4.233,4.233,0,0,1,46.74-.4a3.825,3.825,0,0,1-1.485-1.5,4.525,4.525,0,0,1-.54-2.242,4.438,4.438,0,0,1,.555-2.235,3.833,3.833,0,0,1,1.515-1.5A4.4,4.4,0,0,1,48.93-8.4a4.4,4.4,0,0,1,2.145.525,3.833,3.833,0,0,1,1.515,1.5,4.438,4.438,0,0,1,.555,2.235,4.346,4.346,0,0,1-.57,2.235A3.947,3.947,0,0,1,51.022-.4,4.475,4.475,0,0,1,48.855.135Zm0-1.485a2.545,2.545,0,0,0,1.237-.315,2.4,2.4,0,0,0,.938-.945,3.038,3.038,0,0,0,.36-1.53,3.1,3.1,0,0,0-.345-1.523A2.329,2.329,0,0,0,50.13-6.6a2.5,2.5,0,0,0-1.23-.315,2.46,2.46,0,0,0-1.222.315,2.248,2.248,0,0,0-.893.938,3.217,3.217,0,0,0-.33,1.523,2.9,2.9,0,0,0,.682,2.062A2.255,2.255,0,0,0,48.855-1.35ZM56.55-7.035a3.243,3.243,0,0,1,1.193-.982A3.69,3.69,0,0,1,59.43-8.4a3.807,3.807,0,0,1,1.98.525,3.693,3.693,0,0,1,1.4,1.492,4.673,4.673,0,0,1,.51,2.213,4.763,4.763,0,0,1-.51,2.228,3.811,3.811,0,0,1-1.4,1.53A3.7,3.7,0,0,1,59.43.135a3.726,3.726,0,0,1-1.7-.375A3.273,3.273,0,0,1,56.55-1.2V0H54.84V-11.1h1.71ZM61.575-4.17a2.95,2.95,0,0,0-.353-1.477,2.416,2.416,0,0,0-.93-.945,2.5,2.5,0,0,0-1.237-.322,2.427,2.427,0,0,0-1.222.33,2.457,2.457,0,0,0-.93.96A2.993,2.993,0,0,0,56.55-4.14,3.036,3.036,0,0,0,56.9-2.647a2.445,2.445,0,0,0,.93.967,2.427,2.427,0,0,0,1.222.33,2.412,2.412,0,0,0,1.237-.337,2.487,2.487,0,0,0,.93-.983A3.079,3.079,0,0,0,61.575-4.17Zm11.01-.165a5.346,5.346,0,0,1-.06.84H66.21a2.293,2.293,0,0,0,.735,1.59,2.32,2.32,0,0,0,1.62.6,2,2,0,0,0,1.95-1.155H72.36A3.723,3.723,0,0,1,71-.593a3.983,3.983,0,0,1-2.437.728A4.221,4.221,0,0,1,66.442-.4a3.789,3.789,0,0,1-1.47-1.5A4.576,4.576,0,0,1,64.44-4.14a4.683,4.683,0,0,1,.518-2.243,3.639,3.639,0,0,1,1.455-1.492A4.33,4.33,0,0,1,68.565-8.4a4.209,4.209,0,0,1,2.085.51,3.6,3.6,0,0,1,1.425,1.433A4.314,4.314,0,0,1,72.585-4.335ZM70.8-4.875a1.946,1.946,0,0,0-.675-1.515,2.413,2.413,0,0,0-1.635-.57,2.2,2.2,0,0,0-1.515.563,2.351,2.351,0,0,0-.75,1.523Zm5.175-2.19a2.686,2.686,0,0,1,1-.983A2.95,2.95,0,0,1,78.45-8.4v1.77h-.435a2.083,2.083,0,0,0-1.522.51,2.439,2.439,0,0,0-.518,1.77V0h-1.71V-8.265h1.71Zm8.67,4.74q1.44-1.245,2.272-2.047a9.224,9.224,0,0,0,1.387-1.673,3.214,3.214,0,0,0,.555-1.74,2.13,2.13,0,0,0-.427-1.41A1.655,1.655,0,0,0,87.09-9.7a1.719,1.719,0,0,0-1.372.563A2.341,2.341,0,0,0,85.2-7.635H83.55a3.521,3.521,0,0,1,1.027-2.617,3.537,3.537,0,0,1,2.5-.908,3.507,3.507,0,0,1,2.557.9,3.2,3.2,0,0,1,.923,2.4,4.261,4.261,0,0,1-.548,2.077A8.366,8.366,0,0,1,88.7-4q-.757.788-1.927,1.822l-.675.6h4.755V-.15h-7.29V-1.395Zm7.71-3.285a7.9,7.9,0,0,1,.877-4.058,3.236,3.236,0,0,1,3.023-1.462,3.236,3.236,0,0,1,3.022,1.462,7.9,7.9,0,0,1,.877,4.058,8.054,8.054,0,0,1-.877,4.1A3.226,3.226,0,0,1,96.255-.03a3.226,3.226,0,0,1-3.023-1.478A8.054,8.054,0,0,1,92.355-5.61Zm6.12,0a11.373,11.373,0,0,0-.157-2.055,2.76,2.76,0,0,0-.638-1.373,1.821,1.821,0,0,0-1.425-.532,1.821,1.821,0,0,0-1.425.532,2.76,2.76,0,0,0-.637,1.373,11.373,11.373,0,0,0-.158,2.055,12.523,12.523,0,0,0,.15,2.115,2.647,2.647,0,0,0,.637,1.38,1.86,1.86,0,0,0,1.433.525,1.86,1.86,0,0,0,1.432-.525,2.647,2.647,0,0,0,.638-1.38A12.523,12.523,0,0,0,98.475-5.61Zm4.44,3.285q1.44-1.245,2.272-2.047a9.224,9.224,0,0,0,1.387-1.673,3.214,3.214,0,0,0,.555-1.74,2.13,2.13,0,0,0-.427-1.41,1.655,1.655,0,0,0-1.342-.51,1.719,1.719,0,0,0-1.372.563,2.341,2.341,0,0,0-.518,1.507h-1.65a3.521,3.521,0,0,1,1.027-2.617,3.537,3.537,0,0,1,2.5-.908,3.507,3.507,0,0,1,2.557.9,3.2,3.2,0,0,1,.923,2.4,4.261,4.261,0,0,1-.548,2.077A8.366,8.366,0,0,1,106.973-4q-.758.788-1.928,1.822l-.675.6h4.755V-.15h-7.29V-1.395Zm7.68-5.91a2.873,2.873,0,0,1,1.072-2.175,3.917,3.917,0,0,1,2.513-.78,4.083,4.083,0,0,1,1.815.375A2.688,2.688,0,0,1,117.15-9.8a2.756,2.756,0,0,1,.39,1.455,2.574,2.574,0,0,1-.5,1.59,2.406,2.406,0,0,1-1.185.885v.06a2.518,2.518,0,0,1,1.38.982,3.124,3.124,0,0,1,.5,1.823,3.053,3.053,0,0,1-.4,1.575,2.8,2.8,0,0,1-1.2,1.087,4.219,4.219,0,0,1-1.9.4,4.134,4.134,0,0,1-2.662-.832,3.086,3.086,0,0,1-1.118-2.392h1.65a1.871,1.871,0,0,0,.615,1.3,2.151,2.151,0,0,0,1.5.5,1.891,1.891,0,0,0,1.41-.5,1.77,1.77,0,0,0,.5-1.3,1.656,1.656,0,0,0-.668-1.492A3.761,3.761,0,0,0,113.4-5.1h-.39V-6.51h.405a3.675,3.675,0,0,0,1.853-.405,1.336,1.336,0,0,0,.637-1.23,1.483,1.483,0,0,0-.465-1.148,1.88,1.88,0,0,0-1.32-.428,1.857,1.857,0,0,0-1.305.428,1.727,1.727,0,0,0-.555,1.057Z" transform="translate(2699.57 1271.631)" fill="rgba(0,0,0,0.5)"/>
    </g>
    <g id="Group_6486" data-name="Group 6486" transform="translate(0.629 -0.246)">
      <path id="Top_Up_Games" data-name="Top Up Games" d="M11.528-15.29v2.046H7.458V0H4.95V-13.244H.858V-15.29ZM19.316.2a6.208,6.208,0,0,1-3.1-.781,5.61,5.61,0,0,1-2.178-2.2,6.636,6.636,0,0,1-.792-3.289,6.509,6.509,0,0,1,.814-3.278,5.622,5.622,0,0,1,2.222-2.2,6.448,6.448,0,0,1,3.146-.77,6.448,6.448,0,0,1,3.146.77,5.622,5.622,0,0,1,2.222,2.2,6.509,6.509,0,0,1,.814,3.278,6.374,6.374,0,0,1-.836,3.278A5.789,5.789,0,0,1,22.495-.583,6.563,6.563,0,0,1,19.316.2Zm0-2.178a3.732,3.732,0,0,0,1.815-.462,3.52,3.52,0,0,0,1.375-1.386,4.456,4.456,0,0,0,.528-2.244,4.549,4.549,0,0,0-.506-2.233A3.416,3.416,0,0,0,21.186-9.68a3.67,3.67,0,0,0-1.8-.462,3.609,3.609,0,0,0-1.793.462A3.3,3.3,0,0,0,16.28-8.305,4.719,4.719,0,0,0,15.8-6.072a4.253,4.253,0,0,0,1,3.025A3.308,3.308,0,0,0,19.316-1.98ZM30.6-10.34a5.1,5.1,0,0,1,1.738-1.408,5.308,5.308,0,0,1,2.486-.572,5.54,5.54,0,0,1,2.893.781A5.486,5.486,0,0,1,39.776-9.35a6.789,6.789,0,0,1,.748,3.234,6.986,6.986,0,0,1-.748,3.267A5.59,5.59,0,0,1,37.719-.605a5.425,5.425,0,0,1-2.893.8,5.26,5.26,0,0,1-2.464-.561,5.522,5.522,0,0,1-1.76-1.4V5.764H28.094V-12.122H30.6Zm7.37,4.224a4.327,4.327,0,0,0-.517-2.167,3.543,3.543,0,0,0-1.364-1.386,3.664,3.664,0,0,0-1.815-.473,3.559,3.559,0,0,0-1.793.484A3.6,3.6,0,0,0,31.119-8.25,4.389,4.389,0,0,0,30.6-6.072a4.452,4.452,0,0,0,.517,2.189,3.586,3.586,0,0,0,1.364,1.419,3.559,3.559,0,0,0,1.793.484,3.538,3.538,0,0,0,1.815-.495,3.648,3.648,0,0,0,1.364-1.441A4.516,4.516,0,0,0,37.972-6.116ZM51.216-15.29v9.746a3.475,3.475,0,0,0,.913,2.618,3.51,3.51,0,0,0,2.541.88,3.542,3.542,0,0,0,2.563-.88,3.475,3.475,0,0,0,.913-2.618V-15.29h2.508v9.7A5.848,5.848,0,0,1,59.84-2.42,5.052,5.052,0,0,1,57.662-.484a7.026,7.026,0,0,1-3.014.638,6.953,6.953,0,0,1-3-.638A4.93,4.93,0,0,1,49.5-2.42a5.974,5.974,0,0,1-.792-3.168v-9.7Zm15.2,4.95a5.1,5.1,0,0,1,1.738-1.408,5.308,5.308,0,0,1,2.486-.572,5.54,5.54,0,0,1,2.893.781A5.486,5.486,0,0,1,75.592-9.35a6.789,6.789,0,0,1,.748,3.234,6.986,6.986,0,0,1-.748,3.267A5.59,5.59,0,0,1,73.535-.605a5.425,5.425,0,0,1-2.893.8,5.26,5.26,0,0,1-2.464-.561,5.522,5.522,0,0,1-1.76-1.4V5.764H63.91V-12.122h2.508Zm7.37,4.224a4.327,4.327,0,0,0-.517-2.167,3.543,3.543,0,0,0-1.364-1.386,3.664,3.664,0,0,0-1.815-.473,3.559,3.559,0,0,0-1.793.484A3.6,3.6,0,0,0,66.935-8.25a4.389,4.389,0,0,0-.517,2.178,4.452,4.452,0,0,0,.517,2.189A3.586,3.586,0,0,0,68.3-2.464a3.559,3.559,0,0,0,1.793.484,3.538,3.538,0,0,0,1.815-.495,3.648,3.648,0,0,0,1.364-1.441A4.516,4.516,0,0,0,73.788-6.116ZM95.612-10.89a4.042,4.042,0,0,0-1.65-1.727A4.97,4.97,0,0,0,91.52-13.2a5.337,5.337,0,0,0-2.706.682,4.779,4.779,0,0,0-1.859,1.936,6.063,6.063,0,0,0-.671,2.9,6.128,6.128,0,0,0,.671,2.915,4.762,4.762,0,0,0,1.859,1.947,5.337,5.337,0,0,0,2.706.682,4.788,4.788,0,0,0,3.322-1.144A4.973,4.973,0,0,0,96.4-6.38H90.662v-2h8.426v1.958a7.527,7.527,0,0,1-1.265,3.278A7.525,7.525,0,0,1,95.161-.759,7.5,7.5,0,0,1,91.52.132a7.9,7.9,0,0,1-3.938-1,7.463,7.463,0,0,1-2.827-2.783A7.809,7.809,0,0,1,83.71-7.678,7.809,7.809,0,0,1,84.755-11.7a7.441,7.441,0,0,1,2.838-2.783,7.92,7.92,0,0,1,3.927-1,7.978,7.978,0,0,1,4.345,1.2,6.827,6.827,0,0,1,2.761,3.4Zm5.1,4.774a6.709,6.709,0,0,1,.759-3.234,5.563,5.563,0,0,1,2.068-2.189,5.54,5.54,0,0,1,2.893-.781,5.292,5.292,0,0,1,2.5.561,5.067,5.067,0,0,1,1.705,1.4v-1.76h2.53V0h-2.53V-1.8A4.981,4.981,0,0,1,108.9-.374,5.356,5.356,0,0,1,106.392.2a5.33,5.33,0,0,1-2.86-.8,5.7,5.7,0,0,1-2.057-2.244A6.9,6.9,0,0,1,100.716-6.116Zm9.922.044a4.389,4.389,0,0,0-.517-2.178,3.629,3.629,0,0,0-1.353-1.408,3.54,3.54,0,0,0-1.8-.484,3.6,3.6,0,0,0-1.8.473,3.567,3.567,0,0,0-1.353,1.386,4.327,4.327,0,0,0-.517,2.167,4.516,4.516,0,0,0,.517,2.2,3.648,3.648,0,0,0,1.364,1.441,3.5,3.5,0,0,0,1.793.495,3.54,3.54,0,0,0,1.8-.484,3.611,3.611,0,0,0,1.353-1.419A4.452,4.452,0,0,0,110.638-6.072Zm20.5-6.248a5.436,5.436,0,0,1,2.563.594,4.291,4.291,0,0,1,1.782,1.76,5.709,5.709,0,0,1,.649,2.816V0H133.65V-6.776a3.518,3.518,0,0,0-.814-2.5,2.9,2.9,0,0,0-2.222-.869,2.933,2.933,0,0,0-2.233.869,3.489,3.489,0,0,0-.825,2.5V0H125.07V-6.776a3.518,3.518,0,0,0-.814-2.5,2.9,2.9,0,0,0-2.222-.869,2.933,2.933,0,0,0-2.233.869,3.489,3.489,0,0,0-.825,2.5V0h-2.508V-12.122h2.508v1.386a4.17,4.17,0,0,1,1.562-1.166,4.952,4.952,0,0,1,2.024-.418,5.388,5.388,0,0,1,2.6.616,4.211,4.211,0,0,1,1.76,1.782,4.066,4.066,0,0,1,1.716-1.749A5.075,5.075,0,0,1,131.142-12.32Zm19.294,5.962a7.841,7.841,0,0,1-.088,1.232h-9.262a3.364,3.364,0,0,0,1.078,2.332,3.4,3.4,0,0,0,2.376.88,2.935,2.935,0,0,0,2.86-1.694h2.706a5.46,5.46,0,0,1-1.991,2.739A5.842,5.842,0,0,1,144.54.2a6.191,6.191,0,0,1-3.113-.781,5.557,5.557,0,0,1-2.156-2.2,6.711,6.711,0,0,1-.781-3.289,6.869,6.869,0,0,1,.759-3.289,5.338,5.338,0,0,1,2.134-2.189,6.351,6.351,0,0,1,3.157-.77,6.174,6.174,0,0,1,3.058.748,5.285,5.285,0,0,1,2.09,2.1A6.328,6.328,0,0,1,150.436-6.358Zm-2.618-.792a2.854,2.854,0,0,0-.99-2.222,3.54,3.54,0,0,0-2.4-.836,3.221,3.221,0,0,0-2.222.825,3.448,3.448,0,0,0-1.1,2.233ZM157.3.2a6.107,6.107,0,0,1-2.563-.517,4.5,4.5,0,0,1-1.793-1.408,3.509,3.509,0,0,1-.7-1.991h2.6a1.77,1.77,0,0,0,.737,1.287,2.676,2.676,0,0,0,1.683.517,2.835,2.835,0,0,0,1.639-.407,1.228,1.228,0,0,0,.583-1.045,1.073,1.073,0,0,0-.649-1.012,12.165,12.165,0,0,0-2.057-.726,19.854,19.854,0,0,1-2.222-.726,3.9,3.9,0,0,1-1.485-1.078,2.825,2.825,0,0,1-.627-1.914,2.985,2.985,0,0,1,.572-1.771,3.809,3.809,0,0,1,1.639-1.265,6.124,6.124,0,0,1,2.453-.462,5.065,5.065,0,0,1,3.333,1.045,3.752,3.752,0,0,1,1.353,2.849H159.28a1.786,1.786,0,0,0-.66-1.3,2.468,2.468,0,0,0-1.606-.484,2.607,2.607,0,0,0-1.518.374,1.158,1.158,0,0,0-.528.99,1.072,1.072,0,0,0,.352.814,2.507,2.507,0,0,0,.858.517q.506.187,1.5.473a16.274,16.274,0,0,1,2.167.715A4.034,4.034,0,0,1,161.3-5.258a2.823,2.823,0,0,1,.638,1.87,3.136,3.136,0,0,1-.572,1.848,3.792,3.792,0,0,1-1.617,1.276A6.025,6.025,0,0,1,157.3.2ZM177.342.154a7.92,7.92,0,0,1-3.927-1,7.417,7.417,0,0,1-2.838-2.794,7.868,7.868,0,0,1-1.045-4.037,7.809,7.809,0,0,1,1.045-4.026,7.441,7.441,0,0,1,2.838-2.783,7.92,7.92,0,0,1,3.927-1,7.963,7.963,0,0,1,3.949,1,7.361,7.361,0,0,1,2.827,2.783,7.874,7.874,0,0,1,1.034,4.026,7.933,7.933,0,0,1-1.034,4.037,7.339,7.339,0,0,1-2.827,2.794A7.963,7.963,0,0,1,177.342.154Zm0-2.178a5.27,5.27,0,0,0,2.706-.693,4.8,4.8,0,0,0,1.859-1.98,6.357,6.357,0,0,0,.671-2.981,6.291,6.291,0,0,0-.671-2.97,4.747,4.747,0,0,0-1.859-1.958,5.337,5.337,0,0,0-2.706-.682,5.337,5.337,0,0,0-2.706.682,4.747,4.747,0,0,0-1.859,1.958,6.291,6.291,0,0,0-.671,2.97,6.357,6.357,0,0,0,.671,2.981,4.8,4.8,0,0,0,1.859,1.98A5.27,5.27,0,0,0,177.342-2.024Zm16.39-10.3a5.436,5.436,0,0,1,2.563.594,4.224,4.224,0,0,1,1.771,1.76A5.79,5.79,0,0,1,198.7-7.15V0h-2.486V-6.776a3.518,3.518,0,0,0-.814-2.5,2.9,2.9,0,0,0-2.222-.869,2.933,2.933,0,0,0-2.233.869,3.489,3.489,0,0,0-.825,2.5V0h-2.508V-12.122h2.508v1.386A4.151,4.151,0,0,1,191.7-11.9,5.029,5.029,0,0,1,193.732-12.32Zm10.67-3.96V0h-2.508V-16.28Zm4.576,2.552a1.554,1.554,0,0,1-1.144-.462,1.554,1.554,0,0,1-.462-1.144,1.554,1.554,0,0,1,.462-1.144,1.554,1.554,0,0,1,1.144-.462,1.528,1.528,0,0,1,1.122.462,1.554,1.554,0,0,1,.462,1.144,1.554,1.554,0,0,1-.462,1.144A1.528,1.528,0,0,1,208.978-13.728Zm1.232,1.606V0H207.7V-12.122Zm9.416-.2a5.436,5.436,0,0,1,2.563.594,4.224,4.224,0,0,1,1.771,1.76A5.79,5.79,0,0,1,224.6-7.15V0h-2.486V-6.776a3.518,3.518,0,0,0-.814-2.5,2.9,2.9,0,0,0-2.222-.869,2.933,2.933,0,0,0-2.233.869,3.489,3.489,0,0,0-.825,2.5V0H213.51V-12.122h2.508v1.386a4.151,4.151,0,0,1,1.573-1.166A5.029,5.029,0,0,1,219.626-12.32ZM238.9-6.358a7.841,7.841,0,0,1-.088,1.232h-9.262a3.364,3.364,0,0,0,1.078,2.332,3.4,3.4,0,0,0,2.376.88,2.935,2.935,0,0,0,2.86-1.694h2.706a5.46,5.46,0,0,1-1.991,2.739A5.842,5.842,0,0,1,233,.2a6.191,6.191,0,0,1-3.113-.781,5.557,5.557,0,0,1-2.156-2.2,6.711,6.711,0,0,1-.781-3.289,6.869,6.869,0,0,1,.759-3.289,5.338,5.338,0,0,1,2.134-2.189A6.351,6.351,0,0,1,233-12.32a6.174,6.174,0,0,1,3.058.748,5.285,5.285,0,0,1,2.09,2.1A6.328,6.328,0,0,1,238.9-6.358ZM236.28-7.15a2.854,2.854,0,0,0-.99-2.222,3.54,3.54,0,0,0-2.4-.836,3.221,3.221,0,0,0-2.222.825,3.448,3.448,0,0,0-1.1,2.233Z" transform="translate(2677.375 1033.573)"/>
      <path id="_-_250" data-name="-$250" d="M-40.068-8.61v2.016H-48.7V-8.61Zm13.251,4.452a4,4,0,0,1-.514,1.974A4.33,4.33,0,0,1-28.843-.63a5.263,5.263,0,0,1-2.362.756v1.7h-1.365V.126a5.564,5.564,0,0,1-3.192-1.239,3.48,3.48,0,0,1-1.218-2.772h2.562a2.279,2.279,0,0,0,.525,1.355,2.157,2.157,0,0,0,1.323.682v-4.62a16.95,16.95,0,0,1-2.289-.725,3.667,3.667,0,0,1-1.5-1.165,3.476,3.476,0,0,1-.62-2.184,3.793,3.793,0,0,1,1.218-2.888,5.236,5.236,0,0,1,3.192-1.333v-1.7h1.365v1.7A5.027,5.027,0,0,1-28.234-13.6a3.947,3.947,0,0,1,1.271,2.74h-2.562a2.06,2.06,0,0,0-.5-1.165,2.234,2.234,0,0,0-1.176-.7V-8.19a15.413,15.413,0,0,1,2.289.7,3.625,3.625,0,0,1,1.491,1.155A3.473,3.473,0,0,1-26.817-4.158Zm-7.728-6.51a1.754,1.754,0,0,0,.514,1.344,3.721,3.721,0,0,0,1.459.777v-4.242a2.317,2.317,0,0,0-1.438.651A2.008,2.008,0,0,0-34.545-10.668Zm3.339,8.82a2.342,2.342,0,0,0,1.449-.745,2.107,2.107,0,0,0,.525-1.439,1.693,1.693,0,0,0-.514-1.312,3.808,3.808,0,0,0-1.459-.766Zm9.2-1.407Q-19.992-5-18.826-6.122a12.913,12.913,0,0,0,1.943-2.342,4.5,4.5,0,0,0,.777-2.436,2.981,2.981,0,0,0-.6-1.974,2.317,2.317,0,0,0-1.879-.714,2.406,2.406,0,0,0-1.922.788,3.277,3.277,0,0,0-.724,2.11h-2.31A4.929,4.929,0,0,1-22.1-14.353a4.952,4.952,0,0,1,3.5-1.271,4.91,4.91,0,0,1,3.58,1.26A4.48,4.48,0,0,1-13.734-11,5.965,5.965,0,0,1-14.5-8.1a11.712,11.712,0,0,1-1.827,2.5q-1.06,1.1-2.7,2.552l-.945.84h6.657V-.21H-23.52V-1.953Zm10.752-8.274a4.023,4.023,0,0,1,1.5-3.045,5.483,5.483,0,0,1,3.518-1.092,5.716,5.716,0,0,1,2.541.525,3.764,3.764,0,0,1,1.617,1.428,3.859,3.859,0,0,1,.546,2.037A3.6,3.6,0,0,1-2.226-9.45,3.369,3.369,0,0,1-3.885-8.211v.084A3.526,3.526,0,0,1-1.953-6.752,4.374,4.374,0,0,1-1.26-4.2,4.274,4.274,0,0,1-1.827-2,3.916,3.916,0,0,1-3.507-.473,5.906,5.906,0,0,1-6.174.084,5.787,5.787,0,0,1-9.9-1.082a4.32,4.32,0,0,1-1.564-3.349h2.31a2.62,2.62,0,0,0,.861,1.816,3.011,3.011,0,0,0,2.1.7,2.647,2.647,0,0,0,1.974-.7,2.478,2.478,0,0,0,.693-1.816A2.318,2.318,0,0,0-4.462-6.52a5.266,5.266,0,0,0-2.867-.62h-.546V-9.114h.567a5.145,5.145,0,0,0,2.593-.567A1.871,1.871,0,0,0-3.822-11.4a2.076,2.076,0,0,0-.651-1.606,2.632,2.632,0,0,0-1.848-.6,2.6,2.6,0,0,0-1.827.6,2.417,2.417,0,0,0-.777,1.48Z" transform="translate(3076.869 1069.864)"/>
      <path id="_12_october_2021-2" data-name="12 october 2021" d="M.81-11.25v-1.872H4.554V0H2.484V-11.25ZM18.036.126a6.48,6.48,0,0,1-3.213-.819A6.069,6.069,0,0,1,12.5-2.979a6.438,6.438,0,0,1-.855-3.3A6.389,6.389,0,0,1,12.5-9.576a6.088,6.088,0,0,1,2.322-2.277,6.48,6.48,0,0,1,3.213-.819,6.516,6.516,0,0,1,3.231.819A6.023,6.023,0,0,1,23.58-9.576a6.442,6.442,0,0,1,.846,3.294,6.491,6.491,0,0,1-.846,3.3A6,6,0,0,1,21.267-.693,6.515,6.515,0,0,1,18.036.126Zm0-1.782a4.312,4.312,0,0,0,2.214-.567,3.931,3.931,0,0,0,1.521-1.62,5.2,5.2,0,0,0,.549-2.439,5.147,5.147,0,0,0-.549-2.43,3.884,3.884,0,0,0-1.521-1.6,4.367,4.367,0,0,0-2.214-.558,4.366,4.366,0,0,0-2.214.558,3.884,3.884,0,0,0-1.521,1.6,5.147,5.147,0,0,0-.549,2.43A5.2,5.2,0,0,0,14.3-3.843a3.931,3.931,0,0,0,1.521,1.62A4.312,4.312,0,0,0,18.036-1.656Zm7.722-3.312a5.62,5.62,0,0,1,.621-2.691A4.417,4.417,0,0,1,28.1-9.45a4.973,4.973,0,0,1,2.52-.63,4.944,4.944,0,0,1,2.979.855A4.209,4.209,0,0,1,35.19-6.786H32.976a2.341,2.341,0,0,0-.864-1.152,2.552,2.552,0,0,0-1.494-.414,2.484,2.484,0,0,0-2.007.891,3.77,3.77,0,0,0-.747,2.493,3.807,3.807,0,0,0,.747,2.5,2.474,2.474,0,0,0,2.007.9,2.277,2.277,0,0,0,2.358-1.566H35.19a4.432,4.432,0,0,1-1.62,2.4,4.781,4.781,0,0,1-2.952.891A4.917,4.917,0,0,1,28.1-.477a4.478,4.478,0,0,1-1.719-1.8A5.62,5.62,0,0,1,25.758-4.968ZM39.636-8.244v5.49a1.054,1.054,0,0,0,.261.8,1.3,1.3,0,0,0,.891.243h1.26V0h-1.62A3.122,3.122,0,0,1,38.3-.648a2.671,2.671,0,0,1-.738-2.106v-5.49H36.4V-9.918h1.17v-2.466h2.07v2.466h2.412v1.674ZM48.24.162A5.079,5.079,0,0,1,45.7-.477a4.59,4.59,0,0,1-1.782-1.8,5.43,5.43,0,0,1-.648-2.691,5.325,5.325,0,0,1,.666-2.682,4.6,4.6,0,0,1,1.818-1.8,5.275,5.275,0,0,1,2.574-.63,5.275,5.275,0,0,1,2.574.63,4.6,4.6,0,0,1,1.818,1.8,5.325,5.325,0,0,1,.666,2.682A5.215,5.215,0,0,1,52.7-2.286,4.736,4.736,0,0,1,50.841-.477,5.37,5.37,0,0,1,48.24.162Zm0-1.782A3.054,3.054,0,0,0,49.725-2,2.88,2.88,0,0,0,50.85-3.132a3.646,3.646,0,0,0,.432-1.836A3.722,3.722,0,0,0,50.868-6.8a2.8,2.8,0,0,0-1.1-1.125A3,3,0,0,0,48.294-8.3a2.953,2.953,0,0,0-1.467.378A2.7,2.7,0,0,0,45.756-6.8a3.861,3.861,0,0,0-.4,1.827,3.48,3.48,0,0,0,.819,2.475A2.706,2.706,0,0,0,48.24-1.62Zm9.234-6.822A3.892,3.892,0,0,1,58.9-9.621a4.428,4.428,0,0,1,2.025-.459,4.568,4.568,0,0,1,2.376.63A4.432,4.432,0,0,1,64.98-7.659,5.608,5.608,0,0,1,65.592-5a5.716,5.716,0,0,1-.612,2.673A4.574,4.574,0,0,1,63.3-.5,4.439,4.439,0,0,1,60.93.162a4.471,4.471,0,0,1-2.043-.45A3.927,3.927,0,0,1,57.474-1.44V0H55.422V-13.32h2.052ZM63.5-5a3.54,3.54,0,0,0-.423-1.773,2.9,2.9,0,0,0-1.116-1.134A3,3,0,0,0,60.48-8.3a2.912,2.912,0,0,0-1.467.4A2.949,2.949,0,0,0,57.9-6.75a3.591,3.591,0,0,0-.423,1.782A3.643,3.643,0,0,0,57.9-3.177a2.934,2.934,0,0,0,1.116,1.161,2.912,2.912,0,0,0,1.467.4,2.894,2.894,0,0,0,1.485-.4A2.984,2.984,0,0,0,63.081-3.2,3.7,3.7,0,0,0,63.5-5Zm13.212-.2a6.415,6.415,0,0,1-.072,1.008H69.066a2.752,2.752,0,0,0,.882,1.908,2.784,2.784,0,0,0,1.944.72,2.4,2.4,0,0,0,2.34-1.386h2.214A4.468,4.468,0,0,1,74.817-.711a4.78,4.78,0,0,1-2.925.873,5.065,5.065,0,0,1-2.547-.639,4.546,4.546,0,0,1-1.764-1.8,5.491,5.491,0,0,1-.639-2.691,5.62,5.62,0,0,1,.621-2.691A4.367,4.367,0,0,1,69.309-9.45a5.2,5.2,0,0,1,2.583-.63,5.051,5.051,0,0,1,2.5.612A4.324,4.324,0,0,1,76.1-7.749,5.177,5.177,0,0,1,76.716-5.2ZM74.574-5.85a2.335,2.335,0,0,0-.81-1.818A2.9,2.9,0,0,0,71.8-8.352a2.635,2.635,0,0,0-1.818.675,2.821,2.821,0,0,0-.9,1.827Zm6.21-2.628a3.223,3.223,0,0,1,1.2-1.179,3.54,3.54,0,0,1,1.773-.423v2.124h-.522a2.5,2.5,0,0,0-1.827.612,2.926,2.926,0,0,0-.621,2.124V0H78.732V-9.918h2.052Zm10.4,5.688q1.728-1.494,2.727-2.457A11.069,11.069,0,0,0,95.58-7.254a3.857,3.857,0,0,0,.666-2.088,2.556,2.556,0,0,0-.513-1.692,1.986,1.986,0,0,0-1.611-.612,2.063,2.063,0,0,0-1.647.675,2.809,2.809,0,0,0-.621,1.809h-1.98A4.225,4.225,0,0,1,91.107-12.3a4.244,4.244,0,0,1,3-1.089,4.208,4.208,0,0,1,3.069,1.08,3.84,3.84,0,0,1,1.107,2.88,5.113,5.113,0,0,1-.657,2.493A10.04,10.04,0,0,1,96.057-4.8q-.909.945-2.313,2.187l-.81.72H98.64V-.18H89.892V-1.674Zm9.252-3.942a9.478,9.478,0,0,1,1.053-4.869,3.883,3.883,0,0,1,3.627-1.755,3.883,3.883,0,0,1,3.627,1.755A9.478,9.478,0,0,1,109.8-6.732a9.665,9.665,0,0,1-1.053,4.923A3.871,3.871,0,0,1,105.12-.036a3.871,3.871,0,0,1-3.627-1.773A9.665,9.665,0,0,1,100.44-6.732Zm7.344,0A13.648,13.648,0,0,0,107.6-9.2a3.312,3.312,0,0,0-.765-1.647,2.185,2.185,0,0,0-1.71-.639,2.185,2.185,0,0,0-1.71.639,3.312,3.312,0,0,0-.765,1.647,13.648,13.648,0,0,0-.189,2.466,15.027,15.027,0,0,0,.18,2.538,3.176,3.176,0,0,0,.765,1.656,2.232,2.232,0,0,0,1.719.63,2.232,2.232,0,0,0,1.719-.63,3.176,3.176,0,0,0,.765-1.656A15.028,15.028,0,0,0,107.784-6.732Zm5.328,3.942q1.728-1.494,2.727-2.457A11.069,11.069,0,0,0,117.5-7.254a3.857,3.857,0,0,0,.666-2.088,2.556,2.556,0,0,0-.513-1.692,1.986,1.986,0,0,0-1.611-.612,2.063,2.063,0,0,0-1.647.675,2.809,2.809,0,0,0-.621,1.809H111.8a4.225,4.225,0,0,1,1.233-3.141,4.244,4.244,0,0,1,3-1.089,4.208,4.208,0,0,1,3.069,1.08,3.84,3.84,0,0,1,1.107,2.88,5.113,5.113,0,0,1-.657,2.493A10.04,10.04,0,0,1,117.981-4.8q-.909.945-2.313,2.187l-.81.72h5.706V-.18h-8.748V-1.674Zm9.216-7.092a3.448,3.448,0,0,1,1.287-2.61,4.7,4.7,0,0,1,3.015-.936,4.9,4.9,0,0,1,2.178.45,3.226,3.226,0,0,1,1.386,1.224,3.308,3.308,0,0,1,.468,1.746,3.089,3.089,0,0,1-.594,1.908,2.888,2.888,0,0,1-1.422,1.062v.072A3.022,3.022,0,0,1,130.3-5.787,3.749,3.749,0,0,1,130.9-3.6a3.663,3.663,0,0,1-.486,1.89,3.357,3.357,0,0,1-1.44,1.305,5.062,5.062,0,0,1-2.286.477,4.961,4.961,0,0,1-3.195-1A3.7,3.7,0,0,1,122.148-3.8h1.98a2.246,2.246,0,0,0,.738,1.557,2.581,2.581,0,0,0,1.8.6,2.269,2.269,0,0,0,1.692-.6,2.124,2.124,0,0,0,.594-1.557,1.987,1.987,0,0,0-.8-1.791,4.513,4.513,0,0,0-2.457-.531h-.468V-7.812h.486a4.41,4.41,0,0,0,2.223-.486,1.6,1.6,0,0,0,.765-1.476,1.78,1.78,0,0,0-.558-1.377,2.256,2.256,0,0,0-1.584-.513,2.229,2.229,0,0,0-1.566.513,2.072,2.072,0,0,0-.666,1.269Z" transform="translate(2677.375 1074.855)" fill="rgba(0,0,0,0.5)"/>
      <circle id="Ellipse_181" data-name="Ellipse 181" cx="42.618" cy="42.618" r="42.618" transform="translate(2572.371 1005.246)" fill="#216d96"/>
    </g>
    <g id="video-game_1" data-name="video-game 1" transform="translate(2593.682 1026.555)">
      <rect id="video-game_1_Background_Mask_2" data-name="video-game 1 (Background/Mask)" width="42.618" height="42.618" transform="translate(0 0)" fill="none"/>
      <g id="video-game_1-2" data-name="video-game 1" transform="translate(0 0)" clip-path="url(#clip-path-2)">
        <g id="Group-7" data-name="Group" transform="translate(0 1.728)">
          <path id="Vector-4" data-name="Vector" d="M26.736,18.532c-11.368,0-10.853-.005-10.853.011a8,8,0,0,1-8.254,8,7.962,7.962,0,0,1-7.5-9.362L1.885,7.641A8.779,8.779,0,0,1,10.578,0H32.04a8.78,8.78,0,0,1,8.693,7.641l1.753,9.537a7.96,7.96,0,0,1-7.5,9.362q-.162.007-.323.007A8,8,0,0,1,26.736,18.532Z" transform="translate(0 12.023)" fill="#fff"/>
          <path id="Vector-5" data-name="Vector" d="M.367,3.114a1.252,1.252,0,0,0,1.771,0,2.086,2.086,0,0,1,2.951,0A1.252,1.252,0,0,0,6.86,1.343a4.6,4.6,0,0,0-6.493,0h0A1.252,1.252,0,0,0,.367,3.114Z" transform="translate(17.695 5.347)" fill="#fff"/>
          <path id="Vector-6" data-name="Vector" d="M12.645,4.683a1.252,1.252,0,0,0,1.771-1.771,9.929,9.929,0,0,0-14.049,0A1.252,1.252,0,0,0,2.138,4.683,7.426,7.426,0,0,1,12.645,4.683Z" transform="translate(13.917)" fill="#fff"/>
        </g>
      </g>
    </g>
    <g id="Group_6484" data-name="Group 6484" transform="translate(3.664)">
      <path id="_12_october_2021-3" data-name="12 october 2021" d="M.675-9.375v-1.56h3.12V0H2.07V-9.375ZM7.1-2.325Q8.535-3.57,9.368-4.372a9.224,9.224,0,0,0,1.387-1.673,3.214,3.214,0,0,0,.555-1.74,2.13,2.13,0,0,0-.428-1.41A1.655,1.655,0,0,0,9.54-9.7a1.719,1.719,0,0,0-1.373.563A2.341,2.341,0,0,0,7.65-7.635H6a3.521,3.521,0,0,1,1.028-2.617,3.537,3.537,0,0,1,2.5-.908,3.507,3.507,0,0,1,2.558.9,3.2,3.2,0,0,1,.922,2.4,4.261,4.261,0,0,1-.547,2.077A8.366,8.366,0,0,1,11.153-4q-.758.788-1.927,1.822l-.675.6h4.755V-.15H6.015V-1.395Zm18.12.195H20.85L20.1,0H18.315L22.05-10.44h1.98L27.765,0h-1.8Zm-.48-1.395L23.04-8.37,21.33-3.525ZM36.87-8.265V0H35.16V-.975a2.768,2.768,0,0,1-1.057.8A3.353,3.353,0,0,1,32.715.12a3.706,3.706,0,0,1-1.747-.405,2.926,2.926,0,0,1-1.215-1.2A3.893,3.893,0,0,1,29.31-3.4v-4.86h1.7V-3.66a2.4,2.4,0,0,0,.555,1.7,1.975,1.975,0,0,0,1.515.593A2,2,0,0,0,34.6-1.958a2.379,2.379,0,0,0,.563-1.7V-8.265ZM42.45-8.4a3.665,3.665,0,0,1,1.7.382,3.27,3.27,0,0,1,1.162.953v-1.2H47.04v8.4a4.223,4.223,0,0,1-.48,2.033,3.468,3.468,0,0,1-1.387,1.4A4.357,4.357,0,0,1,43,4.08a4.7,4.7,0,0,1-2.79-.788,2.906,2.906,0,0,1-1.26-2.138H40.65A1.84,1.84,0,0,0,41.482,2.2a2.819,2.819,0,0,0,1.522.4,2.276,2.276,0,0,0,1.673-.63,2.461,2.461,0,0,0,.638-1.83v-1.38a3.487,3.487,0,0,1-1.178.983,3.519,3.519,0,0,1-1.687.4,3.7,3.7,0,0,1-1.972-.547,3.864,3.864,0,0,1-1.41-1.53A4.707,4.707,0,0,1,38.55-4.17a4.574,4.574,0,0,1,.517-2.2,3.793,3.793,0,0,1,1.41-1.493A3.777,3.777,0,0,1,42.45-8.4Zm2.865,4.26a2.993,2.993,0,0,0-.353-1.485,2.474,2.474,0,0,0-.922-.96,2.413,2.413,0,0,0-1.23-.33,2.457,2.457,0,0,0-1.23.322,2.432,2.432,0,0,0-.923.945,2.95,2.95,0,0,0-.352,1.477,3.079,3.079,0,0,0,.352,1.5,2.487,2.487,0,0,0,.93.983,2.385,2.385,0,0,0,1.222.337,2.413,2.413,0,0,0,1.23-.33,2.462,2.462,0,0,0,.922-.967A3.036,3.036,0,0,0,45.315-4.14Zm11.46-4.125V0h-1.71V-.975a2.768,2.768,0,0,1-1.058.8A3.353,3.353,0,0,1,52.62.12a3.706,3.706,0,0,1-1.748-.405,2.926,2.926,0,0,1-1.215-1.2,3.893,3.893,0,0,1-.443-1.92v-4.86H50.91V-3.66a2.4,2.4,0,0,0,.555,1.7,1.975,1.975,0,0,0,1.515.593A2,2,0,0,0,54.5-1.958a2.379,2.379,0,0,0,.563-1.7V-8.265Zm5.25,8.4a4.164,4.164,0,0,1-1.748-.352,3.069,3.069,0,0,1-1.222-.96,2.393,2.393,0,0,1-.48-1.358h1.77a1.207,1.207,0,0,0,.5.878A1.825,1.825,0,0,0,62-1.3a1.933,1.933,0,0,0,1.118-.278.837.837,0,0,0,.4-.713.732.732,0,0,0-.443-.69,8.3,8.3,0,0,0-1.4-.495,13.536,13.536,0,0,1-1.515-.495,2.656,2.656,0,0,1-1.013-.735,1.926,1.926,0,0,1-.427-1.3,2.035,2.035,0,0,1,.39-1.207,2.6,2.6,0,0,1,1.118-.863A4.175,4.175,0,0,1,61.89-8.4a3.454,3.454,0,0,1,2.272.712,2.558,2.558,0,0,1,.923,1.943h-1.71a1.218,1.218,0,0,0-.45-.885,1.683,1.683,0,0,0-1.1-.33A1.777,1.777,0,0,0,60.8-6.7a.789.789,0,0,0-.36.675.731.731,0,0,0,.24.555,1.71,1.71,0,0,0,.585.352q.345.128,1.02.323a11.1,11.1,0,0,1,1.477.487,2.751,2.751,0,0,1,1,.728A1.925,1.925,0,0,1,65.19-2.31a2.138,2.138,0,0,1-.39,1.26,2.586,2.586,0,0,1-1.1.87A4.108,4.108,0,0,1,62.025.135Zm7.005-7V-2.3a.878.878,0,0,0,.217.668,1.081,1.081,0,0,0,.743.2h1.05V0H69.69a2.6,2.6,0,0,1-1.77-.54A2.225,2.225,0,0,1,67.305-2.3V-6.87H66.33v-1.4h.975V-10.32H69.03v2.055h2.01v1.4Zm8.2,4.545q1.44-1.245,2.272-2.047a9.224,9.224,0,0,0,1.387-1.673,3.214,3.214,0,0,0,.555-1.74,2.13,2.13,0,0,0-.427-1.41A1.655,1.655,0,0,0,79.68-9.7a1.719,1.719,0,0,0-1.372.563,2.341,2.341,0,0,0-.518,1.507H76.14a3.521,3.521,0,0,1,1.027-2.617,3.537,3.537,0,0,1,2.5-.908,3.507,3.507,0,0,1,2.557.9,3.2,3.2,0,0,1,.923,2.4A4.261,4.261,0,0,1,82.6-5.783,8.366,8.366,0,0,1,81.292-4q-.757.788-1.927,1.822l-.675.6h4.755V-.15h-7.29V-1.395Zm7.71-3.285a7.9,7.9,0,0,1,.877-4.058,3.236,3.236,0,0,1,3.023-1.462,3.236,3.236,0,0,1,3.022,1.462,7.9,7.9,0,0,1,.877,4.058,8.054,8.054,0,0,1-.877,4.1A3.226,3.226,0,0,1,88.845-.03a3.226,3.226,0,0,1-3.023-1.478A8.054,8.054,0,0,1,84.945-5.61Zm6.12,0a11.373,11.373,0,0,0-.157-2.055,2.76,2.76,0,0,0-.638-1.373,1.821,1.821,0,0,0-1.425-.532,1.821,1.821,0,0,0-1.425.532,2.76,2.76,0,0,0-.637,1.373,11.373,11.373,0,0,0-.158,2.055,12.523,12.523,0,0,0,.15,2.115,2.647,2.647,0,0,0,.637,1.38,1.86,1.86,0,0,0,1.433.525,1.86,1.86,0,0,0,1.432-.525,2.647,2.647,0,0,0,.638-1.38A12.523,12.523,0,0,0,91.065-5.61Zm4.44,3.285q1.44-1.245,2.272-2.047a9.224,9.224,0,0,0,1.387-1.673,3.214,3.214,0,0,0,.555-1.74,2.13,2.13,0,0,0-.427-1.41A1.655,1.655,0,0,0,97.95-9.7a1.719,1.719,0,0,0-1.372.563,2.341,2.341,0,0,0-.518,1.507H94.41a3.521,3.521,0,0,1,1.027-2.617,3.537,3.537,0,0,1,2.5-.908,3.507,3.507,0,0,1,2.557.9,3.2,3.2,0,0,1,.923,2.4,4.261,4.261,0,0,1-.548,2.077A8.366,8.366,0,0,1,99.563-4q-.757.788-1.927,1.822l-.675.6h4.755V-.15h-7.29V-1.395Zm7.68-5.91a2.873,2.873,0,0,1,1.072-2.175,3.917,3.917,0,0,1,2.513-.78,4.083,4.083,0,0,1,1.815.375A2.688,2.688,0,0,1,109.74-9.8a2.756,2.756,0,0,1,.39,1.455,2.574,2.574,0,0,1-.5,1.59,2.406,2.406,0,0,1-1.185.885v.06a2.518,2.518,0,0,1,1.38.982,3.124,3.124,0,0,1,.5,1.823,3.053,3.053,0,0,1-.4,1.575,2.8,2.8,0,0,1-1.2,1.087,4.219,4.219,0,0,1-1.9.4,4.134,4.134,0,0,1-2.662-.832,3.086,3.086,0,0,1-1.118-2.392h1.65a1.871,1.871,0,0,0,.615,1.3,2.151,2.151,0,0,0,1.5.5,1.891,1.891,0,0,0,1.41-.5,1.77,1.77,0,0,0,.5-1.3,1.656,1.656,0,0,0-.667-1.492A3.761,3.761,0,0,0,105.99-5.1h-.39V-6.51h.4a3.675,3.675,0,0,0,1.853-.405,1.336,1.336,0,0,0,.637-1.23,1.483,1.483,0,0,0-.465-1.148,1.88,1.88,0,0,0-1.32-.428,1.857,1.857,0,0,0-1.305.428,1.727,1.727,0,0,0-.555,1.057Z" transform="translate(2699.57 852.841)" fill="rgba(0,0,0,0.5)"/>
      <path id="Internet_Provider" data-name="Internet Provider" d="M3.969-14.6V0H1.575V-14.6Zm8.988,2.835a5.189,5.189,0,0,1,2.446.567,4.032,4.032,0,0,1,1.691,1.68A5.526,5.526,0,0,1,17.7-6.825V0H15.33V-6.468a3.358,3.358,0,0,0-.777-2.383,2.765,2.765,0,0,0-2.121-.83,2.8,2.8,0,0,0-2.131.83,3.33,3.33,0,0,0-.788,2.383V0H7.119V-11.571H9.513v1.323a3.963,3.963,0,0,1,1.5-1.113A4.8,4.8,0,0,1,12.957-11.76ZM23.541-9.618v6.405a1.229,1.229,0,0,0,.3.934A1.514,1.514,0,0,0,24.885-2h1.47V0h-1.89a3.643,3.643,0,0,1-2.478-.756,3.116,3.116,0,0,1-.861-2.457V-9.618H19.761v-1.953h1.365v-2.877h2.415v2.877h2.814v1.953ZM39.165-6.069a7.485,7.485,0,0,1-.084,1.176H30.24a3.211,3.211,0,0,0,1.029,2.226,3.248,3.248,0,0,0,2.268.84,2.8,2.8,0,0,0,2.73-1.617H38.85A5.212,5.212,0,0,1,36.95-.83,5.576,5.576,0,0,1,33.537.189a5.91,5.91,0,0,1-2.972-.746,5.3,5.3,0,0,1-2.058-2.1,6.406,6.406,0,0,1-.745-3.14,6.557,6.557,0,0,1,.724-3.14,5.1,5.1,0,0,1,2.037-2.089,6.062,6.062,0,0,1,3.014-.735,5.893,5.893,0,0,1,2.919.714A5.045,5.045,0,0,1,38.451-9.04,6.04,6.04,0,0,1,39.165-6.069Zm-2.5-.756a2.724,2.724,0,0,0-.945-2.121,3.379,3.379,0,0,0-2.289-.8,3.075,3.075,0,0,0-2.121.787,3.291,3.291,0,0,0-1.05,2.132Zm7.245-3.066a3.76,3.76,0,0,1,1.4-1.375,4.13,4.13,0,0,1,2.068-.494v2.478h-.609a2.916,2.916,0,0,0-2.132.714,3.414,3.414,0,0,0-.724,2.478V0H41.517V-11.571h2.394ZM55.419-11.76a5.189,5.189,0,0,1,2.447.567,4.032,4.032,0,0,1,1.69,1.68,5.526,5.526,0,0,1,.609,2.688V0H57.792V-6.468a3.358,3.358,0,0,0-.777-2.383,2.765,2.765,0,0,0-2.121-.83,2.8,2.8,0,0,0-2.132.83,3.33,3.33,0,0,0-.788,2.383V0H49.581V-11.571h2.394v1.323a3.963,3.963,0,0,1,1.5-1.113A4.8,4.8,0,0,1,55.419-11.76Zm18.4,5.691a7.485,7.485,0,0,1-.084,1.176H64.89a3.211,3.211,0,0,0,1.029,2.226,3.248,3.248,0,0,0,2.268.84,2.8,2.8,0,0,0,2.73-1.617H73.5A5.212,5.212,0,0,1,71.6-.83,5.576,5.576,0,0,1,68.187.189a5.91,5.91,0,0,1-2.971-.746,5.3,5.3,0,0,1-2.058-2.1,6.406,6.406,0,0,1-.745-3.14,6.557,6.557,0,0,1,.724-3.14,5.1,5.1,0,0,1,2.037-2.089,6.062,6.062,0,0,1,3.013-.735,5.893,5.893,0,0,1,2.919.714,5.045,5.045,0,0,1,2,2.006A6.04,6.04,0,0,1,73.815-6.069Zm-2.5-.756a2.724,2.724,0,0,0-.945-2.121,3.379,3.379,0,0,0-2.289-.8,3.075,3.075,0,0,0-2.121.787,3.291,3.291,0,0,0-1.05,2.132ZM78.96-9.618v6.405a1.229,1.229,0,0,0,.3.934A1.514,1.514,0,0,0,80.3-2h1.47V0h-1.89a3.643,3.643,0,0,1-2.478-.756,3.116,3.116,0,0,1-.861-2.457V-9.618H75.18v-1.953h1.365v-2.877H78.96v2.877h2.814v1.953Zm20.685-.63a4.407,4.407,0,0,1-.525,2.1,3.935,3.935,0,0,1-1.68,1.607,6.236,6.236,0,0,1-2.961.62H91.833V0H89.439V-14.6h5.04a6.363,6.363,0,0,1,2.846.578,4.015,4.015,0,0,1,1.743,1.564A4.285,4.285,0,0,1,99.645-10.248ZM94.479-7.875a2.919,2.919,0,0,0,2.037-.62,2.266,2.266,0,0,0,.672-1.753q0-2.394-2.709-2.394H91.833v4.767Zm9.849-2.016a3.76,3.76,0,0,1,1.4-1.375,4.131,4.131,0,0,1,2.068-.494v2.478h-.609a2.916,2.916,0,0,0-2.132.714,3.414,3.414,0,0,0-.724,2.478V0h-2.394V-11.571h2.394ZM115.017.189a5.926,5.926,0,0,1-2.961-.746,5.355,5.355,0,0,1-2.079-2.1,6.334,6.334,0,0,1-.756-3.14A6.213,6.213,0,0,1,110-8.925a5.367,5.367,0,0,1,2.121-2.1,6.155,6.155,0,0,1,3-.735,6.155,6.155,0,0,1,3,.735,5.367,5.367,0,0,1,2.121,2.1,6.213,6.213,0,0,1,.777,3.129,6.084,6.084,0,0,1-.8,3.129,5.526,5.526,0,0,1-2.174,2.111A6.265,6.265,0,0,1,115.017.189Zm0-2.079a3.562,3.562,0,0,0,1.732-.441,3.36,3.36,0,0,0,1.313-1.323,4.254,4.254,0,0,0,.5-2.142,4.342,4.342,0,0,0-.483-2.131A3.261,3.261,0,0,0,116.8-9.24a3.5,3.5,0,0,0-1.722-.441,3.445,3.445,0,0,0-1.711.441,3.148,3.148,0,0,0-1.25,1.313,4.5,4.5,0,0,0-.462,2.131,4.06,4.06,0,0,0,.955,2.887A3.157,3.157,0,0,0,115.017-1.89Zm12.852-.252,3.276-9.429h2.541L129.276,0H126.42l-4.389-11.571h2.562ZM136.71-13.1a1.483,1.483,0,0,1-1.092-.441,1.483,1.483,0,0,1-.441-1.092,1.483,1.483,0,0,1,.441-1.092,1.483,1.483,0,0,1,1.092-.441,1.458,1.458,0,0,1,1.071.441,1.483,1.483,0,0,1,.441,1.092,1.483,1.483,0,0,1-.441,1.092A1.458,1.458,0,0,1,136.71-13.1Zm1.176,1.533V0h-2.394V-11.571Zm2.352,5.733a6.4,6.4,0,0,1,.725-3.087,5.31,5.31,0,0,1,1.974-2.09,5.327,5.327,0,0,1,2.783-.745,5.427,5.427,0,0,1,2.237.494,4.576,4.576,0,0,1,1.753,1.312V-15.54h2.415V0h-2.415V-1.743a4.482,4.482,0,0,1-1.628,1.386A5.05,5.05,0,0,1,145.7.189a5.178,5.178,0,0,1-2.762-.766,5.41,5.41,0,0,1-1.974-2.142A6.589,6.589,0,0,1,140.238-5.838Zm9.471.042a4.19,4.19,0,0,0-.493-2.079,3.464,3.464,0,0,0-1.292-1.344,3.379,3.379,0,0,0-1.722-.462,3.439,3.439,0,0,0-1.722.451,3.4,3.4,0,0,0-1.292,1.323,4.131,4.131,0,0,0-.493,2.069,4.31,4.31,0,0,0,.493,2.1,3.482,3.482,0,0,0,1.3,1.376,3.339,3.339,0,0,0,1.712.472,3.379,3.379,0,0,0,1.722-.462,3.447,3.447,0,0,0,1.292-1.354A4.25,4.25,0,0,0,149.709-5.8Zm16.17-.273a7.485,7.485,0,0,1-.084,1.176h-8.841a3.211,3.211,0,0,0,1.029,2.226,3.248,3.248,0,0,0,2.268.84,2.8,2.8,0,0,0,2.73-1.617h2.583a5.212,5.212,0,0,1-1.9,2.614A5.576,5.576,0,0,1,160.251.189a5.909,5.909,0,0,1-2.971-.746,5.3,5.3,0,0,1-2.058-2.1,6.406,6.406,0,0,1-.746-3.14,6.557,6.557,0,0,1,.725-3.14,5.1,5.1,0,0,1,2.037-2.089,6.062,6.062,0,0,1,3.014-.735,5.893,5.893,0,0,1,2.919.714,5.045,5.045,0,0,1,2,2.006A6.04,6.04,0,0,1,165.879-6.069Zm-2.5-.756a2.724,2.724,0,0,0-.945-2.121,3.379,3.379,0,0,0-2.289-.8,3.075,3.075,0,0,0-2.121.787,3.291,3.291,0,0,0-1.05,2.132Zm7.245-3.066a3.76,3.76,0,0,1,1.4-1.375,4.131,4.131,0,0,1,2.069-.494v2.478h-.609a2.916,2.916,0,0,0-2.132.714,3.414,3.414,0,0,0-.725,2.478V0h-2.394V-11.571h2.394ZM189.567-7.5a3.227,3.227,0,0,1,2,1.239,3.644,3.644,0,0,1,.819,2.331,3.612,3.612,0,0,1-.577,2.006,3.914,3.914,0,0,1-1.67,1.407A5.9,5.9,0,0,1,187.593,0h-5.838V-14.6h5.565a5.973,5.973,0,0,1,2.562.5,3.76,3.76,0,0,1,1.617,1.354,3.444,3.444,0,0,1,.546,1.9,3.255,3.255,0,0,1-.672,2.1A3.912,3.912,0,0,1,189.567-7.5Zm-5.418-.966h2.961A2.844,2.844,0,0,0,188.947-9a1.871,1.871,0,0,0,.661-1.543,1.908,1.908,0,0,0-.661-1.544,2.77,2.77,0,0,0-1.838-.556h-2.961Zm3.234,6.51a2.862,2.862,0,0,0,1.911-.588,2.032,2.032,0,0,0,.693-1.638,2.125,2.125,0,0,0-.735-1.7,2.9,2.9,0,0,0-1.953-.63h-3.15v4.557ZM196.2-13.1a1.483,1.483,0,0,1-1.092-.441,1.483,1.483,0,0,1-.441-1.092,1.483,1.483,0,0,1,.441-1.092,1.483,1.483,0,0,1,1.092-.441,1.458,1.458,0,0,1,1.071.441,1.483,1.483,0,0,1,.441,1.092,1.483,1.483,0,0,1-.441,1.092A1.458,1.458,0,0,1,196.2-13.1Zm1.176,1.533V0h-2.394V-11.571Zm5.544-3.969V0h-2.394V-15.54Zm5.544,0V0h-2.394V-15.54Z" transform="translate(2699.57 817.111)"/>
      <path id="_-_350" data-name="-$350" d="M-144.627-8.61v2.016h-8.631V-8.61Zm5.8,6.678h4.935V0h-7.329V-14.6h2.394ZM-124.089-7.5a3.227,3.227,0,0,1,2,1.239,3.644,3.644,0,0,1,.819,2.331,3.612,3.612,0,0,1-.577,2.006,3.914,3.914,0,0,1-1.669,1.407A5.9,5.9,0,0,1-126.063,0H-131.9V-14.6h5.565a5.973,5.973,0,0,1,2.562.5,3.76,3.76,0,0,1,1.617,1.354,3.444,3.444,0,0,1,.546,1.9,3.255,3.255,0,0,1-.672,2.1A3.912,3.912,0,0,1-124.089-7.5Zm-5.418-.966h2.961A2.844,2.844,0,0,0-124.708-9a1.871,1.871,0,0,0,.661-1.543,1.908,1.908,0,0,0-.661-1.544,2.77,2.77,0,0,0-1.838-.556h-2.961Zm3.234,6.51a2.862,2.862,0,0,0,1.911-.588,2.032,2.032,0,0,0,.693-1.638,2.125,2.125,0,0,0-.735-1.7,2.9,2.9,0,0,0-1.953-.63h-3.15v4.557Zm17.808-8.3a4.407,4.407,0,0,1-.525,2.1,3.935,3.935,0,0,1-1.68,1.607,6.236,6.236,0,0,1-2.961.62h-2.646V0h-2.394V-14.6h5.04a6.363,6.363,0,0,1,2.846.578,4.015,4.015,0,0,1,1.743,1.564A4.285,4.285,0,0,1-108.465-10.248Zm-5.166,2.373a2.919,2.919,0,0,0,2.037-.62,2.266,2.266,0,0,0,.672-1.753q0-2.394-2.709-2.394h-2.646v4.767Zm13.923,4.62Q-97.692-5-96.526-6.122a12.913,12.913,0,0,0,1.942-2.342,4.5,4.5,0,0,0,.777-2.436,2.981,2.981,0,0,0-.6-1.974,2.317,2.317,0,0,0-1.879-.714,2.406,2.406,0,0,0-1.922.788,3.277,3.277,0,0,0-.725,2.11h-2.31A4.929,4.929,0,0,1-99.8-14.353a4.952,4.952,0,0,1,3.5-1.271,4.91,4.91,0,0,1,3.58,1.26A4.48,4.48,0,0,1-91.434-11,5.965,5.965,0,0,1-92.2-8.1a11.712,11.712,0,0,1-1.827,2.5q-1.06,1.1-2.7,2.552l-.945.84h6.657V-.21H-101.22V-1.953Zm13.734.378-2.541,5.8h-1.554l1.491-5.8Zm11.655-10.374h-7.035v4.179a3.326,3.326,0,0,1,1.313-.987,4.412,4.412,0,0,1,1.858-.4,4.97,4.97,0,0,1,2.867.756,4.235,4.235,0,0,1,1.575,1.911,6.372,6.372,0,0,1,.472,2.436,6.138,6.138,0,0,1-.6,2.762,4.451,4.451,0,0,1-1.785,1.9A5.68,5.68,0,0,1-78.561,0a5.623,5.623,0,0,1-3.675-1.134,4.591,4.591,0,0,1-1.659-3h2.331a2.6,2.6,0,0,0,1.029,1.565A3.314,3.314,0,0,0-78.54-2,2.732,2.732,0,0,0-76.3-2.9a3.641,3.641,0,0,0,.745-2.394,3.273,3.273,0,0,0-.756-2.32,2.9,2.9,0,0,0-2.226-.808,2.855,2.855,0,0,0-1.732.514,2.881,2.881,0,0,0-1.019,1.4h-2.268v-8.841h9.24Zm3.549,5.4a11.057,11.057,0,0,1,1.229-5.681,4.53,4.53,0,0,1,4.231-2.047,4.53,4.53,0,0,1,4.231,2.047A11.057,11.057,0,0,1-59.85-7.854a11.276,11.276,0,0,1-1.229,5.743A4.516,4.516,0,0,1-65.31-.042a4.516,4.516,0,0,1-4.231-2.069A11.276,11.276,0,0,1-70.77-7.854Zm8.568,0a15.922,15.922,0,0,0-.221-2.877,3.864,3.864,0,0,0-.892-1.922A2.549,2.549,0,0,0-65.31-13.4a2.549,2.549,0,0,0-2,.746,3.864,3.864,0,0,0-.893,1.922,15.923,15.923,0,0,0-.22,2.877,17.532,17.532,0,0,0,.21,2.961,3.705,3.705,0,0,0,.893,1.932,2.6,2.6,0,0,0,2.006.735A2.6,2.6,0,0,0-63.3-2.961a3.705,3.705,0,0,0,.892-1.932A17.532,17.532,0,0,0-62.2-7.854Zm4.893,0a11.057,11.057,0,0,1,1.229-5.681,4.53,4.53,0,0,1,4.232-2.047,4.53,4.53,0,0,1,4.231,2.047,11.057,11.057,0,0,1,1.229,5.681,11.276,11.276,0,0,1-1.229,5.743A4.516,4.516,0,0,1-51.849-.042,4.516,4.516,0,0,1-56.08-2.111,11.276,11.276,0,0,1-57.309-7.854Zm8.568,0a15.922,15.922,0,0,0-.221-2.877,3.864,3.864,0,0,0-.892-1.922,2.549,2.549,0,0,0-1.995-.746,2.549,2.549,0,0,0-2,.746,3.864,3.864,0,0,0-.892,1.922,15.922,15.922,0,0,0-.221,2.877,17.532,17.532,0,0,0,.21,2.961,3.705,3.705,0,0,0,.893,1.932,2.6,2.6,0,0,0,2.006.735,2.6,2.6,0,0,0,2.006-.735,3.705,3.705,0,0,0,.892-1.932A17.532,17.532,0,0,0-48.741-7.854Zm7.833,4.977-2.541,5.8H-45l1.491-5.8Zm1.785-4.977a11.057,11.057,0,0,1,1.229-5.681,4.53,4.53,0,0,1,4.232-2.047,4.53,4.53,0,0,1,4.231,2.047A11.057,11.057,0,0,1-28.2-7.854a11.276,11.276,0,0,1-1.229,5.743A4.516,4.516,0,0,1-33.663-.042a4.516,4.516,0,0,1-4.232-2.069A11.276,11.276,0,0,1-39.123-7.854Zm8.568,0a15.922,15.922,0,0,0-.22-2.877,3.864,3.864,0,0,0-.892-1.922,2.549,2.549,0,0,0-1.995-.746,2.549,2.549,0,0,0-2,.746,3.864,3.864,0,0,0-.892,1.922,15.922,15.922,0,0,0-.221,2.877,17.532,17.532,0,0,0,.21,2.961,3.705,3.705,0,0,0,.893,1.932,2.6,2.6,0,0,0,2.006.735,2.6,2.6,0,0,0,2.005-.735,3.705,3.705,0,0,0,.892-1.932A17.532,17.532,0,0,0-30.555-7.854Zm4.893,0a11.057,11.057,0,0,1,1.229-5.681A4.53,4.53,0,0,1-20.2-15.582a4.53,4.53,0,0,1,4.232,2.047,11.057,11.057,0,0,1,1.228,5.681A11.276,11.276,0,0,1-15.97-2.111,4.516,4.516,0,0,1-20.2-.042a4.516,4.516,0,0,1-4.231-2.069A11.276,11.276,0,0,1-25.662-7.854Zm8.568,0a15.922,15.922,0,0,0-.22-2.877,3.864,3.864,0,0,0-.892-1.922,2.549,2.549,0,0,0-2-.746,2.549,2.549,0,0,0-1.995.746,3.864,3.864,0,0,0-.892,1.922,15.922,15.922,0,0,0-.221,2.877,17.532,17.532,0,0,0,.21,2.961,3.705,3.705,0,0,0,.892,1.932,2.6,2.6,0,0,0,2.005.735A2.6,2.6,0,0,0-18.2-2.961,3.705,3.705,0,0,0-17.3-4.893,17.532,17.532,0,0,0-17.094-7.854Zm4.893,0a11.057,11.057,0,0,1,1.229-5.681,4.53,4.53,0,0,1,4.231-2.047,4.53,4.53,0,0,1,4.232,2.047A11.057,11.057,0,0,1-1.281-7.854,11.276,11.276,0,0,1-2.509-2.111,4.516,4.516,0,0,1-6.741-.042a4.516,4.516,0,0,1-4.231-2.069A11.276,11.276,0,0,1-12.2-7.854Zm8.568,0a15.922,15.922,0,0,0-.22-2.877,3.864,3.864,0,0,0-.892-1.922,2.549,2.549,0,0,0-2-.746,2.549,2.549,0,0,0-1.995.746,3.864,3.864,0,0,0-.892,1.922,15.922,15.922,0,0,0-.22,2.877,17.532,17.532,0,0,0,.21,2.961,3.705,3.705,0,0,0,.892,1.932,2.6,2.6,0,0,0,2.005.735,2.6,2.6,0,0,0,2.006-.735,3.705,3.705,0,0,0,.892-1.932A17.532,17.532,0,0,0-3.633-7.854Z" transform="translate(3038.131 851.02)"/>
      <g id="Group_6483" data-name="Group 6483">
        <circle id="Ellipse_180" data-name="Ellipse 180" cx="37.735" cy="37.735" r="37.735" transform="translate(2604.336 790.672)" fill="#216d96"/>
        <g id="Group_3" data-name="Group 3" transform="translate(2619.396 813.293)">
          <g id="Group_6482" data-name="Group 6482" transform="translate(0 0)" clip-path="url(#clip-path-3)">
            <path id="Path_11527" data-name="Path 11527" d="M22.207,0c9.972.325,17.436,4.326,22.7,12.306a2.359,2.359,0,0,1-.55,3.31,2.309,2.309,0,0,1-3.325-.631A24.448,24.448,0,0,0,36.848,10.1,20.994,20.994,0,0,0,20.4,4.945,20.925,20.925,0,0,0,4.64,14.584,2.6,2.6,0,0,1,2.2,16.046,2.323,2.323,0,0,1,.422,12.4,33.459,33.459,0,0,1,3.6,8.287,25.263,25.263,0,0,1,17.665.553C19.306.241,20.988.143,22.207,0" transform="translate(0 0)" fill="#fff"/>
            <path id="Path_11528" data-name="Path 11528" d="M21.06,8.192a15.123,15.123,0,0,1,12.431,7.145,2.358,2.358,0,0,1-3.433,3.2,6.67,6.67,0,0,1-.85-1.056,10.721,10.721,0,0,0-17.529.026c-.161.225-.32.451-.49.668a2.357,2.357,0,0,1-3.894-2.651,14.562,14.562,0,0,1,3.244-3.74A15.8,15.8,0,0,1,21.06,8.192" transform="translate(2.233 2.639)" fill="#fff"/>
            <path id="Path_11529" data-name="Path 11529" d="M18.126,16.992a3.88,3.88,0,1,1-3.919,3.847,3.9,3.9,0,0,1,3.919-3.847" transform="translate(4.576 5.473)" fill="#fff"/>
          </g>
        </g>
      </g>
    </g>
  </g>
</svg>
