<svg xmlns="http://www.w3.org/2000/svg" xmlns:xlink="http://www.w3.org/1999/xlink" width="153.59" height="44.979" viewBox="0 0 153.59 44.979"><defs><style>.a{fill:#fff;}.b{fill:url(#a);}.c{fill:url(#b);}.d{fill:url(#c);}.e{fill:url(#d);}</style><linearGradient id="a" x1="1.549" y1="-7.429" x2="-0.094" y2="-6.631" gradientUnits="objectBoundingBox"><stop offset="0" stop-color="#00a0ff"/><stop offset="0" stop-color="#00a1ff"/><stop offset="0" stop-color="#00beff"/><stop offset="1" stop-color="#00d2ff"/><stop offset="1" stop-color="#00dfff"/><stop offset="1" stop-color="#00e3ff"/></linearGradient><linearGradient id="b" x1="2.174" y1="-21.125" x2="-0.777" y2="-21.125" gradientUnits="objectBoundingBox"><stop offset="0" stop-color="#ffe000"/><stop offset="0" stop-color="#ffbd00"/><stop offset="1" stop-color="orange"/><stop offset="1" stop-color="#ff9c00"/></linearGradient><linearGradient id="c" x1="1.397" y1="-14.188" x2="-0.326" y2="-11.953" gradientUnits="objectBoundingBox"><stop offset="0" stop-color="#ff3a44"/><stop offset="1" stop-color="#c31162"/></linearGradient><linearGradient id="d" x1="0.049" y1="-15.332" x2="0.798" y2="-14.36" gradientUnits="objectBoundingBox"><stop offset="0" stop-color="#32a071"/><stop offset="0" stop-color="#2da771"/><stop offset="0" stop-color="#15cf74"/><stop offset="1" stop-color="#06e775"/><stop offset="1" stop-color="#00f076"/></linearGradient></defs><path d="M147.925,45.442H5.711A5.674,5.674,0,0,1,.024,39.82V6.086A5.673,5.673,0,0,1,5.713.464H147.925a5.674,5.674,0,0,1,5.689,5.622V39.821a5.675,5.675,0,0,1-5.689,5.623Z" transform="translate(-0.024 -0.464)"/><path class="a" d="M48.418,10.508a3.048,3.048,0,0,1-.844,2.252,3.345,3.345,0,0,1-2.512,1,3.477,3.477,0,0,1-2.511-1.01,3.39,3.39,0,0,1-1.033-2.514,3.369,3.369,0,0,1,1.033-2.509,3.454,3.454,0,0,1,2.511-1.016,3.622,3.622,0,0,1,1.4.285,2.782,2.782,0,0,1,1.067.752l-.595.592a2.328,2.328,0,0,0-1.873-.794A2.618,2.618,0,0,0,43.2,8.29a2.571,2.571,0,0,0-.783,1.944,2.585,2.585,0,0,0,.783,1.949,2.647,2.647,0,0,0,1.866.747,2.61,2.61,0,0,0,1.906-.752,2.1,2.1,0,0,0,.571-1.368H45.062V10h3.305A2.277,2.277,0,0,1,48.418,10.508Zm5.244-2.817H50.556V9.828h2.8v.812h-2.8v2.137h3.105v.829H49.679V6.863h3.984v.829Zm3.7,5.913h-.878V7.691h-1.9V6.862h4.687v.829h-1.9Zm5.3,0V6.862h.877V13.6Zm4.767,0h-.873V7.691H64.644V6.862h4.7v.829H67.428Zm10.788-.867a3.578,3.578,0,0,1-5.006,0,3.429,3.429,0,0,1-1.006-2.5,3.428,3.428,0,0,1,1.006-2.5,3.564,3.564,0,0,1,5,.006,3.415,3.415,0,0,1,1.01,2.5,3.427,3.427,0,0,1-1,2.5Zm-4.356-.565a2.643,2.643,0,0,0,3.706,0,2.626,2.626,0,0,0,.76-1.937,2.626,2.626,0,0,0-.76-1.939,2.643,2.643,0,0,0-3.706,0,2.626,2.626,0,0,0-.76,1.939A2.626,2.626,0,0,0,73.86,12.172ZM80.454,13.6V6.862h1.067l3.316,5.244h.037l-.037-1.3V6.863h.877v6.742H84.8L81.326,8.1h-.039l.039,1.3v4.2h-.872ZM71.988,24.08a4.783,4.783,0,1,0,4.861,4.784A4.744,4.744,0,0,0,71.988,24.08Zm0,7.682a2.9,2.9,0,1,1,2.733-2.9A2.778,2.778,0,0,1,71.988,31.762ZM61.394,24.08a4.783,4.783,0,1,0,4.855,4.784A4.739,4.739,0,0,0,61.394,24.08Zm0,7.682a2.9,2.9,0,1,1,2.729-2.9A2.782,2.782,0,0,1,61.394,31.762ZM48.789,25.546v2.032H53.7a4.194,4.194,0,0,1-1.116,2.554,5.077,5.077,0,0,1-3.794,1.482,5.4,5.4,0,1,1,0-10.795,5.238,5.238,0,0,1,3.7,1.449l1.449-1.432a7.21,7.21,0,0,0-5.149-2.048,7.578,7.578,0,0,0-7.627,7.428,7.578,7.578,0,0,0,7.627,7.428,6.911,6.911,0,0,0,5.244-2.086A7.231,7.231,0,0,0,55.7,25.546H48.788Zm51.547,1.575a4.484,4.484,0,0,0-4.144-3.042,4.57,4.57,0,0,0-4.562,4.784,4.706,4.706,0,0,0,4.8,4.782,4.81,4.81,0,0,0,4.034-2.12l-1.65-1.086a2.775,2.775,0,0,1-2.383,1.322,2.465,2.465,0,0,1-2.344-1.448l6.472-2.647-.222-.545Zm-6.6,1.592a2.639,2.639,0,0,1,2.526-2.789,1.884,1.884,0,0,1,1.8,1.016l-4.328,1.773Zm-5.261,4.64H90.6V19.3H88.476V33.354Zm-3.484-8.208h-.07a3.372,3.372,0,0,0-2.545-1.066,4.785,4.785,0,0,0,0,9.566,3.324,3.324,0,0,0,2.545-1.087h.07v.687c0,1.828-.987,2.811-2.582,2.811a2.688,2.688,0,0,1-2.44-1.708l-1.85.763a4.618,4.618,0,0,0,4.29,2.828c2.495,0,4.6-1.451,4.6-4.98V24.372H84.992v.774Zm-2.433,6.617a2.908,2.908,0,0,1,0-5.8,2.708,2.708,0,0,1,2.584,2.917A2.688,2.688,0,0,1,82.558,31.763ZM110.3,19.3h-5.089V33.353h2.122V28.027H110.3a4.375,4.375,0,1,0,0-8.73Zm.056,6.776h-3.022v-4.82h3.022a2.411,2.411,0,1,1,0,4.819Zm13.116-2.02a3.99,3.99,0,0,0-3.783,2.152l1.883.78a2.015,2.015,0,0,1,1.939-1.033,2.038,2.038,0,0,1,2.234,1.808v.148a4.689,4.689,0,0,0-2.217-.545c-2.028,0-4.1,1.1-4.1,3.163a3.27,3.27,0,0,0,3.53,3.1,3.01,3.01,0,0,0,2.709-1.378h.073v1.087h2.05V27.94c0-2.494-1.884-3.887-4.322-3.887Zm-.257,7.7c-.693,0-1.66-.34-1.66-1.191,0-1.087,1.205-1.5,2.25-1.5a3.854,3.854,0,0,1,1.941.472,2.567,2.567,0,0,1-2.53,2.225Zm12.044-7.394-2.439,6.094h-.073l-2.521-6.094h-2.288l3.787,8.515-2.161,4.739h2.215l5.838-13.253h-2.361Zm-19.127,8.992h2.128V19.3h-2.128V33.354Z" transform="translate(5.529 0.379)"/><path class="b" d="M20.547-42.058a2.222,2.222,0,0,0-.528,1.581v24.867a2.222,2.222,0,0,0,.528,1.581l.082.076,14.1-13.929v-.329l-14.1-13.929Z" transform="translate(-8.675 50.535)"/><path class="c" d="M37.673-24.34l-4.694-4.645v-.329l4.7-4.645.105.06,5.566,3.13c1.589.888,1.589,2.35,0,3.244L37.784-24.4l-.111.06Z" transform="translate(-6.925 51.639)"/><path class="d" d="M39.471-24.972l-4.805-4.749L20.484-15.7a1.87,1.87,0,0,0,2.366.066l16.62-9.334" transform="translate(-8.612 52.211)"/><path class="e" d="M39.471-32.752,22.85-42.086a1.876,1.876,0,0,0-2.366.072L34.665-28Z" transform="translate(-8.612 50.491)"/></svg>