<svg xmlns="http://www.w3.org/2000/svg" width="36.837" height="36.837" viewBox="0 0 36.837 36.837">
  <g id="Group_39642" data-name="Group 39642" transform="translate(-362.602 -9058.163)">
    <path id="Path_42965" data-name="Path 42965" d="M150.418,0a18.418,18.418,0,1,0,18.418,18.418A18.419,18.419,0,0,0,150.418,0m9.845,26.573h-3.73V20.734c0-1.394-.028-3.185-1.942-3.185-1.943,0-2.239,1.516-2.239,3.084v5.94h-3.73V14.564H152.2v1.642h.048a3.926,3.926,0,0,1,3.535-1.94c3.78,0,4.477,2.486,4.477,5.72ZM144.412,8.6a2.164,2.164,0,1,1-2.169,2.163A2.164,2.164,0,0,1,144.412,8.6m1.868,17.976h-3.739V14.564h3.739Z" transform="translate(230.602 9058.163)" fill="#fff"/>
    <path id="Path_42966" data-name="Path 42966" d="M140.843,5.6a2.164,2.164,0,1,0,2.163,2.163A2.166,2.166,0,0,0,140.843,5.6m-1.871,17.976h3.739V11.569h-3.739Z" transform="translate(234.172 9061.159)" fill="#397fa6"/>
    <path id="Path_42967" data-name="Path 42967" d="M154.47,15.015V21.6h-3.73V15.763c0-1.394-.028-3.185-1.942-3.185-1.942,0-2.238,1.516-2.238,3.084V21.6H142.83V9.593h3.581v1.642h.048a3.927,3.927,0,0,1,3.536-1.94c3.779,0,4.476,2.486,4.476,5.72" transform="translate(236.395 9063.135)" fill="#216d96"/>
  </g>
</svg>
