<?xml version="1.0" encoding="utf-8"?>
<!-- Generator: Adobe Illustrator 23.0.3, SVG Export Plug-In . SVG Version: 6.00 Build 0)  -->
<svg version="1.1" id="Layer_1" xmlns="http://www.w3.org/2000/svg" xmlns:xlink="http://www.w3.org/1999/xlink" x="0px" y="0px"
	 viewBox="0 0 50 50" style="enable-background:new 0 0 50 50;" xml:space="preserve">
<style type="text/css">
	.st0{fill:#D22026;}
	.st1{fill:#FFFFFF;}
	.st2{opacity:0.5;fill:url(#XMLID_2_);}
	.st3{opacity:0.3;fill:url(#XMLID_3_);}
	.st4{opacity:0.3;fill:url(#XMLID_5_);}
	.st5{opacity:0.5;fill:url(#XMLID_6_);}
	.st6{opacity:0.3;fill:url(#XMLID_7_);}
	.st7{opacity:0.3;fill:url(#XMLID_8_);}
	.st8{opacity:0.5;fill:url(#XMLID_9_);}
</style>
<g>
	<path class="st0" d="M10.97,49.85h28.06c5.98,0,10.82-4.85,10.82-10.82V10.97c0-5.98-4.85-10.82-10.82-10.82H10.97
		c-5.98,0-10.82,4.85-10.82,10.82v28.06C0.15,45.01,4.99,49.85,10.97,49.85z"/>
	<g>
		<path id="XMLID_113_" class="st1" d="M23.13,33.33v9.74h-5.81V7.1h5.76v18.68L23.13,33.33z"/>
		<path id="XMLID_111_" class="st1" d="M31.26,33.33v9.74h-5.81V7.1h5.76v18.68L31.26,33.33z"/>
		<g id="XMLID_4_">
			<g id="XMLID_23_">
				<path id="XMLID_110_" class="st1" d="M10.94,22.16l0.08-0.05v0c-1.07,0.56-1.79,1.68-1.79,2.96c0,1.41,0.88,2.62,2.12,3.11
					l-0.38-0.18l13.73,8.27l6.42,3.97l4.88,2.92l5.56-3.42l-24.07-14.6l2.59-1.67l6.42-3.97l14.99-9.18l-5.44-3.35L11.75,21.67"/>
			</g>
		</g>
		<g id="XMLID_21_">
			
				<linearGradient id="XMLID_2_" gradientUnits="userSpaceOnUse" x1="-444.6503" y1="842.5176" x2="-445.8862" y2="839.1218" gradientTransform="matrix(0.5176 0.8556 0.8556 -0.5176 -456.699 828.8417)">
				<stop  offset="0" style="stop-color:#FFFFFF;stop-opacity:0"/>
				<stop  offset="1" style="stop-color:#231F20"/>
			</linearGradient>
			<path id="XMLID_102_" class="st2" d="M33.91,14.98c0,0,0.42-3.67-0.8-6.24l-1.9,1.15l0,6.74L33.91,14.98z"/>
			
				<linearGradient id="XMLID_3_" gradientUnits="userSpaceOnUse" x1="-489.8637" y1="805.4635" x2="-491.088" y2="802.0998" gradientTransform="matrix(0.5176 0.8556 0.8556 -0.5176 -409.4579 868.3333)">
				<stop  offset="0" style="stop-color:#FFFFFF;stop-opacity:0"/>
				<stop  offset="1" style="stop-color:#231F20"/>
			</linearGradient>
			<path id="XMLID_101_" class="st3" d="M25.48,36.76c0,0,1.34-4.12,0.12-6.68l-2.46-1.5v6.77L25.48,36.76z"/>
			
				<linearGradient id="XMLID_5_" gradientUnits="userSpaceOnUse" x1="289.4867" y1="2088.8296" x2="291.0988" y2="2083.5002" gradientTransform="matrix(-0.5176 0.8556 -0.8556 -0.5176 1952.0665 859.9552)">
				<stop  offset="0" style="stop-color:#FFFFFF;stop-opacity:0"/>
				<stop  offset="1" style="stop-color:#231F20"/>
			</linearGradient>
			<path id="XMLID_99_" class="st4" d="M14.64,30.19c0,0-1-1.01,0.21-3.58l2.47-1.51l0,6.77L14.64,30.19z"/>
			
				<linearGradient id="XMLID_6_" gradientUnits="userSpaceOnUse" x1="2551.5901" y1="859.3773" x2="2550.354" y2="855.9816" gradientTransform="matrix(-0.5176 -0.8556 -0.8556 0.5176 2078.5942 1756.1498)">
				<stop  offset="0" style="stop-color:#FFFFFF;stop-opacity:0"/>
				<stop  offset="1" style="stop-color:#231F20"/>
			</linearGradient>
			<path id="XMLID_98_" class="st5" d="M22.77,15.05c0,0-0.42,3.67,0.8,6.24l1.9-1.15l0-6.74L22.77,15.05z"/>
			
				<linearGradient id="XMLID_7_" gradientUnits="userSpaceOnUse" x1="1844.9265" y1="2115.5376" x2="1843.2487" y2="2112.9128" gradientTransform="matrix(0.4604 -0.8877 -0.8877 -0.4604 1047.9972 2625.2717)">
				<stop  offset="0" style="stop-color:#FFFFFF;stop-opacity:0"/>
				<stop  offset="1" style="stop-color:#231F20"/>
			</linearGradient>
			<path id="XMLID_96_" class="st6" d="M23.08,11.98c0,0-4.2,1.02-5.76,3.4v2.92l5.76-3.49V11.98z"/>
			
				<linearGradient id="XMLID_8_" gradientUnits="userSpaceOnUse" x1="282.9055" y1="-459.1805" x2="284.1539" y2="-465.8413" gradientTransform="matrix(0.9999 -0.0107 0.0107 0.9999 -257.9353 490.1528)">
				<stop  offset="0" style="stop-color:#FFFFFF;stop-opacity:0"/>
				<stop  offset="1" style="stop-color:#231F20"/>
			</linearGradient>
			<polyline id="XMLID_95_" class="st7" points="23.13,28.51 17.32,25.1 23.08,21.62 			"/>
			
				<linearGradient id="XMLID_9_" gradientUnits="userSpaceOnUse" x1="2538.8347" y1="637.6045" x2="2536.0959" y2="634.625" gradientTransform="matrix(-0.4604 -0.8877 0.8877 -0.4604 631.8254 2575.7393)">
				<stop  offset="0" style="stop-color:#FFFFFF;stop-opacity:0"/>
				<stop  offset="1" style="stop-color:#231F20"/>
			</linearGradient>
			<path id="XMLID_94_" class="st8" d="M25.45,27.23c0,0,4.23,0.83,5.79,3.2l0.02,3.08l-5.82-3.54L25.45,27.23z"/>
		</g>
	</g>
</g>
</svg>
