<svg id="Group_40049" data-name="Group 40049" xmlns="http://www.w3.org/2000/svg" xmlns:xlink="http://www.w3.org/1999/xlink" width="315.24" height="70.484" viewBox="0 0 315.24 70.484">
  <defs>
    <clipPath id="clip-path">
      <rect id="Rectangle_3" data-name="Rectangle 3" width="315.24" height="70.484" fill="none"/>
    </clipPath>
  </defs>
  <path id="Path_1" data-name="Path 1" d="M18.482,49.8H26.8l-1.4,6.561H17.079ZM30,34.669l-1.6,7.413H20.085l1.6-7.413H13.674l-1.6,7.413H3.2V49.8h7.263l-1.4,6.561H0V64.07H7.412L5.759,71.733h8.014l1.653-7.663h8.314l-1.653,7.663H30.1l1.652-7.663h7.663V56.356h-6.01l1.4-6.561h7.813V42.082H36.412l1.6-7.413Z" transform="translate(0 -11.516)" fill="#fff"/>
  <path id="Path_2" data-name="Path 2" d="M110.768,37.519V72.68H102.2V51.593L94.339,72.68H87.428L79.514,51.543V72.68H70.949V37.519H81.067l9.867,24.342L100.7,37.519Z" transform="translate(-23.568 -12.463)" fill="#fff"/>
  <g id="Group_2" data-name="Group 2" transform="translate(0 0)">
    <g id="Group_1" data-name="Group 1" clip-path="url(#clip-path)">
      <path id="Path_3" data-name="Path 3" d="M138.876,54.481a12.142,12.142,0,0,1,4.433-5.009,11.571,11.571,0,0,1,6.261-1.753,10.754,10.754,0,0,1,5.184,1.2,8.856,8.856,0,0,1,3.431,3.155V48.12h8.565V76.068h-8.565V72.111a9.255,9.255,0,0,1-3.481,3.155,10.755,10.755,0,0,1-5.184,1.2,11.357,11.357,0,0,1-6.21-1.778,12.272,12.272,0,0,1-4.433-5.058,16.862,16.862,0,0,1-1.627-7.588,16.708,16.708,0,0,1,1.627-7.563m17.53,2.554a6.02,6.02,0,0,0-8.665-.025,6.917,6.917,0,0,0-1.778,5.034,7.092,7.092,0,0,0,1.778,5.084,5.964,5.964,0,0,0,8.665.025,7,7,0,0,0,1.778-5.059,7.008,7.008,0,0,0-1.778-5.059" transform="translate(-45.592 -15.851)" fill="#fff"/>
      <rect id="Rectangle_2" data-name="Rectangle 2" width="31.053" height="8.214" transform="translate(128.52 62.27)" fill="#fff"/>
      <path id="Path_4" data-name="Path 4" d="M263.779,65.616v7.262h-4.357q-4.659,0-7.262-2.279t-2.605-7.437V52.043h-3.405V44.931h3.405V38.119h8.565v6.812h5.61v7.112h-5.61V63.262a2.344,2.344,0,0,0,.6,1.8,2.928,2.928,0,0,0,2,.551Z" transform="translate(-81.767 -12.663)" fill="#fff"/>
      <path id="Path_5" data-name="Path 5" d="M305.868,57.679A9.216,9.216,0,0,1,304.641,70.1q-3.079,2.58-8.589,2.58H279.673V37.52H295.5q5.359,0,8.39,2.454a8.12,8.12,0,0,1,3.031,6.662,8.049,8.049,0,0,1-1.627,5.159,8.42,8.42,0,0,1-4.333,2.854,8.188,8.188,0,0,1,4.908,3.031m-17.631-5.936h5.61a4.965,4.965,0,0,0,3.231-.926,3.328,3.328,0,0,0,1.127-2.729,3.4,3.4,0,0,0-1.127-2.755,4.881,4.881,0,0,0-3.231-.952h-5.61Zm9.642,13.048a3.467,3.467,0,0,0,1.177-2.83,3.625,3.625,0,0,0-1.227-2.9A5.033,5.033,0,0,0,294.448,58h-6.211v7.763h6.312a5.079,5.079,0,0,0,3.33-.976" transform="translate(-92.903 -12.464)" fill="#fff"/>
      <path id="Path_6" data-name="Path 6" d="M328.175,54.481a12.132,12.132,0,0,1,4.432-5.009,11.572,11.572,0,0,1,6.261-1.753,10.756,10.756,0,0,1,5.184,1.2,8.861,8.861,0,0,1,3.431,3.155V48.12h8.564V76.068h-8.564V72.111A9.25,9.25,0,0,1,344,75.266a10.752,10.752,0,0,1-5.184,1.2,11.357,11.357,0,0,1-6.211-1.778,12.262,12.262,0,0,1-4.432-5.058,16.853,16.853,0,0,1-1.627-7.588,16.7,16.7,0,0,1,1.627-7.563m17.53,2.554a6.02,6.02,0,0,0-8.666-.025,6.918,6.918,0,0,0-1.778,5.034,7.092,7.092,0,0,0,1.778,5.084,5.964,5.964,0,0,0,8.666.025,7.007,7.007,0,0,0,1.778-5.059,7.01,7.01,0,0,0-1.778-5.059" transform="translate(-108.474 -15.851)" fill="#fff"/>
      <path id="Path_7" data-name="Path 7" d="M404.889,51.049q2.93,3.181,2.93,8.74V76.118H399.3V60.942a6.136,6.136,0,0,0-1.452-4.358,5.692,5.692,0,0,0-7.814,0,6.133,6.133,0,0,0-1.452,4.358V76.118h-8.565V48.17h8.565v3.706a9.038,9.038,0,0,1,3.506-2.93,11.141,11.141,0,0,1,4.958-1.077,10.146,10.146,0,0,1,7.839,3.18" transform="translate(-126.237 -15.901)" fill="#fff"/>
      <path id="Path_8" data-name="Path 8" d="M447.65,71.733l-8.515-11.72v11.72h-8.564V34.669h8.564V55.154l8.465-11.37h10.568L446.549,57.809l11.72,13.924Z" transform="translate(-143.029 -11.516)" fill="#fff"/>
      <path id="Path_9" data-name="Path 9" d="M402.673,23.722c-4.617,1.839-9.308,3.453-13.849,4.916l-.075-.075.563-2.59c5.254-1.764,10.734-3.6,14.787-5.18l.075.113Z" transform="translate(-129.136 -6.907)" fill="#fff"/>
      <path id="Path_10" data-name="Path 10" d="M401,0a16.831,16.831,0,0,1,1.786,6.547,8.939,8.939,0,0,1-.248,2.777C401.892,11.308,400.95,12,399.71,12a4.543,4.543,0,0,1-3.075-.942h-.149c-1.488,1.834-3.025,2.827-4.414,2.827a3.023,3.023,0,0,1-2.628-1.488,7.917,7.917,0,0,1-.695-3.571,11.956,11.956,0,0,1,.4-3.224,18.665,18.665,0,0,1,1.785-1.19l.149.1a11.348,11.348,0,0,0-.4,2.777c0,1.538.546,2.53,1.587,2.53A2.167,2.167,0,0,0,394.5,7.489l-.149-3.422a9.637,9.637,0,0,1,1.538-1.29l.149.1c.1,2.579.793,4.216,1.835,4.712a3.069,3.069,0,0,0,1.637.546,1.73,1.73,0,0,0,1.19-.5,21.971,21.971,0,0,0-1.785-5.059c.644-.942,1.24-1.786,1.885-2.579Z" transform="translate(-129.136 0)" fill="#fff"/>
    </g>
  </g>
</svg>
