<svg xmlns="http://www.w3.org/2000/svg" xmlns:xlink="http://www.w3.org/1999/xlink" width="57" height="56" viewBox="0 0 57 56">
  <defs>
    <clipPath id="clip-path">
      <ellipse id="Ellipse_589" data-name="Ellipse 589" cx="28.5" cy="28" rx="28.5" ry="28" transform="translate(0 0.5)" fill="none"/>
    </clipPath>
    <clipPath id="clip-path-2">
      <rect id="Rectangle_21987" data-name="Rectangle 21987" width="57" height="56" transform="translate(0 0.5)" fill="none"/>
    </clipPath>
  </defs>
  <g id="Group_39991" data-name="Group 39991" transform="translate(0 -0.5)">
    <g id="Group_39980" data-name="Group 39980">
      <g id="Group_39979" data-name="Group 39979" clip-path="url(#clip-path)">
        <rect id="Rectangle_21919" data-name="Rectangle 21919" width="0.522" height="56.5" fill="#00f1ff"/>
        <rect id="Rectangle_21920" data-name="Rectangle 21920" width="0.522" height="56.5" transform="translate(0.522)" fill="#00f0ff"/>
        <rect id="Rectangle_21921" data-name="Rectangle 21921" width="0.522" height="56.5" transform="translate(1.044)" fill="#00efff"/>
        <rect id="Rectangle_21922" data-name="Rectangle 21922" width="0.522" height="56.5" transform="translate(1.566)" fill="#0ef"/>
        <rect id="Rectangle_21923" data-name="Rectangle 21923" width="0.522" height="56.5" transform="translate(2.088)" fill="#00edff"/>
        <rect id="Rectangle_21924" data-name="Rectangle 21924" width="0.522" height="56.5" transform="translate(2.61)" fill="#00ecff"/>
        <rect id="Rectangle_21925" data-name="Rectangle 21925" width="0.522" height="56.5" transform="translate(3.132)" fill="#00ebff"/>
        <rect id="Rectangle_21926" data-name="Rectangle 21926" width="0.522" height="56.5" transform="translate(3.654)" fill="#00eaff"/>
        <rect id="Rectangle_21927" data-name="Rectangle 21927" width="0.522" height="56.5" transform="translate(4.176)" fill="#00e9ff"/>
        <rect id="Rectangle_21928" data-name="Rectangle 21928" width="0.522" height="56.5" transform="translate(4.699)" fill="#00e8ff"/>
        <rect id="Rectangle_21929" data-name="Rectangle 21929" width="0.522" height="56.5" transform="translate(5.221)" fill="#00e7ff"/>
        <rect id="Rectangle_21930" data-name="Rectangle 21930" width="0.522" height="56.5" transform="translate(5.743)" fill="#00e6ff"/>
        <rect id="Rectangle_21931" data-name="Rectangle 21931" width="0.522" height="56.5" transform="translate(6.265)" fill="#00e5ff"/>
        <rect id="Rectangle_21932" data-name="Rectangle 21932" width="0.522" height="56.5" transform="translate(6.787)" fill="#00e3ff"/>
        <rect id="Rectangle_21933" data-name="Rectangle 21933" width="0.522" height="56.5" transform="translate(7.309)" fill="#00e2ff"/>
        <rect id="Rectangle_21934" data-name="Rectangle 21934" width="0.522" height="56.5" transform="translate(7.831)" fill="#00e1ff"/>
        <rect id="Rectangle_21935" data-name="Rectangle 21935" width="0.522" height="56.5" transform="translate(8.353)" fill="#00e0ff"/>
        <rect id="Rectangle_21936" data-name="Rectangle 21936" width="0.522" height="56.5" transform="translate(8.875)" fill="#00dfff"/>
        <rect id="Rectangle_21937" data-name="Rectangle 21937" width="0.522" height="56.5" transform="translate(9.397)" fill="#00deff"/>
        <rect id="Rectangle_21938" data-name="Rectangle 21938" width="0.522" height="56.5" transform="translate(9.919)" fill="#0df"/>
        <rect id="Rectangle_21939" data-name="Rectangle 21939" width="0.522" height="56.5" transform="translate(10.441)" fill="#00dcff"/>
        <rect id="Rectangle_21940" data-name="Rectangle 21940" width="0.522" height="56.5" transform="translate(10.963)" fill="#00dbff"/>
        <rect id="Rectangle_21941" data-name="Rectangle 21941" width="0.522" height="56.5" transform="translate(11.485)" fill="#00daff"/>
        <rect id="Rectangle_21942" data-name="Rectangle 21942" width="0.522" height="56.5" transform="translate(12.007)" fill="#00d9ff"/>
        <rect id="Rectangle_21943" data-name="Rectangle 21943" width="0.522" height="56.5" transform="translate(12.529)" fill="#00d8ff"/>
        <rect id="Rectangle_21944" data-name="Rectangle 21944" width="0.666" height="56.5" transform="translate(13.052)" fill="#00d8ff"/>
        <rect id="Rectangle_21945" data-name="Rectangle 21945" width="0.666" height="56.5" transform="translate(13.717)" fill="#00d7ff"/>
        <rect id="Rectangle_21946" data-name="Rectangle 21946" width="0.666" height="56.5" transform="translate(14.383)" fill="#00d6ff"/>
        <rect id="Rectangle_21947" data-name="Rectangle 21947" width="0.666" height="56.5" transform="translate(15.049)" fill="#00d5ff"/>
        <rect id="Rectangle_21948" data-name="Rectangle 21948" width="0.666" height="56.5" transform="translate(15.715)" fill="#00d4ff"/>
        <rect id="Rectangle_21949" data-name="Rectangle 21949" width="0.666" height="56.5" transform="translate(16.38)" fill="#00d3ff"/>
        <rect id="Rectangle_21950" data-name="Rectangle 21950" width="0.666" height="56.5" transform="translate(17.046)" fill="#00d2ff"/>
        <rect id="Rectangle_21951" data-name="Rectangle 21951" width="0.666" height="56.5" transform="translate(17.712)" fill="#00d1ff"/>
        <rect id="Rectangle_21952" data-name="Rectangle 21952" width="0.666" height="56.5" transform="translate(18.378)" fill="#00d0ff"/>
        <rect id="Rectangle_21953" data-name="Rectangle 21953" width="0.666" height="56.5" transform="translate(19.043)" fill="#00cfff"/>
        <rect id="Rectangle_21954" data-name="Rectangle 21954" width="0.666" height="56.5" transform="translate(19.709)" fill="#00ceff"/>
        <rect id="Rectangle_21955" data-name="Rectangle 21955" width="0.666" height="56.5" transform="translate(20.375)" fill="#00cdff"/>
        <rect id="Rectangle_21956" data-name="Rectangle 21956" width="0.666" height="56.5" transform="translate(21.041)" fill="#00cbff"/>
        <rect id="Rectangle_21957" data-name="Rectangle 21957" width="0.666" height="56.5" transform="translate(21.706)" fill="#00caff"/>
        <rect id="Rectangle_21958" data-name="Rectangle 21958" width="0.666" height="56.5" transform="translate(22.372)" fill="#00c9ff"/>
        <rect id="Rectangle_21959" data-name="Rectangle 21959" width="0.666" height="56.5" transform="translate(23.038)" fill="#00c8ff"/>
        <rect id="Rectangle_21960" data-name="Rectangle 21960" width="0.666" height="56.5" transform="translate(23.704)" fill="#00c7ff"/>
        <rect id="Rectangle_21961" data-name="Rectangle 21961" width="0.666" height="56.5" transform="translate(24.369)" fill="#00c6ff"/>
        <rect id="Rectangle_21962" data-name="Rectangle 21962" width="0.666" height="56.5" transform="translate(25.035)" fill="#00c5ff"/>
        <rect id="Rectangle_21963" data-name="Rectangle 21963" width="0.666" height="56.5" transform="translate(25.701)" fill="#00c4ff"/>
        <rect id="Rectangle_21964" data-name="Rectangle 21964" width="0.666" height="56.5" transform="translate(26.367)" fill="#00c3ff"/>
        <rect id="Rectangle_21965" data-name="Rectangle 21965" width="0.666" height="56.5" transform="translate(27.032)" fill="#00c2ff"/>
        <rect id="Rectangle_21966" data-name="Rectangle 21966" width="0.666" height="56.5" transform="translate(27.698)" fill="#00c1ff"/>
        <rect id="Rectangle_21967" data-name="Rectangle 21967" width="0.666" height="56.5" transform="translate(28.364)" fill="#00c0ff"/>
        <rect id="Rectangle_21968" data-name="Rectangle 21968" width="1.063" height="56.5" transform="translate(29.03)" fill="#00c0ff"/>
        <rect id="Rectangle_21969" data-name="Rectangle 21969" width="1.063" height="56.5" transform="translate(30.093)" fill="#00bfff"/>
        <rect id="Rectangle_21970" data-name="Rectangle 21970" width="1.063" height="56.5" transform="translate(31.156)" fill="#00beff"/>
        <rect id="Rectangle_21971" data-name="Rectangle 21971" width="1.063" height="56.5" transform="translate(32.22)" fill="#00bdff"/>
        <rect id="Rectangle_21972" data-name="Rectangle 21972" width="1.063" height="56.5" transform="translate(33.283)" fill="#00bcff"/>
        <rect id="Rectangle_21973" data-name="Rectangle 21973" width="1.063" height="56.5" transform="translate(34.347)" fill="#0bf"/>
        <rect id="Rectangle_21974" data-name="Rectangle 21974" width="1.063" height="56.5" transform="translate(35.41)" fill="#00baff"/>
        <rect id="Rectangle_21975" data-name="Rectangle 21975" width="1.063" height="56.5" transform="translate(36.474)" fill="#00b8ff"/>
        <rect id="Rectangle_21976" data-name="Rectangle 21976" width="1.063" height="56.5" transform="translate(37.537)" fill="#00b7ff"/>
        <rect id="Rectangle_21977" data-name="Rectangle 21977" width="1.063" height="56.5" transform="translate(38.6)" fill="#00b6ff"/>
        <rect id="Rectangle_21978" data-name="Rectangle 21978" width="1.063" height="56.5" transform="translate(39.664)" fill="#00b5ff"/>
        <rect id="Rectangle_21979" data-name="Rectangle 21979" width="1.063" height="56.5" transform="translate(40.727)" fill="#00b4ff"/>
        <rect id="Rectangle_21980" data-name="Rectangle 21980" width="1.063" height="56.5" transform="translate(41.791)" fill="#00b3ff"/>
        <rect id="Rectangle_21981" data-name="Rectangle 21981" width="1.063" height="56.5" transform="translate(42.854)" fill="#00b2ff"/>
        <rect id="Rectangle_21982" data-name="Rectangle 21982" width="2.516" height="56.5" transform="translate(43.917)" fill="#00b2ff"/>
        <rect id="Rectangle_21983" data-name="Rectangle 21983" width="2.516" height="56.5" transform="translate(46.434)" fill="#00b1ff"/>
        <rect id="Rectangle_21984" data-name="Rectangle 21984" width="2.516" height="56.5" transform="translate(48.951)" fill="#00b0ff"/>
        <rect id="Rectangle_21985" data-name="Rectangle 21985" width="2.516" height="56.5" transform="translate(51.467)" fill="#00aeff"/>
        <rect id="Rectangle_21986" data-name="Rectangle 21986" width="2.516" height="56.5" transform="translate(53.984)" fill="#00adff"/>
        <path id="Path_43578" data-name="Path 43578" d="M512,56.5v0Z" transform="translate(-455.5)" fill="#00adff"/>
      </g>
    </g>
    <g id="Group_39982" data-name="Group 39982">
      <g id="Group_39981" data-name="Group 39981" clip-path="url(#clip-path-2)">
        <path id="Path_43579" data-name="Path 43579" d="M157.383,113.024a1.655,1.655,0,0,0,1.655-1.655V98.837a7.355,7.355,0,0,0-2.169-5.236l-4.143-4.143a7.359,7.359,0,0,0-5.236-2.169h-9.945a5.975,5.975,0,0,0-5.968,5.968v25.3a5.974,5.974,0,0,0,5.968,5.968h15.525a5.974,5.974,0,0,0,5.968-5.968,1.655,1.655,0,1,0-3.311,0,2.66,2.66,0,0,1-2.657,2.657H137.546a2.66,2.66,0,0,1-2.657-2.657v-25.3a2.66,2.66,0,0,1,2.657-2.657h9.945a4.069,4.069,0,0,1,2.9,1.2l4.142,4.142a4.068,4.068,0,0,1,1.2,2.9v12.532a1.655,1.655,0,0,0,1.655,1.655" transform="translate(-117.058 -77.657)" fill="#fff"/>
        <path id="Path_43580" data-name="Path 43580" d="M213.027,187.906l-2.632-1.284c-1.386-.644-1.386-1.065-1.386-1.474,0-.877.813-1.488,1.977-1.488a2.006,2.006,0,0,1,2.2,1.555l.073.534h3.067l-.121-.949c-.32-2.488-2.377-4.1-5.242-4.1-2.927,0-5.052,1.9-5.052,4.524,0,1.916,1.015,3.226,3.286,4.245l2.7,1.285c1.18.543,1.54.989,1.54,1.908,0,1.024-.931,1.686-2.372,1.686a2.4,2.4,0,0,1-2.57-2.028l-.088-.547h-2.8l-.261.033.136.964c.4,2.847,2.492,4.547,5.6,4.547,3.742,0,5.447-2.441,5.447-4.71,0-2.77-1.681-3.9-3.5-4.706" transform="translate(-182.686 -160.763)" fill="#fff"/>
      </g>
    </g>
  </g>
</svg>
