<svg xmlns="http://www.w3.org/2000/svg" width="21" height="16" viewBox="0 0 21 16">
  <path id="Union_1" data-name="Union 1" d="M2418.465,16h-.044l-.028,0h-.005l-.031,0h0l-.033,0h0a1.489,1.489,0,0,1-.675-.256l-.007,0-.022-.016-.011-.009-.017-.012-.016-.012-.012-.009-.019-.016-.008-.007-.021-.018-.005,0-.023-.021h0l-.024-.023-.006-.006-.011-.011-6-6a1.5,1.5,0,0,1,2.121-2.121l4.9,4.9L2429.4.482a1.5,1.5,0,1,1,2.2,2.035L2419.615,15.5l0,0-.008.008,0,0-.039.041a1.5,1.5,0,0,1-.686.392h0l-.034.008h0l-.03.007-.008,0-.026,0-.012,0-.017,0-.021,0-.013,0-.024,0h-.011l-.026,0h-.009l-.028,0h-.007l-.03,0h-.109Z" transform="translate(-2411 0)" fill="#216d96"/>
</svg>
