<svg xmlns="http://www.w3.org/2000/svg" xmlns:xlink="http://www.w3.org/1999/xlink" width="55" height="55" viewBox="0 0 55 55">
  <defs>
    <clipPath id="clip-path">
      <rect id="Rectangle_21805" data-name="Rectangle 21805" width="55" height="55" transform="translate(1203 776)" fill="none" stroke="#707070" stroke-width="1"/>
    </clipPath>
  </defs>
  <g id="Mask_Group_2" data-name="Mask Group 2" transform="translate(-1203 -776)" clip-path="url(#clip-path)">
    <path id="Path_42821" data-name="Path 42821" d="M326.673,2312.1l9.931-9.931v-5.443l-4.7,4.7c-.224-.367-.466-.726-.727-1.074l5.426-5.425v-5.443l-8.123,8.123a14.694,14.694,0,0,0-8.836-2.9,13.977,13.977,0,0,0-14.335,14.246,14.384,14.384,0,0,0,2.986,8.844l-6.96,6.96v5.442l9.752-9.751q.529.382,1.089.711L301.336,2332v5.443l5.271-5.27A14.3,14.3,0,0,0,318.3,2338a14.285,14.285,0,0,0,8.377-25.892Zm-4.038,4.038a8.344,8.344,0,0,1,4.544,7.609,8.571,8.571,0,0,1-8.883,8.638,8.744,8.744,0,0,1-7.711-4.2Zm-7.533.29,12.116-12.116a8.325,8.325,0,0,1,.616,1.184l-11.5,11.5A8.831,8.831,0,0,1,315.1,2316.433Zm-2.859-2.583a8.688,8.688,0,0,1,7.4-13.537,9.285,9.285,0,0,1,4.827,1.307Z" transform="translate(911.664 -1510.488)" fill="#387ea5"/>
  </g>
</svg>
