<?xml version="1.0" encoding="UTF-8"?>
<svg id="Layer_2" data-name="Layer 2" xmlns="http://www.w3.org/2000/svg" xmlns:xlink="http://www.w3.org/1999/xlink" viewBox="0 0 93.38 71.69">
  <defs>
    <style>
      .cls-1 {
        fill: url(#linear-gradient);
      }

      .cls-1, .cls-2, .cls-3, .cls-4 {
        stroke-width: 0px;
      }

      .cls-2 {
        fill: #387ea5;
      }

      .cls-3 {
        fill: url(#linear-gradient-2);
      }

      .cls-4 {
        fill: url(#linear-gradient-3);
      }
    </style>
    <linearGradient id="linear-gradient" x1="53.9" y1="50.87" x2="73.38" y2="50.87" gradientUnits="userSpaceOnUse">
      <stop offset="0" stop-color="#387ea5"/>
      <stop offset=".87" stop-color="#4e4376"/>
    </linearGradient>
    <linearGradient id="linear-gradient-2" x1="65.26" y1="50.74" x2="84.74" y2="50.74" xlink:href="#linear-gradient"/>
    <linearGradient id="linear-gradient-3" x1="34.15" y1="17.28" x2="59.27" y2="17.28" xlink:href="#linear-gradient"/>
  </defs>
  <g id="Layer_1-2" data-name="Layer 1">
    <g>
      <g>
        <path class="cls-1" d="M64.05,44.96c2.78,0,5.08,1.71,5.87,4.34l.31,1.02,3.16-3.16-.19-.4c-1.64-3.51-5.15-5.69-9.14-5.69-5.78,0-10.15,4.39-10.15,10.21,0,3.99,2.13,7.51,5.57,9.19l.41.2,3.06-3.06-.96-.33c-2.48-.85-4.08-3.21-4.08-6,0-3.61,2.64-6.33,6.15-6.33Z"/>
        <path class="cls-3" d="M79.17,41.14l-.41-.2-3.06,3.06.96.33c2.48.85,4.08,3.21,4.08,6,0,3.61-2.65,6.33-6.15,6.33-2.78,0-5.08-1.71-5.87-4.35l-.31-1.03-3.16,3.16.19.41c1.64,3.51,5.15,5.69,9.14,5.69,5.78,0,10.15-4.39,10.15-10.21,0-3.99-2.13-7.51-5.57-9.19Z"/>
        <path class="cls-2" d="M11.23,47.28l-3.85-1.88c-2.03-.94-2.03-1.56-2.03-2.15,0-1.28,1.19-2.18,2.89-2.18s3.02.91,3.21,2.27l.11.78h4.48l-.18-1.39c-.47-3.64-3.47-5.99-7.66-5.99s-7.38,2.78-7.38,6.61c0,2.8,1.48,4.71,4.8,6.2l3.95,1.88c1.73.79,2.25,1.44,2.25,2.79,0,1.5-1.36,2.46-3.47,2.46s-3.46-1.14-3.76-2.96l-.13-.8H.38l-.38.05.2,1.41c.58,4.16,3.64,6.65,8.18,6.65,5.47,0,7.96-3.57,7.96-6.88,0-4.05-2.46-5.7-5.11-6.88Z"/>
        <path class="cls-2" d="M30.86,52.12c0,2.71-1.62,5.52-4.33,5.52-2.41,0-3.51-1.88-3.51-3.63v-10.46h-4.03v10.44c0,4.39,3.14,7.57,7.47,7.57,1.67,0,3.22-.55,4.5-1.59v1.08h3.9v-17.51h-4.02v8.58Z"/>
        <path class="cls-2" d="M93.37,61.25l-.2-.08c-2.04-.81-3.04-2.54-3.05-5.3v-1.37s.02-24.89.02-24.89l-4.07,4.03.1,22.11c0,4.62,1.77,7.47,5.6,9l1.6.48v-3.99Z"/>
        <path class="cls-2" d="M48.71,52.12c0,2.71-1.62,5.52-4.33,5.52-2.41,0-3.51-1.88-3.51-3.63v-10.46h-4.03v10.44c0,4.39,3.14,7.57,7.47,7.57,1.67,0,3.22-.55,4.5-1.59v11.73l3.9-3.91v-24.25h-4.02v8.58Z"/>
      </g>
      <path class="cls-4" d="M52.2,16.11l7.07-7.07v-3.88l-3.35,3.35c-.16-.26-.33-.52-.52-.77l3.87-3.86V0l-5.79,5.79c-1.77-1.34-3.99-2.07-6.29-2.07-5.82,0-10.21,4.36-10.21,10.15,0,2.31.75,4.54,2.13,6.3l-4.96,4.96v3.88l6.95-6.95c.25.18.51.35.78.51l-7.72,7.72v3.88l3.75-3.75c1.88,2.61,4.96,4.15,8.33,4.15,5.82,0,10.21-4.36,10.21-10.15,0-3.37-1.58-6.44-4.24-8.3ZM49.32,18.99c2.03,1.05,3.24,3.06,3.24,5.42,0,3.51-2.72,6.15-6.33,6.15-2.35,0-4.39-1.11-5.49-2.99l8.58-8.58ZM43.95,19.19l8.63-8.63c.17.27.31.55.44.84l-8.19,8.19c-.31-.11-.6-.25-.88-.4ZM41.92,17.35c-.69-1.01-1.05-2.21-1.05-3.49,0-3.51,2.72-6.15,6.33-6.15,1.25,0,2.43.32,3.44.93l-8.71,8.71Z"/>
    </g>
  </g>
</svg>