<?xml version="1.0" encoding="UTF-8"?>
<svg id="Layer_2" data-name="Layer 2" xmlns="http://www.w3.org/2000/svg" viewBox="0 0 24 24">
  <defs>
    <style>
      .cls-1 {
        fill: #397fa6;
      }

      .cls-1, .cls-2 {
        stroke-width: 0px;
      }

      .cls-2 {
        fill: #fff;
      }
    </style>
  </defs>
  <g id="Layer_1-2" data-name="Layer 1">
    <g>
      <circle class="cls-2" cx="12" cy="12" r="12"/>
      <path class="cls-1" d="m18.76,7.82v2.51c-1.34.15-2.48-.38-3.63-1.06,0,.11.03,3.54-.02,5.17-.06,1.68-.66,3.16-1.97,4.26-2.79,2.34-6.75,1.08-7.7-2.5-.51-1.95-.07-3.71,1.46-5.1.86-.79,1.93-1.14,3.07-1.29.24-.03.49-.05.76-.07v2.65c-.34.08-.67.16-1.01.25-.23.07-.46.15-.67.25-1.09.49-1.58,1.78-1.09,2.87.08.17.18.34.3.48.52.72,1.39,1.08,2.26.95.86-.1,1.4-.65,1.72-1.43.22-.62.32-1.27.28-1.93-.01-3.22-.01-6.44-.02-9.66,0-.03,0-.07.01-.1h2.57c.29,2.16,1.38,3.52,3.67,3.71Z"/>
    </g>
  </g>
</svg>