<svg xmlns="http://www.w3.org/2000/svg" xmlns:xlink="http://www.w3.org/1999/xlink" width="355" height="228" viewBox="0 0 355 228">
  <defs>
    <filter id="Rectangle_21899" x="0" y="0" width="355" height="228" filterUnits="userSpaceOnUse">
      <feOffset dy="3" input="SourceAlpha"/>
      <feGaussianBlur stdDeviation="3" result="blur"/>
      <feFlood flood-opacity="0.161"/>
      <feComposite operator="in" in2="blur"/>
      <feComposite in="SourceGraphic"/>
    </filter>
  </defs>
  <g id="Group_39829" data-name="Group 39829" transform="translate(-10 -145)">
    <g transform="matrix(1, 0, 0, 1, 10, 145)" filter="url(#Rectangle_21899)">
      <rect id="Rectangle_21899-2" data-name="Rectangle 21899" width="337" height="210" rx="15" transform="translate(9 6)" fill="#216d95"/>
    </g>
    <g id="Icon" transform="translate(114.75 199.75)">
      <path id="Path_43416" data-name="Path 43416" d="M144.435,50.868H90.357a17.987,17.987,0,0,1-7.226,9.324c-3.337,2.238-8.518,3.41-13.619,3.8l9.976,9.983a4.994,4.994,0,1,1-7.066,7.059L61.4,70.015v37.461H126.12a18.3,18.3,0,0,0,18.314-18.314Zm-122.406,0H1.25V89.162a18.3,18.3,0,0,0,18.314,18.314H51.411V69.589L39.963,81.037A4.994,4.994,0,1,1,32.9,73.978l9.976-9.983c-5.1-.393-10.283-1.565-13.619-3.8a17.987,17.987,0,0,1-7.226-9.324Zm9.177-5.314a4.693,4.693,0,0,1,.906-2.411c2.138-2.924,6.713-2.99,10.149-.686,2.144,1.432,3.763,4.362,5.115,7.219.733,1.545,1.365,3.1,1.885,4.515-1.665.027-3.536-.007-5.441-.14-3.337-.246-6.826-.7-9.017-2.164a7.669,7.669,0,0,1-3.6-5.614c.007-.133.013-.266.013-.4C31.219,45.767,31.212,45.66,31.206,45.554Zm49.975.719a7.669,7.669,0,0,1-3.6,5.614c-2.191,1.465-5.681,1.918-9.017,2.164-1.9.133-3.776.166-5.441.14.519-1.419,1.152-2.97,1.885-4.515,1.352-2.857,2.97-5.787,5.115-7.219,3.436-2.3,8.012-2.238,10.149.686a4.693,4.693,0,0,1,.906,2.411c-.007.107-.013.213-.013.32,0,.133.007.266.013.4ZM61.4,4.25V36.956a17.579,17.579,0,0,1,3.17-2.8c8.1-5.414,18.721-3.8,23.762,3.077a14.843,14.843,0,0,1,1.945,3.65h54.157V22.564A18.3,18.3,0,0,0,126.12,4.25Zm-9.99,0H19.564A18.3,18.3,0,0,0,1.25,22.564V40.879H22.108a14.843,14.843,0,0,1,1.945-3.65c5.041-6.873,15.664-8.491,23.762-3.077a17.969,17.969,0,0,1,3.6,3.3Z" transform="translate(0 0)" fill="#fff" fill-rule="evenodd"/>
    </g>
  </g>
</svg>
