<svg xmlns="http://www.w3.org/2000/svg" width="63" height="53.141" viewBox="0 0 63 53.141">
  <g id="warning" transform="translate(0 0)">
    <path id="Path_183" data-name="Path 183" d="M242,193.72a1.968,1.968,0,0,1-1.968-1.968V177.972a1.968,1.968,0,0,1,3.937,0v13.779A1.968,1.968,0,0,1,242,193.72Z" transform="translate(-210.503 -159.279)" fill="#ffd800"/>
    <path id="Path_184" data-name="Path 184" d="M62.166,84.39,37.66,43.546a7.192,7.192,0,0,0-12.32,0L.833,84.39a5.83,5.83,0,0,0,4.993,8.818H57.173a5.83,5.83,0,0,0,4.993-8.818ZM57.173,89.27H5.826a1.888,1.888,0,0,1-1.617-2.856L28.715,45.571a3.251,3.251,0,0,1,5.568,0L58.79,86.415A1.888,1.888,0,0,1,57.173,89.27Z" transform="translate(0.001 -40.065)" fill="#ffd800"/>
    <circle id="Ellipse_6" data-name="Ellipse 6" cx="2.953" cy="2.953" r="2.953" transform="translate(28.548 36.41)" fill="#ffd800"/>
  </g>
</svg>
