<svg xmlns="http://www.w3.org/2000/svg" xmlns:xlink="http://www.w3.org/1999/xlink" width="357" height="239" viewBox="0 0 357 239">
  <defs>
    <filter id="Path_41548" x="0" y="0" width="357" height="239" filterUnits="userSpaceOnUse">
      <feOffset dy="3" input="SourceAlpha"/>
      <feGaussianBlur stdDeviation="3" result="blur"/>
      <feFlood flood-opacity="0.161"/>
      <feComposite operator="in" in2="blur"/>
      <feComposite in="SourceGraphic"/>
    </filter>
  </defs>
  <g id="Group_39214" data-name="Group 39214" transform="translate(-9 -181)">
    <g transform="matrix(1, 0, 0, 1, 9, 181)" filter="url(#Path_41548)">
      <path id="Path_41548-2" data-name="Path 41548" d="M7,0H332a7,7,0,0,1,7,7V214a7,7,0,0,1-7,7H7a7,7,0,0,1-7-7V7A7,7,0,0,1,7,0Z" transform="translate(9 6)" fill="#e00d0d"/>
    </g>
    <path id="Path_41597" data-name="Path 41597" d="M-120.094-7.384V-13.1l17-24.336h8.476v23.712h4.576v6.344h-4.576V0h-7.28V-7.384Zm18.668-22.256-10.66,15.912h10.66Zm42.12,4.264a8.522,8.522,0,0,0-3.432-3.484,10.444,10.444,0,0,0-5.1-1.2,11.141,11.141,0,0,0-5.72,1.456,10.056,10.056,0,0,0-3.9,4.16,13.35,13.35,0,0,0-1.4,6.24,13.382,13.382,0,0,0,1.43,6.344A10.124,10.124,0,0,0-73.45-7.7,11.74,11.74,0,0,0-67.522-6.24,10.283,10.283,0,0,0-60.71-8.45a10.548,10.548,0,0,0,3.484-6.162h-12.48v-5.564H-50.05v6.344a17.051,17.051,0,0,1-3.12,7.02,17.616,17.616,0,0,1-6.162,5.174,18.118,18.118,0,0,1-8.45,1.95,19.132,19.132,0,0,1-9.49-2.366,17.215,17.215,0,0,1-6.656-6.578A18.87,18.87,0,0,1-86.346-18.2a19.013,19.013,0,0,1,2.418-9.594,17.163,17.163,0,0,1,6.656-6.6,19.028,19.028,0,0,1,9.438-2.366,18.887,18.887,0,0,1,10.66,2.99,15.268,15.268,0,0,1,6.24,8.4Zm36.816,3.744V-15.5H-44.538v-6.136Zm32.812-9.984H-6.526v8.892a7.83,7.83,0,0,1,3.12-2.21A10.962,10.962,0,0,1,.91-25.792a11.789,11.789,0,0,1,6.812,1.82,10.531,10.531,0,0,1,3.848,4.654,15.419,15.419,0,0,1,1.2,6.058A13.511,13.511,0,0,1,9.36-3.64Q5.954,0-.338,0-6.266,0-9.8-2.964a11.123,11.123,0,0,1-4-7.748h7.072A5.589,5.589,0,0,0-4.628-7.384,6.713,6.713,0,0,0-.442-6.136,5.606,5.606,0,0,0,4.186-8.06a7.845,7.845,0,0,0,1.56-5.1A6.923,6.923,0,0,0,4.16-18.07,6.078,6.078,0,0,0-.494-19.76a5.9,5.9,0,0,0-3.64,1.092,5.956,5.956,0,0,0-2.08,2.912h-6.968V-38.012h23.5ZM18.33-19.448q0-9,3.25-14.092t10.79-5.1q7.54,0,10.79,5.1t3.25,14.092q0,9.048-3.25,14.2T32.37-.1q-7.54,0-10.79-5.148T18.33-19.448Zm20.9,0a35.775,35.775,0,0,0-.494-6.474,8.724,8.724,0,0,0-1.976-4.29,5.579,5.579,0,0,0-4.394-1.664,5.579,5.579,0,0,0-4.394,1.664A8.724,8.724,0,0,0,26-25.922a35.775,35.775,0,0,0-.494,6.474,39.414,39.414,0,0,0,.468,6.63A8.322,8.322,0,0,0,27.95-8.5a5.711,5.711,0,0,0,4.42,1.638A5.711,5.711,0,0,0,36.79-8.5a8.322,8.322,0,0,0,1.976-4.316A39.414,39.414,0,0,0,39.234-19.448Zm38.792-5.928a8.522,8.522,0,0,0-3.432-3.484,10.444,10.444,0,0,0-5.1-1.2,11.141,11.141,0,0,0-5.72,1.456,10.056,10.056,0,0,0-3.9,4.16,13.35,13.35,0,0,0-1.4,6.24,13.382,13.382,0,0,0,1.43,6.344A10.124,10.124,0,0,0,63.882-7.7,11.74,11.74,0,0,0,69.81-6.24a10.283,10.283,0,0,0,6.812-2.21,10.548,10.548,0,0,0,3.484-6.162H67.626v-5.564H87.282v6.344a17.051,17.051,0,0,1-3.12,7.02A17.616,17.616,0,0,1,78-1.638,18.118,18.118,0,0,1,69.55.312a19.132,19.132,0,0,1-9.49-2.366A17.215,17.215,0,0,1,53.4-8.632,18.87,18.87,0,0,1,50.986-18.2,19.013,19.013,0,0,1,53.4-27.794a17.163,17.163,0,0,1,6.656-6.6A19.028,19.028,0,0,1,69.5-36.764a18.887,18.887,0,0,1,10.66,2.99,15.268,15.268,0,0,1,6.24,8.4Zm35.256,6.76a8.157,8.157,0,0,1,5.044,3.068,8.96,8.96,0,0,1,1.976,5.72,9.218,9.218,0,0,1-1.43,5.122,9.523,9.523,0,0,1-4.134,3.458A15.146,15.146,0,0,1,108.342,0H92.69V-36.3h14.976a15.531,15.531,0,0,1,6.37,1.2,9.07,9.07,0,0,1,4.056,3.328,8.714,8.714,0,0,1,1.378,4.836,8.272,8.272,0,0,1-1.69,5.3A9.042,9.042,0,0,1,113.282-18.616ZM99.97-21.32h6.656a6.094,6.094,0,0,0,4-1.17,4.12,4.12,0,0,0,1.4-3.354,4.2,4.2,0,0,0-1.4-3.38,6,6,0,0,0-4-1.2H99.97ZM107.3-5.928a6.23,6.23,0,0,0,4.134-1.248,4.367,4.367,0,0,0,1.482-3.536,4.554,4.554,0,0,0-1.56-3.666,6.29,6.29,0,0,0-4.212-1.326H99.97v9.776Z" transform="translate(188 316)" fill="#fff"/>
  </g>
</svg>
