<svg xmlns="http://www.w3.org/2000/svg" width="80.038" height="80.039" viewBox="0 0 80.038 80.039">
  <g id="Group_40022" data-name="Group 40022" transform="translate(-1031 -5377.961)">
    <path id="Path_42041" data-name="Path 42041" d="M198.212,444.963a40.019,40.019,0,1,1-40.02-40.02,40.019,40.019,0,0,1,40.02,40.02" transform="translate(912.826 4973.018)" fill="#004c79"/>
    <g id="Group_39739" data-name="Group 39739" transform="translate(1047.262 5398.453)">
      <path id="Path_9516" data-name="Path 9516" d="M30.4-81.86a.916.916,0,0,0-.1-1.2.912.912,0,0,0-1.2-.057l-16.327,13.9L4.128-72.567A2.093,2.093,0,0,1,2.784-74.39a2.1,2.1,0,0,1,1.1-1.979L39.668-96.418a1.764,1.764,0,0,1,1.833.06,1.762,1.762,0,0,1,.787,1.657L39.118-61.98a2.161,2.161,0,0,1-1.017,1.63,2.165,2.165,0,0,1-1.913.182l-10.5-4.061L19.1-58.053a1.7,1.7,0,0,1-1.846.319,1.7,1.7,0,0,1-1.017-1.575V-64.14Z" transform="translate(-2.78 96.646)" fill="#fff"/>
    </g>
  </g>
</svg>
