<svg xmlns="http://www.w3.org/2000/svg" width="41.849" height="41.739" viewBox="0 0 41.849 41.739">
  <path id="Subtraction_1" data-name="Subtraction 1" d="M36.213,40.739a1.2,1.2,0,0,1-.909-.418l-3.417-3.987a1.2,1.2,0,0,1,.908-1.975h1.194V28.777a1.2,1.2,0,0,1,1.2-1.2H37.24a1.2,1.2,0,0,1,1.2,1.2v5.583h1.194a1.2,1.2,0,0,1,.908,1.975l-3.417,3.987A1.2,1.2,0,0,1,36.213,40.739Zm-3.7,0H10.925A3.592,3.592,0,0,1,7.337,37.15V25.986H27.911A4.79,4.79,0,0,0,32.7,21.2V10.037a4.79,4.79,0,0,0-4.784-4.784H7.337V3.5A3.594,3.594,0,0,1,10.125,0H35.648a3.594,3.594,0,0,1,2.788,3.5v21.9a3.557,3.557,0,0,0-1.2-.206H35.186A3.592,3.592,0,0,0,31.6,28.777v3.391a3.6,3.6,0,0,0-1.526,5.723l2.439,2.846Zm-4.6-17.145H2.392A2.4,2.4,0,0,1,0,21.2V10.037A2.4,2.4,0,0,1,2.392,7.645H27.911A2.4,2.4,0,0,1,30.3,10.037V21.2A2.4,2.4,0,0,1,27.911,23.593Zm-15.1-6.008a2.408,2.408,0,0,0,.481,1.327,2.871,2.871,0,0,0,1.184.9,4.274,4.274,0,0,0,1.7.322,3.8,3.8,0,0,0,1.567-.307,2.507,2.507,0,0,0,1.057-.848,2.088,2.088,0,0,0,.375-1.215,1.873,1.873,0,0,0-.412-1.215,2.529,2.529,0,0,0-.953-.7,11.974,11.974,0,0,0-1.44-.472,11.4,11.4,0,0,1-1.1-.353,1.918,1.918,0,0,1-.66-.419.912.912,0,0,1-.263-.668.978.978,0,0,1,.436-.825,1.965,1.965,0,0,1,1.17-.315,1.937,1.937,0,0,1,1.267.391,1.413,1.413,0,0,1,.517,1.035H19.1a2.5,2.5,0,0,0-.9-1.89,3.377,3.377,0,0,0-2.2-.69,3.846,3.846,0,0,0-1.575.308,2.549,2.549,0,0,0-1.066.832,1.952,1.952,0,0,0-.374,1.155,1.925,1.925,0,0,0,.412,1.283,2.672,2.672,0,0,0,.99.735,11.086,11.086,0,0,0,1.492.487,6.767,6.767,0,0,1,1.485.517.862.862,0,0,1,.481.8,1.061,1.061,0,0,1-.45.87,1.99,1.99,0,0,1-1.23.345,2.21,2.21,0,0,1-1.357-.39,1.388,1.388,0,0,1-.578-1.005Zm-5.16-5.94a4.089,4.089,0,0,0-2.077.525,3.676,3.676,0,0,0-1.418,1.478,4.667,4.667,0,0,0-.51,2.227,4.747,4.747,0,0,0,.51,2.25A3.666,3.666,0,0,0,5.573,19.61a4.089,4.089,0,0,0,2.077.525,3.971,3.971,0,0,0,2.475-.757,3.641,3.641,0,0,0,1.32-2.018H9.975a2.136,2.136,0,0,1-.824,1.2,2.568,2.568,0,0,1-1.5.42,2.417,2.417,0,0,1-1.89-.81,3.357,3.357,0,0,1-.72-2.295A3.3,3.3,0,0,1,5.76,13.6a2.426,2.426,0,0,1,1.89-.8,2.53,2.53,0,0,1,1.508.436,2.116,2.116,0,0,1,.817,1.184h1.471a3.486,3.486,0,0,0-1.3-2.039A4.072,4.072,0,0,0,7.65,11.645Zm12.465.135L23.34,20h1.59l3.225-8.22H26.7L24.15,18.74l-2.565-6.96Z" transform="translate(0.5 0.5)" fill="#216d96" stroke="rgba(0,0,0,0)" stroke-width="1"/>
</svg>
