<svg xmlns="http://www.w3.org/2000/svg" xmlns:xlink="http://www.w3.org/1999/xlink" width="60" height="60" viewBox="0 0 60 60">
  <defs>
    <clipPath id="clip-path">
      <rect id="Rectangle_21921" data-name="Rectangle 21921" width="60" height="60" transform="translate(1472 3000)" fill="none" stroke="#707070" stroke-width="1"/>
    </clipPath>
    <clipPath id="clip-path-2">
      <rect id="Rectangle_21920" data-name="Rectangle 21920" width="49.987" height="50" fill="#014b79"/>
    </clipPath>
  </defs>
  <g id="Mask_Group_7304" data-name="Mask Group 7304" transform="translate(-1472 -3000)" clip-path="url(#clip-path)">
    <g id="Group_39617" data-name="Group 39617" transform="translate(1477 3004.5)">
      <g id="Group_39616" data-name="Group 39616" transform="translate(0 0.001)" clip-path="url(#clip-path-2)">
        <path id="Path_42911" data-name="Path 42911" d="M13.891,23.164a10.166,10.166,0,0,1-4.911,1.1,10.165,10.165,0,0,1-4.91-1.1V43.08a13.377,13.377,0,0,1,1.339-.067,10.163,10.163,0,0,1,4.91,1.1V37.656c0-1.429,1.415-2.6,3.572-3.183Z" transform="translate(-0.498 -2.835)" fill="#014b79"/>
        <path id="Path_42912" data-name="Path 42912" d="M4.911,47.816C2.2,47.816,0,48.616,0,49.6s2.2,1.785,4.911,1.785,4.91-.8,4.91-1.785-2.2-1.786-4.91-1.786" transform="translate(0 -5.852)" fill="#014b79"/>
        <path id="Path_42913" data-name="Path 42913" d="M0,52.668V54.66c0,.714,1.958,1.786,4.911,1.786s4.91-1.072,4.91-1.786V52.668a10.165,10.165,0,0,1-4.91,1.1A10.166,10.166,0,0,1,0,52.668" transform="translate(0 -6.446)" fill="#014b79"/>
        <path id="Path_42914" data-name="Path 42914" d="M29.606,8.151a3.845,3.845,0,0,0,2.288.771A19.35,19.35,0,0,1,30.07,4.7a.893.893,0,0,1,1.721-.479,16.5,16.5,0,0,0,2.253,4.7h.917a16.388,16.388,0,0,0,2.252-4.7.893.893,0,1,1,1.721.478,19.274,19.274,0,0,1-1.822,4.215,3.83,3.83,0,0,0,2.241-.767,9.132,9.132,0,0,0,3.064-6.125.819.819,0,0,0-.381-.818.927.927,0,0,0-1.014,0,3.781,3.781,0,0,1-2.09.577A4.026,4.026,0,0,1,36.146.7a2.351,2.351,0,0,0-3.339,0,4.026,4.026,0,0,1-2.786,1.089,3.752,3.752,0,0,1-2.08-.573.947.947,0,0,0-.506-.149.964.964,0,0,0-.513.15.816.816,0,0,0-.379.815,9.144,9.144,0,0,0,3.062,6.123" transform="translate(-3.247 0)" fill="#014b79"/>
        <path id="Path_42915" data-name="Path 42915" d="M15.084,7.641c2.712,0,4.91-.8,4.91-1.786S17.8,4.07,15.084,4.07s-4.911.8-4.911,1.785,2.2,1.786,4.911,1.786" transform="translate(-1.245 -0.499)" fill="#014b79"/>
        <path id="Path_42916" data-name="Path 42916" d="M8.98,21.884c2.712,0,4.911-.8,4.911-1.786s-2.2-1.785-4.911-1.785-4.911.8-4.911,1.785,2.2,1.786,4.911,1.786" transform="translate(-0.498 -2.242)" fill="#014b79"/>
        <path id="Path_42917" data-name="Path 42917" d="M51.23,35.55A8.107,8.107,0,1,0,38.619,45.73H24.463V35.91c0-2.036-2.879-3.572-6.7-3.572-.448,0-.9.026-1.343.07V18.945c0-1.948-2.659-3.44-6.249-3.554V8.923a10.124,10.124,0,0,0,4.906,1.1A10.045,10.045,0,0,0,20,8.914V15c-.588.658-1.176,1.378-1.764,2.177a.892.892,0,0,0,1.439,1.053A24.952,24.952,0,0,1,21.514,16c0-.009.009-.018.018-.026a23.671,23.671,0,0,1,5.924-4.748,5.524,5.524,0,0,0,1.378.456l-1.65,1.545a.9.9,0,0,0-.044,1.264.933.933,0,0,0,.623.281.894.894,0,0,0,.641-.237L31.326,11.8h.281v2.686a.9.9,0,0,0,1.79,0V11.8h.281l2.914,2.729a.9.9,0,0,0,1.51-.685.888.888,0,0,0-.29-.623L36.153,11.67a5.347,5.347,0,0,0,1.369-.456c2.361,1.281,10.119,6.319,13.024,18.65a23.43,23.43,0,0,1,.685,5.687" transform="translate(-1.245 -1.091)" fill="#014b79"/>
        <path id="Path_42918" data-name="Path 42918" d="M13.226,42.494v9.135c0,.714,1.958,1.785,4.911,1.785s4.91-1.071,4.91-1.785V42.494a10.162,10.162,0,0,1-4.91,1.1,10.166,10.166,0,0,1-4.911-1.1" transform="translate(-1.619 -5.201)" fill="#014b79"/>
        <path id="Path_42919" data-name="Path 42919" d="M18.136,37.643c-2.712,0-4.911.8-4.911,1.786s2.2,1.785,4.911,1.785,4.911-.8,4.911-1.785-2.2-1.786-4.911-1.786" transform="translate(-1.618 -4.607)" fill="#014b79"/>
        <path id="Path_42920" data-name="Path 42920" d="M47.868,6.54C47.868,8,46.279,9.2,44.3,9.218a4.54,4.54,0,0,1-.992-.107.651.651,0,0,1-.169.152c.143.09.3.188.473.286.545.356,1.179.794,1.875,1.339.071.054.134.107.205.169,4.446.33,5.857,2.187,5.9,2.241a.891.891,0,0,0,.741.384.837.837,0,0,0,.491-.152.893.893,0,0,0,.251-1.232c-.072-.107-1.3-1.875-4.9-2.687A4.082,4.082,0,0,0,49.654,6.54a4.606,4.606,0,0,0-3.419-4.17,1.214,1.214,0,0,1-.018.178,13.658,13.658,0,0,1-.3,1.617A2.726,2.726,0,0,1,47.868,6.54" transform="translate(-5.279 -0.29)" fill="#014b79"/>
        <path id="Path_42921" data-name="Path 42921" d="M52.333,46.036c-.886.913-1.79,1.808-2.694,2.7a.665.665,0,0,1-1-.009c-.913-.9-1.817-1.808-2.721-2.721a.65.65,0,0,1,.026-.939.66.66,0,0,1,.948,0c.421.412.843.834,1.255,1.264l.316.263V40.209a.68.68,0,1,1,1.352.009c.009,1.255.009,2.5.009,3.756V46.6c.105-.1.176-.149.237-.211.439-.43.869-.869,1.308-1.3a.659.659,0,0,1,.965-.018.645.645,0,0,1,0,.965" transform="translate(-5.596 -4.829)" fill="#014b79"/>
      </g>
    </g>
  </g>
</svg>
