<?xml version="1.0" encoding="UTF-8"?>
<svg id="Layer_2" data-name="Layer 2" xmlns="http://www.w3.org/2000/svg" viewBox="0 0 70.62 70.62">
  <defs>
    <style>
      .cls-1 {
        fill: #6bddb3;
      }

      .cls-1, .cls-2, .cls-3, .cls-4 {
        stroke-width: 0px;
      }

      .cls-2 {
        fill: #226e95;
      }

      .cls-3 {
        fill: #efeaea;
      }

      .cls-4 {
        fill: #02adff;
      }
    </style>
  </defs>
  <g id="Layer_1-2" data-name="Layer 1">
    <g>
      <circle id="Ellipse_598" data-name="Ellipse 598" class="cls-4" cx="35.31" cy="35.31" r="35.31"/>
      <path class="cls-1" d="M52.71,26.31c-.36-.19-.78-.26-1.18-.2-.45.06-.96.14-1.46.21-.76.11-1.52-.16-2.03-.72-1.23-1.36-2.43-7.82-6.05-8.66-2.95-.68-6.53,1.15-7.53.04-.35-.39-.59-.87-.69-1.38-.03-.15-.06-.3-.08-.45-.16-.86-.91-1.48-1.78-1.48h-6.09c-1.07,0-2.08.44-2.81,1.23l-.51.55c-1.66,1.79-3.37,3.64-5.06,5.46-.47.5-.62,1.06-.48,1.8.47,2.52.48,4.99.03,7.34-.26,1.33.2,1.89,1.2,2.5,1.25.77,2.3,1.82,3.07,3.07.31.52.9,1.48,2.12,1.13.44-.13.9-.25,1.34-.36.92-.24,1.87-.49,2.8-.83.89-.33,1.34-.14,1.78.25.04.04.07.06.08.08.54,1.77,1.12,3.72,1.82,6.12-.11.53-.23,1.08-.34,1.61-.16.73-.32,1.49-.47,2.25-.08.4-.05.82.08,1.2.6,1.64,1.22,3.3,1.82,4.91.5,1.35,1.01,2.71,1.51,4.06.16.42.51.92,1.33.92h.02c.62,0,1.26,0,1.87,0,.79,0,1.61,0,2.43-.01.47,0,.92-.21,1.24-.55,1.28-1.37,2.61-2.82,4.09-4.45.25-.29.44-.62.56-.98.18-.53.35-1.08.51-1.6.15-.49.31-.99.47-1.48.02-.07.06-.13.11-.18.39-.39.78-.79,1.17-1.17.51-.51,1.03-1.03,1.54-1.56.31-.34.49-.79.49-1.25-.01-.94-.03-1.88-.05-2.8-.02-.87-.04-1.77-.05-2.66,0-.05.02-.1.05-.15.41-.64.85-1.28,1.26-1.91.37-.55.75-1.13,1.13-1.7.22-.34.4-.72.52-1.11.09-.28.18-.57.27-.85.3-.94.61-1.91.82-2.9.1-.54.15-1.09.15-1.64,0-.71-.38-1.37-1.01-1.7h0Z"/>
      <path class="cls-2" d="M41.68,30.11c.29.28.6.43.94.43h0c.34,0,.66-.14.95-.43l.02-.02c2.59-2.72,7.41-7.79,4.73-12.89h0c-1.1-2.06-3.28-3.35-5.68-3.39h-.03c-2.41.04-4.58,1.33-5.69,3.39-2.68,5.1,2.14,10.16,4.73,12.89l.02.02Z"/>
      <path class="cls-3" d="M46.32,20.36c0-2.04-1.65-3.69-3.69-3.69-2.04,0-3.69,1.65-3.69,3.69,0,2.04,1.65,3.69,3.69,3.69h0c2.04,0,3.69-1.65,3.69-3.69Z"/>
    </g>
  </g>
</svg>