<?xml version="1.0" encoding="UTF-8"?>
<svg id="Layer_2" data-name="Layer 2" xmlns="http://www.w3.org/2000/svg" viewBox="0 0 70.62 70.62">
  <defs>
    <style>
      .cls-1 {
        fill: #6bddb3;
      }

      .cls-1, .cls-2, .cls-3, .cls-4 {
        stroke-width: 0px;
      }

      .cls-2 {
        fill: #226e95;
      }

      .cls-3 {
        fill: #efeaea;
      }

      .cls-4 {
        fill: #02adff;
      }
    </style>
  </defs>
  <g id="Layer_1-2" data-name="Layer 1">
    <g>
      <circle id="Ellipse_598" data-name="Ellipse 598" class="cls-4" cx="35.31" cy="35.31" r="35.31"/>
      <path class="cls-1" d="M56.95,30.87c-.03-.37-.05-.49-.11-.64-.16-.37-.31-.75-.47-1.12-.32-.77-.65-1.57-1-2.36-.51-1.18-1.75-1.72-2.94-1.27-.02,0-.04.02-.07.02-.01-.03-.03-.06-.05-.09-.53-.99-1.48-.83-1.88-.76-.12.02-.25.04-.37.05-.13,0-.26.01-.39,0-.96-.08-1.75.31-2.28,1.13-.21.3-.45.58-.72.83-.35.33-.67.7-.94,1.1-.06.09-.18.11-.27.06-.02-.01-.04-.03-.05-.05-.21-.29-.49-.52-.81-.66-.26-.12-.51-.21-.76-.31-.1-.04-.2-.08-.3-.11-.09-.03-.18-.08-.25-.14,0-.02,0-.04,0-.06,0-.02,0-.04,0-.05.08-.06.17-.11.27-.14.3-.1.61-.21.91-.31.71-.24,1.44-.48,2.15-.78.74-.31,1.4-.76,1.94-1.16.73-.54.97-1.49.59-2.35-.19-.44-.7-1.18-1.96-1.19h-.02c-.82,0-1.55.25-2.19.47-.22.08-.43.15-.63.21h-.03c-.15.06-.31.1-.47.11-.61-.01-1.23-.04-1.84-.07-.39-.02-9.25-.09-9.25-.09,0,0-8.82-1.54-8.95-1.55-2.54-.09-4.67,1.01-6.25,1.97-.82.5-1.55,1.1-2.26,1.68-.19.16-.38.31-.57.46-1.23.96-1.44,2.73-.48,3.95,0,0,0,0,0,0,.84,1.07,2.42,1.55,3.69,1.1.43-.15.87-.31,1.29-.47.47-.17.96-.35,1.44-.52.19-.07.38-.12.58-.14.46-.03.9.13,1.24.45.39.38.6.9.58,1.43,0,1.75-.43,3.37-1.27,4.8-.86,1.44-1.16,3.14-.86,4.79.41,2.35,1.03,4.66,1.86,6.91.4,1.09,1.28,1.16,1.63,1.14.27-.01.54-.1.77-.24.08.15.17.29.25.44.01.05.02.11.02.16.02,1.02.54,1.97,1.4,2.53.54.37,1.08.74,1.63,1.1.25.17.5.34.76.51.64.43,1.33.62,2.03.54.31-.03.56.05.85.31,1.03.89,2.08,1.78,3.1,2.65.39.33.77.65,1.16.98.46.39.96.59,1.46.59s.97-.18,1.43-.55c.11-.09.32-.24.53-.38.38-.26.78-.53,1.02-.76.3-.29.6-.82.46-1.36-.15-.59-.78-.97-1.27-.98-.59-.02-1.09-.3-1.64-.71.13-.47.06-.98-.2-1.4-.32-.53-.91-.89-1.79-1.11.04-.08.08-.16.12-.25.06-.13.13-.27.19-.4.33-.71.2-1.44-.35-1.95-.58-.54-1.33-.61-2.03-.2l-.18.1c-.31.19-.61.36-.92.53-.23.12-.45.11-.62-.04-.18-.15-.24-.4-.14-.61.16-.42.34-.9.55-1.36.29-.63.73-.97,1.38-1.05.74-.1,1.5-.15,2.25-.21h.12q.48-.04.69.4c.33.69.94,1.06,1.66,1.03.75-.04,1.39-.53,1.61-1.25.09-.29.18-.58.25-.86.26-.98.81-1.67,1.68-2.14.95-.5,1.72-1.29,2.19-2.26.3-.59.75-1.07,1.39-1.46,1.42-.88,3.13-1.87,5.05-2.54.28-.1,1.18-.53.99-2.04-.03-.18.09-.36.27-.4h.02c.14-.04.29.02.37.14.94,1.43,2.06,1.08,2.38.94.42-.18.78-.47,1.05-.83.41-.55.6-1.24.54-1.92h0Z"/>
      <path class="cls-2" d="M31.45,30.03c.28.28.6.42.93.42h.01c.33,0,.65-.14.93-.42l.02-.02c2.57-2.7,7.34-7.72,4.69-12.77h0c-1.09-2.04-3.25-3.32-5.63-3.36h-.03c-2.39.04-4.54,1.32-5.64,3.36-2.66,5.05,2.12,10.07,4.69,12.77l.02.02Z"/>
      <path class="cls-3" d="M36.05,20.37c0-2.02-1.64-3.66-3.66-3.66-2.02,0-3.66,1.64-3.66,3.66,0,2.02,1.64,3.66,3.66,3.66,2.02,0,3.66-1.64,3.66-3.66Z"/>
    </g>
  </g>
</svg>