<svg xmlns="http://www.w3.org/2000/svg" xmlns:xlink="http://www.w3.org/1999/xlink" width="73" height="73" viewBox="0 0 73 73">
  <defs>
    <clipPath id="clip-path">
      <rect id="Rectangle_21991" data-name="Rectangle 21991" width="73" height="73" transform="translate(784 4593)" fill="#fff" stroke="#707070" stroke-width="1"/>
    </clipPath>
  </defs>
  <g id="Mask_Group_7360" data-name="Mask Group 7360" transform="translate(-784 -4593)" clip-path="url(#clip-path)">
    <g id="Group_39981" data-name="Group 39981" transform="translate(786 4600)">
      <path id="Path_43565" data-name="Path 43565" d="M66.77,33.453h-30.2a1.924,1.924,0,0,1-1.942-1.907V1.907A1.924,1.924,0,0,1,36.574,0h30.2a1.925,1.925,0,0,1,1.943,1.907V31.546a1.925,1.925,0,0,1-1.943,1.907" transform="translate(-3.852 -5.37)" fill="#373464"/>
      <path id="Path_43566" data-name="Path 43566" d="M55.3,12.363,49.957,8.6l-5.345,3.76V0H55.3Z" transform="translate(-3.647 -5.37)" fill="#fff"/>
      <rect id="Rectangle_21989" data-name="Rectangle 21989" width="8.396" height="3.566" transform="translate(32.57 20.699)" fill="#fff"/>
      <path id="Path_43567" data-name="Path 43567" d="M7.437,38.475,17.711,56.292a1.92,1.92,0,0,1-.744,2.635l-3.755,2.086a2,2,0,0,1-2.685-.731L.254,42.466A1.919,1.919,0,0,1,1,39.831l3.754-2.086a2,2,0,0,1,2.685.731m4.275.3L19.5,52.294l.719-.408,17.615,4.632a9.047,9.047,0,0,0,7.211-1L68.714,41.692c3.459-2.091,1.931-11.239-8.471-5.292L47.481,43.2a8.819,8.819,0,0,1-5.965,1.02c-1.78-.28-6.039-1.449-10.294-2.568a1.418,1.418,0,0,1-1.023-1.74,1.45,1.45,0,0,1,1.773-1l12.022,3.161a4.139,4.139,0,0,0,.291-.767,3.788,3.788,0,0,0-2.675-4.547c-5.33-.943-10.558-3.132-13.759-4.15-2.871-.914-5.527.139-8.139,1.624Z" transform="translate(0 -2.183)" fill="#373464" fill-rule="evenodd"/>
    </g>
  </g>
</svg>
