<svg xmlns="http://www.w3.org/2000/svg" xmlns:xlink="http://www.w3.org/1999/xlink" width="73" height="73" viewBox="0 0 73 73">
  <defs>
    <clipPath id="clip-path">
      <rect id="Rectangle_21974" data-name="Rectangle 21974" width="73" height="73" transform="translate(347 761)" fill="none" stroke="#707070" stroke-width="1"/>
    </clipPath>
    <clipPath id="clip-path-2">
      <rect id="Rectangle_21944" data-name="Rectangle 21944" width="37.854" height="57.043" fill="#373464"/>
    </clipPath>
  </defs>
  <g id="Mask_Group_7349" data-name="Mask Group 7349" transform="translate(-347 -761)" clip-path="url(#clip-path)">
    <g id="Group_39944" data-name="Group 39944" transform="translate(364.573 768.979)">
      <g id="Group_39943" data-name="Group 39943" transform="translate(0 0)" clip-path="url(#clip-path-2)">
        <path id="Path_43508" data-name="Path 43508" d="M30.348,0H7.282V.012h.071a.966.966,0,0,0-.071.368V.012A7.489,7.489,0,0,0,0,7.495V49.548a7.478,7.478,0,0,0,7.282,7.471h6.428v.024H30.348a7.506,7.506,0,0,0,7.507-7.495V7.495A7.506,7.506,0,0,0,30.348,0M5.242,9.653A1.3,1.3,0,0,1,3.819,8.479L3.783,8.23h.771l.024.142a.612.612,0,0,0,.652.522c.368,0,.6-.19.6-.427s-.095-.356-.391-.486l-.7-.332a1.132,1.132,0,0,1-.83-1.079V6.5A1.183,1.183,0,0,1,5.194,5.42,1.229,1.229,0,0,1,6.546,6.463l.024.249H5.787L5.775,6.57a.5.5,0,0,0-.557-.391c-.3,0-.51.154-.51.379,0,.095,0,.2.356.368l.676.332.012-.012a1.234,1.234,0,0,1-.51,2.407m4.613.012H9.191v-.19a1.29,1.29,0,0,1-.795.273H8.313A1.289,1.289,0,0,1,7.092,8.42V6.594H7.8V8.479a.58.58,0,0,0,.6.581c.474,0,.759-.486.759-.961L9.155,6.594h.7Zm3.131,1.174-.688.676V9.475a1.232,1.232,0,0,1-.783.273h-.083A1.289,1.289,0,0,1,10.211,8.42V6.594h.7V8.467a.615.615,0,0,0,.617.593c.474,0,.759-.486.759-.961V6.594h.7Zm1.933-4A1.123,1.123,0,0,0,14.6,9l.166.059-.546.534-.071-.036a1.731,1.731,0,0,1-.771-.771,1.779,1.779,0,0,1,3.166-1.625l.036.083-.546.534L15.986,7.6a1.043,1.043,0,0,0-1.02-.759Zm2.692,2.5a1.786,1.786,0,0,1-2.4-.783l-.036-.071.546-.534.047.178a1.067,1.067,0,0,0,1.02.759h.059a1.12,1.12,0,0,0,.308-2.158l-.166-.047.534-.546.071.024.012.012a1.731,1.731,0,0,1,.771.771,1.785,1.785,0,0,1-.771,2.4m2.455,1.044-.273-.083a1.5,1.5,0,0,1-.972-1.577l-.036-3.854.712-.712V8.752a.894.894,0,0,0,.546.925l.036.012Zm9.143,42.7a3.274,3.274,0,0,1-2.1-.759,3.315,3.315,0,1,1,0-5.111,3.274,3.274,0,0,1,2.1-.759,3.315,3.315,0,0,1,0,6.629" transform="translate(0 0)" fill="#373464"/>
        <path id="Path_43509" data-name="Path 43509" d="M6.211.01A.966.966,0,0,0,6.14.378V.01Z" transform="translate(1.142 0.002)" fill="#373464"/>
      </g>
    </g>
  </g>
</svg>
