<svg xmlns="http://www.w3.org/2000/svg" xmlns:xlink="http://www.w3.org/1999/xlink" width="73" height="73" viewBox="0 0 73 73">
  <defs>
    <clipPath id="clip-path">
      <rect id="Rectangle_22001" data-name="Rectangle 22001" width="73" height="73" transform="translate(1191 5779)" fill="#fff" stroke="#707070" stroke-width="1"/>
    </clipPath>
  </defs>
  <g id="Mask_Group_7361" data-name="Mask Group 7361" transform="translate(-1191 -5779)" clip-path="url(#clip-path)">
    <g id="Group_39994" data-name="Group 39994" transform="translate(1173.87 5101.769)">
      <g id="Group_39810" data-name="Group 39810" transform="translate(26.128 686.239)">
        <path id="Path_43426" data-name="Path 43426" d="M7.854,7.854h7.854v7.854H7.854ZM0,23.563H23.58V0H0Z" fill="#373464"/>
        <path id="Path_43427" data-name="Path 43427" d="M7.854,25.895h7.854v7.854H7.854ZM0,41.6H23.58V18.039H0Z" transform="translate(0 13.376)" fill="#373464"/>
        <rect id="Rectangle_21925" data-name="Rectangle 21925" width="3.936" height="3.918" transform="translate(43.214 51.064)" fill="#373464"/>
        <path id="Path_43428" data-name="Path 43428" d="M25.9,7.854h7.854v7.854H25.9ZM18.05,23.563H41.613V0H18.05Z" transform="translate(13.384)" fill="#373464"/>
        <path id="Path_43429" data-name="Path 43429" d="M37.681,18.042v3.936H29.827V18.042H18.053V41.6h7.856V29.832h3.918v3.918h11.79V18.042Z" transform="translate(13.386 13.378)" fill="#373464"/>
        <rect id="Rectangle_21926" data-name="Rectangle 21926" width="3.936" height="3.918" transform="translate(51.068 51.064)" fill="#373464"/>
        <path id="Path_43430" data-name="Path 43430" d="M43.207,54.979h3.936V51.061H43.207Zm7.854,0H55V51.061H51.061ZM7.854,39.271h7.854v7.854H7.854ZM0,54.979H23.58V31.415H0ZM51.061,31.417v3.936H43.207V31.417H31.434V54.979h7.854V43.207h3.918v3.918H55V31.417ZM7.854,7.854h7.854v7.854H7.854ZM0,23.563H23.58V0H0ZM39.288,7.854h7.854v7.854H39.288ZM31.434,23.563H55V0H31.434Z" fill="#373464"/>
      </g>
    </g>
  </g>
</svg>
