<svg xmlns="http://www.w3.org/2000/svg" xmlns:xlink="http://www.w3.org/1999/xlink" width="73" height="73" viewBox="0 0 73 73">
  <defs>
    <clipPath id="clip-path">
      <rect id="Rectangle_21980" data-name="Rectangle 21980" width="73" height="73" transform="translate(914 911)" fill="#fff" stroke="#707070" stroke-width="1"/>
    </clipPath>
  </defs>
  <g id="Mask_Group_7356" data-name="Mask Group 7356" transform="translate(-914 -911)" clip-path="url(#clip-path)">
    <g id="Group_39765" data-name="Group 39765" transform="translate(924 923)">
      <path id="Path_43413" data-name="Path 43413" d="M41.89,13.3a2.695,2.695,0,0,1-2.708,2.707H9.226L15.217,22a2.7,2.7,0,0,1,0,3.826,2.652,2.652,0,0,1-1.907.789,2.7,2.7,0,0,1-1.919-.789L.786,15.22a2.721,2.721,0,0,1,0-3.826L11.392.789A2.749,2.749,0,0,1,13.31,0a2.7,2.7,0,0,1,1.907,4.614l-5.98,5.98H39.181A2.716,2.716,0,0,1,41.89,13.3" transform="translate(0 0)" fill="#373464"/>
      <path id="Path_43414" data-name="Path 43414" d="M58.89,23.07,48.3,33.675a2.754,2.754,0,0,1-1.92.789,2.7,2.7,0,0,1-1.906-4.614l5.978-5.991H20.5A2.691,2.691,0,0,1,17.8,21.151,2.714,2.714,0,0,1,20.5,18.444H50.438l-5.968-5.98a2.7,2.7,0,0,1,0-3.826,2.667,2.667,0,0,1,1.906-.789,2.7,2.7,0,0,1,1.92.789L58.89,19.244a2.7,2.7,0,0,1,0,3.826" transform="translate(-6.501 15.11)" fill="#373464"/>
    </g>
  </g>
</svg>
