<svg xmlns="http://www.w3.org/2000/svg" xmlns:xlink="http://www.w3.org/1999/xlink" width="73" height="73" viewBox="0 0 73 73">
  <defs>
    <clipPath id="clip-path">
      <rect id="Rectangle_21986" data-name="Rectangle 21986" width="73" height="73" transform="translate(1402 828)" fill="#fff" stroke="#707070" stroke-width="1"/>
    </clipPath>
    <clipPath id="clip-path-2">
      <rect id="Rectangle_21985" data-name="Rectangle 21985" width="70" height="64" transform="translate(0.009 -0.653)" fill="none"/>
    </clipPath>
  </defs>
  <g id="Mask_Group_7358" data-name="Mask Group 7358" transform="translate(-1402 -828)" clip-path="url(#clip-path)">
    <g id="Group_39978" data-name="Group 39978" transform="translate(1405.348 833.166)">
      <g id="Group_39977" data-name="Group 39977" transform="translate(-1.357 -0.513)" clip-path="url(#clip-path-2)">
        <g id="Group_39979" data-name="Group 39979" transform="translate(22.638 4.468)">
          <path id="Path_43560" data-name="Path 43560" d="M54.751,61.144s-11.145-.185-16.448-.483C26.469,60,25.229,47.643,25.114,45.89c-.344-5.239.089-7.223,1.1-10.152,2.829-8.168,9.593-16.9,14.9-19.453a6.148,6.148,0,0,0,3.134.829h6.2a6.114,6.114,0,0,0,3.156-.848c2.414,1.16,12.045,6.244,15.973,22.439,4.43,18.249-10.4,22.439-14.828,22.439" transform="translate(-24.997 -4.472)" fill="#373464"/>
          <path id="Path_43561" data-name="Path 43561" d="M63.046,1.306c.012,2.453-.495,7.816-4.547,10.886a3.552,3.552,0,0,1-.484.324,6.359,6.359,0,0,1-3.281.882H48.287a6.392,6.392,0,0,1-3.259-.862c-.173-.111-.345-.223-.506-.346-4.053-3.067-4.547-8.427-4.547-10.883A1.134,1.134,0,0,1,41.131.2a1.179,1.179,0,0,1,.431.083c1.474.6,1.969,1.954,4.2,1.954C48.631,2.233,48.631,0,51.5,0s2.878,2.233,5.757,2.233c2.233,0,2.728-1.363,4.2-1.954a1.164,1.164,0,0,1,1.5.609,1.074,1.074,0,0,1,.087.418" transform="translate(-28.81 0)" fill="#373464"/>
        </g>
        <path id="Path_43562" data-name="Path 43562" d="M20.756,40.877H10.5a1.754,1.754,0,0,0,0,3.505H20.756a1.754,1.754,0,0,0,0-3.505" transform="translate(-0.666 -8.073)" fill="#373464" fill-rule="evenodd"/>
        <path id="Path_43563" data-name="Path 43563" d="M20.756,55.747H10.5a1.754,1.754,0,0,0,0,3.505H20.756a1.754,1.754,0,0,0,0-3.505" transform="translate(-0.666 -6.989)" fill="#373464" fill-rule="evenodd"/>
        <path id="Path_43564" data-name="Path 43564" d="M16.2,48.312H1.6a1.76,1.76,0,0,0,0,3.505H16.2a1.76,1.76,0,0,0,0-3.505" transform="translate(2.446 -7.53)" fill="#373464" fill-rule="evenodd"/>
      </g>
    </g>
  </g>
</svg>
