<svg id="Group_39970" data-name="Group 39970" xmlns="http://www.w3.org/2000/svg" xmlns:xlink="http://www.w3.org/1999/xlink" width="73" height="73" viewBox="0 0 73 73">
  <defs>
    <clipPath id="clip-path">
      <rect id="Rectangle_21977" data-name="Rectangle 21977" width="73" height="73" fill="none"/>
    </clipPath>
  </defs>
  <g id="Group_39969" data-name="Group 39969" clip-path="url(#clip-path)">
    <path id="Path_43537" data-name="Path 43537" d="M47.2,38.276,37.354,24.268V69.694l27.531-6.653a1.363,1.363,0,0,0,1.042-1.324V36.931l-16.792,2.2a2.047,2.047,0,0,1-1.937-.851" fill="#373464"/>
    <path id="Path_43538" data-name="Path 43538" d="M48.612,37.636l22.869-2.98a1.363,1.363,0,0,0,.907-2.179l-7.147-9.368a1.362,1.362,0,0,0-1.083-.536H38.03Z" fill="#373464"/>
    <path id="Path_43539" data-name="Path 43539" d="M24.066,39.127,7.274,36.934V61.721a1.362,1.362,0,0,0,1.042,1.323l27.526,6.65V24.268L26,38.275A2.056,2.056,0,0,1,24.066,39.127Z" fill="#373464"/>
    <path id="Path_43540" data-name="Path 43540" d="M57.937,12.173a8.867,8.867,0,1,1-8.86-8.867,8.828,8.828,0,0,1,8.86,8.867" fill="#373464"/>
    <path id="Path_43541" data-name="Path 43541" d="M32.362,17.741A8.867,8.867,0,1,1,23.5,8.874a8.828,8.828,0,0,1,8.86,8.867" fill="#373464"/>
    <path id="Path_43542" data-name="Path 43542" d="M46.118,13.472h1.223v.721H45.184V10.359h.934Z" fill="#fff"/>
    <path id="Path_43543" data-name="Path 43543" d="M50.646,12.557a1,1,0,0,1-.133,1.355,1.418,1.418,0,0,1-.937.282H47.789V10.359h1.727a1.42,1.42,0,0,1,.915.267.973.973,0,0,1,.153,1.29.927.927,0,0,1-.473.311.892.892,0,0,1,.535.33m-1.922-.647h.611a.54.54,0,0,0,.353-.1.361.361,0,0,0,.122-.3.369.369,0,0,0-.122-.3.535.535,0,0,0-.353-.1h-.611Zm1.051,1.423a.377.377,0,0,0,.129-.308.4.4,0,0,0-.134-.317.549.549,0,0,0-.369-.115h-.677v.847h.688a.555.555,0,0,0,.363-.107" fill="#fff"/>
    <path id="Path_43544" data-name="Path 43544" d="M54.159,12.2a1.12,1.12,0,0,1-.47.445,1.654,1.654,0,0,1-.787.17h-.579v1.376h-.934V10.359H52.9a1.731,1.731,0,0,1,.776.158,1.1,1.1,0,0,1,.475.437,1.268,1.268,0,0,1,.159.639,1.246,1.246,0,0,1-.153.609m-.929-.254a.547.547,0,0,0,0-.71.557.557,0,0,0-.4-.125h-.508v.961h.508a.557.557,0,0,0,.4-.126" fill="#fff"/>
    <path id="Path_43545" data-name="Path 43545" d="M19.057,16.257v2.312a.766.766,0,0,0,.171.535.642.642,0,0,0,.5.187.664.664,0,0,0,.507-.187.753.753,0,0,0,.176-.535V16.257h.942v2.307a1.642,1.642,0,0,1-.221.876,1.412,1.412,0,0,1-.592.539,1.863,1.863,0,0,1-.828.182,1.818,1.818,0,0,1-.818-.179,1.324,1.324,0,0,1-.57-.54,1.716,1.716,0,0,1-.21-.878V16.257Z" fill="#fff"/>
    <path id="Path_43546" data-name="Path 43546" d="M22.653,20.024a1.24,1.24,0,0,1-.537-.408,1.107,1.107,0,0,1-.212-.649h1a.483.483,0,0,0,.148.327.474.474,0,0,0,.33.113.519.519,0,0,0,.331-.1.322.322,0,0,0,.121-.267.316.316,0,0,0-.1-.237.783.783,0,0,0-.237-.154,3.863,3.863,0,0,0-.4-.138,4.288,4.288,0,0,1-.611-.231,1.129,1.129,0,0,1-.408-.342.949.949,0,0,1-.171-.589,1.013,1.013,0,0,1,.391-.845,1.608,1.608,0,0,1,1.019-.306,1.625,1.625,0,0,1,1.03.306,1.093,1.093,0,0,1,.418.851H23.754a.4.4,0,0,0-.137-.3.489.489,0,0,0-.325-.107.409.409,0,0,0-.276.09.331.331,0,0,0-.1.262.325.325,0,0,0,.176.292,2.9,2.9,0,0,0,.551.226,5.07,5.07,0,0,1,.608.242,1.159,1.159,0,0,1,.405.336.9.9,0,0,1,.171.567,1.11,1.11,0,0,1-.168.6,1.182,1.182,0,0,1-.488.43,1.673,1.673,0,0,1-.754.16,2,2,0,0,1-.76-.138" fill="#fff"/>
    <path id="Path_43547" data-name="Path 43547" d="M27.918,16.5a1.734,1.734,0,0,1,.708.681,2.154,2.154,0,0,1,0,2.018,1.723,1.723,0,0,1-.71.682,2.25,2.25,0,0,1-1.066.243H25.4V16.257H26.85a2.25,2.25,0,0,1,1.068.242m-.3,2.517a1.107,1.107,0,0,0,.3-.826,1.033,1.033,0,0,0-1.128-1.129h-.446v2.246h.446a1.133,1.133,0,0,0,.831-.291" fill="#fff"/>
    <path id="Path_43548" data-name="Path 43548" d="M34.97,22.573H8.835a1.36,1.36,0,0,0-1.083.537L.612,32.481A1.361,1.361,0,0,0,1.52,34.66l22.868,2.977Z" fill="#373464"/>
  </g>
</svg>
