<svg xmlns="http://www.w3.org/2000/svg" xmlns:xlink="http://www.w3.org/1999/xlink" width="46.298" height="73.535" viewBox="0 0 46.298 73.535">
  <defs>
    <clipPath id="clip-path">
      <rect id="Rectangle_21896" data-name="Rectangle 21896" width="46.298" height="73.535" fill="none"/>
    </clipPath>
  </defs>
  <g id="Group_39650" data-name="Group 39650" transform="translate(0)">
    <rect id="Rectangle_21895" data-name="Rectangle 21895" width="12.314" height="22.815" transform="translate(23.81 10.206)" fill="#e1ebf0"/>
    <g id="Group_39649" data-name="Group 39649" transform="translate(0 0)">
      <g id="Group_39648" data-name="Group 39648" clip-path="url(#clip-path)">
        <path id="Path_42980" data-name="Path 42980" d="M6.879,79.673v1.5c0,6.506.08,13.014-.04,19.518-.047,2.542.735,4.372,3.2,5.389h2.1c4.208-2.32,8.429-4.619,12.612-6.979a2.348,2.348,0,0,1,.921-.324V85.68q-9.4-.037-18.794-6.007" transform="translate(-2.671 -32.549)" fill="#48a6d9"/>
        <path id="Path_42981" data-name="Path 42981" d="M18.88,32.327c-2.263-1.369-4.489-2.805-6.658-4.311A3.908,3.908,0,0,1,11.2,22.564a4.247,4.247,0,0,1,5.655-1.312c1.015.57,1.972,1.237,3.025,1.905,1.055-1.532,2.091-3.044,3.126-4.544V0C10.333.068.012,10.121,0,22.434c-.013,12.349,10.3,22.423,23,22.5V32.506a4.164,4.164,0,0,1-4.122-.179" transform="translate(0 -0.002)" fill="#48a6d9"/>
        <path id="Path_42982" data-name="Path 42982" d="M38.968,99.1c4.183,2.364,8.4,4.666,12.608,6.989h2.1c2.459-1.02,3.242-2.851,3.2-5.39-.118-6.547-.04-13.1-.04-19.646V79.68q-9.6,6.045-19.088,6v13.1a2,2,0,0,1,1.219.314" transform="translate(-14.746 -32.552)" fill="#387ea5"/>
        <path id="Path_42983" data-name="Path 42983" d="M61.044,22.433C61.033,10.046,50.614-.022,37.829,0l-.08,0V18.611c.821-1.19,1.64-2.375,2.47-3.55a7.306,7.306,0,0,1,1.733-1.873,4.078,4.078,0,0,1,5.073.4,3.732,3.732,0,0,1,.821,4.975q-4.261,6.425-8.721,12.725A3.945,3.945,0,0,1,37.749,32.5V44.932c.048,0,.1,0,.144,0,12.761,0,23.162-10.109,23.151-22.5" transform="translate(-14.746 0)" fill="#387ea5"/>
      </g>
    </g>
  </g>
</svg>
