<svg xmlns="http://www.w3.org/2000/svg" width="80.038" height="80.039" viewBox="0 0 80.038 80.039">
  <g id="Group_39614" data-name="Group 39614" transform="translate(-1031 -4628)">
    <path id="Path_42001" data-name="Path 42001" d="M450.343,442.876a40.019,40.019,0,1,1-40.02-40.02,40.02,40.02,0,0,1,40.02,40.02" transform="translate(660.695 4225.144)" fill="#004c79"/>
    <g id="Group_3980" data-name="Group 3980" transform="translate(1049.371 4746.996)">
      <path id="Path_9538" data-name="Path 9538" d="M1.706-61.163l.886-2.155a1.367,1.367,0,0,1,1.277-.854H5.114L6.647-75.831a2.02,2.02,0,0,1-2.034-2.007v-1.036a.586.586,0,0,1,.581-.582h8.2a.585.585,0,0,1,.589.582v1.049a1.994,1.994,0,0,1-.6,1.419,2.049,2.049,0,0,1-1.438.588l1.546,11.646h3.425l1.536-11.658a2.02,2.02,0,0,1-2.034-2.007v-1.036a.585.585,0,0,1,.589-.582h8.574a.591.591,0,0,1,.421.168.578.578,0,0,1,.176.414v1.049a1.994,1.994,0,0,1-.6,1.419,2.049,2.049,0,0,1-1.438.588L25.681-64.16l3.428,0,1.546-11.669a2.02,2.02,0,0,1-2.034-2.006v-1.036a.585.585,0,0,1,.589-.582h8.2a.592.592,0,0,1,.416.171.577.577,0,0,1,.173.411v1.049a1.994,1.994,0,0,1-.6,1.419,2.049,2.049,0,0,1-1.438.588L37.5-64.16H38.74v0a1.373,1.373,0,0,1,1.269.843l.866,2.151a1.082,1.082,0,0,1-.1,1.009,1.113,1.113,0,0,1-.9.488H2.735a1.108,1.108,0,0,1-.915-.478,1.075,1.075,0,0,1-.114-1.014ZM2.421-83.5V-85.5a1.272,1.272,0,0,1,.529-1.027L19.268-98.4a3.123,3.123,0,0,1,3.66,0l16.354,11.87a1.272,1.272,0,0,1,.524,1.028V-83.5a1.076,1.076,0,0,1-.321.765,1.107,1.107,0,0,1-.777.318H3.524a1.1,1.1,0,0,1-.777-.315,1.078,1.078,0,0,1-.326-.765Zm16-5.83a2.641,2.641,0,0,0,1.651,2.439,2.7,2.7,0,0,0,2.917-.572,2.615,2.615,0,0,0,.58-2.878,2.677,2.677,0,0,0-2.472-1.63,2.658,2.658,0,0,0-2.675,2.641Z" transform="translate(0 0)" fill="#fff"/>
    </g>
  </g>
</svg>
