<svg xmlns="http://www.w3.org/2000/svg" xmlns:xlink="http://www.w3.org/1999/xlink" width="63" height="63" viewBox="0 0 63 63">
  <defs>
    <clipPath id="clip-path">
      <rect id="Rectangle_21858" data-name="Rectangle 21858" width="63" height="63" transform="translate(231 839)" fill="none" stroke="#707070" stroke-width="1"/>
    </clipPath>
    <clipPath id="clip-path-2">
      <rect id="Rectangle_21198" data-name="Rectangle 21198" width="57.617" height="62.907" fill="#373464"/>
    </clipPath>
  </defs>
  <g id="Mask_Group_7261" data-name="Mask Group 7261" transform="translate(-231 -839)" clip-path="url(#clip-path)">
    <g id="Group_39125" data-name="Group 39125" transform="translate(233.692 839)">
      <g id="Group_39124" data-name="Group 39124" transform="translate(0 0)" clip-path="url(#clip-path-2)">
        <path id="Path_41443" data-name="Path 41443" d="M54,39.175,31.92,39.11V54.357l18.983.054h.076a3.772,3.772,0,0,0,3.747-3.8l.033-10.673v-.087A.72.72,0,0,0,54,39.175M49.389,49.838l-10.673-.033a.762.762,0,0,1,.011-1.525l10.673.033a.758.758,0,0,1,.762.762.767.767,0,0,1-.773.762m.784-3.725a.737.737,0,0,1-.773.675l-6.1-.022h-.087A.7.7,0,0,1,42.55,46v-.087a.719.719,0,0,1,.762-.675l6.088.022a.151.151,0,0,1,.1,0,.72.72,0,0,1,.675.762Z" transform="translate(2.844 3.485)" fill="#373464"/>
        <path id="Path_41444" data-name="Path 41444" d="M54.771,34.514v1.6a.721.721,0,0,1-.682.758.177.177,0,0,1-.083,0l-22.083-.059v-6.1l19.044.053a3.779,3.779,0,0,1,3.8,3.75" transform="translate(2.845 2.737)" fill="#373464"/>
        <path id="Path_41445" data-name="Path 41445" d="M30.223,5.76H26.748V9.278h1.83v2.832H4.248V9.278h1.83V5.76H2.81A2.824,2.824,0,0,0,0,8.57V59.584a2.817,2.817,0,0,0,2.81,2.81H30.223a2.814,2.814,0,0,0,2.8-2.81V8.57a2.822,2.822,0,0,0-2.8-2.81M10.259,57.34A.558.558,0,0,1,9.7,57.9H4.171a.558.558,0,0,1-.555-.555v-.86a.551.551,0,0,1,.555-.555H9.7a.551.551,0,0,1,.555.555ZM4.792,46.471H9.083a.558.558,0,0,1,.555.555v4.291a.558.558,0,0,1-.555.555H4.792a.558.558,0,0,1-.555-.555V47.026a.558.558,0,0,1,.555-.555m-.555-4.607V37.573a.558.558,0,0,1,.555-.555H9.083a.558.558,0,0,1,.555.555v4.291a.558.558,0,0,1-.555.555H4.792a.558.558,0,0,1-.555-.555M19.571,57.34a.558.558,0,0,1-.555.555H13.483a.558.558,0,0,1-.555-.555v-.86a.551.551,0,0,1,.555-.555h5.533a.551.551,0,0,1,.555.555ZM14.1,46.471H18.4a.558.558,0,0,1,.555.555v4.291a.558.558,0,0,1-.555.555H14.1a.558.558,0,0,1-.555-.555V47.026a.558.558,0,0,1,.555-.555m-.555-4.607V37.573a.558.558,0,0,1,.555-.555H18.4a.558.558,0,0,1,.555.555v4.291a.558.558,0,0,1-.555.555H14.1a.558.558,0,0,1-.555-.555M28.883,57.34a.558.558,0,0,1-.555.555H22.795a.558.558,0,0,1-.555-.555v-.86a.551.551,0,0,1,.555-.555h5.533a.551.551,0,0,1,.555.555ZM23.416,46.471h4.291a.558.558,0,0,1,.555.555v4.291a.558.558,0,0,1-.555.555H23.416a.558.558,0,0,1-.555-.555V47.026a.558.558,0,0,1,.555-.555m-.555-4.607V37.573a.558.558,0,0,1,.555-.555h4.291a.558.558,0,0,1,.555.555v4.291a.558.558,0,0,1-.555.555H23.416a.558.558,0,0,1-.555-.555M28.938,29.11a2.584,2.584,0,0,1-2.57,2.581H6.2A2.594,2.594,0,0,1,3.616,29.11V17.925A2.584,2.584,0,0,1,6.2,15.355h20.17a2.575,2.575,0,0,1,2.57,2.57Z" transform="translate(0 0.514)" fill="#373464"/>
        <path id="Path_41446" data-name="Path 41446" d="M24.671.371a3.079,3.079,0,0,0-.194,1.4c.005.54.005,1.087.005,1.628v7.641H6.843s.007-2.386.007-4.767c0-1.575,0-3.151-.007-4.032C6.831.036,8.066.007,8.066.007h.5c1.128,0,2.257,0,3.379.007,1.687,0,3.368,0,5.055.005,2.651,0,5.3-.041,7.953,0a1.429,1.429,0,0,0-.282.353" transform="translate(0.61 0)" fill="#373464"/>
      </g>
    </g>
  </g>
</svg>
