<svg xmlns="http://www.w3.org/2000/svg" width="72" height="86.001" viewBox="0 0 72 86.001">
  <g id="Shopping_bag" data-name="Shopping bag" transform="translate(-8 -0.999)">
    <path id="Path_41486" data-name="Path 41486" d="M62.436,27.289c-.03,0-.061,0-.092,0a1,1,0,0,1-.905-1.087l.83-9.134A12.9,12.9,0,1,0,36.581,14.73l-.939,10.328a1,1,0,1,1-1.992-.182l.939-10.328a14.9,14.9,0,1,1,29.673,2.7l-.83,9.134a1,1,0,0,1-1,.909Z" transform="translate(0 0)" fill="#005c8a"/>
    <path id="Path_41487" data-name="Path 41487" d="M24.174,28.852c-.03,0-.06,0-.091,0a1,1,0,0,1-.906-1.087l1.2-13.212a14.9,14.9,0,0,1,29.673,2.7l-.723,7.95a1,1,0,0,1-1.992-.182l.723-7.95A12.9,12.9,0,1,0,26.37,14.73l-1.2,13.212a1,1,0,0,1-1,.909Z" transform="translate(0 0)" fill="#005c8a"/>
    <path id="Path_41488" data-name="Path 41488" d="M64,21,58,87H8l6-66Z" transform="translate(0 0)" fill="#005c8a"/>
    <path id="Path_41489" data-name="Path 41489" d="M80,87,74,21H64L58,87Z" transform="translate(0 0)" fill="#48a6d9"/>
    <path id="Path_41490" data-name="Path 41490" d="M80,87,69,79V21h5Z" transform="translate(0 0)" fill="#e0ebf0"/>
    <path id="Path_41491" data-name="Path 41491" d="M80,87H58l11-8Z" transform="translate(0 0)" fill="#005c8a"/>
  </g>
</svg>
