<svg xmlns="http://www.w3.org/2000/svg" xmlns:xlink="http://www.w3.org/1999/xlink" width="63" height="63" viewBox="0 0 63 63">
  <defs>
    <clipPath id="clip-path">
      <rect id="Rectangle_21859" data-name="Rectangle 21859" width="63" height="63" transform="translate(687 839)" fill="none" stroke="#707070" stroke-width="1"/>
    </clipPath>
  </defs>
  <g id="Mask_Group_7262" data-name="Mask Group 7262" transform="translate(-687 -839)" clip-path="url(#clip-path)">
    <path id="padlock-2" d="M36.033,20.59H34.317V13.727a13.727,13.727,0,0,0-27.453,0V20.59H5.148A5.154,5.154,0,0,0,0,25.738V49.759a5.154,5.154,0,0,0,5.148,5.148H36.033a5.154,5.154,0,0,0,5.148-5.148V25.738A5.154,5.154,0,0,0,36.033,20.59ZM11.439,13.727a9.151,9.151,0,0,1,18.3,0V20.59h-18.3Zm11.439,24.53v5.212a2.288,2.288,0,0,1-4.576,0V38.256a4.576,4.576,0,1,1,4.576,0Z" transform="translate(697.91 843.047)" fill="#373464"/>
  </g>
</svg>
