<svg id="Group_39739" data-name="Group 39739" xmlns="http://www.w3.org/2000/svg" width="59.737" height="59.037" viewBox="0 0 59.737 59.037">
  <path id="Path_9516" data-name="Path 9516" d="M44.537-74.295a1.384,1.384,0,0,0-.156-1.812,1.378,1.378,0,0,0-1.815-.087L17.885-55.188,4.818-60.246A3.164,3.164,0,0,1,2.786-63a3.168,3.168,0,0,1,1.666-2.991L58.542-96.3a2.667,2.667,0,0,1,2.771.091,2.664,2.664,0,0,1,1.189,2.5L57.711-44.242a3.267,3.267,0,0,1-1.538,2.465,3.273,3.273,0,0,1-2.892.274L37.41-47.641l-9.955,9.335a2.571,2.571,0,0,1-2.791.482,2.575,2.575,0,0,1-1.538-2.381v-7.3Z" transform="translate(-2.78 96.646)" fill="#005c8a"/>
</svg>
