<svg xmlns="http://www.w3.org/2000/svg" width="56.763" height="59.037" viewBox="0 0 56.763 59.037">
  <g id="Group_40032" data-name="Group 40032" transform="translate(-216.091 -2057.963)">
    <g id="Group_2" data-name="Group 2" transform="translate(191.56 2040.423)">
      <path id="Path_10750" data-name="Path 10750" d="M49.77,59.706h1.239l-.455-2.186Z" transform="translate(6.661 10.551)" fill="#005c8a"/>
      <path id="Path_10751" data-name="Path 10751" d="M55.938,17.54H32.077a7.773,7.773,0,0,0-7.546,7.748V68.829a7.727,7.727,0,0,0,7.546,7.722h6.649v.026H55.951a7.752,7.752,0,0,0,7.76-7.748V25.288h0a7.746,7.746,0,0,0-7.773-7.748Zm-4.221,4.575v6.712a1.279,1.279,0,0,0,.759,1.352l.063.026v1.012l-.43-.114a2.176,2.176,0,0,1-1.415-2.286l-.026-5.663L51.7,22.117Zm-3.905,6.913a1.632,1.632,0,0,0,.467-3.149l-.253-.089L48.813,25l.089.063a2.623,2.623,0,0,1-.013,4.664h-.026a2.583,2.583,0,0,1-3.464-1.2l-.038-.089.809-.809.063.253a1.574,1.574,0,0,0,1.5,1.127H47.8Zm-3.893-3.7h0a2.545,2.545,0,0,1,3.451,1.163l.05.114-.809.809-.063-.266a1.507,1.507,0,0,0-1.5-1.1H44.98a1.574,1.574,0,0,0-1.5,1.618,1.6,1.6,0,0,0,1.062,1.529l.253.089L44,30.052,43.889,30a2.548,2.548,0,0,1-1.416-2.338,2.589,2.589,0,0,1,1.466-2.338ZM32.846,28.561a1.808,1.808,0,0,1-2.009,1.593,1.9,1.9,0,0,1-2.085-1.706l-.063-.354h1.15l.05.2a.861.861,0,0,0,.948.733c.543,0,.9-.253.9-.632,0-.341-.139-.492-.582-.695l-1.012-.492c-.834-.382-1.213-.862-1.213-1.582V25.5a1.729,1.729,0,0,1,1.883-1.555,1.8,1.8,0,0,1,1.946,1.529l.05.367H31.659l-.026-.2a.754.754,0,0,0-.834-.582c-.43,0-.746.227-.746.569,0,.139,0,.3.519.543l.984.467a1.843,1.843,0,0,1,1.3,1.771v.152ZM37.6,30.153H36.587v-.266a1.9,1.9,0,0,1-1.15.4h-.113a1.878,1.878,0,0,1-1.795-1.959V25.676h1.036v2.768a.853.853,0,0,0,.9.822c.695,0,1.1-.72,1.1-1.416V25.679H37.6Zm2.288.152a1.878,1.878,0,0,1-1.795-1.959V25.689h1.036v2.768a.853.853,0,0,0,.9.822c.695,0,1.1-.72,1.1-1.416V25.692h1.036v6.18L41.15,32.884V29.876a1.721,1.721,0,0,1-1.137.43H39.9ZM43.921,72.32l-1.2-4.637a.673.673,0,0,0-.354-.506,6.166,6.166,0,0,0-1.476-.492l.038-.164h2.553a.706.706,0,0,1,.695.59l.632,3.362,1.567-3.956h1.58L45.514,72.33H43.919Zm3.425,0L48.582,66.5h1.5l-1.239,5.814Zm4.208.1a4.7,4.7,0,0,1-1.673-.3l.278-1.279A3.149,3.149,0,0,0,51.7,71.2c.43,0,.9-.177.9-.569,0-.253-.215-.443-.787-.72s-1.327-.746-1.315-1.58c.013-1.137,1.062-1.921,2.541-1.921a4.053,4.053,0,0,1,1.4.253l-.266,1.226a2.993,2.993,0,0,0-1.476-.266c-.43.05-.632.278-.632.492-.013.683,2.111.771,2.111,2.3h0c0,1.213-1.036,2-2.616,2Zm6.547-.1-.177-.872H55.987l-.316.872H54.093l2.249-5.384a.675.675,0,0,1,.644-.43h1.279l1.213,5.814H58.087Z" fill="#005c8a"/>
    </g>
    <g id="Group_40031" data-name="Group 40031" transform="translate(37.316 2057.963)">
      <g id="_x33__12_" transform="translate(222.874 0)">
        <g id="Group_40030" data-name="Group 40030">
          <path id="Path_43627" data-name="Path 43627" d="M233.982,44.967l-3.865,7.855V6.213l3.865,7.855c.356.723.933.723,1.289,0a3.348,3.348,0,0,0,0-2.619L229.9.527c-.19-.385-.442-.55-.69-.524-.249-.028-.5.136-.69.524L223.141,11.45a3.348,3.348,0,0,0,0,2.619c.356.723.933.723,1.289,0l3.865-7.855V52.822l-3.865-7.855c-.356-.723-.933-.723-1.289,0a3.348,3.348,0,0,0,0,2.619l5.375,10.925c.19.385.442.55.69.524.249.026.5-.138.69-.524l5.375-10.925a3.348,3.348,0,0,0,0-2.619C234.914,44.244,234.338,44.244,233.982,44.967Z" transform="translate(-222.874 0)" fill="#005c8a"/>
        </g>
      </g>
    </g>
  </g>
</svg>
