<svg xmlns="http://www.w3.org/2000/svg" width="91" height="91" viewBox="0 0 91 91">
  <g id="Group_39985" data-name="Group 39985" transform="translate(45 -2799)">
    <path id="Path_43515" data-name="Path 43515" d="M45.5,0A45.5,45.5,0,1,1,0,45.5,45.5,45.5,0,0,1,45.5,0Z" transform="translate(-45 2799)" fill="#f4f4f4"/>
    <g id="icon" transform="translate(-68 2736.001)">
      <path id="Path_43528" data-name="Path 43528" d="M98.467,94.234H92.742V86a6.008,6.008,0,0,0-6-6H38a6.008,6.008,0,0,0-6,6v30.727a6.008,6.008,0,0,0,6,6h5.763v8.209a6.006,6.006,0,0,0,6,6h48.7a6.007,6.007,0,0,0,6-6v-30.7A6.006,6.006,0,0,0,98.467,94.234Z" fill="#226d96"/>
      <g id="Group_39995" data-name="Group 39995" transform="translate(35.882 83.881)">
        <path id="Path_43529" data-name="Path 43529" d="M106.858,104H58.119A2.125,2.125,0,0,0,56,106.119V109.3h52.977v-3.179A2.126,2.126,0,0,0,106.858,104Z" transform="translate(-56 -104)" fill="#aab2bc"/>
        <path id="Path_43530" data-name="Path 43530" d="M106.858,117.1H58.119A2.125,2.125,0,0,0,56,119.22v1.126h52.977V119.22A2.126,2.126,0,0,0,106.858,117.1Z" transform="translate(-56 -114.982)" fill="#f2faff"/>
        <path id="Path_43531" data-name="Path 43531" d="M108.977,153.318a2.126,2.126,0,0,1-2.119,2.119H58.119A2.126,2.126,0,0,1,56,153.318V125.77a2.125,2.125,0,0,1,2.119-2.119h48.739a2.126,2.126,0,0,1,2.119,2.119Z" transform="translate(-56 -120.472)" fill="#fff"/>
        <path id="Path_43532" data-name="Path 43532" d="M75.651,248.107v7.417a1.063,1.063,0,0,0,1.06,1.06h44.5a1.063,1.063,0,0,0,1.06-1.06v-7.417Z" transform="translate(-72.472 -224.797)" fill="#ffa329"/>
        <path id="Path_43533" data-name="Path 43533" d="M121.211,143.3H76.71a1.063,1.063,0,0,0-1.059,1.06v7.417h46.62v-7.417A1.063,1.063,0,0,0,121.211,143.3Z" transform="translate(-72.472 -136.945)" fill="#2b80cc"/>
      </g>
      <path id="Path_43534" data-name="Path 43534" d="M110.727,168a6.006,6.006,0,0,0-6,6v18.587H149.9V168Z" transform="translate(-60.963 -73.766)" fill="#333" opacity="0.5"/>
      <g id="Group_39996" data-name="Group 39996" transform="translate(47.646 98.116)">
        <path id="Path_43535" data-name="Path 43535" d="M179.548,192h-48.7a2.124,2.124,0,0,0-2.118,2.118v3.176h52.938v-3.176A2.124,2.124,0,0,0,179.548,192Z" transform="translate(-128.727 -192)" fill="#aab2bc"/>
        <path id="Path_43536" data-name="Path 43536" d="M179.548,205.091h-48.7a2.124,2.124,0,0,0-2.118,2.118v1.125h52.938v-1.125A2.124,2.124,0,0,0,179.548,205.091Z" transform="translate(-128.727 -202.973)" fill="#f2faff"/>
        <path id="Path_43537" data-name="Path 43537" d="M181.665,241.281a2.124,2.124,0,0,1-2.118,2.118h-48.7a2.124,2.124,0,0,1-2.118-2.118V213.754a2.124,2.124,0,0,1,2.118-2.118h48.7a2.124,2.124,0,0,1,2.118,2.118Z" transform="translate(-128.727 -208.46)" fill="#fff"/>
        <circle id="Ellipse_514" data-name="Ellipse 514" cx="10.588" cy="10.588" r="10.588" transform="translate(22.234 8.47)" fill="#ffa914"/>
        <path id="Path_43538" data-name="Path 43538" d="M200.342,254.95q0-.476.042-.941h8.384a10.546,10.546,0,0,0-.34-1.882h-7.706a10.513,10.513,0,0,1,.721-1.882h6.265a10.587,10.587,0,0,0-1.2-1.882h-3.869a10.651,10.651,0,0,1,1.936-1.883,10.588,10.588,0,1,0,0,16.94,10.651,10.651,0,0,1-1.936-1.883h3.869a10.578,10.578,0,0,0,1.2-1.882h-6.265a10.507,10.507,0,0,1-.721-1.882h7.706a10.546,10.546,0,0,0,.34-1.883h-8.384Q200.343,255.426,200.342,254.95Z" transform="translate(-178.108 -235.892)" fill="#ef4136"/>
      </g>
    </g>
  </g>
</svg>
