<svg xmlns="http://www.w3.org/2000/svg" xmlns:xlink="http://www.w3.org/1999/xlink" width="357" height="239" viewBox="0 0 357 239">
  <defs>
    <filter id="Rectangle_20727" x="0" y="0" width="357" height="239" filterUnits="userSpaceOnUse">
      <feOffset dy="3" input="SourceAlpha"/>
      <feGaussianBlur stdDeviation="3" result="blur"/>
      <feFlood flood-opacity="0.161"/>
      <feComposite operator="in" in2="blur"/>
      <feComposite in="SourceGraphic"/>
    </filter>
  </defs>
  <g id="Group_39158" data-name="Group 39158" transform="translate(-9 -182)">
    <g transform="matrix(1, 0, 0, 1, 9, 182)" filter="url(#Rectangle_20727)">
      <rect id="Rectangle_20727-2" data-name="Rectangle 20727" width="339" height="221" rx="7" transform="translate(9 6)" fill="#14254b"/>
    </g>
    <path id="Android_UI" data-name="Android UI" d="M-98.475-21.06a12.25,12.25,0,0,1,5.82,1.32,9.43,9.43,0,0,1,3.855,3.7,10.886,10.886,0,0,1,1.365,5.5A10.908,10.908,0,0,1-88.8-5.04a9.381,9.381,0,0,1-3.87,3.72A12.272,12.272,0,0,1-98.475,0h-7.89V-21.06Zm-.33,16.62a6.191,6.191,0,0,0,4.53-1.59,6.02,6.02,0,0,0,1.62-4.5,6.124,6.124,0,0,0-1.62-4.53,6.124,6.124,0,0,0-4.53-1.62h-2.43V-4.44ZM-76.935.21a10.833,10.833,0,0,1-4.14-.75A6.748,6.748,0,0,1-84-2.76,6.065,6.065,0,0,1-85.155-6.3h5.46a2.649,2.649,0,0,0,.81,1.785,2.6,2.6,0,0,0,1.8.615,2.815,2.815,0,0,0,1.8-.525,1.756,1.756,0,0,0,.66-1.455,1.722,1.722,0,0,0-.525-1.29,4.235,4.235,0,0,0-1.29-.84,20.751,20.751,0,0,0-2.175-.75,23.682,23.682,0,0,1-3.33-1.26,6.153,6.153,0,0,1-2.22-1.86,5.183,5.183,0,0,1-.93-3.21,5.52,5.52,0,0,1,2.13-4.6,8.752,8.752,0,0,1,5.55-1.665,8.854,8.854,0,0,1,5.61,1.665,5.96,5.96,0,0,1,2.28,4.635h-5.55a2.171,2.171,0,0,0-.75-1.6,2.642,2.642,0,0,0-1.77-.585,2.206,2.206,0,0,0-1.5.5,1.785,1.785,0,0,0-.57,1.425,1.766,1.766,0,0,0,.96,1.59,15.737,15.737,0,0,0,3,1.23,27.744,27.744,0,0,1,3.315,1.32,6.311,6.311,0,0,1,2.2,1.83,4.9,4.9,0,0,1,.93,3.09A6.063,6.063,0,0,1-70.17-3,6.408,6.408,0,0,1-72.825-.66,9.089,9.089,0,0,1-76.935.21Zm15.96-4.17h6.72V0h-11.85V-21.06h5.13Zm30.69-17.1v4.11h-5.58V0H-41V-16.95h-5.58v-4.11Zm18.36,12.42a13.1,13.1,0,0,1-.09,1.5h-11.61a3.489,3.489,0,0,0,1,2.385,3.07,3.07,0,0,0,2.175.825,2.7,2.7,0,0,0,2.67-1.62h5.46A7.492,7.492,0,0,1-13.83-2.58,7.585,7.585,0,0,1-16.575-.51a8.817,8.817,0,0,1-3.69.75,8.979,8.979,0,0,1-4.38-1.05,7.469,7.469,0,0,1-3-3,9.262,9.262,0,0,1-1.08-4.56,9.367,9.367,0,0,1,1.065-4.56,7.372,7.372,0,0,1,2.985-3,9.042,9.042,0,0,1,4.41-1.05,8.952,8.952,0,0,1,4.32,1.02,7.324,7.324,0,0,1,2.955,2.91A8.833,8.833,0,0,1-11.925-8.64Zm-5.25-1.35a2.638,2.638,0,0,0-.9-2.1,3.313,3.313,0,0,0-2.25-.78,3.249,3.249,0,0,0-2.175.75A3.331,3.331,0,0,0-23.6-9.99ZM-4.1-13.95a6.767,6.767,0,0,1,2.25-2.175,5.8,5.8,0,0,1,3-.8v5.43H-.255a4.322,4.322,0,0,0-2.88.825A3.665,3.665,0,0,0-4.1-7.77V0h-5.13V-16.74H-4.1Zm12.84,0a6.767,6.767,0,0,1,2.25-2.175,5.8,5.8,0,0,1,3-.8v5.43h-1.41a4.322,4.322,0,0,0-2.88.825,3.665,3.665,0,0,0-.96,2.895V0H3.615V-16.74h5.13Zm6.69,5.55a10,10,0,0,1,.975-4.53,7.273,7.273,0,0,1,2.655-3,6.931,6.931,0,0,1,3.75-1.05,6.442,6.442,0,0,1,3.105.72,5.3,5.3,0,0,1,2.055,1.89v-2.37H33.1V0h-5.13V-2.37A5.54,5.54,0,0,1,25.89-.48a6.442,6.442,0,0,1-3.1.72,6.807,6.807,0,0,1-3.72-1.065,7.359,7.359,0,0,1-2.655-3.03A10.1,10.1,0,0,1,15.435-8.4Zm12.54.03A4.194,4.194,0,0,0,26.91-11.4a3.46,3.46,0,0,0-2.595-1.11,3.483,3.483,0,0,0-2.6,1.1A4.141,4.141,0,0,0,20.655-8.4,4.248,4.248,0,0,0,21.72-5.355a3.438,3.438,0,0,0,2.6,1.125A3.46,3.46,0,0,0,26.91-5.34,4.194,4.194,0,0,0,27.975-8.37Zm31.26-5.91a6.782,6.782,0,0,1-.84,3.345,6.176,6.176,0,0,1-2.58,2.445,9.083,9.083,0,0,1-4.32.93h-3.18V0h-5.13V-21.06h8.31a9.457,9.457,0,0,1,4.26.87,5.979,5.979,0,0,1,2.61,2.4A6.976,6.976,0,0,1,59.235-14.28ZM51.1-11.64a3.06,3.06,0,0,0,2.19-.69,2.574,2.574,0,0,0,.72-1.95,2.574,2.574,0,0,0-.72-1.95,3.06,3.06,0,0,0-2.19-.69h-2.79v5.28ZM67.035-22.2V0H61.9V-22.2Zm2.7,13.8a10,10,0,0,1,.975-4.53,7.273,7.273,0,0,1,2.655-3,6.931,6.931,0,0,1,3.75-1.05,6.442,6.442,0,0,1,3.1.72,5.3,5.3,0,0,1,2.055,1.89v-2.37H87.4V0h-5.13V-2.37A5.54,5.54,0,0,1,80.19-.48a6.442,6.442,0,0,1-3.1.72,6.807,6.807,0,0,1-3.72-1.065,7.359,7.359,0,0,1-2.655-3.03A10.1,10.1,0,0,1,69.735-8.4Zm12.54.03A4.194,4.194,0,0,0,81.21-11.4a3.46,3.46,0,0,0-2.6-1.11,3.483,3.483,0,0,0-2.6,1.1A4.141,4.141,0,0,0,74.955-8.4,4.248,4.248,0,0,0,76.02-5.355a3.438,3.438,0,0,0,2.6,1.125,3.46,3.46,0,0,0,2.6-1.11A4.194,4.194,0,0,0,82.275-8.37Zm25.95-8.37L97.725,7.95h-5.52l3.84-8.52-6.81-16.17h5.73l3.87,10.47,3.84-10.47Z" transform="translate(188 309)" fill="#fff"/>
  </g>
</svg>
