<svg xmlns="http://www.w3.org/2000/svg" xmlns:xlink="http://www.w3.org/1999/xlink" width="357" height="239" viewBox="0 0 357 239">
  <defs>
    <filter id="Rectangle_20727" x="0" y="0" width="357" height="239" filterUnits="userSpaceOnUse">
      <feOffset dy="3" input="SourceAlpha"/>
      <feGaussianBlur stdDeviation="3" result="blur"/>
      <feFlood flood-opacity="0.161"/>
      <feComposite operator="in" in2="blur"/>
      <feComposite in="SourceGraphic"/>
    </filter>
  </defs>
  <g id="Group_39159" data-name="Group 39159" transform="translate(-9 -182)">
    <g transform="matrix(1, 0, 0, 1, 9, 182)" filter="url(#Rectangle_20727)">
      <rect id="Rectangle_20727-2" data-name="Rectangle 20727" width="339" height="221" rx="7" transform="translate(9 6)" fill="#14254b"/>
    </g>
    <path id="Android_UI" data-name="Android UI" d="M-110.67-21.06a12.25,12.25,0,0,1,5.82,1.32,9.43,9.43,0,0,1,3.855,3.7,10.886,10.886,0,0,1,1.365,5.5,10.908,10.908,0,0,1-1.365,5.49,9.381,9.381,0,0,1-3.87,3.72A12.272,12.272,0,0,1-110.67,0h-7.89V-21.06ZM-111-4.44a6.191,6.191,0,0,0,4.53-1.59,6.02,6.02,0,0,0,1.62-4.5,6.124,6.124,0,0,0-1.62-4.53A6.124,6.124,0,0,0-111-16.68h-2.43V-4.44ZM-89.13.21a10.833,10.833,0,0,1-4.14-.75,6.748,6.748,0,0,1-2.925-2.22A6.065,6.065,0,0,1-97.35-6.3h5.46a2.649,2.649,0,0,0,.81,1.785,2.6,2.6,0,0,0,1.8.615,2.815,2.815,0,0,0,1.8-.525,1.756,1.756,0,0,0,.66-1.455,1.722,1.722,0,0,0-.525-1.29,4.235,4.235,0,0,0-1.29-.84,20.751,20.751,0,0,0-2.175-.75,23.682,23.682,0,0,1-3.33-1.26,6.153,6.153,0,0,1-2.22-1.86,5.183,5.183,0,0,1-.93-3.21,5.52,5.52,0,0,1,2.13-4.6,8.752,8.752,0,0,1,5.55-1.665A8.854,8.854,0,0,1-84-19.695a5.96,5.96,0,0,1,2.28,4.635h-5.55a2.171,2.171,0,0,0-.75-1.6,2.642,2.642,0,0,0-1.77-.585,2.206,2.206,0,0,0-1.5.5,1.785,1.785,0,0,0-.57,1.425,1.766,1.766,0,0,0,.96,1.59,15.737,15.737,0,0,0,3,1.23,27.744,27.744,0,0,1,3.315,1.32,6.311,6.311,0,0,1,2.2,1.83,4.9,4.9,0,0,1,.93,3.09A6.063,6.063,0,0,1-82.365-3,6.408,6.408,0,0,1-85.02-.66,9.089,9.089,0,0,1-89.13.21Zm15.96-4.17h6.72V0H-78.3V-21.06h5.13Zm30.69-17.1v4.11h-5.58V0h-5.13V-16.95h-5.58v-4.11ZM-24.12-8.64a13.1,13.1,0,0,1-.09,1.5H-35.82a3.489,3.489,0,0,0,1.005,2.385,3.07,3.07,0,0,0,2.175.825,2.7,2.7,0,0,0,2.67-1.62h5.46a7.492,7.492,0,0,1-1.515,2.97A7.585,7.585,0,0,1-28.77-.51a8.817,8.817,0,0,1-3.69.75A8.979,8.979,0,0,1-36.84-.81a7.469,7.469,0,0,1-3-3,9.262,9.262,0,0,1-1.08-4.56,9.367,9.367,0,0,1,1.065-4.56,7.372,7.372,0,0,1,2.985-3,9.042,9.042,0,0,1,4.41-1.05,8.952,8.952,0,0,1,4.32,1.02,7.324,7.324,0,0,1,2.955,2.91A8.833,8.833,0,0,1-24.12-8.64Zm-5.25-1.35a2.638,2.638,0,0,0-.9-2.1,3.313,3.313,0,0,0-2.25-.78,3.249,3.249,0,0,0-2.175.75A3.331,3.331,0,0,0-35.79-9.99Zm13.08-3.96a6.767,6.767,0,0,1,2.25-2.175,5.8,5.8,0,0,1,3-.8v5.43h-1.41a4.322,4.322,0,0,0-2.88.825,3.665,3.665,0,0,0-.96,2.895V0h-5.13V-16.74h5.13Zm12.84,0A6.767,6.767,0,0,1-1.2-16.125a5.8,5.8,0,0,1,3-.8v5.43H.39a4.322,4.322,0,0,0-2.88.825A3.665,3.665,0,0,0-3.45-7.77V0H-8.58V-16.74h5.13ZM3.24-8.4a10,10,0,0,1,.975-4.53,7.273,7.273,0,0,1,2.655-3,6.931,6.931,0,0,1,3.75-1.05,6.442,6.442,0,0,1,3.105.72,5.3,5.3,0,0,1,2.055,1.89v-2.37h5.13V0H15.78V-2.37A5.54,5.54,0,0,1,13.7-.48a6.442,6.442,0,0,1-3.1.72A6.807,6.807,0,0,1,6.87-.825a7.359,7.359,0,0,1-2.655-3.03A10.1,10.1,0,0,1,3.24-8.4Zm12.54.03a4.194,4.194,0,0,0-1.065-3.03,3.46,3.46,0,0,0-2.595-1.11,3.483,3.483,0,0,0-2.6,1.1A4.141,4.141,0,0,0,8.46-8.4,4.248,4.248,0,0,0,9.525-5.355a3.438,3.438,0,0,0,2.6,1.125,3.46,3.46,0,0,0,2.595-1.11A4.194,4.194,0,0,0,15.78-8.37ZM49.23-21.06V0H44.1V-8.67H36.12V0H30.99V-21.06h5.13v8.25H44.1v-8.25ZM60.54.24A9.24,9.24,0,0,1,56.115-.81a7.688,7.688,0,0,1-3.09-3A8.964,8.964,0,0,1,51.9-8.37a8.892,8.892,0,0,1,1.14-4.545,7.735,7.735,0,0,1,3.12-3.015,9.328,9.328,0,0,1,4.44-1.05,9.328,9.328,0,0,1,4.44,1.05,7.735,7.735,0,0,1,3.12,3.015A8.892,8.892,0,0,1,69.3-8.37a8.8,8.8,0,0,1-1.155,4.545A7.81,7.81,0,0,1,64.995-.81,9.417,9.417,0,0,1,60.54.24Zm0-4.44a3.342,3.342,0,0,0,2.505-1.08A4.29,4.29,0,0,0,64.08-8.37a4.37,4.37,0,0,0-1-3.09A3.248,3.248,0,0,0,60.6-12.54a3.256,3.256,0,0,0-2.49,1.065,4.4,4.4,0,0,0-.99,3.1,4.457,4.457,0,0,0,.975,3.09A3.156,3.156,0,0,0,60.54-4.2ZM93.39-16.92a6.62,6.62,0,0,1,4.965,1.89A7.2,7.2,0,0,1,100.2-9.78V0H95.1V-9.09a3.459,3.459,0,0,0-.855-2.505,3.121,3.121,0,0,0-2.355-.885,3.121,3.121,0,0,0-2.355.885A3.459,3.459,0,0,0,88.68-9.09V0h-5.1V-9.09a3.459,3.459,0,0,0-.855-2.505,3.121,3.121,0,0,0-2.355-.885,3.121,3.121,0,0,0-2.355.885A3.459,3.459,0,0,0,77.16-9.09V0H72.03V-16.74h5.13v2.1a5.491,5.491,0,0,1,2.04-1.665,6.414,6.414,0,0,1,2.85-.615,6.933,6.933,0,0,1,3.375.81A5.807,5.807,0,0,1,87.75-13.8a6.743,6.743,0,0,1,2.37-2.25A6.4,6.4,0,0,1,93.39-16.92Zm26.19,8.28a13.1,13.1,0,0,1-.09,1.5H107.88a3.488,3.488,0,0,0,1,2.385,3.07,3.07,0,0,0,2.175.825,2.7,2.7,0,0,0,2.67-1.62h5.46a7.492,7.492,0,0,1-1.515,2.97A7.585,7.585,0,0,1,114.93-.51a8.817,8.817,0,0,1-3.69.75,8.979,8.979,0,0,1-4.38-1.05,7.469,7.469,0,0,1-3-3,9.262,9.262,0,0,1-1.08-4.56,9.367,9.367,0,0,1,1.065-4.56,7.372,7.372,0,0,1,2.985-3,9.042,9.042,0,0,1,4.41-1.05,8.952,8.952,0,0,1,4.32,1.02,7.324,7.324,0,0,1,2.955,2.91A8.833,8.833,0,0,1,119.58-8.64Zm-5.25-1.35a2.638,2.638,0,0,0-.9-2.1,3.313,3.313,0,0,0-2.25-.78,3.249,3.249,0,0,0-2.175.75,3.331,3.331,0,0,0-1.1,2.13Z" transform="translate(188 309)" fill="#fff"/>
  </g>
</svg>
