<svg xmlns="http://www.w3.org/2000/svg" xmlns:xlink="http://www.w3.org/1999/xlink" width="357" height="239.003" viewBox="0 0 357 239.003">
  <defs>
    <filter id="Path_41549" x="0" y="0" width="357" height="239" filterUnits="userSpaceOnUse">
      <feOffset dy="3" input="SourceAlpha"/>
      <feGaussianBlur stdDeviation="3" result="blur"/>
      <feFlood flood-opacity="0.161"/>
      <feComposite operator="in" in2="blur"/>
      <feComposite in="SourceGraphic"/>
    </filter>
    <filter id="Subtraction_1" x="0" y="0.001" width="356.999" height="239.002" filterUnits="userSpaceOnUse">
      <feOffset dy="3" input="SourceAlpha"/>
      <feGaussianBlur stdDeviation="3" result="blur-2"/>
      <feFlood flood-opacity="0.161"/>
      <feComposite operator="in" in2="blur-2"/>
      <feComposite in="SourceGraphic"/>
    </filter>
  </defs>
  <g id="Group_39161" data-name="Group 39161" transform="translate(-9 -178.999)">
    <g transform="matrix(1, 0, 0, 1, 9, 179)" filter="url(#Path_41549)">
      <path id="Path_41549-2" data-name="Path 41549" d="M7,0H332a7,7,0,0,1,7,7V214a7,7,0,0,1-7,7H7a7,7,0,0,1-7-7V7A7,7,0,0,1,7,0Z" transform="translate(9 6)" fill="#7c7f2a"/>
    </g>
    <g transform="matrix(1, 0, 0, 1, 9, 179)" filter="url(#Subtraction_1)">
      <path id="Subtraction_1-2" data-name="Subtraction 1" d="M-2530.512-11006.105h-325a7.009,7.009,0,0,1-7-7v-157.829c.518.083,1.033.19,1.534.319,6.783,1.746,13.032,5.46,18.546,8.737,5.95,3.536,11.087,6.589,15.6,6.589,3.128,0,5.713-1.519,7.9-4.642,3.941-5.642,1.625-12.535-.827-19.833-2.517-7.491-5.119-15.235-.483-21.646a6.57,6.57,0,0,1,3.333-2.358,15.024,15.024,0,0,1,4.872-.674c4.073,0,9.059.959,14.338,1.975l.787.151c6.062,1.162,11.486,2.124,16.486,2.124,8.583,0,13.7-2.922,16.111-9.2,2.079-5.416-.986-11.874-8.408-17.72h242.216a7.007,7.007,0,0,1,7,7v117.462c-4.769,9.687-10.9,14.6-18.236,14.6-.337,0-.675-.01-1-.03-6.991-.42-13.836-2.874-19.874-5.038l-.011,0c-5.293-1.9-10.292-3.689-14.34-3.689-4.3,0-7.183,1.991-9.085,6.266-2.792,6.29.8,12.615,4.6,19.312,3.9,6.873,7.931,13.979,4.6,21.155-1.121,2.42-3.683,3.9-8.062,4.648a88.86,88.86,0,0,1-13.845.69h-.014c-6.963.015-14.164.03-20.018,1.679-6.663,1.877-10.4,5.634-11.437,11.484-.556,3.15.429,6.257,2.927,9.233,6.538,7.793,22.132,13.028,38.8,13.028a75.973,75.973,0,0,0,32.817-7.238,70.691,70.691,0,0,1,13.474-5.045,47.133,47.133,0,0,1,11.639-1.473,52.682,52.682,0,0,1,7.066.5v9.467A7.007,7.007,0,0,1-2530.512-11006.105Z" transform="translate(2871.51 11233.11)" fill="#14254b"/>
    </g>
    <path id="Android_UI" data-name="Android UI" d="M-113.295-21.06a12.25,12.25,0,0,1,5.82,1.32,9.43,9.43,0,0,1,3.855,3.7,10.886,10.886,0,0,1,1.365,5.5,10.908,10.908,0,0,1-1.365,5.49,9.381,9.381,0,0,1-3.87,3.72A12.272,12.272,0,0,1-113.295,0h-7.89V-21.06Zm-.33,16.62a6.191,6.191,0,0,0,4.53-1.59,6.02,6.02,0,0,0,1.62-4.5,6.124,6.124,0,0,0-1.62-4.53,6.124,6.124,0,0,0-4.53-1.62h-2.43V-4.44ZM-91.755.21A10.833,10.833,0,0,1-95.9-.54,6.748,6.748,0,0,1-98.82-2.76,6.065,6.065,0,0,1-99.975-6.3h5.46a2.649,2.649,0,0,0,.81,1.785,2.6,2.6,0,0,0,1.8.615,2.815,2.815,0,0,0,1.8-.525,1.756,1.756,0,0,0,.66-1.455,1.722,1.722,0,0,0-.525-1.29,4.235,4.235,0,0,0-1.29-.84,20.751,20.751,0,0,0-2.175-.75,23.682,23.682,0,0,1-3.33-1.26,6.153,6.153,0,0,1-2.22-1.86,5.183,5.183,0,0,1-.93-3.21,5.52,5.52,0,0,1,2.13-4.6,8.752,8.752,0,0,1,5.55-1.665,8.854,8.854,0,0,1,5.61,1.665,5.96,5.96,0,0,1,2.28,4.635H-89.9a2.171,2.171,0,0,0-.75-1.6,2.642,2.642,0,0,0-1.77-.585,2.206,2.206,0,0,0-1.5.5,1.785,1.785,0,0,0-.57,1.425,1.766,1.766,0,0,0,.96,1.59,15.737,15.737,0,0,0,3,1.23,27.744,27.744,0,0,1,3.315,1.32,6.311,6.311,0,0,1,2.2,1.83,4.9,4.9,0,0,1,.93,3.09A6.063,6.063,0,0,1-84.99-3,6.408,6.408,0,0,1-87.645-.66,9.089,9.089,0,0,1-91.755.21ZM-75.8-3.96h6.72V0h-11.85V-21.06h5.13Zm25.5,4.17A10.991,10.991,0,0,1-55.74-1.17a10.316,10.316,0,0,1-3.93-3.855,10.774,10.774,0,0,1-1.455-5.565,10.694,10.694,0,0,1,1.455-5.55,10.349,10.349,0,0,1,3.93-3.84,10.991,10.991,0,0,1,5.445-1.38,10.991,10.991,0,0,1,5.445,1.38,10.132,10.132,0,0,1,3.9,3.84,10.869,10.869,0,0,1,1.425,5.55,10.861,10.861,0,0,1-1.44,5.565,10.239,10.239,0,0,1-3.9,3.855A10.908,10.908,0,0,1-50.295.21Zm0-4.68A5.168,5.168,0,0,0-46.26-6.15a6.378,6.378,0,0,0,1.515-4.44,6.366,6.366,0,0,0-1.515-4.455,5.191,5.191,0,0,0-4.035-1.665,5.25,5.25,0,0,0-4.065,1.65,6.354,6.354,0,0,0-1.515,4.47A6.366,6.366,0,0,0-54.36-6.135,5.227,5.227,0,0,0-50.295-4.47Zm18.75-9.9a5.569,5.569,0,0,1,2.07-1.89,6.354,6.354,0,0,1,3.09-.72,6.931,6.931,0,0,1,3.75,1.05,7.273,7.273,0,0,1,2.655,3A10,10,0,0,1-19-8.4a10.1,10.1,0,0,1-.975,4.545,7.359,7.359,0,0,1-2.655,3.03A6.859,6.859,0,0,1-26.385.24,6.377,6.377,0,0,1-29.46-.48a5.637,5.637,0,0,1-2.085-1.86V7.98h-5.13V-16.74h5.13Zm7.32,5.97a4.141,4.141,0,0,0-1.065-3.015,3.517,3.517,0,0,0-2.625-1.1A3.46,3.46,0,0,0-30.51-11.4a4.194,4.194,0,0,0-1.065,3.03A4.194,4.194,0,0,0-30.51-5.34a3.46,3.46,0,0,0,2.595,1.11A3.486,3.486,0,0,0-25.3-5.355,4.213,4.213,0,0,0-24.225-8.4Zm23.7-.24a13.1,13.1,0,0,1-.09,1.5h-11.61a3.489,3.489,0,0,0,1,2.385,3.07,3.07,0,0,0,2.175.825,2.7,2.7,0,0,0,2.67-1.62h5.46A7.492,7.492,0,0,1-2.43-2.58,7.585,7.585,0,0,1-5.175-.51a8.817,8.817,0,0,1-3.69.75,8.979,8.979,0,0,1-4.38-1.05,7.469,7.469,0,0,1-3-3,9.262,9.262,0,0,1-1.08-4.56,9.367,9.367,0,0,1,1.065-4.56,7.372,7.372,0,0,1,2.985-3,9.042,9.042,0,0,1,4.41-1.05,8.952,8.952,0,0,1,4.32,1.02A7.324,7.324,0,0,1-1.59-13.05,8.833,8.833,0,0,1-.525-8.64Zm-5.25-1.35a2.638,2.638,0,0,0-.9-2.1,3.313,3.313,0,0,0-2.25-.78,3.249,3.249,0,0,0-2.175.75A3.331,3.331,0,0,0-12.2-9.99Zm18.15-6.93a6.075,6.075,0,0,1,4.695,1.9A7.43,7.43,0,0,1,18.825-9.78V0h-5.1V-9.09a3.674,3.674,0,0,0-.87-2.61,3.051,3.051,0,0,0-2.34-.93,3.051,3.051,0,0,0-2.34.93,3.674,3.674,0,0,0-.87,2.61V0H2.175V-16.74h5.13v2.22a5.412,5.412,0,0,1,2.1-1.755A6.676,6.676,0,0,1,12.375-16.92Zm24,17.13a10.833,10.833,0,0,1-4.14-.75A6.748,6.748,0,0,1,29.31-2.76,6.065,6.065,0,0,1,28.155-6.3h5.46a2.649,2.649,0,0,0,.81,1.785,2.6,2.6,0,0,0,1.8.615,2.815,2.815,0,0,0,1.8-.525,1.756,1.756,0,0,0,.66-1.455,1.722,1.722,0,0,0-.525-1.29,4.235,4.235,0,0,0-1.29-.84A20.75,20.75,0,0,0,34.7-8.76a23.682,23.682,0,0,1-3.33-1.26,6.153,6.153,0,0,1-2.22-1.86,5.183,5.183,0,0,1-.93-3.21,5.52,5.52,0,0,1,2.13-4.6A8.752,8.752,0,0,1,35.9-21.36a8.854,8.854,0,0,1,5.61,1.665,5.96,5.96,0,0,1,2.28,4.635h-5.55a2.171,2.171,0,0,0-.75-1.6,2.642,2.642,0,0,0-1.77-.585,2.206,2.206,0,0,0-1.5.5,1.785,1.785,0,0,0-.57,1.425,1.766,1.766,0,0,0,.96,1.59,15.737,15.737,0,0,0,3,1.23,27.745,27.745,0,0,1,3.315,1.32,6.311,6.311,0,0,1,2.2,1.83,4.9,4.9,0,0,1,.93,3.09A6.064,6.064,0,0,1,43.14-3,6.408,6.408,0,0,1,40.485-.66,9.089,9.089,0,0,1,36.375.21Zm15.96-14.58a5.569,5.569,0,0,1,2.07-1.89,6.354,6.354,0,0,1,3.09-.72,6.931,6.931,0,0,1,3.75,1.05,7.273,7.273,0,0,1,2.655,3,10,10,0,0,1,.975,4.53A10.1,10.1,0,0,1,63.9-3.855a7.359,7.359,0,0,1-2.655,3.03A6.859,6.859,0,0,1,57.5.24,6.377,6.377,0,0,1,54.42-.48a5.637,5.637,0,0,1-2.085-1.86V7.98h-5.13V-16.74h5.13Zm7.32,5.97a4.141,4.141,0,0,0-1.065-3.015,3.517,3.517,0,0,0-2.625-1.1A3.46,3.46,0,0,0,53.37-11.4a4.194,4.194,0,0,0-1.065,3.03A4.194,4.194,0,0,0,53.37-5.34a3.46,3.46,0,0,0,2.595,1.11,3.486,3.486,0,0,0,2.61-1.125A4.213,4.213,0,0,0,59.655-8.4Zm23.7-.24a13.1,13.1,0,0,1-.09,1.5H71.655a3.488,3.488,0,0,0,1,2.385,3.07,3.07,0,0,0,2.175.825A2.7,2.7,0,0,0,77.5-5.55h5.46A7.492,7.492,0,0,1,81.45-2.58,7.585,7.585,0,0,1,78.7-.51a8.817,8.817,0,0,1-3.69.75,8.979,8.979,0,0,1-4.38-1.05,7.469,7.469,0,0,1-3-3,9.262,9.262,0,0,1-1.08-4.56,9.367,9.367,0,0,1,1.065-4.56,7.372,7.372,0,0,1,2.985-3,9.042,9.042,0,0,1,4.41-1.05,8.952,8.952,0,0,1,4.32,1.02,7.324,7.324,0,0,1,2.955,2.91A8.833,8.833,0,0,1,83.355-8.64ZM78.1-9.99a2.638,2.638,0,0,0-.9-2.1,3.313,3.313,0,0,0-2.25-.78,3.249,3.249,0,0,0-2.175.75,3.331,3.331,0,0,0-1.1,2.13Zm23.73,1.35a13.1,13.1,0,0,1-.09,1.5H90.135a3.488,3.488,0,0,0,1,2.385,3.07,3.07,0,0,0,2.175.825,2.7,2.7,0,0,0,2.67-1.62h5.46A7.492,7.492,0,0,1,99.93-2.58,7.585,7.585,0,0,1,97.185-.51,8.817,8.817,0,0,1,93.5.24a8.979,8.979,0,0,1-4.38-1.05,7.469,7.469,0,0,1-3-3,9.262,9.262,0,0,1-1.08-4.56A9.367,9.367,0,0,1,86.1-12.93a7.372,7.372,0,0,1,2.985-3,9.042,9.042,0,0,1,4.41-1.05,8.952,8.952,0,0,1,4.32,1.02,7.324,7.324,0,0,1,2.955,2.91A8.833,8.833,0,0,1,101.835-8.64Zm-5.25-1.35a2.638,2.638,0,0,0-.9-2.1,3.313,3.313,0,0,0-2.25-.78,3.249,3.249,0,0,0-2.175.75,3.331,3.331,0,0,0-1.1,2.13Zm6.93,1.59a10,10,0,0,1,.975-4.53,7.273,7.273,0,0,1,2.655-3,6.931,6.931,0,0,1,3.75-1.05,6.587,6.587,0,0,1,3.015.69,5.494,5.494,0,0,1,2.145,1.86V-22.2h5.13V0h-5.13V-2.4A5.226,5.226,0,0,1,114-.48a6.442,6.442,0,0,1-3.1.72,6.859,6.859,0,0,1-3.75-1.065,7.359,7.359,0,0,1-2.655-3.03A10.1,10.1,0,0,1,103.515-8.4Zm12.54.03a4.194,4.194,0,0,0-1.065-3.03,3.46,3.46,0,0,0-2.6-1.11,3.483,3.483,0,0,0-2.6,1.1A4.141,4.141,0,0,0,108.735-8.4,4.248,4.248,0,0,0,109.8-5.355a3.438,3.438,0,0,0,2.6,1.125,3.46,3.46,0,0,0,2.6-1.11A4.194,4.194,0,0,0,116.055-8.37ZM-31.05,42.28h-7.86L-40.17,46h-5.37l7.62-21.06h5.94L-24.36,46h-5.43Zm-1.32-3.96-2.61-7.71-2.58,7.71Zm15.45-6.27a6.767,6.767,0,0,1,2.25-2.175,5.8,5.8,0,0,1,3-.8v5.43h-1.41a4.322,4.322,0,0,0-2.88.825,3.665,3.665,0,0,0-.96,2.9V46h-5.13V29.26h5.13Zm29.07-2.97a6.62,6.62,0,0,1,4.965,1.89,7.2,7.2,0,0,1,1.845,5.25V46h-5.1V36.91a3.459,3.459,0,0,0-.855-2.505,3.121,3.121,0,0,0-2.355-.885A3.121,3.121,0,0,0,8.3,34.4,3.459,3.459,0,0,0,7.44,36.91V46H2.34V36.91A3.459,3.459,0,0,0,1.485,34.4,3.121,3.121,0,0,0-.87,33.52a3.121,3.121,0,0,0-2.355.885A3.459,3.459,0,0,0-4.08,36.91V46H-9.21V29.26h5.13v2.1a5.491,5.491,0,0,1,2.04-1.665A6.414,6.414,0,0,1,.81,29.08a6.933,6.933,0,0,1,3.375.81A5.807,5.807,0,0,1,6.51,32.2a6.743,6.743,0,0,1,2.37-2.25A6.4,6.4,0,0,1,12.15,29.08Zm27.51.18L29.16,53.95H23.64l3.84-8.52L20.67,29.26H26.4l3.87,10.47,3.84-10.47Zm-140.845,84.657q2.006-1.593,1.829-1.475,5.782-4.779,9.116-7.847a37.739,37.739,0,0,0,5.634-6.431,11.621,11.621,0,0,0,2.3-6.549,5.764,5.764,0,0,0-1.121-3.776,4.11,4.11,0,0,0-3.363-1.357,4.152,4.152,0,0,0-3.51,1.682,7.753,7.753,0,0,0-1.269,4.75H-101.3a16.71,16.71,0,0,1,2.154-8.378,12.509,12.509,0,0,1,5.369-4.956,16.952,16.952,0,0,1,7.4-1.593q7.021,0,10.59,3.6a12.746,12.746,0,0,1,3.569,9.381,18.4,18.4,0,0,1-4.307,11.712A63.43,63.43,0,0,1-87.5,113.209h15.93v8.2h-29.618Zm34.043-14.042q0-10.148,3.924-15.989t12.656-5.841q8.732,0,12.655,5.841t3.924,15.989q0,10.266-3.924,16.107t-12.655,5.841q-8.732,0-12.656-5.841T-67.142,99.875Zm23.246,0a25.448,25.448,0,0,0-1.3-9.174q-1.3-3.216-5.369-3.215T-55.932,90.7a25.449,25.449,0,0,0-1.3,9.174,38.571,38.571,0,0,0,.472,6.637,8.493,8.493,0,0,0,1.917,4.248,5.431,5.431,0,0,0,4.278,1.622,5.431,5.431,0,0,0,4.277-1.622,8.493,8.493,0,0,0,1.918-4.248A38.571,38.571,0,0,0-43.9,99.875Zm15.222,0q0-10.148,3.924-15.989T-12.1,78.045q8.732,0,12.655,5.841T4.484,99.875q0,10.266-3.924,16.107T-12.1,121.823q-8.732,0-12.656-5.841T-28.674,99.875Zm23.246,0a25.448,25.448,0,0,0-1.3-9.174q-1.3-3.216-5.369-3.215T-17.464,90.7a25.448,25.448,0,0,0-1.3,9.174,38.571,38.571,0,0,0,.472,6.637,8.493,8.493,0,0,0,1.917,4.248,5.431,5.431,0,0,0,4.278,1.622,5.431,5.431,0,0,0,4.277-1.622A8.493,8.493,0,0,0-5.9,106.512,38.571,38.571,0,0,0-5.428,99.875ZM50.8,93.68a7.546,7.546,0,0,0-3.215-3.157,10.521,10.521,0,0,0-4.927-1.091,10.136,10.136,0,0,0-7.847,3.215,12.2,12.2,0,0,0-2.95,8.585q0,5.723,3.1,8.938t8.525,3.215a10.312,10.312,0,0,0,6.284-1.888,10.7,10.7,0,0,0,3.747-5.428H40.71V98.636H62.658v9.381a19.79,19.79,0,0,1-3.805,7.021,20.079,20.079,0,0,1-6.814,5.251,21.063,21.063,0,0,1-9.322,2.006,22.067,22.067,0,0,1-10.944-2.685,19.121,19.121,0,0,1-7.493-7.463,23.592,23.592,0,0,1,0-21.86,19.121,19.121,0,0,1,7.464-7.493A21.9,21.9,0,0,1,42.657,80.11a21.205,21.205,0,0,1,12.538,3.6A16.984,16.984,0,0,1,61.95,93.68Zm42.539,7.08a9.633,9.633,0,0,1,5.782,3.57,10.857,10.857,0,0,1-1.446,14.632Q94.046,122,87.556,122H68.263V80.582H86.907q6.313,0,9.882,2.891A10.483,10.483,0,0,1,98.441,97.4,9.917,9.917,0,0,1,93.338,100.76ZM78.352,97.338H84.96a5.85,5.85,0,0,0,3.805-1.091,3.921,3.921,0,0,0,1.327-3.215,4.01,4.01,0,0,0-1.327-3.245,5.742,5.742,0,0,0-3.805-1.121H78.352Zm7.434,16.52a5.983,5.983,0,0,0,3.924-1.15,4.085,4.085,0,0,0,1.386-3.334,4.267,4.267,0,0,0-1.445-3.422,5.923,5.923,0,0,0-3.983-1.239H78.352v9.145Z" transform="translate(177 240)" fill="#fff"/>
  </g>
</svg>
