<svg xmlns="http://www.w3.org/2000/svg" xmlns:xlink="http://www.w3.org/1999/xlink" width="357" height="239" viewBox="0 0 357 239">
  <defs>
    <filter id="Rectangle_20727" x="0" y="0" width="357" height="239" filterUnits="userSpaceOnUse">
      <feOffset dy="3" input="SourceAlpha"/>
      <feGaussianBlur stdDeviation="3" result="blur"/>
      <feFlood flood-opacity="0.161"/>
      <feComposite operator="in" in2="blur"/>
      <feComposite in="SourceGraphic"/>
    </filter>
  </defs>
  <g id="Group_39128" data-name="Group 39128" transform="translate(-9 -182)">
    <g transform="matrix(1, 0, 0, 1, 9, 182)" filter="url(#Rectangle_20727)">
      <rect id="Rectangle_20727-2" data-name="Rectangle 20727" width="339" height="221" rx="7" transform="translate(9 6)" fill="#14254b"/>
    </g>
    <path id="Android_UI" data-name="Android UI" d="M-113.295-21.06a12.25,12.25,0,0,1,5.82,1.32,9.43,9.43,0,0,1,3.855,3.7,10.886,10.886,0,0,1,1.365,5.5,10.908,10.908,0,0,1-1.365,5.49,9.381,9.381,0,0,1-3.87,3.72A12.272,12.272,0,0,1-113.295,0h-7.89V-21.06Zm-.33,16.62a6.191,6.191,0,0,0,4.53-1.59,6.02,6.02,0,0,0,1.62-4.5,6.124,6.124,0,0,0-1.62-4.53,6.124,6.124,0,0,0-4.53-1.62h-2.43V-4.44ZM-91.755.21A10.833,10.833,0,0,1-95.9-.54,6.748,6.748,0,0,1-98.82-2.76,6.065,6.065,0,0,1-99.975-6.3h5.46a2.649,2.649,0,0,0,.81,1.785,2.6,2.6,0,0,0,1.8.615,2.815,2.815,0,0,0,1.8-.525,1.756,1.756,0,0,0,.66-1.455,1.722,1.722,0,0,0-.525-1.29,4.235,4.235,0,0,0-1.29-.84,20.751,20.751,0,0,0-2.175-.75,23.682,23.682,0,0,1-3.33-1.26,6.153,6.153,0,0,1-2.22-1.86,5.183,5.183,0,0,1-.93-3.21,5.52,5.52,0,0,1,2.13-4.6,8.752,8.752,0,0,1,5.55-1.665,8.854,8.854,0,0,1,5.61,1.665,5.96,5.96,0,0,1,2.28,4.635H-89.9a2.171,2.171,0,0,0-.75-1.6,2.642,2.642,0,0,0-1.77-.585,2.206,2.206,0,0,0-1.5.5,1.785,1.785,0,0,0-.57,1.425,1.766,1.766,0,0,0,.96,1.59,15.737,15.737,0,0,0,3,1.23,27.744,27.744,0,0,1,3.315,1.32,6.311,6.311,0,0,1,2.2,1.83,4.9,4.9,0,0,1,.93,3.09A6.063,6.063,0,0,1-84.99-3,6.408,6.408,0,0,1-87.645-.66,9.089,9.089,0,0,1-91.755.21ZM-75.8-3.96h6.72V0h-11.85V-21.06h5.13Zm25.5,4.17A10.991,10.991,0,0,1-55.74-1.17a10.316,10.316,0,0,1-3.93-3.855,10.774,10.774,0,0,1-1.455-5.565,10.694,10.694,0,0,1,1.455-5.55,10.349,10.349,0,0,1,3.93-3.84,10.991,10.991,0,0,1,5.445-1.38,10.991,10.991,0,0,1,5.445,1.38,10.132,10.132,0,0,1,3.9,3.84,10.869,10.869,0,0,1,1.425,5.55,10.861,10.861,0,0,1-1.44,5.565,10.239,10.239,0,0,1-3.9,3.855A10.908,10.908,0,0,1-50.295.21Zm0-4.68A5.168,5.168,0,0,0-46.26-6.15a6.378,6.378,0,0,0,1.515-4.44,6.366,6.366,0,0,0-1.515-4.455,5.191,5.191,0,0,0-4.035-1.665,5.25,5.25,0,0,0-4.065,1.65,6.354,6.354,0,0,0-1.515,4.47A6.366,6.366,0,0,0-54.36-6.135,5.227,5.227,0,0,0-50.295-4.47Zm18.75-9.9a5.569,5.569,0,0,1,2.07-1.89,6.354,6.354,0,0,1,3.09-.72,6.931,6.931,0,0,1,3.75,1.05,7.273,7.273,0,0,1,2.655,3A10,10,0,0,1-19-8.4a10.1,10.1,0,0,1-.975,4.545,7.359,7.359,0,0,1-2.655,3.03A6.859,6.859,0,0,1-26.385.24,6.377,6.377,0,0,1-29.46-.48a5.637,5.637,0,0,1-2.085-1.86V7.98h-5.13V-16.74h5.13Zm7.32,5.97a4.141,4.141,0,0,0-1.065-3.015,3.517,3.517,0,0,0-2.625-1.1A3.46,3.46,0,0,0-30.51-11.4a4.194,4.194,0,0,0-1.065,3.03A4.194,4.194,0,0,0-30.51-5.34a3.46,3.46,0,0,0,2.595,1.11A3.486,3.486,0,0,0-25.3-5.355,4.213,4.213,0,0,0-24.225-8.4Zm23.7-.24a13.1,13.1,0,0,1-.09,1.5h-11.61a3.489,3.489,0,0,0,1,2.385,3.07,3.07,0,0,0,2.175.825,2.7,2.7,0,0,0,2.67-1.62h5.46A7.492,7.492,0,0,1-2.43-2.58,7.585,7.585,0,0,1-5.175-.51a8.817,8.817,0,0,1-3.69.75,8.979,8.979,0,0,1-4.38-1.05,7.469,7.469,0,0,1-3-3,9.262,9.262,0,0,1-1.08-4.56,9.367,9.367,0,0,1,1.065-4.56,7.372,7.372,0,0,1,2.985-3,9.042,9.042,0,0,1,4.41-1.05,8.952,8.952,0,0,1,4.32,1.02A7.324,7.324,0,0,1-1.59-13.05,8.833,8.833,0,0,1-.525-8.64Zm-5.25-1.35a2.638,2.638,0,0,0-.9-2.1,3.313,3.313,0,0,0-2.25-.78,3.249,3.249,0,0,0-2.175.75A3.331,3.331,0,0,0-12.2-9.99Zm18.15-6.93a6.075,6.075,0,0,1,4.695,1.9A7.43,7.43,0,0,1,18.825-9.78V0h-5.1V-9.09a3.674,3.674,0,0,0-.87-2.61,3.051,3.051,0,0,0-2.34-.93,3.051,3.051,0,0,0-2.34.93,3.674,3.674,0,0,0-.87,2.61V0H2.175V-16.74h5.13v2.22a5.412,5.412,0,0,1,2.1-1.755A6.676,6.676,0,0,1,12.375-16.92Zm24,17.13a10.833,10.833,0,0,1-4.14-.75A6.748,6.748,0,0,1,29.31-2.76,6.065,6.065,0,0,1,28.155-6.3h5.46a2.649,2.649,0,0,0,.81,1.785,2.6,2.6,0,0,0,1.8.615,2.815,2.815,0,0,0,1.8-.525,1.756,1.756,0,0,0,.66-1.455,1.722,1.722,0,0,0-.525-1.29,4.235,4.235,0,0,0-1.29-.84A20.75,20.75,0,0,0,34.7-8.76a23.682,23.682,0,0,1-3.33-1.26,6.153,6.153,0,0,1-2.22-1.86,5.183,5.183,0,0,1-.93-3.21,5.52,5.52,0,0,1,2.13-4.6A8.752,8.752,0,0,1,35.9-21.36a8.854,8.854,0,0,1,5.61,1.665,5.96,5.96,0,0,1,2.28,4.635h-5.55a2.171,2.171,0,0,0-.75-1.6,2.642,2.642,0,0,0-1.77-.585,2.206,2.206,0,0,0-1.5.5,1.785,1.785,0,0,0-.57,1.425,1.766,1.766,0,0,0,.96,1.59,15.737,15.737,0,0,0,3,1.23,27.745,27.745,0,0,1,3.315,1.32,6.311,6.311,0,0,1,2.2,1.83,4.9,4.9,0,0,1,.93,3.09A6.064,6.064,0,0,1,43.14-3,6.408,6.408,0,0,1,40.485-.66,9.089,9.089,0,0,1,36.375.21Zm15.96-14.58a5.569,5.569,0,0,1,2.07-1.89,6.354,6.354,0,0,1,3.09-.72,6.931,6.931,0,0,1,3.75,1.05,7.273,7.273,0,0,1,2.655,3,10,10,0,0,1,.975,4.53A10.1,10.1,0,0,1,63.9-3.855a7.359,7.359,0,0,1-2.655,3.03A6.859,6.859,0,0,1,57.5.24,6.377,6.377,0,0,1,54.42-.48a5.637,5.637,0,0,1-2.085-1.86V7.98h-5.13V-16.74h5.13Zm7.32,5.97a4.141,4.141,0,0,0-1.065-3.015,3.517,3.517,0,0,0-2.625-1.1A3.46,3.46,0,0,0,53.37-11.4a4.194,4.194,0,0,0-1.065,3.03A4.194,4.194,0,0,0,53.37-5.34a3.46,3.46,0,0,0,2.595,1.11,3.486,3.486,0,0,0,2.61-1.125A4.213,4.213,0,0,0,59.655-8.4Zm23.7-.24a13.1,13.1,0,0,1-.09,1.5H71.655a3.488,3.488,0,0,0,1,2.385,3.07,3.07,0,0,0,2.175.825A2.7,2.7,0,0,0,77.5-5.55h5.46A7.492,7.492,0,0,1,81.45-2.58,7.585,7.585,0,0,1,78.7-.51a8.817,8.817,0,0,1-3.69.75,8.979,8.979,0,0,1-4.38-1.05,7.469,7.469,0,0,1-3-3,9.262,9.262,0,0,1-1.08-4.56,9.367,9.367,0,0,1,1.065-4.56,7.372,7.372,0,0,1,2.985-3,9.042,9.042,0,0,1,4.41-1.05,8.952,8.952,0,0,1,4.32,1.02,7.324,7.324,0,0,1,2.955,2.91A8.833,8.833,0,0,1,83.355-8.64ZM78.1-9.99a2.638,2.638,0,0,0-.9-2.1,3.313,3.313,0,0,0-2.25-.78,3.249,3.249,0,0,0-2.175.75,3.331,3.331,0,0,0-1.1,2.13Zm23.73,1.35a13.1,13.1,0,0,1-.09,1.5H90.135a3.488,3.488,0,0,0,1,2.385,3.07,3.07,0,0,0,2.175.825,2.7,2.7,0,0,0,2.67-1.62h5.46A7.492,7.492,0,0,1,99.93-2.58,7.585,7.585,0,0,1,97.185-.51,8.817,8.817,0,0,1,93.5.24a8.979,8.979,0,0,1-4.38-1.05,7.469,7.469,0,0,1-3-3,9.262,9.262,0,0,1-1.08-4.56A9.367,9.367,0,0,1,86.1-12.93a7.372,7.372,0,0,1,2.985-3,9.042,9.042,0,0,1,4.41-1.05,8.952,8.952,0,0,1,4.32,1.02,7.324,7.324,0,0,1,2.955,2.91A8.833,8.833,0,0,1,101.835-8.64Zm-5.25-1.35a2.638,2.638,0,0,0-.9-2.1,3.313,3.313,0,0,0-2.25-.78,3.249,3.249,0,0,0-2.175.75,3.331,3.331,0,0,0-1.1,2.13Zm6.93,1.59a10,10,0,0,1,.975-4.53,7.273,7.273,0,0,1,2.655-3,6.931,6.931,0,0,1,3.75-1.05,6.587,6.587,0,0,1,3.015.69,5.494,5.494,0,0,1,2.145,1.86V-22.2h5.13V0h-5.13V-2.4A5.226,5.226,0,0,1,114-.48a6.442,6.442,0,0,1-3.1.72,6.859,6.859,0,0,1-3.75-1.065,7.359,7.359,0,0,1-2.655-3.03A10.1,10.1,0,0,1,103.515-8.4Zm12.54.03a4.194,4.194,0,0,0-1.065-3.03,3.46,3.46,0,0,0-2.6-1.11,3.483,3.483,0,0,0-2.6,1.1A4.141,4.141,0,0,0,108.735-8.4,4.248,4.248,0,0,0,109.8-5.355a3.438,3.438,0,0,0,2.6,1.125,3.46,3.46,0,0,0,2.6-1.11A4.194,4.194,0,0,0,116.055-8.37ZM-119.567,41.882V32.66H-103.5V75h-10.324V41.882ZM-96.715,53.25q0-9.976,3.857-15.718t12.441-5.742q8.584,0,12.441,5.742t3.857,15.718q0,10.092-3.857,15.834t-12.441,5.742q-8.584,0-12.441-5.742T-96.715,53.25Zm22.852,0a25.017,25.017,0,0,0-1.276-9.019q-1.276-3.161-5.278-3.161T-85.7,44.231a25.017,25.017,0,0,0-1.276,9.019,37.918,37.918,0,0,0,.464,6.525,8.349,8.349,0,0,0,1.885,4.176,5.339,5.339,0,0,0,4.2,1.595,5.339,5.339,0,0,0,4.205-1.595,8.349,8.349,0,0,0,1.885-4.176A37.918,37.918,0,0,0-73.863,53.25Zm14.964,0q0-9.976,3.857-15.718T-42.6,31.79q8.584,0,12.441,5.742T-26.3,53.25q0,10.092-3.857,15.834T-42.6,74.826q-8.584,0-12.441-5.742T-58.9,53.25Zm22.852,0a25.017,25.017,0,0,0-1.276-9.019Q-38.6,41.07-42.6,41.07t-5.278,3.161a25.017,25.017,0,0,0-1.276,9.019,37.918,37.918,0,0,0,.464,6.525,8.349,8.349,0,0,0,1.885,4.176,5.339,5.339,0,0,0,4.2,1.595,5.339,5.339,0,0,0,4.2-1.595,8.349,8.349,0,0,0,1.885-4.176A37.918,37.918,0,0,0-36.047,53.25Zm14.964,0q0-9.976,3.857-15.718T-4.785,31.79q8.584,0,12.441,5.742T11.513,53.25q0,10.092-3.857,15.834T-4.785,74.826q-8.584,0-12.441-5.742T-21.083,53.25Zm22.852,0A25.017,25.017,0,0,0,.493,44.231Q-.783,41.07-4.785,41.07t-5.278,3.161a25.017,25.017,0,0,0-1.276,9.019,37.918,37.918,0,0,0,.464,6.525A8.349,8.349,0,0,0-8.99,63.951a5.339,5.339,0,0,0,4.2,1.595,5.339,5.339,0,0,0,4.2-1.595A8.349,8.349,0,0,0,1.3,59.775,37.918,37.918,0,0,0,1.769,53.25Zm55.274-6.09a7.418,7.418,0,0,0-3.161-3.1,10.343,10.343,0,0,0-4.843-1.073,9.965,9.965,0,0,0-7.714,3.161,12,12,0,0,0-2.9,8.439q0,5.626,3.045,8.787a11.091,11.091,0,0,0,8.381,3.161,10.137,10.137,0,0,0,6.177-1.856,10.519,10.519,0,0,0,3.683-5.336H47.125V52.032H68.7v9.222a19.454,19.454,0,0,1-3.741,6.9,19.738,19.738,0,0,1-6.7,5.162A20.706,20.706,0,0,1,49.1,75.29a21.693,21.693,0,0,1-10.759-2.639,18.8,18.8,0,0,1-7.366-7.337,21.53,21.53,0,0,1-2.639-10.73,21.693,21.693,0,0,1,2.639-10.759,18.8,18.8,0,0,1,7.337-7.366,21.53,21.53,0,0,1,10.73-2.639,20.846,20.846,0,0,1,12.325,3.538A16.7,16.7,0,0,1,68,47.16Zm41.818,6.96a9.47,9.47,0,0,1,5.684,3.509,10.673,10.673,0,0,1-1.421,14.384Q99.557,75,93.177,75H74.211V34.284H92.539q6.206,0,9.715,2.842a9.4,9.4,0,0,1,3.509,7.714,9.318,9.318,0,0,1-1.885,5.974A9.749,9.749,0,0,1,98.861,54.12ZM84.129,50.756h6.5a5.751,5.751,0,0,0,3.741-1.073,3.855,3.855,0,0,0,1.305-3.161,3.942,3.942,0,0,0-1.305-3.19,5.645,5.645,0,0,0-3.741-1.1h-6.5ZM91.437,67a5.881,5.881,0,0,0,3.857-1.131,4.015,4.015,0,0,0,1.363-3.277,4.2,4.2,0,0,0-1.421-3.364,5.823,5.823,0,0,0-3.915-1.218H84.129V67Z" transform="translate(188 267)" fill="#fff"/>
  </g>
</svg>
