<svg xmlns="http://www.w3.org/2000/svg" xmlns:xlink="http://www.w3.org/1999/xlink" width="357" height="239.002" viewBox="0 0 357 239.002">
  <defs>
    <filter id="Path_41548" x="0" y="0" width="357" height="239" filterUnits="userSpaceOnUse">
      <feOffset dy="3" input="SourceAlpha"/>
      <feGaussianBlur stdDeviation="3" result="blur"/>
      <feFlood flood-opacity="0.161"/>
      <feComposite operator="in" in2="blur"/>
      <feComposite in="SourceGraphic"/>
    </filter>
    <filter id="Subtraction_1" x="0" y="0" width="356.999" height="239.002" filterUnits="userSpaceOnUse">
      <feOffset dy="3" input="SourceAlpha"/>
      <feGaussianBlur stdDeviation="3" result="blur-2"/>
      <feFlood flood-opacity="0.161"/>
      <feComposite operator="in" in2="blur-2"/>
      <feComposite in="SourceGraphic"/>
    </filter>
  </defs>
  <g id="Group_39140" data-name="Group 39140" transform="translate(-9 -182)">
    <g transform="matrix(1, 0, 0, 1, 9, 182)" filter="url(#Path_41548)">
      <path id="Path_41548-2" data-name="Path 41548" d="M7,0H332a7,7,0,0,1,7,7V214a7,7,0,0,1-7,7H7a7,7,0,0,1-7-7V7A7,7,0,0,1,7,0Z" transform="translate(9 6)" fill="#7c7f2a"/>
    </g>
    <g transform="matrix(1, 0, 0, 1, 9, 182)" filter="url(#Subtraction_1)">
      <path id="Subtraction_1-2" data-name="Subtraction 1" d="M-2530.512-11006.105h-325a7.009,7.009,0,0,1-7-7v-157.829c.518.083,1.033.19,1.534.319,6.783,1.746,13.032,5.46,18.546,8.737,5.95,3.536,11.087,6.589,15.6,6.589,3.128,0,5.713-1.519,7.9-4.642,3.941-5.642,1.625-12.535-.827-19.833-2.517-7.491-5.119-15.235-.483-21.646a6.57,6.57,0,0,1,3.333-2.358,15.024,15.024,0,0,1,4.872-.674c4.073,0,9.059.959,14.338,1.975l.787.151c6.062,1.162,11.486,2.124,16.486,2.124,8.583,0,13.7-2.922,16.111-9.2,2.079-5.416-.986-11.874-8.408-17.72h242.216a7.007,7.007,0,0,1,7,7v117.462c-4.769,9.687-10.9,14.6-18.236,14.6-.337,0-.675-.01-1-.03-6.991-.42-13.836-2.874-19.874-5.038l-.011,0c-5.293-1.9-10.292-3.689-14.34-3.689-4.3,0-7.183,1.991-9.085,6.266-2.792,6.29.8,12.615,4.6,19.312,3.9,6.873,7.931,13.979,4.6,21.155-1.121,2.42-3.683,3.9-8.062,4.648a88.86,88.86,0,0,1-13.845.69h-.014c-6.963.015-14.164.03-20.018,1.679-6.663,1.877-10.4,5.634-11.437,11.484-.556,3.15.429,6.257,2.927,9.233,6.538,7.793,22.132,13.028,38.8,13.028a75.973,75.973,0,0,0,32.817-7.238,70.691,70.691,0,0,1,13.474-5.045,47.133,47.133,0,0,1,11.639-1.473,52.682,52.682,0,0,1,7.066.5v9.467A7.007,7.007,0,0,1-2530.512-11006.105Z" transform="translate(2871.51 11233.11)" fill="#10a9dc"/>
    </g>
    <path id="Android_UI" data-name="Android UI" d="M-44.04-21.06a12.25,12.25,0,0,1,5.82,1.32,9.43,9.43,0,0,1,3.855,3.7A10.886,10.886,0,0,1-33-10.53a10.908,10.908,0,0,1-1.365,5.49,9.381,9.381,0,0,1-3.87,3.72A12.272,12.272,0,0,1-44.04,0h-7.89V-21.06Zm-.33,16.62a6.191,6.191,0,0,0,4.53-1.59,6.02,6.02,0,0,0,1.62-4.5,6.124,6.124,0,0,0-1.62-4.53,6.124,6.124,0,0,0-4.53-1.62H-46.8V-4.44ZM-22.5.21a10.833,10.833,0,0,1-4.14-.75,6.748,6.748,0,0,1-2.925-2.22A6.065,6.065,0,0,1-30.72-6.3h5.46a2.649,2.649,0,0,0,.81,1.785,2.6,2.6,0,0,0,1.8.615,2.815,2.815,0,0,0,1.8-.525,1.756,1.756,0,0,0,.66-1.455,1.722,1.722,0,0,0-.525-1.29,4.235,4.235,0,0,0-1.29-.84,20.75,20.75,0,0,0-2.175-.75,23.682,23.682,0,0,1-3.33-1.26,6.153,6.153,0,0,1-2.22-1.86,5.183,5.183,0,0,1-.93-3.21,5.52,5.52,0,0,1,2.13-4.6,8.752,8.752,0,0,1,5.55-1.665,8.854,8.854,0,0,1,5.61,1.665,5.96,5.96,0,0,1,2.28,4.635h-5.55a2.171,2.171,0,0,0-.75-1.6,2.642,2.642,0,0,0-1.77-.585,2.206,2.206,0,0,0-1.5.5,1.785,1.785,0,0,0-.57,1.425,1.766,1.766,0,0,0,.96,1.59,15.737,15.737,0,0,0,3,1.23,27.745,27.745,0,0,1,3.315,1.32,6.311,6.311,0,0,1,2.2,1.83,4.9,4.9,0,0,1,.93,3.09A6.064,6.064,0,0,1-15.735-3,6.408,6.408,0,0,1-18.39-.66,9.089,9.089,0,0,1-22.5.21ZM-6.54-3.96H.18V0H-11.67V-21.06h5.13ZM19.32-15.99a3.091,3.091,0,0,0-.84-1.665,2.427,2.427,0,0,0-1.71-.555,2.557,2.557,0,0,0-2.46,1.485,11.221,11.221,0,0,0-.78,4.7,4.478,4.478,0,0,1,1.905-1.65,6.239,6.239,0,0,1,2.745-.6A6.247,6.247,0,0,1,22.9-12.42,7.189,7.189,0,0,1,24.69-7.23,8,8,0,0,1,23.8-3.39a6.287,6.287,0,0,1-2.58,2.58,8.2,8.2,0,0,1-4,.93q-4.62,0-6.42-2.9T9-11.1q0-5.7,1.9-8.475t6.1-2.775a7.529,7.529,0,0,1,3.8.885,6.011,6.011,0,0,1,2.34,2.325,7.863,7.863,0,0,1,.945,3.15Zm-2.37,5.76a3.1,3.1,0,0,0-2.145.765A2.767,2.767,0,0,0,13.95-7.29a3.074,3.074,0,0,0,.8,2.25,3.031,3.031,0,0,0,2.265.81,2.758,2.758,0,0,0,2.085-.8A3.006,3.006,0,0,0,19.86-7.2a3.141,3.141,0,0,0-.75-2.22A2.8,2.8,0,0,0,16.95-10.23ZM51.96-21.06V0H46.83V-12.63L42.12,0H37.98L33.24-12.66V0H28.11V-21.06h6.06L40.08-6.48l5.85-14.58ZM-103.23,42.28h-7.86L-112.35,46h-5.37l7.62-21.06h5.94L-96.54,46h-5.43Zm-1.32-3.96-2.61-7.71-2.58,7.71Zm15.45-6.27a6.767,6.767,0,0,1,2.25-2.175,5.8,5.8,0,0,1,3-.8v5.43h-1.41a4.322,4.322,0,0,0-2.88.825,3.665,3.665,0,0,0-.96,2.9V46h-5.13V29.26h5.13Zm29.07-2.97a6.62,6.62,0,0,1,4.965,1.89,7.2,7.2,0,0,1,1.845,5.25V46h-5.1V36.91a3.459,3.459,0,0,0-.855-2.505,3.121,3.121,0,0,0-2.355-.885,3.121,3.121,0,0,0-2.355.885,3.459,3.459,0,0,0-.855,2.505V46h-5.1V36.91a3.459,3.459,0,0,0-.855-2.505,3.121,3.121,0,0,0-2.355-.885A3.121,3.121,0,0,0-75.4,34.4a3.459,3.459,0,0,0-.855,2.505V46h-5.13V29.26h5.13v2.1a5.491,5.491,0,0,1,2.04-1.665,6.414,6.414,0,0,1,2.85-.615A6.933,6.933,0,0,1-68,29.89,5.807,5.807,0,0,1-65.67,32.2a6.743,6.743,0,0,1,2.37-2.25A6.4,6.4,0,0,1-60.03,29.08Zm27.51.18-10.5,24.69h-5.52l3.84-8.52-6.81-16.17h5.73l3.87,10.47,3.84-10.47Zm13.26-4.32v12.6a4.169,4.169,0,0,0,.93,2.91,3.509,3.509,0,0,0,2.73,1.02,3.608,3.608,0,0,0,2.76-1.02,4.085,4.085,0,0,0,.96-2.91V24.94h5.13V37.51a8.937,8.937,0,0,1-1.2,4.77,7.684,7.684,0,0,1-3.225,2.94,10.142,10.142,0,0,1-4.515.99,9.889,9.889,0,0,1-4.455-.975,7.269,7.269,0,0,1-3.1-2.94,9.389,9.389,0,0,1-1.14-4.785V24.94ZM7.05,29.08a6.075,6.075,0,0,1,4.695,1.905A7.43,7.43,0,0,1,13.5,36.22V46H8.4V36.91a3.674,3.674,0,0,0-.87-2.61,3.051,3.051,0,0,0-2.34-.93,3.051,3.051,0,0,0-2.34.93,3.674,3.674,0,0,0-.87,2.61V46H-3.15V29.26H1.98v2.22a5.412,5.412,0,0,1,2.1-1.755A6.676,6.676,0,0,1,7.05,29.08ZM22.2,23.8V46H17.07V23.8Zm6.3,3.72a3.109,3.109,0,0,1-2.2-.8,2.576,2.576,0,0,1-.855-1.965,2.61,2.61,0,0,1,.855-2,3.109,3.109,0,0,1,2.2-.8,3.068,3.068,0,0,1,2.175.8,2.61,2.61,0,0,1,.855,2,2.576,2.576,0,0,1-.855,1.965A3.068,3.068,0,0,1,28.5,27.52Zm2.55,1.74V46H25.92V29.26Zm25.08-.18A6.62,6.62,0,0,1,61.1,30.97a7.2,7.2,0,0,1,1.845,5.25V46h-5.1V36.91a3.459,3.459,0,0,0-.855-2.505,3.576,3.576,0,0,0-4.71,0,3.459,3.459,0,0,0-.855,2.505V46h-5.1V36.91a3.459,3.459,0,0,0-.855-2.505,3.576,3.576,0,0,0-4.71,0A3.458,3.458,0,0,0,39.9,36.91V46H34.77V29.26H39.9v2.1a5.491,5.491,0,0,1,2.04-1.665,6.414,6.414,0,0,1,2.85-.615,6.933,6.933,0,0,1,3.375.81A5.807,5.807,0,0,1,50.49,32.2a6.743,6.743,0,0,1,2.37-2.25A6.4,6.4,0,0,1,56.13,29.08Zm12.99-1.56a3.109,3.109,0,0,1-2.205-.8,2.576,2.576,0,0,1-.855-1.965,2.61,2.61,0,0,1,.855-2,3.109,3.109,0,0,1,2.205-.8,3.068,3.068,0,0,1,2.175.8,2.61,2.61,0,0,1,.855,2,2.576,2.576,0,0,1-.855,1.965A3.068,3.068,0,0,1,69.12,27.52Zm2.55,1.74V46H66.54V29.26ZM84.72,41.65V46H82.11a6.389,6.389,0,0,1-4.35-1.365Q76.2,43.27,76.2,40.18V33.52H74.16V29.26H76.2V25.18h5.13v4.08h3.36v4.26H81.33v6.72a1.406,1.406,0,0,0,.36,1.08,1.757,1.757,0,0,0,1.2.33Zm18.63-4.29a13.1,13.1,0,0,1-.09,1.5H91.65a3.488,3.488,0,0,0,1,2.385,3.07,3.07,0,0,0,2.175.825,2.7,2.7,0,0,0,2.67-1.62h5.46a7.492,7.492,0,0,1-1.515,2.97A7.585,7.585,0,0,1,98.7,45.49a8.817,8.817,0,0,1-3.69.75,8.979,8.979,0,0,1-4.38-1.05,7.469,7.469,0,0,1-3-3,9.262,9.262,0,0,1-1.08-4.56,9.367,9.367,0,0,1,1.065-4.56,7.372,7.372,0,0,1,2.985-3,9.042,9.042,0,0,1,4.41-1.05,8.952,8.952,0,0,1,4.32,1.02,7.324,7.324,0,0,1,2.955,2.91A8.833,8.833,0,0,1,103.35,37.36ZM98.1,36.01a2.638,2.638,0,0,0-.9-2.1,3.313,3.313,0,0,0-2.25-.78,3.249,3.249,0,0,0-2.175.75,3.331,3.331,0,0,0-1.1,2.13Zm6.93,1.59a10,10,0,0,1,.975-4.53,7.273,7.273,0,0,1,2.655-3,6.931,6.931,0,0,1,3.75-1.05,6.587,6.587,0,0,1,3.015.69,5.494,5.494,0,0,1,2.145,1.86V23.8h5.13V46h-5.13V43.6a5.226,5.226,0,0,1-2.055,1.92,6.442,6.442,0,0,1-3.1.72,6.859,6.859,0,0,1-3.75-1.065,7.359,7.359,0,0,1-2.655-3.03A10.1,10.1,0,0,1,105.03,37.6Zm12.54.03a4.194,4.194,0,0,0-1.065-3.03,3.605,3.605,0,0,0-5.19-.015A4.141,4.141,0,0,0,110.25,37.6a4.248,4.248,0,0,0,1.065,3.045,3.572,3.572,0,0,0,5.19.015A4.194,4.194,0,0,0,117.57,37.63Z" transform="translate(188 285.999)" fill="#fff"/>
  </g>
</svg>
