<svg xmlns="http://www.w3.org/2000/svg" xmlns:xlink="http://www.w3.org/1999/xlink" width="58.762" height="69" viewBox="0 0 58.762 69">
  <defs>
    <clipPath id="clip-path">
      <rect id="Rectangle_21894" data-name="Rectangle 21894" width="58.762" height="69" fill="none"/>
    </clipPath>
  </defs>
  <g id="Group_39647" data-name="Group 39647" transform="translate(0 0)">
    <g id="Group_39646" data-name="Group 39646" transform="translate(0 0)" clip-path="url(#clip-path)">
      <path id="Path_42974" data-name="Path 42974" d="M55.657,46.079A34.81,34.81,0,0,1,47.32,59.067a43.648,43.648,0,0,1-16.3,9.653,4.983,4.983,0,0,1-1.583.28h-.059a5.059,5.059,0,0,1-.972-.1,5.249,5.249,0,0,1-.668-.179,43.648,43.648,0,0,1-16.316-9.649A34.741,34.741,0,0,1,3.089,46.091C-.276,36.948-.088,26.881.07,18.791v-.124C.1,18,.121,17.3.132,16.522A7.313,7.313,0,0,1,7.018,9.358c7.933-.443,14.075-3.03,19.314-8.141l.046-.042a4.421,4.421,0,0,1,6,0l.044.042c5.245,5.11,11.385,7.7,19.316,8.141a7.313,7.313,0,0,1,6.892,7.164c.011.78.032,1.481.062,2.145v.053c.152,8.105.343,18.192-3.037,27.36" transform="translate(0 0)" fill="#48a6d9"/>
      <path id="Path_42975" data-name="Path 42975" d="M79.3,46.079a34.81,34.81,0,0,1-8.337,12.988,43.638,43.638,0,0,1-16.3,9.652,5.2,5.2,0,0,1-.672.18,5.132,5.132,0,0,1-.911.1V0a4.426,4.426,0,0,1,2.941,1.174l.045.042c5.245,5.11,11.385,7.7,19.316,8.141a7.312,7.312,0,0,1,6.886,7.164c.011.78.032,1.481.062,2.145v.053c.155,8.107.346,18.194-3.034,27.362" transform="translate(-23.641)" fill="#387ea5"/>
      <path id="Path_42976" data-name="Path 42976" d="M56.362,48.394a17.218,17.218,0,0,1-17.136,17.2h-.061a17.2,17.2,0,1,1,0-34.394h.061a17.218,17.218,0,0,1,17.135,17.2" transform="translate(-9.784 -13.895)" fill="#fff"/>
      <path id="Path_42977" data-name="Path 42977" d="M70.219,48.394a17.218,17.218,0,0,1-17.136,17.2V31.2a17.218,17.218,0,0,1,17.136,17.2" transform="translate(-23.641 -13.895)" fill="#e1ebf0"/>
      <path id="Path_42978" data-name="Path 42978" d="M53.212,53.86H37.671A1.677,1.677,0,0,0,36,55.537V67.929A1.677,1.677,0,0,0,37.671,69.6H53.212a1.677,1.677,0,0,0,1.676-1.676V55.537a1.677,1.677,0,0,0-1.676-1.677m-6.271,8.658v1.238a1.5,1.5,0,1,1-3,0V62.518a2.549,2.549,0,1,1,3,0" transform="translate(-16.031 -23.988)" fill="#387ea5"/>
      <path id="Path_42979" data-name="Path 42979" d="M54.121,45.613v1.943a1.2,1.2,0,1,1-2.4,0V45.69a3.2,3.2,0,0,0-3.028-3.224,3.152,3.152,0,0,0-3.27,3.146v3.443h-2.4V45.7a5.607,5.607,0,0,1,5.4-5.637,5.55,5.55,0,0,1,5.692,5.546" transform="translate(-19.162 -17.844)" fill="#387ea5"/>
    </g>
  </g>
</svg>
