<svg id="Group_39987" data-name="Group 39987" xmlns="http://www.w3.org/2000/svg" xmlns:xlink="http://www.w3.org/1999/xlink" width="73" height="73" viewBox="0 0 73 73">
  <defs>
    <clipPath id="clip-path">
      <rect id="Rectangle_21994" data-name="Rectangle 21994" width="73" height="73" fill="none"/>
    </clipPath>
  </defs>
  <g id="Group_39986" data-name="Group 39986" clip-path="url(#clip-path)">
    <path id="Path_43589" data-name="Path 43589" d="M27.23,59.3l-7.9,6.066c-1.224.942-1.363.948-2.575.027-2.357-1.807-4.7-3.632-7.068-5.426a4.842,4.842,0,0,1-2.03-4.106V10.983a4.935,4.935,0,0,1,4.634-5.219,5.012,5.012,0,0,1,.6,0h47a4.941,4.941,0,0,1,5.273,5.262V55.822A4.9,4.9,0,0,1,63.091,60c-2.369,1.793-4.711,3.619-7.068,5.426-1.126.867-1.341.864-2.453,0L46.22,59.751c-.193-.15-.4-.273-.622-.436q-4.054,3.118-8.069,6.2c-.97.744-1.257.732-2.242-.025L27.23,59.3" transform="translate(0.095 0.583)" fill="#373464"/>
    <path id="Path_43590" data-name="Path 43590" d="M26.962,36.515h-9.4a1.256,1.256,0,0,1-1.362-.837,1.152,1.152,0,0,1,1.2-1.469c1.044-.027,2.09,0,3.134,0H36.036c.248,0,.5-.013.742,0a1.126,1.126,0,0,1,1.12,1.107,1.113,1.113,0,0,1-1.042,1.178l-.079,0c-1.09.035-2.2.013-3.3.013H26.962" transform="translate(0.387 1.559)" fill="#fff"/>
    <path id="Path_43591" data-name="Path 43591" d="M26.954,40.237H36.6c.583,0,1.111.19,1.192.78a1.667,1.667,0,0,1-.359,1.22,1.734,1.734,0,0,1-1.142.3c-2.366.024-4.731.013-7.086.013H17.977a4.691,4.691,0,0,1-.817-.035,1.091,1.091,0,0,1-1-1.176l0-.032a1.058,1.058,0,0,1,1.054-1.06c.029,0,.059,0,.088,0,.905-.017,1.812,0,2.724,0h6.931" transform="translate(0.388 1.767)" fill="#fff"/>
    <path id="Path_43592" data-name="Path 43592" d="M27.031,48.529H17.878c-.272,0-.629.082-.817-.055-.357-.272-.84-.657-.864-1.016s.389-.84.732-1.11c.238-.182.685-.125,1.042-.125H36.032c1.262,0,1.834.352,1.862,1.137s-.545,1.172-1.883,1.172H27.018" transform="translate(0.389 1.972)" fill="#fff"/>
    <path id="Path_43593" data-name="Path 43593" d="M49.23,34.206h4.537c.885,0,1.417.436,1.427,1.134s-.52,1.167-1.392,1.169H44.565c-.867,0-1.41-.482-1.393-1.174s.545-1.125,1.439-1.128h4.633" transform="translate(1.314 1.56)" fill="#fff"/>
    <path id="Path_43594" data-name="Path 43594" d="M49.176,40.237H53.8c.894,0,1.406.442,1.4,1.152a1.2,1.2,0,0,1-1.233,1.154c-.037,0-.074,0-.111-.009q-4.661.025-9.32,0a1.207,1.207,0,0,1-1.362-1.218c.033-.7.545-1.074,1.392-1.09h4.619" transform="translate(1.314 1.766)" fill="#fff"/>
    <path id="Path_43595" data-name="Path 43595" d="M49.16,48.528H44.622c-.91,0-1.427-.412-1.452-1.09s.526-1.2,1.464-1.2c3.052,0,6.1-.017,9.154,0,1.127,0,1.784.907,1.226,1.7a1.674,1.674,0,0,1-1.155.577c-1.564.068-3.131.028-4.7.028" transform="translate(1.314 1.972)" fill="#fff"/>
    <path id="Path_43596" data-name="Path 43596" d="M37.666,21.057s16.015-18.3,32.029-1.469c0,0-11.96,16.48-32.029,1.469" fill="#fff" stroke="#373464" stroke-width="1"/>
    <path id="Path_43597" data-name="Path 43597" d="M37.666,21.057s16.015-18.3,32.029-1.469C69.695,19.588,57.735,36.068,37.666,21.057Z" fill="none" stroke="#373464" stroke-width="1"/>
    <path id="Path_43598" data-name="Path 43598" d="M54.174,25.688A5.769,5.769,0,1,0,48.4,19.97a5.752,5.752,0,0,0,5.775,5.718" fill="#373464"/>
  </g>
</svg>
