<?xml version="1.0" encoding="UTF-8"?>
<svg id="Layer_2" data-name="Layer 2" xmlns="http://www.w3.org/2000/svg" viewBox="0 0 70.62 70.62">
  <defs>
    <style>
      .cls-1 {
        fill: #6bddb3;
      }

      .cls-1, .cls-2 {
        stroke-width: 0px;
      }

      .cls-2 {
        fill: #02adff;
      }
    </style>
  </defs>
  <g id="Layer_1-2" data-name="Layer 1">
    <g>
      <circle class="cls-2" cx="35.31" cy="35.31" r="35.31"/>
      <path class="cls-1" d="M6.2,28.06l.03.02c1.25.8,2.48,1.62,3.77,2.48.36.24,1.1.74,1.1.74l.02.02c.3.21.48.55.49.92,0,.62-.49,1.03-.86,1.34-.07.06-.14.11-.19.16l-.02.02h-.02c-.24.22-1.45,1.38-1.29,3.68.28,4.23,3.93,5.98,4.94,6.1h.06s.06.03.06.03c.3.06.6.11.9.14,1.59.21,3.23.43,3.33,1.59v.03c.07,1.45.03,2.65,0,3.93-.03.92-.06,1.87-.05,2.93.02,1.61.49,4.75,3.41,7.68.47.47,1.72,1.13,2.69,1.13.66,0,.93-.28.95-1v-.04s0-.04,0-.04c.06-.42.05-.85-.02-1.27-.11-.84-.11-1.47.82-2.53.45-.5,1.11-.92,1.81-1.38,1.05-.68,2.23-1.45,2.18-2.23-.63-2.68,1.07-4,2.57-5.17,1-.78,1.95-1.52,2.31-2.63.33-1.37.6-2.79.86-4.16l.17-.89c.08-.35.07-.61-.03-.74-.08-.11-.36-.28-1.3-.28-.34,0-.71.02-1.07.04-.35.02-.69.04-1,.04-.17,0-.32,0-.45-.02h-.06c-.67.03-1.29-.34-1.59-.94-.27-.46-.51-.88-.73-1.27-2.14-3.71-2.3-3.89-3.6-3.89-.33,0-.74.02-1.22.05-.75.04-1.68.1-2.9.1-.65,0-1.33-.02-2.01-.05h-.05s-.05-.01-.05-.01c-1.19-.23-1.66-1.3-2.08-2.24-.58-1.3-1-2.09-2.41-2.1-2.44,0-4.06-2.25-4.34-4.36-.17-1.31.24-2.26,1.07-2.49h.05c.86-.18,1.74-.29,2.6-.4,1.77-.22,3.45-.42,4.93-1.15.65-.43,1.36-.81,2.04-1.18,1.43-.78,2.79-1.51,3.71-2.64.45-.62.85-1.28,1.19-1.97.37-.74.8-1.46,1.28-2.14.63-.82,1.49-1.43,2.48-1.73,1.99-.63,2.04-.81,2.55-2.51.14-.47.32-1.06.57-1.78.09-.29.1-.52.04-.64s-.28-.21-.59-.27h-.05c-.68-.18-3.91.89-5.8.52-2.68-.52-3.53-2.4-5.78-2.9C13.42,6.21,6.8,12.65,3.12,20.78c1.11,3.24,2.45,6.82,3.08,7.28h0Z"/>
      <path class="cls-1" d="M63.06,18.03c-1.24.42-2.41.82-3.6,1.17-.4.12-.82.18-1.24.18-.09,0-.18,0-.27,0-1.04-.09-2.08-.25-3.09-.48-.73-.15-1.41-.28-2.08-.37h-.05s-.05-.02-.05-.02c-1.24-.36-1.87-1.42-2.42-2.36-.19-.34-.4-.66-.63-.97l-.07-.09-.03-.08c-.07-.07-.51-.36-2.62-.36-.78,0-1.63.04-2.38.07-.64.03-1.25.06-1.73.06-.24,0-.44,0-.6-.02-1.76.35-3.22,1.56-3.89,3.22-.7,1.73-.29,3.73.14,5.85.1.49.2.99.29,1.49.26,1.43,1.2,2.65,2.53,3.25,1.04.47,2.28.95,3.37,1.37.93.36,1.81.7,2.43.98.32.15.67.23,1.03.23.06,0,.13,0,.19,0,.58-.07,1.15-.19,1.71-.37.67-.19,1.36-.39,2.09-.39.57,0,1.13.13,1.64.38,1.42.73,2.25,2.25,2.1,3.83l-.02.19c-.02.17-.03.34-.04.5-.07,1.04.16,2.03.74,3.11,1.29,2.43,2.52,4.94,3.66,7.29l.03.06.02.06c.33,1.19.46,2.42.39,3.65-.03,1.42-.05,2.2,1.99,3.97.07.06.87.72,2,1.64,7.69-11.4,8.08-26.22.98-38-.78.33-1.35.56-1.45.6-.36.12-.71.24-1.06.36h0Z"/>
    </g>
  </g>
</svg>