<svg id="Group_40028" data-name="Group 40028" xmlns="http://www.w3.org/2000/svg" xmlns:xlink="http://www.w3.org/1999/xlink" width="78.991" height="76.243" viewBox="0 0 78.991 76.243">
  <defs>
    <clipPath id="clip-path">
      <rect id="Rectangle_22020" data-name="Rectangle 22020" width="78.991" height="76.243" fill="none"/>
    </clipPath>
  </defs>
  <g id="Group_40027" data-name="Group 40027" clip-path="url(#clip-path)">
    <path id="Path_43550" data-name="Path 43550" d="M0,36.314a1.656,1.656,0,0,1,1.6-.79c4.642.034,9.285.017,13.928.018.873,0,1.415.432,1.431,1.132s-.537,1.18-1.406,1.18c-4.719,0-9.439-.007-14.158.013A1.624,1.624,0,0,1,0,37.085Z" transform="translate(0 -17.002)" fill="#e0ebf0"/>
    <path id="Path_43551" data-name="Path 43551" d="M0,83.349a2.72,2.72,0,0,1,2.22-.782c2.1.042,4.2.014,6.3.014.154,0,.308,0,.461,0,.937.023,1.672.586,1.648,1.259s-.762,1.2-1.693,1.2c-2.434,0-4.868-.008-7.3.006A1.748,1.748,0,0,1,0,84.274Z" transform="translate(0 -39.517)" fill="#e0ebf0"/>
    <path id="Path_43552" data-name="Path 43552" d="M52.033,32.8a34.911,34.911,0,0,1,7.712-2.493A30.2,30.2,0,0,1,68.766,30a3.114,3.114,0,0,0,.382,0l4.016.831a1.915,1.915,0,0,0,.1.437c.784,1.549,1.607,3.08,2.353,4.647a12.348,12.348,0,0,1,.563,1.872c-.144-.052-.292-.1-.431-.158A24.812,24.812,0,0,0,40.611,62.547,24.257,24.257,0,0,0,52.529,81.431,23.3,23.3,0,0,0,66.11,84.95c1.532-.071,3.056-.322,4.583-.49-1.095,1.326-2.163,2.676-3.3,3.969-.648.739-1.4,1.384-2.111,2.072a30.163,30.163,0,0,1-17.843-5.777c-.145-.1-.3-.194-.447-.291l-2.985-2.584a30.2,30.2,0,0,1-6.286-9.032c-.713-1.635-1.245-3.348-1.858-5.026l-.489-2.144c-.149-1.609-.374-3.216-.431-4.828a28.532,28.532,0,0,1,1.162-8.976,2.453,2.453,0,0,0,.05-.38l.795-2.3c1.124-2.093,2.13-4.262,3.4-6.263a28.783,28.783,0,0,1,7.514-7.641L52.033,32.8" transform="translate(-16.719 -14.259)" fill="#48a6d9"/>
    <path id="Path_43553" data-name="Path 43553" d="M93.153,91.453c.707-.688,1.462-1.333,2.111-2.072,1.133-1.293,2.2-2.643,3.3-3.969a3.231,3.231,0,0,1,.358-.136c10.8-2.765,18.194-11.355,19.01-22.438a24.264,24.264,0,0,0-6.946-19.026,26.247,26.247,0,0,0-6.716-4.971l-.193-.121-.022.016a12.347,12.347,0,0,0-.563-1.872c-.746-1.567-1.569-3.1-2.353-4.647a1.861,1.861,0,0,1-.1-.437l3.039.916,4.056,1.948a30.031,30.031,0,0,1,13.784,16.623A30.346,30.346,0,0,1,99.854,90.733a57.441,57.441,0,0,1-6.7.721" transform="translate(-44.585 -15.211)" fill="#387ea5"/>
    <path id="Path_43554" data-name="Path 43554" d="M101.506,8.461c-.846-.289-1.7-.571-2.539-.87a1.726,1.726,0,0,1-1.2-2.36c.4-1.271.819-2.534,1.243-3.8A1.758,1.758,0,0,1,101.522.152q5.81,1.887,11.609,3.806c.387.127.769.271,1.152.407.2.533.707,1.184.553,1.579-.787,2.028-.73,4.463-2.711,5.943l-3.706-1.173-6.913-2.254" transform="translate(-46.737 0)" fill="#48a6d9"/>
    <path id="Path_43555" data-name="Path 43555" d="M102.9,16.228l6.913,2.254a8.4,8.4,0,0,1-.2,1.114q-.649,2.034-1.35,4.052c-.188.544-.428,1.071-.644,1.605l-3.04-.916-4.015-.83c.52-1.547,1.053-3.091,1.558-4.643.283-.871.522-1.757.781-2.636" transform="translate(-48.13 -7.767)" fill="#e9eff2"/>
    <path id="Path_43556" data-name="Path 43556" d="M40.3,129.637l2.985,2.584c-4.849.008-9.7.029-14.548.008-.64,0-1.394-.064-1.537-.947-.15-.925.369-1.493,1.366-1.5,2.668-.009,5.337,0,8.005,0,1,0,2,.009,3-.007a4.126,4.126,0,0,0,.725-.139" transform="translate(-13.007 -62.047)" fill="#e0ebf0"/>
    <path id="Path_43557" data-name="Path 43557" d="M22.184,98.559l.488,2.144a5.061,5.061,0,0,1-.893.162q-6.476.016-12.952.006c-.84,0-1.37-.361-1.447-.964-.114-.888.323-1.347,1.312-1.348q6.745-.005,13.491,0" transform="translate(-3.524 -47.172)" fill="#e0ebf0"/>
    <path id="Path_43558" data-name="Path 43558" d="M125.414,15.894c1.98-1.48,1.924-3.915,2.711-5.943.153-.4-.352-1.046-.553-1.579,1.186.377,2.386.717,3.554,1.145a1.721,1.721,0,0,1,1.017,2.273q-.633,2.044-1.349,4.062a1.7,1.7,0,0,1-2.2,1.139c-.859-.233-1.7-.517-2.554-.777l-.63-.32" transform="translate(-60.026 -4.007)" fill="#387ea5"/>
    <path id="Path_43559" data-name="Path 43559" d="M119.994,21.723l.63.32c-.475,1.342-.959,2.681-1.422,4.028-.365,1.062-.705,2.132-1.057,3.2l-4.055-1.948c.216-.534.456-1.061.644-1.6q.7-2.019,1.35-4.052a8.474,8.474,0,0,0,.2-1.114l3.706,1.173" transform="translate(-54.606 -9.836)" fill="#d0dadd"/>
    <path id="Path_43560" data-name="Path 43560" d="M15.8,53.549c-1.772,0-3.543,0-5.315,0-.968,0-1.334-.337-1.32-1.187.014-.8.375-1.122,1.307-1.123q5.277-.005,10.553,0c.9,0,1.407.432,1.4,1.16,0,.745-.488,1.15-1.393,1.151q-2.618,0-5.238,0" transform="translate(-4.386 -24.522)" fill="#e0ebf0"/>
    <path id="Path_43561" data-name="Path 43561" d="M55.885,35.556l-4.164,2.459a4.8,4.8,0,0,0-.8-.14c-2.159-.011-4.317,0-6.476-.01-1.07-.006-1.8-.9-1.3-1.662a1.737,1.737,0,0,1,1.259-.622c3.828-.047,7.657-.027,11.486-.026" transform="translate(-20.571 -17.015)" fill="#e0ebf0"/>
    <path id="Path_43562" data-name="Path 43562" d="M29.151,66.934l-.795,2.3q-4.188,0-8.377,0c-.984,0-1.34-.284-1.35-1.05-.011-.807.465-1.26,1.377-1.261,3.048,0,6.1.008,9.145.013" transform="translate(-8.916 -32.029)" fill="#e0ebf0"/>
    <path id="Path_43563" data-name="Path 43563" d="M17.874,116.543c-.922,0-1.844.008-2.765,0a1.15,1.15,0,1,1-.1-2.3q2.88-.045,5.76,0a1.157,1.157,0,0,1,1.144,1.275,1.142,1.142,0,0,1-1.2,1.026c-.948.01-1.9,0-2.843,0" transform="translate(-6.652 -54.667)" fill="#e0ebf0"/>
    <path id="Path_43564" data-name="Path 43564" d="M81.486,42.96A26.25,26.25,0,0,1,88.2,47.931a24.264,24.264,0,0,1,6.946,19.026C94.333,78.041,86.942,86.63,76.139,89.4a3.311,3.311,0,0,0-.358.136c-1.527.168-3.051.419-4.583.49A23.306,23.306,0,0,1,57.617,86.5,24.258,24.258,0,0,1,45.7,67.618,24.813,24.813,0,0,1,80.84,42.7c.139.063.287.106.431.158l.023-.016.192.121m-1.994,42.8,2.058-1.084a5.208,5.208,0,0,0,.627-.287A21.52,21.52,0,0,0,90,76.179c.677-1.278,1.126-2.677,1.679-4.02a4.358,4.358,0,0,0,.287-.618,21.861,21.861,0,0,0,.74-9.11,22.527,22.527,0,0,0-4.4-10.751,20.014,20.014,0,0,0-5.59-5.193l-5.332-2.595a21.252,21.252,0,0,0-9.456-1.022,18.689,18.689,0,0,0-6.538,1.8l-2.126,1.064a20.342,20.342,0,0,0-7.5,6.917,45,45,0,0,0-2.254,4.427l-.772,2.214a20.384,20.384,0,0,0-.653,8.878,19.278,19.278,0,0,0,1.759,6.085l1.059,2.078a20.08,20.08,0,0,0,5.638,6.606,18.491,18.491,0,0,0,5.728,3.2l2.23.755a18.973,18.973,0,0,0,8.1.69A52.134,52.134,0,0,0,78.1,86.31l1.392-.551" transform="translate(-21.807 -19.33)" fill="#d0dadd"/>
    <path id="Path_43565" data-name="Path 43565" d="M114.287,45.211l-.193-.121.193.121" transform="translate(-54.608 -21.581)" fill="#385e7d"/>
    <path id="Path_43566" data-name="Path 43566" d="M63.53,46.829a18.7,18.7,0,0,1,6.538-1.8,21.257,21.257,0,0,1,9.455,1.022L73.767,63.61a4.275,4.275,0,0,0-3.516.5q-4.31-3.947-8.626-7.889a1.166,1.166,0,1,0-1.551,1.738c.912.864,1.847,1.7,2.779,2.546q2.995,2.707,6,5.405c-.566,2.8.548,4.744,3.037,5.308.152,1.42.3,2.842.456,4.261.1.935.6,1.45,1.3,1.372.728-.081,1.117-.646,1.023-1.6-.142-1.422-.326-2.84-.492-4.26a5.234,5.234,0,0,0,2.161-2.421l9.75,3.262a10.645,10.645,0,0,1-.217,1.583c-.84,2.91-1.687,5.819-2.6,8.707a10.11,10.11,0,0,1-1.05,1.862A1.192,1.192,0,0,0,80.55,84a1.247,1.247,0,0,0-.113,1.62c.208.408.39.83.584,1.245l-.79,1.6a52,52,0,0,1-5.484,1.275,18.973,18.973,0,0,1-8.1-.69c.281-.874.572-1.745.84-2.623a1.179,1.179,0,0,0-.735-1.6,1.155,1.155,0,0,0-1.48.85c-.3.866-.571,1.746-.855,2.619a18.493,18.493,0,0,1-5.729-3.2,20.074,20.074,0,0,1-5.637-6.606c.8-.4,1.606-.783,2.4-1.2a1.191,1.191,0,0,0,.647-1.652,1.178,1.178,0,0,0-1.714-.44c-.8.388-1.592.808-2.387,1.214a19.3,19.3,0,0,1-1.759-6.085,20.379,20.379,0,0,1,.653-8.879c.85.28,1.7.57,2.551.836a1.2,1.2,0,0,0,1.622-.712,1.185,1.185,0,0,0-.853-1.495c-.843-.3-1.7-.564-2.548-.844a44.82,44.82,0,0,1,2.254-4.427,20.332,20.332,0,0,1,7.5-6.917c.392.773.775,1.551,1.177,2.319a1.184,1.184,0,1,0,2.092-1.05c-.373-.782-.761-1.556-1.143-2.334" transform="translate(-23.938 -21.491)" fill="#fff"/>
    <path id="Path_43567" data-name="Path 43567" d="M107.889,72.891,98.139,69.63c.252-2.762-.44-4.1-2.57-4.963l5.758-17.56,5.333,2.595c.466,2.247,1,4.483,1.378,6.744a31.873,31.873,0,0,1,.465,4.793c.041,2.678-.042,5.359-.129,8.038-.039,1.2-.216,2.387-.33,3.581l-.154.034" transform="translate(-45.741 -22.546)" fill="#56bfed"/>
    <path id="Path_43568" data-name="Path 43568" d="M118.223,75.24c.114-1.193.291-2.385.33-3.581.088-2.678.17-5.36.129-8.038a31.8,31.8,0,0,0-.465-4.793c-.382-2.261-.912-4.5-1.378-6.744a20.028,20.028,0,0,1,5.59,5.193,22.527,22.527,0,0,1,4.4,10.751,21.862,21.862,0,0,1-.74,9.11,4.243,4.243,0,0,1-.287.618l-7.575-2.518" transform="translate(-55.922 -24.928)" fill="#3f88a8"/>
    <path id="Path_43569" data-name="Path 43569" d="M115.8,96.5l7.575,2.518c-.553,1.344-1,2.742-1.679,4.02a21.52,21.52,0,0,1-7.827,8.209,5.092,5.092,0,0,1-.627.286l-1.463-2.847a10.125,10.125,0,0,0,1.051-1.862c.914-2.887,1.76-5.8,2.6-8.707a10.586,10.586,0,0,0,.216-1.583l.154-.034" transform="translate(-53.5 -46.185)" fill="#e0ebf0"/>
    <path id="Path_43570" data-name="Path 43570" d="M77.629,124.9c.283-.873.551-1.752.855-2.618a1.155,1.155,0,0,1,1.48-.851,1.179,1.179,0,0,1,.735,1.6c-.268.878-.559,1.749-.839,2.623l-2.23-.755" transform="translate(-37.155 -58.089)" fill="#387ea5"/>
    <path id="Path_43571" data-name="Path 43571" d="M53.8,104.057c.8-.406,1.583-.825,2.387-1.214a1.178,1.178,0,0,1,1.714.44,1.191,1.191,0,0,1-.647,1.652c-.789.417-1.6.8-2.4,1.2L53.8,104.057" transform="translate(-25.749 -49.134)" fill="#387ea5"/>
    <path id="Path_43572" data-name="Path 43572" d="M109.922,119.562l1.462,2.847-2.057,1.084-.6-1.048c-.193-.416-.376-.837-.583-1.246a1.247,1.247,0,0,1,.112-1.62,1.192,1.192,0,0,1,1.669-.017" transform="translate(-51.642 -57.065)" fill="#387ea5"/>
    <path id="Path_43573" data-name="Path 43573" d="M52.451,72.4c.85.28,1.705.544,2.548.844a1.185,1.185,0,0,1,.853,1.495,1.2,1.2,0,0,1-1.622.712c-.855-.266-1.7-.556-2.551-.836l.772-2.214" transform="translate(-24.735 -34.65)" fill="#387ea5"/>
    <path id="Path_43574" data-name="Path 43574" d="M73.985,48.6c.382.778.77,1.552,1.143,2.334a1.184,1.184,0,1,1-2.092,1.05c-.4-.768-.785-1.546-1.177-2.319L73.985,48.6" transform="translate(-34.393 -23.26)" fill="#387ea5"/>
    <path id="Path_43575" data-name="Path 43575" d="M108.758,125.4l.6,1.049-1.392.551.789-1.6" transform="translate(-51.676 -60.018)" fill="#d8ebf8"/>
    <path id="Path_43576" data-name="Path 43576" d="M90.923,80.626c2.13.865,2.822,2.2,2.569,4.963a5.242,5.242,0,0,1-2.161,2.421l-2.289.221c-2.489-.565-3.6-2.512-3.037-5.308l1.4-1.8a4.275,4.275,0,0,1,3.516-.5" transform="translate(-41.095 -38.506)" fill="#48a6d9"/>
    <path id="Path_43577" data-name="Path 43577" d="M79.085,74.19l-1.4,1.8q-3-2.7-6-5.4c-.932-.843-1.867-1.682-2.779-2.546A1.166,1.166,0,1,1,70.459,66.3q4.325,3.931,8.626,7.889" transform="translate(-32.772 -31.572)" fill="#387ea5"/>
    <path id="Path_43578" data-name="Path 43578" d="M91.964,95.17l2.289-.221c.166,1.419.35,2.837.492,4.26.094.949-.295,1.514-1.023,1.595-.7.079-1.2-.437-1.3-1.372-.159-1.42-.3-2.841-.456-4.261" transform="translate(-44.016 -45.444)" fill="#387ea5"/>
  </g>
</svg>
