<svg xmlns="http://www.w3.org/2000/svg" width="73.885" height="64.059" viewBox="0 0 73.885 64.059">
  <g id="Group_40032" data-name="Group 40032" transform="translate(-4091.786 -658)">
    <path id="Path_43611" data-name="Path 43611" d="M180.1,236.522h10.7a18.834,18.834,0,0,0,14.08,6.257h.009l15.863-.006A11.445,11.445,0,0,0,232.1,232.7l1.429-11.938-33.256-6.644-27.308,6.644Z" transform="translate(3930.272 479.28)" fill="#e9eff1"/>
    <path id="Path_43612" data-name="Path 43612" d="M233.53,63.959l1.81-15.117a8.567,8.567,0,0,0-8.507-9.586H216.3l.519-5.779a10.606,10.606,0,0,0-10.564-11.554h-2.109v2.7a23.5,23.5,0,0,1-6.852,16.64,23.1,23.1,0,0,1-16.5,6.935H180.1l-7.133,15.765Z" transform="translate(3930.27 636.078)" fill="#e0ebf0"/>
    <path id="Path_43613" data-name="Path 43613" d="M110.786,238.947H129.37V223.181l-8.837-6.1-9.747,6.1Z" transform="translate(3981 476.855)" fill="#48a6d9"/>
    <path id="Path_43614" data-name="Path 43614" d="M110.786,164.581H129.37v15.765H110.786Z" transform="translate(3981 519.69)" fill="#387ea5"/>
  </g>
</svg>
