<svg xmlns="http://www.w3.org/2000/svg" width="80.038" height="80.039" viewBox="0 0 80.038 80.039">
  <g id="Group_40024" data-name="Group 40024" transform="translate(-1037 -985)">
    <g id="Group_40023" data-name="Group 40023">
      <path id="Path_42041" data-name="Path 42041" d="M198.212,444.963a40.019,40.019,0,1,1-40.02-40.02,40.019,40.019,0,0,1,40.02,40.02" transform="translate(918.826 580.057)" fill="#004c79"/>
      <path id="Union_1" data-name="Union 1" d="M-11942.769-9272.284v-.019h-5.262a6.132,6.132,0,0,1-5.971-6.113v-34.453a6.148,6.148,0,0,1,5.971-6.132v.3c0-.027,0-.06.006-.09V-9319h18.885a6.136,6.136,0,0,1,6.147,6.132v34.453a6.137,6.137,0,0,1-6.147,6.132Zm1.935-34.579.8-.8v-4.887h-.816v1.725c0,.552-.318,1.119-.87,1.119a.683.683,0,0,1-.711-.729v-2.114h-.816v2.1a1.485,1.485,0,0,0,1.51,1.548,1.392,1.392,0,0,0,.905-.339Zm7.536-7.7.016,4.479a1.732,1.732,0,0,0,1.119,1.813l.339.087v-.8l-.054-.018a1.01,1.01,0,0,1-.6-1.065v-5.312Zm-13.56,4.1a1.485,1.485,0,0,0,1.512,1.548,1.486,1.486,0,0,0,.906-.321v.214h.8v-3.537h-.816v1.725c0,.552-.32,1.119-.87,1.119a.683.683,0,0,1-.711-.729v-2.114h-.818Zm-3.786.09a1.511,1.511,0,0,0,1.652,1.351,1.436,1.436,0,0,0,1.6-1.387,1.455,1.455,0,0,0-1.029-1.4l-.78-.372c-.41-.2-.41-.321-.41-.427,0-.267.249-.446.588-.446a.605.605,0,0,1,.656.462l.019.162h.906l-.036-.285a1.431,1.431,0,0,0-1.545-1.209,1.364,1.364,0,0,0-1.494,1.332c0,.569.3.944.96,1.245l.8.393c.357.159.465.282.465.549,0,.3-.285.5-.711.5a.682.682,0,0,1-.747-.585l-.036-.162h-.905Zm12-2.469a2.042,2.042,0,0,0-1.155,1.848,2.011,2.011,0,0,0,1.119,1.846l.087.038.624-.605-.2-.069a1.248,1.248,0,0,1-.837-1.209,1.248,1.248,0,0,1,1.191-1.281h.054a1.209,1.209,0,0,1,1.191.873l.051.214.643-.643-.039-.09a2.04,2.04,0,0,0-1.824-1.144A1.977,1.977,0,0,0-11938.646-9312.833Zm1.137,2.487.033.071a2.051,2.051,0,0,0,2.757.939,1.988,1.988,0,0,0,1.135-1.845,1.976,1.976,0,0,0-1.119-1.849l-.069-.054-.624.621.2.071a1.251,1.251,0,0,1,.818,1.21,1.245,1.245,0,0,1-1.19,1.277h-.051a1.237,1.237,0,0,1-1.191-.888l-.054-.2Z" transform="translate(13015.516 10321.543)" fill="#fff" stroke="rgba(0,0,0,0)" stroke-width="1"/>
    </g>
    <path id="Path_43529" data-name="Path 43529" d="M5.591,173.4,3.663,178H2.405l-.948-3.67a.508.508,0,0,0-.283-.4A5,5,0,0,0,0,173.536l.029-.133H2.053a.554.554,0,0,1,.549.469l.5,2.662L4.341,173.4h1.25Zm4.928,3.1c.006-1.213-1.679-1.279-1.667-1.822,0-.166.16-.341.5-.385a2.245,2.245,0,0,1,1.173.205l.209-.975a3.2,3.2,0,0,0-1.113-.2c-1.176,0-2,.625-2.011,1.52-.008.662.591,1.031,1.042,1.251s.618.37.617.572c0,.309-.37.444-.712.45a2.49,2.49,0,0,1-1.222-.291l-.215,1.008a3.629,3.629,0,0,0,1.323.245c1.25,0,2.067-.619,2.071-1.575m3.105,1.5h1.1l-.96-4.6H12.748a.543.543,0,0,0-.507.337L10.457,178h1.249l.248-.687H13.48Zm-1.328-1.63.627-1.727.36,1.727ZM7.291,173.4,6.306,178H5.117l.985-4.6Z" transform="translate(1074.474 867.876)" fill="#004c79"/>
  </g>
</svg>
