<svg xmlns="http://www.w3.org/2000/svg" width="17" height="17" viewBox="0 0 17 17">
  <g id="Group_3964" data-name="Group 3964" transform="translate(-21 79)">
    <path id="Path_9522" data-name="Path 9522" d="M37.769-63.472,34.6-66.611a7.647,7.647,0,0,0-.567-10.154A7.547,7.547,0,0,0,28.648-79a7.617,7.617,0,0,0-5.411,2.234A7.546,7.546,0,0,0,21-71.363a7.546,7.546,0,0,0,2.237,5.4,7.683,7.683,0,0,0,5.411,2.234,7.619,7.619,0,0,0,4.759-1.668l3.145,3.14a.815.815,0,0,0,.6.254.775.775,0,0,0,.6-.254.882.882,0,0,0,.027-1.218ZM34.6-71.363a5.813,5.813,0,0,1-1.756,4.186,6,6,0,0,1-4.193,1.753,5.83,5.83,0,0,1-4.193-1.753A5.98,5.98,0,0,1,22.7-71.363a5.813,5.813,0,0,1,1.756-4.186A5.948,5.948,0,0,1,28.648-77.3,5.83,5.83,0,0,1,32.84-75.55,5.931,5.931,0,0,1,34.6-71.363Z" fill="#767676"/>
  </g>
</svg>
