<svg xmlns="http://www.w3.org/2000/svg" xmlns:xlink="http://www.w3.org/1999/xlink" width="54" height="54" viewBox="0 0 54 54">
  <defs>
    <clipPath id="clip-path">
      <circle id="Ellipse_627" data-name="Ellipse 627" cx="27" cy="27" r="27" transform="translate(38 182)" fill="#10a9dc"/>
    </clipPath>
  </defs>
  <g id="Mask_Group_7237" data-name="Mask Group 7237" transform="translate(-38 -182)" clip-path="url(#clip-path)">
    <circle id="Ellipse_626" data-name="Ellipse 626" cx="27" cy="27" r="27" transform="translate(38 182)" fill="#14254b"/>
    <circle id="Ellipse_565" data-name="Ellipse 565" cx="27" cy="27" r="27" transform="translate(37.839 182)" fill="red"/>
    <circle id="Ellipse_624" data-name="Ellipse 624" cx="27" cy="27" r="27" transform="translate(38 182)" fill="#10a9dc"/>
    <path id="Path_41464" data-name="Path 41464" d="M261.613,31.4a10.48,10.48,0,0,1-4.963,1.251c-3.988-.212-5.86-.979-9.185,1.413-4.516,3.248-11.16,2.27-11.16-.272,0-3.4,6.728-2.086,7.245-4.036.582-2.19-2.861-3.6-2.362-5.616.579-2.324,3.526-.425,6.324-.747,1.713-.2,2.407-2.057,2.676-3.829A22.058,22.058,0,0,1,261.613,31.4Z" transform="translate(-171.304 166.132)" fill="#7c7f2a"/>
    <path id="Path_41465" data-name="Path 41465" d="M83.222,14.875c-1.877,1.145-.48,4.973-3.032,5.656-3.221.862-3.754-4.009-6.786-4.939a10.59,10.59,0,0,0-4.927.078A21.867,21.867,0,0,1,83.446,5.36a4.5,4.5,0,0,0-.224,2.855c.765,2.545,4.475,1.247,4.7,3.647S85.1,13.729,83.222,14.875Z" transform="matrix(0.951, -0.309, 0.309, 0.951, -31.094, 206.785)" fill="#7c7f2a"/>
    <path id="Path_41466" data-name="Path 41466" d="M92.41,20.8c-3.047,1.859-.779,8.072-4.921,9.18-5.228,1.4-6.093-6.507-11.014-8.017-2.37-.728-5.444-.406-8,.127,5.476-9.024,13.732-14.6,24.3-16.733a7.308,7.308,0,0,0-.364,4.635c1.241,4.131,7.264,2.025,7.631,5.92S95.456,18.944,92.41,20.8Z" transform="translate(21.67 307.021) rotate(-83)" fill="#7c7f2a"/>
    <path id="Path_41467" data-name="Path 41467" d="M333.837,202.6q-.277-13.54-.926-25.377c-1.579,3.76-3.872,7.986-6.061,7.521-3.5-.738-7.157-12.074-10.753,0-.807,2.71-5.955,9.774-1.108,11.216Z" transform="translate(-155.279 -69.819) rotate(21)" fill="#7c7f2a"/>
    <text id="I_teach_full_stack_development_Which_means_you_will_see_tutorials_regarding_UI_UX_Frontend_Dev_Backend_Dev_Graphic_Design_and_more" data-name="I teach full stack development! Which means you will see tutorials regarding UI/UX, Frontend Dev, Backend Dev, Graphic Design and more" transform="translate(65 217)" fill="#fff" font-size="21" font-family="Poppins-Medium, Poppins" font-weight="500"><tspan x="-22.701" y="0">50M</tspan></text>
    <text id="I_teach_full_stack_development_Which_means_you_will_see_tutorials_regarding_UI_UX_Frontend_Dev_Backend_Dev_Graphic_Design_and_more-2" data-name="I teach full stack development! Which means you will see tutorials regarding UI/UX, Frontend Dev, Backend Dev, Graphic Design and more" transform="translate(643 353)" fill="#fff" font-size="21" font-family="Poppins-Medium, Poppins" font-weight="500"><tspan x="-22.701" y="0">50M</tspan></text>
    <path id="Path_41546" data-name="Path 41546" d="M370.074,82.121c-7.878,3.869-17.293,7.088-26.234,6.613-21.078-1.118-30.974-5.177-48.548,7.47-23.871,17.169-58.988,12-58.988-1.436,0-17.957,35.559-11.027,38.294-21.33,3.074-11.573-15.122-19.05-12.483-29.683,3.062-12.285,18.638-2.249,33.427-3.951,9.056-1.042,12.719-10.874,14.142-20.238C336.539,31.445,357.034,52.292,370.074,82.121Z" transform="translate(1094.094 114.992) rotate(48)" fill="#7c7f2a"/>
  </g>
</svg>
