<svg xmlns="http://www.w3.org/2000/svg" xmlns:xlink="http://www.w3.org/1999/xlink" width="357" height="239" viewBox="0 0 357 239">
  <defs>
    <filter id="Rectangle_20727" x="0" y="0" width="357" height="239" filterUnits="userSpaceOnUse">
      <feOffset dy="3" input="SourceAlpha"/>
      <feGaussianBlur stdDeviation="3" result="blur"/>
      <feFlood flood-opacity="0.161"/>
      <feComposite operator="in" in2="blur"/>
      <feComposite in="SourceGraphic"/>
    </filter>
  </defs>
  <g id="Group_39154" data-name="Group 39154" transform="translate(-9 -182)">
    <g transform="matrix(1, 0, 0, 1, 9, 182)" filter="url(#Rectangle_20727)">
      <rect id="Rectangle_20727-2" data-name="Rectangle 20727" width="339" height="221" rx="7" transform="translate(9 6)" fill="#f4c615"/>
    </g>
    <path id="Android_UI" data-name="Android UI" d="M-79.74-21.06a12.25,12.25,0,0,1,5.82,1.32,9.43,9.43,0,0,1,3.855,3.7,10.886,10.886,0,0,1,1.365,5.5,10.908,10.908,0,0,1-1.365,5.49,9.38,9.38,0,0,1-3.87,3.72A12.272,12.272,0,0,1-79.74,0h-7.89V-21.06Zm-.33,16.62a6.191,6.191,0,0,0,4.53-1.59,6.02,6.02,0,0,0,1.62-4.5,6.124,6.124,0,0,0-1.62-4.53,6.124,6.124,0,0,0-4.53-1.62H-82.5V-4.44ZM-58.2.21a10.833,10.833,0,0,1-4.14-.75,6.748,6.748,0,0,1-2.925-2.22A6.065,6.065,0,0,1-66.42-6.3h5.46a2.649,2.649,0,0,0,.81,1.785,2.6,2.6,0,0,0,1.8.615,2.815,2.815,0,0,0,1.8-.525,1.756,1.756,0,0,0,.66-1.455,1.722,1.722,0,0,0-.525-1.29,4.235,4.235,0,0,0-1.29-.84,20.75,20.75,0,0,0-2.175-.75,23.682,23.682,0,0,1-3.33-1.26,6.153,6.153,0,0,1-2.22-1.86,5.183,5.183,0,0,1-.93-3.21,5.52,5.52,0,0,1,2.13-4.6,8.752,8.752,0,0,1,5.55-1.665,8.854,8.854,0,0,1,5.61,1.665,5.96,5.96,0,0,1,2.28,4.635h-5.55a2.171,2.171,0,0,0-.75-1.6,2.642,2.642,0,0,0-1.77-.585,2.206,2.206,0,0,0-1.5.5,1.785,1.785,0,0,0-.57,1.425,1.766,1.766,0,0,0,.96,1.59,15.737,15.737,0,0,0,3,1.23,27.745,27.745,0,0,1,3.315,1.32,6.311,6.311,0,0,1,2.2,1.83,4.9,4.9,0,0,1,.93,3.09A6.064,6.064,0,0,1-51.435-3,6.408,6.408,0,0,1-54.09-.66,9.089,9.089,0,0,1-58.2.21Zm15.96-4.17h6.72V0H-47.37V-21.06h5.13Zm15.15.06V-8.04l9.48-13.56h5.73V-8.34h2.46V-3.9h-2.46V0h-5.13V-3.9Zm10.44-12.06-5.04,7.62h5.04Zm40.47-5.1V0H18.69V-12.63L13.98,0H9.84L5.1-12.66V0H-.03V-21.06H6.03L11.94-6.48l5.85-14.58Zm8.82,6.69a5.279,5.279,0,0,1,2.07-1.89,6.465,6.465,0,0,1,3.09-.72,6.931,6.931,0,0,1,3.75,1.05,7.273,7.273,0,0,1,2.655,3A10,10,0,0,1,45.18-8.4a10.1,10.1,0,0,1-.975,4.545A7.359,7.359,0,0,1,41.55-.825,6.859,6.859,0,0,1,37.8.24a6.465,6.465,0,0,1-3.09-.705A5.452,5.452,0,0,1,32.64-2.34V0H27.51V-22.2h5.13ZM39.96-8.4A4.141,4.141,0,0,0,38.9-11.415a3.517,3.517,0,0,0-2.625-1.1,3.46,3.46,0,0,0-2.595,1.11A4.194,4.194,0,0,0,32.61-8.37a4.194,4.194,0,0,0,1.065,3.03A3.46,3.46,0,0,0,36.27-4.23a3.486,3.486,0,0,0,2.61-1.125A4.213,4.213,0,0,0,39.96-8.4Zm13.05-5.97a5.569,5.569,0,0,1,2.07-1.89,6.354,6.354,0,0,1,3.09-.72,6.931,6.931,0,0,1,3.75,1.05,7.273,7.273,0,0,1,2.655,3A10,10,0,0,1,65.55-8.4a10.1,10.1,0,0,1-.975,4.545A7.359,7.359,0,0,1,61.92-.825,6.859,6.859,0,0,1,58.17.24a6.377,6.377,0,0,1-3.075-.72A5.637,5.637,0,0,1,53.01-2.34V7.98H47.88V-16.74h5.13ZM60.33-8.4a4.141,4.141,0,0,0-1.065-3.015,3.517,3.517,0,0,0-2.625-1.1,3.46,3.46,0,0,0-2.595,1.11A4.194,4.194,0,0,0,52.98-8.37a4.194,4.194,0,0,0,1.065,3.03A3.46,3.46,0,0,0,56.64-4.23a3.486,3.486,0,0,0,2.61-1.125A4.213,4.213,0,0,0,60.33-8.4ZM75.06.24a9.622,9.622,0,0,1-3.9-.75,6.661,6.661,0,0,1-2.7-2.055A5.405,5.405,0,0,1,67.35-5.49h5.07a1.949,1.949,0,0,0,.81,1.41A2.866,2.866,0,0,0,75-3.54a2.526,2.526,0,0,0,1.485-.375,1.148,1.148,0,0,0,.525-.975,1.125,1.125,0,0,0-.75-1.065,15.152,15.152,0,0,0-2.43-.765,22.814,22.814,0,0,1-3-.885,5.183,5.183,0,0,1-2.07-1.47,4.006,4.006,0,0,1-.87-2.715,4.61,4.61,0,0,1,.795-2.625,5.353,5.353,0,0,1,2.34-1.875,8.96,8.96,0,0,1,3.675-.69,7.367,7.367,0,0,1,4.965,1.56,6.07,6.07,0,0,1,2.085,4.14H77.01a2.043,2.043,0,0,0-.765-1.38,2.653,2.653,0,0,0-1.695-.51,2.343,2.343,0,0,0-1.38.345,1.1,1.1,0,0,0-.48.945,1.154,1.154,0,0,0,.765,1.08,12.253,12.253,0,0,0,2.385.72,26.093,26.093,0,0,1,3.03.945,5.227,5.227,0,0,1,2.055,1.5A4.244,4.244,0,0,1,81.84-4.86a4.4,4.4,0,0,1-.825,2.625A5.456,5.456,0,0,1,78.645-.42,9.064,9.064,0,0,1,75.06.24ZM-84.734,39.308V31.04h14.4V69h-9.256V39.308ZM-64.246,49.5q0-8.944,3.458-14.092t11.154-5.148q7.7,0,11.154,5.148T-35.022,49.5q0,9.048-3.458,14.2t-11.154,5.148q-7.7,0-11.154-5.148T-64.246,49.5Zm20.488,0A22.429,22.429,0,0,0-44.9,41.414q-1.144-2.834-4.732-2.834t-4.732,2.834A22.429,22.429,0,0,0-55.51,49.5a34,34,0,0,0,.416,5.85,7.486,7.486,0,0,0,1.69,3.744,4.787,4.787,0,0,0,3.77,1.43,4.787,4.787,0,0,0,3.77-1.43,7.486,7.486,0,0,0,1.69-3.744A33.995,33.995,0,0,0-43.758,49.5Zm13.416,0q0-8.944,3.458-14.092T-15.73,30.26q7.7,0,11.154,5.148T-1.118,49.5q0,9.048-3.458,14.2T-15.73,68.844q-7.7,0-11.154-5.148T-30.342,49.5Zm20.488,0A22.429,22.429,0,0,0-11,41.414q-1.144-2.834-4.732-2.834t-4.732,2.834A22.429,22.429,0,0,0-21.606,49.5a34,34,0,0,0,.416,5.85,7.486,7.486,0,0,0,1.69,3.744,4.787,4.787,0,0,0,3.77,1.43,4.787,4.787,0,0,0,3.77-1.43,7.486,7.486,0,0,0,1.69-3.744A33.995,33.995,0,0,0-9.854,49.5ZM39.7,44.04a6.651,6.651,0,0,0-2.834-2.782,9.273,9.273,0,0,0-4.342-.962A8.934,8.934,0,0,0,25.61,43.13a10.755,10.755,0,0,0-2.6,7.566q0,5.044,2.73,7.878a9.943,9.943,0,0,0,7.514,2.834,9.088,9.088,0,0,0,5.538-1.664,9.431,9.431,0,0,0,3.3-4.784H30.81V48.408H50.154v8.268A17.442,17.442,0,0,1,46.8,62.864a17.7,17.7,0,0,1-6.006,4.628,18.564,18.564,0,0,1-8.216,1.768,19.449,19.449,0,0,1-9.646-2.366,16.853,16.853,0,0,1-6.6-6.578,19.3,19.3,0,0,1-2.366-9.62,19.449,19.449,0,0,1,2.366-9.646,16.853,16.853,0,0,1,6.578-6.6,19.3,19.3,0,0,1,9.62-2.366,18.689,18.689,0,0,1,11.05,3.172A14.969,14.969,0,0,1,49.53,44.04Zm37.492,6.24a8.49,8.49,0,0,1,5.1,3.146,9.569,9.569,0,0,1-1.274,12.9Q77.818,69,72.1,69h-17V32.5H71.526q5.564,0,8.71,2.548a8.428,8.428,0,0,1,3.146,6.916,8.354,8.354,0,0,1-1.69,5.356A8.74,8.74,0,0,1,77.194,50.28ZM63.986,47.264H69.81a5.156,5.156,0,0,0,3.354-.962,3.456,3.456,0,0,0,1.17-2.834,3.534,3.534,0,0,0-1.17-2.86,5.061,5.061,0,0,0-3.354-.988H63.986Zm6.552,14.56A5.273,5.273,0,0,0,74,60.81a3.6,3.6,0,0,0,1.222-2.938,3.761,3.761,0,0,0-1.274-3.016,5.221,5.221,0,0,0-3.51-1.092H63.986v8.06Z" transform="translate(188 271)" fill="#fff"/>
  </g>
</svg>
