<svg xmlns="http://www.w3.org/2000/svg" xmlns:xlink="http://www.w3.org/1999/xlink" width="357" height="239" viewBox="0 0 357 239">
  <defs>
    <filter id="Rectangle_20727" x="0" y="0" width="357" height="239" filterUnits="userSpaceOnUse">
      <feOffset dy="3" input="SourceAlpha"/>
      <feGaussianBlur stdDeviation="3" result="blur"/>
      <feFlood flood-opacity="0.161"/>
      <feComposite operator="in" in2="blur"/>
      <feComposite in="SourceGraphic"/>
    </filter>
  </defs>
  <g id="Group_39148" data-name="Group 39148" transform="translate(-9 -182)">
    <g transform="matrix(1, 0, 0, 1, 9, 182)" filter="url(#Rectangle_20727)">
      <rect id="Rectangle_20727-2" data-name="Rectangle 20727" width="339" height="221" rx="7" transform="translate(9 6)" fill="#14254b"/>
    </g>
    <path id="Android_UI" data-name="Android UI" d="M-113.295-21.06a12.25,12.25,0,0,1,5.82,1.32,9.43,9.43,0,0,1,3.855,3.7,10.886,10.886,0,0,1,1.365,5.5,10.908,10.908,0,0,1-1.365,5.49,9.381,9.381,0,0,1-3.87,3.72A12.272,12.272,0,0,1-113.295,0h-7.89V-21.06Zm-.33,16.62a6.191,6.191,0,0,0,4.53-1.59,6.02,6.02,0,0,0,1.62-4.5,6.124,6.124,0,0,0-1.62-4.53,6.124,6.124,0,0,0-4.53-1.62h-2.43V-4.44ZM-91.755.21A10.833,10.833,0,0,1-95.9-.54,6.748,6.748,0,0,1-98.82-2.76,6.065,6.065,0,0,1-99.975-6.3h5.46a2.649,2.649,0,0,0,.81,1.785,2.6,2.6,0,0,0,1.8.615,2.815,2.815,0,0,0,1.8-.525,1.756,1.756,0,0,0,.66-1.455,1.722,1.722,0,0,0-.525-1.29,4.235,4.235,0,0,0-1.29-.84,20.751,20.751,0,0,0-2.175-.75,23.682,23.682,0,0,1-3.33-1.26,6.153,6.153,0,0,1-2.22-1.86,5.183,5.183,0,0,1-.93-3.21,5.52,5.52,0,0,1,2.13-4.6,8.752,8.752,0,0,1,5.55-1.665,8.854,8.854,0,0,1,5.61,1.665,5.96,5.96,0,0,1,2.28,4.635H-89.9a2.171,2.171,0,0,0-.75-1.6,2.642,2.642,0,0,0-1.77-.585,2.206,2.206,0,0,0-1.5.5,1.785,1.785,0,0,0-.57,1.425,1.766,1.766,0,0,0,.96,1.59,15.737,15.737,0,0,0,3,1.23,27.744,27.744,0,0,1,3.315,1.32,6.311,6.311,0,0,1,2.2,1.83,4.9,4.9,0,0,1,.93,3.09A6.063,6.063,0,0,1-84.99-3,6.408,6.408,0,0,1-87.645-.66,9.089,9.089,0,0,1-91.755.21ZM-75.8-3.96h6.72V0h-11.85V-21.06h5.13Zm25.5,4.17A10.991,10.991,0,0,1-55.74-1.17a10.316,10.316,0,0,1-3.93-3.855,10.774,10.774,0,0,1-1.455-5.565,10.694,10.694,0,0,1,1.455-5.55,10.349,10.349,0,0,1,3.93-3.84,10.991,10.991,0,0,1,5.445-1.38,10.991,10.991,0,0,1,5.445,1.38,10.132,10.132,0,0,1,3.9,3.84,10.869,10.869,0,0,1,1.425,5.55,10.861,10.861,0,0,1-1.44,5.565,10.239,10.239,0,0,1-3.9,3.855A10.908,10.908,0,0,1-50.295.21Zm0-4.68A5.168,5.168,0,0,0-46.26-6.15a6.378,6.378,0,0,0,1.515-4.44,6.366,6.366,0,0,0-1.515-4.455,5.191,5.191,0,0,0-4.035-1.665,5.25,5.25,0,0,0-4.065,1.65,6.354,6.354,0,0,0-1.515,4.47A6.366,6.366,0,0,0-54.36-6.135,5.227,5.227,0,0,0-50.295-4.47Zm18.75-9.9a5.569,5.569,0,0,1,2.07-1.89,6.354,6.354,0,0,1,3.09-.72,6.931,6.931,0,0,1,3.75,1.05,7.273,7.273,0,0,1,2.655,3A10,10,0,0,1-19-8.4a10.1,10.1,0,0,1-.975,4.545,7.359,7.359,0,0,1-2.655,3.03A6.859,6.859,0,0,1-26.385.24,6.377,6.377,0,0,1-29.46-.48a5.637,5.637,0,0,1-2.085-1.86V7.98h-5.13V-16.74h5.13Zm7.32,5.97a4.141,4.141,0,0,0-1.065-3.015,3.517,3.517,0,0,0-2.625-1.1A3.46,3.46,0,0,0-30.51-11.4a4.194,4.194,0,0,0-1.065,3.03A4.194,4.194,0,0,0-30.51-5.34a3.46,3.46,0,0,0,2.595,1.11A3.486,3.486,0,0,0-25.3-5.355,4.213,4.213,0,0,0-24.225-8.4Zm23.7-.24a13.1,13.1,0,0,1-.09,1.5h-11.61a3.489,3.489,0,0,0,1,2.385,3.07,3.07,0,0,0,2.175.825,2.7,2.7,0,0,0,2.67-1.62h5.46A7.492,7.492,0,0,1-2.43-2.58,7.585,7.585,0,0,1-5.175-.51a8.817,8.817,0,0,1-3.69.75,8.979,8.979,0,0,1-4.38-1.05,7.469,7.469,0,0,1-3-3,9.262,9.262,0,0,1-1.08-4.56,9.367,9.367,0,0,1,1.065-4.56,7.372,7.372,0,0,1,2.985-3,9.042,9.042,0,0,1,4.41-1.05,8.952,8.952,0,0,1,4.32,1.02A7.324,7.324,0,0,1-1.59-13.05,8.833,8.833,0,0,1-.525-8.64Zm-5.25-1.35a2.638,2.638,0,0,0-.9-2.1,3.313,3.313,0,0,0-2.25-.78,3.249,3.249,0,0,0-2.175.75A3.331,3.331,0,0,0-12.2-9.99Zm18.15-6.93a6.075,6.075,0,0,1,4.695,1.9A7.43,7.43,0,0,1,18.825-9.78V0h-5.1V-9.09a3.674,3.674,0,0,0-.87-2.61,3.051,3.051,0,0,0-2.34-.93,3.051,3.051,0,0,0-2.34.93,3.674,3.674,0,0,0-.87,2.61V0H2.175V-16.74h5.13v2.22a5.412,5.412,0,0,1,2.1-1.755A6.676,6.676,0,0,1,12.375-16.92Zm24,17.13a10.833,10.833,0,0,1-4.14-.75A6.748,6.748,0,0,1,29.31-2.76,6.065,6.065,0,0,1,28.155-6.3h5.46a2.649,2.649,0,0,0,.81,1.785,2.6,2.6,0,0,0,1.8.615,2.815,2.815,0,0,0,1.8-.525,1.756,1.756,0,0,0,.66-1.455,1.722,1.722,0,0,0-.525-1.29,4.235,4.235,0,0,0-1.29-.84A20.75,20.75,0,0,0,34.7-8.76a23.682,23.682,0,0,1-3.33-1.26,6.153,6.153,0,0,1-2.22-1.86,5.183,5.183,0,0,1-.93-3.21,5.52,5.52,0,0,1,2.13-4.6A8.752,8.752,0,0,1,35.9-21.36a8.854,8.854,0,0,1,5.61,1.665,5.96,5.96,0,0,1,2.28,4.635h-5.55a2.171,2.171,0,0,0-.75-1.6,2.642,2.642,0,0,0-1.77-.585,2.206,2.206,0,0,0-1.5.5,1.785,1.785,0,0,0-.57,1.425,1.766,1.766,0,0,0,.96,1.59,15.737,15.737,0,0,0,3,1.23,27.745,27.745,0,0,1,3.315,1.32,6.311,6.311,0,0,1,2.2,1.83,4.9,4.9,0,0,1,.93,3.09A6.064,6.064,0,0,1,43.14-3,6.408,6.408,0,0,1,40.485-.66,9.089,9.089,0,0,1,36.375.21Zm15.96-14.58a5.569,5.569,0,0,1,2.07-1.89,6.354,6.354,0,0,1,3.09-.72,6.931,6.931,0,0,1,3.75,1.05,7.273,7.273,0,0,1,2.655,3,10,10,0,0,1,.975,4.53A10.1,10.1,0,0,1,63.9-3.855a7.359,7.359,0,0,1-2.655,3.03A6.859,6.859,0,0,1,57.5.24,6.377,6.377,0,0,1,54.42-.48a5.637,5.637,0,0,1-2.085-1.86V7.98h-5.13V-16.74h5.13Zm7.32,5.97a4.141,4.141,0,0,0-1.065-3.015,3.517,3.517,0,0,0-2.625-1.1A3.46,3.46,0,0,0,53.37-11.4a4.194,4.194,0,0,0-1.065,3.03A4.194,4.194,0,0,0,53.37-5.34a3.46,3.46,0,0,0,2.595,1.11,3.486,3.486,0,0,0,2.61-1.125A4.213,4.213,0,0,0,59.655-8.4Zm23.7-.24a13.1,13.1,0,0,1-.09,1.5H71.655a3.488,3.488,0,0,0,1,2.385,3.07,3.07,0,0,0,2.175.825A2.7,2.7,0,0,0,77.5-5.55h5.46A7.492,7.492,0,0,1,81.45-2.58,7.585,7.585,0,0,1,78.7-.51a8.817,8.817,0,0,1-3.69.75,8.979,8.979,0,0,1-4.38-1.05,7.469,7.469,0,0,1-3-3,9.262,9.262,0,0,1-1.08-4.56,9.367,9.367,0,0,1,1.065-4.56,7.372,7.372,0,0,1,2.985-3,9.042,9.042,0,0,1,4.41-1.05,8.952,8.952,0,0,1,4.32,1.02,7.324,7.324,0,0,1,2.955,2.91A8.833,8.833,0,0,1,83.355-8.64ZM78.1-9.99a2.638,2.638,0,0,0-.9-2.1,3.313,3.313,0,0,0-2.25-.78,3.249,3.249,0,0,0-2.175.75,3.331,3.331,0,0,0-1.1,2.13Zm23.73,1.35a13.1,13.1,0,0,1-.09,1.5H90.135a3.488,3.488,0,0,0,1,2.385,3.07,3.07,0,0,0,2.175.825,2.7,2.7,0,0,0,2.67-1.62h5.46A7.492,7.492,0,0,1,99.93-2.58,7.585,7.585,0,0,1,97.185-.51,8.817,8.817,0,0,1,93.5.24a8.979,8.979,0,0,1-4.38-1.05,7.469,7.469,0,0,1-3-3,9.262,9.262,0,0,1-1.08-4.56A9.367,9.367,0,0,1,86.1-12.93a7.372,7.372,0,0,1,2.985-3,9.042,9.042,0,0,1,4.41-1.05,8.952,8.952,0,0,1,4.32,1.02,7.324,7.324,0,0,1,2.955,2.91A8.833,8.833,0,0,1,101.835-8.64Zm-5.25-1.35a2.638,2.638,0,0,0-.9-2.1,3.313,3.313,0,0,0-2.25-.78,3.249,3.249,0,0,0-2.175.75,3.331,3.331,0,0,0-1.1,2.13Zm6.93,1.59a10,10,0,0,1,.975-4.53,7.273,7.273,0,0,1,2.655-3,6.931,6.931,0,0,1,3.75-1.05,6.587,6.587,0,0,1,3.015.69,5.494,5.494,0,0,1,2.145,1.86V-22.2h5.13V0h-5.13V-2.4A5.226,5.226,0,0,1,114-.48a6.442,6.442,0,0,1-3.1.72,6.859,6.859,0,0,1-3.75-1.065,7.359,7.359,0,0,1-2.655-3.03A10.1,10.1,0,0,1,103.515-8.4Zm12.54.03a4.194,4.194,0,0,0-1.065-3.03,3.46,3.46,0,0,0-2.6-1.11,3.483,3.483,0,0,0-2.6,1.1A4.141,4.141,0,0,0,108.735-8.4,4.248,4.248,0,0,0,109.8-5.355a3.438,3.438,0,0,0,2.6,1.125,3.46,3.46,0,0,0,2.6-1.11A4.194,4.194,0,0,0,116.055-8.37ZM-81.164,39.308V31.04h14.4V69h-9.256V39.308Zm39.26,1.976A5.359,5.359,0,0,0-43.36,38.4a4.207,4.207,0,0,0-2.964-.962,4.431,4.431,0,0,0-4.264,2.574q-1.3,2.574-1.352,8.138a7.762,7.762,0,0,1,3.3-2.86,10.815,10.815,0,0,1,4.758-1.04,10.828,10.828,0,0,1,8.19,3.224q3.094,3.224,3.094,9a13.872,13.872,0,0,1-1.534,6.656A10.9,10.9,0,0,1-38.6,67.6a14.216,14.216,0,0,1-6.942,1.612q-8.008,0-11.128-5.018t-3.12-14.43q0-9.88,3.3-14.69t10.582-4.81a13.051,13.051,0,0,1,6.578,1.534,10.42,10.42,0,0,1,4.056,4.03,13.629,13.629,0,0,1,1.638,5.46Zm-4.108,9.984a5.369,5.369,0,0,0-3.718,1.326,4.8,4.8,0,0,0-1.482,3.77,5.329,5.329,0,0,0,1.378,3.9,5.254,5.254,0,0,0,3.926,1.4,4.78,4.78,0,0,0,3.614-1.378,5.21,5.21,0,0,0,1.326-3.77,5.444,5.444,0,0,0-1.3-3.848A4.85,4.85,0,0,0-46.012,51.268Zm18.46-1.768q0-8.944,3.458-14.092T-12.94,30.26q7.7,0,11.154,5.148T1.672,49.5q0,9.048-3.458,14.2T-12.94,68.844q-7.7,0-11.154-5.148T-27.552,49.5Zm20.488,0a22.429,22.429,0,0,0-1.144-8.086Q-9.352,38.58-12.94,38.58t-4.732,2.834A22.429,22.429,0,0,0-18.816,49.5a34,34,0,0,0,.416,5.85,7.486,7.486,0,0,0,1.69,3.744,4.787,4.787,0,0,0,3.77,1.43,4.787,4.787,0,0,0,3.77-1.43A7.486,7.486,0,0,0-7.48,55.35,34,34,0,0,0-7.064,49.5Zm49.556-5.46a6.651,6.651,0,0,0-2.834-2.782,9.273,9.273,0,0,0-4.342-.962A8.934,8.934,0,0,0,28.4,43.13,10.755,10.755,0,0,0,25.8,50.7q0,5.044,2.73,7.878a9.943,9.943,0,0,0,7.514,2.834,9.088,9.088,0,0,0,5.538-1.664,9.431,9.431,0,0,0,3.3-4.784H33.6V48.408H52.944v8.268a17.442,17.442,0,0,1-3.354,6.188,17.7,17.7,0,0,1-6.006,4.628,18.564,18.564,0,0,1-8.216,1.768,19.449,19.449,0,0,1-9.646-2.366,16.853,16.853,0,0,1-6.6-6.578,19.3,19.3,0,0,1-2.366-9.62,19.449,19.449,0,0,1,2.366-9.646,16.853,16.853,0,0,1,6.578-6.6,19.3,19.3,0,0,1,9.62-2.366,18.689,18.689,0,0,1,11.05,3.172A14.969,14.969,0,0,1,52.32,44.04Zm37.492,6.24a8.49,8.49,0,0,1,5.1,3.146,9.569,9.569,0,0,1-1.274,12.9Q80.608,69,74.888,69h-17V32.5H74.316q5.564,0,8.71,2.548a8.428,8.428,0,0,1,3.146,6.916,8.354,8.354,0,0,1-1.69,5.356A8.74,8.74,0,0,1,79.984,50.28ZM66.776,47.264H72.6a5.156,5.156,0,0,0,3.354-.962,3.456,3.456,0,0,0,1.17-2.834,3.534,3.534,0,0,0-1.17-2.86A5.061,5.061,0,0,0,72.6,39.62H66.776Zm6.552,14.56a5.273,5.273,0,0,0,3.458-1.014,3.6,3.6,0,0,0,1.222-2.938,3.761,3.761,0,0,0-1.274-3.016,5.221,5.221,0,0,0-3.51-1.092H66.776v8.06Z" transform="translate(188 271)" fill="#fff"/>
  </g>
</svg>
