<svg xmlns="http://www.w3.org/2000/svg" xmlns:xlink="http://www.w3.org/1999/xlink" width="357" height="239" viewBox="0 0 357 239">
  <defs>
    <filter id="Rectangle_20727" x="0" y="0" width="357" height="239" filterUnits="userSpaceOnUse">
      <feOffset dy="3" input="SourceAlpha"/>
      <feGaussianBlur stdDeviation="3" result="blur"/>
      <feFlood flood-opacity="0.161"/>
      <feComposite operator="in" in2="blur"/>
      <feComposite in="SourceGraphic"/>
    </filter>
  </defs>
  <g id="Group_39144" data-name="Group 39144" transform="translate(-9 -182)">
    <g transform="matrix(1, 0, 0, 1, 9, 182)" filter="url(#Rectangle_20727)">
      <rect id="Rectangle_20727-2" data-name="Rectangle 20727" width="339" height="221" rx="7" transform="translate(9 6)" fill="#10a9dc"/>
    </g>
    <path id="Android_UI" data-name="Android UI" d="M-47.385-21.06a12.25,12.25,0,0,1,5.82,1.32,9.43,9.43,0,0,1,3.855,3.7,10.886,10.886,0,0,1,1.365,5.5A10.908,10.908,0,0,1-37.71-5.04a9.381,9.381,0,0,1-3.87,3.72A12.272,12.272,0,0,1-47.385,0h-7.89V-21.06Zm-.33,16.62a6.191,6.191,0,0,0,4.53-1.59,6.02,6.02,0,0,0,1.62-4.5,6.124,6.124,0,0,0-1.62-4.53,6.124,6.124,0,0,0-4.53-1.62h-2.43V-4.44ZM-25.845.21a10.833,10.833,0,0,1-4.14-.75A6.748,6.748,0,0,1-32.91-2.76,6.065,6.065,0,0,1-34.065-6.3h5.46a2.649,2.649,0,0,0,.81,1.785A2.6,2.6,0,0,0-26-3.9a2.815,2.815,0,0,0,1.8-.525,1.756,1.756,0,0,0,.66-1.455,1.722,1.722,0,0,0-.525-1.29,4.235,4.235,0,0,0-1.29-.84,20.75,20.75,0,0,0-2.175-.75,23.682,23.682,0,0,1-3.33-1.26,6.153,6.153,0,0,1-2.22-1.86,5.183,5.183,0,0,1-.93-3.21,5.52,5.52,0,0,1,2.13-4.6,8.752,8.752,0,0,1,5.55-1.665,8.854,8.854,0,0,1,5.61,1.665,5.96,5.96,0,0,1,2.28,4.635h-5.55a2.171,2.171,0,0,0-.75-1.6,2.642,2.642,0,0,0-1.77-.585,2.206,2.206,0,0,0-1.5.5,1.785,1.785,0,0,0-.57,1.425,1.766,1.766,0,0,0,.96,1.59,15.737,15.737,0,0,0,3,1.23A27.745,27.745,0,0,1-21.3-11.19a6.311,6.311,0,0,1,2.2,1.83,4.9,4.9,0,0,1,.93,3.09A6.064,6.064,0,0,1-19.08-3,6.408,6.408,0,0,1-21.735-.66,9.089,9.089,0,0,1-25.845.21Zm15.96-4.17h6.72V0h-11.85V-21.06h5.13Zm18.63-7.8a4.981,4.981,0,0,1-2.82-4.71,5.437,5.437,0,0,1,.84-2.955,5.786,5.786,0,0,1,2.55-2.13,9.929,9.929,0,0,1,4.2-.8,9.826,9.826,0,0,1,4.185.8,5.8,5.8,0,0,1,2.535,2.13,5.437,5.437,0,0,1,.84,2.955,5.132,5.132,0,0,1-.765,2.82,5.425,5.425,0,0,1-2.055,1.89,5.9,5.9,0,0,1,2.49,2.145,5.816,5.816,0,0,1,.87,3.195,6.251,6.251,0,0,1-1.08,3.675A6.83,6.83,0,0,1,17.61-.39a10.079,10.079,0,0,1-4.1.81,10.079,10.079,0,0,1-4.1-.81A6.83,6.83,0,0,1,6.495-2.745,6.251,6.251,0,0,1,5.415-6.42a5.871,5.871,0,0,1,.87-3.225A5.738,5.738,0,0,1,8.745-11.76Zm7.35-3.93a2.513,2.513,0,0,0-.7-1.9,2.6,2.6,0,0,0-1.875-.675,2.565,2.565,0,0,0-1.875.69,2.563,2.563,0,0,0-.7,1.92,2.406,2.406,0,0,0,.72,1.845,2.61,2.61,0,0,0,1.86.675,2.577,2.577,0,0,0,1.86-.69A2.455,2.455,0,0,0,16.095-15.69Zm-2.58,6.15a3.326,3.326,0,0,0-2.28.765,2.67,2.67,0,0,0-.87,2.115,2.726,2.726,0,0,0,.855,2.07,3.2,3.2,0,0,0,2.3.81,3.093,3.093,0,0,0,2.265-.81A2.776,2.776,0,0,0,16.6-6.66a2.7,2.7,0,0,0-.855-2.1A3.187,3.187,0,0,0,13.515-9.54Zm35.43-11.52V0h-5.13V-12.63L39.1,0h-4.14l-4.74-12.66V0H25.1V-21.06h6.06l5.91,14.58,5.85-14.58Zm-117.4,46v12.6a4.169,4.169,0,0,0,.93,2.91,3.509,3.509,0,0,0,2.73,1.02,3.608,3.608,0,0,0,2.76-1.02,4.085,4.085,0,0,0,.96-2.91V24.94h5.13V37.51a8.937,8.937,0,0,1-1.2,4.77,7.684,7.684,0,0,1-3.225,2.94,10.142,10.142,0,0,1-4.515.99,9.889,9.889,0,0,1-4.455-.975,7.269,7.269,0,0,1-3.1-2.94,9.389,9.389,0,0,1-1.14-4.785V24.94Zm26.31,4.14a6.075,6.075,0,0,1,4.695,1.905A7.43,7.43,0,0,1-35.7,36.22V46h-5.1V36.91a3.674,3.674,0,0,0-.87-2.61,3.051,3.051,0,0,0-2.34-.93,3.051,3.051,0,0,0-2.34.93,3.674,3.674,0,0,0-.87,2.61V46h-5.13V29.26h5.13v2.22a5.412,5.412,0,0,1,2.1-1.755A6.676,6.676,0,0,1-42.15,29.08ZM-27,23.8V46h-5.13V23.8Zm6.3,3.72a3.109,3.109,0,0,1-2.2-.8,2.576,2.576,0,0,1-.855-1.965,2.61,2.61,0,0,1,.855-2,3.109,3.109,0,0,1,2.2-.8,3.068,3.068,0,0,1,2.175.8,2.61,2.61,0,0,1,.855,2,2.576,2.576,0,0,1-.855,1.965A3.068,3.068,0,0,1-20.7,27.52Zm2.55,1.74V46h-5.13V29.26Zm25.08-.18a6.62,6.62,0,0,1,4.965,1.89,7.2,7.2,0,0,1,1.845,5.25V46H8.64V36.91A3.459,3.459,0,0,0,7.785,34.4,3.121,3.121,0,0,0,5.43,33.52a3.121,3.121,0,0,0-2.355.885A3.459,3.459,0,0,0,2.22,36.91V46h-5.1V36.91A3.459,3.459,0,0,0-3.735,34.4,3.121,3.121,0,0,0-6.09,33.52a3.121,3.121,0,0,0-2.355.885A3.459,3.459,0,0,0-9.3,36.91V46h-5.13V29.26H-9.3v2.1a5.491,5.491,0,0,1,2.04-1.665,6.414,6.414,0,0,1,2.85-.615,6.933,6.933,0,0,1,3.375.81A5.807,5.807,0,0,1,1.29,32.2a6.743,6.743,0,0,1,2.37-2.25A6.4,6.4,0,0,1,6.93,29.08Zm12.99-1.56a3.109,3.109,0,0,1-2.2-.8,2.576,2.576,0,0,1-.855-1.965,2.61,2.61,0,0,1,.855-2,3.109,3.109,0,0,1,2.2-.8,3.068,3.068,0,0,1,2.175.8,2.61,2.61,0,0,1,.855,2,2.576,2.576,0,0,1-.855,1.965A3.068,3.068,0,0,1,19.92,27.52Zm2.55,1.74V46H17.34V29.26ZM35.52,41.65V46H32.91a6.389,6.389,0,0,1-4.35-1.365Q27,43.27,27,40.18V33.52H24.96V29.26H27V25.18h5.13v4.08h3.36v4.26H32.13v6.72a1.406,1.406,0,0,0,.36,1.08,1.757,1.757,0,0,0,1.2.33Zm18.63-4.29a13.1,13.1,0,0,1-.09,1.5H42.45a3.489,3.489,0,0,0,1.005,2.385,3.07,3.07,0,0,0,2.175.825,2.7,2.7,0,0,0,2.67-1.62h5.46a7.492,7.492,0,0,1-1.515,2.97A7.585,7.585,0,0,1,49.5,45.49a8.817,8.817,0,0,1-3.69.75,8.979,8.979,0,0,1-4.38-1.05,7.469,7.469,0,0,1-3-3,9.262,9.262,0,0,1-1.08-4.56,9.367,9.367,0,0,1,1.065-4.56,7.372,7.372,0,0,1,2.985-3,9.042,9.042,0,0,1,4.41-1.05,8.952,8.952,0,0,1,4.32,1.02,7.324,7.324,0,0,1,2.955,2.91A8.833,8.833,0,0,1,54.15,37.36ZM48.9,36.01a2.638,2.638,0,0,0-.9-2.1,3.313,3.313,0,0,0-2.25-.78,3.249,3.249,0,0,0-2.175.75,3.331,3.331,0,0,0-1.095,2.13Zm6.93,1.59a10,10,0,0,1,.975-4.53,7.273,7.273,0,0,1,2.655-3,6.931,6.931,0,0,1,3.75-1.05,6.587,6.587,0,0,1,3.015.69,5.494,5.494,0,0,1,2.145,1.86V23.8H73.5V46H68.37V43.6a5.226,5.226,0,0,1-2.055,1.92,6.442,6.442,0,0,1-3.1.72,6.859,6.859,0,0,1-3.75-1.065,7.359,7.359,0,0,1-2.655-3.03A10.1,10.1,0,0,1,55.83,37.6Zm12.54.03a4.194,4.194,0,0,0-1.065-3.03,3.605,3.605,0,0,0-5.19-.015A4.141,4.141,0,0,0,61.05,37.6a4.248,4.248,0,0,0,1.065,3.045,3.572,3.572,0,0,0,5.19.015A4.194,4.194,0,0,0,68.37,37.63Z" transform="translate(188 286)" fill="#fff"/>
  </g>
</svg>
