<svg xmlns="http://www.w3.org/2000/svg" xmlns:xlink="http://www.w3.org/1999/xlink" width="357" height="239" viewBox="0 0 357 239">
  <defs>
    <filter id="Rectangle_20727" x="0" y="0" width="357" height="239" filterUnits="userSpaceOnUse">
      <feOffset dy="3" input="SourceAlpha"/>
      <feGaussianBlur stdDeviation="3" result="blur"/>
      <feFlood flood-opacity="0.161"/>
      <feComposite operator="in" in2="blur"/>
      <feComposite in="SourceGraphic"/>
    </filter>
  </defs>
  <g id="Group_39147" data-name="Group 39147" transform="translate(-9 -182)">
    <g transform="matrix(1, 0, 0, 1, 9, 182)" filter="url(#Rectangle_20727)">
      <rect id="Rectangle_20727-2" data-name="Rectangle 20727" width="339" height="221" rx="7" transform="translate(9 6)" fill="#f4c615"/>
    </g>
    <path id="Android_UI" data-name="Android UI" d="M-76.56-21.06a12.25,12.25,0,0,1,5.82,1.32,9.43,9.43,0,0,1,3.855,3.7,10.886,10.886,0,0,1,1.365,5.5,10.908,10.908,0,0,1-1.365,5.49,9.38,9.38,0,0,1-3.87,3.72A12.272,12.272,0,0,1-76.56,0h-7.89V-21.06Zm-.33,16.62a6.191,6.191,0,0,0,4.53-1.59,6.02,6.02,0,0,0,1.62-4.5,6.124,6.124,0,0,0-1.62-4.53,6.124,6.124,0,0,0-4.53-1.62h-2.43V-4.44ZM-55.02.21a10.833,10.833,0,0,1-4.14-.75,6.748,6.748,0,0,1-2.925-2.22A6.065,6.065,0,0,1-63.24-6.3h5.46a2.649,2.649,0,0,0,.81,1.785,2.6,2.6,0,0,0,1.8.615,2.815,2.815,0,0,0,1.8-.525,1.756,1.756,0,0,0,.66-1.455,1.722,1.722,0,0,0-.525-1.29,4.235,4.235,0,0,0-1.29-.84A20.75,20.75,0,0,0-56.7-8.76a23.682,23.682,0,0,1-3.33-1.26,6.153,6.153,0,0,1-2.22-1.86,5.183,5.183,0,0,1-.93-3.21,5.52,5.52,0,0,1,2.13-4.6A8.752,8.752,0,0,1-55.5-21.36a8.854,8.854,0,0,1,5.61,1.665,5.96,5.96,0,0,1,2.28,4.635h-5.55a2.171,2.171,0,0,0-.75-1.6,2.642,2.642,0,0,0-1.77-.585,2.206,2.206,0,0,0-1.5.5,1.785,1.785,0,0,0-.57,1.425,1.766,1.766,0,0,0,.96,1.59,15.737,15.737,0,0,0,3,1.23,27.745,27.745,0,0,1,3.315,1.32,6.311,6.311,0,0,1,2.2,1.83,4.9,4.9,0,0,1,.93,3.09A6.064,6.064,0,0,1-48.255-3,6.408,6.408,0,0,1-50.91-.66,9.089,9.089,0,0,1-55.02.21Zm15.96-4.17h6.72V0H-44.19V-21.06h5.13Zm15.15.06V-8.04l9.48-13.56H-8.7V-8.34h2.46V-3.9H-8.7V0h-5.13V-3.9Zm10.44-12.06-5.04,7.62h5.04ZM27-21.06V0H21.87V-12.63L17.16,0H13.02L8.28-12.66V0H3.15V-21.06H9.21L15.12-6.48l5.85-14.58Zm8.82,6.69a5.279,5.279,0,0,1,2.07-1.89,6.465,6.465,0,0,1,3.09-.72,6.931,6.931,0,0,1,3.75,1.05,7.273,7.273,0,0,1,2.655,3A10,10,0,0,1,48.36-8.4a10.1,10.1,0,0,1-.975,4.545A7.359,7.359,0,0,1,44.73-.825,6.859,6.859,0,0,1,40.98.24a6.465,6.465,0,0,1-3.09-.705A5.452,5.452,0,0,1,35.82-2.34V0H30.69V-22.2h5.13ZM43.14-8.4a4.141,4.141,0,0,0-1.065-3.015,3.517,3.517,0,0,0-2.625-1.1,3.46,3.46,0,0,0-2.595,1.11A4.194,4.194,0,0,0,35.79-8.37a4.194,4.194,0,0,0,1.065,3.03A3.46,3.46,0,0,0,39.45-4.23a3.486,3.486,0,0,0,2.61-1.125A4.213,4.213,0,0,0,43.14-8.4Zm13.05-5.97a5.569,5.569,0,0,1,2.07-1.89,6.354,6.354,0,0,1,3.09-.72,6.931,6.931,0,0,1,3.75,1.05,7.273,7.273,0,0,1,2.655,3A10,10,0,0,1,68.73-8.4a10.1,10.1,0,0,1-.975,4.545A7.359,7.359,0,0,1,65.1-.825,6.859,6.859,0,0,1,61.35.24a6.377,6.377,0,0,1-3.075-.72A5.637,5.637,0,0,1,56.19-2.34V7.98H51.06V-16.74h5.13ZM63.51-8.4a4.141,4.141,0,0,0-1.065-3.015,3.517,3.517,0,0,0-2.625-1.1,3.46,3.46,0,0,0-2.595,1.11A4.194,4.194,0,0,0,56.16-8.37a4.194,4.194,0,0,0,1.065,3.03A3.46,3.46,0,0,0,59.82-4.23a3.486,3.486,0,0,0,2.61-1.125A4.213,4.213,0,0,0,63.51-8.4ZM78.24.24a9.622,9.622,0,0,1-3.9-.75,6.661,6.661,0,0,1-2.7-2.055A5.405,5.405,0,0,1,70.53-5.49H75.6a1.949,1.949,0,0,0,.81,1.41,2.866,2.866,0,0,0,1.77.54,2.526,2.526,0,0,0,1.485-.375,1.148,1.148,0,0,0,.525-.975,1.125,1.125,0,0,0-.75-1.065,15.152,15.152,0,0,0-2.43-.765,22.814,22.814,0,0,1-3-.885,5.183,5.183,0,0,1-2.07-1.47,4.006,4.006,0,0,1-.87-2.715,4.61,4.61,0,0,1,.795-2.625,5.353,5.353,0,0,1,2.34-1.875,8.96,8.96,0,0,1,3.675-.69,7.367,7.367,0,0,1,4.965,1.56,6.07,6.07,0,0,1,2.085,4.14H80.19a2.043,2.043,0,0,0-.765-1.38,2.653,2.653,0,0,0-1.695-.51,2.343,2.343,0,0,0-1.38.345,1.1,1.1,0,0,0-.48.945,1.154,1.154,0,0,0,.765,1.08,12.253,12.253,0,0,0,2.385.72,26.093,26.093,0,0,1,3.03.945,5.227,5.227,0,0,1,2.055,1.5A4.244,4.244,0,0,1,85.02-4.86a4.4,4.4,0,0,1-.825,2.625A5.456,5.456,0,0,1,81.825-.42,9.064,9.064,0,0,1,78.24.24ZM-65.28,24.94v12.6a4.169,4.169,0,0,0,.93,2.91,3.509,3.509,0,0,0,2.73,1.02,3.608,3.608,0,0,0,2.76-1.02,4.085,4.085,0,0,0,.96-2.91V24.94h5.13V37.51a8.937,8.937,0,0,1-1.2,4.77,7.684,7.684,0,0,1-3.225,2.94,10.142,10.142,0,0,1-4.515.99,9.889,9.889,0,0,1-4.455-.975,7.269,7.269,0,0,1-3.1-2.94,9.389,9.389,0,0,1-1.14-4.785V24.94Zm26.31,4.14a6.075,6.075,0,0,1,4.695,1.905A7.43,7.43,0,0,1-32.52,36.22V46h-5.1V36.91a3.674,3.674,0,0,0-.87-2.61,3.051,3.051,0,0,0-2.34-.93,3.051,3.051,0,0,0-2.34.93,3.674,3.674,0,0,0-.87,2.61V46h-5.13V29.26h5.13v2.22a5.412,5.412,0,0,1,2.1-1.755A6.676,6.676,0,0,1-38.97,29.08Zm15.15-5.28V46h-5.13V23.8Zm6.3,3.72a3.109,3.109,0,0,1-2.2-.8,2.576,2.576,0,0,1-.855-1.965,2.61,2.61,0,0,1,.855-2,3.109,3.109,0,0,1,2.2-.8,3.068,3.068,0,0,1,2.175.8,2.61,2.61,0,0,1,.855,2,2.576,2.576,0,0,1-.855,1.965A3.068,3.068,0,0,1-17.52,27.52Zm2.55,1.74V46H-20.1V29.26Zm25.08-.18a6.62,6.62,0,0,1,4.965,1.89,7.2,7.2,0,0,1,1.845,5.25V46h-5.1V36.91a3.459,3.459,0,0,0-.855-2.505A3.121,3.121,0,0,0,8.61,33.52a3.121,3.121,0,0,0-2.355.885A3.459,3.459,0,0,0,5.4,36.91V46H.3V36.91A3.459,3.459,0,0,0-.555,34.4,3.121,3.121,0,0,0-2.91,33.52a3.121,3.121,0,0,0-2.355.885A3.459,3.459,0,0,0-6.12,36.91V46h-5.13V29.26h5.13v2.1a5.491,5.491,0,0,1,2.04-1.665,6.414,6.414,0,0,1,2.85-.615,6.933,6.933,0,0,1,3.375.81A5.807,5.807,0,0,1,4.47,32.2a6.743,6.743,0,0,1,2.37-2.25A6.4,6.4,0,0,1,10.11,29.08ZM23.1,27.52a3.109,3.109,0,0,1-2.2-.8,2.576,2.576,0,0,1-.855-1.965,2.61,2.61,0,0,1,.855-2,3.109,3.109,0,0,1,2.2-.8,3.068,3.068,0,0,1,2.175.8,2.61,2.61,0,0,1,.855,2,2.576,2.576,0,0,1-.855,1.965A3.068,3.068,0,0,1,23.1,27.52Zm2.55,1.74V46H20.52V29.26ZM38.7,41.65V46H36.09a6.389,6.389,0,0,1-4.35-1.365q-1.56-1.365-1.56-4.455V33.52H28.14V29.26h2.04V25.18h5.13v4.08h3.36v4.26H35.31v6.72a1.406,1.406,0,0,0,.36,1.08,1.757,1.757,0,0,0,1.2.33Zm18.63-4.29a13.1,13.1,0,0,1-.09,1.5H45.63a3.489,3.489,0,0,0,1.005,2.385,3.07,3.07,0,0,0,2.175.825,2.7,2.7,0,0,0,2.67-1.62h5.46a7.492,7.492,0,0,1-1.515,2.97,7.585,7.585,0,0,1-2.745,2.07,8.817,8.817,0,0,1-3.69.75,8.979,8.979,0,0,1-4.38-1.05,7.469,7.469,0,0,1-3-3,9.262,9.262,0,0,1-1.08-4.56A9.367,9.367,0,0,1,41.6,33.07a7.372,7.372,0,0,1,2.985-3,9.042,9.042,0,0,1,4.41-1.05,8.952,8.952,0,0,1,4.32,1.02,7.324,7.324,0,0,1,2.955,2.91A8.833,8.833,0,0,1,57.33,37.36Zm-5.25-1.35a2.638,2.638,0,0,0-.9-2.1,3.313,3.313,0,0,0-2.25-.78,3.249,3.249,0,0,0-2.175.75,3.331,3.331,0,0,0-1.095,2.13Zm6.93,1.59a10,10,0,0,1,.975-4.53,7.273,7.273,0,0,1,2.655-3,6.931,6.931,0,0,1,3.75-1.05,6.587,6.587,0,0,1,3.015.69,5.494,5.494,0,0,1,2.145,1.86V23.8h5.13V46H71.55V43.6A5.226,5.226,0,0,1,69.5,45.52a6.442,6.442,0,0,1-3.1.72,6.859,6.859,0,0,1-3.75-1.065,7.359,7.359,0,0,1-2.655-3.03A10.1,10.1,0,0,1,59.01,37.6Zm12.54.03a4.194,4.194,0,0,0-1.065-3.03,3.605,3.605,0,0,0-5.19-.015A4.141,4.141,0,0,0,64.23,37.6,4.248,4.248,0,0,0,65.3,40.645a3.572,3.572,0,0,0,5.19.015A4.194,4.194,0,0,0,71.55,37.63Z" transform="translate(188 286)" fill="#fff"/>
  </g>
</svg>
