<svg xmlns="http://www.w3.org/2000/svg" xmlns:xlink="http://www.w3.org/1999/xlink" width="357" height="239" viewBox="0 0 357 239">
  <defs>
    <filter id="Rectangle_20727" x="0" y="0" width="357" height="239" filterUnits="userSpaceOnUse">
      <feOffset dy="3" input="SourceAlpha"/>
      <feGaussianBlur stdDeviation="3" result="blur"/>
      <feFlood flood-opacity="0.161"/>
      <feComposite operator="in" in2="blur"/>
      <feComposite in="SourceGraphic"/>
    </filter>
  </defs>
  <g id="Group_39146" data-name="Group 39146" transform="translate(-9 -182)">
    <g transform="matrix(1, 0, 0, 1, 9, 182)" filter="url(#Rectangle_20727)">
      <rect id="Rectangle_20727-2" data-name="Rectangle 20727" width="339" height="221" rx="7" transform="translate(9 6)" fill="#14254b"/>
    </g>
    <path id="Android_UI" data-name="Android UI" d="M-116.475-21.06a12.25,12.25,0,0,1,5.82,1.32,9.43,9.43,0,0,1,3.855,3.7,10.886,10.886,0,0,1,1.365,5.5A10.908,10.908,0,0,1-106.8-5.04a9.38,9.38,0,0,1-3.87,3.72A12.272,12.272,0,0,1-116.475,0h-7.89V-21.06Zm-.33,16.62a6.191,6.191,0,0,0,4.53-1.59,6.02,6.02,0,0,0,1.62-4.5,6.124,6.124,0,0,0-1.62-4.53,6.124,6.124,0,0,0-4.53-1.62h-2.43V-4.44ZM-94.935.21a10.833,10.833,0,0,1-4.14-.75A6.748,6.748,0,0,1-102-2.76a6.065,6.065,0,0,1-1.155-3.54h5.46a2.649,2.649,0,0,0,.81,1.785,2.6,2.6,0,0,0,1.8.615,2.815,2.815,0,0,0,1.8-.525,1.756,1.756,0,0,0,.66-1.455,1.722,1.722,0,0,0-.525-1.29,4.235,4.235,0,0,0-1.29-.84,20.751,20.751,0,0,0-2.175-.75,23.682,23.682,0,0,1-3.33-1.26,6.153,6.153,0,0,1-2.22-1.86,5.183,5.183,0,0,1-.93-3.21,5.52,5.52,0,0,1,2.13-4.6,8.752,8.752,0,0,1,5.55-1.665,8.854,8.854,0,0,1,5.61,1.665,5.96,5.96,0,0,1,2.28,4.635h-5.55a2.171,2.171,0,0,0-.75-1.6,2.642,2.642,0,0,0-1.77-.585,2.206,2.206,0,0,0-1.5.5,1.785,1.785,0,0,0-.57,1.425,1.766,1.766,0,0,0,.96,1.59,15.737,15.737,0,0,0,3,1.23,27.744,27.744,0,0,1,3.315,1.32,6.311,6.311,0,0,1,2.205,1.83,4.9,4.9,0,0,1,.93,3.09A6.064,6.064,0,0,1-88.17-3,6.408,6.408,0,0,1-90.825-.66,9.089,9.089,0,0,1-94.935.21Zm15.96-4.17h6.72V0H-84.1V-21.06h5.13Zm25.5,4.17A10.991,10.991,0,0,1-58.92-1.17a10.316,10.316,0,0,1-3.93-3.855,10.774,10.774,0,0,1-1.455-5.565,10.694,10.694,0,0,1,1.455-5.55,10.349,10.349,0,0,1,3.93-3.84,10.991,10.991,0,0,1,5.445-1.38,10.991,10.991,0,0,1,5.445,1.38,10.132,10.132,0,0,1,3.9,3.84A10.869,10.869,0,0,1-42.7-10.59a10.861,10.861,0,0,1-1.44,5.565,10.239,10.239,0,0,1-3.9,3.855A10.908,10.908,0,0,1-53.475.21Zm0-4.68A5.168,5.168,0,0,0-49.44-6.15a6.378,6.378,0,0,0,1.515-4.44,6.366,6.366,0,0,0-1.515-4.455,5.191,5.191,0,0,0-4.035-1.665,5.25,5.25,0,0,0-4.065,1.65,6.354,6.354,0,0,0-1.515,4.47A6.366,6.366,0,0,0-57.54-6.135,5.227,5.227,0,0,0-53.475-4.47Zm18.75-9.9a5.569,5.569,0,0,1,2.07-1.89,6.354,6.354,0,0,1,3.09-.72,6.931,6.931,0,0,1,3.75,1.05,7.273,7.273,0,0,1,2.655,3,10,10,0,0,1,.975,4.53,10.1,10.1,0,0,1-.975,4.545,7.359,7.359,0,0,1-2.655,3.03A6.859,6.859,0,0,1-29.565.24,6.377,6.377,0,0,1-32.64-.48a5.637,5.637,0,0,1-2.085-1.86V7.98h-5.13V-16.74h5.13ZM-27.4-8.4a4.141,4.141,0,0,0-1.065-3.015,3.517,3.517,0,0,0-2.625-1.1A3.46,3.46,0,0,0-33.69-11.4a4.194,4.194,0,0,0-1.065,3.03A4.194,4.194,0,0,0-33.69-5.34a3.46,3.46,0,0,0,2.595,1.11,3.486,3.486,0,0,0,2.61-1.125A4.213,4.213,0,0,0-27.4-8.4Zm23.7-.24a13.1,13.1,0,0,1-.09,1.5h-11.61a3.489,3.489,0,0,0,1,2.385,3.07,3.07,0,0,0,2.175.825,2.7,2.7,0,0,0,2.67-1.62H-4.1A7.492,7.492,0,0,1-5.61-2.58,7.585,7.585,0,0,1-8.355-.51a8.817,8.817,0,0,1-3.69.75,8.979,8.979,0,0,1-4.38-1.05,7.469,7.469,0,0,1-3-3,9.262,9.262,0,0,1-1.08-4.56,9.367,9.367,0,0,1,1.065-4.56,7.372,7.372,0,0,1,2.985-3,9.042,9.042,0,0,1,4.41-1.05,8.952,8.952,0,0,1,4.32,1.02A7.324,7.324,0,0,1-4.77-13.05,8.833,8.833,0,0,1-3.705-8.64Zm-5.25-1.35a2.638,2.638,0,0,0-.9-2.1,3.313,3.313,0,0,0-2.25-.78,3.249,3.249,0,0,0-2.175.75,3.331,3.331,0,0,0-1.095,2.13ZM9.2-16.92a6.075,6.075,0,0,1,4.695,1.9A7.43,7.43,0,0,1,15.645-9.78V0h-5.1V-9.09a3.674,3.674,0,0,0-.87-2.61,3.051,3.051,0,0,0-2.34-.93A3.051,3.051,0,0,0,5-11.7a3.674,3.674,0,0,0-.87,2.61V0H-1V-16.74h5.13v2.22a5.412,5.412,0,0,1,2.1-1.755A6.676,6.676,0,0,1,9.2-16.92ZM33.2.21a10.833,10.833,0,0,1-4.14-.75A6.748,6.748,0,0,1,26.13-2.76,6.065,6.065,0,0,1,24.975-6.3h5.46a2.649,2.649,0,0,0,.81,1.785,2.6,2.6,0,0,0,1.8.615,2.815,2.815,0,0,0,1.8-.525,1.756,1.756,0,0,0,.66-1.455,1.722,1.722,0,0,0-.525-1.29,4.235,4.235,0,0,0-1.29-.84,20.75,20.75,0,0,0-2.175-.75,23.682,23.682,0,0,1-3.33-1.26,6.153,6.153,0,0,1-2.22-1.86,5.183,5.183,0,0,1-.93-3.21,5.52,5.52,0,0,1,2.13-4.6,8.752,8.752,0,0,1,5.55-1.665,8.854,8.854,0,0,1,5.61,1.665,5.96,5.96,0,0,1,2.28,4.635h-5.55a2.171,2.171,0,0,0-.75-1.6,2.642,2.642,0,0,0-1.77-.585,2.206,2.206,0,0,0-1.5.5,1.785,1.785,0,0,0-.57,1.425,1.766,1.766,0,0,0,.96,1.59,15.737,15.737,0,0,0,3,1.23,27.745,27.745,0,0,1,3.315,1.32,6.311,6.311,0,0,1,2.2,1.83,4.9,4.9,0,0,1,.93,3.09A6.064,6.064,0,0,1,39.96-3,6.408,6.408,0,0,1,37.305-.66,9.089,9.089,0,0,1,33.2.21Zm15.96-14.58a5.569,5.569,0,0,1,2.07-1.89,6.354,6.354,0,0,1,3.09-.72,6.931,6.931,0,0,1,3.75,1.05,7.273,7.273,0,0,1,2.655,3,10,10,0,0,1,.975,4.53,10.1,10.1,0,0,1-.975,4.545,7.359,7.359,0,0,1-2.655,3.03A6.859,6.859,0,0,1,54.315.24,6.377,6.377,0,0,1,51.24-.48a5.637,5.637,0,0,1-2.085-1.86V7.98h-5.13V-16.74h5.13Zm7.32,5.97a4.141,4.141,0,0,0-1.065-3.015,3.517,3.517,0,0,0-2.625-1.1A3.46,3.46,0,0,0,50.19-11.4a4.194,4.194,0,0,0-1.065,3.03A4.194,4.194,0,0,0,50.19-5.34a3.46,3.46,0,0,0,2.595,1.11A3.486,3.486,0,0,0,55.4-5.355,4.213,4.213,0,0,0,56.475-8.4Zm23.7-.24a13.1,13.1,0,0,1-.09,1.5H68.475a3.488,3.488,0,0,0,1,2.385,3.07,3.07,0,0,0,2.175.825,2.7,2.7,0,0,0,2.67-1.62h5.46A7.492,7.492,0,0,1,78.27-2.58,7.585,7.585,0,0,1,75.525-.51a8.817,8.817,0,0,1-3.69.75,8.979,8.979,0,0,1-4.38-1.05,7.469,7.469,0,0,1-3-3,9.262,9.262,0,0,1-1.08-4.56,9.367,9.367,0,0,1,1.065-4.56,7.372,7.372,0,0,1,2.985-3,9.042,9.042,0,0,1,4.41-1.05,8.952,8.952,0,0,1,4.32,1.02,7.324,7.324,0,0,1,2.955,2.91A8.833,8.833,0,0,1,80.175-8.64Zm-5.25-1.35a2.638,2.638,0,0,0-.9-2.1,3.313,3.313,0,0,0-2.25-.78,3.249,3.249,0,0,0-2.175.75,3.331,3.331,0,0,0-1.1,2.13Zm23.73,1.35a13.1,13.1,0,0,1-.09,1.5H86.955a3.488,3.488,0,0,0,1,2.385,3.07,3.07,0,0,0,2.175.825,2.7,2.7,0,0,0,2.67-1.62h5.46A7.492,7.492,0,0,1,96.75-2.58,7.585,7.585,0,0,1,94.005-.51a8.817,8.817,0,0,1-3.69.75,8.979,8.979,0,0,1-4.38-1.05,7.469,7.469,0,0,1-3-3,9.262,9.262,0,0,1-1.08-4.56,9.367,9.367,0,0,1,1.065-4.56,7.372,7.372,0,0,1,2.985-3,9.042,9.042,0,0,1,4.41-1.05,8.952,8.952,0,0,1,4.32,1.02,7.324,7.324,0,0,1,2.955,2.91A8.833,8.833,0,0,1,98.655-8.64Zm-5.25-1.35a2.638,2.638,0,0,0-.9-2.1,3.313,3.313,0,0,0-2.25-.78,3.249,3.249,0,0,0-2.175.75,3.331,3.331,0,0,0-1.1,2.13Zm6.93,1.59a10,10,0,0,1,.975-4.53,7.273,7.273,0,0,1,2.655-3,6.931,6.931,0,0,1,3.75-1.05,6.587,6.587,0,0,1,3.015.69,5.494,5.494,0,0,1,2.145,1.86V-22.2h5.13V0h-5.13V-2.4A5.226,5.226,0,0,1,110.82-.48a6.442,6.442,0,0,1-3.1.72,6.859,6.859,0,0,1-3.75-1.065,7.359,7.359,0,0,1-2.655-3.03A10.1,10.1,0,0,1,100.335-8.4Zm12.54.03a4.194,4.194,0,0,0-1.065-3.03,3.46,3.46,0,0,0-2.6-1.11,3.483,3.483,0,0,0-2.6,1.1A4.141,4.141,0,0,0,105.555-8.4a4.248,4.248,0,0,0,1.065,3.045,3.438,3.438,0,0,0,2.6,1.125,3.46,3.46,0,0,0,2.6-1.11A4.194,4.194,0,0,0,112.875-8.37Zm-206.2,75.424q1.972-1.566,1.8-1.45,5.684-4.7,8.961-7.714a37.1,37.1,0,0,0,5.539-6.322,11.424,11.424,0,0,0,2.262-6.438,5.667,5.667,0,0,0-1.1-3.712,4.04,4.04,0,0,0-3.306-1.334,4.081,4.081,0,0,0-3.451,1.653,7.622,7.622,0,0,0-1.247,4.669h-9.57a16.427,16.427,0,0,1,2.117-8.236A12.3,12.3,0,0,1-86.043,33.3a16.665,16.665,0,0,1,7.279-1.566q6.9,0,10.411,3.538a12.53,12.53,0,0,1,3.509,9.222,18.087,18.087,0,0,1-4.234,11.513A62.355,62.355,0,0,1-79.866,66.358h15.66V74.42H-93.322Zm33.466-13.8q0-9.976,3.857-15.718t12.441-5.742q8.584,0,12.441,5.742T-27.26,53.25q0,10.092-3.857,15.834t-12.441,5.742q-8.584,0-12.441-5.742T-59.856,53.25Zm22.852,0a25.017,25.017,0,0,0-1.276-9.019q-1.276-3.161-5.278-3.161t-5.278,3.161a25.017,25.017,0,0,0-1.276,9.019,37.918,37.918,0,0,0,.464,6.525,8.349,8.349,0,0,0,1.885,4.176,5.339,5.339,0,0,0,4.205,1.595,5.339,5.339,0,0,0,4.2-1.595,8.349,8.349,0,0,0,1.885-4.176A37.917,37.917,0,0,0-37,53.25Zm14.964,0q0-9.976,3.857-15.718T-5.742,31.79q8.584,0,12.441,5.742T10.556,53.25q0,10.092-3.857,15.834T-5.742,74.826q-8.584,0-12.441-5.742T-22.04,53.25Zm22.852,0A25.017,25.017,0,0,0-.464,44.231Q-1.74,41.07-5.742,41.07t-5.278,3.161A25.017,25.017,0,0,0-12.3,53.25a37.918,37.918,0,0,0,.464,6.525,8.349,8.349,0,0,0,1.885,4.176,5.339,5.339,0,0,0,4.2,1.595,5.339,5.339,0,0,0,4.2-1.595A8.349,8.349,0,0,0,.348,59.775,37.918,37.918,0,0,0,.812,53.25ZM43.79,47.16a7.418,7.418,0,0,0-3.161-3.1,10.343,10.343,0,0,0-4.843-1.073,9.965,9.965,0,0,0-7.714,3.161,12,12,0,0,0-2.9,8.439q0,5.626,3.045,8.787A11.091,11.091,0,0,0,36.6,66.532a10.137,10.137,0,0,0,6.177-1.856,10.519,10.519,0,0,0,3.683-5.336H33.872V52.032H55.448v9.222a19.454,19.454,0,0,1-3.741,6.9,19.738,19.738,0,0,1-6.7,5.162,20.706,20.706,0,0,1-9.164,1.972,21.693,21.693,0,0,1-10.759-2.639,18.8,18.8,0,0,1-7.366-7.337,21.53,21.53,0,0,1-2.639-10.73,21.693,21.693,0,0,1,2.639-10.759,18.8,18.8,0,0,1,7.337-7.366,21.53,21.53,0,0,1,10.73-2.639,20.846,20.846,0,0,1,12.325,3.538,16.7,16.7,0,0,1,6.641,9.8Zm41.818,6.96a9.47,9.47,0,0,1,5.684,3.509,10.673,10.673,0,0,1-1.421,14.384Q86.3,75,79.924,75H60.958V34.284H79.286q6.206,0,9.715,2.842A9.4,9.4,0,0,1,92.51,44.84a9.318,9.318,0,0,1-1.885,5.974A9.749,9.749,0,0,1,85.608,54.12ZM70.876,50.756h6.5a5.751,5.751,0,0,0,3.741-1.073,3.855,3.855,0,0,0,1.305-3.161,3.942,3.942,0,0,0-1.305-3.19,5.645,5.645,0,0,0-3.741-1.1h-6.5ZM78.184,67a5.881,5.881,0,0,0,3.857-1.131A4.015,4.015,0,0,0,83.4,62.588a4.2,4.2,0,0,0-1.421-3.364,5.823,5.823,0,0,0-3.915-1.218H70.876V67Z" transform="translate(188 267)" fill="#fff"/>
  </g>
</svg>
