<svg xmlns="http://www.w3.org/2000/svg" xmlns:xlink="http://www.w3.org/1999/xlink" width="357" height="239" viewBox="0 0 357 239">
  <defs>
    <filter id="Rectangle_20727" x="0" y="0" width="357" height="239" filterUnits="userSpaceOnUse">
      <feOffset dy="3" input="SourceAlpha"/>
      <feGaussianBlur stdDeviation="3" result="blur"/>
      <feFlood flood-opacity="0.161"/>
      <feComposite operator="in" in2="blur"/>
      <feComposite in="SourceGraphic"/>
    </filter>
  </defs>
  <g id="Group_39156" data-name="Group 39156" transform="translate(-9 -182)">
    <g transform="matrix(1, 0, 0, 1, 9, 182)" filter="url(#Rectangle_20727)">
      <rect id="Rectangle_20727-2" data-name="Rectangle 20727" width="339" height="221" rx="7" transform="translate(9 6)" fill="#14254b"/>
    </g>
    <path id="Android_UI" data-name="Android UI" d="M-80.88-21.06a12.25,12.25,0,0,1,5.82,1.32,9.43,9.43,0,0,1,3.855,3.7,10.886,10.886,0,0,1,1.365,5.5,10.908,10.908,0,0,1-1.365,5.49,9.38,9.38,0,0,1-3.87,3.72A12.272,12.272,0,0,1-80.88,0h-7.89V-21.06Zm-.33,16.62a6.191,6.191,0,0,0,4.53-1.59,6.02,6.02,0,0,0,1.62-4.5,6.124,6.124,0,0,0-1.62-4.53,6.124,6.124,0,0,0-4.53-1.62h-2.43V-4.44ZM-59.34.21a10.833,10.833,0,0,1-4.14-.75A6.748,6.748,0,0,1-66.4-2.76,6.065,6.065,0,0,1-67.56-6.3h5.46a2.649,2.649,0,0,0,.81,1.785,2.6,2.6,0,0,0,1.8.615,2.815,2.815,0,0,0,1.8-.525,1.756,1.756,0,0,0,.66-1.455,1.722,1.722,0,0,0-.525-1.29,4.235,4.235,0,0,0-1.29-.84,20.75,20.75,0,0,0-2.175-.75,23.682,23.682,0,0,1-3.33-1.26,6.153,6.153,0,0,1-2.22-1.86,5.183,5.183,0,0,1-.93-3.21,5.52,5.52,0,0,1,2.13-4.6,8.752,8.752,0,0,1,5.55-1.665,8.854,8.854,0,0,1,5.61,1.665,5.96,5.96,0,0,1,2.28,4.635h-5.55a2.171,2.171,0,0,0-.75-1.6A2.642,2.642,0,0,0-60-17.25a2.206,2.206,0,0,0-1.5.5,1.785,1.785,0,0,0-.57,1.425,1.766,1.766,0,0,0,.96,1.59,15.737,15.737,0,0,0,3,1.23,27.745,27.745,0,0,1,3.315,1.32,6.311,6.311,0,0,1,2.2,1.83,4.9,4.9,0,0,1,.93,3.09A6.064,6.064,0,0,1-52.575-3,6.408,6.408,0,0,1-55.23-.66,9.089,9.089,0,0,1-59.34.21Zm15.96-4.17h6.72V0H-48.51V-21.06h5.13Zm35.31-17.1L-15.54,0h-6.42l-7.47-21.06h5.46l5.22,15.9,5.25-15.9ZM1.68.24A9.24,9.24,0,0,1-2.745-.81a7.688,7.688,0,0,1-3.09-3A8.964,8.964,0,0,1-6.96-8.37a8.892,8.892,0,0,1,1.14-4.545A7.735,7.735,0,0,1-2.7-15.93a9.328,9.328,0,0,1,4.44-1.05,9.328,9.328,0,0,1,4.44,1.05A7.735,7.735,0,0,1,9.3-12.915,8.892,8.892,0,0,1,10.44-8.37,8.8,8.8,0,0,1,9.285-3.825,7.81,7.81,0,0,1,6.135-.81,9.417,9.417,0,0,1,1.68.24Zm0-4.44A3.342,3.342,0,0,0,4.185-5.28,4.29,4.29,0,0,0,5.22-8.37a4.37,4.37,0,0,0-1-3.09A3.248,3.248,0,0,0,1.74-12.54,3.256,3.256,0,0,0-.75-11.475a4.4,4.4,0,0,0-.99,3.1A4.457,4.457,0,0,0-.765-5.28,3.156,3.156,0,0,0,1.68-4.2Zm16.62-18V0H13.17V-22.2Zm20.25,5.46V0H33.42V-2.28A5.63,5.63,0,0,1,31.305-.5,6.454,6.454,0,0,1,28.35.18a6.619,6.619,0,0,1-3.39-.855A5.765,5.765,0,0,1,22.68-3.15a8.422,8.422,0,0,1-.81-3.81v-9.78h5.1v9.09a3.674,3.674,0,0,0,.87,2.61,3.051,3.051,0,0,0,2.34.93,3.088,3.088,0,0,0,2.37-.93,3.674,3.674,0,0,0,.87-2.61v-9.09Zm25.05-.18a6.62,6.62,0,0,1,4.965,1.89A7.2,7.2,0,0,1,70.41-9.78V0h-5.1V-9.09a3.459,3.459,0,0,0-.855-2.505A3.121,3.121,0,0,0,62.1-12.48a3.121,3.121,0,0,0-2.355.885A3.459,3.459,0,0,0,58.89-9.09V0h-5.1V-9.09a3.459,3.459,0,0,0-.855-2.505,3.121,3.121,0,0,0-2.355-.885,3.121,3.121,0,0,0-2.355.885A3.458,3.458,0,0,0,47.37-9.09V0H42.24V-16.74h5.13v2.1a5.491,5.491,0,0,1,2.04-1.665,6.414,6.414,0,0,1,2.85-.615,6.933,6.933,0,0,1,3.375.81A5.807,5.807,0,0,1,57.96-13.8a6.743,6.743,0,0,1,2.37-2.25A6.4,6.4,0,0,1,63.6-16.92ZM89.79-8.64a13.1,13.1,0,0,1-.09,1.5H78.09a3.488,3.488,0,0,0,1,2.385,3.07,3.07,0,0,0,2.175.825,2.7,2.7,0,0,0,2.67-1.62H89.4a7.492,7.492,0,0,1-1.515,2.97A7.585,7.585,0,0,1,85.14-.51a8.817,8.817,0,0,1-3.69.75A8.979,8.979,0,0,1,77.07-.81a7.469,7.469,0,0,1-3-3,9.262,9.262,0,0,1-1.08-4.56,9.367,9.367,0,0,1,1.065-4.56,7.372,7.372,0,0,1,2.985-3,9.042,9.042,0,0,1,4.41-1.05,8.952,8.952,0,0,1,4.32,1.02,7.324,7.324,0,0,1,2.955,2.91A8.833,8.833,0,0,1,89.79-8.64ZM84.54-9.99a2.638,2.638,0,0,0-.9-2.1,3.313,3.313,0,0,0-2.25-.78,3.249,3.249,0,0,0-2.175.75,3.331,3.331,0,0,0-1.1,2.13ZM-92.4,35.44a11.32,11.32,0,0,1,1.35-5.565,9.648,9.648,0,0,1,3.765-3.81A10.931,10.931,0,0,1-81.81,24.7a10.476,10.476,0,0,1,6.42,1.98,9.509,9.509,0,0,1,3.57,5.4h-5.64a4.555,4.555,0,0,0-1.785-2.01,5.019,5.019,0,0,0-2.625-.69,4.9,4.9,0,0,0-3.84,1.65,6.385,6.385,0,0,0-1.47,4.41,6.385,6.385,0,0,0,1.47,4.41,4.9,4.9,0,0,0,3.84,1.65,5.019,5.019,0,0,0,2.625-.69A4.555,4.555,0,0,0-77.46,38.8h5.64a9.439,9.439,0,0,1-3.57,5.385,10.531,10.531,0,0,1-6.42,1.965,10.931,10.931,0,0,1-5.475-1.365A9.675,9.675,0,0,1-91.05,40.99,11.235,11.235,0,0,1-92.4,35.44Zm22.71,2.16a10,10,0,0,1,.975-4.53,7.273,7.273,0,0,1,2.655-3,6.931,6.931,0,0,1,3.75-1.05,6.442,6.442,0,0,1,3.1.72,5.3,5.3,0,0,1,2.055,1.89V29.26h5.13V46h-5.13V43.63a5.54,5.54,0,0,1-2.085,1.89,6.442,6.442,0,0,1-3.1.72,6.807,6.807,0,0,1-3.72-1.065,7.359,7.359,0,0,1-2.655-3.03A10.1,10.1,0,0,1-69.69,37.6Zm12.54.03a4.194,4.194,0,0,0-1.065-3.03,3.46,3.46,0,0,0-2.595-1.11,3.483,3.483,0,0,0-2.6,1.1A4.141,4.141,0,0,0-64.47,37.6,4.248,4.248,0,0,0-63.4,40.645a3.438,3.438,0,0,0,2.6,1.125,3.46,3.46,0,0,0,2.595-1.11A4.194,4.194,0,0,0-57.15,37.63Zm13.98-5.58a6.767,6.767,0,0,1,2.25-2.175,5.8,5.8,0,0,1,3-.8v5.43h-1.41a4.322,4.322,0,0,0-2.88.825,3.665,3.665,0,0,0-.96,2.9V46H-48.3V29.26h5.13Zm6.69,5.55a10,10,0,0,1,.975-4.53,7.273,7.273,0,0,1,2.655-3,6.931,6.931,0,0,1,3.75-1.05,6.587,6.587,0,0,1,3.015.69,5.494,5.494,0,0,1,2.145,1.86V23.8h5.13V46h-5.13V43.6a5.226,5.226,0,0,1-2.055,1.92,6.442,6.442,0,0,1-3.105.72,6.859,6.859,0,0,1-3.75-1.065,7.359,7.359,0,0,1-2.655-3.03A10.1,10.1,0,0,1-36.48,37.6Zm12.54.03a4.194,4.194,0,0,0-1.065-3.03A3.46,3.46,0,0,0-27.6,33.49a3.483,3.483,0,0,0-2.6,1.1A4.141,4.141,0,0,0-31.26,37.6a4.248,4.248,0,0,0,1.065,3.045,3.438,3.438,0,0,0,2.6,1.125,3.46,3.46,0,0,0,2.595-1.11A4.194,4.194,0,0,0-23.94,37.63Zm14.52,4.26q1.02-.81.93-.75,2.94-2.43,4.635-3.99A19.189,19.189,0,0,0-.99,33.88,5.909,5.909,0,0,0,.18,30.55a2.931,2.931,0,0,0-.57-1.92,2.09,2.09,0,0,0-1.71-.69,2.111,2.111,0,0,0-1.785.855A3.942,3.942,0,0,0-4.53,31.21H-9.48a8.5,8.5,0,0,1,1.1-4.26,6.36,6.36,0,0,1,2.73-2.52,8.62,8.62,0,0,1,3.765-.81A7.27,7.27,0,0,1,3.5,25.45,6.481,6.481,0,0,1,5.31,30.22a9.355,9.355,0,0,1-2.19,5.955A32.253,32.253,0,0,1-2.46,41.53h8.1V45.7H-9.42ZM7.89,34.75q0-5.16,2-8.13t6.435-2.97q4.44,0,6.435,2.97t1.995,8.13q0,5.22-1.995,8.19T16.32,45.91q-4.44,0-6.435-2.97T7.89,34.75Zm11.82,0a12.94,12.94,0,0,0-.66-4.665,2.64,2.64,0,0,0-2.73-1.635,2.64,2.64,0,0,0-2.73,1.635,12.94,12.94,0,0,0-.66,4.665,19.613,19.613,0,0,0,.24,3.375,4.319,4.319,0,0,0,.975,2.16,2.762,2.762,0,0,0,2.175.825,2.762,2.762,0,0,0,2.175-.825,4.319,4.319,0,0,0,.975-2.16A19.613,19.613,0,0,0,19.71,34.75Zm13.77,6.51-3.33,8.61H26.88l1.74-8.61Zm2.58-6.51q0-5.16,2-8.13t6.435-2.97q4.44,0,6.435,2.97t1.995,8.13q0,5.22-1.995,8.19T44.49,45.91q-4.44,0-6.435-2.97T36.06,34.75Zm11.82,0a12.94,12.94,0,0,0-.66-4.665,2.64,2.64,0,0,0-2.73-1.635,2.64,2.64,0,0,0-2.73,1.635,12.94,12.94,0,0,0-.66,4.665,19.613,19.613,0,0,0,.24,3.375,4.319,4.319,0,0,0,.975,2.16,3.28,3.28,0,0,0,4.35,0,4.319,4.319,0,0,0,.975-2.16A19.613,19.613,0,0,0,47.88,34.75Zm7.74,0q0-5.16,2-8.13t6.435-2.97q4.44,0,6.435,2.97t2,8.13q0,5.22-2,8.19T64.05,45.91q-4.44,0-6.435-2.97T55.62,34.75Zm11.82,0a12.94,12.94,0,0,0-.66-4.665,3.1,3.1,0,0,0-5.46,0,12.94,12.94,0,0,0-.66,4.665,19.613,19.613,0,0,0,.24,3.375,4.319,4.319,0,0,0,.975,2.16,3.28,3.28,0,0,0,4.35,0,4.319,4.319,0,0,0,.975-2.16A19.613,19.613,0,0,0,67.44,34.75Zm7.74,0q0-5.16,2-8.13t6.435-2.97q4.44,0,6.435,2.97t2,8.13q0,5.22-2,8.19T83.61,45.91q-4.44,0-6.435-2.97T75.18,34.75Zm11.82,0a12.94,12.94,0,0,0-.66-4.665,3.1,3.1,0,0,0-5.46,0,12.94,12.94,0,0,0-.66,4.665,19.613,19.613,0,0,0,.24,3.375,4.319,4.319,0,0,0,.975,2.16,3.28,3.28,0,0,0,4.35,0,4.319,4.319,0,0,0,.975-2.16A19.613,19.613,0,0,0,87,34.75ZM-50.83,85.308V77.04h14.4V115h-9.256V85.308ZM5.8,90.04a6.651,6.651,0,0,0-2.834-2.782A9.273,9.273,0,0,0-1.378,86.3,8.934,8.934,0,0,0-8.294,89.13a10.755,10.755,0,0,0-2.6,7.566q0,5.044,2.73,7.878A9.943,9.943,0,0,0-.65,107.408a9.088,9.088,0,0,0,5.538-1.664,9.431,9.431,0,0,0,3.3-4.784H-3.094V94.408H16.25v8.268a17.442,17.442,0,0,1-3.354,6.188,17.7,17.7,0,0,1-6.006,4.628,18.564,18.564,0,0,1-8.216,1.768,19.449,19.449,0,0,1-9.646-2.366,16.853,16.853,0,0,1-6.6-6.578,19.3,19.3,0,0,1-2.366-9.62,19.449,19.449,0,0,1,2.366-9.646A16.853,16.853,0,0,1-11,80.446a19.3,19.3,0,0,1,9.62-2.366,18.689,18.689,0,0,1,11.05,3.172,14.969,14.969,0,0,1,5.954,8.788ZM43.29,96.28a8.49,8.49,0,0,1,5.1,3.146,9.569,9.569,0,0,1-1.274,12.9Q43.914,115,38.194,115h-17V78.5H37.622q5.564,0,8.71,2.548a9.239,9.239,0,0,1,1.456,12.272A8.74,8.74,0,0,1,43.29,96.28ZM30.082,93.264h5.824A5.156,5.156,0,0,0,39.26,92.3a3.456,3.456,0,0,0,1.17-2.834,3.534,3.534,0,0,0-1.17-2.86,5.061,5.061,0,0,0-3.354-.988H30.082Zm6.552,14.56a5.273,5.273,0,0,0,3.458-1.014,3.6,3.6,0,0,0,1.222-2.938,3.761,3.761,0,0,0-1.274-3.016,5.221,5.221,0,0,0-3.51-1.092H30.082v8.06Z" transform="translate(188 248)" fill="#fff"/>
  </g>
</svg>
