<svg xmlns="http://www.w3.org/2000/svg" xmlns:xlink="http://www.w3.org/1999/xlink" width="357" height="239.002" viewBox="0 0 357 239.002">
  <defs>
    <filter id="Path_41548" x="0" y="0" width="357" height="239" filterUnits="userSpaceOnUse">
      <feOffset dy="3" input="SourceAlpha"/>
      <feGaussianBlur stdDeviation="3" result="blur"/>
      <feFlood flood-opacity="0.161"/>
      <feComposite operator="in" in2="blur"/>
      <feComposite in="SourceGraphic"/>
    </filter>
    <filter id="Subtraction_1" x="0" y="0" width="356.999" height="239.002" filterUnits="userSpaceOnUse">
      <feOffset dy="3" input="SourceAlpha"/>
      <feGaussianBlur stdDeviation="3" result="blur-2"/>
      <feFlood flood-opacity="0.161"/>
      <feComposite operator="in" in2="blur-2"/>
      <feComposite in="SourceGraphic"/>
    </filter>
  </defs>
  <g id="Group_39142" data-name="Group 39142" transform="translate(-9 -182)">
    <g transform="matrix(1, 0, 0, 1, 9, 182)" filter="url(#Path_41548)">
      <path id="Path_41548-2" data-name="Path 41548" d="M7,0H332a7,7,0,0,1,7,7V214a7,7,0,0,1-7,7H7a7,7,0,0,1-7-7V7A7,7,0,0,1,7,0Z" transform="translate(9 6)" fill="#7c7f2a"/>
    </g>
    <g transform="matrix(1, 0, 0, 1, 9, 182)" filter="url(#Subtraction_1)">
      <path id="Subtraction_1-2" data-name="Subtraction 1" d="M-2530.512-11006.105h-325a7.009,7.009,0,0,1-7-7v-157.829c.518.083,1.033.19,1.534.319,6.783,1.746,13.032,5.46,18.546,8.737,5.95,3.536,11.087,6.589,15.6,6.589,3.128,0,5.713-1.519,7.9-4.642,3.941-5.642,1.625-12.535-.827-19.833-2.517-7.491-5.119-15.235-.483-21.646a6.57,6.57,0,0,1,3.333-2.358,15.024,15.024,0,0,1,4.872-.674c4.073,0,9.059.959,14.338,1.975l.787.151c6.062,1.162,11.486,2.124,16.486,2.124,8.583,0,13.7-2.922,16.111-9.2,2.079-5.416-.986-11.874-8.408-17.72h242.216a7.007,7.007,0,0,1,7,7v117.462c-4.769,9.687-10.9,14.6-18.236,14.6-.337,0-.675-.01-1-.03-6.991-.42-13.836-2.874-19.874-5.038l-.011,0c-5.293-1.9-10.292-3.689-14.34-3.689-4.3,0-7.183,1.991-9.085,6.266-2.792,6.29.8,12.615,4.6,19.312,3.9,6.873,7.931,13.979,4.6,21.155-1.121,2.42-3.683,3.9-8.062,4.648a88.86,88.86,0,0,1-13.845.69h-.014c-6.963.015-14.164.03-20.018,1.679-6.663,1.877-10.4,5.634-11.437,11.484-.556,3.15.429,6.257,2.927,9.233,6.538,7.793,22.132,13.028,38.8,13.028a75.973,75.973,0,0,0,32.817-7.238,70.691,70.691,0,0,1,13.474-5.045,47.133,47.133,0,0,1,11.639-1.473,52.682,52.682,0,0,1,7.066.5v9.467A7.007,7.007,0,0,1-2530.512-11006.105Z" transform="translate(2871.51 11233.11)" fill="#10a9dc"/>
    </g>
    <path id="Android_UI" data-name="Android UI" d="M-90.66-21.06a12.25,12.25,0,0,1,5.82,1.32,9.43,9.43,0,0,1,3.855,3.7,10.886,10.886,0,0,1,1.365,5.5,10.908,10.908,0,0,1-1.365,5.49,9.381,9.381,0,0,1-3.87,3.72A12.272,12.272,0,0,1-90.66,0h-7.89V-21.06Zm-.33,16.62a6.191,6.191,0,0,0,4.53-1.59,6.02,6.02,0,0,0,1.62-4.5,6.124,6.124,0,0,0-1.62-4.53,6.124,6.124,0,0,0-4.53-1.62h-2.43V-4.44ZM-69.12.21a10.833,10.833,0,0,1-4.14-.75,6.748,6.748,0,0,1-2.925-2.22A6.065,6.065,0,0,1-77.34-6.3h5.46a2.649,2.649,0,0,0,.81,1.785,2.6,2.6,0,0,0,1.8.615,2.815,2.815,0,0,0,1.8-.525,1.756,1.756,0,0,0,.66-1.455,1.722,1.722,0,0,0-.525-1.29,4.235,4.235,0,0,0-1.29-.84A20.751,20.751,0,0,0-70.8-8.76a23.682,23.682,0,0,1-3.33-1.26,6.153,6.153,0,0,1-2.22-1.86,5.183,5.183,0,0,1-.93-3.21,5.52,5.52,0,0,1,2.13-4.6A8.752,8.752,0,0,1-69.6-21.36a8.854,8.854,0,0,1,5.61,1.665,5.96,5.96,0,0,1,2.28,4.635h-5.55a2.171,2.171,0,0,0-.75-1.6,2.642,2.642,0,0,0-1.77-.585,2.206,2.206,0,0,0-1.5.5,1.785,1.785,0,0,0-.57,1.425,1.766,1.766,0,0,0,.96,1.59,15.737,15.737,0,0,0,3,1.23,27.744,27.744,0,0,1,3.315,1.32,6.311,6.311,0,0,1,2.2,1.83,4.9,4.9,0,0,1,.93,3.09A6.064,6.064,0,0,1-62.355-3,6.408,6.408,0,0,1-65.01-.66,9.089,9.089,0,0,1-69.12.21Zm15.96-4.17h6.72V0H-58.29V-21.06h5.13Zm15.15.06V-8.04l9.48-13.56h5.73V-8.34h2.46V-3.9H-22.8V0h-5.13V-3.9Zm10.44-12.06-5.04,7.62h5.04Zm34.11-5.1V0H1.41V-12.63L-3.3,0H-7.44l-4.74-12.66V0h-5.13V-21.06h6.06L-5.34-6.48.51-21.06ZM29.7-3.72H21.84L20.58,0H15.21l7.62-21.06h5.94L36.39,0H30.96ZM28.38-7.68l-2.61-7.71L23.19-7.68Zm15.45-6.27a6.767,6.767,0,0,1,2.25-2.175,5.8,5.8,0,0,1,3-.8v5.43H47.67a4.322,4.322,0,0,0-2.88.825,3.665,3.665,0,0,0-.96,2.895V0H38.7V-16.74h5.13ZM72.9-16.92a6.62,6.62,0,0,1,4.965,1.89A7.2,7.2,0,0,1,79.71-9.78V0h-5.1V-9.09a3.459,3.459,0,0,0-.855-2.505A3.121,3.121,0,0,0,71.4-12.48a3.121,3.121,0,0,0-2.355.885A3.459,3.459,0,0,0,68.19-9.09V0h-5.1V-9.09a3.459,3.459,0,0,0-.855-2.505,3.121,3.121,0,0,0-2.355-.885,3.121,3.121,0,0,0-2.355.885A3.458,3.458,0,0,0,56.67-9.09V0H51.54V-16.74h5.13v2.1a5.491,5.491,0,0,1,2.04-1.665,6.414,6.414,0,0,1,2.85-.615,6.933,6.933,0,0,1,3.375.81A5.807,5.807,0,0,1,67.26-13.8a6.743,6.743,0,0,1,2.37-2.25A6.4,6.4,0,0,1,72.9-16.92Zm27.51.18L89.91,7.95H84.39L88.23-.57,81.42-16.74h5.73L91.02-6.27l3.84-10.47ZM-84.734,39.308V31.04h14.4V69h-9.256V39.308ZM-64.246,49.5q0-8.944,3.458-14.092t11.154-5.148q7.7,0,11.154,5.148T-35.022,49.5q0,9.048-3.458,14.2t-11.154,5.148q-7.7,0-11.154-5.148T-64.246,49.5Zm20.488,0A22.429,22.429,0,0,0-44.9,41.414q-1.144-2.834-4.732-2.834t-4.732,2.834A22.429,22.429,0,0,0-55.51,49.5a34,34,0,0,0,.416,5.85,7.486,7.486,0,0,0,1.69,3.744,4.787,4.787,0,0,0,3.77,1.43,4.787,4.787,0,0,0,3.77-1.43,7.486,7.486,0,0,0,1.69-3.744A33.995,33.995,0,0,0-43.758,49.5Zm13.416,0q0-8.944,3.458-14.092T-15.73,30.26q7.7,0,11.154,5.148T-1.118,49.5q0,9.048-3.458,14.2T-15.73,68.844q-7.7,0-11.154-5.148T-30.342,49.5Zm20.488,0A22.429,22.429,0,0,0-11,41.414q-1.144-2.834-4.732-2.834t-4.732,2.834A22.429,22.429,0,0,0-21.606,49.5a34,34,0,0,0,.416,5.85,7.486,7.486,0,0,0,1.69,3.744,4.787,4.787,0,0,0,3.77,1.43,4.787,4.787,0,0,0,3.77-1.43,7.486,7.486,0,0,0,1.69-3.744A33.995,33.995,0,0,0-9.854,49.5ZM39.7,44.04a6.651,6.651,0,0,0-2.834-2.782,9.273,9.273,0,0,0-4.342-.962A8.934,8.934,0,0,0,25.61,43.13a10.755,10.755,0,0,0-2.6,7.566q0,5.044,2.73,7.878a9.943,9.943,0,0,0,7.514,2.834,9.088,9.088,0,0,0,5.538-1.664,9.431,9.431,0,0,0,3.3-4.784H30.81V48.408H50.154v8.268A17.442,17.442,0,0,1,46.8,62.864a17.7,17.7,0,0,1-6.006,4.628,18.564,18.564,0,0,1-8.216,1.768,19.449,19.449,0,0,1-9.646-2.366,16.853,16.853,0,0,1-6.6-6.578,19.3,19.3,0,0,1-2.366-9.62,19.449,19.449,0,0,1,2.366-9.646,16.853,16.853,0,0,1,6.578-6.6,19.3,19.3,0,0,1,9.62-2.366,18.689,18.689,0,0,1,11.05,3.172A14.969,14.969,0,0,1,49.53,44.04Zm37.492,6.24a8.49,8.49,0,0,1,5.1,3.146,9.569,9.569,0,0,1-1.274,12.9Q77.818,69,72.1,69h-17V32.5H71.526q5.564,0,8.71,2.548a8.428,8.428,0,0,1,3.146,6.916,8.354,8.354,0,0,1-1.69,5.356A8.74,8.74,0,0,1,77.194,50.28ZM63.986,47.264H69.81a5.156,5.156,0,0,0,3.354-.962,3.456,3.456,0,0,0,1.17-2.834,3.534,3.534,0,0,0-1.17-2.86,5.061,5.061,0,0,0-3.354-.988H63.986Zm6.552,14.56A5.273,5.273,0,0,0,74,60.81a3.6,3.6,0,0,0,1.222-2.938,3.761,3.761,0,0,0-1.274-3.016,5.221,5.221,0,0,0-3.51-1.092H63.986v8.06Z" transform="translate(188 285.999)" fill="#fff"/>
  </g>
</svg>
