<svg xmlns="http://www.w3.org/2000/svg" width="11.25" height="10" viewBox="0 0 11.25 10">
  <path id="Path_43406" data-name="Path 43406" d="M-.127-.156-4.813-8.282a.938.938,0,0,0-1.624,0L-11.124-.156a.938.938,0,0,0,.812,1.406H-.939A.938.938,0,0,0-.127-.156Zm-5.5-1.68a.9.9,0,0,1,.9.9.9.9,0,0,1-.9.9.9.9,0,0,1-.9-.9A.9.9,0,0,1-5.625-1.836Zm-.853-3.229a.234.234,0,0,1,.234-.247h1.238a.234.234,0,0,1,.234.247l-.145,2.656a.234.234,0,0,1-.234.222H-6.1a.234.234,0,0,1-.234-.222Z" transform="translate(11.25 8.75)" fill="#f47a00"/>
</svg>
