<svg xmlns="http://www.w3.org/2000/svg" xmlns:xlink="http://www.w3.org/1999/xlink" width="73" height="73" viewBox="0 0 73 73">
  <defs>
    <clipPath id="clip-path">
      <rect id="Rectangle_21956" data-name="Rectangle 21956" width="73" height="73" transform="translate(924 926)" fill="none" stroke="#707070" stroke-width="1"/>
    </clipPath>
    <clipPath id="clip-path-2">
      <rect id="Rectangle_21838" data-name="Rectangle 21838" width="53.641" height="53.66" fill="#373464"/>
    </clipPath>
  </defs>
  <g id="Mask_Group_7317" data-name="Mask Group 7317" transform="translate(-924 -926)" clip-path="url(#clip-path)">
    <g id="Group_39474" data-name="Group 39474" transform="translate(934 936)">
      <g id="Group_39473" data-name="Group 39473" transform="translate(0 0)" clip-path="url(#clip-path-2)">
        <path id="Path_42593" data-name="Path 42593" d="M5.331,4.353A4.89,4.89,0,0,0,0,8.782V26.825A2.444,2.444,0,0,0,2.435,29.27H9.75V9.76a.207.207,0,0,0,.009-.075A4.89,4.89,0,0,0,5.331,4.353M43.891,0H9.75a2.437,2.437,0,0,0-1.58.611,9.757,9.757,0,0,1,6.46,8.171,4.251,4.251,0,0,1,0,.978V51.216a2.433,2.433,0,0,0,4.024,1.852L25.6,47.116l6.948,5.952a2.437,2.437,0,0,0,3.169,0l6.958-5.952,6.948,5.952a2.447,2.447,0,0,0,1.58.583,2.536,2.536,0,0,0,1.025-.216,2.429,2.429,0,0,0,1.41-2.219V9.76A9.761,9.761,0,0,0,43.891,0m2,30.427a.723.723,0,0,1-.423.63,1.965,1.965,0,0,1-1.034.254H24.014a2.009,2.009,0,0,1-1.034-.254.759.759,0,0,1-.423-.63v-.592a.742.742,0,0,1,.433-.621,1.888,1.888,0,0,1,1.034-.263H44.436a1.888,1.888,0,0,1,1.034.263.724.724,0,0,1,.433.621Zm.075-5.7a.729.729,0,0,1-.423.63,1.881,1.881,0,0,1-1.034.254H24.089a1.921,1.921,0,0,1-1.034-.254.746.746,0,0,1-.423-.63v-.592a.742.742,0,0,1,.433-.621,1.972,1.972,0,0,1,1.034-.263H44.512a2,2,0,0,1,1.034.263.746.746,0,0,1,.423.63Zm.1-5.482a.744.744,0,0,1-.423.621,1.909,1.909,0,0,1-1.034.263H24.193a1.888,1.888,0,0,1-1.034-.263.726.726,0,0,1-.423-.621v-.592a.759.759,0,0,1,.423-.63,2.009,2.009,0,0,1,1.034-.254H44.606a1.965,1.965,0,0,1,1.034.254.75.75,0,0,1,.433.63Z" transform="translate(0 0)" fill="#373464"/>
      </g>
    </g>
  </g>
</svg>
