<svg xmlns="http://www.w3.org/2000/svg" width="151.114" height="43.365" viewBox="0 0 151.114 43.365"><defs><style>.a{fill:#fff;}</style></defs><path d="M152,39.909a4.347,4.347,0,0,1-4.352,4.347H5.247A4.353,4.353,0,0,1,.89,39.909V5.243A4.358,4.358,0,0,1,5.247.89h142.4A4.352,4.352,0,0,1,152,5.243V39.909Z" transform="translate(-0.89 -0.89)"/><path class="a" d="M32.468,21.615A6.579,6.579,0,0,1,35.6,16.095a6.739,6.739,0,0,0-5.307-2.869c-2.233-.235-4.4,1.336-5.535,1.336-1.16,0-2.911-1.313-4.8-1.275a7.066,7.066,0,0,0-5.947,3.627c-2.572,4.453-.654,11,1.81,14.595,1.233,1.763,2.673,3.731,4.558,3.661,1.844-.076,2.533-1.176,4.759-1.176,2.205,0,2.852,1.176,4.775,1.132,1.979-.032,3.226-1.771,4.415-3.549a14.565,14.565,0,0,0,2.019-4.112,6.36,6.36,0,0,1-3.882-5.85ZM28.836,10.858a6.476,6.476,0,0,0,1.482-4.641,6.6,6.6,0,0,0-4.265,2.206,6.163,6.163,0,0,0-1.521,4.47,5.449,5.449,0,0,0,4.3-2.035ZM59.16,34.917H56.582L55.17,30.481H50.262l-1.345,4.437H46.408l4.862-15.1h3l4.886,15.1Zm-4.415-6.3-1.277-3.944q-.2-.6-.762-2.845h-.045q-.34,1.427-.717,2.845l-1.254,3.944h4.055Zm16.919.718a6.189,6.189,0,0,1-1.5,4.391,4.391,4.391,0,0,1-3.339,1.435,3.339,3.339,0,0,1-3.093-1.546h-.045v5.737h-2.42V27.611q0-1.747-.09-3.585H63.3l.135,1.726h.045a4.305,4.305,0,0,1,6.891-.427,6,6,0,0,1,1.289,4.012Zm-2.465.089a4.484,4.484,0,0,0-.717-2.622,2.477,2.477,0,0,0-2.107-1.076,2.516,2.516,0,0,0-1.624.594A2.753,2.753,0,0,0,63.8,27.88a3.168,3.168,0,0,0-.112.738v1.816a2.91,2.91,0,0,0,.729,2.007,2.415,2.415,0,0,0,1.893.818,2.477,2.477,0,0,0,2.128-1.053,4.636,4.636,0,0,0,.763-2.78Zm14.992-.089a6.185,6.185,0,0,1-1.5,4.391,4.386,4.386,0,0,1-3.338,1.435,3.336,3.336,0,0,1-3.092-1.546h-.045v5.737h-2.42V27.611q0-1.747-.09-3.585h2.128l.135,1.726h.045a4.307,4.307,0,0,1,6.892-.427,6.017,6.017,0,0,1,1.287,4.012Zm-2.465.089a4.484,4.484,0,0,0-.718-2.622A2.474,2.474,0,0,0,78.9,25.729a2.52,2.52,0,0,0-1.625.594,2.752,2.752,0,0,0-.951,1.558,3.23,3.23,0,0,0-.112.738v1.816a2.919,2.919,0,0,0,.726,2.007,2.42,2.42,0,0,0,1.9.818,2.477,2.477,0,0,0,2.128-1.053,4.636,4.636,0,0,0,.763-2.78ZM98.2,30.682a4.026,4.026,0,0,1-1.342,3.137,5.946,5.946,0,0,1-4.114,1.322,7.2,7.2,0,0,1-3.915-.941l.561-2.017a6.633,6.633,0,0,0,3.5.965,3.307,3.307,0,0,0,2.13-.617,2.016,2.016,0,0,0,.76-1.65,2.1,2.1,0,0,0-.628-1.548,5.835,5.835,0,0,0-2.084-1.168Q89.1,26.685,89.1,23.833a3.832,3.832,0,0,1,1.39-3.052,5.481,5.481,0,0,1,3.7-1.189,7.331,7.331,0,0,1,3.428.717l-.6,1.973a5.947,5.947,0,0,0-2.891-.695,2.926,2.926,0,0,0-1.993.628,1.793,1.793,0,0,0-.6,1.368,1.846,1.846,0,0,0,.693,1.479,7.838,7.838,0,0,0,2.2,1.166,7.455,7.455,0,0,1,2.868,1.836,3.837,3.837,0,0,1,.917,2.618Zm8-4.84H103.53V31.13q0,2.017,1.412,2.017a4.3,4.3,0,0,0,1.075-.112l.067,1.838a5.482,5.482,0,0,1-1.882.268,2.9,2.9,0,0,1-2.242-.874,4.293,4.293,0,0,1-.807-2.936V25.84H99.564V24.024h1.589V22.03l2.377-.717v2.711H106.2v1.818Zm12.034,3.54a5.975,5.975,0,0,1-1.435,4.123,5.122,5.122,0,0,1-3.991,1.658,4.87,4.87,0,0,1-3.819-1.59,5.791,5.791,0,0,1-1.423-4.011,5.916,5.916,0,0,1,1.468-4.145,5.079,5.079,0,0,1,3.954-1.614,4.974,4.974,0,0,1,3.854,1.591A5.725,5.725,0,0,1,118.231,29.382Zm-2.511.078a4.9,4.9,0,0,0-.649-2.584,2.39,2.39,0,0,0-2.172-1.3,2.426,2.426,0,0,0-2.219,1.3,4.993,4.993,0,0,0-.649,2.63,4.892,4.892,0,0,0,.649,2.583,2.473,2.473,0,0,0,4.37-.023A4.917,4.917,0,0,0,115.72,29.46ZM126.1,26.154a4.2,4.2,0,0,0-.763-.067,2.286,2.286,0,0,0-1.973.965,3.626,3.626,0,0,0-.6,2.151v5.715h-2.419l.023-7.461q0-1.883-.091-3.429h2.108l.089,2.084h.067a3.725,3.725,0,0,1,1.21-1.725,2.926,2.926,0,0,1,1.749-.583,3.886,3.886,0,0,1,.6.044v2.307Zm10.822,2.8a5.675,5.675,0,0,1-.089,1.1h-7.259a3.16,3.16,0,0,0,1.053,2.466,3.6,3.6,0,0,0,2.374.762,8.029,8.029,0,0,0,2.937-.515l.379,1.68a9.081,9.081,0,0,1-3.651.673,5.289,5.289,0,0,1-3.979-1.49,5.5,5.5,0,0,1-1.445-4,6.24,6.24,0,0,1,1.346-4.1,4.637,4.637,0,0,1,3.808-1.747,4.059,4.059,0,0,1,3.565,1.747A5.891,5.891,0,0,1,136.919,28.956Zm-2.307-.628a3.287,3.287,0,0,0-.47-1.86,2.114,2.114,0,0,0-1.928-1.009,2.3,2.3,0,0,0-1.926.986,3.611,3.611,0,0,0-.716,1.882h5.04ZM53.944,10.521a3.726,3.726,0,0,1-1.2,3.017,4.776,4.776,0,0,1-3.159.935,14.645,14.645,0,0,1-1.74-.089v-7.3a12.84,12.84,0,0,1,2.049-.154,4.416,4.416,0,0,1,2.94.848,3.426,3.426,0,0,1,1.111,2.742Zm-1.254.033A2.713,2.713,0,0,0,52,8.561a2.711,2.711,0,0,0-2.01-.693,5.034,5.034,0,0,0-.958.077v5.549a6.28,6.28,0,0,0,.8.033,2.814,2.814,0,0,0,2.108-.759,3.041,3.041,0,0,0,.745-2.213Zm7.9,1.134a2.935,2.935,0,0,1-.7,2.026,2.516,2.516,0,0,1-1.96.815,2.391,2.391,0,0,1-1.877-.782,2.848,2.848,0,0,1-.7-1.97,2.906,2.906,0,0,1,.721-2.036,2.5,2.5,0,0,1,1.943-.792,2.447,2.447,0,0,1,1.894.781A2.825,2.825,0,0,1,60.594,11.688Zm-1.234.039a2.42,2.42,0,0,0-.319-1.27,1.175,1.175,0,0,0-1.067-.64,1.193,1.193,0,0,0-1.091.64,2.452,2.452,0,0,0-.319,1.292,2.42,2.42,0,0,0,.319,1.27,1.2,1.2,0,0,0,1.079.64,1.187,1.187,0,0,0,1.067-.651,2.4,2.4,0,0,0,.33-1.28Zm10.15-2.669-1.674,5.35h-1.09l-.693-2.323a17.388,17.388,0,0,1-.43-1.729H65.6a12.656,12.656,0,0,1-.43,1.729l-.737,2.323h-1.1l-1.574-5.35h1.222l.6,2.544q.22.9.363,1.717h.022q.133-.671.442-1.706l.759-2.554h.969l.728,2.5q.264.914.429,1.761h.033a16.833,16.833,0,0,1,.363-1.761l.649-2.5h1.168Zm6.166,5.35H74.488V11.343q0-1.416-1.078-1.416a1.074,1.074,0,0,0-.859.389,1.381,1.381,0,0,0-.33.917v3.173H71.03v-3.82q0-.7-.043-1.531h1.045l.056.836h.033a1.719,1.719,0,0,1,.616-.646,2.01,2.01,0,0,1,1.078-.3,1.707,1.707,0,0,1,1.245.485,2.355,2.355,0,0,1,.616,1.773Zm3.28,0H77.769V6.6h1.188Zm7-2.719a2.935,2.935,0,0,1-.7,2.026,2.517,2.517,0,0,1-1.96.815,2.388,2.388,0,0,1-1.877-.782,2.848,2.848,0,0,1-.7-1.97A2.906,2.906,0,0,1,81.44,9.74a2.5,2.5,0,0,1,1.942-.792,2.449,2.449,0,0,1,1.9.781A2.825,2.825,0,0,1,85.96,11.688Zm-1.235.039a2.42,2.42,0,0,0-.319-1.27,1.173,1.173,0,0,0-1.066-.64,1.191,1.191,0,0,0-1.091.64,2.452,2.452,0,0,0-.319,1.292,2.42,2.42,0,0,0,.319,1.27,1.2,1.2,0,0,0,1.079.64,1.185,1.185,0,0,0,1.066-.651A2.394,2.394,0,0,0,84.725,11.726Zm6.992,2.681H90.649l-.089-.616h-.033a1.832,1.832,0,0,1-1.563.738,1.613,1.613,0,0,1-1.221-.485,1.52,1.52,0,0,1-.419-1.09,1.662,1.662,0,0,1,.821-1.5,4.259,4.259,0,0,1,2.307-.506v-.1q0-1.057-1.111-1.057a2.488,2.488,0,0,0-1.395.4L87.7,9.41a3.431,3.431,0,0,1,1.835-.462q2.1,0,2.1,2.213v1.97A8.356,8.356,0,0,0,91.717,14.407Zm-1.235-1.839v-.825q-1.968-.034-1.968,1.078a.806.806,0,0,0,.228.628.832.832,0,0,0,.581.209,1.2,1.2,0,0,0,.728-.247,1.014,1.014,0,0,0,.431-.842Zm7.994,1.839H97.42l-.056-.859h-.033a1.778,1.778,0,0,1-1.718.981,2.014,2.014,0,0,1-1.607-.759,2.958,2.958,0,0,1-.638-1.97,3.1,3.1,0,0,1,.693-2.1,2.132,2.132,0,0,1,1.651-.749,1.6,1.6,0,0,1,1.507.726h.023V6.6h1.191v6.364q0,.781.042,1.441Zm-1.233-2.256v-.892a1.355,1.355,0,0,0-.463-1.1,1.169,1.169,0,0,0-.8-.292,1.221,1.221,0,0,0-1.046.529,2.267,2.267,0,0,0-.381,1.354,2.113,2.113,0,0,0,.365,1.288,1.224,1.224,0,0,0,1.04.528,1.146,1.146,0,0,0,.94-.44,1.466,1.466,0,0,0,.342-.979Zm11.405-.463a2.935,2.935,0,0,1-.7,2.026,2.514,2.514,0,0,1-1.96.815,2.394,2.394,0,0,1-1.877-.782,2.848,2.848,0,0,1-.7-1.97,2.906,2.906,0,0,1,.721-2.036,2.5,2.5,0,0,1,1.944-.792,2.444,2.444,0,0,1,1.893.781A2.825,2.825,0,0,1,108.648,11.688Zm-1.233.039a2.42,2.42,0,0,0-.319-1.27,1.176,1.176,0,0,0-1.068-.64,1.2,1.2,0,0,0-1.091.64,2.452,2.452,0,0,0-.319,1.292,2.42,2.42,0,0,0,.319,1.27,1.215,1.215,0,0,0,2.147-.011A2.415,2.415,0,0,0,107.416,11.726Zm7.628,2.681h-1.188V11.343q0-1.416-1.079-1.416a1.07,1.07,0,0,0-.858.389,1.376,1.376,0,0,0-.33.917v3.173H110.4v-3.82q0-.7-.042-1.531H111.4l.056.836h.033a1.737,1.737,0,0,1,.616-.646,2.014,2.014,0,0,1,1.079-.3,1.707,1.707,0,0,1,1.244.485,2.35,2.35,0,0,1,.616,1.773Zm8.005-4.459h-1.31v2.6c0,.661.233.991.693.991a2.1,2.1,0,0,0,.53-.056l.031.9a2.672,2.672,0,0,1-.924.133,1.422,1.422,0,0,1-1.1-.429,2.1,2.1,0,0,1-.4-1.443v-2.7h-.782V9.057h.782V8.076l1.166-.352V9.056h1.31v.892Zm6.3,4.459h-1.191V11.365q0-1.439-1.077-1.439a1.135,1.135,0,0,0-1.135.834,1.5,1.5,0,0,0-.056.428v3.218H124.7V6.6h1.188V9.826h.023a1.8,1.8,0,0,1,1.607-.88,1.658,1.658,0,0,1,1.224.485,2.437,2.437,0,0,1,.6,1.794v3.181Zm6.5-2.928a2.872,2.872,0,0,1-.044.539H132.23a1.56,1.56,0,0,0,.516,1.211,1.772,1.772,0,0,0,1.168.375,3.941,3.941,0,0,0,1.443-.253l.186.826a4.48,4.48,0,0,1-1.8.33,2.593,2.593,0,0,1-1.953-.732,2.7,2.7,0,0,1-.709-1.965,3.062,3.062,0,0,1,.661-2.015,2.275,2.275,0,0,1,1.87-.858,1.99,1.99,0,0,1,1.749.858,2.856,2.856,0,0,1,.477,1.683Zm-1.135-.308a1.6,1.6,0,0,0-.23-.914,1.039,1.039,0,0,0-.947-.5,1.129,1.129,0,0,0-.947.485,1.8,1.8,0,0,0-.353.925h2.477Z" transform="translate(0.717 -0.171)"/></svg>