<svg xmlns="http://www.w3.org/2000/svg" width="36.837" height="36.837" viewBox="0 0 36.837 36.837">
  <g id="Group_39639" data-name="Group 39639" transform="translate(-160 -9058.163)">
    <path id="Path_42960" data-name="Path 42960" d="M18.418,0A18.418,18.418,0,1,0,36.837,18.418,18.418,18.418,0,0,0,18.418,0m4.657,11.573H22.8c-.672,0-1.341-.017-2.011.006-.919.032-1.6.382-1.632,1.53-.023.837-.032,2.766-.032,2.766s2.156,0,3.1,0h.743c-.173,1.334-.339,2.617-.508,3.911h-3.3v9.768H15.1V19.771H11.785V15.878h3.334v-.293c0-.783-.017-1.564,0-2.347a10.353,10.353,0,0,1,.121-1.495,4.361,4.361,0,0,1,1.75-2.91,5.068,5.068,0,0,1,2.913-.9c.688-.015,1.375.018,2.063.049.373.017.749.071,1.107.106Z" transform="translate(160 9058.163)" fill="#fff"/>
    <path id="Path_42961" data-name="Path 42961" d="M15.05,10.346c-.023.837-.032,2.766-.032,2.766s2.156,0,3.1,0h.743c-.173,1.335-.339,2.617-.508,3.911h-3.3v9.769H10.993V17.007H7.678V13.115h3.335v-.293c0-.783-.017-1.564,0-2.347a10.139,10.139,0,0,1,.12-1.495,4.36,4.36,0,0,1,1.75-2.909,5.058,5.058,0,0,1,2.913-.9c.688-.015,1.375.018,2.063.049.375.018.749.071,1.107.106V8.809h-.276c-.672,0-1.341-.015-2.011.006-.919.034-1.6.384-1.632,1.53" transform="translate(164.107 9060.927)" fill="#216d96" fill-rule="evenodd"/>
  </g>
</svg>
