<svg xmlns="http://www.w3.org/2000/svg" width="109.646" height="49.418" viewBox="0 0 109.646 49.418">
  <g id="Group_1" data-name="Group 1" transform="translate(-7507.229 -983.172)">
    <path id="Path_10744" data-name="Path 10744" d="M668.269,2359.089a7.035,7.035,0,0,1,6.89,5.1l.359,1.2,3.708-3.707-.223-.475a11.933,11.933,0,0,0-22.649,5.307,11.819,11.819,0,0,0,6.54,10.785l.48.235,3.59-3.59-1.131-.391a7.246,7.246,0,0,1-4.788-7.039A7.168,7.168,0,0,1,668.269,2359.089Z" transform="translate(6914.172 -1357.893)" fill="#fff"/>
    <path id="Path_10745" data-name="Path 10745" d="M690.781,2354.548l-.478-.234-3.591,3.59,1.131.391a7.25,7.25,0,0,1,4.789,7.039,7.169,7.169,0,0,1-7.225,7.43,7.038,7.038,0,0,1-6.891-5.1l-.36-1.2-3.7,3.707.221.475a11.933,11.933,0,0,0,22.649-5.307A11.818,11.818,0,0,0,690.781,2354.548Z" transform="translate(6909.412 -1357.837)" fill="#fff"/>
    <path id="Path_10746" data-name="Path 10746" d="M583.653,2360.013l-4.516-2.2c-2.379-1.105-2.379-1.829-2.379-2.529,0-1.5,1.4-2.556,3.393-2.556,2.037,0,3.552,1.073,3.771,2.669l.125.917h5.264l-.209-1.628c-.548-4.271-4.079-7.031-9-7.031-5.024,0-8.67,3.265-8.67,7.764,0,3.288,1.742,5.536,5.64,7.285l4.64,2.2c2.026.932,2.643,1.7,2.643,3.275,0,1.758-1.6,2.893-4.071,2.893a4.127,4.127,0,0,1-4.41-3.479l-.152-.94H570.92l-.448.057.233,1.655c.687,4.887,4.277,7.8,9.6,7.8,6.423,0,9.349-4.189,9.349-8.082C589.658,2363.336,586.773,2361.4,583.653,2360.013Z" transform="translate(6936.757 -1356.085)" fill="#fff"/>
    <path id="Path_10747" data-name="Path 10747" d="M614.668,2368.528c0,3.183-1.9,6.476-5.082,6.476a4.024,4.024,0,0,1-4.117-4.265v-12.282h-4.734v12.263a8.543,8.543,0,0,0,8.777,8.889,8.271,8.271,0,0,0,5.286-1.864v1.269h4.585v-20.557h-4.715Z" transform="translate(6928.797 -1358.926)" fill="#fff"/>
    <path id="Path_10748" data-name="Path 10748" d="M716.169,2373.415l-.232-.092c-2.4-.951-3.565-2.987-3.575-6.225l-.009-1.607.031-29.229L707.6,2341l.118,25.966c0,5.423,2.078,8.776,6.581,10.564l1.881.568Z" transform="translate(6900.693 -1353.09)" fill="#fff"/>
    <path id="Path_10749" data-name="Path 10749" d="M643.11,2368.528c0,3.183-1.9,6.476-5.082,6.476a4.024,4.024,0,0,1-4.117-4.265v-12.282h-4.734v12.263a8.543,8.543,0,0,0,8.776,8.889,8.272,8.272,0,0,0,5.286-1.865v13.774l4.584-4.586v-28.475H643.11Z" transform="translate(6921.318 -1358.926)" fill="#fff"/>
  </g>
</svg>
