<svg xmlns="http://www.w3.org/2000/svg" width="90.131" height="40.623" viewBox="0 0 90.131 40.623">
  <g id="Group_3" data-name="Group 3" transform="translate(-7507.229 -983.172)">
    <path id="Path_10744" data-name="Path 10744" d="M666.148,2358.277a5.783,5.783,0,0,1,5.663,4.193l.3.99,3.048-3.047-.183-.391a9.809,9.809,0,0,0-18.618,4.363,9.715,9.715,0,0,0,5.376,8.866l.394.193,2.951-2.951-.93-.321a5.958,5.958,0,0,1-3.936-5.787A5.893,5.893,0,0,1,666.148,2358.277Z" transform="translate(6902.906 -1360.29)" fill="#fff"/>
    <path id="Path_10745" data-name="Path 10745" d="M687.875,2354.507l-.393-.192-2.952,2.951.93.321a5.96,5.96,0,0,1,3.937,5.787,5.893,5.893,0,0,1-5.94,6.108,5.785,5.785,0,0,1-5.664-4.194l-.3-.989-3.045,3.047.182.391a9.809,9.809,0,0,0,18.618-4.362A9.714,9.714,0,0,0,687.875,2354.507Z" transform="translate(6895.772 -1360.205)" fill="#fff"/>
    <path id="Path_10746" data-name="Path 10746" d="M581.307,2357.813,577.595,2356c-1.956-.909-1.956-1.5-1.956-2.079,0-1.237,1.148-2.1,2.789-2.1,1.675,0,2.92.882,3.1,2.194l.1.754h4.327l-.171-1.338c-.451-3.511-3.353-5.779-7.4-5.779-4.129,0-7.127,2.684-7.127,6.382,0,2.7,1.432,4.551,4.636,5.988l3.814,1.812c1.665.766,2.173,1.395,2.173,2.692,0,1.445-1.313,2.378-3.346,2.378a3.392,3.392,0,0,1-3.625-2.86l-.125-.772h-3.95l-.368.047.192,1.361c.565,4.017,3.516,6.415,7.895,6.415,5.28,0,7.685-3.443,7.685-6.644C586.243,2360.544,583.871,2358.952,581.307,2357.813Z" transform="translate(6936.757 -1357.58)" fill="#fff"/>
    <path id="Path_10747" data-name="Path 10747" d="M612.188,2366.735c0,2.616-1.562,5.323-4.178,5.323a3.308,3.308,0,0,1-3.384-3.506v-10.1h-3.891v10.081a7.023,7.023,0,0,0,7.215,7.306,6.8,6.8,0,0,0,4.345-1.532v1.043h3.769v-16.9h-3.875Z" transform="translate(6924.828 -1361.838)" fill="#fff"/>
    <path id="Path_10748" data-name="Path 10748" d="M714.644,2366.8l-.191-.076c-1.969-.782-2.93-2.456-2.939-5.117l-.007-1.322.025-24.027-3.931,3.892.1,21.345c0,4.458,1.709,7.214,5.41,8.684l1.546.467Z" transform="translate(6882.706 -1353.09)" fill="#fff"/>
    <path id="Path_10749" data-name="Path 10749" d="M640.631,2366.735c0,2.616-1.563,5.323-4.177,5.323a3.308,3.308,0,0,1-3.384-3.506v-10.1h-3.891v10.081a7.023,7.023,0,0,0,7.214,7.306,6.8,6.8,0,0,0,4.346-1.533v11.323l3.768-3.77v-23.407h-3.875Z" transform="translate(6913.617 -1361.838)" fill="#fff"/>
  </g>
</svg>
