<svg xmlns="http://www.w3.org/2000/svg" xmlns:xlink="http://www.w3.org/1999/xlink" width="48" height="48" viewBox="0 0 48 48">
  <defs>
    <linearGradient id="linear-gradient" x1="0.5" x2="0.5" y2="1" gradientUnits="objectBoundingBox">
      <stop offset="0" stop-color="#00adff"/>
      <stop offset="1" stop-color="#00f1ff"/>
    </linearGradient>
  </defs>
  <g id="Group_39992" data-name="Group 39992" transform="translate(-309 -117)">
    <rect id="Rectangle_21903" data-name="Rectangle 21903" width="48" height="48" rx="5" transform="translate(357 117) rotate(90)" fill="url(#linear-gradient)"/>
    <g id="Group_39820" data-name="Group 39820" transform="translate(302.021 127.765)">
      <path id="Path_41316" data-name="Path 41316" d="M90.171,139.626V134.59H80.979V151.6a2.508,2.508,0,0,0,2.5,2.5H95.018a2.507,2.507,0,0,0,2.5-2.5v-9.645H92.5A2.329,2.329,0,0,1,90.171,139.626ZM84.863,151a.775.775,0,1,1,.765-.775A.775.775,0,0,1,84.863,151Zm5.688,0H87.974a.775.775,0,0,1,0-1.551h2.576a.775.775,0,0,1,0,1.551Zm3.1-1.551a.775.775,0,1,1-.775.775A.776.776,0,0,1,93.653,149.449Z" transform="translate(-59.048 -127.632)" fill="#fff"/>
      <path id="Path_41317" data-name="Path 41317" d="M81.129,62.305h9.184V60H83.626A2.509,2.509,0,0,0,81.129,62.305Z" transform="translate(-59.19 -56.898)" fill="#fff"/>
      <path id="Path_41318" data-name="Path 41318" d="M23.2,2.8a.775.775,0,0,0-.118-1.546l-.068.007A4.913,4.913,0,0,0,18.746,6.7a.775.775,0,0,0,.769.685.783.783,0,0,0,.092-.006.775.775,0,0,0,.679-.861A3.36,3.36,0,0,1,23.2,2.8Z" transform="translate(0 -1.183)" fill="#fff"/>
      <path id="Path_41319" data-name="Path 41319" d="M299.125,3.19,296.162.227A.777.777,0,0,0,295.613,0h-6.059a.776.776,0,0,0-.776.775V5.407h10.573V3.738A.777.777,0,0,0,299.125,3.19Z" transform="translate(-256.105 0)" fill="#fff"/>
      <path id="Path_41320" data-name="Path 41320" d="M289.555,140.4h1.715V134.59h-2.49v5.036A.775.775,0,0,0,289.555,140.4Z" transform="translate(-256.105 -127.632)" fill="#fff"/>
      <path id="Path_41321" data-name="Path 41321" d="M366.949,134.59h2.49V140.4h-2.49Z" transform="translate(-330.234 -127.632)" fill="#fff"/>
      <path id="Path_41322" data-name="Path 41322" d="M445.119,140.4h1.715a.776.776,0,0,0,.775-.776V134.59h-2.49Z" transform="translate(-404.362 -127.632)" fill="#fff"/>
    </g>
  </g>
</svg>
