<svg xmlns="http://www.w3.org/2000/svg" xmlns:xlink="http://www.w3.org/1999/xlink" width="1920" height="157" viewBox="0 0 1920 157">
  <defs>
    <linearGradient id="linear-gradient" y1="0.5" x2="1" y2="0.5" gradientUnits="objectBoundingBox">
      <stop offset="0" stop-color="#226d96"/>
      <stop offset="1" stop-color="#373464"/>
    </linearGradient>
    <clipPath id="clip-path">
      <rect id="Rectangle_21949" data-name="Rectangle 21949" width="1920" height="157" fill="url(#linear-gradient)"/>
    </clipPath>
    <clipPath id="clip-path-2">
      <rect id="Rectangle_19910" data-name="Rectangle 19910" width="716.861" height="986" fill="none"/>
    </clipPath>
  </defs>
  <g id="Mask_Group_1" data-name="Mask Group 1" clip-path="url(#clip-path)">
    <rect id="Rectangle_19876" data-name="Rectangle 19876" width="1920" height="157" fill="url(#linear-gradient)"/>
    <g id="Group_1" data-name="Group 1" transform="translate(-36.93 -354)" opacity="0.13">
      <g id="Group_6011" data-name="Group 6011" transform="translate(0 0)" clip-path="url(#clip-path-2)">
        <path id="Path_10927" data-name="Path 10927" d="M515.012,459.722l201.85-201.867V147.223l-95.516,95.516q-6.8-11.2-14.776-21.833L716.861,110.614V0l-165.1,165.115c-50.525-38.131-113.963-59.032-179.623-59.032-166.1,0-291.365,124.477-291.365,289.556,0,66,21.492,129.492,60.7,179.766L0,716.879V827.493L198.214,629.262q10.773,7.764,22.155,14.472L0,864.1V974.716L107.14,867.595C160.674,941.94,248.667,986,344.72,986,510.839,986,636.1,861.523,636.1,696.443c0-96.143-45.062-183.814-121.092-236.721m-82.083,82.083c57.94,29.857,92.346,87.205,92.346,154.638,0,100.1-77.623,175.593-180.554,175.593-67.074,0-125.157-31.755-156.733-85.307ZM279.8,547.7,526.062,301.431A166.319,166.319,0,0,1,538.582,325.5L304.923,559.161A178,178,0,0,1,279.8,547.7m-58.1-52.513c-19.737-28.854-30.107-63.062-30.107-99.546,0-100.1,77.623-175.593,180.554-175.593,35.624,0,69.313,9.152,98.131,26.561Z" transform="translate(0 -0.004)" fill="#fff"/>
      </g>
    </g>
  </g>
</svg>
