<svg xmlns="http://www.w3.org/2000/svg" xmlns:xlink="http://www.w3.org/1999/xlink" width="91" height="91" viewBox="0 0 91 91">
  <defs>
    <clipPath id="clip-path">
      <rect id="Rectangle_21945" data-name="Rectangle 21945" width="59.858" height="39.705" fill="#fff"/>
    </clipPath>
  </defs>
  <g id="Group_39985" data-name="Group 39985" transform="translate(45 -2799)">
    <path id="Path_43515" data-name="Path 43515" d="M45.5,0A45.5,45.5,0,1,1,0,45.5,45.5,45.5,0,0,1,45.5,0Z" transform="translate(-45 2799)" fill="#226d96"/>
    <g id="Group_39945" data-name="Group 39945" transform="translate(-29.04 2824.079)" clip-path="url(#clip-path)">
      <path id="Path_43510" data-name="Path 43510" d="M59.834,7.714A7.857,7.857,0,0,0,51.984,0H7.863A7.853,7.853,0,0,0,.021,7.634h59.42a1.1,1.1,0,0,1,.393.08" transform="translate(0.005 0)" fill="#fff"/>
      <path id="Path_43511" data-name="Path 43511" d="M59.448,11.577H0V29.033A7.864,7.864,0,0,0,7.863,36.9H51.995a7.864,7.864,0,0,0,7.863-7.863V11.5a1.1,1.1,0,0,1-.411.075M7.366,25.586a.8.8,0,0,1,.236-.572.735.735,0,0,1,.585-.236H19.72a.752.752,0,0,1,.585.236.821.821,0,0,1,.236.572v.535a.85.85,0,0,1-.236.585.828.828,0,0,1-.585.236H8.187a.828.828,0,0,1-.585-.236.85.85,0,0,1-.236-.585Zm26.24,5.574c.012.212-.162.423-.473.572a2.8,2.8,0,0,1-1.17.236H8.9a2.8,2.8,0,0,1-1.17-.236c-.311-.149-.485-.361-.473-.572v-.547c-.012-.212.162-.423.485-.572A2.7,2.7,0,0,1,8.9,29.8H31.963a2.7,2.7,0,0,1,1.157.236c.323.149.5.361.485.572Z" transform="translate(0 2.809)" fill="#fff"/>
    </g>
  </g>
</svg>
