<svg xmlns="http://www.w3.org/2000/svg" width="90" height="90" viewBox="0 0 90 90">
  <g id="Group_38745" data-name="Group 38745" transform="translate(-0.362 0.37)">
    <circle id="Ellipse_2" data-name="Ellipse 2" cx="45" cy="45" r="45" transform="translate(0.362 -0.37)" fill="#226d96"/>
    <g id="Group_1" data-name="Group 1" transform="translate(24.747 15.275)">
      <path id="Path_10708" data-name="Path 10708" d="M151.34,104.041l11.61-11.61V86.068l-5.494,5.494q-.392-.644-.85-1.256l6.343-6.343V77.6l-9.5,9.5a17.172,17.172,0,0,0-10.33-3.4,16.34,16.34,0,0,0-16.759,16.654,16.818,16.818,0,0,0,3.491,10.339l-8.137,8.137v6.362l11.4-11.4q.618.447,1.273.832L121.719,127.3v6.362l6.162-6.16a16.721,16.721,0,0,0,13.666,6.809,16.7,16.7,0,0,0,9.793-30.269Zm-4.721,4.721a9.755,9.755,0,0,1,5.312,8.894,10.02,10.02,0,0,1-10.385,10.1,10.221,10.221,0,0,1-9.015-4.906Zm-8.806.339,14.164-14.164a9.722,9.722,0,0,1,.72,1.384L139.258,109.76A10.188,10.188,0,0,1,137.813,109.1Zm-3.343-3.02a10.156,10.156,0,0,1,8.654-15.825,10.86,10.86,0,0,1,5.643,1.528Z" transform="translate(-121.719 -77.6)" fill="#fff"/>
    </g>
  </g>
</svg>
