<svg xmlns="http://www.w3.org/2000/svg" xmlns:xlink="http://www.w3.org/1999/xlink" width="82" height="82" viewBox="0 0 82 82">
  <defs>
    <clipPath id="clip-path">
      <rect id="Rectangle_21879" data-name="Rectangle 21879" width="82" height="82" transform="translate(1352 888)" fill="none" stroke="#707070" stroke-width="1"/>
    </clipPath>
  </defs>
  <g id="Mask_Group_7279" data-name="Mask Group 7279" transform="translate(-1352 -888)" clip-path="url(#clip-path)">
    <g id="location" transform="translate(1355 892)">
      <path id="Path_41512" data-name="Path 41512" d="M31.786,50.819c4.6,0,18.786-13.063,18.786-29.033a18.786,18.786,0,1,0-37.572,0C13,37.631,26.639,50.819,31.786,50.819Zm0-44.4a15.388,15.388,0,0,1,15.37,15.37c0,14.513-12.821,25.475-15.37,25.617-2.468,0-15.37-10.93-15.37-25.617A15.388,15.388,0,0,1,31.786,6.416Z" transform="translate(5.786 -3)" fill="#373464"/>
      <path id="Path_41513" data-name="Path 41513" d="M36.078,17.539a8.539,8.539,0,1,0-8.539,8.539A8.549,8.549,0,0,0,36.078,17.539Zm-13.662,0a5.123,5.123,0,1,1,5.123,5.123A5.13,5.13,0,0,1,22.416,17.539Z" transform="translate(10.033 1.247)" fill="#373464"/>
      <path id="Path_41514" data-name="Path 41514" d="M75.241,14.61a5.1,5.1,0,0,0-4.3-1.018L63,15.3a1.707,1.707,0,1,0,.717,3.339l7.943-1.708a1.674,1.674,0,0,1,1.433.338,1.691,1.691,0,0,1,.632,1.324v39.28a1.706,1.706,0,0,1-1.347,1.677l-19.146,4.1v-22a1.708,1.708,0,1,0-3.416,0v22l-20.4-4.372c-.031-.007-.061,0-.092-.01V41.938a1.708,1.708,0,1,0-3.416,0V59.267c-.027.005-.056,0-.084.009L7.48,63.2a1.671,1.671,0,0,1-1.433-.336,1.694,1.694,0,0,1-.632-1.324v-39.3a1.714,1.714,0,0,1,1.349-1.66l9.376-2.015a1.708,1.708,0,1,0-.717-3.34L6.044,17.246a5.152,5.152,0,0,0-4.044,5v39.3a5.116,5.116,0,0,0,6.2,5l18.35-3.93a5.074,5.074,0,0,1,2.145,0L49.728,67.12a8.555,8.555,0,0,0,3.59,0L73.1,62.884a5.1,5.1,0,0,0,4.042-5.016V18.59a5.1,5.1,0,0,0-1.9-3.983Z" transform="translate(-2 4.414)" fill="#373464"/>
    </g>
  </g>
</svg>
