<svg xmlns="http://www.w3.org/2000/svg" xmlns:xlink="http://www.w3.org/1999/xlink" width="82" height="82" viewBox="0 0 82 82">
  <defs>
    <clipPath id="clip-path">
      <rect id="Rectangle_21878" data-name="Rectangle 21878" width="82" height="82" transform="translate(971 887)" fill="none" stroke="#707070" stroke-width="1"/>
    </clipPath>
  </defs>
  <g id="Mask_Group_7278" data-name="Mask Group 7278" transform="translate(-971 -887)" clip-path="url(#clip-path)">
    <g id="schedule" transform="translate(977.949 892)">
      <path id="Path_41515" data-name="Path 41515" d="M34.488,62.314H10.151a4.89,4.89,0,0,1-4.89-4.89V23.191H59.054v10.3a1.63,1.63,0,1,0,3.26,0V15.041A8.16,8.16,0,0,0,54.163,6.89H50.9a4.89,4.89,0,1,0-9.781,0H23.191a4.89,4.89,0,1,0-9.781,0h-3.26A8.16,8.16,0,0,0,2,15.041V57.424a8.16,8.16,0,0,0,8.151,8.151H34.488a1.63,1.63,0,0,0,0-3.26ZM44.383,6.89a1.63,1.63,0,0,1,3.26,0v3.26a1.63,1.63,0,0,1-3.26,0Zm-27.712,0a1.63,1.63,0,1,1,3.26,0v3.26a1.63,1.63,0,1,1-3.26,0ZM5.26,15.041a4.89,4.89,0,0,1,4.89-4.89h3.26a4.89,4.89,0,0,0,9.781,0H41.123a4.89,4.89,0,1,0,9.781,0h3.26a4.89,4.89,0,0,1,4.89,4.89v4.89H5.26Z" transform="translate(-2 -2)" fill="#373464"/>
      <path id="Path_41516" data-name="Path 41516" d="M18.411,21.26A3.26,3.26,0,0,0,15.151,18H10.26A3.26,3.26,0,0,0,7,21.26v4.89a3.26,3.26,0,0,0,3.26,3.26h4.89a3.26,3.26,0,0,0,3.26-3.26Zm-8.151,4.89V21.26h4.89v4.89Z" transform="translate(1.151 8.082)" fill="#373464"/>
      <path id="Path_41517" data-name="Path 41517" d="M28.411,21.26A3.26,3.26,0,0,0,25.151,18H20.26A3.26,3.26,0,0,0,17,21.26v4.89a3.26,3.26,0,0,0,3.26,3.26h4.89a3.26,3.26,0,0,0,3.26-3.26Zm-8.151,4.89V21.26h4.89v4.89Z" transform="translate(7.452 8.082)" fill="#373464"/>
      <path id="Path_41518" data-name="Path 41518" d="M36.781,24.749a1.63,1.63,0,0,0,1.63-1.63V21.26A3.26,3.26,0,0,0,35.151,18H30.26A3.26,3.26,0,0,0,27,21.26v4.695a1.63,1.63,0,1,0,3.26,0V21.26h4.89v1.858A1.63,1.63,0,0,0,36.781,24.749Z" transform="translate(13.753 8.082)" fill="#373464"/>
      <path id="Path_41519" data-name="Path 41519" d="M15.151,28H10.26A3.26,3.26,0,0,0,7,31.26v4.89a3.26,3.26,0,0,0,3.26,3.26h4.89a3.26,3.26,0,0,0,3.26-3.26V31.26A3.26,3.26,0,0,0,15.151,28Zm-4.89,8.151V31.26h4.89v4.89Z" transform="translate(1.151 14.383)" fill="#373464"/>
      <path id="Path_41520" data-name="Path 41520" d="M26.275,28.214A3.025,3.025,0,0,0,25.151,28H20.26A3.26,3.26,0,0,0,17,31.26v4.89a3.26,3.26,0,0,0,3.26,3.26h3.325a1.63,1.63,0,0,0,0-3.26H20.26V31.26l4.809-.018a1.63,1.63,0,1,0,1.206-3.029Z" transform="translate(7.452 14.383)" fill="#373464"/>
      <path id="Path_41521" data-name="Path 41521" d="M41.931,24A17.931,17.931,0,1,0,59.862,41.931,17.931,17.931,0,0,0,41.931,24Zm0,32.6A14.671,14.671,0,1,1,56.6,41.931,14.671,14.671,0,0,1,41.931,56.6Z" transform="translate(11.862 11.862)" fill="#373464"/>
      <path id="Path_41522" data-name="Path 41522" d="M37.26,38.106V30.63a1.63,1.63,0,0,0-3.26,0v8.151a1.63,1.63,0,0,0,.477,1.152l3.26,3.26a1.63,1.63,0,1,0,2.305-2.305Z" transform="translate(18.163 15.013)" fill="#373464"/>
    </g>
  </g>
</svg>
