<svg xmlns="http://www.w3.org/2000/svg" width="41.849" height="41.739" viewBox="0 0 41.849 41.739">
  <path id="Subtraction_3" data-name="Subtraction 3" d="M36.213,40.739a1.2,1.2,0,0,1-.909-.418l-3.417-3.987a1.2,1.2,0,0,1,.908-1.975h1.194V28.777a1.2,1.2,0,0,1,1.2-1.2H37.24a1.2,1.2,0,0,1,1.2,1.2v5.583h1.194a1.2,1.2,0,0,1,.908,1.975l-3.417,3.987A1.2,1.2,0,0,1,36.213,40.739Zm-3.7,0H10.925A3.592,3.592,0,0,1,7.337,37.15V25.986H27.911A4.79,4.79,0,0,0,32.7,21.2V10.037a4.79,4.79,0,0,0-4.784-4.784H7.337V3.5A3.594,3.594,0,0,1,10.125,0H35.648a3.594,3.594,0,0,1,2.788,3.5v21.9a3.557,3.557,0,0,0-1.2-.206H35.186A3.592,3.592,0,0,0,31.6,28.777v3.391a3.6,3.6,0,0,0-1.526,5.723l2.439,2.846Zm-4.6-17.145H2.392A2.4,2.4,0,0,1,0,21.2V10.037A2.4,2.4,0,0,1,2.392,7.645H27.911A2.4,2.4,0,0,1,30.3,10.037V21.2A2.4,2.4,0,0,1,27.911,23.593ZM21.719,10.939V20H22.9V15.918h3.2v-.962H22.9V11.9h3.938v-.962Zm-9.191,0V20h2.821a5.741,5.741,0,0,0,2.568-.539A3.832,3.832,0,0,0,19.58,17.9a4.823,4.823,0,0,0,.579-2.411,4.866,4.866,0,0,0-.579-2.418,3.905,3.905,0,0,0-1.664-1.58,5.623,5.623,0,0,0-2.568-.553ZM5,10.939V20H6.184V16.217H7.926a3.293,3.293,0,0,0,2.359-.748,2.512,2.512,0,0,0,.774-1.878,2.5,2.5,0,0,0-.8-1.911,3.328,3.328,0,0,0-2.333-.742Zm10.347,8.087H13.711V11.9h1.638a3.59,3.59,0,0,1,2.672.95,3.628,3.628,0,0,1,.93,2.639,3.551,3.551,0,0,1-.923,2.606A3.628,3.628,0,0,1,15.349,19.025ZM7.926,15.242H6.184V11.914H7.926c1.276,0,1.923.564,1.923,1.677a1.581,1.581,0,0,1-.468,1.222A2.108,2.108,0,0,1,7.926,15.242Z" transform="translate(0.5 0.5)" fill="#216d96" stroke="rgba(0,0,0,0)" stroke-width="1"/>
</svg>
