<svg xmlns="http://www.w3.org/2000/svg" xmlns:xlink="http://www.w3.org/1999/xlink" width="67" height="67" viewBox="0 0 67 67">
  <defs>
    <clipPath id="clip-path">
      <rect id="Rectangle_21872" data-name="Rectangle 21872" width="67" height="67" transform="translate(1050 2914)" fill="none" stroke="#707070" stroke-width="1"/>
    </clipPath>
    <clipPath id="clip-path-2">
      <rect id="Rectangle_21506" data-name="Rectangle 21506" width="40.68" height="44.088" fill="none"/>
    </clipPath>
  </defs>
  <g id="Mask_Group_7275" data-name="Mask Group 7275" transform="translate(-1050 -2914)" clip-path="url(#clip-path)">
    <g id="Group_39498" data-name="Group 39498">
      <circle id="Ellipse_75" data-name="Ellipse 75" cx="33.5" cy="33.5" r="33.5" transform="translate(1050 2914)" fill="#216d96"/>
      <g id="Group_39281" data-name="Group 39281" transform="translate(1063.16 2925.456)">
        <g id="Group_39280" data-name="Group 39280" clip-path="url(#clip-path-2)">
          <path id="Path_41977" data-name="Path 41977" d="M.789,30.646a.987.987,0,0,1-.771-1.165C.154,28.7.03,27.815.807,27.24a.722.722,0,0,0,.157-.506,5.19,5.19,0,0,1,.854-2.5C2.5,23.05,3.18,21.863,3.9,20.7a1.513,1.513,0,0,0,.058-1.638c-1.029-2-1.161-1.551-.253-4.128.609-1.728,1.022-3.525,1.55-5.284a14.736,14.736,0,0,1,.605-1.5,6.135,6.135,0,0,0,.826-2.042,10.61,10.61,0,0,1,.343-2.4,3.889,3.889,0,0,1,1.8-2.55,2.251,2.251,0,0,0,.654-.7A.8.8,0,0,1,10.482.049a5.953,5.953,0,0,0,1.959.436A5.379,5.379,0,0,1,14.908,1a38.618,38.618,0,0,0,5.182,1.468,14.67,14.67,0,0,0,1.641.245c.108.015.248-.019.32.038.757.594,1.792.691,2.486,1.4a1.125,1.125,0,0,0,.365.224c1.275.536,2.543,1.09,3.836,1.58a1.4,1.4,0,0,0,1.02-.027,3.443,3.443,0,0,1,2.749-.176c1.147.355,2.314.645,3.458,1.009a8.754,8.754,0,0,1,4.089,2.71c.319.375.687.774.447,1.366a1.365,1.365,0,0,1-1.614.836,2.115,2.115,0,0,0-2.622.763c-.113.143-.351.185-.524.285s-.346.219-.479.3c.3.509.562.954.825,1.4a1.683,1.683,0,0,1,.2,1.355,1.176,1.176,0,0,0,.657,1.129c.328.08.608.014.587-.4a2.38,2.38,0,0,1,.935-1.989,7.4,7.4,0,0,0,.706-.6.777.777,0,0,1,1.013-.114,1.138,1.138,0,0,1,.5.835A3.417,3.417,0,0,1,39.622,17.5a3.451,3.451,0,0,0-.741.936,1.071,1.071,0,0,0,.114,1.315,1.288,1.288,0,0,1,.271.836c-.131,1.505-.335,3-.471,4.508-.086.96-.1,1.928-.144,2.892a2.954,2.954,0,0,1-1.037,1.979,2.181,2.181,0,0,0-.561.824c-.829,2.562-1.628,5.133-2.432,7.7a1.025,1.025,0,0,0-.073.48c.3,1.416-.29,2.718-.527,4.061-.106.6-.972,1.017-1.628,1.054A10.914,10.914,0,0,1,29.71,43.7c-1.515-.291-3.055-.458-4.571-.746a6.107,6.107,0,0,1-2.726-1.012,15.574,15.574,0,0,0-2.421-1.368,1.2,1.2,0,0,0-.662.006c-.483.078-.94.359-1.459.091-.112-.058-.323.118-.481.1a5.835,5.835,0,0,1-1.6-.228,15.5,15.5,0,0,0-3.777-1.081,30.2,30.2,0,0,1-5.213-1.379c-1.382-.442-2.729-1.009-4.062-1.587a11.884,11.884,0,0,1-1.721-1.046,1.986,1.986,0,0,1-.877-1.5c-.027-.255.218-.536.335-.808a2.632,2.632,0,0,0,.3-.75c.045-.561.014-1.128.014-1.745M35.121,12.84l.042-.171q-.6-.551-1.2-1.1a6.44,6.44,0,0,1-1.013-.953c-.287-.414-.39-.954-.661-1.383-.171-.271-.49-.6-.764-.623-.535-.041-1.034-.329-1.638-.106-.386.142-.637.3-.659.643a2.161,2.161,0,0,1-.626,1.349c-.367.415-.272.758.056,1.191a4.337,4.337,0,0,1,.859,1.524A3.429,3.429,0,0,1,27.7,17.077c-.316.174-.587.436-.91.592a3.622,3.622,0,0,1-1.342.5,1.483,1.483,0,0,0-1.3.856,4.827,4.827,0,0,1-.73,1.011,1.06,1.06,0,0,1-.818.262c-.979-.233-1.934-.568-2.908-.826a1.542,1.542,0,0,0-.933-.024,3.664,3.664,0,0,1-2.961-.074,1.929,1.929,0,0,0-1.314-.171,1.525,1.525,0,0,1-1.76-.214,1.262,1.262,0,0,0-1.171-.179,5.313,5.313,0,0,1-.689.067,2.428,2.428,0,0,0-1,.214c-.586.426-1.046,1.03-1.648,1.426a2.207,2.207,0,0,0-.866,1.978,12.088,12.088,0,0,1-.82,4.133c-.285.63-.517,1.285-.822,1.9A3.1,3.1,0,0,0,5.471,31.3a1.583,1.583,0,0,0,.647.7c.108.058.422-.234.619-.4a1.556,1.556,0,0,0,.247-.358c.492-.735.618-.773,1.433-.429a3.983,3.983,0,0,1,.445.207,5.191,5.191,0,0,0,2.913.877,3.705,3.705,0,0,1,.944.119c1.31.273,1.748,1.336,2.183,2.412a6.131,6.131,0,0,0,.507.846c.365-.227.739-.44,1.087-.69.1-.075.1-.313.2-.381a3.216,3.216,0,0,0,1.354-2.141c.163-.687.412-1.353.609-2.033a23.522,23.522,0,0,0,1.168-3.6.1.1,0,0,1,.027-.047,3.994,3.994,0,0,0,.81-3.127,3.462,3.462,0,0,1,0-.546,1.065,1.065,0,0,1,.966-1.073,5.708,5.708,0,0,1,1.254.094c.791.114,1.041.268,1.059,1.053a8.03,8.03,0,0,1-.354,2.23,3.053,3.053,0,0,0,.045,2.023,8.306,8.306,0,0,1,.28.827,5,5,0,0,1-.4,4.115,13.3,13.3,0,0,0-.723,1.219,1.413,1.413,0,0,0-.132.886c.033.12.49.131.757.176a7.034,7.034,0,0,1,1.094.175,5.183,5.183,0,0,1,1,.54c.368.226.715.486,1.081.715a7.542,7.542,0,0,0,1.591.925,9.88,9.88,0,0,0,2.017.2,16.957,16.957,0,0,0-1.4-1.388,5.257,5.257,0,0,1-2.015-2.348,10.118,10.118,0,0,1-.436-.935,1.685,1.685,0,0,1,.039-1.014c.169-.354.561-.223.879-.1.135.051.277.082.414.126a5.639,5.639,0,0,1,2.81,1.853,2.409,2.409,0,0,0,1.678.969c.464.059.958.009,1.073-.476.124-.525-.4-.646-.791-.8A6.487,6.487,0,0,1,28.935,30a18.744,18.744,0,0,0-2.216-3.077,3,3,0,0,1-.478-1.3,1.1,1.1,0,0,1,.643-1.033,1.792,1.792,0,0,1,1.583.291,11.294,11.294,0,0,0,1.363.865,1.315,1.315,0,0,1,.3.3,6.452,6.452,0,0,0,3.3,2.252c.439.129.641-.082.813-.423.194-.383-.046-.54-.315-.742-.459-.344-.875-.743-1.32-1.105a6.539,6.539,0,0,0-.74-.529,12.83,12.83,0,0,1-1.73-1.038,12.613,12.613,0,0,1-1.571-1.732c-1.126-1.4-.852-2.483.487-3.54.368-.29.666-.206.9.194a1.718,1.718,0,0,0,.383.5c.781.619,1.6,1.192,2.363,1.832.74.62,1.478.712,2.031.221L33.533,20a.127.127,0,0,0-.034-.042c-.871-.546-.778-1.669-1.437-2.37a3.409,3.409,0,0,1-.773-1.908,1.188,1.188,0,0,1-.016-.625,9.922,9.922,0,0,1,.972-1.593,1.6,1.6,0,0,1,.88-.523,7.054,7.054,0,0,1,1.22.021,5.735,5.735,0,0,0,.777-.118m-12.232-.6-.045-.2a2.329,2.329,0,0,1-.665-.207.821.821,0,0,1-.372-.526c-.01-.824-.675-1.413-1.416-1.061-.555.263-.853,0-1.223-.235-.323-.2-.557-.449-1.046-.218-.286.135-.626.192-.645.5-.014.231.208.491.363.711s.471.373.518.6c.211,1.013-.057,1.486-1.024,2a1.359,1.359,0,0,1-1.768-.347c-.816-.888-.908-1.188-.369-1.918A18.532,18.532,0,0,1,16.608,9.8c-.1-.368-.424-.529-.836-.647a7.028,7.028,0,0,1-1.8-.661,1.052,1.052,0,0,0-1.332.015.927.927,0,0,0-.253,1.257,1.857,1.857,0,0,1-.344,2.26c-.171.163-.325.344-.484.52-.549.606-.516.787.23,1.141.246.116.518.179.759.3a1.982,1.982,0,0,1,.764.5,2.64,2.64,0,0,0,2.063.947,1.32,1.32,0,0,1,.858.534c.2.214.453.5.7.516a15.549,15.549,0,0,0,1.7-.136,2.364,2.364,0,0,1,1.076.059,1.674,1.674,0,0,0,1.918-.309,1.033,1.033,0,0,0-.037-1.743,1.276,1.276,0,0,1-.473-1.279,1.243,1.243,0,0,1,1.256-.773,2.862,2.862,0,0,0,.521-.066M20.4,5.867A12.186,12.186,0,0,1,19.042,5.7c-.772-.193-1.529-.449-2.3-.651a14.2,14.2,0,0,0-1.949-.421c-.271-.031-.571.191-.859.3.147.193.29.389.443.578.031.038.1.048.146.069q3.215,1.371,6.433,2.737a.941.941,0,0,0,.522.085,19.021,19.021,0,0,0,2.128-.536.612.612,0,0,0,.334-.9c-.157-.34-.328-.652-.825-.407a1.075,1.075,0,0,1-.666-.044,1,1,0,0,0-1.331.446c-.1.137-.356.161-.54.236a3.321,3.321,0,0,1-.122-.475c-.036-.327-.049-.656-.062-.843" transform="translate(0 0)" fill="#fff"/>
          <path id="Path_41978" data-name="Path 41978" d="M88.439,231.822a6.4,6.4,0,0,1-.14.748.939.939,0,0,1-1.5.649,5.163,5.163,0,0,0-2.64-.536c-.053,0-.136.041-.155.019-.429-.5-.96-.161-1.447-.191a1.91,1.91,0,0,1-1.4-1.808,1.624,1.624,0,0,1,2.1-1.4c.527.2,1.053.4,1.575.613a4.1,4.1,0,0,0,1.921.36,1.6,1.6,0,0,1,1.689,1.548" transform="translate(-72.258 -204.1)" fill="#fff"/>
          <path id="Path_41979" data-name="Path 41979" d="M117.093,190.817c-.3-.042-.752-.1-1.208-.17-.071-.01-.159-.065-.208-.04-.8.405-1.322-.249-1.93-.521a.747.747,0,0,1-.286-.608,1.434,1.434,0,0,1,1.86-1.167c.71.244,1.446.413,2.174.6.113.029.246-.032.369-.029.2,0,.491-.049.584.059a.792.792,0,0,1,.064.613,1.741,1.741,0,0,1-1.418,1.264" transform="translate(-101.028 -167.617)" fill="#fff"/>
        </g>
      </g>
    </g>
  </g>
</svg>
