<svg xmlns="http://www.w3.org/2000/svg" xmlns:xlink="http://www.w3.org/1999/xlink" width="67" height="67" viewBox="0 0 67 67">
  <defs>
    <clipPath id="clip-path">
      <rect id="Rectangle_21870" data-name="Rectangle 21870" width="67" height="67" transform="translate(269 2758)" fill="none" stroke="#707070" stroke-width="1"/>
    </clipPath>
  </defs>
  <g id="Mask_Group_7271" data-name="Mask Group 7271" transform="translate(-269 -2758)" clip-path="url(#clip-path)">
    <g id="Group_39500" data-name="Group 39500">
      <circle id="Ellipse_77" data-name="Ellipse 77" cx="33.5" cy="33.5" r="33.5" transform="translate(269 2758)" fill="#216d96"/>
      <path id="lounge" d="M17.728,36.978h1.24v1.15H18.3v4.637h-.781a2.666,2.666,0,0,0-.368.026V37.553A.575.575,0,0,1,17.728,36.978Zm-.206,6.937H53.9a1.523,1.523,0,1,1,0,3.045H17.522a1.523,1.523,0,1,1,0-3.045ZM43.374,33.176h7.111a.823.823,0,0,1,.821.821v7.111a.823.823,0,0,1-.821.821H43.374a.823.823,0,0,1-.821-.821V34A.823.823,0,0,1,43.374,33.176Zm-22.435,0h7.111a.823.823,0,0,1,.821.821v7.111a.823.823,0,0,1-.821.821H20.939a.823.823,0,0,1-.821-.821V34a.823.823,0,0,1,.821-.821Zm11.217,0h7.111a.823.823,0,0,1,.821.821v7.111a.823.823,0,0,1-.821.821H32.156a.823.823,0,0,1-.821-.821V34A.823.823,0,0,1,32.156,33.176Zm20.3,3.8H53.7a.575.575,0,0,1,.575.575V42.79a2.669,2.669,0,0,0-.369-.026h-.781V38.128h-.665ZM22.576,48.11v3.24h1.309a.575.575,0,1,1,0,1.15H20.118a.575.575,0,1,1,0-1.15h1.309V48.11Zm27.42,0v3.24h1.309a.575.575,0,1,1,0,1.15H47.538a.575.575,0,1,1,0-1.15h1.309V48.11ZM34.616,24.566l-3.948-3.22a.41.41,0,0,1,.033-.66l.962-.638A.4.4,0,0,1,32.029,20L35.4,21.218a1.592,1.592,0,0,0,1.378-.123l14.065-8.12c2.441-1.41,7.281.512,2.648,3.187L50.7,17.775a1.586,1.586,0,0,0-.758.969l-2.9,10.107a.4.4,0,0,1-.189.242l-1.325.765a.41.41,0,0,1-.616-.362l.124-7.8a.41.41,0,0,0-.6-.37c-2.024,1.068-8.439,4.311-9.815,3.241Zm10.028-9.339-6.388-1.59a.4.4,0,0,0-.3.043l-1.325.765a.411.411,0,0,0,.006.715l4.14,2.3ZM21.99,15.073a3.418,3.418,0,1,0,3.418,3.418,3.418,3.418,0,0,0-3.418-3.418Zm0,4.24a.822.822,0,0,1-.223-.031l-.952.55a.574.574,0,0,1-.575-.993l.954-.55a.82.82,0,0,1,.221-.384V16.142a.575.575,0,0,1,1.15,0V17.9a.821.821,0,0,1-.575,1.408Zm0-6.812a5.991,5.991,0,1,0,5.991,5.991A5.991,5.991,0,0,0,21.99,12.5Zm0,10.559a4.568,4.568,0,1,1,4.568-4.568,4.568,4.568,0,0,1-4.568,4.568Z" transform="translate(266.788 2759)" fill="#fff" fill-rule="evenodd"/>
    </g>
  </g>
</svg>
